<?xml version="1.0" encoding="utf-8"?>
<!-- Generator: Adobe Illustrator 22.0.1, SVG Export Plug-In . SVG Version: 6.00 Build 0)  -->
<svg version="1.1" id="圖層_1" xmlns="http://www.w3.org/2000/svg" xmlns:xlink="http://www.w3.org/1999/xlink" x="0px" y="0px"
	 viewBox="0 0 600 650" style="enable-background:new 0 0 600 650;" xml:space="preserve">
<style type="text/css">
	.st0{fill:#E9D7BE;}
	.st1{fill:#3A302E;}
</style>
<g>
	<g>
		<path class="st0" id="flagArea" d="M261.8,109.9c0,0,108.5-44.6,122.8-93.7c0,0,105.1,39,171.7,39c0,0-30,311.8,36.9,357.3
			c0,0-192.2-31.2-320.4,28.5C272.8,441,301,189.7,261.8,109.9z"/>
		<g>
			<g>
				<g>
					<g>
						<path class="st1" d="M264.6,108.1c-4.6,2,2.6-0.8-3,1.4C262.2,109.1,263.1,108.7,264.6,108.1z"/>
						<path class="st1" d="M267.5,125.4c2.9,7.5,5,16.6,6.8,26c1.8,9.4,3,19,4.2,27.7c0.3,2-0.5-0.5,0.1,4.1
							c1.2,8.5,2.1,19.4,2.7,30.9c0.6,11.5,0.7,23.4,0.6,33.8l-0.1-1.3c0,4,0.4,8.8,0.4,13c-0.1,0-0.1-1.3-0.2-0.4
							c0.3,1.1,0.1,7.6,0.3,9.4c-0.1,1.7-0.3,1.5-0.4,3.6l0.3,2.4c0.6,6.7-0.2,16.2-0.1,25.3c-0.1-0.4-0.1-1.3-0.2-0.6
							c0,14.6-0.8,32.9-1.5,49.3c-0.1-0.7-0.2-1.3-0.4-0.3c0.2,0.8,0,5.9-0.2,10.3c-0.4,2-0.2,7.5-0.7,12.7l0-0.4
							c0.1,3.8-0.6,5.6-0.4,8.7l-0.4,2.4c0.3,1.7-0.6,5.5-0.6,8.6l0.1-0.1c-0.1,3-0.5,4.5-0.6,7.2l-0.1,0.3c-0.4,6.4-1,10.1-0.6,10
							c-0.4,2.2,0.4-6.2-0.3-2.7c-0.4,5.9-0.9,11.9-1.4,17.8c-0.3,3-0.5,6-0.8,9c-0.3,2.9-0.6,5.7-0.9,8.6l6.1-2.7
							c2.2-0.9,4.3-1.9,6.5-2.8c2.2-0.9,4.4-1.7,6.6-2.5l3.3-1.3c1.1-0.4,2.2-0.8,3.3-1.2c2.3-0.7,3.8-1.1,4.4-1.2
							c2-0.7,7.6-2.7,9.4-3.3c-0.7,0.2,1.4-0.2,2.5-0.5c3.8-1,4-1.5,8.1-2.6c-1.6,0.6-2.1,0.8-1.5,0.8c3.4-1.3,8.2-2.4,12.3-3.5
							c-0.6,0.2-1.6,0.5-1.4,0.6c4.5-1.5,8.3-1.9,12.3-3l-1.5,0.5c6.5-1.2,1.8-0.8,7.4-1.9c-1.3,0.3-0.8,0.3-1.1,0.4
							c5.2-1.3,13.7-3,18.9-3.9c-0.3,0.1-0.2,0.1-0.2,0.1c2.9-0.5,5.8-1,8.8-1.4c3-0.4,6.1-0.9,9.3-1.4c2.3-0.2-0.7,0.5,5.4-0.3
							c-0.3-0.3,10.3-1.3,6.7-1.3c5.2-0.6,13.5-1.1,17-1.6c-2.3,0.4,2.6,0.2-1.8,0.6l3.3-0.1c-0.5,0.2-3.4,0.3-2.3,0.4
							c2.2-0.3,8.5-0.8,10.5-0.9c2-0.3,3.9-0.6,6.2-0.8c2.2-0.3,4.8-0.5,8.1-0.7c-3.1,0.3,1.8,0.3-0.3,0.5l4.6-0.6l4.6-0.5
							c2.2-0.1,0.5,0.3,3.6,0.1c-0.2-0.1,1.2-0.2,2.2-0.3c0.8,0,9.1-0.3,10,0.1c1,0.1-3.6,0.1-1.1,0.2c4-0.1,4.2-0.2,8.2-0.2l0.1,0
							c2.7,0,7.9-0.2,5-0.4c-1.9,0,0.7,0.2-2,0.1c1.9-0.2,6.6-0.3,10.6-0.2c-1.4,0-1.2,0.1-1.8,0.2c2.7-0.1,5.5-0.2,8.4-0.2
							c2.9,0,5.8,0,8.9,0c0.1-0.2-2.3,0.3-3.2,0.1c3.9,0.2,7.9,0.2,11.7,0.3c3.8,0.1,7.5,0.2,10.7,0.5c-1.1,0-0.6-0.3-0.5-0.2
							c3.7,0.2,3.6,0.5,6,0.5c0.2,0.2,3.1,0.1,5.6,0.3c1.3,0,0.6,0.1-1.5,0c3.5,0.1,17.5,0.8,25.5,1.8c-0.1-0.1,5,0.1,6.8,0.3
							l-0.7,0.2c1.7,0.3,6.2,0.6,6.5,0.8c2,0.1-1.8-0.3-5.4-0.6c-3.6-0.3-7.1-0.5-4.4-0.4c1.4,0.3,7.5,0.4,6.3,0.6
							c3.7,0.4,7.3,0.5,10.9,1.1c-1-0.2-3,0,0,0.3c5.3,0.6,1.5,0.1,5.8,0.5l2.7,0.3c0.1-0.1,1.3,0.1,2.2,0.2c0.2,0,0.4,0.1,0.6,0.1
							c0.1,0,0.2,0,0.2,0c0.1,0,0,0-0.2-0.1c0.2,0.1,1.1,0.2,1.9,0.3c0.8,0.1,1.6,0.3,2.1,0.5c0.2,0.1,0.3,0.2,0.4,0.3
							c0.2,0,0.3,0,0.5,0.1l0.2,0c0.1,0,0,0-0.1-0.1l-0.1-0.1c-1.1-0.8-2.1-1.3-2.8-1.8c-0.1-0.1-0.2-0.3-0.1-0.3
							c-0.2,0-0.5-0.2-0.7-0.4c-0.1-0.1-0.3-0.2-0.4-0.3c-0.1-0.1-0.1-0.1-0.2-0.2l-0.1-0.1l-0.1-0.1l-0.2-0.2
							c-1.1-1.3-2.5-2.7-3.4-3.7c-0.4-0.5-0.8-1-1.2-1.6c-0.4-0.5-0.8-1.1-1.2-1.7c-0.8-1.2-1.6-2.4-2.3-3.6
							c-0.7-1.2-1.3-2.3-1.9-3.3c-0.5-1-0.9-1.8-1.1-2.3c-0.5-0.8-0.9-1.6-1.4-2.4c-0.4-0.8-0.8-1.6-1.2-2.5
							c-0.4-0.8-0.8-1.7-1.2-2.6c-0.4-0.9-0.7-1.8-1.1-2.8c0.4,0.8,0.8,1.8,1,2c-0.9-2.5-1.3-3.1-2.2-5.3c0.1,0.2-0.3-1-0.8-2.7
							c-0.6-1.7-1.1-3.8-1.5-5.2c-1.3-3.5-1.1-2.2-1.3-2.5c-0.6-3.3-3.2-9.9-3.7-14.1c0.4,1.2,1.5,5.2,0.9,2.2
							c-0.2-1.7-0.7-3.3-1.2-5.2c-0.5-1.9-1.1-4-1.6-6.7l-0.1,1.4c-0.3-2.4-1.7-7.8-1.3-7.3c-0.5-1.8-1-6.3-1.2-5.7
							c-1.2-8.8-3.4-21.4-3.3-26.9c-0.2-1.3-0.5-4.4-0.6-3.8c0,2.1,0.5,2.9,0.4,3.7c-0.1-1.1-0.3-1.4-0.3-1.5
							c-0.2-2.8-0.4-4.9,0.1-2.4c-0.4-6.1-1.3-6.2-1.8-14.1c0.2,0.3,0.2-0.3,0-2.5l-0.6-4.3c-0.3-5.1,0.1-2.9,0.4-3
							c-0.2-2.7-0.5-6-0.7-7.2l0.1-3.3c-0.1,2.4-0.3-2.2-0.4-3.5l0.1,1.3c0.1-0.5-0.1-3.6-0.3-5.2c-0.1,0.4,0,3.6,0,5.3
							c-0.2-1.4-0.3-3.5-0.5-5.3c0.3,0.6-0.1-4.4-0.1-6.6c-0.1-2.5-0.3-2.8-0.4-3.5c0.1-0.1-0.1-4,0.1-2.1c0.1,0.8,0,1.9,0.1,3.3
							c0-1.6,0.2-1.4,0-4.8c-0.2-2.5-0.5,0.7-0.5-4.2c0.1,1.3,0.2,1.5,0.3,2.5l0-4.5l-0.2-0.2c0-0.6,0.1-0.2,0.1-0.5
							c-0.3-1.3-0.3-6.9-0.5-7.9c-0.1-2.3,0.1-4.8,0-7l0,0.4c0.1-2.7,0-6.2-0.2-8.4l0,0.1c0-1.4-0.1-4.9-0.2-6.7
							c0.2-3.7,0.8-1.2,0.5-5.3c0-3.7-0.4-5.8-0.5-4.3c0.2-6.7-0.1-14.3,0.3-20.5c-0.1-1-0.1-0.4-0.2-2.3c0.3-9.8,0.2-20.7,0.9-28.5
							c0,2.8,0.2,0.2,0.3,0.1c-0.1-2.4,0.3-2.8,0-3.7c-0.2,0.2-0.3,0-0.5,2.7c0.1-5.9,0.5-14.7,0.8-18c-0.2,1.6-0.2,0.4-0.2-0.9
							c0.3,0.4,0.6-3.9,0.6-7.1l-0.2-0.5l0.3-2.1c0-1.3-0.3-1.4,0-4.6c0.1-0.2,0.2-0.3,0.3-0.9c0-3.4,0-8.2,0.4-11.8l0.5-3
							c0.1-1.6,0.1-4.2-0.2-1.5c0.6-6.2,0.9-10.3,1.3-12.2c0.1-4.2,0.3-9.1,0.6-14.3c0.2-2.6,0.3-5.2,0.5-7.9
							c0.2-2.1,0.3-4.1,0.5-6.2c-2.4-0.1-4.8-0.2-7-0.3l0.4-0.1c-3.4-0.3-1.8,0.2-4.1,0c0.6-0.1-0.1-0.1-0.5-0.3
							c-0.4-0.1-0.7-0.2,0.6-0.2c-4.8-0.5-6.2-0.3-9.4-0.5c-0.5,0.1,2.5,0.1,1.9,0.3c-0.5,0-6.7-0.7-7.4-0.6
							c-1.2-0.3-0.2-0.4,0.4-0.4l-2.9-0.3c-1.8-0.4,0.3-0.3,2.3-0.2c2,0.1,4.1,0.1,2.2-0.3c-0.9-0.1-1.8-0.2-2.7-0.3
							c-1.3-0.3,0.5-0.2,1.8-0.1c1.3,0,2,0.1-1.4-0.3c-2.9-0.3-5.5-0.2-2.9,0.3c-6.1-0.8-2.9,0.3-9.5-0.6c-1.8-0.4,5.3,0.7,4,0.3
							c-1.5-0.3-3.1-0.5-4.6-0.7c-1.5-0.2-3-0.4-4.3-0.7c3,0.6,0.4,0.5-1.6,0.2c-3.3-0.7,2.2,0.1-2.5-0.7c-0.8,0-5.2-0.6-1.4,0.2
							c-1.8,0.1-4.9-0.9-7.5-1.2c-1.5-0.6,4.9,0.4-0.2-0.8c0.8,0.4-6.4-1-3.8,0c-2-0.5-2.2-0.7-0.7-0.6c-2.8-0.8-7.1-0.9-7.9-1.7
							l-1,0c-0.9-0.3-2.1-0.7-3.6-1.1c-2.5-0.6-8.2-1.5-7.9-1.9c-0.8-0.1-6.5-1.6-4.4-0.8c3.5,1.1,4.1,0.8,6,1.6
							c-2.5-0.9-5.2-1.2-7.2-1.6l-0.3-0.2c-1.2-0.3-4.1-1-4.9-1c1,0.2,0.5-0.1-0.5-0.4l-1.3-0.1c-5-1.2-1.1-0.7-5.9-1.9l3.7,0.8
							c-0.8-0.2-2.4-0.8-4.7-1.4c-1,0-2.7-0.2-3.5-0.3c-2.7-0.7-1.2-0.6-3.9-1.1l3.6,0.7c0.5,0.1-2.3-1-5.9-2
							c-2.3-0.6-6-1.3-2.4-0.2c-1.8-0.5-4.3-1.4-2.8-1.1c-4.1-1.1,0.5,0.4-3.1-0.5c-1.4-0.5-5.9-2.1-8.5-3.1l3.8,0.8l-2.4-0.7
							c3.3,0.7-1.5-0.7,0.3-0.4c-1.7-0.6-3.7-1.1-5.3-1.5c4.7,2-5.7-1-4.4-0.2c-6.7-2-3.8-2.3-11-3.9c1.1,0.5-2.3-0.3,2,1
							c-4.1-1.4-2.9-0.5-7.8-2.3c3.7,1-3.7-1.7,1.6-0.2c-0.4,0,2.9,1.1,3.7,1.3c-1.7-0.7,0.5-0.3-3.7-1.7c-2.6-0.8-6.1-2-5.7-1.6
							c0,0.3,3.9,1.3,2.2,1c-5.2-1.7-5.9-2.3-8.2-2.6c3.2,1.1,4,1.6,3.9,1.8l-3.8-1.2l0.8,0.1c-3-1.1-3.5-1.2-3.9-1.3
							c-0.2,0-0.4-0.1-1-0.2c-0.3-0.1-0.6-0.2-1.1-0.3c-0.2-0.1-0.5-0.2-0.8-0.3c-0.1-0.1-0.3-0.1-0.5-0.2c-0.1,0-0.1,0-0.1,0l0,0
							c0-0.1-0.2-0.4-0.3-0.2c0-0.1-0.1-0.4,0.2-0.3c0.5,0.2,1.2,0.4,1.7,0.6c1.8,0.7,3.3,1.2,2.9,0.8c-1-0.3-1.7-0.6-2.5-0.8
							c-0.7-0.2-1.3-0.4-1.9-0.6c-0.2,0-0.3-0.1-0.5-0.1c-0.1,0.2-0.2,0.5-0.3,0.7c0.1-0.3,0.1-0.3,0.1-0.3c0-0.1,0-0.1,0.1-0.2
							c0.1-0.1,0-0.4,0.2-0.3c0,0-0.1-0.1-0.2,0c0,0-0.1,0.1-0.1,0.1c-0.1,0.1-0.2,0.2-0.4,0.5c-0.3,0.6-0.6,1.3-0.9,2.2
							c-0.4,0.9-0.9,2-1.4,3.3c-1.2,2.8-0.2,0.8-0.1,0.9c-3.1,5.8-4.1,7.5-6.6,11c0.3-0.9-4.6,5.9-2,2c0.7-0.8,2.6-3,4.2-5.5
							c0.4-0.6,0.8-1.2,1.2-1.8c0.4-0.6,0.7-1.2,1-1.8c0.6-1.1,1-2,1.3-2.6c-0.4,0.5-0.4,0.4-0.2,0.1c0.1-0.2,0.2-0.4,0.4-0.7
							c0.2-0.3,0.3-0.7,0.5-1.1c0.4-0.8,0.8-1.7,1.2-2.5c0.2-0.4,0.3-0.8,0.4-1.1c0.1-0.3,0.1-0.6,0.2-0.8c-0.2,0.6-0.5,1.1-0.7,1.6
							c-0.2,0.4-0.4,0.8-0.6,1.1c-0.3,0.6-0.6,1.1-0.8,1.3c-0.4,0.6-0.6,0.6-0.9,0.9c-0.7,1.2-1.3,2.5-1.7,3.3c-0.1,0.7,0.8-1,1.1-1
							c-1.4,2.6-3.1,4.9-4.5,7c-1.5,2-2.8,3.8-3.7,5.1c-1.4,1.4-1.1,0.8,0.3-1c-4.3,5.4-9.7,10.5-14.6,14.8c3.5-2.5-5.4,4.9-3.1,3.2
							c2.7-2.2,5.2-4,3.8-2.6c-1.7,1.4-0.1-0.2-0.8,0.4c-1.9,2-3.5,2.6-5.4,4.6c4.8-4.1,0.6-1.2,1.3-2.1c-3.4,3,0-0.3-3.5,2.5
							c-1.7,1.5-3.7,3.1-5.7,4.7c-2.1,1.6-4.1,3.2-6.2,4.6c-5.3,3.4-13.3,8.9-18.1,11.8c-2.6,1.4-1.1,0.1-3.8,1.6
							c-3.2,1.9,2.6-1.1-2.3,1.6l0.4-0.3c-1.4,1-8.9,4.8-10.1,6.1l1.3-1.2c-0.9,0.5-1.7,1-2.5,1.5c-0.1-0.1-1.2,0.4,0.2-0.5
							c-3.1,1.4-6.3,3.5-9.6,5.2l2.2-0.9c-5.6,3.1-9.5,4.8-15,7.6l0.1-0.3l-3.2,1.7c0.7-0.6-2.4,0.7-4.1,1.7c2.8-1.5,5.6-3,8.4-4.6
							c2.4-1-2.5,1.5-0.9,1c1.4-0.4,6.4-3,7.2-3.6c-2,1-2,1-3.5,1.9c-0.8,0,2.2-1.4,3.6-2.3c-1,0.5-2.5,1.2-2.7,1.4
							c1.9-1.1,3.9-2.2,7.3-3.9c-2.2,1.3,1.3-0.5,0.5,0.1c0.1-0.4,3.3-2.1,7.4-4.2c1.5-0.6,3.4-1.7,5.5-3c2.1-1.3,4.4-2.7,6.7-4
							c-1.7,1.3-4,2.9-6.8,4.6c3-1.5,3.3-1.8,6.2-3.4c1.3-1,2.2-1.8,5.8-4.2l0.3,0.1c3.3-2.2,3.2-2.4,7.5-5
							c7.3-4.5,14.6-9.7,19.9-13.7l0.3,0c2.7-2.5,9.4-7.8,12.9-11.3c3.1-2.8,6.3-6,9-9.1c2.7-3,4.8-5.8,6.2-7.4c1-1.5,2-3,3-4.5
							c0.9-1.6,1.8-3.1,2.6-4.6c0.4-0.8,0.7-1.6,1.1-2.4l0.5-1.2l0.3-0.6l0.2-0.6l0.9-2.7l0.6-1.7l0.1-0.2c0,0,0-0.1,0-0.1l0.1,0
							l0.4,0.2l0.8,0.3c1.8,0.6,3.6,1.3,5.4,1.9c1.7,0.6,3.4,1.2,5.1,1.7c3.4,1.2,6.9,2.3,10.6,3.6l-2.5-0.5
							c2.7,0.7,1.6,0.7,4.2,1.5c-2.9-1.2,3.6,0.9,5.5,1.3c6.4,2.3,14.9,4.7,20.8,6.2l0.2,0.3c3,0.7,6.2,1.6,9.6,2.6
							c3.4,1,7,2.1,10.7,3.1c0.8,0.3,2.1,0.9,4.3,1.4c4.1,0.7,6.2,1.3,12.1,2.5c4.3,1.1,11.3,2.7,15.7,3.9
							c16.4,3.1,33.2,6.4,50.4,7.6l1.2,0.4c1.4,0.1,2.8,0.2,4.2,0.3c1.4,0.1,2.9,0.1,4.4,0.1c1.5,0,3,0.1,4.4,0.1
							c2,0.1,4,0.1,6.1,0.2c-0.3,3.5-0.6,7.1-0.9,10.6c-0.2,3-0.5,6-0.7,8.9c-0.5,5.8-0.8,11.3-1.1,16.1l-0.3-1.4
							c-0.4,4.5-0.6,10.3-0.2,9.1c-0.4,4.5-0.5,11.3-1,14.1c-0.3,4.6-0.1,5.7-0.3,9.5c-0.6,9.2-0.7,12.7-1,21.4l0.1-2.2
							c-0.1-1-0.2-1.1-0.3,1.1c0,3.2-0.5,11.9,0.1,8.7c-0.6,9.3-0.4,21.7-0.9,30.7c0.1-0.8,0.1,1.5,0.2,2.5
							c-0.1,8.2-0.4,16.7-0.2,23.3c-0.1,1.3-0.2-2.1-0.2,1.3c0.1,2,0.2,0,0.3,2.5c0.3,13.2,0.1,26.8,0.6,38.8
							c1.1,21.3,2.5,43.6,5.2,63.9l-0.1-0.2c0.6,3.4,1.1,7.4,1.6,11.2c0.5,3.8,1,7.4,1.8,10.1c0.1,0.8,0.3,2.3,0.5,3.5
							c0.2,1.2,0.3,2,0.1,1.4c1.2,5.3,2.8,15,5.2,22.5c-0.2-0.7-0.3-1.1-0.6-1.9c1.9,7.7,4.2,14.3,7.2,22.1c-0.4-0.8-1-2.2-1.2-2.4
							c0.5,1.5,1.3,3.3,2.1,4.8c0.8,1.5,1.5,2.9,1.6,3.8c0.8,1.7,0.8,1.1,0.3,0.1c2.1,4.4,4.6,8.8,7.5,12.8c0.8,1,1.5,2,2.3,3
							c0.8,0.9,1.7,1.8,2.5,2.8l0.2,0.2l0.3,0.3l0.6,0.5l1.3,1.1l2.6,2.2c1.8,1.4,3.8,2.8,5.7,4.3l-0.2,0l-0.1,0l-0.2,0l-0.7-0.1
							l-1.4-0.2l-2.8-0.4c-1.9-0.3-3.8-0.6-5.7-0.8l-4.2-0.5l-3.3-0.4c-4.4-0.5-8.8-1-13.2-1.4c-13.6-1.7-0.8-0.9-11.6-1.6
							c-0.9-0.2-0.7,0.1-0.8,0c-4.2-0.2-6.5-1.1-9.4-1.1c1.2,0.4-1.9,0-2,0.2c-8.4-0.8-10-1.2-16.7-1.4l0.5-0.1
							c-3.9,0-8.1-0.2-12.1-0.3c-4-0.1-7.9-0.2-11.2-0.1c-42.8-1.2-84,0.7-125.2,6.8c-18.1,2.7-35.8,6.3-53.3,11.1
							c-4.4,1.2-8.7,2.6-13.1,3.8c-4.3,1.4-8.6,2.9-12.9,4.3c-4.3,1.6-8.5,3.2-12.8,4.9c-2.1,0.9-4.2,1.8-6.3,2.7
							c-3.2,1.4-6.4,2.8-9.6,4.2c0.4-3.4,0.8-6.9,1.2-10.4c0.2-2.3,0.5-4.7,0.7-7c1.3-9.7,1.4-10.5,2.1-21.3c0,0.4,0,1.1,0.1,0.4
							c-0.3-0.6,0.6-7.6,0.4-8.6c1.3-15.5,2.2-29.7,3.1-45.7c-0.1,2.5,0.1,3.8,0.2,0.8l0-3.1l0.1-0.5c0.1-2,0-4.3-0.2-2.2
							c0.9-20,1.8-39.9,2.2-59.6c0.4-19.8,0.5-39.4-0.2-59c-0.2-9.3-1-22.5-2-32.6c-1-14.9-2.5-29.1-5-43.2c-1.3-7-2.8-14-4.8-21
							c-2-7-4.5-13.9-7.8-20.7c0,0,0.6,0.8,1.9,3c0.6,1.1,1.4,2.6,2.3,4.5C265.5,120,266.5,122.4,267.5,125.4z"/>
						<path class="st1" d="M270.1,105.7c1-0.3,4.3-1.7,1.8-0.3C271.5,105.4,269.8,105.9,270.1,105.7z"/>
						<path class="st1" d="M351.3,59.9c0.1-0.1,1.1-0.8,1.3-1c-0.9,0.7-1.6,1.5-2.4,2C351.1,60.3,350.9,60.3,351.3,59.9z"/>
						<path class="st1" d="M369,43.7c-0.1,0.2-1,1.2-2.1,2.5c-0.6,0.6-1.2,1.3-1.8,2c-0.6,0.7-1.3,1.3-1.8,1.8l1.5-1.5l1.4-1.6
							C367.1,45.8,368.1,44.8,369,43.7z"/>
						<path class="st1" d="M382.7,25.7c0.9-1.8,0.8-1.2-0.4,1.2C382.1,27,382.5,26.3,382.7,25.7z"/>
						<path class="st1" d="M383.1,24.1c0.8-1.7,1.3-2.5,1.7-3.4C384.7,20.8,383,24.8,383.1,24.1z"/>
						<path class="st1" d="M422.4,30.9c1.1,0.3,3.6,0.9,4.6,1.4C425.8,31.9,421.5,30.8,422.4,30.9z"/>
						<path class="st1" d="M444,37.1c0.7,0.2,1,0.3,1.8,0.5c1.3,0.4-0.1,0.2-1.2-0.1L444,37.1z"/>
						<polygon class="st1" points="560.4,349.1 559.8,346.7 560,347 						"/>
						<path class="st1" d="M487.2,403.3c-2.4,0.1-1.7-0.2-2.1-0.2C487.3,403.2,484.3,403.3,487.2,403.3z"/>
						<polygon class="st1" points="390.9,409.1 391.6,409 391.4,409.3 						"/>
					</g>
				</g>
			</g>
		</g>
	</g>
	<g>
		<g>
			<g>
				<g>
					<g>
						<path class="st1" d="M281.4,431.6c-1.2,0,0.6,0.3-0.8,0.1C280.8,431.5,281,431.5,281.4,431.6z"/>
						<path class="st1" d="M590.3,415.2c-3.5,1.6-8.4,1.9-12.3,3.3c-0.5,0.1,0-0.4-1-0.1c-3.7,1.4-9.9,2.4-14.7,2.9l0.3-0.2
							c-0.9,0.1-1.9,0.7-2.9,0.8c0-0.1,0.3-0.2,0-0.2c-0.2,0.3-1.7,0.5-2.1,0.7c-0.4,0-0.4-0.2-0.9-0.2l-0.5,0.4
							c-1.4,0.9-3.7,0.7-5.7,1.4c0.1-0.1,0.3-0.2,0.1-0.2c-3.3,1-7.5,1.7-11.2,2.4c0.1-0.1,0.2-0.3,0-0.4c-0.1,0.3-1.3,0.6-2.3,0.8
							c-0.5-0.2-1.7,0.5-2.9,0.5l0.1-0.1c-0.8,0.4-1.3,0-2,0.5l-0.6-0.1c-0.3,0.5-1.3,0-2,0.3l0,0.1c-0.7,0.2-1,0-1.7,0.2l-0.1,0
							c-1.5,0.3-2.4,0.2-2.3,0.5c-0.6-0.2,1.4-0.3,0.6-0.6c-2.4,0.5-4.9,0.9-7.4,1.1c-2.5,0.3-5,0.5-7.4,0.7
							c-0.6-0.1-0.9-0.1-1.1-0.2c-0.5,0.1-1.8,0.2-2.3,0.4c0.2,0-0.3-0.1-0.6-0.1c-0.9,0-1,0.4-2,0.3c0.4-0.1,0.5-0.2,0.4-0.3
							c-0.8,0.3-2,0.3-2.9,0.4c0.2-0.1,0.4-0.1,0.3-0.2c-1.1,0.3-2,0-2.9,0.3l0.4-0.2c-1.5-0.2-0.4,0.4-1.8,0.3
							c0.3-0.1,0.2-0.1,0.3-0.2c-1.2,0.4-3.2,0.3-4.5,0.4c0.1,0,0.1-0.1,0.1-0.1c-1.3,0.1-2.8,0-4.2,0.1c-0.5-0.1,0.2-0.4-1.2-0.4
							c0,0.4-2.4,0.1-1.6,0.6c-1.2-0.1-3.1-0.2-4-0.2c0.6-0.1-0.6-0.5,0.4-0.5l-0.8-0.3c0.1-0.1,0.8,0.1,0.5-0.1c-0.5,0-2,0.1-2.4,0
							c-0.9,0.2-1.8,0.6-3.4,0.5c0.7-0.1-0.4-0.4,0.1-0.5c-0.7,0.2-1.4,0.4-2.2,0.6c-0.5,0-0.1-0.3-0.8-0.3c0,0.1-0.3,0.1-0.5,0.2
							c-0.2-0.1-2.1-0.1-2.3-0.5c-0.2-0.2,0.8,0,0.3-0.2c-0.9-0.1-1,0-1.9,0l0-0.1c-0.6-0.1-1.8,0-1.2,0.3c0.4,0.1-0.1-0.2,0.5-0.1
							c-0.5,0.2-1.5,0.1-2.5,0c0.3,0,0.3-0.1,0.4-0.2c-1.3,0.2-2.6,0.1-4,0.1c0,0.2,0.6-0.3,0.8-0.1c-1.8-0.4-3.7-0.1-5.2-0.6
							c0.2,0,0.1,0.3,0.1,0.2c-0.9-0.1-0.8-0.4-1.4-0.3c0-0.2-0.7,0-1.3,0c-0.3,0.1-0.1-0.1,0.4,0c-0.8,0-4.1-0.1-5.9-0.5
							c0,0.1-1.2,0.2-1.6,0.2l0.2-0.2c-0.4-0.2-1.4-0.1-1.5-0.3c-0.9,0.2,3.5,0.1,2.3,0.2c-0.3-0.2-1.8,0.2-1.5-0.1
							c-0.9-0.1-1.7,0.1-2.5-0.2c0.2,0.1,0.7-0.3,0-0.3c-1.2-0.1-0.4,0.1-1.4,0.1l-0.6,0c-0.1,0.2-1.1-0.1-0.7,0.2
							c-0.1-0.2-1.8,0-1.6-0.4l0.2-0.3c-0.5,0-0.9,0.3-1.3,0.4c-0.1,0-0.2-0.1-0.2-0.1c-0.1,0.4-1.3-0.1-1.9,0.2
							c-1.1-0.2-2.8-0.1-3.3-0.4c-0.9,0.1-1.6,0.3-2.6,0.2c0.2,0,0.5-0.1,0.5-0.1c-0.6-0.1-0.8,0-1.3,0c0.1-0.1-1.2-0.3-1.9-0.4
							c-0.8,0.2-0.6,0.4-0.6,0.5c-0.8-0.4-2.4,0.3-3.4,0c0.3-0.1,1.2-0.2,0.5-0.3c-0.8-0.4-1.6,0.4-2.8,0.2l0.3,0.3
							c-0.6-0.2-1.8,0.3-1.7-0.1c-0.4,0.2-1.5,0-1.3,0.3c-2.1-0.2-5,0.5-6.3,0c-0.3,0.1-1,0.1-0.9,0.3c0.5,0.2,0.7-0.2,0.9-0.1
							c-0.3,0-0.3,0.1-0.3,0.2c-0.6,0-1.1,0-0.6-0.3c-1.4-0.1-1.4,0.7-3.2,0.8c0.1-0.2-0.1-0.2-0.6-0.1l-1,0.4
							c-1.2,0.1-0.7-0.3-0.8-0.5c-0.6,0.1-1.4,0.2-1.6,0.4l-0.8-0.2c0.6,0.2-0.5,0.2-0.8,0.3l0.3-0.1c-0.1-0.1-0.8,0.1-1.2,0.1
							c0.1,0.1,0.8,0.1,1.2,0.1c-0.3,0.1-0.8,0.2-1.2,0.4c0.1-0.3-1,0-1.5,0c-0.6,0-0.6,0.3-0.8,0.3c0-0.1-0.9,0.1-0.5-0.1
							c0.2-0.1,0.5,0.1,0.8-0.1c-0.4,0-0.4-0.3-1.1,0c-0.6,0.2,0.2,0.5-0.9,0.4c0.3-0.1,0.3-0.2,0.5-0.3l-1.1,0l0,0.2
							c-0.1,0-0.1-0.1-0.1-0.1c-0.3,0.3-1.6,0.3-1.8,0.6c-0.5,0.1-1.1,0-1.6,0l0.1,0c-0.6,0-1.4,0.2-1.9,0.4l0-0.1
							c-0.3,0-1.1,0.2-1.5,0.4c-0.9,0-0.4-0.8-1.3-0.4c-0.9,0.1-1.3,0.6-0.9,0.7c-1.6,0.1-3.2,0.7-4.7,0.6c-0.2,0.1-0.1,0.2-0.5,0.3
							c-2.3,0.2-4.7,1-6.6,0.8c0.6-0.2,0-0.2,0-0.4c-0.5,0.3-0.7-0.1-0.8,0.3c0.1,0.2,0,0.3,0.7,0.3c-1.3,0.3-3.4,0.6-4.2,0.5
							c0.4,0,0.1,0.1-0.2,0.2c0.1-0.3-0.9-0.2-1.7,0l-0.1,0.2l-0.5-0.1c-0.3,0.1-0.3,0.4-1,0.4c0-0.1-0.1-0.1-0.2-0.2
							c-0.8,0.3-1.8,0.7-2.7,0.6l-0.7-0.2c-0.4,0.1-0.9,0.3-0.3,0.3c-1.5,0-2.4,0.1-2.9-0.1c-2.4,0.9-6.1,1.3-9,1.5l0.1-0.2
							c-0.8-0.1-0.4,0.3-0.9,0.2c0.2-0.2-0.6-0.3,0-0.5c-1.1-0.1-1.4,0.4-2.1,0.5c-0.1,0.2,0.6-0.2,0.5,0.1c-0.1,0.1-1.6,0-1.7,0.3
							c-0.3-0.1-0.1-0.3,0.1-0.5l-0.7,0.2c-0.9-0.3,1.9-0.7,1-1.1l-0.6,0.1c-0.6-0.3,1.6-0.5,0.1-0.5c-0.7,0.2-1.2,0.6-0.6,0.7
							c-1.4,0.2-0.6,0.7-2.2,0.8c-0.4-0.1,1.2-0.1,0.9-0.3c-0.7-0.2-1.4,0.2-2.1,0.2c0.7,0.1,0.1,0.4-0.3,0.5
							c-0.8-0.1,0.5-0.3-0.6-0.3c-0.2,0.2-1.2,0.3-0.3,0.4c-0.4,0.4-1.2-0.1-1.8,0.2c-0.4-0.3,1.1-0.7-0.1-0.8
							c0.2,0.3-1.5,0.4-0.8,0.8c-0.5-0.1-0.5-0.3-0.2-0.4c-0.7-0.1-1.6,0.5-1.9,0l-0.2,0.3c-0.2-0.1-0.5-0.1-0.9-0.3
							c-0.6,0-1.9,0.4-1.9,0c-0.2,0-1.6,0-1,0.3c0.9,0.2,1-0.2,1.5,0.1c-0.6-0.3-1.2,0.1-1.7,0.2l-0.1-0.2c-0.3,0.1-1,0-1.2,0.2
							c0.2-0.1,0.1-0.2-0.1-0.2l-0.3,0.2c-1.2,0.1-0.3-0.4-1.4-0.3l0.9-0.2c-0.2,0-0.6-0.2-1.1-0.1c-0.2,0.2-0.6,0.5-0.8,0.6
							c-0.7,0.1-0.3-0.2-0.9,0l0.8-0.3c0.1-0.1-0.6-0.3-1.4-0.4c-0.6,0.1-1.4,0.4-0.5,0.5c-0.4,0-1.1-0.1-0.7-0.3
							c-1,0.1,0.1,0.2-0.7,0.4c-0.3-0.1-1.4-0.4-2.1-0.6l0.9-0.3l-0.6,0c0.8-0.3-0.4-0.2,0.1-0.5c-0.4-0.1-0.9,0-1.3,0.1
							c1.2,0.5-1.3,0.6-1,1.1c-1.6,0.1-1-1.1-2.7-0.5c0.3,0.1-0.5,0.4,0.5,0.3c-1-0.1-0.7,0.4-1.9,0.2c0.9-0.1-0.9-0.5,0.4-0.7
							c-0.1,0.1,0.7,0.1,0.9,0.1c-0.4-0.2,0.1-0.4-0.9-0.5c-0.6,0-1.5,0-1.4,0.2c0,0.3,1,0,0.6,0.2c-1.3,0-1.5-0.4-2,0.1
							c0.8,0,1,0.3,1,0.4l-0.9,0.1l0.2-0.2c-1.5-0.2-0.5,0.3-1.9,0.2l-0.7-0.4c0.4-0.3,2.1,0.2,1.8-0.3c-0.9-0.1-1.3,0.2-2.1,0
							c0.2,0,0.5,0,0.7-0.1c-0.3,0-0.6-0.7-2-0.4c-0.7,0.1-0.2,0.2-0.2,0.3c-1.5,0-2,0.1-2.9,0.1c0.2-0.3-1.7-0.1-0.6-0.4
							c0.5,0.2,2.6,0.3,3.2,0c-0.5-0.4,1.2,0.1,1.5-0.3c-1.2-0.1-1.1-0.5-1.3-0.7c-0.3,0-0.7,0.1-0.9,0.1c-0.2,0.2,0.3,0.3,0.3,0.5
							c-1.3-0.1-2.6-0.1-3.4,0.1c-0.4-0.1-0.3-0.4,0.2-0.4c-1.6,0-3.3-0.2-4.8-0.3c0.9,0.5-1.7,0-1,0.4c0.8,0.1,1.5,0.5,1,0.6
							c-0.5-0.1,0-0.2-0.2-0.3c-0.7,0.2-1-0.4-1.6-0.1c1.5,0,0.3-0.5,0.6-0.8c-1.1,0.1,0.1-0.2-1-0.3c-1.1,0.1-2.3,0.1-3.5,0.1
							c-1.4-0.4-3.7-0.3-5-0.4c-0.7-0.2-0.2-0.5-0.9-0.6c-0.9-0.1,0.6,0.4-0.7,0.2l0.1-0.1c-0.4,0.1-2.3-0.4-2.7,0.1l0.4-0.4
							c-0.2-0.1-0.5,0-0.7,0c0-0.1-0.3-0.3,0.1-0.3c-0.8-0.3-1.7-0.1-2.5-0.1l0.5,0.3c-1.5,0.1-2.5-0.2-3.9-0.3l0.1-0.2l-0.9,0.1
							c0.2-0.2-0.5-0.4-1-0.3l2.2-0.4c0.6,0.2-0.7,0.2-0.3,0.5c0.3,0.2,1.6,0.3,1.9,0.1c-0.5-0.1-0.5,0-0.9,0
							c-0.1-0.3,0.6-0.2,1-0.4c-0.3,0-0.6-0.1-0.7,0c0.5-0.1,1.1-0.1,1.9,0c-0.6,0.1,0.3,0.2,0.1,0.3c0.1-0.3,0.9-0.3,2-0.1
							c0.7,0.4,2,0,3.2,0.1c-0.5,0.2-1.2,0.4-1.9,0.5c0.8,0.2,0.9,0.1,1.6,0.3c0.4-0.2,0.7-0.5,1.7-0.5l0,0.2c0.9,0,0.9-0.3,2.1-0.2
							c2,0.3,4.1,0.4,5.6,0.5l0,0.2c0.9-0.4,2.8,0,4-0.1c1.9,0.3,4.2,0.1,5.2,0.5c3.4,0,6.5,0,10,0.2l-0.6,0.3
							c0.6-0.2,0.4,0.2,1,0.2c-0.7-0.3,0.9-0.3,1.3-0.4c1.6,0.3,3.6,0.1,5-0.1l0.1,0.2c1.4-0.4,3.1,0,4.9,0.1
							c0.2,0.1,0.5,0.3,1.1,0.3c1-0.3,1.5-0.3,2.9-0.5c1,0,2.7,0,3.7,0.1c3.8-0.6,7.8-0.4,11.8-1l0.3,0.2c3.8-0.8,8.6-0.8,11.9-1.4
							l-0.3,0.4c1.1,0,2.3-0.4,2.1-0.6c1.1,0,2.6-0.5,3.3-0.3c1.1-0.1,1.3-0.4,2.1-0.5c2.1-0.1,2.9-0.3,4.9-0.6l-0.5,0
							c-0.2,0.1-0.2,0.3,0.3,0.2c0.7-0.2,2.8-0.3,1.9-0.7c2.2,0,4.9-0.9,7.1-0.9c-0.2-0.1,0.3-0.2,0.5-0.3c1.9-0.3,3.9-0.3,5.4-0.7
							c0.3,0-0.4,0.3,0.3,0.2c0.4-0.1,0-0.2,0.5-0.3c3-0.7,6.2-0.6,9-1c4.9-0.9,10.1-1.3,14.9-1.7l0,0.1c1.6-0.5,3.8,0.1,5-0.5
							c0.4,0.1,1.5,0,1.2,0.2c0.6-0.2,1.5-0.1,2.5-0.1c1,0,2,0.1,2.9-0.1c-0.2,0-0.3,0-0.5,0.1c0.9,0.1,1.8,0,2.7,0
							c0.9,0,1.8,0,2.8,0.1c-0.2,0-0.6,0.1-0.6,0.2c0.8,0.2,1.8-0.4,2.2,0.1c0.4,0,0.3-0.2,0-0.2c4.3,0.3,8.9,0.3,13.4,0.6
							c3.2,0.6,0.1,0.8,2.7,0.7c0.2,0.1,0.2-0.2,0.2-0.1c1,0,1.5,0.7,2.2,0.5c-0.2-0.3,0.5-0.1,0.5-0.3c1.9,0.4,2.3,0.7,3.8,0.6
							l-0.1,0.1c1.8-0.2,3.9,0.2,5.5-0.1c9.9,1,19.3,1.4,28.9,1.3c9.5,0.1,18.8-0.8,28.5-1.6c2.3,0.1,2.5,0.1,4.9-0.4
							c-0.1,0.1-0.2,0.1-0.1,0.2c0.1-0.3,1.7-0.2,1.9-0.6c3.6-0.4,6.8-1,10.5-1.6c-0.6,0.1-0.8,0.4-0.1,0.3l0.7-0.3l0.1,0.1
							c0.5-0.1,0.9-0.4,0.4-0.4c9.1-1.8,18.2-2.8,27.1-4.8c2.1-0.3,5.1-1.1,7.4-1.6c6.9-1.1,13.1-2.1,19.9-4
							C593.9,413.3,593.1,414.3,590.3,415.2z"/>
						<path class="st1" d="M282.8,431.7c0.2,0.2,1,0.3,0.4,0.5C283.1,432,282.7,431.8,282.8,431.7z"/>
						<path class="st1" d="M304.2,435c0,0,0.3,0.1,0.4,0.1c-0.3,0-0.5,0.1-0.7,0C304.1,435.1,304.1,435.1,304.2,435z"/>
						<path class="st1" d="M309.7,435.4c-0.1,0.1-1.3,0.2-2,0.2L309.7,435.4z"/>
						<path class="st1" d="M314.9,436.3c0.4,0.1,0.3,0.2-0.3,0.2C314.5,436.4,314.7,436.4,314.9,436.3z"/>
						<path class="st1" d="M315.3,436c0.4,0,0.6,0.1,0.8,0.2C316.1,436.1,315.1,436.2,315.3,436z"/>
						<path class="st1" d="M326.5,436.8c0.3,0,0.9-0.1,1.1,0.1C327.3,436.8,326.3,437,326.5,436.8z"/>
						<path class="st1" d="M331.7,436.7c0.2,0,0.2,0,0.4,0c0.3,0.1,0,0.2-0.3,0.2L331.7,436.7z"/>
						<polygon class="st1" points="426,427.3 425.4,427.4 425.5,427.2 						"/>
						<path class="st1" d="M467.2,429.9c0.6,0,0.4,0.2,0.5,0.2C467.2,430.1,467.9,429.9,467.2,429.9z"/>
						<polygon class="st1" points="489.6,430.5 489.5,430.5 489.5,430.2 						"/>
					</g>
				</g>
			</g>
		</g>
	</g>
</g>
</svg>
