<?xml version="1.0" encoding="utf-8"?>
<!-- Generator: Adobe Illustrator 22.0.1, SVG Export Plug-In . SVG Version: 6.00 Build 0)  -->
<svg version="1.1" id="圖層_1" xmlns="http://www.w3.org/2000/svg" xmlns:xlink="http://www.w3.org/1999/xlink" x="0px" y="0px"
	 viewBox="0 0 600 650" style="enable-background:new 0 0 600 650;" xml:space="preserve">
<style type="text/css">
	.st0{fill:#E9D7BE;}
	.st1{fill:#3A302E;}
</style>
<g>
	<g>
		<path class="st0" id="flagArea" d="M257.2,91.9c0,0,40.9,61.9,133.2-13.9c0,0,87.6,54.6,160.6-27.6c0,0-41.1,77.9-9.9,138.2
			c0,0-42.1,83.7,2.5,131.7c0,0-32.5,65.2,16,82.4c0,0-68.6-34.3-151.4,0.4c0,0-46.9-35.5-129.5,5.6c0,0,38.5-58.9,9.8-88.5
			c0,0,36.6-66.2-11-90.7C277.5,229.6,308.3,149.9,257.2,91.9z"/>
		<g>
			<g>
				<g>
					<g>
						<path class="st1" d="M259.6,94.1c-3.1-3.8,1.4,2.2-2-2.4C258,92.1,258.6,92.8,259.6,94.1z"/>
						<path class="st1" d="M266.7,105.1c4.7,6.4,9,14.6,12.1,23.4c3.2,8.8,5.3,18.2,6.7,26.7c0.3,2-0.5-0.5,0.1,4.1
							c1.2,8.3,1.5,19.2,0.4,30.5c-1.1,11.2-3.5,22.8-6.6,32.5l0.2-1.2c-0.4,1.3-0.8,2.6-1.2,4.1c-0.2,0.7-0.4,1.4-0.6,2.1l-0.4,1.2
							l-0.4,1.2c0.7,0.4,1.4,0.8,2.1,1.1c0.6,0.3,1.2,0.7,1.7,1c0,0.1-1.2-0.6-0.4,0c0.2,0.1,0.8,0.3,1.4,0.7c0.6,0.4,1.4,1,2.2,1.5
							c0.4,0.3,0.8,0.6,1.2,0.8c0.4,0.3,0.7,0.6,1,0.9c0.7,0.5,1.2,1,1.6,1.3c0.6,0.6,0.8,0.9,1,1.2c0.2,0.4,0.5,0.8,1.2,1.6
							c0.6,0.5,1.2,1,1.7,1.6c0.6,0.6,1.1,1.2,1.7,1.9c0.6,0.7,1.1,1.5,1.6,2.3c0.3,0.4,0.5,0.8,0.8,1.2c0.3,0.4,0.5,0.9,0.7,1.4
							c0.4,0.9,1,1.8,1.3,2.9c1.7,4,2.7,8.5,3.4,12.9c-0.1-0.4-0.3-1.3-0.3-0.6c0.3,1.8,0.4,3.6,0.6,5.5c0,1.9,0.1,3.9,0,5.8
							c-0.1,4-0.6,8.1-1.4,12.2c-1.5,8.2-4.2,16.4-7.2,23.8c0.2-0.6,0.2-1.2-0.2-0.4c0,0.4-0.5,1.8-1.2,3.5
							c-0.4,0.9-0.8,1.8-1.2,2.8c-0.2,0.5-0.5,1-0.7,1.5c-0.2,0.5-0.5,0.9-0.7,1.4c-0.1,0.2-0.2,0.3-0.4,0.6
							c0.3,0.4,0.7,0.9,1.3,1.5c0.3,0.3,0.6,0.7,0.9,1c0.3,0.3,0.6,0.8,0.9,1.2c1.3,1.6,2.6,3.7,3.5,5.7l-0.2-0.4
							c0.9,1.7,1.5,3,1.8,4.2c0.4,1.3,0.8,2.4,1.3,3.9c0.1,0.8,0.3,1.6,0.3,2.4c0.3,0.8,0.5,2.1,0.6,3.7c0,1.6,0.1,3.3,0.2,4.8
							l0.1-0.1c0,0.7,0,1.4,0.1,2c0,0.6-0.1,1.1-0.1,1.7c-0.1,1.1-0.1,2.1-0.3,3.5l-0.1,0.3c-0.1,0.8-0.1,1.5-0.2,2.2
							c-0.1,0.7-0.2,1.4-0.3,2c-0.2,1.2-0.4,2.3-0.6,3.1c-0.3,1.7-0.5,2.5-0.3,2.5c-0.7,2.1,1.1-6.1,0-2.7c-1.4,8.1-4,16-7.2,23.7
							c-1.6,3.8-3.4,7.6-5.3,11.3c-0.5,0.9-1,1.9-1.5,2.8l-0.7,1.4l-0.7,1.3c-0.9,1.6-1.8,3.2-2.8,4.8l-0.1,0.2l0,0l0,0l0.1,0
							l0.3-0.2l0.7-0.3l1.4-0.7l2.8-1.3l1.4-0.7c0.5-0.2,1-0.4,1.5-0.7l3.1-1.3c2.2-0.8,3.7-1.4,4.2-1.4c1.9-0.8,7.3-2.9,9.1-3.6
							c-0.7,0.2,1.3-0.3,2.4-0.6c1.8-0.6,2.8-0.9,3.8-1.3c1-0.4,2.1-0.8,4.1-1.3c-1.6,0.6-2.1,0.8-1.5,0.8c1.7-0.7,3.7-1.2,5.8-1.8
							c1-0.3,2.1-0.6,3.2-0.8c1.1-0.2,2.1-0.5,3.2-0.7c-0.6,0.2-1.6,0.4-1.4,0.5c2.2-0.6,4.3-1.1,6.3-1.4c2-0.3,4-0.6,6-1l-1.5,0.4
							c3.2-0.3,3.7-0.5,4.1-0.6c0.4-0.1,0.6-0.4,3.4-0.5c-1.3,0.2-0.9,0.2-1.1,0.3c1.3-0.2,2.8-0.4,4.4-0.6c1.6-0.1,3.3-0.2,5.1-0.3
							c1.7-0.1,3.4-0.1,5.1-0.1c1.6,0,3.1,0.1,4.5,0.1c-0.3,0-0.2,0.1-0.2,0.1c5.7,0.2,11.7,0.9,17.9,2c2.2,0.5-0.8,0.2,5.1,1.5
							c-0.1-0.2,2.4,0.4,4.5,1c2.1,0.6,3.7,1.1,2.1,0.3c2.5,0.8,5.6,2,8.5,3.3c2.9,1.3,5.5,2.6,7,3.4c-2.1-1,2,1.6-1.8-0.4
							c0.9,0.6,1.8,1.2,2.7,1.8c-0.5-0.1-2.9-1.7-2.1-1c0.5,0.3,1.2,0.6,2,1.1c0.8,0.5,1.7,1,2.7,1.7c1-0.4,2-0.8,2.8-1.1
							c0.8-0.3,1.5-0.6,1.9-0.7c0.9-0.4,1.8-0.8,2.7-1.3c0.9-0.4,1.9-0.8,2.9-1.3c2.1-0.8,4.4-1.9,7.5-2.8c-2.9,1,1.8-0.1-0.2,0.6
							c2.8-1.1,5.6-2.2,8.5-3.2c2.1-0.6,0.5,0.2,3.5-0.7c-0.2-0.1,1.1-0.5,2-0.7c0.4-0.1,2.6-0.6,4.8-1.1c2.2-0.5,4.5-0.8,5-0.7
							c1,0-3.4,0.7-1.1,0.4c3.9-0.7,4.1-0.9,8-1.5l0.1,0c2.6-0.4,7.7-1.1,4.8-1c-1.8,0.2,0.7,0.1-2,0.4c0.9-0.2,2.5-0.5,4.4-0.7
							c0.9-0.1,1.9-0.2,3-0.4c1-0.1,2.1-0.2,3-0.2c-1.4,0.2-1.2,0.2-1.7,0.4c2.7-0.3,5.4-0.7,8.2-0.8c1.4-0.1,2.9-0.2,4.3-0.3
							c1.5,0,2.9-0.1,4.4-0.1c0.1-0.2-2.2,0.3-3.1,0.3c7.7,0.1,15.9-0.1,22.2,0.9c-1-0.1-0.5-0.3-0.5-0.2c3.7,0.4,3.5,0.7,5.9,0.8
							c0.2,0.2,3,0.4,5.5,0.7c1.3,0.1,0.6,0.2-1.5-0.1c0.9,0.1,2.4,0.3,4.2,0.6c1.9,0.3,4.2,0.7,6.6,1.1c4.8,0.9,10.1,2.2,13.9,3.4
							c-0.1-0.1,4.8,1,6.6,1.6l-0.8,0c1.6,0.6,5.8,1.9,6.1,2.2c1.9,0.5-1.7-0.7-5.1-1.8c-3.4-1-6.8-1.9-4.2-1.3
							c0.6,0.3,2.4,0.8,3.9,1.1c1.5,0.4,2.7,0.7,2.1,0.7c3.5,1.2,6.9,2.2,10.1,3.8c-0.9-0.4-2.9-0.9-0.1,0.3
							c2.9,1.2,2.8,1.2,3.2,1.3l-0.6,1.4c-0.2,0-0.6-0.2-2.2-0.8c-0.8-0.3-1.7-0.6-2.5-1c-0.3,0.1-4.2-2.2-2.6-1.1
							c-0.6-0.2-6.6-4.2-5.9-4.2l0.8,0.2c-0.9-0.7-1.7-1.3-2.4-1.7c-0.7-0.5-1.3-1.1-2-1.7c-0.2-0.2-0.6-0.7-0.5-0.7
							c-0.3,0.1-1.2-1-2.2-2.4c-0.2-0.3-0.5-0.7-0.8-1.1c-0.2-0.4-0.5-0.8-0.7-1.1c-0.5-0.7-1-1.4-1.4-2c-0.3-0.6-0.5-1.1-0.8-1.8
							c-0.3-0.6-0.6-1.2-0.9-1.9c-0.5-1.3-1.1-2.7-1.4-4c-0.2-0.7-0.4-1.3-0.5-1.9c-0.1-0.6-0.2-1.2-0.3-1.7c-0.2-1.1-0.4-2-0.3-2.5
							c-0.2-0.9-0.3-1.8-0.5-2.7c-0.1-0.9-0.2-1.8-0.3-2.7c-0.1-0.9-0.1-1.8-0.1-2.8c0-1,0-2,0.1-3c0,0.8,0,2,0.1,2.2
							c0-1.3,0.1-2.1,0.1-2.9c0-0.8,0-1.6,0.1-2.8c0,0.3,0.2-1,0.4-2.8c0.2-0.9,0.3-1.8,0.5-2.8c0.2-0.9,0.4-1.8,0.5-2.5
							c0.5-3.6,0.1-2.4,0-2.8c0.5-1.6,1-4.1,1.7-6.7c0.6-2.6,1.4-5.3,2.2-7.2c-0.3,1.2-1.4,5.1-0.4,2.3c1.4-3,1.8-6.5,4.1-11.3
							l-0.8,1.1c0.3-0.6,0.7-1.4,1-2.3c0.3-0.6,0.5-1.3,0.8-1.8c-0.1-0.1-0.2-0.2-0.3-0.3c-0.1-0.1-0.2-0.2-0.3-0.3
							c-0.2-0.3-0.3-0.5-0.2-0.4c-0.6-0.6-1.7-1.9-2.5-2.9c-0.8-1-1.4-1.8-1.3-1.5c-0.6-0.9-1.3-1.9-2-2.9c-0.4-0.5-0.7-1-1-1.6
							c-0.3-0.5-0.6-1.1-1-1.6c-0.3-0.5-0.7-1.1-1-1.6c-0.3-0.5-0.7-1.1-0.9-1.7c-0.6-1.1-1.1-2.3-1.7-3.4c-0.6-1.1-1-2.2-1.4-3.3
							c-0.4-1.1-0.9-2.1-1.2-3.1c-0.6-2-1.1-3.8-1.4-5.1c-0.4-1.2-1.1-4.3-1.1-3.6c0.3,2.1,0.9,2.8,0.9,3.6
							c-0.3-1.1-0.5-1.3-0.5-1.4c-0.6-2.7-1.1-4.8-0.2-2.3c-0.2-0.7-0.3-1.4-0.5-2c-0.1-0.6-0.2-1.1-0.3-1.6c-0.2-1-0.5-1.8-0.7-2.6
							c-0.3-0.9-0.5-1.8-0.7-3c-0.2-1.2-0.5-2.6-0.6-4.6c0.2,0.3,0.2-0.3,0-2.5l-0.3-2.1l-0.2-2.2c-0.1-5,0.3-2.9,0.5-3
							c0-1.3,0-2.8,0-4.1c0-0.7,0-1.3,0-1.8c0-0.5,0-1,0-1.3l0.5-3.2c-0.2,1.2-0.2,0.6-0.1-0.4c0-1,0.2-2.4,0.2-3.1l-0.1,1.3
							c0.2-0.5,0.4-3.6,0.5-5.1c-0.2,0.3-0.6,3.5-0.8,5.2c0-1.4,0.2-3.5,0.3-5.3c0.2,0.6,0.7-4.3,1.1-6.4c0.5-2.4,0.2-2.8,0.4-3.5
							c0.1,0,0.8-3.9,0.6-2c-0.1,0.8-0.5,1.8-0.6,3.2c0.4-1.6,0.6-1.3,1.1-4.6c0.4-2.5-0.6,0.5,0.6-4.1c-0.2,1.2-0.2,1.5-0.3,2.4
							l1.1-4.3l-0.2-0.2c0.2-0.6,0.1-0.2,0.2-0.4c0-0.7,0.5-2.3,0.8-3.9c0.4-1.6,0.8-3.2,0.9-3.7c0.6-2.2,1.5-4.5,2.2-6.5l-0.1,0.4
							c0.9-2.5,2-5.8,2.6-7.9l0,0.1c0.5-1.3,1.7-4.5,2.2-6.2c1.5-3.3,1.2-0.8,2.5-4.6c0.7-1.7,1.2-3,1.5-3.8
							c0.1-0.4,0.1-0.5,0.1-0.6c0,0-0.1,0-0.1,0c0,0-0.1,0-0.2,0.2c0.1-0.2,0.2-0.4,0.3-0.6l-0.2-0.5c-0.2-0.4-0.3-0.7-0.5-1.1
							c-0.4-0.7-0.7-1.5-1.1-2.2c-0.8-1.5-1.3-3-2-4.5c-0.6-1.5-1.2-3-1.7-4.5c-0.5-1.5-0.9-3-1.3-4.4c-0.3-0.9-0.2-0.3-0.8-2.2
							c-0.3-1.2-0.6-2.4-0.9-3.6c-0.3-1.2-0.5-2.5-0.8-3.7c-0.6-2.5-0.9-5-1.3-7.4c-0.3-2.4-0.5-4.8-0.7-7.1
							c-0.1-2.3-0.2-4.4-0.1-6.3c0.2,2.8,0.2,0.2,0.4,0.1c-0.2-2.3,0.2-2.8-0.2-3.6c-0.2,0.2-0.3,0-0.3,2.7c0-1.5-0.1-3.1-0.1-4.8
							c0-1.7,0.1-3.4,0.1-5.1c0.1-1.7,0.2-3.3,0.3-4.6c0.1-1.4,0.2-2.5,0.4-3.3c-0.3,1.6-0.2,0.4-0.1-0.9c0.3,0.5,0.7-3.8,1.1-7
							l-0.1-0.5c0.2-0.7,0.3-1.4,0.5-2.1c0.1-1.2-0.2-1.4,0.5-4.6c0.1-0.1,0.2-0.3,0.4-0.9c0.3-1.7,0.5-3.7,0.9-5.7
							c0.4-2,0.8-4.1,1.3-5.8l1-2.8c0.3-1.5,0.9-4.1,0.1-1.5c1.8-5.9,3-9.7,3.9-11.5c2.2-8.5,6.4-19.8,11.4-29.7l2.7,1.9
							c-1.6,1.7-3.2,3.4-4.7,5l0.1-0.4c-2.4,2.3-1,1.5-2.7,3.1c0.7-0.8-2.1,1.5-0.3-0.4c-3.6,3.2-4.3,4.4-6.5,6.6
							c-0.2,0.5,1.7-1.8,1.5-1.2c-0.3,0.5-5.1,4.2-5.5,4.9c-1,0.7-0.4-0.1,0-0.6l-2.2,2c-3,2,5.9-5.7,2.7-3.6l-2,1.7
							c-2.2,1.4,5.2-4.8,0-0.6c-1.1,1-2,2-2.5,2.5c-0.5,0.5-0.3,0.6,0.7-0.1c-4.8,3.7-1.8,2.2-7.2,6.1c-1.5,0.9,4.2-3.1,3.1-2.6
							c-1.3,0.8-2.5,1.8-3.8,2.6c-1.2,0.8-2.4,1.7-3.6,2.4c2.6-1.5,0.6,0.1-1,1.2c-2.9,1.7,1.7-1.3-2.4,1.1c-0.6,0.5-4.4,2.7-1,1
							c-0.7,0.6-1.8,1.1-3,1.8c-1.2,0.6-2.5,1.3-3.6,1.9c-1.5,0.4,4.2-2.6-0.6-0.5c0.9-0.1-5.7,3-3,2.2c-1.9,0.8-2.2,0.7-0.9-0.1
							c-1.3,0.6-3,1.3-4.4,1.9c-1.4,0.6-2.6,1.1-3.1,1l-0.9,0.6c-0.9,0.2-2.2,0.5-3.6,0.8c-1.2,0.4-3.2,1.2-4.8,1.5
							c-1.7,0.5-3,0.8-2.9,0.5c-0.4,0.1-2,0.6-3.3,0.8c-1.3,0.3-2.1,0.5-1,0.4c1.8-0.2,2.8-0.5,3.6-0.8c0.8-0.2,1.4-0.4,2.5-0.4
							c-1.3,0.2-2.6,0.5-3.8,0.8c-1.2,0.3-2.4,0.6-3.4,0.9l-0.4-0.1c-1.2,0.3-4.1,0.8-4.9,1c0.9-0.2,0.4-0.2-0.6-0.2l-1.3,0.4
							c-2.5,0.4-2.9,0.3-3.1,0.2c-0.3-0.1-0.6-0.2-3,0c1.3-0.2,2.5-0.2,3.8-0.5c-0.8,0.2-2.5,0-4.9,0.3c-0.9,0.3-2.6,0.7-3.4,0.8
							c-2.8,0.1-1.3-0.2-4,0l3.6-0.3c0.5-0.1-2.4-0.3-6.2-0.3c-2.4,0-6.1,0.2-2.3,0.4c-0.9,0-2.1-0.1-2.8-0.2
							c-0.7-0.1-1-0.2-0.2-0.2c-4.2-0.3,0.5,0.3-3.1,0.1c-0.7-0.2-2.3-0.3-4-0.6c-1.7-0.3-3.5-0.6-4.9-1c1.3,0.1,2.6,0.1,3.8,0.2
							l-2.5-0.3c3.3,0.1-1.6-0.4,0.3-0.5c-1.7-0.2-3.8-0.6-5.4-0.8c2.4,0.7,1,0.6-0.8,0.4c-1.9-0.2-4.2-0.6-3.5-0.2
							c-3.4-0.6-4.4-1.3-5.4-1.7c-0.5-0.2-1.1-0.4-1.9-0.7c-0.8-0.3-2-0.5-3.8-0.9c1.1,0.4-2.3-0.2,2,0.9c-4.1-1.3-3-0.4-7.8-2.2
							c3.6,1.1-3.7-1.7,1.6-0.2c-0.4,0,2.9,1.1,3.7,1.3c-1.6-0.7,0.5-0.3-3.7-1.7c-2.6-0.8-6-2.1-5.6-1.7c0,0.3,3.9,1.4,2.2,1
							c-5.1-1.8-5.7-2.5-8-3c3.1,1.3,3.8,1.8,3.7,2c-1.2-0.4-2.5-0.9-3.7-1.4l0.8,0.1c-2.9-1.3-3.3-1.5-3.8-1.6
							c-0.4-0.1-0.9-0.2-3.6-1.6c-0.8-0.5-1.6-1.1-2.4-1.6c0.7,0.2,2.7,1.3,4.4,2.1c1.7,0.8,3.2,1.5,2.8,1c-3.6-1.7-4.9-2.1-8.2-3.9
							c0.8,0.4,1.8,0.9,2.5,1.2c-0.5-0.3-1-0.6-1.7-1.1c-0.3-0.2-0.8-0.5-1.3-0.8c-0.6-0.4-0.8-0.5-1.2-0.7
							c-0.2,0.1-0.3,0.3-0.5,0.4c-0.4,0.3-0.7,0.6-1.2,1c-2.2,1.9-0.5,0.6-0.5,0.8c-2.5,2-4.1,3.3-5.4,4.5c-1.4,1.1-2.6,2-4.3,3.2
							c0.5-0.8-5.9,4.2-2.4,1.3c0.9-0.5,3.2-2.2,5.5-3.8c2.3-1.7,4.4-3.6,5.2-4.4c-0.9,0.5-0.3,0,0.7-0.8c0.5-0.4,1.1-0.9,1.7-1.3
							c0.1-0.1,0.3-0.2,0.4-0.4c0.1-0.1,0.1-0.1,0.2-0.2c0.1-0.1,0.3-0.2,0.4-0.3c0.2,0.1,0.4,0.1,0.5,0.1c-0.2-0.1-0.4-0.2-0.5-0.3
							c-0.6,0.4-1,0.7-1.4,1c-0.5,0.3-0.8,0.5-1.1,0.6c-0.5,0.2-0.7,0.2-1.1,0.4c-1.1,0.9-2.1,1.8-2.8,2.4c-0.3,0.6,1.1-0.6,1.4-0.5
							c-1.1,0.9-2.2,1.7-3.3,2.6c-1.1,0.8-2.2,1.6-3.1,2.3c-2,1.5-3.7,2.8-4.9,3.9c-1.7,0.9-1.3,0.4,0.6-0.9
							c-2.8,1.9-5.7,3.9-8.6,5.8c-1.5,0.9-3,1.7-4.4,2.6c-1.5,0.8-2.9,1.7-4.3,2.4c3.9-1.6-6.3,3.4-3.7,2.4c3.1-1.5,5.9-2.7,4.3-1.6
							c-1.9,1,0-0.2-0.9,0.2c-2.4,1.5-3.9,1.7-6.2,3.2c5.5-3,0.9-1,1.7-1.8c-1.9,1.1-1.9,1-1.9,0.9c0-0.1,0-0.2-2,0.7
							c-3.9,2.1-9,4.3-13.7,5.9c-1.5,0.4-3.2,1-5,1.4c-1.8,0.5-3.7,0.9-5.6,1.4c-1.9,0.4-3.8,0.8-5.5,1.1c-1.8,0.3-3.4,0.5-4.8,0.6
							c-1.5,0.1-1.7-0.1-2-0.1c-0.3-0.1-0.6-0.2-2.2-0.1c-3.7,0.2,2.8,0.3-2.7,0.3c0.2,0,0.4,0,0.5-0.1c-0.8,0-3.3-0.1-5.8-0.2
							c-1.2-0.1-2.5-0.2-3.5-0.3c-1,0-1.9-0.2-2.3-0.1c0.6,0,1.2-0.1,1.7-0.1c-1-0.2-2-0.3-2.8-0.4c0-0.1-1.2-0.4,0.5-0.2
							c-0.8-0.2-1.7-0.4-2.5-0.5c-0.9-0.2-1.7-0.4-2.6-0.6c-0.4-0.1-0.9-0.2-1.3-0.3l-1.3-0.4c-0.9-0.2-1.8-0.5-2.6-0.8l2.2,0.9
							c-0.8-0.2-1.5-0.4-2.2-0.6c-0.7-0.2-1.3-0.5-2-0.7c-0.6-0.2-1.3-0.5-1.9-0.7c-0.6-0.3-1.2-0.6-1.8-0.8
							c-0.6-0.3-1.2-0.5-1.8-0.8c-0.6-0.3-1.2-0.6-1.8-1c-1.2-0.6-2.4-1.4-3.7-2.1l0.3-0.1c-1.1-0.6-2-1.3-3.1-1.9
							c0.8,0.3-1.8-1.7-3.3-2.8c2.5,1.8,5.2,3.5,7.9,4.9c2.1,1.5-2.6-1.2-1.3-0.2c1,1,6,3.6,7,3.7c-1.9-0.9-2-0.9-3.6-1.6
							c-0.5-0.6,2.4,1,3.9,1.4c-1-0.4-2.4-1.2-2.7-1.3c2,0.9,4,1.8,7.5,3c-2.3-0.8,1.2,0.7,0.3,0.4c0.4-0.2,3.7,0.9,8.1,1.9
							c3.1,0.9,8.4,1.2,13.6,1.2c-1.1,0.1-2.3,0.2-3.6,0.3c-1.3,0.1-2.8-0.1-4.4-0.1c1.6,0.2,2.6,0.3,3.5,0.4c0.9,0,1.8,0,3.5,0.2
							c1.6-0.1,2.7-0.5,7-0.8l0.2,0.2c1.9-0.3,2.9-0.5,4-0.7c1.1-0.2,2.3-0.5,4.7-0.9c8.3-1.5,16.6-4.5,22.5-7l0.3,0.1
							c0.8-0.5,1.8-1,3.1-1.6c1.2-0.6,2.6-1.2,4-2c1.4-0.7,2.8-1.5,4.2-2.2c0.7-0.4,1.3-0.7,1.9-1.1c0.6-0.4,1.2-0.7,1.7-1.1
							c1.8-1,3.7-2.1,5.5-3.2c1.8-1.2,3.5-2.4,5.2-3.5c3.4-2.2,6.1-4.3,7.9-5.4c1-0.8,2.1-1.5,3.1-2.3c1-0.8,2-1.6,2.9-2.3
							c2.1-1.7,4.1-3.3,6.1-4.9l1,0.6c0.3,0.2,0.7,0.4,0.9,0.5c0.5,0.3,1,0.5,1.5,0.8c1,0.5,2,1,3,1.5c2,1,4.1,1.9,6.1,2.8
							c4.2,1.8,8.5,3.4,13.1,4.9l-2.5-0.5c2.6,0.6,1.6,0.7,4.2,1.5c-2.8-1.1,3.6,0.8,5.5,1.1c3.2,1,7,1.8,10.6,2.4
							c3.7,0.6,7.3,1,10.3,1.2l0.2,0.2c6,0.3,13.1,0.8,20.6,0.4c0.4,0,1,0,1.7,0.1c0.7,0,1.6,0,2.7-0.2c2-0.4,3.5-0.7,5.3-0.9
							c1.7-0.4,3.7-0.8,6.6-1.4c2.1-0.5,4.9-1.1,7.6-1.9c1.4-0.4,2.7-0.8,4-1.2c0.6-0.2,1.3-0.4,1.9-0.5c0.6-0.2,1.1-0.4,1.7-0.6
							c7.6-2.9,15-6.7,22-11.2L521,75l1.3-0.8l1.3-0.9c1.7-1.2,3.4-2.5,5.1-3.7c1.7-1.3,3.2-2.7,4.9-4l2.4-2
							c0.8-0.7,1.5-1.5,2.3-2.2l1.1-0.7c0.9-0.9,1.8-1.7,2.6-2.6c0.4-0.4,0.9-0.9,1.3-1.3c0.4-0.5,0.9-0.9,1.3-1.4
							c1.8-1.9,3.5-3.8,5.3-5.8l6.7-7.3l-4.4,8.9c-5.6,11.2-10.2,23.4-12.9,32.9l0-1.4c-1.4,4.2-2.7,9.7-2.1,8.7
							c-1.3,4.2-2.4,10.8-3.3,13.5c-0.5,2.2-0.7,3.6-0.8,4.9c-0.2,1.3-0.3,2.5-0.5,4.3c-0.7,4.5-1,7.5-1.3,10.6
							c-0.1,1.5-0.2,3-0.3,4.7c-0.1,1.6-0.1,3.5-0.1,5.6l0.1-2.1c-0.1-0.9-0.2-1-0.3,1.1c0,1.6,0,4.5,0.1,6.6c0,2.1,0.2,3.5,0.4,1.9
							c0,1.1,0.1,2.3,0.1,3.5c0,0.6,0,1.2,0.1,1.8c0.1,0.6,0.1,1.2,0.2,1.9c0.1,1.3,0.3,2.6,0.4,3.8c0.2,1.3,0.4,2.6,0.6,3.9
							l0.3,1.9c0.1,0.6,0.3,1.3,0.4,1.9c0.3,1.3,0.5,2.5,0.8,3.7c0.3,1.2,0.6,2.4,0.9,3.6c0.3,1.1,0.5,2.3,0.8,3.3
							c-0.1-0.8,0.6,1.3,1,2.2c0.7,2.4,1.7,4.8,2.6,7.2c0.4,1.2,1,2.3,1.5,3.5c0.6,1.4,1.3,2.7,1.9,4.1c-0.3,0.5-0.5,1-0.8,1.6
							c-0.1,0.3-0.3,0.6-0.4,0.9c-0.3,0.6-0.5,1.2-0.8,1.7c-0.5,1.1-1,2.2-1.3,3.3c-0.6,1.1,0.6-2-0.7,1c-0.7,1.8,0.1,0.1-0.7,2.3
							c-4.5,12.1-8.8,24.7-10.9,36.3c-0.9,5.1-1.6,10.4-2,15.6c-0.4,5.3-0.6,10.6-0.4,15.8c0.3,5.2,0.7,10.4,1.8,15.5l0.4,1.9
							l0.5,1.9c0.3,1.2,0.6,2.5,1,3.7c0.8,2.4,1.5,4.8,2.5,7.1l-0.2-0.2c0.7,1.5,1.4,3.2,2.2,4.8c0.8,1.6,1.6,3.4,2.6,5
							c1.8,3.3,3.9,6.1,5.7,8.1c0.5,0.6,1.4,1.8,2.2,2.7c0.5,0.6,0.9,1.1,1.1,1.4c0.3,0.4,0.3,0.5,0,0.1c0.3,0.3,0.6,0.7,0.9,1.1
							c-0.2,0.5-0.5,1.1-0.8,1.7c-0.2,0.4-0.4,0.8-0.5,1.2c-0.3,0.7-0.6,1.5-1,2.3c-0.7,1.6-1.4,3.3-2.1,5.1
							c-1.4,3.6-2.6,7.5-3.4,11.1c0.2-0.7,0.3-1.1,0.4-1.9c-1.2,3.7-1.9,7.3-2.5,10.9c-0.6,3.6-1,7.4-1.2,11.4c0-0.8,0-2.3-0.1-2.6
							c-0.4,3.2,0.4,7.4,0.1,9.2c0.2,1.8,0.4,1.2,0.2,0.2c0.3,3.6,1,7.1,2.2,10.6c1.2,3.5,3,6.7,5.2,9.6c0.6,0.7,1.1,1.5,1.8,2.1
							l1.9,2c0.7,0.6,1.4,1.2,2.1,1.8c0.4,0.3,0.7,0.6,1.1,0.9l1.2,0.8c3,2.1,6.5,3.6,10,4.9l-1.3,2.9c-3.1-1.5-6.5-2.8-9.8-3.9
							c-6.3-2.4-6.5-2.5-6.3-2.6c0.2,0,0.7,0-4.5-1.3c-0.8-0.3-0.7,0-0.8-0.1c-4-1-6.1-2.1-8.9-2.6c1.1,0.5-1.9-0.2-2-0.1
							c-2-0.5-3.6-0.9-5-1.2c-1.4-0.3-2.5-0.6-3.6-0.8c-1.1-0.2-2.2-0.4-3.3-0.6c-1.2-0.2-2.5-0.3-4.1-0.5l0.5-0.1
							c-7.6-0.6-16.4-1.5-22.8-1c-6.9-0.1-13.8,0.1-20.6,0.8c-6.8,0.7-13.5,1.6-20.2,3c-6.6,1.4-13.2,3-19.6,5
							c-1.6,0.5-3.2,1-4.8,1.5l-4.7,1.7c-1.6,0.5-3.1,1.2-4.7,1.8l-5.7,2.3l-1-0.7l-0.9-0.6l-1.1-0.7c-0.7-0.4-1.4-0.9-2.2-1.3
							c-1.5-0.8-3-1.6-4.5-2.3c-3.1-1.4-6.3-2.6-9.5-3.7c-6.5-2.1-13.2-3.5-20-4.3c-15.3-1.8-30.8-0.6-45.8,2.9
							c-7.5,1.7-14.9,4-22.1,6.7c-1.8,0.7-3.6,1.4-5.4,2.1c-1.8,0.7-3.6,1.5-5.4,2.3l-2.7,1.2l-4.7,2.2c-3.2,1.5-6.4,3-9.7,4.6
							c1.4-2.1,2.7-4.2,4.1-6.4l1-1.6l0.9-1.5l0.9-1.5l0.4-0.7l0.3-0.6c1.1-2,2.2-4.1,3.3-6.1c2.1-4.1,4.1-8.4,5.8-12.8
							c1.9-4.4,2.8-6.8,3.7-9.3c0.8-2.6,1.6-5.3,2.6-10.4c0,0.4-0.1,1.1,0.1,0.4c-0.1-0.3,0.3-2.1,0.5-4c0.3-1.9,0.5-3.8,0.4-4.3
							c0.7-6.2,0.3-12.2-1.2-18c-0.1-0.7-0.4-1.4-0.6-2.1c-0.3-0.7-0.4-1.4-0.7-2.1c-0.6-1.3-1.1-2.7-1.9-4
							c-0.4-0.6-0.7-1.3-1.1-1.9c-0.4-0.6-0.9-1.2-1.3-1.8c-0.2-0.3-0.4-0.6-0.7-0.9l-0.7-0.9c-0.8-0.9-1.6-1.9-2.5-2.8
							c0.3-0.5,0.5-1,0.8-1.5c0.2-0.4,0.4-0.8,0.6-1.3c0.3-0.5,0.5-1.1,0.8-1.6c0.5-1.1,1.1-2.2,1.6-3.4c-1,2.2-1.3,3.5-0.1,0.8
							c0.4-1,0.7-1.9,1-2.9l0.3-0.4c0.7-1.9,1.4-3.9,0.5-2.1c2.7-6.9,4.9-14.1,6.4-21.3c0.7-3.6,1.2-7.3,1.5-10.9
							c0.3-3.6,0.2-7.3-0.1-10.9c-0.4-3.6-1.1-7.1-2.2-10.5c-1.2-3.4-2.7-6.6-4.7-9.5c-0.5-0.7-1.1-1.4-1.6-2.1l-0.8-1.1
							c-0.3-0.3-0.6-0.7-0.9-1l-1.8-1.9c-0.7-0.6-1.3-1.2-2-1.8c-1.3-1.2-2.8-2.2-4.3-3.2l-0.5-0.4l-0.6-0.3l-1.2-0.7l-3.8-2.2
							c0.4-1,0.8-2,1.1-3l0.6-1.6c0.3-1.1,0.7-2.1,1-3.2c0.7-2.1,1.2-4.3,1.8-6.5c1.1-4.3,2-8.7,2.7-13.1c0.8-4.5,1.6-9.9,2-15.5
							c0.4-5.6,0.5-11.3,0.3-16.2c-0.1-7.3-0.7-14.4-1.8-21.4c-1.2-7-2.9-13.7-5.2-20.3l-0.9-2.5c-0.3-0.8-0.7-1.6-1-2.4l-1-2.4
							c-0.3-0.8-0.7-1.6-1.1-2.4c-0.8-1.6-1.5-3.2-2.3-4.8c-0.9-1.5-1.7-3.1-2.6-4.6c-3.6-6.1-7.9-12-12.8-17.5c0,0,0.8,0.6,2.6,2.4
							C260.5,97,263.2,100,266.7,105.1z"/>
						<path class="st1" d="M263.6,98.3c0.6,0.8,3.2,3.2,1,1.5C264.4,99.5,263.2,98.2,263.6,98.3z"/>
						<path class="st1" d="M349.6,106c0.1-0.1,1.2-0.5,1.5-0.6c-1,0.5-1.9,1.1-2.8,1.4C349.3,106.3,349.1,106.3,349.6,106z"/>
						<path class="st1" d="M370.2,94.4c-0.1,0.2-1.2,1-2.6,1.9c-1.4,1-3.1,2-4.4,2.8c1.2-0.8,2.4-1.5,3.5-2.3L370.2,94.4z"/>
						<path class="st1" d="M388.3,81.9c1.6-1.1,1.2-0.7-0.8,0.9C387.3,82.8,388,82.3,388.3,81.9z"/>
						<path class="st1" d="M389.4,80.7c1.1-0.9,1-0.7,1.2-0.8c0.1,0.1,0.2,0.2,0.2,0.2c0,0-0.1-0.1-0.2-0.2
							c-0.2,0.1-0.4,0.3-0.6,0.5C389.5,80.7,389.2,80.9,389.4,80.7z"/>
						<path class="st1" d="M432.1,95.2c1.1,0.2,3.6,0.5,4.7,0.8C435.6,95.7,431.2,95.3,432.1,95.2z"/>
						<path class="st1" d="M454.4,97.4c0.7,0,1,0.1,1.9,0c1.3,0-0.1,0.2-1.2,0.2L454.4,97.4z"/>
						<polygon class="st1" points="539,328.3 539.8,326.1 539.8,326.4 						"/>
						<path class="st1" d="M472.1,387c-2.4,0.3-1.7,0-2.1,0C472.1,386.8,469.2,387.2,472.1,387z"/>
						<polygon class="st1" points="381.6,391.7 382.3,391.9 382,392.1 						"/>
					</g>
				</g>
			</g>
		</g>
	</g>
	<g>
		<g>
			<g>
				<g>
					<g>
						<path class="st1" d="M288.6,405.3c-0.9-0.2,0.4,0.4-0.6-0.1C288.1,405.2,288.3,405.1,288.6,405.3z"/>
						<path class="st1" d="M541.4,405.2c-1.3,0.9-3,1.4-4.8,1.9c-1.8,0.5-3.6,0.9-5.2,1.5c-0.4,0.1,0-0.4-0.8-0.1
							c-3.1,1.4-8.2,1.9-12.2,2l0.2-0.2c-0.8,0-1.6,0.5-2.4,0.6c0-0.1,0.2-0.1,0-0.2c-0.2,0.3-1.4,0.3-1.8,0.5
							c-0.3-0.1-0.3-0.2-0.7-0.3l-0.4,0.3c-1.2,0.7-3.1,0.2-4.8,0.7c0.1-0.1,0.2-0.1,0.1-0.2c-2.8,0.6-6.3,0.7-9.4,0.9
							c0.1-0.1,0.2-0.3,0-0.4c-0.1,0.3-1.1,0.4-2,0.5c-0.4-0.3-1.4,0.3-2.4,0.1l0.1-0.1c-0.7,0.3-1.1-0.2-1.7,0.2l-0.5-0.2
							c-0.3,0.4-1.1-0.2-1.7,0l0,0.1c-0.6,0.1-0.9-0.1-1.4,0l0,0c-1.2,0.1-2-0.1-1.9,0.2c-0.4-0.3,1.2-0.1,0.5-0.5
							c-4.1,0.3-8.3,0.1-12.4,0c-0.5-0.1-0.8-0.2-0.9-0.3c-0.4,0.1-1.5,0-1.9,0.2c0.1,0-0.3-0.2-0.5-0.2c-0.7-0.1-0.8,0.3-1.6,0.1
							c0.3-0.1,0.4-0.2,0.3-0.3c-0.7,0.2-1.6,0.2-2.5,0.2c0.1,0,0.3-0.1,0.3-0.2c-0.9,0.3-1.6-0.1-2.4,0l0.3-0.2
							c-1.3-0.3-0.4,0.4-1.5,0.2c0.3,0,0.2-0.1,0.2-0.2c-1,0.3-2.7,0.1-3.7,0.2c0.1,0,0-0.1,0-0.1c-1.1,0-2.3-0.1-3.5,0
							c-0.4-0.1,0.2-0.4-1-0.4c0,0.4-2,0.1-1.3,0.5c-1-0.1-2.6-0.3-3.3-0.2c0.5-0.1-0.5-0.5,0.4-0.5l-0.6-0.2
							c0.1-0.2,0.7,0.1,0.5-0.1c-0.4,0-1.6,0.1-2,0.1c-0.8,0.2-1.5,0.6-2.8,0.7c0.6-0.1-0.3-0.4,0.1-0.5l-1.8,0.7
							c-0.4,0-0.1-0.3-0.7-0.2c0,0.1-0.2,0.2-0.4,0.2c-0.2,0-1.7,0.1-1.9-0.3c-0.2-0.1,0.7-0.1,0.2-0.2c-0.8,0-0.8,0.1-1.6,0.1l0,0
							c-0.5-0.1-1.5,0.2-0.9,0.4c0.4,0-0.1-0.2,0.4-0.1c-0.4,0.2-1.3,0.3-2,0.3c0.3-0.1,0.2-0.2,0.3-0.3c-1,0.3-2.1,0.4-3.3,0.6
							c0,0.2,0.4-0.3,0.6-0.2c-1.5-0.2-3.1,0.4-4.3,0.1c0.2,0,0.1,0.2,0.1,0.2c-0.7,0-0.7-0.2-1.2-0.1c-0.1-0.1-0.6,0.1-1.1,0.1
							c-0.2,0.1-0.1-0.1,0.3-0.1c-0.7,0.1-3.3,0.6-4.9,0.4c0,0.1-0.9,0.4-1.3,0.5l0.1-0.2c-0.3-0.1-1.2,0.1-1.3-0.1
							c-0.7,0.3,2.9-0.5,1.9-0.2c-0.3-0.2-1.4,0.5-1.2,0.2c-0.7,0.1-1.4,0.4-2.1,0.2c0.2,0,0.5-0.4,0-0.3c-1,0.1-0.3,0.1-1.1,0.3
							l-0.5,0.2c0,0.2-0.9,0.1-0.5,0.3c-0.1-0.2-1.4,0.3-1.4-0.1l0.1-0.3c-0.4,0.1-0.7,0.4-1,0.6c-0.1,0-0.2-0.1-0.2-0.1
							c0,0.5-1,0.1-1.5,0.5c-0.9,0-2.3,0.3-2.8,0.1c-0.7,0.2-1.3,0.5-2.1,0.5c0.2-0.1,0.4-0.1,0.4-0.2c-0.5,0-0.6,0.1-1.1,0.3
							c0.1-0.1-1-0.1-1.6-0.1c-0.7,0.3-0.4,0.4-0.4,0.6c-0.7-0.3-1.9,0.7-2.7,0.5c0.2-0.1,1-0.4,0.4-0.4c-0.7-0.3-1.2,0.6-2.2,0.6
							l0.3,0.3c-0.5-0.1-1.4,0.5-1.4,0.2c-0.3,0.2-1.2,0.2-1,0.5c-1.7,0.1-3.9,1.2-5.1,0.9c-0.2,0.1-0.8,0.2-0.6,0.4
							c0.4,0.1,0.5-0.3,0.7-0.2c-0.2,0.1-0.2,0.2-0.2,0.2c-0.5,0.1-0.9,0.2-0.5-0.3c-1.2,0.1-1,0.9-2.4,1.3c0-0.2-0.1-0.2-0.5,0
							l-0.7,0.5c-0.9,0.2-0.6-0.1-0.7-0.4c-0.5,0.2-1.1,0.4-1.3,0.6l-0.7-0.1c0.5,0.1-0.4,0.3-0.6,0.4l0.2-0.1
							c-0.1-0.1-0.7,0.2-1,0.3c0.1,0.1,0.7,0,1.1-0.1c-0.2,0.2-0.6,0.3-0.9,0.5c0-0.3-0.9,0.1-1.3,0.2c-0.5,0.1-0.4,0.4-0.6,0.4
							c0-0.1-0.7,0.2-0.4-0.1c0.1-0.1,0.4,0,0.6-0.2c-0.3,0-0.4-0.2-0.9,0.1c-0.4,0.3,0.3,0.4-0.7,0.5c0.2-0.1,0.2-0.2,0.4-0.4
							l-0.9,0.1l0,0.2c-0.1,0-0.1-0.1-0.1-0.1c-0.2,0.3-1.3,0.4-1.4,0.7c-0.4,0.1-0.9,0.1-1.4,0.2l0.1,0c-0.5,0-1.2,0.3-1.6,0.5
							l0-0.1c-0.3,0.1-0.9,0.2-1.2,0.5c-0.7,0-0.4-0.8-1.1-0.3c-0.7,0.2-1,0.6-0.7,0.7c-1.3,0.1-2.7,0.7-4,0.5
							c-0.2,0.1,0,0.2-0.4,0.3c-1.9,0.2-4,0.6-5.6,0.3c0.6-0.1,0-0.2,0-0.4c-0.5,0.2-0.6-0.2-0.7,0.2c0.1,0.2,0,0.3,0.5,0.4
							c-1.1,0.1-2.9,0.1-3.5-0.1c0.3,0.1,0.1,0.2-0.2,0.2c0.1-0.3-0.7-0.4-1.4-0.3l-0.1,0.2l-0.4-0.2c-0.2,0-0.3,0.4-0.9,0.2
							c0-0.1-0.1-0.2-0.2-0.2c-0.7,0.1-1.6,0.3-2.3,0.1l-0.6-0.3c-0.3,0-0.8,0.1-0.3,0.3c-1.2-0.3-2-0.4-2.3-0.7
							c-2.2,0.3-5.2-0.1-7.6-0.6l0.1-0.1c-0.6-0.3-0.4,0.2-0.8,0c0.2-0.1-0.4-0.4,0.1-0.5c-0.9-0.3-1.2,0-1.8-0.1
							c-0.1,0.2,0.5,0,0.3,0.2c-0.1,0-1.2-0.4-1.4-0.2c-0.2-0.2,0-0.3,0.2-0.4l-0.6,0c-0.6-0.5,1.7-0.2,1.1-0.8l-0.5-0.1
							c-0.4-0.4,1.4,0,0.2-0.4c-0.6,0-1.2,0.3-0.7,0.6c-1.2-0.2-0.7,0.6-1.9,0.2c-0.3-0.2,1,0.2,0.8-0.1c-0.5-0.4-1.2-0.1-1.7-0.4
							c0.6,0.2,0,0.4-0.4,0.4c-0.6-0.3,0.5-0.2-0.4-0.4c-0.2,0.1-1,0.1-0.4,0.3c-0.4,0.3-0.9-0.3-1.5-0.2c-0.2-0.3,1.1-0.4,0.1-0.7
							c0.1,0.3-1.3,0-0.9,0.5c-0.4-0.2-0.4-0.4,0-0.5c-0.5-0.3-1.4,0.1-1.5-0.4L336,421c-0.1-0.1-0.4-0.3-0.6-0.5
							c-0.5-0.1-1.6-0.1-1.5-0.4c-0.2,0-1.3-0.3-0.9,0.1c0.6,0.3,0.8,0,1.1,0.5c-0.4-0.4-1-0.2-1.4-0.2l0-0.2c-0.2,0-0.8-0.2-1-0.1
							c0.2,0,0.1-0.2,0-0.2l-0.3,0.2c-1-0.2-0.1-0.5-1.1-0.7l0.7,0c-0.2,0-0.4-0.3-0.9-0.4c-0.2,0.2-0.6,0.3-0.8,0.4
							c-0.5-0.1-0.2-0.3-0.7-0.2l0.7-0.1c0.1,0-0.4-0.5-1.1-0.7c-0.5-0.1-1.2,0-0.6,0.4c-0.3-0.1-0.8-0.4-0.5-0.4
							c-0.8-0.2,0,0.3-0.7,0.2c-0.2-0.2-1.1-0.7-1.5-1l0.8-0.1l-0.5-0.1c0.7-0.1-0.3-0.3,0.2-0.5c-0.3-0.1-0.7-0.1-1.1-0.2
							c0.8,0.7-1.2,0.3-1.1,0.8c-1.3-0.3-0.5-1.3-2.1-1c0.2,0.2-0.5,0.3,0.3,0.4c-0.8-0.3-0.7,0.3-1.6-0.2c0.8,0-0.6-0.6,0.5-0.6
							c-0.1,0.1,0.5,0.3,0.7,0.3c-0.3-0.3,0.2-0.4-0.6-0.6c-0.5-0.1-1.2-0.3-1.2,0c0,0.2,0.8,0.2,0.4,0.3c-1-0.2-1.1-0.6-1.6-0.3
							c0.6,0.1,0.7,0.4,0.7,0.6l-0.8-0.1l0.2-0.1c-1.1-0.5-0.4,0.2-1.6-0.2l-0.4-0.5c0.3-0.2,1.6,0.6,1.5,0.1
							c-0.7-0.2-1-0.1-1.7-0.4c0.2,0,0.4,0.1,0.5,0.1c-0.3-0.1-0.4-0.8-1.5-0.7c-0.6,0-0.2,0.1-0.2,0.3c-1.2-0.3-1.6-0.2-2.4-0.4
							c0.3-0.3-1.3-0.4-0.4-0.5c0.3,0.3,2.1,0.8,2.6,0.6c-0.3-0.5,0.9,0.3,1.3,0c-1-0.3-0.8-0.6-0.9-0.9c-0.3-0.1-0.5-0.1-0.7-0.1
							c-0.2,0.2,0.2,0.3,0.1,0.5c-1-0.4-2.1-0.5-2.8-0.5c-0.3-0.2-0.1-0.4,0.3-0.3c-1.3-0.3-2.6-0.7-3.8-1.1
							c0.7,0.6-1.4-0.3-0.9,0.2c0.6,0.3,1.1,0.7,0.7,0.8c-0.4-0.1,0.1-0.2-0.1-0.3c-0.6,0.1-0.7-0.6-1.3-0.4
							c1.2,0.2,0.4-0.4,0.7-0.6c-0.9-0.1,0.1-0.2-0.7-0.4c-0.9-0.1-1.9-0.2-2.9-0.4c-1.1-0.6-2.9-0.8-4-1.1c-0.5-0.3,0-0.5-0.6-0.8
							c-0.7-0.2,0.4,0.5-0.6,0.1l0.1,0c-0.3,0-1.8-0.8-2.3-0.4l0.4-0.3c-0.2-0.1-0.4-0.1-0.6-0.1c0-0.1-0.2-0.3,0.2-0.3
							c-0.6-0.4-1.3-0.3-2-0.5l0.4,0.3c-1.2-0.2-1.9-0.6-3.1-0.8l0.1-0.2l-0.7-0.1c0.2-0.2-0.4-0.5-0.8-0.4l1.9,0
							c0.5,0.3-0.6,0.1-0.4,0.4c0.2,0.3,1.3,0.5,1.5,0.3c-0.4-0.1-0.4-0.1-0.8-0.1c0-0.3,0.6-0.1,0.9-0.3c-0.2,0-0.5-0.2-0.6-0.1
							c0.5,0,0.9,0.1,1.6,0.3c-0.5,0,0.2,0.3,0,0.3c0.1-0.2,0.8-0.1,1.6,0.2c0.5,0.5,1.7,0.3,2.6,0.6c-0.5,0.2-1.1,0.2-1.7,0.2
							c0.6,0.3,0.7,0.2,1.3,0.5c0.4-0.1,0.7-0.4,1.5-0.2l0,0.2c0.8,0.1,0.8-0.2,1.8,0.1c1.6,0.5,3.2,1,4.4,1.4l0,0.2
							c0.8-0.2,2.3,0.5,3.3,0.6c1.5,0.6,3.4,0.8,4.1,1.3c2.8,0.6,5.2,1.2,8,2l-0.6,0.1c0.6-0.1,0.3,0.3,0.8,0.4
							c-0.5-0.4,0.8-0.1,1.2-0.2c1.2,0.6,2.9,0.8,4.1,0.9l0,0.2c1.2,0,2.5,0.7,3.9,1.1c0.1,0.1,0.3,0.4,0.8,0.5
							c0.9-0.1,1.3,0,2.4,0.1c0.8,0.2,2.1,0.6,2.9,1c3.2,0.4,6.3,1.4,9.6,1.8l0.2,0.3c3.2,0.2,7,1.3,9.8,1.3l-0.3,0.4
							c0.8,0.2,2,0.1,1.8-0.2c0.8,0.2,2.1,0,2.6,0.4c0.9,0.1,1.1-0.1,1.8-0.1c1.7,0.2,2.4,0.2,4,0.1l-0.4,0
							c-0.2,0.1-0.2,0.3,0.2,0.3c0.6-0.1,2.3,0,1.6-0.4c1.8,0.2,4-0.5,5.7-0.3c-0.2-0.1,0.3-0.2,0.4-0.3c1.5-0.2,3.1-0.3,4.3-0.7
							c0.3,0-0.3,0.3,0.3,0.2c0.3-0.1,0-0.2,0.4-0.3c2.4-0.8,4.9-1,7.1-1.8c3.8-1.5,7.9-2.7,11.7-3.9l0,0.1c1.2-0.7,3.1-0.4,4-1.3
							c0.3,0,1.2-0.3,1,0c1-0.5,3-0.4,4.4-1.1c-0.1,0-0.2,0.1-0.4,0.1c1.6-0.1,2.9-0.6,4.5-0.7c-0.2,0.1-0.4,0.2-0.5,0.3
							c0.6,0.1,1.4-0.7,1.8-0.3c0.4-0.1,0.2-0.3,0-0.2c3.6-0.4,7.3-1.2,11-1.6c2.7,0,0.2,0.8,2.3,0.2c0.2,0.1,0.1-0.2,0.1-0.1
							c0.8-0.2,1.3,0.4,1.8,0.2c-0.3-0.3,0.4-0.2,0.4-0.4c1.6,0.1,2,0.3,3.2,0.1l-0.1,0.2c1.5-0.5,3.2-0.3,4.5-0.9
							c8.3-0.3,16.2-0.4,24.3-0.2c7.9,0.4,15.7,0.5,23.7,0.9c1.9,0.4,2,0.4,4.1,0.3c-0.1,0.1-0.2,0.1-0.1,0.1c0.1-0.3,1.5,0,1.7-0.3
							c3,0.1,5.7,0,8.7-0.1c-0.5,0-0.7,0.3-0.1,0.3l0.6-0.2l0.1,0.1c0.4-0.1,0.8-0.2,0.4-0.3c7.6-0.5,15.1-0.4,22.5-1.7
							c0.9-0.1,1.9-0.3,3-0.5c1.1-0.2,2.1-0.5,3.1-0.7c5.6-0.8,10.7-1.9,16-4.2C544,403.2,543.6,404.2,541.4,405.2z"/>
						<path class="st1" d="M289.7,405.6c0.2,0.2,0.8,0.5,0.2,0.5C289.9,406,289.6,405.7,289.7,405.6z"/>
						<path class="st1" d="M306.5,412.1c0,0,0.2,0.1,0.3,0.2c-0.2,0-0.5,0-0.6-0.1C306.3,412.2,306.3,412.2,306.5,412.1z"/>
						<path class="st1" d="M310.8,413.5c-0.1,0.1-1.1,0-1.6-0.2L310.8,413.5z"/>
						<path class="st1" d="M314.8,415.2c0.3,0.2,0.2,0.3-0.3,0.1C314.5,415.2,314.7,415.3,314.8,415.2z"/>
						<path class="st1" d="M315.2,415c0.3,0.1,0.5,0.2,0.6,0.4C315.8,415.2,315,415.2,315.2,415z"/>
						<path class="st1" d="M324,417.9c0.2,0.1,0.7,0.1,0.9,0.3C324.7,418,323.8,418.1,324,417.9z"/>
						<path class="st1" d="M328.2,418.9c0.1,0,0.2,0.1,0.3,0.1c0.2,0.1-0.1,0.2-0.3,0.1L328.2,418.9z"/>
						<polygon class="st1" points="405.4,416.1 404.9,416.2 405,416.1 						"/>
						<path class="st1" d="M439.3,412.5c0.5-0.1,0.3,0.1,0.4,0.2C439.2,412.7,439.8,412.5,439.3,412.5z"/>
						<polygon class="st1" points="457.7,412 457.6,412 457.7,411.7 						"/>
					</g>
				</g>
			</g>
		</g>
	</g>
</g>
</svg>
