<?xml version="1.0" encoding="utf-8"?>
<!-- Generator: Adobe Illustrator 22.0.1, SVG Export Plug-In . SVG Version: 6.00 Build 0)  -->
<svg version="1.1" id="圖層_1" xmlns="http://www.w3.org/2000/svg" xmlns:xlink="http://www.w3.org/1999/xlink" x="0px" y="0px"
	 viewBox="0 0 600 650" style="enable-background:new 0 0 600 650;" xml:space="preserve">
<style type="text/css">
	.st0{fill:#E9D7BE;}
	.st1{fill:#3A302E;}
</style>
<g>
	<g>
		<path class="st0" id="flagArea" d="M259.2,103.7c0,0,101.8-40.1,130.4-81.7c0,0,78.9,37,161.3,6.5c0,0-159.5,293.4-140.2,404.9
			C410.8,433.4,250.2,310,259.2,103.7z"/>
		<g>
			<g>
				<g>
					<g>
						<path class="st1" d="M261.5,102.2c-3.8,1.6,2.2-0.6-2.5,1.1C259.5,103,260.2,102.6,261.5,102.2z"/>
						<path class="st1" d="M258.6,117.5c0.1,1.7,0.1,3.4,0.1,5.2c0.1,1.8,0.2,3.6,0.3,5.5c0.2,3.8,0.3,7.7,0.4,11.6
							c0,2,0.2,3.9,0.4,5.9c0.2,2,0.3,3.9,0.5,5.9c0.4,3.9,0.6,7.7,1.2,11.3c0.3,1.7-0.5-0.4,0.1,3.4c0.6,3.5,1.2,7.5,1.9,11.8
							c0.8,4.3,1.6,8.9,2.4,13.6c0.3,2.4,0.9,4.7,1.4,7c0.5,2.4,1,4.7,1.5,7c0.9,4.7,2,9.2,3.1,13.4l-0.4-1c0.4,1.6,0.9,3.3,1.5,5.1
							c0.6,1.8,1.1,3.6,1.6,5.2c-0.1,0.1-0.4-1-0.3-0.2c0.5,0.8,2,6,2.6,7.3c0.3,1.3,0.1,1.3,0.5,3l0.9,1.8c0.3,0.6,0.6,1.3,0.8,2
							c0.3,0.7,0.6,1.4,0.9,2.2c0.6,1.5,1.2,3.2,1.8,4.9c0.6,1.7,1.2,3.5,1.8,5.3c0.3,0.9,0.6,1.8,1,2.7c0.4,0.9,0.8,1.7,1.2,2.6
							c-0.2-0.3-0.5-1-0.4-0.4c2.5,5.5,5,11.9,8.1,18.2c0.7,1.6,1.5,3.2,2.2,4.8l1.1,2.4c0.4,0.8,0.8,1.6,1.2,2.4
							c1.6,3.1,3.2,6.3,4.7,9.3c-0.3-0.4-0.7-0.8-0.4,0c0.3,0.2,0.9,1.3,1.7,2.7c0.8,1.4,1.8,3.1,2.7,4.7c0.3,0.8,1.1,2.1,2,3.8
							c1,1.6,2.1,3.5,3.1,5.4l-0.2-0.3c1.9,2.6,2.2,4.1,3.8,6.2l0.8,1.8c0.5,0.5,1,1.5,1.6,2.7c0.6,1.1,1.3,2.4,2.1,3.5l0-0.1
							c1.4,2,1.9,3.2,3.2,5.1l0.1,0.2c1.4,2.2,2.6,4,3.4,5.2c0.8,1.2,1.2,1.8,1.3,1.7c0.8,1.7-3-4.2-1.6-1.6
							c9.9,14.5,20.7,29.1,32,42.6c1.2,1.6,2,2.6,2.2,3.1c1.2,1.3,4.4,5,5.6,6.1c-0.4-0.4,0.6,1,1.2,1.7c2.1,2.5,2.6,2.4,4.9,5.1
							c-1-1-1.4-1.3-1.2-0.8c1.1,1,2.3,2.3,3.6,3.6c1.3,1.3,2.6,2.7,3.9,3.9c-0.4-0.4-1-1-1-0.8c2.9,2.6,4.9,5.2,7.4,7.5l-1-0.8
							c3.7,4.1,1.4,0.9,4.7,4.3c-0.9-0.8-0.6-0.4-0.8-0.5c3.4,2.9,8.5,7.9,11.9,10.7c-0.2-0.2-0.2-0.1-0.2-0.1
							c1.8,1.6,3.6,3.2,5.5,4.9c2,1.7,3.7,3.2,5.4,4.4c0.2,0.1,0.3,0.3,0.4,0.4c0-0.1,0-0.1,0-0.1c0,0,0.1,0.1,0.2,0.1
							c0.1,0,0.1-0.5-0.3-3.2c-0.1,0-0.2-0.6-0.4-1.2c-0.1-0.7-0.2-1.7-0.3-2.6c-0.2-1.8-0.4-3.3-0.5-1.7c-0.1-1.1-0.1-2.3-0.2-3.6
							c0-1.3-0.1-2.7-0.1-4c0-2.6,0-5.1,0-6.5c0.1,2,0.5-2.1,0.5,1.5c0.1-0.9,0.2-1.8,0.3-2.7c0.1,0.4-0.1,2.8,0.1,1.9
							c0-1.8,0-7.1,0.2-8.7c0-3.4-0.2-6.5,0.3-11.9c-0.2,2.6,0.6-1.4,0.4,0.3c0.1-2.5,0.1-5.1,0.2-7.6c0.2-1.8,0.3-0.3,0.6-3
							c-0.1,0.1,0-1,0-1.8c0.1-0.7,1.2-7.5,1.6-8.2c0.3-0.8-0.4,2.9,0,1c0.6-3.3,0.5-3.5,1.1-6.7l0.1-0.1c0.4-2.2,1.2-6.4,0.5-4.1
							c-0.3,1.5,0.3-0.5-0.2,1.7c0.1-1.6,0.8-5.4,1.6-8.7c-0.2,1.1-0.1,1-0.1,1.5c0.4-2.2,0.8-4.5,1.2-6.8c0.5-2.3,1-4.7,1.6-7.2
							c-0.2-0.1-0.1,1.9-0.4,2.6c1.7-6.2,3-13,4.8-18c-0.2,0.9-0.4,0.4-0.3,0.3c0.8-3,1.1-2.8,1.5-4.7c0.2-0.1,0.7-2.5,1.2-4.5
							c0.2-1.1,0.2-0.5-0.3,1.2c0.7-2.8,3.8-14,6.1-20.3c-0.1,0.1,0.9-4,1.4-5.5l0,0.6c0.6-1.3,1.6-4.9,1.9-5.1
							c0.4-1.6-0.6,1.4-1.5,4.3c-0.9,2.9-1.7,5.7-1.1,3.5c0.5-1,1.6-6,1.6-5c1-2.9,1.7-5.9,2.8-8.6c-0.3,0.8-0.5,2.5,0.3,0.1
							c1.4-4.2,0.3-1.2,1.4-4.6l0.6-2.1c-0.2-0.2,1.3-3.7,0.6-2.2c0.4-0.4,2-6.1,2.2-5.5l0.1,0.7c0.6-1.8,0.8-3,1.2-4.5
							c0.1-0.2,0.3-0.7,0.3-0.6c-0.3-0.4,1.6-4.2,2.1-6.5c1.5-3.7,3.6-9.5,4.5-11.1c1-2.9,1.8-5.6,3.2-8.8c-0.2,0.7-0.6,1.6-0.5,1.8
							c0.9-2,1-2.5,1.7-4.4c-0.1,0.4,1.8-4,2.9-6.2c1-2.9,0.4-2,0.4-2.3c1.4-2.4,3-8.1,4.6-11.2c-0.3,1-1.5,4.2-0.4,1.9
							c1.4-2.4,1.8-5.3,3.7-9.4l-0.8,0.9c1-1.8,2.4-6.2,2.5-5.6c0.5-1.4,2.2-4.8,1.6-4.5c3.2-6.7,6.9-16.6,9.3-20.4
							c0.4-1,1.5-3.4,1.1-3c-0.9,1.5-0.9,2.3-1.2,2.8c0.4-0.9,0.4-1.1,0.4-1.2c1-2.1,1.7-3.7,1.1-1.6c2.3-4.6,1.6-5.1,4.3-10.9
							c0,0.3,0.3-0.1,1-1.8l1.2-3.4c1.8-3.8,1.3-2,1.6-2c0.9-2.1,2-4.6,2.3-5.6l1.4-2.3c-1,1.7,0.6-1.7,1-2.7l-0.4,1
							c0.3-0.3,1.3-2.7,1.8-3.9c-0.3,0.2-1.4,2.6-2.1,3.9c0.4-1.1,1.1-2.7,1.7-4.1c0,0.6,1.7-3.2,2.5-4.8c0.9-1.8,0.8-2.2,1-2.7
							c0.1,0,1.4-3,0.9-1.5c-0.3,0.6-0.8,1.4-1.2,2.5c0.7-1.2,0.8-0.9,1.8-3.5c0.8-2-0.7,0.3,1.2-3.3c-0.4,1-0.4,1.2-0.6,2l1.7-3.3
							l-0.1-0.2c0.3-0.4,0.1-0.1,0.3-0.3c0.3-1.1,2.4-5.2,2.5-6.1c0.8-1.7,1.8-3.5,2.6-5.1l-0.1,0.3c1.1-1.9,2.3-4.6,2.9-6.3l0,0.1
							c0.5-1.1,1.7-3.7,2.3-5.1c1.5-2.7,1.2-0.6,2.4-3.7c1.3-2.8,1.8-4.5,1.1-3.5c2.6-4.9,5-10.7,7.6-15.2c0.3-0.8,0-0.3,0.7-1.8
							c3.7-7.2,7.5-15.5,10.8-21.1c-1,2.1,0.1,0.2,0.3,0.3c0.7-1.8,1.3-2,1.3-2.8c-0.3,0.1-0.3-0.1-1.4,1.9
							c2.1-4.4,5.5-10.9,6.9-13.2c-0.7,1.2-0.3,0.2,0.2-0.8c0.1,0.5,1.8-2.7,3-5.1l0-0.4l1-1.5c0.4-1,0.2-1.2,1.6-3.5
							c0.1-0.1,0.3-0.2,0.5-0.6c0.1-0.4,0.3-0.8,0.4-1.1c0.1-0.3,0.2-0.5,0.2-0.7c-0.5,0.2-0.8,0.3-1.1,0.4c-0.1,0-0.2,0-0.4,0
							c-0.1,0,0,0-0.2,0l-0.3,0.1l-0.6,0.1c-1.2,0.5-3.3,1.3-1.1,0.7c-2.5,0.7-4.6,1.2-6.2,1.7c-1.6,0.4-2.9,0.7-3.7,0.8
							c-2.1,0.7-4.5,1.5-7.1,2.1c-1.3,0.3-2.6,0.6-4,0.9c-1.4,0.3-2.7,0.6-4.1,0.9c-2.8,0.5-5.7,1.1-8.5,1.4
							c-1.4,0.2-2.8,0.4-4.2,0.5c-1.4,0.2-2.7,0.3-4,0.4l0.3-0.2c-2.8,0.1-1.4,0.4-3.4,0.5c0.9-0.2-2.2-0.1,0-0.5
							c-4,0.2-5.1,0.6-7.8,0.8c-0.4,0.2,2.1-0.2,1.6,0c-0.4,0.1-5.6,0.1-6.2,0.4c-1-0.1-0.2-0.3,0.3-0.5l-2.5,0.2
							c-3-0.3,6.8-0.8,3.7-1.1l-2.3,0.1c-2.2-0.2,5.9-0.5,0.3-0.5c-2.4,0.2-4.5,0.6-2.4,0.8c-5.1,0.1-2.4,0.7-7.9,0.6
							c-0.8-0.1,0.4-0.1,1.5-0.1c1.2,0,2.4,0,1.8-0.2c-2.6-0.2-5.2,0-7.5-0.1c2.6,0.2,0.4,0.4-1.3,0.4c-2.8-0.3,1.8-0.2-2.1-0.4
							c-0.7,0.1-4.3,0-1.2,0.3c-1.5,0.3-4.1-0.3-6.3-0.3c-1.3-0.4,4.1-0.2-0.2-0.8c0.7,0.3-5.4-0.1-3.1,0.4
							c-1.7-0.2-1.9-0.5-0.6-0.5c-2.4-0.4-5.9-0.2-6.7-0.8l-0.9,0.1c-0.7-0.2-1.8-0.4-3-0.7c-2.1-0.3-6.9-0.8-6.6-1.1
							c-0.7-0.1-5.5-1-3.7-0.4c3,0.8,3.5,0.5,5.1,1.1c-2.1-0.6-4.3-0.7-6.1-1l-0.3-0.2c-1-0.1-3.4-0.7-4.1-0.6
							c0.8,0.1,0.4-0.1-0.4-0.3l-1.1,0c-4.2-0.8-0.9-0.6-5-1.5l3.1,0.6c-0.7-0.1-2-0.7-4-1.1c-0.8,0-2.3-0.1-3-0.1
							c-2.3-0.5-1-0.5-3.2-0.9c1,0.2,2,0.4,3,0.5c0.5,0-1.9-0.8-4.9-1.7c-1.9-0.5-5-1.1-2-0.1c-1.5-0.4-3.6-1.2-2.3-1
							c-3.4-1,0.4,0.4-2.6-0.4c-1.2-0.5-4.8-1.9-7-2.9c1,0.2,2.1,0.5,3.1,0.7l-2-0.7c2.7,0.6-1.2-0.7,0.3-0.4c-1.3-0.5-3-1-4.4-1.4
							c3.8,1.9-4.7-1-3.7-0.2c-4-1.5-4.1-2.3-4.9-2.7c-0.1,0.1-0.2,0.3-0.3,0.5c0,0.1-0.1,0.1-0.1,0.2c-0.1,0.1-0.2,0.3-0.2,0.4
							c-0.2,0.3-0.3,0.6-0.5,0.9c0.3-0.4,0.2,0.1,0.1,0.2c0,0.1,0,0.1,0.2-0.1c0.1-0.1,0.2-0.3,0.4-0.5c0.1-0.1,0.2-0.2,0.3-0.4
							c0.1-0.1,0.1-0.2,0.2-0.2l0-0.1c-0.1,0.1-0.2,0.2-0.2,0.3c-0.1,0.2-0.2,0.3-0.3,0.4c-0.2,0.3-0.3,0.5-0.5,0.7
							c-0.3,0.4-0.4,0.7-0.6,1c-0.4,0.6-0.8,1.3-2.3,2.9c1.9-2.6-2.6,2.3,0.2-1.4c-0.1,0.3,1.8-1.9,2.1-2.5
							c-1.1,1.1-0.1-0.5-2.5,2.4c-0.7,0.9-1.6,1.9-2.2,2.7c-0.7,0.8-1.1,1.3-0.8,1.2c0.3,0.1,2.3-2.6,1.6-1.3
							c-3.1,3.4-3.8,3.7-4.9,5.3c1-1,1.7-1.6,2.1-1.9c0.4-0.3,0.6-0.4,0.7-0.3l-1.1,1.3l-1.2,1.2l0.4-0.6c-2,1.8-2.2,2.1-2.4,2.5
							c-0.2,0.3-0.4,0.7-2.4,2.4l-2,1.4c0.4-0.5,1.8-1.7,3-2.8c1.2-1.1,2.1-2,1.7-1.9c-1.2,1.2-2,2-2.8,2.7
							c-0.8,0.8-1.6,1.5-2.8,2.5c0.5-0.5,1.2-1.2,1.7-1.6c-0.5,0.4-1,0.7-1.9,1.3c-0.9,0.6-2.1,1.5-3.8,3.1
							c-1.8,1.7-0.4,0.5-0.3,0.7c-4.2,3.4-5.4,4.5-8.2,6.5c0.2-0.3-1.1,0.5-2,1.2c-0.9,0.6-1.6,1.1-0.1-0.2c0.8-0.4,2.7-1.8,4.7-3.2
							c1.9-1.5,3.8-3,4.4-3.7c-0.9,0.4,0-0.2,1.1-1.1c1.1-0.9,2.5-2.1,2.9-2.6c-3.3,2.7-3.4,2.3-4.1,2.5c-1,0.7-1.8,1.5-2.3,2
							c-0.2,0.5,1-0.5,1.2-0.3c-1.9,1.5-3.8,2.9-5.4,4.1c-1.7,1.3-3.1,2.4-4.1,3.3c-1.4,0.8-1.1,0.3,0.4-0.8
							c-4.6,3.3-9.8,6.6-14.4,9.4c1.6-0.8,0.3,0.1-1.1,0.9c-1.4,0.9-2.9,1.8-1.8,1.3c2.5-1.4,4.8-2.5,3.5-1.5
							c-1.6,0.9,0-0.2-0.7,0.2c-1.9,1.4-3.3,1.6-5,3c4.4-2.8,0.6-0.9,1.3-1.7c-3.1,2.1,0-0.3-3.2,1.6c-1.6,1-3.3,2.1-5.1,3.3
							c-1.8,1.1-3.7,2.2-5.5,3.3c-4.7,2.3-11.6,6.3-15.8,8.4c-2.2,1-0.9-0.1-3.3,1c-2.8,1.4,2.2-0.7-1.9,1.2l0.4-0.3
							c-1.2,0.7-7.7,3.5-8.7,4.5l1.1-1c-0.8,0.3-1.5,0.8-2.1,1.1c-0.1-0.1-1,0.2,0.2-0.4c-2.7,1-5.4,2.6-8.1,3.9l1.9-0.6
							c-4.7,2.4-8,3.6-12.7,5.8l0-0.3l-2.7,1.3c0.6-0.5-2,0.5-3.4,1.3l7-3.7c2.1-0.8-2.1,1.2-0.7,0.9c1.1-0.3,5.4-2.3,6-2.8
							c-1.7,0.7-1.7,0.8-3,1.5c-0.7,0,1.8-1.1,3-1.9c-0.9,0.4-2.1,0.9-2.3,1c1.6-0.9,3.3-1.7,6.1-3c-1.9,1,1.1-0.3,0.4,0.1
							c0.1-0.3,2.8-1.7,6.2-3.2c2.6-0.9,6.4-3.3,10.4-5.2c-1.5,1-3.4,2.3-5.8,3.5c2.6-1.1,2.8-1.4,5.3-2.5c1.1-0.8,1.8-1.5,5-3.2
							l0.3,0.1c2.9-1.6,2.7-1.9,6.5-3.8c6.4-3.2,12.8-6.8,17.6-9.6l0.3,0.1c2.4-1.9,8.7-5.3,12-7.7c6-3.6,12.5-8.5,15.6-10.4
							c2.5-1.8,4.8-3.7,7.1-5.5c2.2-1.9,4.5-3.7,6.6-5.7c4.3-3.9,8.5-8,12.5-12.9l-1.1,1.8c0.7-0.9,0.9-1.2,1.2-1.4
							c0.3-0.2,0.6-0.4,1.2-1.4c-0.7,0.8-0.5,0.4,0-0.4c0.3-0.4,0.6-0.9,0.9-1.4c0.5-0.7,1-1.4,1.4-2c0.5,0.2,0.9,0.3,1.2,0.4
							c0.4,0.2,0.8,0.4,1.3,0.6c0.3,0.1,0.7,0.3,1,0.5c0.7,0.3,1.4,0.6,2.1,0.9c1.4,0.6,2.9,1.1,4.4,1.6c3,1,5.9,1.9,8.3,2.6
							l0.1,0.3c4.9,1.2,10.7,3.2,16.8,4.8c0.7,0.2,1.8,0.7,3.6,1.1c3.4,0.4,5.2,0.9,10.1,1.6c1.8,0.4,4.2,0.7,6.5,1.2
							c2.4,0.4,4.8,0.8,6.6,1.1c13.7,1.3,27.9,2.3,42.2,1.2l1,0.2c3.5-0.3,7.1-0.8,10.8-1.1c3.7-0.5,7.5-1,11.2-1.6
							c3.7-0.6,7.3-1.4,10.7-2.1c1.7-0.4,3.3-0.8,4.9-1.2c1.6-0.4,3.1-0.8,4.5-1.3l-1,0.7c3.6-0.9,8.1-2.5,7.1-2.5
							c1.4-0.4,7.2-2.5,11.2-3.9c-1.2,2.2-2.4,4.3-3.2,5.6c-0.4,0.6-0.7,1.2-1,1.8c-0.3,0.5-0.5,0.9-0.7,1.3
							c-0.3,0.6-0.5,1.1-0.8,1.6c-0.5,1-0.9,1.9-1.6,3.3c-3.7,6.7-5,9.3-8.2,15.7l0.8-1.6c0.3-0.7,0.2-0.9-0.7,0.7
							c-1.1,2.4-4.6,8.8-3,6.6c-3.8,6.7-7.9,16.2-11.6,22.7c0.4-0.5-0.4,1.2-0.7,2c-3,6.1-6.4,12.3-8.5,17.3
							c-0.5,0.9,0.5-1.6-0.7,0.8c-0.7,1.5,0.1,0.1-0.7,1.9c-4.6,10-9.8,19.9-14,29c-7.3,16.2-15,33-21.7,48.6l0-0.2
							c-1.9,5.4-5.6,12.1-6.9,16.5c-0.6,1.2-2,4.7-1.8,3.7c-1.5,4.3-5.1,11.6-7.2,17.8c0.2-0.6,0.3-0.9,0.6-1.5
							c-2.7,6-4.6,11.6-7.3,18c0.2-0.7,0.7-1.9,0.6-2.1c-1.2,2.4-1.9,6.1-2.9,7.3c-0.5,1.4-0.2,1.1,0.2,0.2
							c-5.7,14.2-11,29.6-15.9,44.7c-3.9,10.7-1,0.4-3.5,9.1c-0.3,0.7,0,0.6-0.1,0.6c-0.9,3.3-2.1,5-2.6,7.4
							c0.6-0.9-0.3,1.6-0.2,1.7c-2.2,6.6-2.9,7.9-4.2,13.2l0-0.4c-1.4,6.3-3.6,13.4-4.4,18.8c-4.3,17.2-7.8,34.2-9.7,51.3
							c-0.9,8.5-1.4,17.1-1.3,25.6c0,2.1,0.2,4.3,0.3,6.4c0,1.1,0.2,2.1,0.3,3.2l0.3,3.3l0.8,6.2l0.4,3.1l0.1,0.8l0,0.1l0,0
							c0,0,0,0,0,0l-0.2-0.1l-0.3-0.2l-1.2-0.9c-1.6-1.2-3.2-2.6-4.9-3.9l-1.2-1l-0.9-0.8l-1.3-1.1c-13.1-11.3-25.1-23.4-36.6-36.1
							c-11.5-12.7-22.2-26.2-32.3-40.5c-2.2-3.5-3.4-5.3-4.7-7.2c-1.3-1.9-2.6-3.9-5.2-7.6c0.3,0.3,0.6,0.7,0.3,0.2
							c-0.3-0.1-1.1-1.4-2.1-2.8c-0.9-1.4-1.8-2.8-2.1-3.1c-1.7-2.7-3.4-5.4-5-8.1c-1.6-2.7-3.2-5.4-4.8-8.1
							c-0.8-1.4-1.6-2.7-2.4-4.1c-0.8-1.4-1.5-2.8-2.3-4.2c-1.5-2.8-3.1-5.7-4.6-8.6c1,1.8,1.8,2.6,0.6,0.5
							c-0.5-0.7-0.9-1.5-1.4-2.2l-0.1-0.4c-0.8-1.5-1.8-3.1-1.1-1.5c-1.9-3.7-3.8-7.4-5.6-11.2c-1.7-3.8-3.4-7.6-5.1-11.4
							c-1.7-3.8-3.1-7.7-4.7-11.5c-0.7-1.9-1.6-3.8-2.3-5.8l-2.1-5.8c-2.9-7.7-5.2-15.7-7.6-23.5c-2.1-8-4.4-15.8-6-23.9
							c-1.7-7.6-3.7-18.5-5.2-26.8c-0.3-3.1-0.7-6.2-1-9.2c-0.2-1.5-0.3-3-0.5-4.5c-0.2-1.5-0.4-3-0.4-4.5c-0.4-6-0.9-12-1.2-17.9
							c-0.2-6-0.3-12-0.5-18c0.1-6.1,0.2-12.3,0.2-18.6C257.8,103.7,258.6,107,258.6,117.5z"/>
						<path class="st1" d="M266.1,100.3c0.9-0.2,3.6-1.2,1.5-0.1C267.3,100.1,265.9,100.5,266.1,100.3z"/>
						<path class="st1" d="M336.1,67.2c0.1-0.1,1-0.5,1.2-0.6c-0.8,0.5-1.5,1.1-2.2,1.4C336,67.5,335.8,67.5,336.1,67.2z"/>
						<path class="st1" d="M353,56.7c-0.2,0.3-3.7,2.7-5.7,4.1L353,56.7z"/>
						<path class="st1" d="M368.3,46.2c1.3-0.9,1-0.6-0.7,0.8C367.5,47,368,46.6,368.3,46.2z"/>
						<path class="st1" d="M369.1,45.1c1.2-1,1.8-1.4,2.5-1.8C371.5,43.3,368.9,45.7,369.1,45.1z"/>
						<path class="st1" d="M397.5,27.3c0.9,0.3,2.9,0.9,3.7,1.4C400.3,28.2,396.7,27.2,397.5,27.3z"/>
						<path class="st1" d="M415.4,32.9c0.6,0.2,0.8,0.3,1.5,0.4c1.1,0.4-0.1,0.2-1-0.1L415.4,32.9z"/>
						<polygon class="st1" points="463.7,210.1 464.4,208.2 464.4,208.5 						"/>
						<path class="st1" d="M416.3,350.8c-0.4,2-0.4,1.3-0.5,1.7C416.2,350.7,415.8,353.2,416.3,350.8z"/>
						<path class="st1" d="M409.9,430l-0.1-0.5c0.1,0.1,0.2,0.3,0.4,0.4C410.1,430,410,430,409.9,430z"/>
					</g>
				</g>
			</g>
		</g>
	</g>
	<g>
		<g>
			<g>
				<g>
					<g>
						<path class="st1" d="M413.8,429.8c-0.6,1.4,0.6-0.6-0.4,1C413.4,430.5,413.5,430.2,413.8,429.8z"/>
						<path class="st1" d="M559.6,39.1c0.2,0.6,0.4,1.2,0.5,1.9c0.1,0.7,0.2,1.4,0.3,2.1c0.2,1.4,0.4,2.9,0.5,4.4
							c0.2,1.5,0.2,3,0.3,4.5c0.1,1.5,0.3,2.9,0.4,4.3c0,0.6-0.4-0.2-0.3,1.3c0.8,5.4,0,13.9-1.1,20.3l-0.1-0.4
							c-0.2,1.2-0.1,2.8-0.3,4.1c-0.1,0-0.1-0.4-0.2-0.1c0.2,0.4-0.2,2.4-0.1,3c-0.2,0.5-0.4,0.4-0.6,1.1l0.1,0.8
							c0.2,2.2-0.9,5-1.3,7.9c0-0.1,0-0.4-0.1-0.2c-0.3,2.3-0.8,4.8-1.5,7.4c-0.3,1.3-0.7,2.6-1,3.9c-0.4,1.3-0.8,2.5-1.2,3.8
							c0-0.2-0.1-0.5-0.3-0.2c0.2,0.3-0.2,1.9-0.6,3.2c-0.5,0.5-0.6,2.3-1.3,3.8l0-0.2c-0.2,1.2-0.8,1.6-0.8,2.6l-0.5,0.6
							c0.2,0.7-0.9,1.5-1.1,2.5l0.1,0c-0.3,0.9-0.7,1.3-1,2.1l-0.1,0.1c-0.4,0.9-0.7,1.7-0.9,2.2c-0.2,0.5-0.4,0.7-0.2,0.8
							c-0.3,0.3-0.1-0.2,0.1-0.6c0.2-0.4,0.2-0.8-0.1-0.4c-0.7,1.5-1.4,3-2.1,4.6c-0.4,0.8-0.7,1.5-1.1,2.3l-1.2,2.2
							c-0.8,1.5-1.6,3-2.5,4.4c-0.9,1.4-1.8,2.8-2.7,4.3c-0.5,0.6-0.8,1-1,1c-0.3,0.6-1.4,2.1-1.6,2.7c0.1-0.2-0.4,0.3-0.6,0.5
							c-0.8,0.9-0.5,1.3-1.4,2.3c0.2-0.5,0.3-0.7,0.1-0.6c-0.5,1.1-1.4,2.3-2.1,3.4c0.1-0.2,0.2-0.5,0.1-0.5
							c-0.6,1.4-1.6,2.1-2.2,3.3l0.1-0.5c-1.4,1.6,0,0.7-1.2,2.1c0.2-0.4,0.1-0.3,0-0.4c-0.7,1.6-2.3,3.7-3.1,5.2c0-0.1,0-0.1,0-0.1
							c-1,1.5-2.1,3.1-2.9,4.9c-0.4,0.6-0.3-0.4-1.2,1.3c0.3,0.1-1.4,3-0.5,2.2c-0.8,1.4-2,3.8-2.3,4.8c0.2-0.7-0.7,0.6-0.2-0.7
							c-0.2,0.3-0.4,0.6-0.6,0.9c-0.1-0.2,0.5-1,0.2-0.7c-0.3,0.6-0.9,2.6-1.1,3.1c-0.2,1.3-0.3,2.5-0.9,4.5c0.2-1-0.6,0.4-0.4-0.3
							c-0.1,1-0.2,2-0.2,3c-0.2,0.7-0.3,0.1-0.5,1c0.1,0,0,0.4,0,0.7c-0.1,0.2-0.7,2.8-1.2,2.9c-0.2,0.3,0.2-1.1-0.1-0.4
							c-0.3,1.2-0.2,1.3-0.6,2.5l-0.1,0c-0.3,0.8-0.5,2.4-0.1,1.6c0.2-0.6-0.3,0.2,0.1-0.6c0,0.6-0.3,2.1-0.6,3.3
							c0.1-0.4-0.1-0.4-0.1-0.6c-0.2,1.7-0.5,3.5-0.9,5.4c0.2,0.1-0.1-0.8,0-1c-0.9,2.3-1,4.9-1.9,6.8c0.1-0.3,0.3-0.1,0.2-0.1
							c-0.3,1.1-0.6,1-0.7,1.8c-0.2,0-0.2,0.9-0.4,1.7c0,0.4-0.1,0.2,0-0.5c-0.2,1.1-1.1,5.4-2.1,7.8c0.1,0-0.1,1.6-0.3,2.2
							l-0.2-0.3c-0.3,0.5-0.6,1.9-0.8,1.9c-0.1,1.3,1.2-4.7,0.9-3c-0.3,0.4-0.3,2.4-0.5,1.9c-0.3,1.1-0.4,2.3-1,3.3
							c0.1-0.3,0-1-0.3-0.1c-0.5,1.6,0,0.5-0.4,1.8l-0.2,0.8c0.2,0.1-0.5,1.4,0,0.9c-0.2,0.1-0.6,2.4-0.9,2.1l-0.2-0.3
							c-0.2,0.7-0.1,1.2-0.1,1.8c-0.1,0.1-0.2,0.2-0.2,0.2c0.4,0.2-0.6,1.6-0.5,2.5c-0.6,1.4-1.2,3.6-1.7,4.2
							c-0.2,1.1-0.4,2.2-0.9,3.4c0-0.3,0.1-0.6,0.1-0.7c-0.4,0.7-0.3,1-0.5,1.7c0-0.2-0.8,1.5-1.2,2.3c-0.2,1.1,0.1,0.8,0.2,1
							c-0.7,0.9-0.8,3.2-1.6,4.3c0.1-0.4,0.4-1.7-0.1-0.8c-0.8,0.9-0.4,2.1-1.2,3.7l0.5-0.3c-0.5,0.6-0.6,2.4-0.9,2.1
							c-0.1,0.6-0.8,1.9-0.4,1.8c-1.2,2.5-2.1,6.5-3.3,7.9c-0.1,0.4-0.5,1.3-0.2,1.2c0.4-0.6,0.2-0.9,0.4-1.1
							c-0.1,0.3-0.1,0.4,0,0.5c-0.4,0.8-0.6,1.4-0.6,0.5c-0.9,1.7-0.1,2.1-1.1,4.3c-0.1-0.2-0.2,0-0.4,0.7l-0.2,1.4
							c-0.6,1.5-0.6,0.7-0.9,0.7c-0.3,0.8-0.6,1.8-0.6,2.2l-0.7,0.9c0.5-0.6-0.1,0.7-0.2,1.1l0.1-0.4c-0.2,0.1-0.5,1-0.6,1.5
							c0.2-0.1,0.6-1,0.9-1.5c-0.1,0.4-0.3,1.1-0.4,1.6c-0.2-0.3-0.7,1.2-0.9,1.8c-0.3,0.7-0.1,0.9-0.2,1.1c-0.1,0-0.5,1.2-0.4,0.5
							c0.1-0.3,0.3-0.5,0.4-1c-0.3,0.4-0.5,0.3-0.7,1.4c-0.2,0.8,0.5,0-0.2,1.3c0.1-0.4,0-0.5,0.1-0.8l-0.6,1.3l0.2,0.1
							c-0.1,0.2-0.1,0-0.2,0.1c0.1,0.5-0.7,2-0.6,2.4c-0.2,0.7-0.7,1.3-1,2l0-0.1c-0.4,0.7-0.8,1.8-0.9,2.5l0-0.1
							c-0.2,0.4-0.6,1.4-0.7,2c-0.6,1-0.9,0-1.2,1.3c-0.4,1.1-0.3,1.9,0,1.5c-0.9,1.9-1.5,4.2-2.6,5.9c0,0.3,0.1,0.2-0.1,0.8
							c-1.2,2.8-2.3,6.1-3.6,8.2c0.3-0.9-0.2-0.1-0.3-0.2c-0.1,0.8-0.5,0.7-0.3,1.1c0.2,0,0.3,0.1,0.7-0.7c-0.6,1.7-1.7,4.3-2.3,5.2
							c0.3-0.4,0.2,0,0.1,0.3c-0.2-0.3-0.8,1-1.1,2l0.1,0.2l-0.4,0.5c-0.1,0.4,0.2,0.6-0.4,1.4c-0.1,0-0.2,0-0.3,0.2
							c-0.3,1-0.6,2.5-1.3,3.5l-0.6,0.8c-0.2,0.5-0.3,1.3,0.1,0.5c-0.9,1.7-1.5,2.9-2,3.4c-0.8,3.4-2.8,7.9-4.5,11.4l-0.1-0.2
							c-0.6,0.9,0,0.6-0.4,1.2c0-0.4-0.6,0.6-0.4-0.2c-0.8,1.3-0.6,1.9-0.9,2.8c0.1,0.2,0.2-0.8,0.4-0.5c0,0.2-1,1.8-0.8,2.2
							c-0.3,0.3-0.3-0.1-0.4-0.3l-0.3,0.9c-0.8,0.9,0.5-2.6-0.4-1.7l-0.3,0.8c-0.6,0.6,0.6-2.2-0.4-0.3c-0.3,0.9-0.2,1.8,0.3,1.1
							c-0.7,1.8,0.3,1.1-0.6,3c-0.4,0.4,0.7-1.5,0.3-1.3c-0.6,0.8-0.7,1.8-1.1,2.6c0.5-0.8,0.4,0,0.2,0.6c-0.6,0.9,0-0.7-0.6,0.6
							c0,0.3-0.4,1.6,0.2,0.6c0.1,0.7-0.8,1.4-0.8,2.2c-0.4,0.3,0.1-1.7-0.7-0.2c0.3-0.1-0.5,2,0.2,1.4c-0.3,0.6-0.6,0.5-0.5,0
							c-0.5,0.8-0.5,2.2-1.1,2.3l0.1,0.4c-0.2,0.2-0.4,0.6-0.8,0.9c-0.3,0.7-0.8,2.5-1.1,2.3c-0.1,0.3-0.9,1.9-0.3,1.4
							c0.6-1,0.4-1.3,1-1.7c-0.6,0.6-0.7,1.5-0.9,2.2l-0.2,0c-0.1,0.4-0.5,1.2-0.5,1.5c0-0.3-0.1-0.2-0.3,0.1l0,0.5
							c-0.6,1.5-0.5,0.2-1.1,1.6l0.3-1.2c-0.1,0.3-0.5,0.6-0.8,1.4c0.1,0.4,0.1,1,0.1,1.3c-0.3,0.8-0.4,0.3-0.6,1.1l0.3-1.1
							c0-0.2-0.6,0.5-1.1,1.6c-0.3,0.7-0.5,1.9,0.1,0.9c-0.3,0.5-0.7,1.2-0.7,0.7c-0.5,1.2,0.3-0.1-0.1,1c-0.3,0.4-1.1,1.6-1.7,2.3
							l0.2-1.2l-0.3,0.7c0.2-1.1-0.4,0.4-0.4-0.3c-0.3,0.5-0.5,1.1-0.6,1.6c1.1-1.2-0.2,1.9,0.4,1.7c-0.8,2-1.6,0.8-1.9,3.1
							c0.3-0.3,0.1,0.8,0.6-0.5c-0.6,1.2,0,1-0.9,2.4c0.4-1.2-1,1-0.4-0.7c0.1,0.2,0.5-0.8,0.6-1.1c-0.4,0.4-0.4-0.3-1,1
							c-0.3,0.8-0.8,1.8-0.5,1.8c0.2,0.1,0.5-1.2,0.5-0.6c-0.7,1.6-1.1,1.7-1,2.5c0.4-1,0.8-1.1,0.9-1l-0.4,1.2l0-0.3
							c-1,1.8,0,0.7-0.9,2.4l-0.7,0.7c-0.1-0.5,1.3-2.5,0.8-2.4c-0.6,1.1-0.5,1.6-1.2,2.6c0.1-0.3,0.2-0.6,0.3-0.8
							c-0.2,0.4-1,0.5-1.4,2.3c-0.3,0.9,0,0.3,0.2,0.4c-0.8,1.8-0.9,2.5-1.5,3.7c-0.2-0.4-1,2.1-0.7,0.6c0.5-0.5,1.7-3.2,1.8-3.9
							c-0.7,0.5,0.7-1.4,0.6-2c-0.7,1.5-1,1.2-1.4,1.3c-0.2,0.4-0.3,0.8-0.4,1.1c0.1,0.3,0.4-0.3,0.6-0.2c-0.9,1.6-1.5,3.2-1.7,4.2
							c-0.4,0.5-0.5,0.2-0.2-0.4c-0.9,2-1.9,4-2.9,5.8c0.9-1-0.9,2.1-0.2,1.4c0.6-0.9,1.2-1.7,1.1-1.1c-0.3,0.6-0.1-0.1-0.3,0.1
							c-0.2,0.9-0.9,1.1-1,2c0.7-1.8-0.3-0.6-0.4-1c-0.5,1.4-0.2-0.2-0.8,1.1c-0.5,1.4-1.1,3-1.7,4.4c-1.1,1.6-2.2,4.5-3,6.1
							c-0.5,0.8-0.6,0-1.1,0.9c-0.5,1.1,0.7-0.6-0.2,0.9l0-0.2c-0.2,0.5-1.6,2.8-1.4,3.5l-0.1-0.7c-0.2,0.3-0.2,0.6-0.3,0.8
							c-0.1,0-0.4,0.2-0.2-0.3c-0.7,0.8-1,2-1.5,3.1l0.5-0.6c-0.7,1.9-1.5,3-2.3,4.8l-0.2-0.1l-0.4,1.1c-0.1-0.3-0.7,0.5-0.8,1.2
							l0.8-2.9c0.5-0.7-0.2,0.9,0.3,0.6c0.4-0.3,1.1-1.9,1-2.3c-0.3,0.6-0.3,0.7-0.5,1.2c-0.4,0.1,0.1-0.9,0.1-1.4
							c-0.1,0.3-0.5,0.7-0.4,0.9c0.2-0.7,0.5-1.3,1-2.4c-0.2,0.8,0.4-0.3,0.3,0c-0.2-0.2,0.2-1.2,0.9-2.5c0.7-0.8,1-2.5,1.8-4
							c-0.1,0.7-0.2,1.6-0.6,2.6c0.6-0.9,0.5-1.1,1.1-2c0-0.5-0.1-1,0.4-2.3l0.2,0c0.5-1.2,0.2-1.3,0.9-2.7c1.3-2.4,2.5-4.9,3.5-6.8
							l0.2,0c0.1-1.2,1.5-3.5,2-5c1.3-2.3,2.3-5.3,3.2-6.3c1.9-4.3,3.5-8,5.7-12.4l-0.1,0.9c0.2-0.9,0.4-0.4,0.7-1.2
							c-0.6,0.8,0.2-1.2,0.3-1.8c1.1-1.8,2.1-4.5,2.7-6.3l0.2,0c0.5-1.9,1.8-3.9,2.8-6c0.2-0.2,0.6-0.5,0.8-1.2
							c0.3-1.3,0.6-1.9,1.2-3.7c0.6-1.3,1.6-3.3,2.3-4.5c1.8-5,4.3-9.7,6.3-14.8l0.4-0.3c1.7-5,4.8-10.8,6.4-15l0.2,0.6
							c0.7-1.2,1.2-3,0.8-2.8c0.7-1.3,1.2-3.3,1.9-4c0.7-1.3,0.5-1.7,1-2.8c1.3-2.6,1.7-3.6,2.7-6.2l-0.3,0.6c0,0.3,0.1,0.4,0.4-0.2
							c0.3-1,1.6-3.4,0.7-2.7c1.4-2.6,2.5-6.4,3.9-8.9c-0.2,0.2,0-0.5,0.1-0.8c1-2.4,2.2-4.8,2.8-6.8c0.2-0.4,0,0.7,0.4-0.3
							c0.2-0.6-0.2-0.1,0.1-0.8c1.3-3.9,3.3-7.7,4.7-11.3c0.6-1.6,1.1-3.2,1.7-4.8c0.6-1.6,1.2-3.2,1.8-4.8c1.2-3.2,2.4-6.3,3.5-9.4
							l0.1,0.1c0.4-2.2,2-4.6,2.1-6.4c0.3-0.4,0.7-1.8,0.7-1.4c0.3-1.7,1.8-4.5,2.3-6.9c-0.1,0.2-0.1,0.3-0.2,0.6
							c1-2.3,1.4-4.5,2.4-6.9c0,0.3-0.2,0.7-0.1,0.8c0.5-0.9,0.4-2.4,1-2.8c0.2-0.6-0.1-0.5-0.2-0.1c1-2.7,1.9-5.6,2.8-8.5
							c0.8-2.9,1.6-5.9,2.5-8.8c1.5-4,0.8,0,1.5-3.4c0.2-0.2-0.1-0.2,0-0.3c0.3-1.3,1.1-1.8,1.1-2.8c-0.4,0.3,0-0.6-0.2-0.7
							c0.9-2.5,1.3-2.9,1.7-5l0.1,0.2c0.3-2.5,1.2-5.1,1.3-7.2c1.7-6.5,3.3-13,5.3-19.3c1-3.2,2.2-6.3,3.5-9.4
							c1.3-3.1,2.9-6.1,4.7-9c3.5-5.6,7.4-10.8,11.2-16.1c3.7-5.2,7.1-10.6,10.3-16.3c1.7-2.5,1.8-2.8,3.2-5.8
							c0,0.1-0.1,0.3,0.1,0.2c-0.2-0.3,0.9-2.2,0.8-2.6c1-2.2,2-4.3,2.8-6.5c0.8-2.2,1.7-4.4,2.4-6.7c-0.2,0.8-0.1,1.2,0.2,0.3
							l0.1-1l0.1-0.1c0.2-0.6,0.2-1.3-0.1-0.7c3.7-11.9,6.6-23.9,7.4-36.1c0.2-1.4,0.3-3.2,0.3-5c0-1.8,0.1-3.6,0-5.2
							c0.4-9.3,0-17.9-2-27.2C557.7,34.1,558.7,35.2,559.6,39.1z"/>
						<path class="st1" d="M414.6,428c0.3-0.2,0.9-1.2,0.7-0.3C415,427.8,414.6,428.2,414.6,428z"/>
						<path class="st1" d="M429,402.4c0-0.1,0.2-0.3,0.3-0.4c-0.1,0.3-0.2,0.7-0.4,0.9C429.1,402.6,429,402.6,429,402.4z"/>
						<path class="st1" d="M432.4,395.7c0.1,0.2-0.5,1.7-0.9,2.5L432.4,395.7z"/>
						<path class="st1" d="M436,389.6c0.4-0.5,0.4-0.3,0,0.4C435.9,390.1,435.9,389.8,436,389.6z"/>
						<path class="st1" d="M435.9,389.1c0.2-0.5,0.5-0.7,0.6-1C436.4,388.1,436,389.3,435.9,389.1z"/>
						<path class="st1" d="M442.8,375.5c0.1-0.3,0.4-1.1,0.7-1.3C443.2,374.5,442.9,375.9,442.8,375.5z"/>
						<path class="st1" d="M445.6,369c0.1-0.2,0.2-0.3,0.2-0.5c0.2-0.3,0.1,0.1,0,0.4L445.6,369z"/>
						<polygon class="st1" points="494.8,250.2 494.6,250.9 494.5,250.8 						"/>
						<path class="st1" d="M511.4,196.3c0.1-0.8,0.3-0.5,0.3-0.6C511.5,196.4,511.6,195.4,511.4,196.3z"/>
						<polygon class="st1" points="520.9,167.7 520.8,167.9 520.6,167.7 						"/>
					</g>
				</g>
			</g>
		</g>
	</g>
</g>
</svg>
