<?xml version="1.0" encoding="utf-8"?>
<!-- Generator: Adobe Illustrator 22.0.1, SVG Export Plug-In . SVG Version: 6.00 Build 0)  -->
<svg version="1.1" id="圖層_1" xmlns="http://www.w3.org/2000/svg" xmlns:xlink="http://www.w3.org/1999/xlink" x="0px" y="0px"
	 viewBox="0 0 600 650" style="enable-background:new 0 0 600 650;" xml:space="preserve">
<style type="text/css">
	.st0{fill:#E9D7BE;}
	.st1{fill:#3A302E;}
</style>
<g>
	<g>
		<path class="st0" id="flagArea" d="M259.2,99.9c0,0,134.4,60.7,276.3-51.3c0,0-34.7,180.8,64.9,262.2c0,0-199.2,137.3-395.3,37.7
			C205,348.6,311.8,214.9,259.2,99.9z"/>
		<g>
			<g>
				<g>
					<g>
						<path class="st1" d="M262.2,100.6c-4.3-1.7,2.2,1.2-2.8-1C260,99.7,260.8,100,262.2,100.6z"/>
						<path class="st1" d="M264.5,114.3c2.8,6.9,5.1,15.2,6.6,23.9c1.5,8.7,2.3,17.6,2.7,25.7c0,1-0.1,0.8-0.2,1
							c-0.1,0.2-0.2,0.7-0.1,2.8c0.4,7.9-0.1,18.1-1.6,28.6c-1.5,10.5-3.9,21.3-6.6,30.5l0.2-1.2c-1,3.5-1.8,7.9-3,11.6
							c-0.1,0,0.3-1.2-0.1-0.4c0,1-2,6.7-2.4,8.3c-0.6,1.4-0.7,1.2-1.5,3.1l-0.5,2.2c-1.5,6-5.3,14-8.4,21.8
							c0.1-0.4,0.4-1.2,0.1-0.6c-2.5,6.3-5.7,13.2-9.2,20.2c-3.5,7-7.3,14-11.1,20.6c0.2-0.6,0.4-1.1-0.2-0.4
							c-0.1,0.8-2.4,4.9-4.5,8.3c-1.2,1.4-3.5,6-6.2,9.9l0.2-0.4c-1.7,3.1-3,4.2-4.4,6.8l-1.5,1.7c-0.5,1.5-3.1,4-4.7,6.5l0.1,0
							c-0.6,0.8-1.1,1.6-1.6,2.1c-0.4,0.5-0.8,1-1.3,1.6c0.3,0.2,0.8,0.4,1.3,0.6l0.2,0.1c0.6,0.3,1.3,0.6,1.8,0.9
							c0.6,0.3,1.2,0.6,1.7,0.8c1,0.5,1.9,0.9,2.6,1.3c1.4,0.7,2.2,1,2.2,0.8c0.9,0.5-0.4,0-1.6-0.5c-1.2-0.5-2.2-1-0.8-0.1
							c8.9,4,18.1,7.9,27.4,11.3c9.3,3.4,18.8,6.5,28.3,9.1c2.1,0.7,3.5,1.1,4,1.3c1.9,0.4,7.2,1.8,9,2c-0.6-0.1,1.2,0.4,2.2,0.7
							c1.7,0.5,2.7,0.6,3.7,0.7c1,0.1,2.1,0.2,4,0.7c-1.6-0.2-2.1-0.2-1.6,0c1.7,0.2,3.6,0.5,5.6,0.9c2,0.4,4.1,0.7,6.1,1
							c-0.6,0-1.6-0.2-1.4-0.1c2.2,0.2,4.1,0.6,6,0.9c1.9,0.3,3.7,0.6,5.6,0.8l-1.4,0c6,1,1.8-0.1,7.1,0.7c-1.3-0.1-0.8,0-1.1,0.1
							c2.5,0.1,5.7,0.5,8.9,0.7c3.2,0.2,6.4,0.6,8.9,0.6c-0.3,0-0.2,0.1-0.2,0.1c2.7,0.1,5.4,0.4,8.2,0.5c2.8,0.1,5.7,0.2,8.6,0.2
							c2.1,0.1-0.7,0.4,5,0.4c-0.2-0.3,9.6-0.2,6.3-0.6c2.4,0,5.6,0,8.5-0.1c2.9-0.1,5.6-0.2,7.3-0.3c-2.2,0.3,2.4,0.3-1.6,0.6
							l3.1,0.1c-0.4,0.2-3.1,0.1-2.2,0.3c2-0.1,7.9-0.6,9.7-0.7c1.9-0.3,3.6-0.6,5.7-0.9c2.1-0.3,4.4-0.7,7.4-1
							c-2.8,0.4,1.7,0.2-0.3,0.5l8.3-1.7c2-0.3,0.5,0.2,3.3-0.3c-0.2-0.1,1.1-0.3,2-0.5c0.8,0,8.3-1.3,9.2-1.1c0.9,0-3.2,0.6-1,0.4
							c3.7-0.6,3.8-0.8,7.5-1.4l0.1,0c2.4-0.4,7.1-1.5,4.4-1.2c-1.7,0.3,0.7,0.1-1.8,0.5c1.7-0.5,5.9-1.4,9.5-2.2
							c-1.2,0.3-1.1,0.4-1.5,0.6c2.4-0.7,4.9-1.3,7.5-1.9c2.6-0.7,5.2-1.3,7.9-2c0-0.2-1.9,0.8-2.8,0.9c7-1.4,14.2-3.9,20.1-5.2
							c-0.9,0.3-0.6-0.1-0.5-0.1c3.3-0.9,3.2-0.6,5.4-1.4c0.3,0.1,2.7-0.9,4.9-1.6c1.1-0.4,0.6-0.1-1.3,0.5c3.1-1,15.3-5.1,22.3-7.5
							c-0.2,0,4.2-1.9,5.8-2.5l-0.5,0.4c1.5-0.4,5.4-2,5.7-2c1.7-0.8-1.6,0.5-4.7,1.8c-3.1,1.2-6.1,2.4-3.8,1.4
							c1.3-0.2,6.3-2.7,5.4-2.1c3.2-1.2,6.2-2.7,9.3-3.7c-0.9,0.3-2.5,1.3,0.1,0.3c4.5-1.9,1.2-0.6,4.9-2.2l2.3-1
							c0.1-0.3,4-1.7,2.3-1.2c0.6,0,6.5-2.9,6.2-2.4l-0.5,0.5c1.9-0.9,3-1.7,4.5-2.5c0.3-0.1,0.8-0.3,0.7-0.2c0.1-0.5,4.6-2,6.7-3.4
							c4.1-1.7,10.1-4.8,12.1-5.6c3-1.6,5.7-3.2,9.1-4.9c-0.7,0.4-1.6,0.9-1.7,1.1c2.2-1,2.7-1.4,4.6-2.5c-0.4,0.3,4.4-2.1,6.9-3.3
							c2.9-1.8,1.8-1.4,2-1.7c2.9-1.1,8.1-5,11.6-6.7c-1,0.7-4.1,2.7-1.6,1.4c1.4-0.6,2.7-1.5,4.2-2.5c1.4-1,3.5-2.5,4.5-3.1
							c-0.4,0.1-0.7,0.2-1,0.2c0.1-0.1,0.3-0.1,0.4-0.2c0.1,0,0.2-0.1,0.2-0.1l0.1-0.1c0,0-0.1-0.1-0.1-0.1
							c-0.3-0.2-0.6-0.5-0.9-0.7c-0.3-0.2-0.5-0.4-0.7-0.6c-0.2-0.2-0.5-0.4-0.6-0.5c-0.3-0.3-0.5-0.5-0.3-0.5
							c-1.4-1-4.3-4.1-4.1-3.4c-1.5-1.4-3-3.1-4.7-4.8c-1.6-1.7-3.3-3.5-4.8-5.2c-1.5-1.8-3-3.4-4.2-5c-1.2-1.6-2.2-2.9-2.8-4
							c-0.8-0.9-2.5-3.3-2.3-2.7c1,1.7,1.8,2.1,2.1,2.8c-0.6-0.8-0.9-1-1-1c-1.5-2.1-2.7-3.7-1-2c-1.6-2.3-2.6-3.5-3.7-4.7
							c-1.1-1.3-2.3-2.7-4.2-5.8c0.3,0.2,0-0.3-1.1-2.1l-2.3-3.3c-2.3-4.1-1-2.5-0.9-2.7c-1.3-2.1-2.7-4.9-3.4-5.8
							c-0.4-0.9-0.8-1.9-1.1-2.8c0.8,2.1-1-1.8-1.6-2.8l0.6,1c-0.1-0.5-1.4-3-2.1-4.4c0,0.2,0.3,1,0.7,1.9c0.4,0.9,0.9,1.9,1.2,2.7
							c-0.7-1.1-1.5-2.9-2.3-4.4c0.5,0.4-1.6-3.8-2.3-5.6c-0.8-2.1-1.2-2.3-1.5-2.9c0.1-0.1-1.3-3.5-0.5-1.9
							c0.3,0.7,0.5,1.7,1.1,2.9c-0.5-1.4-0.2-1.4-1.5-4.2c-1-2.2-0.3,0.7-1.7-3.5c0.5,1.1,0.6,1.3,1,2.1c-0.5-1.3-0.9-2.6-1.3-4
							l-0.3-0.1c-0.1-0.5,0-0.2-0.1-0.4c-0.7-1.1-2.1-6-2.7-6.8c-0.7-2-1.2-4.3-1.7-6.2l0.1,0.4c-0.6-2.4-1.6-5.5-2.2-7.5l0.1,0.1
							c-0.3-1.3-1.2-4.4-1.7-6c-0.6-3.3,0.5-1.3-0.6-4.9c-0.8-3.4-1.5-5.2-1.4-3.8c-1.2-6.1-2.7-13-3.2-18.7
							c-0.2-0.9-0.2-0.3-0.5-2.1c-1.2-9-2.6-19.1-2.6-26.3c0.3,2.6,0.2,0.2,0.4,0.1c-0.4-2.2,0-2.6-0.4-3.4c-0.2,0.2-0.3,0-0.2,2.6
							c-0.5-5.4-0.8-13.6-0.7-16.7c-0.1,1.5-0.1,0.3-0.2-0.8c0.3,0.4,0.3-3.6,0.1-6.6l-0.2-0.4l0.2-2c-0.1-1.2-0.4-1.3-0.2-4.3
							c0.1-0.2,0.2-0.3,0.2-0.9c-0.1-3.1-0.3-7.5-0.1-10.9l0.4-2.8c0-1.4-0.1-3.9-0.2-1.3c0.4-5.8,0.7-9.5,1-11.3
							c0-10,1.4-24.4,3.2-35.9l0.1,0.4c0.6-3,0-1.9,0.2-2.5c0.1,0.1,0.2-0.1,0.3-0.3c0.1-0.2,0.2-0.4,0.2,0.1
							c0.2-0.8,0.3-1.3,0.3-1.7c0,0,0,0,0,0l-0.1,0.1l-0.1,0.1c-0.1,0.1-0.2,0.2-0.3,0.2c-0.1,0.2-0.3,0.3-0.4,0.4
							c-0.3,0.3-0.5,0.5-0.7,0.7c0,0.1,0.1,0,0.2-0.1c0.1-0.1,0.3-0.3,0.2,0c0,0-0.1,0.1-0.2,0.2c-0.1,0-0.1,0.1-0.2,0.1
							c-0.2,0.2-0.5,0.4-0.8,0.6c-1.3,0.9-2.5,1.9-2.7,2.2c-1,0.6-0.4-0.1,0-0.6l-2.1,1.8c-2.9,1.7,5.7-5.1,2.7-3.3l-2,1.5
							c-2.1,1.2,5.1-4.3,0-0.6c-2.1,1.8-3.7,3.5-1.7,2.1c-4.5,3.5-1.7,2.2-6.7,5.6c-1.5,0.8,4-2.8,2.9-2.3c-2.5,1.4-4.7,3.4-6.9,4.8
							c2.4-1.5,0.6,0.1-0.9,1.2c-2.7,1.6,1.5-1.4-2.1,1.1c-0.5,0.6-3.8,2.9-0.8,1.1c-1.1,1.3-4,2.4-5.8,3.9
							c-1.4,0.5,3.5-2.9-0.7-0.5c0.8-0.2-4.9,3.4-2.5,2.4c-1.7,0.9-1.9,0.9-0.8,0c-1.2,0.6-2.5,1.6-3.7,2.4
							c-1.2,0.8-2.2,1.4-2.7,1.4l-0.7,0.7c-0.8,0.3-1.9,0.9-3.2,1.4c-2.1,1.2-6.6,4.1-6.6,3.6c-0.6,0.5-5.6,2.8-3.5,2.1
							c1.6-0.7,2.4-1.2,3.1-1.5c0.7-0.4,1.2-0.7,2.1-1c-2.2,0.9-4.3,2.3-6,3.3l-0.4,0c-1,0.6-3.5,1.7-4,2.2c0.8-0.5,0.3-0.4-0.6,0
							l-1,0.8c-2.1,1.1-2.4,1.1-2.7,1.2c-0.3,0-0.5,0-2.7,1c1-0.5,2.1-1,3.1-1.6c-0.7,0.4-2.2,0.8-4.2,1.8c-0.7,0.5-2.1,1.4-2.7,1.9
							c-2.4,1.1-1.2,0.2-3.4,1.5l3-1.6c0.4-0.3-2.2,0.6-5.4,2c-2,1-5.1,2.4-1.8,1.3c-1.6,0.6-4,1.4-2.7,0.7c-3.7,1.5,0.6,0-2.6,1.4
							c-0.7,0.2-2.1,0.6-3.6,1.1c-1.5,0.5-3.2,1-4.5,1.3c1.1-0.5,2.2-1,3.2-1.6c-0.7,0.3-1.5,0.6-2.2,0.8c2.8-1.3-1.5,0.3,0-0.5
							c-1.5,0.5-3.4,1.2-4.8,1.8c4.6-1-4.8,2.3-3.4,2.3c-3.1,1.1-4.1,1.2-5.2,1.2c-1.1,0.1-2.1,0.3-5.3,1.5c1.1-0.2-1.9,1,2-0.2
							c-3.9,1.1-2.5,1.2-7.2,2.3c3.4-1.1-3.8,0.6,1.1-1c-0.3,0.2,2.8-0.7,3.5-0.9c-1.6,0.3,0.2-0.5-3.8,0.6
							c-2.4,0.7-5.8,1.5-5.2,1.6c0.2,0.2,3.7-0.9,2.2-0.3c-4.9,1.2-5.8,1.1-7.7,2c3.1-0.8,3.9-0.7,3.9-0.5l-3.6,1l0.7-0.3
							c-2.9,0.6-3.3,0.8-3.7,1c-0.4,0.2-0.8,0.3-3.6,0.9l-2.7,0.2c1.3-0.5,8.2-1.4,7.1-1.7c-3.7,0.7-4.8,1.2-8.3,1.7
							c0.8-0.2,1.8-0.4,2.6-0.6c-0.7,0.1-1.3,0.1-2.5,0.2c-0.6,0.1-1.3,0.1-2.2,0.3c-0.9,0.2-1.9,0.4-3.2,0.7
							c-2.7,0.5-0.7,0.3-0.7,0.5c-3,0.5-4.9,0.8-6.5,1.1c-0.8,0.2-1.6,0.3-2.4,0.4c-0.8,0.1-1.6,0.2-2.6,0.3
							c0.7-0.4-6.8,0.7-2.6-0.1c1,0,3.6-0.2,6.3-0.6c2.6-0.4,5.3-0.9,6.3-1.2c-2.2-0.1,4.7-0.6,5.8-1.3c-2.3,0.5-3.5,0.5-4.2,0.5
							c-0.7,0-0.8-0.2-1.2-0.2c-1.3,0.2-2.6,0.5-3.3,0.6c-0.5,0.3,1.2,0.1,1.3,0.3c-2.6,0.3-5.2,0.8-7.5,1.1
							c-2.3,0.3-4.3,0.6-5.8,0.9c-1.8,0.1-1.3-0.2,0.8-0.5c-1.6,0.2-3.2,0.4-4.8,0.6c-1.6,0.1-3.3,0.2-4.9,0.3
							c-1.6,0.1-3.2,0.2-4.8,0.3c-1.6,0.1-3.1,0.1-4.6,0.1c3.9,0.3-6.7,0.3-4.1,0.6c3.2,0,6,0.2,4.3,0.4c-2,0,0.1-0.2-0.8-0.2
							c-2.6,0.3-4-0.2-6.5,0.2c5.8-0.3,1.1-0.5,2.2-0.8c-4.2,0.3,0.2-0.2-4-0.2c-2.1,0.1-4.4,0.1-6.8,0.2c-2.4,0-4.8-0.1-7.1-0.1
							c-2.9-0.2-6.6-0.6-10.2-0.8c-3.6-0.2-7.1-0.6-9.7-0.9c-2.7-0.5-0.8-0.6-3.7-1.1c-3.4-0.5,2.5,0.7-2.6-0.1l0.5,0
							c-1.6-0.1-9.2-1.7-10.8-1.5c0.5,0,1.1-0.1,1.6-0.1c-0.9-0.2-1.8-0.3-2.6-0.4c0-0.1-1.1-0.5,0.5-0.2c-3-0.9-6.5-1.2-9.9-2
							l2.1,0.7c-2.9-0.6-5.3-1.1-7.6-1.7c-2.4-0.6-4.7-1.3-7.4-2l0.2-0.2c-1.1-0.2-2.2-0.6-3.3-0.8c0.9,0-2.1-1-3.8-1.4
							c1.4,0.4,2.8,0.7,4.3,1.1c1.4,0.4,2.9,0.7,4.3,1c2.3,0.8-2.6-0.5-1.2,0.2c0.6,0.3,2.2,0.7,3.7,1.1c1.5,0.4,3,0.7,3.5,0.7
							c-1.9-0.5-2.1-0.5-3.6-0.8c-0.6-0.5,2.4,0.3,3.9,0.5c-1-0.2-2.5-0.7-2.7-0.7c2,0.3,4.1,0.9,7.4,1.6c-2.3-0.4,1.2,0.5,0.3,0.4
							c0.3-0.2,3.5,0.5,7.7,1.3c2.9,0.9,7.9,1.3,12.8,2.1c-2,0-4.6-0.2-7.6-0.6c3,0.6,3.4,0.6,6.5,1.2c1.5,0,2.6-0.2,6.6,0.3
							l0.2,0.2c3.7,0.3,3.7,0,8.3,0.5c7.9,0.8,16.1,1.2,22.2,1.2l0.2,0.2c1.7-0.2,4.5-0.2,7.5-0.3c3-0.1,6.1-0.2,8.4-0.3
							c3.9-0.1,8.1-0.5,11.8-0.8c3.7-0.4,7-0.8,9-0.8c6.8-1,13.1-2,19.4-3.4c1.6-0.3,3.2-0.6,4.8-1c1.6-0.4,3.2-0.8,4.8-1.2
							c3.2-0.8,6.6-1.5,10-2.5l-2.2,0.9c2.4-0.9,1.6-0.3,4-1c-2.8,0.6,3.2-1.2,4.9-1.9c0.8-0.2,1.6-0.4,2.4-0.6
							c0.8-0.3,1.6-0.5,2.4-0.8c1.6-0.5,3.3-1.1,5-1.7c1.7-0.6,3.3-1.2,4.8-1.8c1.5-0.6,2.9-1.3,4.2-1.8l0.3,0.1
							c2.6-1.2,5.5-2.3,8.5-3.5c3-1.3,6.2-2.6,9.5-4c0.4-0.1,0.9-0.3,1.5-0.5c0.7-0.2,1.4-0.5,2.4-1c3.3-2,5.1-2.9,10-5.5
							c0.9-0.4,2-1,3.1-1.6c1.1-0.6,2.3-1.2,3.5-1.9c2.4-1.3,4.8-2.5,6.6-3.5c0.8-0.5,1.7-1,2.5-1.5l2.4-1.6c1.6-1,3.3-2.1,4.9-3.1
							c1.6-1.1,3.3-2,4.9-3.1c1.6-1.1,3.2-2.2,4.8-3.3c1.6-1.1,3.2-2.2,4.9-3.3l2.4-1.7c0.8-0.6,1.6-1.2,2.4-1.8
							c3.7-2.9,7.5-5.7,11.2-8.6l1.3-0.7c0.2-0.2,0.4-0.3,0.7-0.5l0.3-0.3c0.1-0.1,0.3-0.2,0.3-0.2c-0.2,1.5-0.5,3-0.8,4.5
							c-0.1,0.8-0.2,1.6-0.4,2.3c-0.1,0.7-0.2,1.4-0.3,2c-0.3,2-0.5,4-0.8,6c-0.5,4.1-1,8.2-1.5,12.2c-0.9,8.1-1.5,16-1.7,22.5
							l-0.3-1.3c-0.4,4.1-0.3,9.5,0,8.4c-0.3,4.2-0.1,10.4-0.5,13c-0.1,4.3,0.2,5.2,0.2,8.7c0,8.5,0.1,11.7,0.6,19.7l-0.1-2
							c-0.1-0.9-0.3-0.9-0.2,1.1c0.1,1.5,0.3,4.2,0.4,6.2c0.2,2,0.3,3.3,0.5,1.7c0.2,4.3,0.7,9.3,1.3,14.2c0.6,4.9,1.3,9.8,1.7,14
							c0-0.7,0.4,1.4,0.6,2.2c1.2,7.4,2.5,15.2,4.1,21c0.2,1.2-0.7-1.8,0,1.2c0.5,1.7,0.2,0,0.8,2.1c3.1,11.7,6.5,23.8,10.7,34
							c3.8,9,8.2,18.1,13.3,26.6c5.1,8.5,10.7,16.6,16.8,23.7l-0.2-0.1c1.1,1.1,2.2,2.4,3.4,3.7c1.2,1.3,2.4,2.6,3.6,3.9
							c1.2,1.3,2.4,2.5,3.6,3.6c1.1,1.1,2.3,2,3.3,2.8c1,1.1,4.2,3.8,3.3,3.2c0.3,0.2,0.5,0.4,0.8,0.6c0.5,0.4,0.9,0.8,1.4,1.2
							c0.5,0.4,1,0.9,1.5,1.3c0.3,0.2,0.5,0.5,0.8,0.7c-0.3,0.2-0.6,0.4-0.9,0.6c-0.6,0.4-1.2,0.8-1.9,1.2c-0.6,0.4-1.1,0.7-1.7,1.1
							c-0.8,0.5-1.6,1-2.4,1.5c-3.3,2-6.8,4.1-9.9,6.1c0.6-0.3,0.9-0.5,1.6-1c-6.5,3.6-12,7-19,10.5c0.7-0.4,1.9-1.1,2.1-1.3
							c-2.7,1.2-6.1,3.7-7.8,4c-1.5,0.8-1,0.8,0,0.3c-15.3,7.6-31.9,15.3-48.4,21.8c-6,2.1-6.3,2-6.2,1.8c0.1-0.2,0.5-0.4-4.1,1.5
							c-0.8,0.2-0.5,0.4-0.7,0.3c-3.6,1.4-5.9,1.5-8.4,2.6c1.1-0.1-1.7,0.7-1.7,0.9c-7.5,2.3-9,2.5-14.8,4.5l0.4-0.3
							c-6.8,2.5-14.9,4.5-20.7,6.4c-19.3,4.9-38.5,8.5-57.7,10.7c-19.3,2.2-38.6,3-58,2.2c-9.6-0.5-19.1-1.3-28.6-2.4
							c-9.5-1.2-18.9-2.8-28.2-4.8c-9.3-2-18.6-4.4-27.8-7.2c-9.2-2.8-18.3-6.1-27.3-9.8c-4.1-2-6.4-3-8.7-4
							c-2.3-1.1-4.8-2.1-9.4-4.2c0.4,0.1,1,0.4,0.4,0c-0.3,0-1.9-0.7-3.5-1.5c-0.8-0.4-1.7-0.8-2.3-1.1c-0.5-0.2-0.9-0.4-1.3-0.6
							c-0.5-0.2-0.8-0.4-1.1-0.4c-0.9-0.5-1.8-0.9-2.7-1.3c1-1.3,2.1-2.6,3-3.9c0.5-0.7,1-1.4,1.5-2.1c1-1.4,2-2.7,3-4.1
							c1.9-2.7,3.8-5.4,5.7-8.2c3.7-5.5,7.3-11.2,10.9-17.3c-1.2,2-1.5,3.1-0.1,0.8l1.3-2.6l0.3-0.4c0.9-1.6,1.8-3.5,0.7-1.9
							c9.1-16,17.3-32.4,24.2-49.3c6.8-16.8,12.3-34.2,15.6-51.9c0.8-4.2,1.7-9.3,2.3-14.6c0.6-5.2,1.1-10.6,1.2-15.2
							c0.9-13.7,0.4-26.9-1.8-39.9c-2.2-13-6-25.7-11.9-38.4c0,0,0.6,0.7,1.7,2.8c0.6,1,1.3,2.4,2.1,4.2c0.4,0.9,0.8,1.9,1.3,3
							C263.5,111.7,264,112.9,264.5,114.3z"/>
						<path class="st1" d="M267.4,102.5c0.9,0.5,3.9,1.6,1.4,1C268.5,103.2,267,102.5,267.4,102.5z"/>
						<path class="st1" d="M352,117.4c0.1,0,1.2,0.1,1.5,0.1c-1.1,0-2.1,0.1-2.9,0.1C351.7,117.6,351.5,117.5,352,117.4z"/>
						<path class="st1" d="M374.1,116.5c-0.3,0.2-5,0.6-7.8,0.8L374.1,116.5z"/>
						<path class="st1" d="M394.7,114.6c1.8-0.1,1.3,0-1.1,0.4C393.4,114.9,394.2,114.7,394.7,114.6z"/>
						<path class="st1" d="M396.1,114c1.7-0.2,2.5-0.4,3.4-0.4c0-0.1-1,0.2-1.9,0.3C396.6,114.1,395.8,114.2,396.1,114z"/>
						<path class="st1" d="M439.6,103.5c1-0.4,3.2-1.2,4.2-1.4C442.7,102.4,438.9,104,439.6,103.5z"/>
						<path class="st1" d="M459.1,96c0.6-0.3,0.9-0.3,1.6-0.7c1.2-0.4,0,0.2-0.9,0.6L459.1,96z"/>
						<polygon class="st1" points="595.1,313 597,311.7 596.8,312 						"/>
						<path class="st1" d="M442.9,374.5c-2.2,0.6-1.5,0.2-1.9,0.3C443,374.3,440.3,375,442.9,374.5z"/>
						<polygon class="st1" points="354.6,384.4 355.3,384.4 355.1,384.7 						"/>
					</g>
				</g>
			</g>
		</g>
	</g>
	<g>
		<g>
			<g>
				<g>
					<g>
						<path class="st1" d="M206.1,349c-1.2-1.1,0.4,0.8-0.8-0.7C205.5,348.4,205.8,348.6,206.1,349z"/>
						<path class="st1" d="M596,314c-1.8,1.9-4.1,3.8-6.5,5.7c-2.4,1.9-4.9,3.7-7,5.6c-0.5,0.4-0.1-0.4-1.2,0.6c-1,1-2.2,2-3.5,3
							c-1.3,1-2.8,2.1-4.3,3.2c-3,2.1-6.2,4.3-9.1,6l0.3-0.3c-1.1,0.7-2.1,1.9-3.3,2.6c-0.1-0.1,0.3-0.3,0-0.2
							c-0.1,0.4-1.9,1.5-2.3,2c-0.5,0.2-0.6,0-1.2,0.4l-0.5,0.7c-1.4,1.8-4.3,2.9-6.6,4.8c0.1-0.1,0.3-0.3,0.1-0.3
							c-1.9,1.5-4,3-6.2,4.5c-2.3,1.5-4.6,3-6.8,4.4c0.1-0.2,0.2-0.4-0.1-0.4c-0.1,0.4-1.4,1.3-2.6,2.1c-0.7,0.1-1.9,1.5-3.4,2.2
							l0.1-0.1c-0.9,0.9-1.6,0.8-2.3,1.6l-0.8,0.2c-0.3,0.6-1.6,0.7-2.4,1.4l0.1,0.1c-0.8,0.6-1.3,0.7-2,1.2l-0.1,0
							c-1.8,1.1-2.9,1.5-2.7,1.7c-0.8,0.1,1.7-1.1,0.5-0.8c-2.9,1.8-5.9,3.6-8.9,5.2c-3.1,1.6-6.1,3.2-9.2,4.8
							c-0.8,0.2-1.2,0.4-1.4,0.4c-0.6,0.4-2.3,1.2-2.8,1.6c0.2-0.1-0.5,0-0.8,0.2c-1.2,0.4-1.1,0.9-2.4,1.4c0.5-0.3,0.6-0.5,0.4-0.5
							c-0.9,0.7-2.3,1.4-3.6,2c0.2-0.1,0.5-0.3,0.4-0.4c-1.3,0.9-2.5,1.1-3.7,1.8l0.4-0.4c-2,0.7-0.4,0.6-2.1,1.2
							c0.4-0.2,0.2-0.2,0.2-0.3c-1.4,1-4,2.1-5.5,2.8c0.1-0.1,0-0.1,0-0.1c-1.7,0.8-3.5,1.4-5.4,2.3c-0.7,0.2,0.1-0.5-1.7,0.3
							c0.2,0.3-3,1.4-1.8,1.4c-1.6,0.5-4.1,1.4-5.1,1.9c0.7-0.4-0.9-0.1,0.4-0.7l-1.1,0.2c0.1-0.2,1-0.3,0.7-0.4
							c-0.7,0.3-2.5,1.1-3.1,1.3c-1.1,0.7-2.1,1.5-4.1,2.2c0.9-0.5-0.7-0.2-0.1-0.5l-2.5,1.6c-0.7,0.2-0.2-0.2-1.2,0.2
							c0.1,0.1-0.3,0.3-0.6,0.5c-0.3,0.1-2.7,1.1-3.1,0.8c-0.3,0,1.1-0.4,0.3-0.3c-1.2,0.4-1.2,0.5-2.5,0.9l0,0
							c-0.8,0.2-2.4,0.9-1.4,0.8c0.6-0.2-0.3-0.1,0.6-0.3c-0.5,0.4-1.9,0.9-3.2,1.3c0.4-0.2,0.3-0.3,0.5-0.4
							c-0.8,0.4-1.6,0.8-2.5,1.1c-0.9,0.3-1.8,0.6-2.7,1c0,0.2,0.6-0.5,0.9-0.5c-2.5,0.5-4.9,1.7-7,2c0.3-0.1,0.2,0.2,0.2,0.1
							c-1.2,0.3-1.2,0-1.9,0.3c-0.1-0.1-0.9,0.3-1.7,0.5c-0.4,0.2-0.2,0,0.5-0.2c-1.1,0.4-5.4,1.8-7.9,2.1c0.1,0.1-1.5,0.7-2.1,0.8
							l0.2-0.3c-0.6,0-2,0.4-2.1,0.3c-1.2,0.5,4.7-1.3,3.1-0.7c-0.5-0.1-2.3,0.9-2,0.5c-1.2,0.3-2.3,0.8-3.4,0.8
							c0.3,0,0.9-0.5-0.1-0.3c-1.7,0.4-0.4,0.2-1.8,0.6l-0.8,0.3c0,0.2-1.5,0.2-0.8,0.4c-0.2-0.1-2.4,0.6-2.3,0.2l0.2-0.3
							c-0.7,0.2-1.1,0.5-1.7,0.8c-0.1,0-0.3,0-0.3-0.1c0,0.5-1.7,0.3-2.5,0.8c-1.6,0.1-3.9,0.6-4.7,0.4c-1.2,0.3-2.2,0.6-3.6,0.7
							c0.3-0.1,0.6-0.2,0.7-0.3c-0.9,0-1.1,0.1-1.8,0.3c0.2-0.1-1.7-0.1-2.7-0.1c-1.2,0.3-0.7,0.5-0.8,0.6c-1.1-0.3-3.3,0.7-4.7,0.4
							c0.4-0.1,1.7-0.4,0.7-0.4c-1.1-0.3-2.1,0.5-3.9,0.5l0.5,0.3c-0.8-0.2-2.5,0.4-2.4,0.1c-0.6,0.2-2.1,0.1-1.8,0.4
							c-2.9-0.1-6.9,0.6-8.7,0.1c-0.4,0.1-1.4,0-1.2,0.2c0.7,0.2,0.9-0.2,1.2,0c-0.4,0-0.4,0.1-0.5,0.2c-0.9-0.1-1.6-0.1-0.8-0.4
							c-2-0.2-2,0.7-4.5,0.6c0.1-0.2-0.1-0.2-0.8-0.2c-0.5,0.1-0.9,0.2-1.4,0.3c-1.6-0.1-0.9-0.3-1-0.6c-0.9,0-1.9,0-2.3,0.2
							l-1.1-0.3c0.8,0.2-0.7,0.1-1.1,0.2l0.4-0.1c-0.2-0.1-1.2,0-1.7,0c0.1,0.2,1.1,0.2,1.7,0.3c-0.4,0.1-1.1,0.1-1.7,0.2
							c0.2-0.2-1.4-0.2-2.1-0.3c-0.8-0.1-0.9,0.2-1.1,0.2c0-0.1-1.3-0.1-0.7-0.2c0.3,0,0.6,0.1,1.1,0c-0.5-0.1-0.5-0.3-1.5-0.2
							c-0.8,0.1,0.2,0.5-1.4,0.3c0.4,0,0.5-0.1,0.8-0.2l-1.4-0.2l-0.1,0.2c-0.2-0.1-0.1-0.1-0.1-0.1c-0.4,0.2-2.2,0-2.6,0.2
							c-0.7,0-1.5-0.3-2.2-0.3l0.1,0c-0.8-0.2-2-0.2-2.7-0.1l0,0c-0.5-0.1-1.6-0.1-2.2,0c-1.2-0.3-0.3-0.9-1.6-0.7
							c-1.2-0.1-1.9,0.2-1.4,0.4c-1.1-0.2-2.2-0.2-3.3-0.3c-1.1-0.1-2.2-0.2-3.2-0.5c-0.3,0.1-0.1,0.1-0.8,0.1
							c-3.1-0.4-6.7-0.7-9.1-1.5c0.9,0,0.1-0.2,0.1-0.3c-0.8,0.1-0.9-0.3-1.2,0c0,0.2,0,0.3,0.8,0.5c-1.9-0.2-4.7-0.7-5.7-1.1
							c0.5,0.2,0.1,0.2-0.3,0.2c0.2-0.3-1.2-0.6-2.2-0.7l-0.2,0.2l-0.6-0.3c-0.4,0-0.5,0.3-1.5-0.1c0-0.1-0.1-0.2-0.3-0.3
							c-1.1-0.1-2.7-0.1-3.8-0.5l-0.9-0.5c-0.5-0.1-1.4-0.1-0.5,0.2c-1.9-0.6-3.2-1-3.7-1.4c-3.5-0.3-8.4-1.6-12.2-2.8l0.2-0.1
							c-1-0.4-0.6,0.1-1.3-0.2c0.4,0-0.7-0.5,0.2-0.4c-1.4-0.6-2-0.4-3-0.6c-0.2,0.1,0.8,0.1,0.5,0.3c-0.2,0-2-0.8-2.3-0.6
							c-0.3-0.2,0-0.3,0.3-0.4l-0.9-0.2c-1-0.7,2.7,0.2,1.7-0.5l-0.8-0.2c-0.7-0.5,2.3,0.4,0.3-0.4c-0.9-0.2-1.9,0-1.1,0.4
							c-1.9-0.6-1.1,0.4-3.1-0.4c-0.5-0.4,1.6,0.5,1.3,0.2c-0.9-0.6-1.9-0.6-2.8-0.9c0.9,0.4,0,0.4-0.6,0.3c-1-0.5,0.8,0-0.7-0.6
							c-0.3,0.1-1.7-0.3-0.6,0.2c-0.7,0.2-1.5-0.7-2.3-0.7c-0.4-0.4,1.7,0,0.2-0.7c0.2,0.3-2.1-0.4-1.4,0.3
							c-0.6-0.3-0.6-0.5-0.1-0.5c-0.8-0.5-2.3-0.4-2.4-1l-0.4,0.1c-0.2-0.2-0.6-0.4-1-0.7c-0.8-0.3-2.6-0.7-2.4-1
							c-0.3-0.1-2-0.8-1.4-0.3c1,0.6,1.3,0.3,1.8,0.9c-0.7-0.6-1.6-0.6-2.3-0.8l0-0.2c-0.4-0.1-1.2-0.5-1.5-0.5
							c0.3,0,0.2-0.1-0.1-0.3l-0.5,0c-1.6-0.6-0.2-0.5-1.7-1.1l1.2,0.3c-0.3-0.1-0.7-0.5-1.4-0.7c-0.4,0.1-1,0.1-1.3,0.1
							c-0.9-0.3-0.3-0.4-1.2-0.6l1.2,0.3c0.2,0-0.6-0.7-1.7-1.2c-0.7-0.3-2-0.5-0.9,0.1c-0.6-0.3-1.3-0.7-0.8-0.7
							c-1.3-0.5,0.1,0.3-1.1-0.1c-0.4-0.3-1.6-1.2-2.4-1.8l1.3,0.2l-0.7-0.4c1.1,0.2-0.4-0.4,0.3-0.4c-0.5-0.3-1.1-0.5-1.7-0.7
							c1.2,1.2-1.9-0.2-1.7,0.4c-2.1-0.9-0.8-1.6-3.2-2.1c0.3,0.3-0.9,0.1,0.5,0.6c-1.2-0.7-1.1-0.1-2.4-1c1.2,0.4-0.9-1,0.7-0.4
							c-0.2,0.1,0.8,0.6,1.1,0.7c-0.4-0.4,0.3-0.3-0.9-1c-0.8-0.4-1.8-0.9-1.8-0.7c-0.1,0.2,1.2,0.6,0.6,0.6
							c-1.6-0.8-1.6-1.2-2.5-1.2c1,0.5,1.1,0.9,1,1l-1.2-0.5l0.3,0c-1.7-1.1-0.7,0-2.4-1.1l-0.6-0.8c0.6,0,2.5,1.6,2.4,1
							c-1.1-0.7-1.6-0.7-2.6-1.4c0.3,0.1,0.6,0.3,0.8,0.4c-0.4-0.3-0.5-1-2.3-1.6c-0.9-0.4-0.3,0-0.4,0.2c-1.8-1-2.4-1.2-3.6-1.9
							c0.4-0.1-2-1.3-0.6-0.8c0.5,0.5,3.1,2.1,3.9,2.2c-0.4-0.7,1.4,0.9,2,0.8c-1.4-0.8-1.2-1.2-1.3-1.5c-0.4-0.3-0.8-0.4-1.1-0.5
							c-0.3,0.1,0.2,0.4,0.1,0.7c-1.6-1-3.2-1.8-4.1-2.2c-0.5-0.4-0.2-0.5,0.5-0.2c-1.9-1.1-3.9-2.4-5.6-3.6c0.9,1.1-2-1.2-1.4-0.4
							c0.9,0.7,1.5,1.5,0.9,1.3c-0.6-0.4,0.1-0.1-0.1-0.4c-0.9-0.3-1-1.1-1.9-1.3c1.7,1,0.6-0.2,1.1-0.2c-1.3-0.7,0.2-0.1-1-1
							c-1.3-0.7-2.8-1.6-4.2-2.5c-0.7-0.7-1.8-1.5-2.8-2.2c-1-0.7-2-1.4-2.8-1.9c-0.7-0.7,0.1-0.6-0.7-1.3c-1-0.7,0.5,0.8-0.8-0.4
							l0.2,0c-0.5-0.3-2.4-2.2-3.1-2.2l0.7,0c-0.2-0.2-0.5-0.4-0.8-0.5c0.1-0.1-0.2-0.4,0.3-0.2c-0.7-0.9-1.8-1.4-2.7-2.2l0.4,0.7
							c-1.7-1.2-2.6-2.2-4.1-3.5l0.2-0.1l-1-0.7c0.4,0-0.3-0.8-0.9-1.1l2.6,1.7c0.5,0.7-0.9-0.4-0.6,0.1c0.2,0.4,1.6,1.6,2,1.6
							c-0.5-0.5-0.6-0.5-1-0.8c0-0.4,0.8,0.3,1.3,0.5c-0.3-0.2-0.6-0.6-0.7-0.6c0.6,0.4,1.2,0.8,2.1,1.6c-0.7-0.4,0.2,0.4-0.1,0.3
							c0.2-0.1,1.2,0.5,2.3,1.5c0.6,0.9,2.3,1.6,3.6,2.7c-0.7-0.2-1.5-0.6-2.4-1.2c0.8,0.8,0.9,0.8,1.7,1.5c0.5,0.2,1,0.1,2.2,0.9
							l-0.1,0.2c1.1,0.7,1.3,0.4,2.5,1.5c2.2,1.7,4.5,3.4,6.2,4.6l0,0.2c1.2,0.3,3.3,2.1,4.8,2.8c2.1,1.7,5,3,6,4
							c4.2,2.3,7.8,4.3,12.1,6.7l-0.9-0.1c0.9,0.2,0.4,0.4,1.2,0.8c-0.8-0.7,1.2,0.3,1.8,0.4c1.8,1.2,4.5,2.3,6.3,2.9l0,0.2
							c1.9,0.5,3.9,1.8,6.1,2.9c0.2,0.2,0.6,0.5,1.2,0.8c1.3,0.2,2,0.5,3.8,1.1c1.3,0.5,3.4,1.5,4.7,2.2c5.1,1.5,10.1,3.7,15.5,5.1
							l0.3,0.4c1.3,0.3,2.7,0.7,4.1,1c1.4,0.4,2.8,0.8,4.2,1.2c2.8,0.8,5.5,1.6,7.7,2l-0.5,0.3c1.4,0.5,3.2,0.7,2.9,0.3
							c1.4,0.5,3.6,0.6,4.4,1.1c1.4,0.4,1.8,0.2,3,0.4c2.9,0.7,4,0.9,6.7,1.3l-0.7-0.1c-0.3,0-0.4,0.2,0.3,0.3
							c1,0.1,3.8,0.7,2.8,0.1c1.4,0.4,3.2,0.6,4.9,0.8c1.7,0.2,3.4,0.4,4.8,0.7c-0.2-0.2,0.5-0.1,0.8-0.1c2.6,0.3,5.3,0.8,7.4,0.8
							c0.4,0.1-0.7,0.2,0.4,0.3c0.6,0,0-0.2,0.8-0.2c2.1,0,4.2,0.2,6.3,0.4c2.1,0.2,4.1,0.4,6,0.4c3.4,0,6.9-0.1,10.3,0
							c1.7,0,3.4-0.1,5.1-0.1c1.7,0,3.4-0.1,5-0.2l-0.1,0.1c2.2-0.5,5.2,0.1,6.9-0.6c0.5,0,2-0.1,1.6,0.1c1.7-0.4,4.9-0.1,7.4-0.8
							c-0.2,0-0.4,0.1-0.6,0.1c2.6-0.1,4.7-0.7,7.4-0.8c-0.3,0.1-0.8,0.2-0.8,0.3c1.1,0.1,2.4-0.8,3-0.4c0.6-0.1,0.4-0.3,0-0.2
							c2.9-0.4,5.9-0.8,8.9-1.5c3-0.6,6-1.3,9-2c4.3-0.7,0.4,0.7,3.7-0.4c0.3,0,0.2-0.2,0.2-0.1c1.3-0.4,2.2,0.1,3-0.4
							c-0.4-0.2,0.6-0.3,0.5-0.5c2.6-0.5,3.2-0.4,5.2-1.1l-0.1,0.2c2.3-1,5.1-1.6,7-2.7c13.1-3.9,25.4-8.6,37.7-13.8
							c12.2-5.1,23.7-10.9,35.6-17.1c2.9-1.2,3.1-1.3,6.1-3.1c-0.1,0.1-0.3,0.2,0,0.2c0-0.4,2.1-1.2,2.2-1.6
							c2.2-1.2,4.2-2.5,6.3-3.7c2.1-1.2,4.1-2.5,6.3-3.8c-0.7,0.5-0.9,0.9-0.1,0.4l0.7-0.7l0.2,0c0.5-0.4,1-0.9,0.4-0.6
							c10.8-7,21.5-13.6,31.6-21.1c2.5-1.7,5.8-4.3,8.4-6.3c3.9-2.8,7.7-5.4,11.4-8.2c3.6-2.8,7.2-5.7,10.9-8.9
							C599.4,309.8,599,311.3,596,314z"/>
						<path class="st1" d="M207.5,350.3c0.1,0.4,0.9,1.2,0.1,0.7C207.6,350.8,207.3,350.3,207.5,350.3z"/>
						<path class="st1" d="M229.9,370.3c0.1,0,0.3,0.3,0.4,0.4c-0.3-0.2-0.7-0.3-0.9-0.5C229.7,370.3,229.7,370.2,229.9,370.3z"/>
						<path class="st1" d="M236.3,374.6c-0.2,0.1-1.6-0.7-2.4-1.3C234.6,373.7,235.4,374.2,236.3,374.6z"/>
						<path class="st1" d="M242.1,378.8c0.5,0.4,0.3,0.4-0.4,0C241.6,378.7,241.9,378.8,242.1,378.8z"/>
						<path class="st1" d="M242.7,378.8c0.5,0.3,0.7,0.5,0.9,0.7C243.7,379.4,242.4,378.9,242.7,378.8z"/>
						<path class="st1" d="M256.2,386.7c0.3,0.2,1.1,0.4,1.4,0.7C257.2,387.1,255.8,386.8,256.2,386.7z"/>
						<path class="st1" d="M262.8,389.7c0.2,0.1,0.3,0.2,0.5,0.3c0.4,0.2-0.1,0.1-0.4,0L262.8,389.7z"/>
						<polygon class="st1" points="391.2,410.9 390.4,411 390.5,410.8 						"/>
						<path class="st1" d="M447.6,399.5c0.7-0.3,0.6,0,0.7-0.1C447.6,399.6,448.5,399.2,447.6,399.5z"/>
						<polygon class="st1" points="476.6,388.3 476.4,388.4 476.3,388.1 						"/>
					</g>
				</g>
			</g>
		</g>
	</g>
</g>
</svg>
