<?xml version="1.0" encoding="utf-8"?>
<!-- Generator: Adobe Illustrator 22.0.1, SVG Export Plug-In . SVG Version: 6.00 Build 0)  -->
<svg version="1.1" id="圖層_1" xmlns="http://www.w3.org/2000/svg" xmlns:xlink="http://www.w3.org/1999/xlink" x="0px" y="0px"
	 viewBox="0 0 750 700" style="enable-background:new 0 0 750 700;" xml:space="preserve">
<style type="text/css">
	.st0{fill:#B58647;stroke:#534741;stroke-width:3;stroke-miterlimit:10;}
	.st1{fill:#534741;}
</style>
<g>
	<g>
		<path class="st0" d="M666.3,657c-79.9,50.5-265.4,42.9-355.4,42.2S83,687.7,42.8,666S-7.8,601.7,7.3,554.5
			c15.2-47.2,46-47.7,46-47.7c-4.7,2-13.4,12.9-10.5,31.1c2.9,18.2,16.3,29.1,64.6,39.7C155.7,588.2,236,602.8,463,610
			s287.5-65.4,287.5-65.4C747.8,548.5,746.3,606.6,666.3,657z"/>
		<g>
			<path class="st1" d="M705.8,590.3c-8.8,5.5-18,10.3-27.5,14.5c-9.5,4.3-19.3,7.9-29.2,10.9c-2.5,0.8-5,1.6-7.5,2.2l-7.5,2
				c-5.1,1.1-10.2,2.3-15.4,2.9c-2.6,0.3-5.2,0.7-7.8,0.9c-2.6,0.2-5.2,0.4-7.8,0.5c-1.3,0.1-2.6,0.2-3.9,0.2l-3.9-0.1
				c-2.6,0-5.2-0.1-7.8-0.2v-0.3c10.3-1.2,20.6-2.1,30.7-4l3.8-0.6c1.3-0.2,2.5-0.5,3.8-0.7l7.6-1.4c5-1.1,10.1-2.1,15-3.6
				c10-2.7,19.7-6,29.3-9.9c9.5-3.9,18.9-8.2,27.9-13.4L705.8,590.3z"/>
		</g>
		<g>
			<path class="st1" d="M718.3,607.1c-6.8,4.5-14.1,8.3-21.6,11.7c-7.6,3.3-15.3,6.1-23.3,8.2c-7.9,2.1-16.1,3.8-24.4,4
				c-8.3,0.3-16.7-0.6-24.6-2.8l0.1-0.3c8.2,0.6,16.2,0.8,24.3,0.1c4.1-0.3,8.1-0.7,12.1-1.3c4.1-0.5,8-1.2,12-2.1
				c8-1.8,15.7-4.3,23.3-7.3c7.5-3,15-6.4,22-10.6L718.3,607.1z"/>
		</g>
		<g>
			<path class="st1" d="M233.8,612.1v0.1l-65.7,0.6c-10.9,0.1-21.8,0.2-32.8,0.2c-11-0.2-22-1-32.9-2.6s-21.7-4.3-32-8.3
				c-2.5-1-5.1-2.2-7.6-3.3l-3.7-1.9c-1.2-0.6-2.4-1.2-3.6-2l-3.5-2.2c-1.2-0.7-2.3-1.6-3.4-2.4c-2.3-1.6-4.4-3.5-6.5-5.3
				c-4-3.8-7.7-8.1-10.8-12.7c-3.1-4.7-5.7-9.7-7.5-14.9c-3.7-10.4-5.1-21.7-3.4-32.6h0.3c-1.4,21.8,7.3,43.9,23.5,58
				c2.1,1.8,4.1,3.6,6.3,5.1c1.1,0.7,2.1,1.6,3.3,2.3l3.4,2.1c1.1,0.7,2.3,1.4,3.5,2l3.6,1.9c2.5,1.1,4.9,2.3,7.4,3.3
				c10,4.1,20.6,6.9,31.3,8.7c10.7,1.7,21.6,2.7,32.5,3c10.9,0.2,21.9,0.2,32.8,0.3l65.7,0.6H233.8z"/>
		</g>
		<g>
			<path class="st1" d="M161,626.1v0.2l-50.6,0.6L97.8,627h-3.2l-3.2-0.1l-3.2-0.1l-1.6-0.1l-1.6-0.2c-8.5-0.7-16.9-2.5-24.9-5.6
				c-8-3-15.5-7.6-21.8-13.4c-0.7-0.7-1.6-1.4-2.3-2.2l-2.2-2.4c-0.4-0.4-0.8-0.8-1.1-1.2l-1-1.3c-0.7-0.8-1.4-1.6-2-2.5l-1.8-2.7
				l-0.9-1.3l-0.8-1.4l-1.6-2.8l-1.4-2.9c-0.5-0.9-0.9-1.9-1.3-2.9s-0.8-2-1.2-3c-0.7-2-1.4-4-2-6.1c-1.2-4.1-2.1-8.3-2.7-12.5
				c-1.2-8.4-1.5-17-0.4-25.4h0.3c-0.1,4.2,0,8.4,0.4,12.6c0.3,4.2,0.9,8.3,1.7,12.4c0.4,2.1,0.9,4.1,1.4,6.1c0.6,2,1.1,4,1.8,6
				c0.6,2,1.4,4,2.1,5.9c0.3,0.9,0.8,1.8,1.2,2.8c0.4,0.9,0.8,1.9,1.3,2.8c7.1,14.9,19.6,27.1,35.1,33.3c7.7,3.1,15.9,5,24.2,5.9
				l1.6,0.2l1.6,0.1l3.1,0.2l3.1,0.2h3.2l12.6,0.1l50.6,0.6H161z"/>
		</g>
		<g>
			<path class="st1" d="M125.9,593.1c-8.2-0.1-16.4-0.8-24.5-2.1c-8.1-1.3-16.1-3.3-23.9-6.1c-3.9-1.4-7.7-3.1-11.4-5
				c-0.9-0.5-1.8-1-2.7-1.5l-2.7-1.7c-1.7-1.2-3.4-2.4-5-3.8c-3.1-2.8-6-5.9-8.2-9.5c-2.2-3.5-3.9-7.4-4.8-11.4l0.3-0.1
				c1.7,3.7,3.9,7.2,6.3,10.3l1.9,2.3l2.1,2.1c0.7,0.7,1.5,1.3,2.2,2c0.4,0.3,0.7,0.7,1.1,1l1.2,0.9c3.1,2.4,6.4,4.7,9.9,6.7
				c3.4,2,7.1,3.8,10.8,5.3c7.5,3.1,15.3,5.3,23.3,6.9c8,1.7,16.1,2.8,24.2,3.3L125.9,593.1z"/>
		</g>
	</g>
	<g>
		<g>
			<path class="st1" d="M723.3,573.2c-2.5,1.6-5,3-7.5,4.5c-2.5,1.4-5.1,2.8-7.6,4.2s-5.1,2.7-7.7,4c-2.7,1.2-5.2,2.5-7.9,3.7
				c-5.2,2.4-10.6,4.7-16.1,6.6c5-3.1,10-5.9,15.1-8.7c2.5-1.5,5.1-2.8,7.6-4.2l7.6-4.1l7.7-4.1c2.6-1.3,5.1-2.7,7.7-4
				c5.1-2.6,10.3-5.3,15.6-7.7C733.1,566.9,728.2,570.1,723.3,573.2z"/>
		</g>
		<g>
			<path class="st1" d="M726.9,581.8c-1.1,0.8-2.2,1.5-3.4,2.2l-3.5,2c-1.2,0.7-2.4,1.3-3.6,1.9l-3.7,1.8l-3.8,1.6l-3.8,1.5
				l-3.9,1.3c-1.3,0.4-2.6,0.8-3.9,1.2c-5.2,1.5-10.6,2.5-16,2.9c5.2-1.6,10.3-3.3,15.3-5.1c1.3-0.5,2.5-1,3.8-1.4l3.7-1.5l3.7-1.5
				l3.6-1.6l3.6-1.7c1.2-0.6,2.4-1.2,3.6-1.8l3.6-1.8c1.1-0.7,2.3-1.3,3.5-1.9c4.7-2.6,9.3-5.4,13.9-8.2
				C735.7,575.5,731.4,578.8,726.9,581.8z"/>
		</g>
		<g>
			<path class="st1" d="M711.4,596.6c-2.8,1.5-5.7,2.9-8.5,4.4c-2.8,1.4-5.7,2.8-8.6,4.1s-5.9,2.6-8.8,3.8c-2.9,1.2-5.9,2.4-8.9,3.5
				c-6,2.2-12.1,4.1-18.3,5.7c5.8-2.7,11.6-5.3,17.4-7.9l8.7-3.9c2.9-1.3,5.8-2.6,8.7-3.9l4.3-2c1.4-0.7,2.9-1.4,4.3-2l8.6-4
				c5.8-2.7,11.5-5.4,17.4-7.9C722.4,590.1,716.9,593.4,711.4,596.6z"/>
		</g>
		<g>
			<path class="st1" d="M684.6,617.3c-1.4,0.8-2.8,1.6-4.3,2.4l-4.5,2.2c-1.5,0.6-3.1,1.3-4.6,1.9l-4.7,1.7l-4.8,1.4l-4.8,1.2
				L652,629c-1.6,0.2-3.3,0.4-4.9,0.6c-6.6,0.7-13.3,0.6-19.8-0.4c6.5-0.2,13-0.8,19.4-1.9c1.6-0.3,3.2-0.6,4.8-0.9l4.7-1.1l4.7-1.3
				l4.6-1.5l4.6-1.6c1.5-0.6,3-1.2,4.5-1.8l4.4-2c1.5-0.7,2.9-1.4,4.4-2.1c5.8-2.9,11.3-6.3,16.7-10.1
				C695.5,609.6,690.2,613.7,684.6,617.3z"/>
		</g>
		<g>
			<path class="st1" d="M687.7,633c-2.1,1.1-4.2,2.2-6.3,3.2l-6.3,3c-2.1,1-4.3,1.9-6.4,2.8l-6.5,2.6l-6.6,2.4l-6.7,2.1l-6.8,1.8
				c-2.3,0.5-4.6,1-6.9,1.5c-9.2,1.8-18.6,2.7-27.9,2.4c9.3-0.9,18.4-2.5,27.4-4.7l6.7-1.8l6.6-2l6.6-2.2l6.5-2.4l6.5-2.5l6.4-2.7
				l6.4-2.8c2.1-1,4.2-1.9,6.3-2.9c8.4-3.9,16.8-8,25.2-12C704,623.9,696,628.6,687.7,633z"/>
		</g>
		<g>
			<path class="st1" d="M662.4,649.7c-2.1,0.9-4.2,1.8-6.3,2.7l-6.4,2.4l-6.5,2.1l-6.6,1.9l-6.7,1.5l-6.7,1.3l-6.8,1
				c-2.2,0.3-4.5,0.5-6.8,0.7c-9.1,0.7-18.3,0.7-27.3-0.4c9.1-0.2,18.1-0.8,27.1-1.9c2.2-0.4,4.5-0.7,6.7-1l6.7-1.2l6.6-1.4l6.6-1.6
				l6.5-1.8l6.5-2l6.4-2.2c2.1-0.8,4.2-1.6,6.3-2.4c8.4-3.3,16.6-7.1,24.7-11.3C678.9,641.4,670.9,645.8,662.4,649.7z"/>
		</g>
		<g>
			<path class="st1" d="M650.4,659.4c-2.1,0.9-4.2,1.7-6.4,2.5l-6.5,2.3l-6.6,2.1l-6.6,1.9l-6.7,1.7l-6.7,1.5l-6.8,1.3
				c-2.3,0.3-4.5,0.7-6.8,1c-9.2,1.3-18.3,2-27.5,1.9c9.1-1.2,18.1-2.5,27.1-4.2c2.2-0.4,4.5-0.9,6.7-1.3l6.7-1.4l6.6-1.6l6.6-1.7
				l6.6-1.8l6.5-2l6.5-2.1c2.2-0.8,4.3-1.5,6.5-2.2c8.6-3,17.1-6.3,25.6-9.8C667.3,652.2,659,656.1,650.4,659.4z"/>
		</g>
		<g>
			<path class="st1" d="M582.1,637.5c-1.9,0.5-3.7,1-5.6,1.4l-5.6,1.2l-5.7,1l-5.7,0.9l-5.7,0.7l-5.7,0.6l-5.8,0.4
				c-2,0.1-3.9,0.1-5.8,0.2c-7.7,0.2-15.4,0-23-0.8c7.7-0.4,15.3-0.8,22.9-1.5c1.9-0.2,3.8-0.3,5.7-0.5l5.7-0.6l5.7-0.7l5.7-0.8
				l5.7-0.8l5.6-0.9l5.6-1c1.8-0.4,3.7-0.8,5.6-1.1c7.5-1.5,14.9-3.2,22.4-4.9C597,633.2,589.7,635.5,582.1,637.5z"/>
		</g>
		<g>
			<path class="st1" d="M587.2,641.4c-3.9,1.4-7.8,2.8-11.8,4s-8,2.3-12.1,3.2c-4.1,0.9-8.2,1.7-12.3,2.3c-4.1,0.6-8.2,1.1-12.4,1.4
				c-8.4,0.6-16.7,0.6-25-0.2c8.3-0.5,16.5-1.1,24.7-2.2c4.1-0.6,8.2-1.2,12.2-1.9c4.1-0.7,8.1-1.6,12.1-2.5
				c8-1.8,15.9-4.2,23.8-6.6c7.9-2.4,16-4.8,24.3-5.7C602.6,635.3,594.9,638.2,587.2,641.4z"/>
		</g>
		<g>
			<path class="st1" d="M591.2,651.2c-2.3,0.8-4.7,1.5-7,2.2l-7.1,2l-7.1,1.7l-7.2,1.5l-7.2,1.3l-7.2,1.1l-7.3,0.9
				c-2.4,0.2-4.9,0.4-7.3,0.6c-9.7,0.7-19.5,0.9-29.2,0.2c9.7-0.6,19.4-1.4,29-2.5c2.4-0.3,4.8-0.6,7.2-0.9l7.2-1.1l7.2-1.2l7.1-1.3
				l7.1-1.5l7.1-1.6l7-1.7c2.3-0.7,4.7-1.3,7-1.9c9.4-2.6,18.6-5.6,27.8-8.7C609.5,644.6,600.5,648.2,591.2,651.2z"/>
		</g>
		<g>
			<path class="st1" d="M574.4,663.8c-2.1,0.6-4.1,1.1-6.2,1.7l-6.2,1.6l-6.3,1.4l-6.3,1.2l-6.4,1.1l-6.4,0.9l-6.4,0.7
				c-2.1,0.2-4.3,0.4-6.4,0.6c-8.6,0.6-17.1,0.8-25.7,0.4c8.6-0.8,17-1.6,25.5-2.7c2.1-0.3,4.2-0.5,6.3-0.8l6.3-0.9l6.3-1l6.3-1.1
				l6.3-1.2l6.3-1.3l6.2-1.3c2-0.5,4.1-0.9,6.2-1.4c8.3-2,16.5-4.2,24.8-6.4C590.8,658.8,582.7,661.6,574.4,663.8z"/>
		</g>
		<g>
			<path class="st1" d="M565.2,676c-3.5,0.8-7.1,1.6-10.7,2.3c-3.6,0.7-7.2,1.3-10.8,1.9c-3.6,0.5-7.3,1.1-10.9,1.5
				c-3.6,0.4-7.2,0.8-10.9,1.1c-7.3,0.6-14.7,0.9-22,0.7c7.2-1,14.5-2,21.7-3l10.8-1.6l5.4-0.8l5.4-0.8l5.4-0.8l5.4-0.9l10.8-1.8
				c7.2-1.3,14.4-2.6,21.6-3.8C579.4,672.4,572.4,674.3,565.2,676z"/>
		</g>
		<g>
			<path class="st1" d="M571.5,681.5c-2.1,0.5-4.2,1-6.3,1.5l-6.4,1.4l-6.4,1.2l-6.4,1.1l-6.5,1l-6.5,0.8l-6.5,0.7
				c-2.2,0.2-4.3,0.4-6.5,0.6c-8.6,0.7-17.3,1-26,0.7c8.6-1,17.2-1.9,25.8-3c2.1-0.3,4.3-0.5,6.4-0.8l6.4-0.9l6.4-0.9l6.4-1l6.4-1
				l6.4-1.1l6.4-1.2c2.2-0.4,4.3-0.8,6.4-1.2c8.4-1.7,16.9-3.5,25.4-5.3C588.2,677.1,579.9,679.5,571.5,681.5z"/>
		</g>
		<g>
			<path class="st1" d="M499,649.7c-1.7,0.3-3.4,0.7-5.1,1l-5.1,0.8l-5.2,0.6l-5.2,0.5l-5.2,0.3L468,653l-5.2-0.1
				c-1.7-0.1-3.5-0.2-5.2-0.3c-6.9-0.5-13.8-1.5-20.5-3.1c6.9,0.4,13.8,0.7,20.6,0.7c1.7,0,3.4,0,5.1,0l5.1-0.1l5.1-0.2l5.1-0.3
				l5.1-0.4l5.1-0.5l5.1-0.6c1.7-0.3,3.4-0.5,5.1-0.7c6.8-1,13.5-2.2,20.3-3.6C512.4,646.4,505.7,648.3,499,649.7z"/>
		</g>
		<g>
			<path class="st1" d="M486.3,659.6c-4,0.6-8.1,1-12.1,1.5s-8.1,0.8-12.1,1.1c-4,0.2-8,0.5-12.1,0.6c-4.1,0.1-8.1,0.2-12.2,0.2
				c-8.1,0-16.2-0.4-24.3-1.2l24.2-1.1l12.1-0.6l6-0.4l6-0.4l6-0.4l6-0.5l12.1-1l24.1-2.2C502.2,657.1,494.2,658.6,486.3,659.6z"/>
		</g>
		<g>
			<path class="st1" d="M487.2,669.4c-4.3,0.7-8.6,1.4-12.9,2s-8.7,1.1-13,1.6l-6.5,0.6l-6.6,0.4l-6.8,0.1c-2.2,0-4.4,0-6.6-0.1
				c-8.7-0.4-17.5-1.7-25.8-4.4c8.6,1.5,17.3,2.1,25.9,2.1l6.5-0.1l6.5-0.4l6.5-0.5l6.5-0.6l6.5-0.7l6.5-0.8c4.4-0.5,8.7-1.1,13-1.5
				c8.7-0.9,17.4-1.7,26.1-1.6C504.3,666.7,495.8,668.1,487.2,669.4z"/>
		</g>
		<g>
			<path class="st1" d="M478.9,682.4c-2,0.3-3.9,0.6-5.9,0.9l-5.9,0.7l-5.9,0.5l-5.9,0.4l-6,0.2h-6l-6-0.2c-1.9-0.1-3.9-0.3-5.9-0.4
				c-7.9-0.6-15.8-1.7-23.5-3.5c7.9,0.5,15.7,0.9,23.6,1.1c2,0,3.9,0.1,5.9,0.1h5.9l5.9-0.1l5.9-0.2l5.9-0.3l5.9-0.4l5.9-0.5
				c2-0.2,3.9-0.4,5.9-0.6c7.8-0.9,15.6-2.1,23.4-3.4C494.6,679.2,486.9,681,478.9,682.4z"/>
		</g>
		<g>
			<path class="st1" d="M472.2,689.2c-4.1,0.8-8.2,1.5-12.4,2.2c-2.1,0.3-4.2,0.6-6.3,0.9l-6.3,0.8l-6.3,0.6
				c-2.1,0.2-4.2,0.3-6.3,0.4c-2.2,0-4.3,0.1-6.4,0.1c-2.2,0-4.3-0.1-6.4-0.2c-8.5-0.4-16.9-1.9-24.9-4.7c8.3,1.7,16.7,2.4,25,2.4
				l6.3-0.1c2-0.1,4.1-0.2,6.2-0.3l6.2-0.5l6.2-0.7l6.2-0.7l6.2-0.8l12.5-1.7c8.4-1.1,16.8-2.1,25.2-2.5
				C488.7,686,480.4,687.6,472.2,689.2z"/>
		</g>
		<g>
			<path class="st1" d="M477.7,696.5c-1.7,0.4-3.5,0.7-5.2,1l-5.2,0.8l-5.2,0.6l-5.2,0.5l-5.3,0.3l-5.3,0.1l-5.3-0.1
				c-1.8,0-3.5-0.1-5.3-0.2c-7-0.4-14-1.3-20.8-2.8c7,0.2,14,0.4,20.9,0.4c1.7-0.1,3.5-0.1,5.2-0.1l5.2-0.2l5.2-0.2l5.2-0.3l5.2-0.4
				l5.2-0.5l5.2-0.6c1.8-0.3,3.5-0.5,5.2-0.7c6.9-1,13.7-2.2,20.6-3.4C491.5,693.1,484.7,694.9,477.7,696.5z"/>
		</g>
		<g>
			<path class="st1" d="M23,562.2c0.7,1.3,1.3,2.7,1.9,4l2,3.9c0.8,1.2,1.5,2.5,2.2,3.8l2.3,3.7l2.5,3.6l2.6,3.5l2.8,3.4
				c1,1.1,1.9,2.2,2.9,3.3c4,4.3,8.4,8.3,13.1,12.1C50,600.7,45,597.1,40.6,593c-1.1-1-2.1-2.1-3.2-3.2l-3-3.4l-2.8-3.6l-2.6-3.7
				l-2.4-3.9c-0.8-1.3-1.5-2.7-2.2-4l-1.9-4.1c-0.5-1.4-1.1-2.8-1.6-4.2c-2-5.7-3.3-11.7-3.7-17.7C18.8,551,20.7,556.6,23,562.2z"/>
		</g>
		<g>
			<path class="st1" d="M17.9,569.4c0.5,1.2,1.1,2.5,1.6,3.7l1.8,3.6c0.6,1.1,1.3,2.3,1.9,3.5l2.1,3.4l2.2,3.4l2.4,3.2l2.5,3.2
				c0.9,1,1.7,2,2.6,3c3.6,4,7.6,7.7,11.8,11.2c-4.9-2.4-9.5-5.7-13.5-9.5c-1-0.9-1.9-1.9-2.9-2.9l-2.8-3.1l-2.5-3.3l-2.4-3.4
				l-2.1-3.6c-0.6-1.2-1.3-2.5-1.9-3.7l-1.7-3.8c-0.5-1.3-0.9-2.6-1.4-3.9c-1.7-5.3-2.8-10.8-2.9-16.3
				C14.1,559.4,15.7,564.6,17.9,569.4z"/>
		</g>
		<g>
			<path class="st1" d="M15.8,579.8c0.7,1.1,1.4,2.2,2,3.3l2.1,3.2c0.7,1.1,1.5,2.2,2.2,3.2l2.4,3l2.5,3l2.6,2.8l2.7,2.7
				c0.9,0.8,1.9,1.7,2.8,2.6c3.9,3.4,8.1,6.5,12.5,9.4c-4.9-1.8-9.6-4.4-13.9-7.6c-1-0.8-2.1-1.7-3.1-2.5l-3-2.7l-2.8-2.9l-2.6-3
				l-2.4-3.2c-0.7-1.1-1.5-2.2-2.2-3.3l-2-3.5c-0.6-1.2-1.2-2.4-1.8-3.6c-2.2-4.8-3.7-10-4.4-15.2C11.3,570.4,13.4,575.1,15.8,579.8
				z"/>
		</g>
		<g>
			<path class="st1" d="M16.9,594.1c1,1.5,1.9,2.9,2.8,4.4l2.9,4.3c1.1,1.3,2.1,2.7,3.1,4.1l3.2,4l3.4,3.9l3.5,3.8l3.7,3.6
				c1.3,1.2,2.5,2.3,3.8,3.5c5.2,4.5,10.7,8.7,16.5,12.6c-6.4-2.8-12.4-6.5-18-10.8c-1.4-1.2-2.8-2.3-4.1-3.4l-3.9-3.6l-3.7-3.8
				l-3.5-4l-3.3-4.2c-1.1-1.4-2.1-2.9-3.1-4.3l-2.8-4.5c-0.9-1.5-1.8-3.1-2.6-4.6c-3.2-6.2-5.8-12.8-7.4-19.6
				C10.1,581.9,13.3,588.1,16.9,594.1z"/>
		</g>
		<g>
			<path class="st1" d="M17.2,606.4c1.2,1.4,2.3,2.7,3.4,4l3.5,3.8c1.2,1.2,2.4,2.5,3.6,3.7l3.8,3.6l3.9,3.5l4,3.3l4.1,3.2
				c1.4,1,2.8,2,4.2,3c5.7,3.9,11.7,7.5,17.9,10.8c-6.6-2.2-13.1-5.2-19.1-8.9c-1.5-1-3-1.9-4.5-2.9l-4.3-3.1l-4.2-3.3l-4-3.5
				l-3.8-3.7l-3.6-3.9l-3.4-4.1c-1.1-1.4-2.1-2.8-3.2-4.2c-4.1-5.7-7.7-11.8-10.4-18.3C8.9,595.3,12.9,601,17.2,606.4z"/>
		</g>
		<g>
			<path class="st1" d="M20.3,624.2l3.5,4c1.3,1.2,2.5,2.5,3.7,3.8l3.8,3.7c1.4,1.1,2.7,2.3,4,3.5l4.1,3.4l4.2,3.3l4.3,3.2
				c1.5,1,2.9,2.1,4.4,3.1c5.9,4.1,11.9,7.9,18,11.8c-6.7-2.8-13.1-6.1-19.3-9.8c-1.6-0.9-3.1-1.9-4.6-2.9l-4.5-3.1
				c-1.4-1.1-2.9-2.2-4.3-3.3c-1.4-1.2-2.8-2.3-4.2-3.5c-1.3-1.2-2.7-2.5-4-3.7c-1.3-1.3-2.5-2.6-3.8-3.9c-1.2-1.4-2.4-2.7-3.6-4.1
				c-1.2-1.4-2.3-2.9-3.4-4.3c-4.3-5.8-7.9-12.3-10.2-19.1C11.8,612.6,15.8,618.5,20.3,624.2z"/>
		</g>
		<g>
			<path class="st1" d="M25,639.1c5.2,5.2,10.9,9.8,17.1,13.7c3.1,2,6.3,3.8,9.5,5.6c3.3,1.8,6.6,3.4,9.9,5
				c6.7,3.2,13.5,6.2,20.2,9.5c-7.1-2.1-14.2-4.5-21.1-7.4c-6.9-2.9-13.6-6.2-20-10.3c-3.1-2.1-6.2-4.3-9.1-6.7
				c-2.9-2.5-5.6-5.1-8.1-7.9c-5-5.6-9.2-11.9-12.3-18.7C15.2,628,19.8,633.8,25,639.1z"/>
		</g>
		<g>
			<path class="st1" d="M81.6,612.1c1.9,0.3,3.9,0.5,5.9,0.8l5.9,0.8l5.9,0.7l6,0.7l6,0.7l6,0.6l6,0.6c2,0.1,4,0.3,6,0.5l24,1.8
				c-8,0.6-16.1,0.7-24.1,0.5c-4-0.1-8-0.4-12-0.6l-6-0.5l-6-0.6l-6-0.7l-6-0.8l-6-1c-2-0.3-3.9-0.7-5.9-1.1
				c-7.9-1.6-15.7-3.4-23.4-5.8C65.8,609.8,73.7,611,81.6,612.1z"/>
		</g>
		<g>
			<path class="st1" d="M83.5,619.3c1.6,0.4,3.2,0.7,4.8,1.1l4.9,0.9c1.7,0.2,3.3,0.5,4.9,0.8l4.9,0.7l4.9,0.6l4.9,0.4l4.9,0.3
				c1.6,0,3.3,0,4.9,0.1c6.6,0,13.2-0.2,19.9-0.7c-6.4,1.7-13.1,2.7-19.8,3c-1.6,0-3.3,0.1-5,0.1l-5-0.1l-5-0.3l-5-0.5l-5-0.7
				c-1.7-0.3-3.4-0.6-5-0.9l-4.9-1.2c-1.6-0.5-3.2-0.9-4.8-1.4c-6.4-2-12.7-4.6-18.5-7.8C70.8,615.8,77.2,617.7,83.5,619.3z"/>
		</g>
		<g>
			<path class="st1" d="M116,637c-1.8,0-3.5-0.1-5.3-0.1l-5.3-0.2c-1.8-0.1-3.5-0.3-5.3-0.4l-5.3-0.5c-1.8-0.3-3.5-0.5-5.3-0.8
				c-1.7-0.3-3.5-0.7-5.2-1s-3.5-0.8-5.2-1.2c-1.7-0.4-3.4-1-5.1-1.5c-6.7-2.2-13.3-5.2-19.1-9.2c6.4,2.9,13,5.3,19.8,7l5.1,1.2
				l5.1,1l5.2,0.9l5.2,0.7l5.2,0.6l5.2,0.5l5.2,0.4c1.8,0,3.5,0.2,5.3,0.3c7,0.4,14.1,0.7,21.1,1.3C130.3,636.7,123.2,637.1,116,637
				z"/>
		</g>
		<g>
			<path class="st1" d="M118.3,648.7c-8.5-0.2-17.1-1.3-25.4-3.2c-4.1-1-8.2-2.2-12.3-3.5c-4-1.4-8-2.9-11.9-4.7
				c-7.8-3.5-15.2-7.9-22-13c7.5,4,15.1,7.8,22.9,10.8c7.8,3.1,15.8,5.6,24,7.5c4.1,1,8.2,1.8,12.4,2.4c4.1,0.7,8.3,1.1,12.5,1.5
				c8.4,0.6,16.9,0.7,25.4,1.4C135.4,648.4,127,649,118.3,648.7z"/>
		</g>
		<g>
			<path class="st1" d="M108.4,655.4c-1.6-0.3-3.2-0.5-4.8-0.8l-4.8-1c-1.6-0.4-3.1-0.8-4.7-1.2l-4.7-1.4l-4.6-1.6
				c-1.5-0.6-3-1.1-4.5-1.7c-3-1.2-6-2.4-8.9-3.8c-5.9-2.7-11.6-5.7-17.2-8.9c6.1,2.2,12.1,4.5,18.1,6.8c1.5,0.6,3,1.1,4.5,1.7
				l4.5,1.6l4.5,1.6l4.5,1.5l4.6,1.4l4.6,1.3l4.6,1.2l4.7,1c6.2,1.2,12.5,2,19,2.4C121.4,656.3,114.8,656.2,108.4,655.4z"/>
		</g>
		<g>
			<path class="st1" d="M127,661.1c-1.9-0.2-3.7-0.3-5.6-0.5l-5.6-0.7c-1.8-0.3-3.7-0.7-5.5-1l-5.5-1.1l-5.4-1.4
				c-1.8-0.5-3.6-1-5.4-1.5c-3.5-1.1-7.1-2.1-10.6-3.4c-7-2.4-13.9-5.2-20.7-8.2c7.2,1.8,14.3,4,21.4,6c1.8,0.5,3.5,1,5.3,1.5
				l5.3,1.4l5.3,1.4l5.4,1.3l5.4,1.2l5.4,1l5.4,0.9l5.5,0.7c7.3,0.9,14.7,1.2,22.1,1C141.9,661.2,134.4,661.5,127,661.1z"/>
		</g>
		<g>
			<path class="st1" d="M107.4,665.3c-1.2-0.1-2.3-0.2-3.5-0.4l-3.4-0.6c-1.1-0.2-2.3-0.4-3.4-0.7l-3.4-0.8
				c-2.3-0.7-4.5-1.4-6.7-2.1c-2.2-0.8-4.4-1.6-6.5-2.5c-4.2-1.7-8.4-3.7-12.5-5.9c4.5,1,8.9,2.4,13.3,3.7c1.1,0.3,2.2,0.6,3.3,1
				l3.3,1l3.3,1l3.3,0.9l3.3,0.9c1.1,0.3,2.2,0.5,3.3,0.8l3.3,0.8c1.1,0.2,2.2,0.5,3.3,0.7c4.5,0.8,9,1.4,13.6,1.9
				C116.7,665.8,112,665.8,107.4,665.3z"/>
		</g>
		<g>
			<path class="st1" d="M119.9,672.7c-1.7,0-3.5,0-5.2-0.1l-5.2-0.3l-5.2-0.5l-5.2-0.6l-5.2-0.8l-5.2-0.9l-5.1-1
				c-1.7-0.4-3.4-0.8-5.1-1.2c-6.8-1.7-13.4-3.8-19.9-6.4c6.8,1.4,13.6,2.9,20.4,4.1c1.7,0.3,3.4,0.6,5.1,0.9l5.1,0.8l5.1,0.8
				l5.1,0.7l5.1,0.6l5.1,0.6l5.2,0.5c1.8,0.1,3.5,0.2,5.2,0.4c6.9,0.5,13.8,0.8,20.8,1.2C133.9,672.4,126.9,672.7,119.9,672.7z"/>
		</g>
		<g>
			<path class="st1" d="M126.5,679.2c-1.9,0-3.7,0.1-5.6,0.1l-5.6-0.1l-5.6-0.4l-5.6-0.5l-5.5-0.8l-5.5-1l-5.5-1.2
				c-1.8-0.4-3.6-0.9-5.4-1.4c-7.2-2-14.2-4.6-20.8-7.9c7.1,2.1,14.2,4,21.4,5.6c1.8,0.3,3.6,0.7,5.4,1.1l5.4,1l5.4,0.9l5.4,0.7
				l5.5,0.6l5.5,0.4l5.5,0.3c1.8,0.1,3.7,0.1,5.5,0.2c7.3,0.2,14.7,0,22.1-0.4C141.2,678.1,133.8,678.9,126.5,679.2z"/>
		</g>
		<g>
			<path class="st1" d="M195,629.6c-1.7,0-3.5,0-5.2,0l-5.2-0.1l-5.2-0.3l-5.2-0.4l-5.2-0.5l-5.2-0.6l-5.1-0.8
				c-1.7-0.3-3.4-0.6-5.1-0.9c-6.8-1.3-13.6-3-20.2-5.1c6.8,0.9,13.7,1.9,20.5,2.7c1.7,0.2,3.4,0.4,5.1,0.6l5.1,0.6l5.1,0.5l5.1,0.5
				l5.1,0.4l5.1,0.4l5.1,0.3c1.8,0.1,3.5,0.2,5.2,0.3c6.9,0.4,13.8,0.6,20.7,0.9C208.6,629.1,201.7,629.5,195,629.6z"/>
		</g>
		<g>
			<path class="st1" d="M197.6,638.5c-1.8,0.2-3.6,0.4-5.4,0.6l-5.4,0.4l-5.4,0.1H176l-5.4-0.3l-5.4-0.4l-5.4-0.7
				c-1.8-0.3-3.6-0.6-5.4-0.9c-7.1-1.3-14.1-3.1-20.9-5.6c7,1.3,14.1,2.5,21.2,3.3c1.8,0.2,3.5,0.4,5.3,0.6l5.3,0.4l5.3,0.3l5.3,0.2
				l5.3,0.1l5.3-0.1l5.3-0.2c1.7-0.1,3.5-0.2,5.3-0.3c7.1-0.5,14.3-1.3,21.4-2.2C211.6,636,204.5,637.4,197.6,638.5z"/>
		</g>
		<g>
			<path class="st1" d="M197.4,647.9c-2,0.1-4.1,0.2-6.2,0.3l-6.3,0.1l-6.3-0.2l-6.2-0.4l-6.2-0.7l-6.2-0.8l-6.1-1.2
				c-2.1-0.4-4.1-0.9-6.1-1.4c-8.1-2.1-16-4.8-23.5-8.4c8,2.4,15.9,4.5,24,6.1c2.1,0.3,4.1,0.7,6.1,1.1l6.1,1l6.1,0.8l6.1,0.6
				l6.1,0.5l6.1,0.3l6.2,0.1c2.1,0,4.1,0,6.2,0c8.2-0.2,16.5-0.8,24.7-1.7C213.9,646.1,205.7,647.4,197.4,647.9z"/>
		</g>
		<g>
			<path class="st1" d="M202.3,658.7c-1.8,0-3.7,0-5.5,0l-5.5-0.1l-5.5-0.3l-5.5-0.5l-5.5-0.7l-5.5-0.8l-5.4-1
				c-1.8-0.4-3.6-0.8-5.4-1.2c-7.2-1.8-14.3-4-21.1-6.8c7.1,1.7,14.3,3.2,21.5,4.5c1.8,0.3,3.6,0.6,5.4,0.9l5.4,0.8l5.4,0.7l5.4,0.6
				l5.4,0.5l5.5,0.4l5.5,0.3c1.8,0,3.7,0.1,5.5,0.2c7.3,0.2,14.6,0.2,22,0.1C217.1,657.6,209.8,658.3,202.3,658.7z"/>
		</g>
		<g>
			<path class="st1" d="M202.4,670.3c-2-0.1-4.1-0.2-6.1-0.3l-6.1-0.5l-6.1-0.7L178,668l-6-1.1l-6-1.2l-6-1.4c-2-0.5-3.9-1-5.9-1.6
				c-7.9-2.2-15.6-5-23-8.4c7.9,2.3,15.7,4.4,23.6,6.2c2,0.4,3.9,0.8,5.9,1.3l5.9,1.2l6,1.1l6,1l6,0.9l6,0.8l6,0.7
				c2,0.2,4,0.4,6,0.6c8,0.6,16.1,1,24.3,1.3C218.7,670.4,210.5,670.6,202.4,670.3z"/>
		</g>
		<g>
			<path class="st1" d="M193.6,674.4c-1.6,0.1-3.2,0.2-4.9,0.3l-5,0.1c-1.7-0.1-3.3-0.1-5-0.2l-4.9-0.3l-4.9-0.6L164,673l-4.9-0.9
				c-1.6-0.3-3.2-0.7-4.8-1.1c-6.4-1.6-12.7-3.8-18.6-6.6c6.4,1.6,12.7,3.1,19.1,4.3c1.6,0.2,3.2,0.5,4.8,0.8l4.8,0.7l4.8,0.6
				l4.8,0.5l4.8,0.4c1.7,0.1,3.3,0.2,4.9,0.3l4.9,0.2c1.6,0,3.3,0,4.9,0c6.5-0.1,13-0.4,19.6-0.9C206.7,673,200.2,674,193.6,674.4z"
				/>
		</g>
		<g>
			<path class="st1" d="M197.5,683.6c-1.9,0.1-3.7,0.2-5.5,0.3l-5.5,0.1l-5.5-0.1l-5.5-0.2l-5.5-0.4l-5.4-0.5l-5.4-0.7
				c-1.8-0.2-3.6-0.5-5.4-0.8c-7.2-1.2-14.3-2.8-21.3-4.9c7.2,1,14.4,1.9,21.6,2.6c1.8,0.1,3.6,0.3,5.4,0.5l5.4,0.4l5.4,0.4l5.4,0.3
				l5.4,0.3l5.4,0.2l5.4,0.1c1.8,0,3.6,0,5.4,0c7.2,0,14.4-0.2,21.7-0.4C211.9,682.2,204.6,683.1,197.5,683.6z"/>
		</g>
		<g>
			<path class="st1" d="M195.9,690.2c-1.8,0-3.6,0-5.4,0l-5.4-0.2l-5.4-0.4l-5.4-0.5l-5.4-0.8l-5.4-0.9l-5.3-1.1
				c-1.8-0.4-3.5-0.9-5.3-1.3c-7-1.8-13.9-4.1-20.5-7.1c7.1,1.8,14.1,3.5,21.1,4.9c1.8,0.3,3.5,0.6,5.3,1l5.3,0.9l5.3,0.8l5.3,0.7
				l5.3,0.6l5.4,0.5l5.4,0.4c1.8,0.1,3.6,0.2,5.4,0.3c7.2,0.3,14.4,0.4,21.6,0.3C210.7,689.6,203.4,690.2,195.9,690.2z"/>
		</g>
		<g>
			<path class="st1" d="M269.1,646.3c-1.5,0-3.1,0-4.6-0.1l-4.6-0.3c-1.6-0.1-3.1-0.3-4.6-0.4l-4.6-0.6l-4.5-0.8l-4.5-0.9l-4.4-1.1
				c-1.5-0.4-2.9-0.9-4.4-1.3c-5.8-1.9-11.5-4.1-16.9-7c5.8,1.7,11.6,3.3,17.5,4.7c1.5,0.3,2.9,0.6,4.4,1l4.4,0.9l4.4,0.8l4.4,0.7
				l4.5,0.7c1.5,0.1,3,0.3,4.5,0.5l4.5,0.5c1.5,0.1,3,0.3,4.5,0.4c6,0.5,12,0.7,18.1,0.8C281.2,645.9,275.1,646.4,269.1,646.3z"/>
		</g>
		<g>
			<path class="st1" d="M273.4,655.3c-1.4-0.1-2.9-0.3-4.4-0.5l-4.4-0.7c-1.5-0.2-2.9-0.5-4.4-0.8l-4.4-0.9l-4.4-1.1l-4.3-1.2
				l-4.3-1.3c-1.4-0.4-2.8-0.9-4.2-1.4c-5.6-2-11.1-4.4-16.4-7.2c5.7,1.6,11.4,3.3,17.1,4.9c1.5,0.3,2.9,0.7,4.3,1.1l4.3,1.1
				l4.3,1.1l4.3,1l4.3,1c1.4,0.3,2.9,0.6,4.3,0.9l4.3,0.9c1.5,0.2,2.9,0.5,4.4,0.8c5.8,1.1,11.6,2,17.5,3
				C285.3,656.2,279.4,656,273.4,655.3z"/>
		</g>
		<g>
			<path class="st1" d="M271.6,663.8c-3,0.3-6,0.5-9.1,0.5c-3.1,0.1-6.1-0.2-9.2-0.6c-3.1-0.5-6.1-1.2-9-2.1c-3-0.9-5.8-2-8.6-3.2
				c-5.6-2.4-10.9-5.3-16-8.5c5.7,2,11.3,4.3,16.9,6.3c2.8,1,5.6,2,8.5,2.7c2.8,0.8,5.7,1.5,8.6,1.9c5.8,1,11.7,0.9,17.7,0.8
				c6-0.1,12.1-0.2,18.1,0.1C283.5,662.7,277.5,663.4,271.6,663.8z"/>
		</g>
		<g>
			<path class="st1" d="M274.8,672.4c-3.3-0.1-6.5-0.3-9.8-0.5s-6.6-0.5-9.8-0.9c-3.2-0.4-6.5-0.8-9.7-1.4s-6.4-1.2-9.6-2
				c-6.3-1.6-12.6-3.6-18.5-6.4c6.3,1.6,12.6,3,19,4.1c3.2,0.5,6.4,1.1,9.6,1.5s6.4,0.8,9.6,1.2c6.4,0.8,12.8,1.4,19.3,2l19.4,1.7
				C287.8,672.4,281.3,672.5,274.8,672.4z"/>
		</g>
		<g>
			<path class="st1" d="M265.6,679.1c-1.4-0.1-2.7-0.2-4.1-0.4l-4.1-0.5c-1.3-0.2-2.7-0.5-4-0.7l-4-0.8l-4-0.9l-4-1l-3.9-1.2
				c-1.3-0.4-2.6-0.8-3.9-1.3c-5.1-1.9-10.1-4-14.9-6.7c5.2,1.5,10.4,3,15.6,4.4c1.3,0.3,2.6,0.6,3.9,1l3.9,1l3.9,0.9l3.9,0.9
				l3.9,0.8c1.4,0.3,2.7,0.5,4,0.8l4,0.7c1.3,0.2,2.7,0.5,4,0.7c5.4,0.8,10.7,1.5,16.1,2.3C276.4,679.6,271,679.5,265.6,679.1z"/>
		</g>
		<g>
			<path class="st1" d="M267.8,684.8c-1.4,0.1-2.8,0.2-4.2,0.3l-4.2,0.1c-1.4,0-2.8-0.1-4.2-0.1l-4.2-0.3l-4.2-0.5l-4.1-0.6
				l-4.1-0.8c-1.4-0.3-2.8-0.6-4.1-1c-5.4-1.4-10.7-3.4-15.6-5.9c5.4,1.3,10.7,2.6,16.1,3.6c1.3,0.2,2.7,0.4,4,0.7l4,0.6l4.1,0.5
				l4.1,0.4l4.1,0.3c1.4,0.1,2.7,0.1,4.1,0.2l4.1,0.1c1.4,0,2.7,0,4.1,0c5.5-0.1,11-0.3,16.5-0.7
				C278.8,683.3,273.3,684.2,267.8,684.8z"/>
		</g>
		<g>
			<path class="st1" d="M264.5,690.9c-1.7,0.2-3.3,0.3-5,0.5l-5,0.4c-1.6,0.1-3.3,0.1-5,0.2l-5.1,0.1l-5.1-0.1
				c-1.7-0.1-3.4-0.2-5.1-0.3l-5-0.6c-1.7-0.3-3.3-0.6-5-0.9c-6.7-1.4-13.2-3.5-19.1-6.6c6.4,2,12.8,3.4,19.4,4.3l4.9,0.6l4.9,0.4
				l5,0.2l5,0.1h5l5-0.1l5-0.2c1.7-0.1,3.3-0.1,5-0.2c6.6-0.4,13.3-0.8,20-1C277.7,689.1,271.1,690.2,264.5,690.9z"/>
		</g>
		<g>
			<path class="st1" d="M384.2,660.1c-2.9,0.1-5.7,0.2-8.6,0.2H367l-8.6-0.2l-8.6-0.3l-8.5-0.5l-8.5-0.7l-8.5-0.9
				c-2.8-0.3-5.7-0.6-8.5-1c-11.3-1.5-22.6-3.5-33.7-6.1c11.3,1.4,22.6,2.7,33.9,3.8c2.8,0.3,5.7,0.5,8.5,0.8l8.5,0.7l8.5,0.6
				l8.5,0.5l8.5,0.4l8.5,0.3l8.5,0.2c2.8,0,5.7,0.1,8.5,0.1c11.3,0.1,22.7-0.1,34.1-0.4C406.8,659.1,395.4,659.9,384.2,660.1z"/>
		</g>
		<g>
			<path class="st1" d="M391.5,669.4c-2.7,0-5.4,0.1-8.1,0.1h-8.1l-8.1-0.3l-8.1-0.4l-8.1-0.7l-8.1-0.8l-8.1-1
				c-2.6-0.4-5.3-0.8-8-1.2c-10.7-1.7-21.3-4-31.7-7c10.7,1.7,21.4,3.4,32.1,4.7c2.6,0.3,5.3,0.6,8,0.9l8,0.8l8,0.7l8.1,0.6l8.1,0.5
				l8.1,0.4l8.1,0.3c2.7,0,5.4,0,8.1,0.1c10.8,0.1,21.6-0.1,32.4-0.4C413.3,668.2,402.5,669.1,391.5,669.4z"/>
		</g>
		<g>
			<path class="st1" d="M390.3,678.5c-5.4,0.6-10.9,0.7-16.4,0.7c-5.5-0.1-11-0.5-16.4-1c-5.4-0.6-10.8-1.4-16.2-2.3
				c-5.3-1-10.7-2-16-3.3c-10.6-2.5-21.1-5.4-31.5-8.7c10.7,2,21.3,4.3,32,6.4c5.3,1,10.6,2,16,2.8s10.7,1.6,16.1,2.1
				c5.3,0.6,10.7,0.9,16.1,1.1c5.4,0.2,10.8,0.1,16.2-0.2c10.8-0.6,21.5-2.2,32-5.1C412.1,675.1,401.3,677.5,390.3,678.5z"/>
		</g>
		<g>
			<path class="st1" d="M387.7,685.4c-2.6,0.2-5.2,0.4-7.8,0.6l-7.9,0.3h-7.9l-7.9-0.2l-7.9-0.5l-7.8-0.7l-7.8-1
				c-2.6-0.4-5.2-0.8-7.8-1.2c-10.4-1.8-20.6-4.3-30.5-7.6c10.2,2.1,20.5,3.9,30.8,5.3c2.5,0.3,5.1,0.6,7.7,0.9l7.8,0.8l7.8,0.6
				l7.8,0.4l7.8,0.3l7.8,0.1l7.8-0.1c2.6-0.1,5.2-0.2,7.8-0.3c10.4-0.4,20.8-1.4,31.2-2.6C408.5,682.9,398.1,684.5,387.7,685.4z"/>
		</g>
		<g>
			<path class="st1" d="M381.3,695.2c-3,0.2-6.1,0.5-9.1,0.7l-9.1,0.3l-9.2-0.1l-9.1-0.4l-9.1-0.7l-9.1-1l-9-1.3c-3-0.5-6-1-9-1.5
				c-12-2.2-23.8-5-35.5-8.5c11.9,2.2,23.8,4.4,35.8,6.2l9,1.2l9,1.1l9,0.9l9,0.6l9,0.4l9.1,0.2l9.1-0.1l9-0.4
				c12.1-0.7,24.1-2.4,36-4.9C405.5,691.6,393.5,693.9,381.3,695.2z"/>
		</g>
		<g>
			<path class="st1" d="M425.7,655.4c-3.8,0.7-7.7,1-11.5,1.4c-3.8,0.3-7.6,0.5-11.5,0.5c-7.7,0-15.4-0.6-23-1.9
				c-7.6-1.3-15.1-3.2-22.3-5.8c7.6,1.4,15.1,2.6,22.6,3.4c1.9,0.2,3.8,0.3,5.7,0.5c1.9,0.2,3.8,0.3,5.7,0.4
				c3.7,0.2,7.5,0.3,11.3,0.3c7.6,0,15.2-0.4,22.7-1.2s15-2.2,22-5.3C441,651.9,433.3,654.1,425.7,655.4z"/>
		</g>
		<g>
			<path class="st1" d="M320,652.8c-1.6-0.2-3.3-0.3-4.9-0.5l-4.9-0.6c-1.7-0.2-3.3-0.5-4.9-0.8l-4.8-0.9l-4.8-1.1l-4.8-1.2
				l-4.7-1.4c-1.6-0.5-3.1-1-4.7-1.5c-6.2-2.1-12.3-4.6-18.1-7.7c6.3,1.9,12.5,3.8,18.8,5.5c1.6,0.4,3.1,0.8,4.7,1.2l4.7,1.2
				l4.7,1.1l4.8,1l4.8,1c1.6,0.3,3.2,0.6,4.8,0.9l4.8,0.8c1.6,0.3,3.2,0.5,4.8,0.8c6.4,1,12.9,1.7,19.4,2.5
				C333.1,653.6,326.5,653.5,320,652.8z"/>
		</g>
	</g>
</g>
</svg>
