<?xml version="1.0" encoding="utf-8"?>
<!-- Generator: Adobe Illustrator 22.0.1, SVG Export Plug-In . SVG Version: 6.00 Build 0)  -->
<svg version="1.1" id="圖層_1" xmlns="http://www.w3.org/2000/svg" xmlns:xlink="http://www.w3.org/1999/xlink" x="0px" y="0px"
	 viewBox="0 0 750 700" style="enable-background:new 0 0 750 700;" xml:space="preserve">
<style type="text/css">
	.st0{fill:#B58647;stroke:#534741;stroke-width:3;stroke-miterlimit:10;}
	.st1{fill:#534741;}
</style>
<g>
	<g>
		<path class="st0" d="M742.7,523.4c0,0-8,73.1,0,106.7c8,33.6-18.6,55.1-45.8,59.9c-27.2,4.8-320.6,9.6-326.8,9.6
			c-6.2,0-235.2,0-235.2,0S30.9,723.6,7.4,575C0,516.2,0,516.2,0,516.2S543.4,583.3,742.7,523.4z"/>
		<g>
			<path class="st1" d="M739.7,604.5c-30.7,2.5-61.3,4.6-92,6.5c-30.7,1.9-61.4,3.6-92.1,5c-61.5,2.7-123,4.5-184.5,4.7
				c-30.8,0.1-61.5-0.2-92.3-1c-15.4-0.4-30.8-1.1-46.1-1.8c-15.4-0.8-30.7-1.9-46.1-3.1c-15.3-1.3-30.7-2.8-45.9-4.7
				c-15.3-1.9-30.5-4.1-45.7-7c-15.1-2.8-30.2-6.2-45-10.6c-3.7-1-7.3-2.3-11-3.5c-1.8-0.6-3.6-1.3-5.4-2c-1.8-0.7-3.6-1.3-5.4-2.1
				c-7.1-2.9-14.1-6.3-20.7-10.2l0.2-0.3c6.7,3.8,13.7,6.9,20.9,9.7c1.8,0.7,3.6,1.3,5.4,1.9c1.8,0.6,3.6,1.3,5.4,1.8
				c3.7,1.1,7.3,2.3,11,3.3c14.8,4.1,29.8,7.3,45,9.9c30.3,5.2,60.8,8.5,91.5,10.8c15.3,1.2,30.6,2.2,46,3c15.3,0.8,30.7,1.5,46.1,2
				c30.7,1,61.5,1.5,92.2,1.6c61.5,0.1,123-1.4,184.4-3.8c30.7-1.2,61.4-2.7,92.1-4.4c30.7-1.7,61.4-3.6,92.1-5.9L739.7,604.5z"/>
		</g>
	</g>
	<g>
		<g>
			<path class="st1" d="M11,585.9c8.3,3.9,16.6,7.6,25,11c2.1,0.8,4.2,1.6,6.3,2.5l6.4,2.4l6.4,2.3l6.5,2.1l6.5,2l6.5,1.9l6.6,1.8
				c2.2,0.5,4.4,1.1,6.6,1.6c8.8,2.1,17.8,3.9,26.8,5.5c-9.1-0.4-18.3-1.6-27.3-3.3c-2.2-0.4-4.5-0.9-6.7-1.4l-6.7-1.6l-6.6-1.8
				l-6.6-2l-6.5-2.2l-6.5-2.4l-6.4-2.6c-2.1-0.9-4.2-1.8-6.3-2.8C26.8,595.2,18.7,590.9,11,585.9z"/>
		</g>
		<g>
			<path class="st1" d="M16.3,600.4c9.2,3.4,18.3,6.6,27.5,9.6c2.3,0.7,4.6,1.5,6.9,2.2l7,2.1l7,2l7,1.9l7,1.9l7.1,1.7l7.1,1.7
				c2.4,0.5,4.7,1,7.1,1.6c9.5,2,19,3.8,28.6,5.5c-9.7-0.5-19.4-1.6-29.1-3.2c-2.4-0.4-4.8-0.8-7.2-1.3l-7.2-1.5L78,623l-7.1-1.8
				l-7-2l-7-2.1l-6.9-2.3c-2.3-0.8-4.6-1.7-6.9-2.5C33.9,608.8,24.9,604.9,16.3,600.4z"/>
		</g>
		<g>
			<path class="st1" d="M22.8,615.2c9.5,0.9,18.8,3.1,27.9,5.7c4.6,1.3,9.1,2.8,13.6,4.2l13.5,4.5l6.7,2.2l6.8,2.1l6.8,1.9l6.8,1.7
				c9.2,2.1,18.5,3.4,28,3.5c-9.4,1.2-19.1,0.5-28.5-1.2c-2.3-0.5-4.7-0.9-7-1.4l-6.9-1.7l-6.9-2l-6.8-2.2c-4.5-1.5-9-3.1-13.5-4.6
				l-6.7-2.4c-2.2-0.8-4.5-1.5-6.7-2.3C41.1,620.1,32.1,617.3,22.8,615.2z"/>
		</g>
		<g>
			<path class="st1" d="M22,624.2c8.4,2.1,16.6,4.9,24.8,7.7l12.2,4.3c4.1,1.4,8.1,2.8,12.2,4.1c4.1,1.3,8.2,2.5,12.3,3.6
				c4.1,1.1,8.3,2,12.5,2.8c8.4,1.5,17,2.3,25.6,2.1c-8.5,1.5-17.4,1.4-26,0.2c-4.3-0.5-8.6-1.4-12.8-2.4c-4.2-1-8.4-2.2-12.6-3.5
				c-4.1-1.3-8.2-2.8-12.3-4.3c-4-1.6-8.1-3.1-12.1-4.8L22,624.2z"/>
		</g>
		<g>
			<path class="st1" d="M26.2,633.6c7.5,2.5,15,5.1,22.5,7.6l11.2,3.8l5.6,1.9l5.6,1.8l5.6,1.8l5.6,1.8l11.3,3.5
				c7.5,2.3,15.1,4.5,22.7,6.9c-7.8-1.1-15.6-2.7-23.3-4.6c-3.9-0.9-7.7-2-11.5-3c-3.8-1.1-7.6-2.3-11.4-3.4
				c-3.8-1.2-7.5-2.5-11.3-3.8c-3.7-1.4-7.4-2.7-11.1-4.2C40.5,640.4,33.2,637.2,26.2,633.6z"/>
		</g>
		<g>
			<path class="st1" d="M33.5,645c7.9,3.2,15.9,6.3,23.9,9.1c2,0.7,4,1.3,6.1,2l6.1,1.9l6.1,1.8l6.2,1.6l6.2,1.6l6.2,1.4l6.2,1.3
				c2.1,0.4,4.2,0.8,6.3,1.2c8.4,1.5,16.8,2.7,25.3,3.7c-8.6,0.2-17.2-0.3-25.7-1.4c-2.1-0.3-4.3-0.6-6.4-0.9l-6.3-1.1l-6.3-1.3
				l-6.3-1.5l-6.2-1.7l-6.2-1.9l-6.1-2.1c-2-0.7-4-1.5-6-2.3C48.6,653.1,40.9,649.3,33.5,645z"/>
		</g>
		<g>
			<path class="st1" d="M47.9,661.8c8.3,0.8,16.6,2.5,24.6,4.6c4.1,1,8.1,2.2,12.1,3.3l12,3.5l6,1.8l6,1.7l6,1.6c2,0.5,4,1,6,1.5
				c8.1,1.9,16.2,3.4,24.6,4.2c-8.4,0.4-16.8-0.4-25-1.9c-2.1-0.4-4.1-0.8-6.2-1.2l-6.1-1.4l-6.1-1.6l-6-1.7l-12-3.7l-11.9-3.8
				C63.9,666.1,56,663.8,47.9,661.8z"/>
		</g>
		<g>
			<path class="st1" d="M53.1,672.9c8.2,0.4,16.3,2.1,24.2,4.1c4,1,7.9,2.1,11.8,3.2c3.9,1.1,7.8,2.3,11.7,3.3
				c3.9,1.1,7.8,2,11.8,2.9c3.9,0.9,7.9,1.5,11.9,2.1c8,1,16.1,1.2,24.2,0c-7.8,2.4-16.2,3-24.4,2.4c-4.1-0.3-8.2-0.9-12.2-1.6
				c-4-0.8-8-1.7-12-2.8c-3.9-1.1-7.9-2.3-11.8-3.5l-11.6-3.7C68.9,676.9,61.1,674.6,53.1,672.9z"/>
		</g>
		<g>
			<path class="st1" d="M70.6,685.7c6.3,0.4,12.6,1.2,18.8,2c3.1,0.4,6.2,0.9,9.4,1.4l9.3,1.6l9.3,1.8c3.1,0.7,6.2,1.3,9.2,2
				c6.2,1.4,12.3,2.9,18.3,4.7c-6.3-0.6-12.5-1.5-18.8-2.4c-3.1-0.4-6.2-1-9.3-1.5l-9.3-1.6l-9.3-1.8c-3.1-0.6-6.2-1.2-9.3-1.9
				C82.9,688.7,76.7,687.3,70.6,685.7z"/>
		</g>
		<g>
			<path class="st1" d="M102.7,610.5c10.9,2.3,21.7,4.6,32.5,6.7c2.7,0.5,5.4,1,8.1,1.6l8.2,1.5l8.2,1.4l8.2,1.4l8.2,1.3l8.2,1.2
				l8.2,1.2c2.7,0.4,5.5,0.7,8.2,1.1c11,1.4,22,2.7,33,4c-11.1-0.1-22.2-0.7-33.2-1.7c-2.8-0.3-5.5-0.5-8.3-0.8l-8.3-1l-8.2-1.1
				l-8.2-1.3l-8.2-1.4L151,623l-8.1-1.7c-2.7-0.6-5.4-1.2-8.1-1.8C123.9,616.9,113.2,614,102.7,610.5z"/>
		</g>
		<g>
			<path class="st1" d="M111.2,623.8c10.4,0.1,20.8,1.4,31,3.1c5.1,0.8,10.2,1.8,15.4,2.7l15.3,2.9l7.6,1.5l7.6,1.3l7.7,1.2l7.7,1
				c10.2,1.3,20.6,1.9,31,1.6c-10.3,1.6-20.8,1.6-31.2,0.8c-2.6-0.2-5.2-0.5-7.8-0.8l-7.8-1l-7.7-1.3l-7.7-1.4
				c-5.1-1-10.2-2-15.3-3.1l-15.2-3.2C131.7,627.1,121.5,625.2,111.2,623.8z"/>
		</g>
		<g>
			<path class="st1" d="M127.1,635.4c10.1,2.5,20.2,4.7,30.4,6.6c2.6,0.4,5.1,0.9,7.6,1.3l7.7,1.2l7.7,1.1l7.7,0.9l7.7,0.8l7.7,0.6
				l7.7,0.5c2.6,0.1,5.2,0.2,7.7,0.3c10.3,0.3,20.7,0.3,31.1,0c-10.3,1.5-20.7,2.3-31.1,2.4c-2.6,0-5.2,0-7.8,0l-7.8-0.3l-7.8-0.5
				l-7.8-0.7l-7.8-1l-7.7-1.2l-7.7-1.4c-2.6-0.5-5.1-1.1-7.6-1.6C146.8,642,136.8,639.1,127.1,635.4z"/>
		</g>
		<g>
			<path class="st1" d="M126.9,644.4c9.7,0.9,19.4,2.1,29.1,3.2l14.5,1.6l7.3,0.8l7.3,0.7l7.3,0.6l7.3,0.5l7.3,0.4
				c2.4,0.1,4.9,0.1,7.3,0.2c9.7,0.2,19.4,0.1,29.2-0.5c-9.6,1.8-19.4,2.6-29.2,2.8c-2.4,0-4.9,0.1-7.3,0l-7.3-0.2l-7.3-0.4
				l-7.3-0.5l-7.3-0.7l-7.3-0.9c-4.8-0.7-9.7-1.3-14.5-2.1C146,648.3,136.4,646.5,126.9,644.4z"/>
		</g>
		<g>
			<path class="st1" d="M120.1,647.6l27.6,4.7c2.3,0.4,4.6,0.7,6.9,1.1l6.9,1.1l6.9,1l6.9,1l6.9,1l6.9,0.9l6.9,0.9
				c2.3,0.3,4.6,0.5,6.9,0.8l27.9,3c-9.4,0.2-18.7-0.1-28.1-0.7c-4.7-0.3-9.3-0.7-14-1.2l-7-0.8l-7-0.9l-6.9-1l-6.9-1.1l-6.9-1.3
				c-2.3-0.4-4.6-0.9-6.9-1.4C138.1,652.6,129,650.3,120.1,647.6z"/>
		</g>
		<g>
			<path class="st1" d="M113.2,650.8c10.7,2.2,21.3,4.2,32,6c2.7,0.4,5.4,0.8,8,1.3l8,1.2l8,1.1l8.1,1l8.1,0.9l8.1,0.8l8.1,0.7
				c2.7,0.2,5.4,0.4,8.1,0.6c10.8,0.7,21.7,1.1,32.5,1.5c-10.8,0.9-21.7,1.1-32.6,0.9c-2.7-0.1-5.4-0.2-8.2-0.3l-8.2-0.5l-8.1-0.7
				l-8.1-0.8l-8.1-1l-8.1-1.2l-8.1-1.4c-2.7-0.5-5.3-1-8-1.6C134.1,656.9,123.6,654.2,113.2,650.8z"/>
		</g>
		<g>
			<path class="st1" d="M117.3,662.2l28.8,4.7c2.4,0.4,4.8,0.7,7.2,1.1l7.2,1.1l7.2,1.1l7.2,1l7.2,1l7.2,0.9l7.2,0.9
				c2.4,0.3,4.8,0.6,7.2,0.9l29,3.2c-9.7,0.1-19.5-0.2-29.2-0.9c-4.9-0.3-9.7-0.8-14.6-1.3l-7.3-0.8l-7.2-0.9l-7.2-1.1l-7.2-1.2
				c-4.8-0.9-9.6-1.7-14.4-2.7C136.1,667.2,126.7,664.9,117.3,662.2z"/>
		</g>
		<g>
			<path class="st1" d="M139.1,679.1c7.8,0.1,15.7,0.5,23.5,0.8c3.9,0.2,7.8,0.4,11.7,0.6l11.7,0.6l11.7,0.7
				c3.9,0.3,7.8,0.5,11.7,0.8c7.8,0.5,15.6,1.1,23.4,1.8c-7.8,0.5-15.7,0.6-23.5,0.5c-3.9,0-7.8-0.2-11.7-0.3
				c-3.9-0.1-7.8-0.3-11.7-0.5c-3.9-0.3-7.8-0.5-11.7-0.8c-3.9-0.3-7.8-0.7-11.7-1.1C154.6,681.4,146.8,680.5,139.1,679.1z"/>
		</g>
		<g>
			<path class="st1" d="M142.5,685.3c9.1,0.7,18.1,1.4,27.1,2c2.3,0.1,4.5,0.3,6.8,0.4l6.8,0.4l6.8,0.4l6.8,0.3l6.8,0.3l6.8,0.2
				l6.8,0.2c2.3,0,4.5,0.1,6.8,0.1c9,0.1,18.1,0.1,27.2,0.1c-9,1.2-18.1,1.9-27.1,2.2c-2.3,0.1-4.5,0.1-6.8,0.2l-6.8,0.1l-6.8-0.1
				l-6.8-0.2l-6.8-0.4L183,691l-6.8-0.6c-2.3-0.2-4.5-0.5-6.8-0.7C160.4,688.6,151.4,687.3,142.5,685.3z"/>
		</g>
		<g>
			<path class="st1" d="M221.5,622.2c10.4,0.5,20.7,1.3,31,2l31,2.3l31,2.5c10.3,0.9,20.7,1.7,31,2.8c-10.4,0.2-20.8-0.1-31.1-0.5
				c-5.2-0.2-10.4-0.5-15.5-0.8c-5.2-0.3-10.3-0.7-15.5-1.1c-5.2-0.4-10.3-0.9-15.5-1.4c-5.2-0.5-10.3-1-15.5-1.6
				C242.1,625.3,231.8,624,221.5,622.2z"/>
		</g>
		<g>
			<path class="st1" d="M227.6,632.5c9.3-0.2,18.5-0.1,27.8,0.1c4.6,0.1,9.3,0.3,13.9,0.4l13.9,0.5l13.9,0.7
				c4.6,0.3,9.2,0.5,13.9,0.9c9.2,0.6,18.5,1.4,27.7,2.4c-9.3,0.2-18.5,0.1-27.8-0.1c-4.6-0.1-9.3-0.3-13.9-0.4l-13.9-0.6l-13.9-0.7
				c-4.6-0.3-9.2-0.5-13.9-0.9C246,634.3,236.8,633.5,227.6,632.5z"/>
		</g>
		<g>
			<path class="st1" d="M224.1,643.2l24.7,1.2c2.1,0.1,4.1,0.1,6.2,0.2l6.2,0.2l6.2,0.2l6.2,0.1l6.2,0.1l6.2,0l6.2,0
				c2.1,0,4.1-0.1,6.2-0.1l24.8-0.5c-8.2,1.4-16.4,2.3-24.7,2.8c-4.1,0.3-8.3,0.4-12.4,0.6l-6.2,0.1l-6.2,0l-6.2-0.2l-6.2-0.3
				l-6.2-0.4c-2.1-0.2-4.1-0.3-6.2-0.5C240.5,646,232.2,644.9,224.1,643.2z"/>
		</g>
		<g>
			<path class="st1" d="M221.4,650.4c10,1.3,20.1,2.7,30.1,3.9c2.5,0.3,5,0.6,7.5,0.9l7.5,0.8l7.5,0.8l7.5,0.7l7.5,0.7l7.5,0.6
				l7.6,0.6c2.5,0.1,5,0.3,7.6,0.5c10.1,0.6,20.2,1.1,30.3,1.6c-10.1,0.7-20.3,0.9-30.4,0.7c-2.5-0.1-5.1-0.1-7.6-0.2l-7.6-0.3
				l-7.6-0.5l-7.6-0.6l-7.6-0.8l-7.6-0.9l-7.5-1c-2.5-0.4-5-0.8-7.5-1.2C241.1,654.9,231.2,652.9,221.4,650.4z"/>
		</g>
		<g>
			<path class="st1" d="M221.6,660.6c9.8,1.5,19.6,2.9,29.4,4c2.5,0.2,4.9,0.5,7.3,0.8l7.4,0.7l7.4,0.6l7.4,0.4l7.4,0.4l7.4,0.2
				l7.4,0.1c2.5,0,4.9,0,7.4,0c9.9,0,19.7-0.4,29.6-0.8c-9.8,1.7-19.6,2.7-29.5,3.1c-2.5,0.1-5,0.2-7.4,0.3l-7.4,0.1l-7.4-0.1
				l-7.4-0.3l-7.4-0.5l-7.4-0.7l-7.4-0.9c-2.5-0.3-4.9-0.7-7.4-1.1C240.8,665.4,231.1,663.3,221.6,660.6z"/>
		</g>
		<g>
			<path class="st1" d="M231,673c9.8,0.5,19.5,1.2,29.3,1.8l14.6,0.9l7.3,0.4l7.3,0.4l7.3,0.4l7.3,0.4l14.6,0.7
				c9.8,0.5,19.5,0.9,29.3,1.5c-9.8,0.7-19.6,0.9-29.4,0.9c-4.9,0-9.8-0.1-14.7-0.2c-4.9-0.2-9.8-0.4-14.7-0.6
				c-4.9-0.3-9.8-0.6-14.7-1c-4.9-0.4-9.8-0.9-14.6-1.4C250.4,676,240.7,674.7,231,673z"/>
		</g>
		<g>
			<path class="st1" d="M225.9,682.1c9.6,1.2,19.2,2.2,28.8,2.8c2.4,0.1,4.8,0.3,7.2,0.4l7.2,0.3l7.2,0.2l7.2,0l7.2-0.1l7.2-0.2
				l7.2-0.3c2.4-0.2,4.8-0.3,7.2-0.5c9.6-0.7,19.2-1.7,28.8-2.9c-9.4,2.4-19,4.1-28.6,5.3c-2.4,0.3-4.8,0.5-7.2,0.7l-7.3,0.5
				l-7.3,0.3l-7.3,0.1l-7.3-0.1l-7.3-0.3l-7.3-0.5c-2.4-0.2-4.8-0.5-7.2-0.7C244.9,686.2,235.3,684.5,225.9,682.1z"/>
		</g>
		<g>
			<path class="st1" d="M214.4,688c9.6,1.2,19.1,2.3,28.6,3.1c2.4,0.2,4.8,0.4,7.2,0.6l7.2,0.5l7.2,0.4l7.2,0.3l7.2,0.2l7.2,0.1
				l7.2,0c2.4,0,4.8-0.1,7.2-0.1c9.6-0.1,19.2-0.5,28.8-1c-9.5,1.7-19.1,2.7-28.7,3.3c-2.4,0.1-4.8,0.2-7.2,0.3l-7.2,0.2l-7.2,0
				l-7.2-0.2l-7.2-0.4l-7.2-0.5l-7.2-0.7c-2.4-0.3-4.8-0.6-7.2-0.9C233.2,692.1,223.7,690.4,214.4,688z"/>
		</g>
		<g>
			<path class="st1" d="M158.1,694.4c6.9-0.8,13.9-1.2,20.8-1.6c3.5-0.2,6.9-0.3,10.4-0.5l10.4-0.3l10.4-0.1c3.5,0,6.9,0,10.4,0
				c6.9,0.1,13.9,0.3,20.8,0.7c-6.9,0.8-13.9,1.2-20.8,1.6c-3.5,0.2-6.9,0.3-10.4,0.5l-10.4,0.3l-10.4,0.1c-3.5,0-6.9,0-10.4,0
				C172,695.1,165.1,694.9,158.1,694.4z"/>
		</g>
		<g>
			<path class="st1" d="M332.6,625.9c9.5,0.4,19,0.8,28.4,1.1c2.4,0,4.7,0.1,7.1,0.1l7.1,0.1l7.1,0l7.1-0.1l7.1-0.1l7.1-0.2l7.1-0.2
				c2.4-0.1,4.7-0.2,7.1-0.3c9.5-0.5,18.9-1.1,28.4-1.7c-9.3,1.9-18.8,3.2-28.2,4c-2.4,0.2-4.7,0.4-7.1,0.6l-7.1,0.5l-7.1,0.3
				l-7.1,0.2l-7.1,0l-7.1-0.1l-7.1-0.3c-2.4-0.1-4.7-0.3-7.1-0.4C351.4,628.6,341.9,627.6,332.6,625.9z"/>
		</g>
		<g>
			<path class="st1" d="M317.9,637.1c10.2,1.3,20.3,2.4,30.5,3.2c2.5,0.2,5.1,0.3,7.6,0.5l7.6,0.4l7.6,0.3l7.6,0.1l7.6,0l7.6-0.2
				l7.6-0.3c2.5-0.2,5.1-0.3,7.6-0.4c10.2-0.6,20.4-1.6,30.6-2.7c-10,2.4-20.1,4-30.4,5c-2.6,0.2-5.1,0.5-7.7,0.7l-7.7,0.5l-7.7,0.2
				l-7.7,0.1l-7.7-0.2l-7.7-0.4l-7.7-0.6c-2.6-0.2-5.1-0.5-7.7-0.8C338,641.4,327.8,639.6,317.9,637.1z"/>
		</g>
		<g>
			<path class="st1" d="M316.9,647.9l31.5,1.2c2.6,0.1,5.2,0.1,7.9,0.2l7.9,0.2l7.9,0.2l7.9,0.1l7.9,0.1l7.9,0l7.9,0
				c2.6,0,5.2,0,7.9,0l31.5-0.3c-10.4,1.3-20.9,2.1-31.4,2.6c-5.3,0.3-10.5,0.4-15.8,0.5l-7.9,0.1l-7.9,0l-7.9-0.2l-7.9-0.3
				c-5.3-0.3-10.5-0.5-15.7-1C337.8,650.7,327.3,649.6,316.9,647.9z"/>
		</g>
		<g>
			<path class="st1" d="M317.9,656.4c10.2,2.9,20.5,5.3,30.9,6.9c2.6,0.4,5.2,0.7,7.8,1.1l7.8,0.8l7.9,0.6l7.9,0.3l7.9,0l7.9-0.3
				l7.9-0.5c2.6-0.3,5.2-0.5,7.8-0.8c10.5-1.2,20.8-3.2,31.1-5.7c-9.9,3.7-20.3,6.3-30.8,8c-2.6,0.4-5.3,0.7-7.9,1.1l-8,0.7l-8,0.4
				l-8,0l-8-0.3l-8-0.7l-7.9-1c-2.6-0.4-5.2-0.9-7.9-1.4C337.9,663.5,327.7,660.5,317.9,656.4z"/>
		</g>
		<g>
			<path class="st1" d="M331.6,669c9.9,0.6,19.8,1.2,29.7,1.6c2.5,0.1,5,0.2,7.4,0.3l7.4,0.2l7.4,0.2l7.4,0.1l7.4,0l7.4-0.1l7.4-0.1
				c2.5-0.1,5-0.1,7.4-0.2c9.9-0.3,19.8-0.7,29.8-1.1c-9.8,1.7-19.7,2.8-29.7,3.5c-2.5,0.2-5,0.3-7.5,0.5l-7.5,0.3l-7.5,0.1l-7.5,0
				l-7.5-0.2l-7.5-0.3l-7.5-0.4c-2.5-0.2-5-0.4-7.4-0.6C351.3,672.1,341.4,670.9,331.6,669z"/>
		</g>
		<g>
			<path class="st1" d="M326.5,679.3l31.2,1.4c2.6,0.1,5.2,0.2,7.8,0.3l7.8,0.2l7.8,0.2l7.8,0.1l7.8,0.1l7.8,0.1l7.8,0
				c2.6,0,5.2,0,7.8,0l31.3-0.3c-10.4,1.3-20.8,2.1-31.2,2.6c-5.2,0.3-10.4,0.4-15.7,0.5l-7.8,0l-7.8-0.1l-7.8-0.2l-7.8-0.3
				l-7.8-0.5c-2.6-0.2-5.2-0.4-7.8-0.6C347.2,682.2,336.8,681,326.5,679.3z"/>
		</g>
		<g>
			<path class="st1" d="M328.9,689.7c10.1,1.1,20.1,1.9,30.2,2.4c2.5,0.1,5,0.2,7.6,0.3l7.6,0.1l7.6,0l7.6-0.2l7.6-0.3l7.5-0.5
				l7.5-0.6c2.5-0.3,5-0.5,7.5-0.7c10-1.1,20-2.5,30-4.2c-9.7,2.9-19.7,5-29.7,6.5c-2.5,0.4-5,0.7-7.6,1l-7.6,0.8l-7.6,0.6l-7.6,0.4
				l-7.6,0.1l-7.6-0.1l-7.6-0.3c-2.5-0.2-5.1-0.4-7.6-0.6C348.9,693.5,338.8,692,328.9,689.7z"/>
		</g>
		<g>
			<path class="st1" d="M318.6,688.9c9.2-0.9,18.4-1.3,27.6-1.6c4.6-0.1,9.2-0.2,13.8-0.2c4.6,0,9.2,0.1,13.8,0.1
				c4.6,0.1,9.2,0.3,13.8,0.5c4.6,0.2,9.2,0.5,13.8,0.8c9.2,0.6,18.3,1.5,27.5,2.8c-9.2,0-18.4-0.2-27.6-0.5l-27.5-0.6l-27.5-0.6
				C337,689.4,327.8,689.2,318.6,688.9z"/>
		</g>
		<g>
			<path class="st1" d="M441.8,624.6c10.5,0.1,20.9,0.1,31.4-0.2c2.6-0.1,5.2-0.2,7.8-0.3l7.8-0.4l7.8-0.4l7.8-0.6l7.8-0.6l7.8-0.8
				l7.8-0.9c2.6-0.3,5.2-0.7,7.8-1c10.4-1.3,20.7-3,31-4.7c-10.1,2.9-20.3,5.2-30.7,7c-2.6,0.4-5.2,0.9-7.8,1.3l-7.8,1.1l-7.8,0.9
				l-7.8,0.7l-7.9,0.5l-7.9,0.4l-7.9,0.2c-2.6,0-5.3,0-7.9,0C462.7,626.6,452.2,625.9,441.8,624.6z"/>
		</g>
		<g>
			<path class="st1" d="M433.1,631.7c11.2-0.1,22.3-0.3,33.5-0.5c2.8-0.1,5.6-0.2,8.4-0.2l8.3-0.3l8.3-0.3l8.3-0.4l8.3-0.4l8.3-0.5
				l8.3-0.6c2.8-0.2,5.6-0.4,8.3-0.6c11.1-0.9,22.2-1.9,33.3-2.9c-11,2.2-22,3.9-33.1,5.2c-2.8,0.3-5.6,0.6-8.3,0.9l-8.4,0.8
				l-8.4,0.6l-8.4,0.5l-8.4,0.3l-8.4,0.2l-8.4,0.1c-2.8,0-5.6,0-8.4-0.1C455.4,633.4,444.2,632.8,433.1,631.7z"/>
		</g>
		<g>
			<path class="st1" d="M431.4,639.7c9.6,0.7,19.1,1.3,28.7,1.7c2.4,0.1,4.8,0.1,7.2,0.2l7.2,0.1l7.2,0l7.2-0.1l7.2-0.1l7.2-0.3
				l7.2-0.4c2.4-0.2,4.8-0.3,7.2-0.4c9.5-0.7,19.1-1.6,28.6-2.6c-9.3,2.2-18.8,3.8-28.4,4.9c-2.4,0.3-4.8,0.5-7.2,0.7l-7.2,0.6
				l-7.2,0.4l-7.2,0.2l-7.2,0l-7.2-0.1l-7.2-0.3c-2.4-0.1-4.8-0.3-7.2-0.5C450.3,642.9,440.8,641.6,431.4,639.7z"/>
		</g>
		<g>
			<path class="st1" d="M440.9,648.9c9.8-0.3,19.6-0.3,29.4-0.4l14.7-0.1l7.3-0.1l7.3-0.1l7.3-0.2l7.3-0.3l7.3-0.3
				c2.4-0.2,4.9-0.3,7.3-0.4c9.8-0.6,19.5-1.5,29.3-2.5c-9.6,2.3-19.3,3.8-29.1,4.9c-2.4,0.2-4.9,0.5-7.3,0.7l-7.4,0.5l-7.4,0.3
				l-7.4,0.2l-7.4,0.1l-7.4,0c-4.9-0.1-9.8-0.2-14.7-0.4C460.5,650.4,450.7,649.8,440.9,648.9z"/>
		</g>
		<g>
			<path class="st1" d="M437.3,656.4c8.3-1.8,16.9-1.2,25.2-0.2c4.2,0.5,8.3,1.1,12.4,1.6c4.1,0.5,8.3,0.8,12.4,0.9
				c4.1,0.2,8.3,0.2,12.5,0.1c4.2-0.1,8.3-0.3,12.5-0.7c8.3-0.7,16.5-2,24.8-3.7c-7.9,2.8-16.2,4.8-24.5,6
				c-8.4,1.2-16.9,1.6-25.3,1.2c-4.2-0.2-8.4-0.6-12.6-1.1c-4.2-0.6-8.3-1.3-12.4-2.1C453.9,657.1,445.7,655.8,437.3,656.4z"/>
		</g>
		<g>
			<path class="st1" d="M434.9,666.2c9.3,1.4,18.6,2.6,27.9,3.4c2.3,0.2,4.7,0.3,7,0.5l7,0.4l7,0.2l7,0.1l7-0.1l7-0.2l7-0.4
				c2.3-0.2,4.7-0.4,7-0.5c9.3-0.8,18.6-2,27.9-3.4c-9,2.6-18.3,4.5-27.7,5.7c-2.3,0.3-4.7,0.6-7,0.8l-7.1,0.6l-7.1,0.3l-7.1,0.1
				l-7.1-0.1l-7.1-0.3l-7.1-0.6c-2.3-0.3-4.7-0.5-7-0.8C453.2,670.7,444,668.8,434.9,666.2z"/>
		</g>
		<g>
			<path class="st1" d="M439.2,673.5c8.9,1,17.8,1.8,26.7,2.3c2.2,0.1,4.4,0.2,6.7,0.3l6.7,0.2l6.7,0.1l6.7-0.1l6.7-0.2l6.7-0.3
				l6.7-0.4c2.2-0.2,4.4-0.4,6.7-0.5c8.9-0.8,17.7-1.9,26.6-3.2c-8.6,2.5-17.4,4.3-26.3,5.5c-2.2,0.3-4.5,0.6-6.7,0.8l-6.7,0.6
				l-6.7,0.4l-6.7,0.2l-6.7,0l-6.7-0.2l-6.7-0.4c-2.2-0.2-4.5-0.4-6.7-0.6C456.7,677.2,447.9,675.7,439.2,673.5z"/>
		</g>
		<g>
			<path class="st1" d="M441.8,678.6c8.6,0.3,17.2,0.7,25.8,1.1l12.9,0.5l6.4,0.2l6.4,0.2l6.4,0.2l6.4,0.2l12.9,0.3
				c8.6,0.2,17.2,0.3,25.8,0.6c-8.6,1-17.2,1.5-25.8,1.8c-4.3,0.2-8.6,0.2-12.9,0.2c-4.3,0-8.6-0.1-12.9-0.2
				c-4.3-0.2-8.6-0.3-12.9-0.6c-4.3-0.3-8.6-0.6-12.9-1C458.9,681.1,450.3,680.1,441.8,678.6z"/>
		</g>
		<g>
			<path class="st1" d="M439.2,682.9c8.2,2,16.4,3.7,24.7,4.9c2.1,0.3,4.2,0.5,6.2,0.8l6.2,0.7l6.3,0.5l6.3,0.3l6.3,0.1l6.3-0.1
				l6.3-0.2c2.1-0.2,4.2-0.3,6.3-0.4c8.4-0.6,16.7-1.8,25-3.2c-8,2.6-16.4,4.4-24.8,5.5c-2.1,0.2-4.2,0.5-6.3,0.7l-6.4,0.4l-6.4,0.2
				l-6.4-0.1l-6.4-0.4l-6.3-0.6l-6.3-0.9c-2.1-0.4-4.2-0.7-6.3-1.1C455.2,688.5,447,686.1,439.2,682.9z"/>
		</g>
		<g>
			<path class="st1" d="M432.3,690.2c4.7,1.1,9.4,1.6,14.2,1.7c1.2,0,2.4,0,3.6,0l3.6-0.1c1.2-0.1,2.4-0.1,3.6-0.1l3.6-0.2l7.2-0.3
				c2.4,0,4.8-0.1,7.3,0c4.8,0.1,9.7,0.6,14.4,2c-4.8-0.2-9.6,0-14.4,0.3l-7.2,0.5l-7.2,0.5c-2.4,0.1-4.8,0.2-7.3,0.2l-3.7-0.1
				c-1.2-0.1-2.4-0.2-3.7-0.3C441.5,693.7,436.6,692.5,432.3,690.2z"/>
		</g>
		<g>
			<path class="st1" d="M550.3,622.1c8.4-0.3,16.8-0.5,25.2-0.8c2.1-0.1,4.2-0.2,6.3-0.3l6.3-0.3l6.3-0.4l6.3-0.4l6.3-0.4l6.3-0.5
				l6.3-0.5c2.1-0.2,4.2-0.4,6.3-0.6c8.4-0.8,16.7-1.8,25.1-2.7c-8.2,2.1-16.5,3.7-24.8,5c-4.2,0.7-8.4,1.1-12.6,1.6l-6.3,0.6
				l-6.3,0.5l-6.3,0.4l-6.3,0.3l-6.3,0.1c-2.1,0-4.2,0-6.3,0C567.1,623.5,558.7,623.1,550.3,622.1z"/>
		</g>
		<g>
			<path class="st1" d="M551.1,631.2c7.9-1.6,15.9-2.8,23.9-3.8c4-0.5,8-0.9,12-1.4c4-0.4,8-0.7,12.1-1.1c4-0.3,8-0.6,12.1-0.8
				c4-0.2,8.1-0.4,12.1-0.5c8.1-0.2,16.1-0.3,24.2,0c-8,0.9-16.1,1.6-24.1,2.3l-24.1,2l-24.1,1.8
				C567.2,630.3,559.2,630.9,551.1,631.2z"/>
		</g>
		<g>
			<path class="st1" d="M536.4,636c9.4-0.2,18.7-0.2,28-0.2l28-0.1l28-0.1c9.3,0,18.7-0.1,28,0c-9.3,1.1-18.6,1.8-27.9,2.3
				c-4.7,0.3-9.3,0.4-14,0.6c-4.7,0.1-9.3,0.2-14,0.2c-4.7,0-9.3,0-14-0.1c-4.7-0.1-9.3-0.2-14-0.5C555,637.7,545.7,637.1,536.4,636
				z"/>
		</g>
		<g>
			<path class="st1" d="M538.1,649.2c8.1-0.6,16.3-0.9,24.4-1.1c4.1-0.1,8.1-0.1,12.2-0.2c4.1-0.1,8.1-0.1,12.2-0.3
				c8.1-0.2,16.2-0.7,24.2-1.6c8-0.9,16-2.4,23.9-4.4c-7.5,3.2-15.5,5.4-23.6,6.7c-4,0.7-8.1,1.2-12.2,1.6
				c-4.1,0.4-8.2,0.6-12.3,0.7c-8.2,0.2-16.3,0.1-24.5-0.2C554.4,650.2,546.3,649.8,538.1,649.2z"/>
		</g>
		<g>
			<path class="st1" d="M529.4,659.9c8.8-0.8,17.6-1.3,26.4-1.8l13.2-0.8l6.6-0.4l6.6-0.4l6.6-0.4l6.6-0.5l6.6-0.5
				c2.2-0.2,4.4-0.4,6.6-0.6c8.8-0.8,17.5-1.8,26.3-3c-8.5,2.3-17.2,4-26,5.3c-2.2,0.3-4.4,0.6-6.6,0.9l-6.6,0.7l-6.6,0.6l-6.6,0.5
				c-4.4,0.2-8.8,0.5-13.2,0.6c-4.4,0.1-8.8,0.3-13.2,0.3C547,660.5,538.2,660.3,529.4,659.9z"/>
		</g>
		<g>
			<path class="st1" d="M535.6,667.6c8,0.3,15.9,0.5,23.8,0.4c2,0,4-0.1,5.9-0.1l5.9-0.2l5.9-0.2l5.9-0.4l5.9-0.4l5.9-0.6l5.9-0.6
				c2-0.3,3.9-0.5,5.9-0.7c7.8-1,15.6-2.3,23.5-3.6c-7.5,2.6-15.3,4.5-23.1,5.9c-2,0.4-3.9,0.7-5.9,1l-5.9,0.8l-5.9,0.6l-6,0.5
				l-6,0.3l-6,0.2l-6,0c-2,0-4-0.1-6-0.2C551.3,669.9,543.4,669.1,535.6,667.6z"/>
		</g>
		<g>
			<path class="st1" d="M539.8,678c8,0.3,16,0.7,23.9,0.8c2,0,4,0,6,0.1l6,0l6,0l6-0.1l6-0.2l6-0.2l6-0.3c2-0.1,4-0.3,6-0.4
				c7.9-0.5,15.9-1.2,23.9-1.9c-7.8,1.9-15.7,3.3-23.6,4.2c-2,0.2-4,0.5-6,0.7l-6,0.5l-6,0.3l-6,0.2l-6,0l-6-0.1l-6-0.2
				c-2-0.1-4-0.2-6-0.4C555.6,680.5,547.7,679.5,539.8,678z"/>
		</g>
		<g>
			<path class="st1" d="M536.3,684c8.1,0.7,16.1,1.4,24.1,1.9c2,0.1,4,0.2,6,0.3l6,0.3l6,0.2l6,0.1l6,0.1l6,0l6-0.1
				c2-0.1,4-0.1,6-0.2c8-0.3,16.1-0.8,24.1-1.2c-7.9,1.7-15.9,2.9-24,3.6c-2,0.2-4,0.3-6.1,0.5l-6.1,0.3l-6.1,0.1l-6.1,0l-6.1-0.2
				l-6.1-0.3l-6.1-0.5c-2-0.2-4-0.4-6-0.6C552.2,687.3,544.2,686,536.3,684z"/>
		</g>
		<g>
			<path class="st1" d="M734.1,609.8c-5.8,2.9-11.7,5.4-17.8,7.6c-3,1.1-6.1,2.1-9.2,3.1c-3.1,1-6.2,1.8-9.3,2.6
				c-3.1,0.8-6.3,1.5-9.4,2.2c-3.2,0.6-6.3,1.3-9.5,1.7c-3.2,0.5-6.4,1-9.7,1.1c-3.3,0.1-6.7-0.2-9.6-1.7c3.1,0.8,6.3,0.7,9.4,0.2
				c3.1-0.5,6.2-1.3,9.4-2c3.1-0.8,6.2-1.4,9.3-2.2c3.1-0.7,6.2-1.5,9.3-2.3c3.1-0.8,6.2-1.6,9.3-2.5c3.1-0.8,6.2-1.7,9.3-2.6
				L734.1,609.8z"/>
		</g>
		<g>
			<path class="st1" d="M738.4,617.4c-6.7,2.3-12.8,5.7-19.2,8.7c-3.2,1.6-6.5,2.9-9.8,4.2c-3.3,1.3-6.7,2.3-10.2,3.3
				c-6.9,1.9-13.9,3.3-21,4c-7.1,0.7-14.2,0.8-21.3,0.1c7.1-0.6,14.1-1.3,21-2.5c1.7-0.3,3.4-0.6,5.2-0.9c1.7-0.3,3.4-0.7,5.1-1.1
				c3.4-0.7,6.8-1.6,10.2-2.5c6.7-1.9,13.3-4.2,19.9-6.8C724.8,621.4,731.4,618.5,738.4,617.4z"/>
		</g>
		<g>
			<path class="st1" d="M736.7,628.1c-7.2,3.4-14.7,6.3-22.3,8.8c-7.6,2.5-15.3,4.5-23.2,6.3c-3.9,0.8-7.8,1.6-11.8,2.2
				c-4,0.6-7.9,1.2-11.9,1.6c-4,0.4-8.1,0.6-12.1,0.2c-4-0.4-8.1-1.4-11.6-3.3c3.8,1.3,7.7,1.9,11.6,1.8c3.9,0,7.8-0.5,11.7-1.1
				c3.9-0.6,7.8-1.3,11.7-2c3.9-0.7,7.8-1.5,11.7-2.3c3.9-0.8,7.7-1.7,11.6-2.6c3.9-0.9,7.7-1.9,11.5-2.9
				C721.5,632.6,729.1,630.3,736.7,628.1z"/>
		</g>
		<g>
			<path class="st1" d="M742.8,634.2c-8,4.3-16.4,7.9-25,10.8c-2.2,0.7-4.3,1.4-6.5,2l-6.6,1.8l-6.7,1.5l-6.7,1.3l-6.8,1l-6.8,0.8
				L671,654c-2.3,0.1-4.5,0.2-6.8,0.3c-9.1,0.2-18.2-0.3-27.2-1.7c9.1,0.1,18.1,0,27.1-0.7c2.2-0.2,4.5-0.4,6.7-0.6l6.7-0.7l6.7-0.9
				l6.7-1.1l6.6-1.2l6.6-1.4l6.6-1.6c2.2-0.6,4.3-1.2,6.5-1.7C725.8,640.3,734.3,637.4,742.8,634.2z"/>
		</g>
		<g>
			<path class="st1" d="M745.4,641c-9.8,3.5-19.7,6.7-29.6,9.8c-9.9,3.1-19.8,6.2-30,8.6c-10.1,2.4-20.5,4.1-31,4.4
				c-5.2,0.1-10.5-0.2-15.7-1c-5.2-0.8-10.2-2.2-15.1-4c5.1,1.2,10.1,2.1,15.3,2.6c1.3,0.1,2.6,0.1,3.9,0.2l1.9,0.1l1.9,0
				c1.3,0,2.6,0,3.9,0l3.8-0.2c5.1-0.4,10.2-0.9,15.3-1.8c5.1-0.9,10.1-1.9,15.1-3.1c5-1.1,10-2.5,15-3.8l15-4.1
				C725.2,645.8,735.2,643.3,745.4,641z"/>
		</g>
		<g>
			<path class="st1" d="M741.8,649.6c-8.6,4-17.3,7.5-26.2,10.8c-8.9,3.3-17.8,6.3-26.9,9c-4.6,1.3-9.1,2.6-13.8,3.6
				c-4.7,1-9.3,1.8-14.1,2.3c-9.5,0.9-19.2,0.5-28.3-2.4c9.3,1.7,18.7,1.4,28,0.1c4.6-0.7,9.2-1.6,13.7-2.7
				c4.6-1.1,9.1-2.3,13.6-3.7c4.5-1.3,9-2.7,13.5-4.1c4.5-1.4,9-2.8,13.5-4.2L741.8,649.6z"/>
		</g>
		<g>
			<path class="st1" d="M734.9,661.3c-9.8,3.3-18.7,8.5-28.6,12.1c-9.7,3.7-20,6.1-30.3,7.5c-10.3,1.3-20.8,1.6-31.2,0.7
				c-10.4-1-20.6-3.1-30.4-6.4c10.1,2.2,20.3,3.6,30.6,4.1c5.1,0.1,10.2,0.3,15.4,0c2.6-0.1,5.1-0.3,7.7-0.5
				c1.3-0.1,2.5-0.3,3.8-0.4c1.3-0.2,2.5-0.3,3.8-0.5c2.5-0.4,5.1-0.7,7.6-1.2l3.8-0.7l3.7-0.8c2.5-0.5,5-1.2,7.5-1.8
				c1.2-0.3,2.5-0.7,3.7-1.1c1.2-0.4,2.5-0.7,3.7-1.1C715.3,668.2,724.7,663.5,734.9,661.3z"/>
		</g>
		<g>
			<path class="st1" d="M622.3,684.6c9.2,0.6,18.3,1.1,27.5,1.2l6.9,0l6.8-0.2l6.8-0.3l6.8-0.5l6.8-0.7l6.8-1l6.7-1.2l6.7-1.5
				c8.8-2.2,17.5-5.2,25.9-9c-7.8,4.9-16.4,8.6-25.3,11.2c-2.2,0.6-4.5,1.3-6.7,1.8l-6.8,1.5c-2.3,0.4-4.6,0.8-6.9,1.1
				c-2.3,0.3-4.6,0.6-6.9,0.8l-6.9,0.5c-2.3,0.1-4.6,0.2-6.9,0.2l-6.9-0.1c-2.3-0.1-4.6-0.2-6.9-0.3
				C640.4,687.6,631.3,686.4,622.3,684.6z"/>
		</g>
		<g>
			<path class="st1" d="M655.1,616.6c5.5-1.7,11.2-2.7,16.9-3.3c2.9-0.3,5.7-0.5,8.6-0.7l8.6-0.5l4.3-0.2l4.3-0.3l4.2-0.3
				c1.4-0.1,2.8-0.3,4.2-0.4c5.6-0.6,11.2-1.5,16.8-2.8c-5.2,2.5-10.8,4.1-16.5,5.1c-1.4,0.2-2.8,0.5-4.3,0.7l-4.3,0.5
				c-2.9,0.3-5.7,0.5-8.6,0.6l-8.6,0.3l-8.5,0.2C666.5,615.9,660.8,616.1,655.1,616.6z"/>
		</g>
		<g>
			<path class="st1" d="M740.4,619.6c-1.4,6.2-3.5,12.3-5.9,18.1c-0.6,1.5-1.3,2.9-1.9,4.4l-2.1,4.3c-0.7,1.4-1.5,2.8-2.2,4.2
				l-2.3,4.2l-2.5,4.1l-2.6,4l-2.7,3.9c-0.9,1.3-1.9,2.6-2.9,3.8c-3.9,5-8.2,9.8-12.8,14.1c3.7-5.1,7.4-10.3,10.9-15.5
				c0.9-1.3,1.7-2.6,2.6-3.9l2.5-4l2.5-4l2.4-4.1l2.4-4.1c0.8-1.4,1.5-2.8,2.3-4.1l2.2-4.2c0.7-1.4,1.4-2.8,2.1-4.2
				C735.1,631.1,737.7,625.4,740.4,619.6z"/>
		</g>
		<g>
			<path class="st1" d="M735.7,590.8c-0.8,8.9-2.9,17.7-5.9,26.1c-0.8,2.1-1.6,4.2-2.4,6.3l-2.7,6.1c-1,2-2,4-3,6l-3.2,5.9L715,647
				c-1.2,1.9-2.4,3.8-3.6,5.7l-3.8,5.5c-1.3,1.8-2.6,3.6-3.9,5.4c-5.3,7.2-10.8,14.2-16.6,20.9c4.8-7.5,9.8-14.9,14.7-22.3
				c1.2-1.9,2.4-3.7,3.6-5.6l3.5-5.6l3.5-5.7l3.3-5.7l3.2-5.8l3-5.9l2.9-6l2.7-6.1C731,607.9,733.7,599.5,735.7,590.8z"/>
		</g>
		<g>
			<path class="st1" d="M734.8,532.8c0.4,6.8,0.1,13.5-0.7,20.3c-0.2,1.7-0.4,3.4-0.6,5l-0.8,5l-1,5l-1.1,5l-1.3,4.9l-1.4,4.9
				l-1.6,4.8c-0.6,1.6-1.2,3.2-1.8,4.8c-2.5,6.3-5.3,12.5-8.7,18.3c2.3-6.4,4.5-12.7,6.5-19.1c0.5-1.6,1-3.2,1.5-4.8l1.4-4.8
				l1.3-4.8l1.2-4.9l1.2-4.9c0.4-1.6,0.7-3.3,1.1-4.9l1-4.9c0.3-1.6,0.6-3.3,0.9-4.9C733,546.1,733.9,539.5,734.8,532.8z"/>
		</g>
		<g>
			<path class="st1" d="M723.3,533.7c0.6,6.5,0.5,13.1-0.2,19.7c-0.2,1.6-0.4,3.3-0.6,4.9l-0.8,4.9c-0.3,1.6-0.7,3.2-1,4.8l-1.2,4.8
				l-1.4,4.7l-1.6,4.7l-1.8,4.6c-0.6,1.5-1.3,3-2,4.5c-2.7,6-6,11.7-9.8,17c2.8-5.9,5.4-11.9,7.7-17.9c0.5-1.5,1.1-3,1.7-4.6
				l1.6-4.6l1.5-4.6l1.3-4.7l1.2-4.7c0.4-1.6,0.7-3.1,1.1-4.7l1-4.7c0.3-1.6,0.6-3.2,0.9-4.8C721.9,546.6,722.7,540.2,723.3,533.7z"
				/>
		</g>
		<g>
			<path class="st1" d="M713.8,533.7c0.2,6.4-0.4,12.9-1.4,19.3c-0.3,1.6-0.6,3.2-0.9,4.8l-1.1,4.7c-0.4,1.6-0.9,3.1-1.3,4.7
				l-1.4,4.6l-1.7,4.6l-1.8,4.5l-2,4.4c-0.7,1.5-1.4,2.9-2.2,4.3c-3,5.7-6.5,11.2-10.5,16.3c3-5.7,5.8-11.4,8.4-17.3
				c0.6-1.5,1.2-2.9,1.9-4.4l1.8-4.4l1.7-4.5l1.6-4.5l1.5-4.5c0.5-1.5,0.9-3.1,1.3-4.6l1.3-4.6c0.4-1.5,0.8-3.1,1.2-4.6
				C711.5,546.3,712.7,540,713.8,533.7z"/>
		</g>
		<g>
			<path class="st1" d="M700.9,536.2c-0.5,6.9-1.5,13.7-3.1,20.5c-0.4,1.7-0.8,3.4-1.2,5l-1.4,5l-1.5,4.9l-1.7,4.9l-1.9,4.8l-2,4.8
				l-2.2,4.7c-0.7,1.6-1.5,3.1-2.3,4.6c-3.2,6.1-6.7,12.1-10.8,17.7c3-6.2,5.9-12.4,8.7-18.7c0.7-1.6,1.3-3.2,2-4.7l1.9-4.7l1.9-4.8
				l1.8-4.8l1.7-4.8l1.6-4.9l1.6-4.9c0.5-1.6,1-3.3,1.5-4.9C697.5,549.5,699.2,542.9,700.9,536.2z"/>
		</g>
		<g>
			<path class="st1" d="M682.2,539.4c-0.4,0.1-0.8,0.3-1.1,0.5c-0.3,0.3-0.5,0.6-0.7,0.9c-0.4,0.7-0.6,1.4-0.8,2.2
				c-0.1,0.8-0.2,1.6-0.3,2.4l-0.2,2.5c-0.3,3.3-0.8,6.6-1.5,9.9c-0.3,1.6-0.8,3.2-1.2,4.9c-0.4,1.6-0.9,3.2-1.4,4.8
				c-0.5,1.6-1.1,3.2-1.7,4.7c-0.6,1.5-1.2,3.1-1.9,4.6c-1.4,3-2.9,6-4.5,8.9l-1.3,2.2l-1.3,2.1c-0.5,0.7-0.9,1.4-1.4,2.1l-1.5,2
				c-3.9,5.4-8.4,10.4-13.4,14.7c4.1-5.2,8-10.5,11.4-16c0.9-1.4,1.7-2.8,2.5-4.2l1.2-2.1l1.1-2.2c1.6-2.9,3-5.8,4.3-8.8
				c2.7-5.9,4.9-12.1,6.7-18.3c0.9-3.1,1.7-6.3,2.3-9.5l0.5-2.4c0.2-0.8,0.3-1.7,0.6-2.5c0.3-0.8,0.6-1.6,1.2-2.3
				c0.3-0.3,0.6-0.6,1-0.8C681.4,539.6,681.8,539.5,682.2,539.4z"/>
		</g>
		<g>
			<path class="st1" d="M663.2,543c-0.8,6.4-2.3,12.8-4.1,19c-0.5,1.5-1,3.1-1.5,4.6l-1.6,4.6c-0.6,1.5-1.2,3-1.8,4.5l-1.9,4.5
				l-2.1,4.4l-2.2,4.3l-2.4,4.2c-0.8,1.4-1.7,2.8-2.5,4.1c-3.5,5.5-7.3,10.7-11.7,15.5c3.3-5.5,6.6-11.1,9.7-16.7
				c0.7-1.4,1.5-2.8,2.3-4.2l2.2-4.3l2.1-4.3l2-4.3l2-4.4c0.6-1.5,1.2-2.9,1.9-4.4l1.8-4.4c0.6-1.5,1.1-3,1.7-4.5
				C659.1,555.3,661.2,549.2,663.2,543z"/>
		</g>
		<g>
			<path class="st1" d="M720.6,609.3c-2.3,6.2-5.1,12.3-8.2,18.2c-1.5,3-3.1,5.9-4.8,8.7c-0.8,1.4-1.7,2.9-2.6,4.3l-2.6,4.2
				l-2.8,4.2l-2.8,4.1c-2,2.7-3.9,5.4-6,8c-4.1,5.2-8.4,10.3-13.1,15l11.2-16.4c0.9-1.4,1.8-2.7,2.8-4.1l2.7-4.1l2.7-4.1l2.7-4.2
				l2.7-4.2c0.9-1.4,1.7-2.8,2.6-4.2l2.6-4.2c0.8-1.4,1.7-2.8,2.6-4.2L720.6,609.3z"/>
		</g>
		<g>
			<path class="st1" d="M698.8,608.2c-0.4,6.9-1.6,13.8-3.2,20.6c-0.4,1.7-0.9,3.4-1.3,5.1l-1.5,5l-1.7,4.9l-1.9,4.9l-2.1,4.8
				l-2.2,4.7l-2.4,4.6c-0.8,1.5-1.7,3-2.6,4.5c-3.5,6-7.5,11.7-12.1,17c3.5-6,6.9-12,10-18.1c0.7-1.5,1.5-3.1,2.3-4.6l2.2-4.7
				l2.1-4.7l2-4.7l1.9-4.8l1.8-4.8l1.7-4.9c0.5-1.6,1-3.3,1.6-4.9C695.4,621.6,697.1,614.9,698.8,608.2z"/>
		</g>
		<g>
			<path class="st1" d="M687.8,614.5c-2,7-4.7,13.8-7.7,20.4c-0.8,1.7-1.5,3.3-2.4,4.9l-2.5,4.9l-2.7,4.8l-2.8,4.7l-2.9,4.6
				l-3.1,4.5l-3.2,4.4c-1.1,1.5-2.2,2.9-3.3,4.3c-4.5,5.7-9.4,11.2-14.7,16.1c4.4-5.8,8.7-11.6,12.8-17.5c1-1.5,2-3,3.1-4.5l3-4.5
				l2.9-4.5l2.9-4.6l2.8-4.6l2.7-4.7l2.7-4.7c0.8-1.6,1.7-3.2,2.6-4.8C681.4,627.5,684.6,621.1,687.8,614.5z"/>
		</g>
		<g>
			<path class="st1" d="M25.2,590.9c-0.7-0.1-1.3,0.1-1.8,0.5c-0.5,0.4-0.8,1-1.1,1.6c-0.5,1.2-0.6,2.5-0.6,3.8
				c0.1,1.3,0.4,2.6,0.6,3.9l0.4,1.9l0.5,1.9c1.2,5.1,2.7,10.2,4.6,15.1c1.9,4.9,3.9,9.8,6.3,14.5c2.3,4.7,4.8,9.4,7.4,13.9
				c2.6,4.6,5.4,9.1,8.2,13.5c2.8,4.5,5.7,8.9,8.9,13.1c1.6,2.1,3.2,4.1,5,6.1c1.7,2,3.6,3.8,5.6,5.5c2,1.8,4.1,3.2,6.3,4.6l1.7,1
				c0.6,0.3,1.2,0.6,1.8,0.9c1.2,0.6,2.4,1,3.7,1.5c-2.6-0.6-5.1-1.5-7.5-2.7c-2.4-1.2-4.7-2.6-6.9-4.2c-4.3-3.2-8.1-7.1-11.5-11.3
				c-3.4-4.1-6.5-8.6-9.4-13c-2.9-4.4-5.8-9-8.4-13.6c-5.3-9.3-10-19-13.3-29.2c-1.7-5.1-2.9-10.3-3.8-15.6l-0.3-2l-0.2-2
				c-0.1-1.3-0.4-2.6-0.3-4c0.1-1.4,0.3-2.7,1-4c0.3-0.6,0.8-1.2,1.3-1.5C23.8,590.9,24.5,590.8,25.2,590.9z"/>
		</g>
		<g>
			<path class="st1" d="M35.5,600.2c-1.1,0.7-1.5,2-1.5,3.2c0,1.2,0.4,2.4,0.8,3.5c0.5,1.1,1.1,2.2,1.6,3.3l1.7,3.3l6.8,13.4
				c4.6,8.9,9.2,17.8,14.2,26.5c5,8.6,10.2,17.2,16.7,24.6c0.8,0.9,1.7,1.8,2.5,2.7c0.9,0.8,1.8,1.7,2.7,2.5
				c0.9,0.8,1.9,1.6,2.8,2.4c1,0.8,2,1.4,3,2.1c4.1,2.7,8.8,4.5,13.8,5.3c-5-0.1-10.1-1.6-14.6-4c-4.5-2.5-8.5-5.7-12.1-9.4
				c-3.6-3.7-6.7-7.7-9.6-11.9c-2.8-4.2-5.5-8.5-8-12.9c-2.5-4.4-4.9-8.8-7.2-13.3c-2.2-4.5-4.5-9-6.5-13.6
				c-2.1-4.6-4.1-9.2-6.1-13.8l-1.4-3.5c-0.5-1.2-1-2.3-1.4-3.6c-0.4-1.2-0.6-2.5-0.5-3.8C33.7,602.1,34.4,600.8,35.5,600.2z"/>
		</g>
		<g>
			<path class="st1" d="M51.3,606.2c-0.7,0.8-0.5,1.9-0.3,2.9c0.3,1,0.7,1.9,1,2.9c0.7,1.9,1.4,3.8,2.1,5.7
				c1.4,3.8,2.9,7.6,4.5,11.4c3.1,7.5,6.5,14.9,10.1,22.1c1.8,3.6,3.7,7.2,5.7,10.8c1.9,3.6,4,7.1,6.1,10.5c2.2,3.4,4.6,6.6,7.5,9.4
				c2.9,2.8,6.3,4.9,10.3,6.1c-4.1-0.5-8-2.4-11.2-5c-1.6-1.3-3.1-2.8-4.5-4.3c-1.4-1.5-2.7-3.2-3.9-4.9
				c-4.8-6.8-8.8-13.9-12.6-21.2c-1.8-3.7-3.6-7.4-5.2-11.2c-1.6-3.8-3.1-7.6-4.4-11.5c-1.4-3.9-2.6-7.8-3.7-11.7
				c-0.5-2-1.1-4-1.5-6c-0.2-1-0.5-2-0.6-3C50.4,608.2,50.5,607,51.3,606.2z"/>
		</g>
		<g>
			<path class="st1" d="M62.3,605.1c4.9,7.7,9.5,15.6,14,23.5c2.3,3.9,4.5,7.9,6.7,11.9l6.5,12l6.4,12.1c2.1,4.1,4.2,8.1,6.2,12.2
				c2.1,4.1,4,8.2,6.4,11.9c2.4,3.8,5.5,7.2,9.6,9.2c-4.4-1.5-8-4.7-10.8-8.4c-2.8-3.7-5.1-7.7-7.3-11.7c-2.3-3.9-4.5-7.9-6.7-11.9
				l-6.5-12l-6.4-12.1c-2.1-4-4.2-8.1-6.2-12.2C70.1,621.6,66.1,613.5,62.3,605.1z"/>
		</g>
		<g>
			<path class="st1" d="M7.4,522.4c1.4,4.3,2.5,8.6,3.5,12.9c0.5,2.2,0.9,4.3,1.4,6.5l1.3,6.5c0.8,4.4,1.5,8.8,2,13.2
				c0.6,4.4,1,8.8,1.2,13.3c-1.4-4.3-2.5-8.6-3.5-12.9c-1-4.3-1.9-8.7-2.7-13.1l-1.1-6.6c-0.3-2.2-0.7-4.4-0.9-6.6
				C8.1,531.3,7.6,526.9,7.4,522.4z"/>
		</g>
		<g>
			<path class="st1" d="M15.3,523c2.1,4.4,3.6,9.2,4.7,13.9c0.6,2.4,1.1,4.8,1.6,7.2c0.4,2.4,0.8,4.8,1.2,7.2l1,7.2l0.5,3.6
				c0.2,1.2,0.3,2.4,0.5,3.6c0.6,4.8,1.3,9.6,2,14.5c-1.9-4.5-3.2-9.3-4.3-14.1c-0.6-2.4-1-4.8-1.4-7.2l-1.2-7.2l-2.1-14.4
				C17.1,532.6,16.3,527.8,15.3,523z"/>
		</g>
		<g>
			<path class="st1" d="M24.2,528.5c2.4,3.6,4.4,7.4,6.2,11.3c0.9,1.9,1.7,3.9,2.6,5.9c0.8,2,1.5,4,2.2,6.1
				c1.4,4.1,2.5,8.3,3.4,12.5c0.9,4.2,1.6,8.5,1.8,12.8c-1.5-4.1-2.8-8.1-4.1-12.2l-4-12.1l-1-3c-0.3-1-0.7-2-1-3l-1-3
				c-0.4-1-0.7-2-1-3C26.9,536.7,25.5,532.7,24.2,528.5z"/>
		</g>
		<g>
			<path class="st1" d="M34.7,529.1c2.6,5.6,4.8,11.3,6.8,17.1c1,2.9,1.9,5.8,2.9,8.7c0.9,2.9,1.7,5.9,2.6,8.8
				c0.8,3,1.6,5.9,2.3,8.9c0.7,3,1.4,6,2,9c1.2,6,2.3,12,2.9,18.1c-1.9-5.8-3.5-11.7-5.2-17.6l-4.9-17.6l-4.8-17.6
				C37.7,541,36.1,535.1,34.7,529.1z"/>
		</g>
		<g>
			<path class="st1" d="M692.5,540c-0.9,6.6-2.4,13-4.2,19.4c-0.5,1.6-0.9,3.2-1.4,4.8l-1.5,4.7c-0.5,1.6-1.1,3.1-1.7,4.7l-1.8,4.6
				l-1.9,4.6l-2,4.5l-2.2,4.5c-0.7,1.5-1.5,3-2.3,4.4c-3.1,5.9-6.5,11.5-10.4,16.9c2.8-6,5.6-12,8.3-17.9c0.7-1.5,1.3-3,2-4.5l2-4.5
				l1.9-4.5l1.8-4.6l1.8-4.6c0.6-1.5,1.1-3.1,1.8-4.6l1.7-4.6c0.5-1.6,1.1-3.1,1.7-4.6C688.3,552.6,690.4,546.3,692.5,540z"/>
		</g>
	</g>
</g>
</svg>
