<?xml version="1.0" encoding="utf-8"?>
<!-- Generator: Adobe Illustrator 22.0.1, SVG Export Plug-In . SVG Version: 6.00 Build 0)  -->
<svg version="1.1" id="圖層_1" xmlns="http://www.w3.org/2000/svg" xmlns:xlink="http://www.w3.org/1999/xlink" x="0px" y="0px"
	 viewBox="0 0 750 700" style="enable-background:new 0 0 750 700;" xml:space="preserve">
<style type="text/css">
	.st0{fill:#B58647;stroke:#534741;stroke-width:3;stroke-miterlimit:10;}
	.st1{fill:#534741;}
</style>
<g>
	<g>
		<path class="st0" d="M745.4,516.2c0,0,0,0-7.4,58.8c-23.5,148.6-127.5,124.6-127.5,124.6s-229,0-235.2,0
			c-6.2,0-299.6-4.8-326.8-9.6c-27.2-4.8-53.8-26.3-45.8-59.9c8-33.6,0-106.7,0-106.7C202,583.3,745.4,516.2,745.4,516.2z"/>
		<g>
			<path class="st1" d="M5.6,604.3c30.7,2.3,61.4,4.2,92.1,5.9c30.7,1.7,61.4,3.2,92.1,4.4c61.4,2.4,122.9,3.9,184.4,3.8
				c30.7-0.1,61.5-0.6,92.2-1.6c15.4-0.5,30.8-1.2,46.1-2c15.4-0.8,30.7-1.8,46-3c30.7-2.3,61.2-5.6,91.5-10.8
				c15.2-2.6,30.2-5.8,45-9.9c3.7-1,7.3-2.2,11-3.3c1.8-0.5,3.6-1.2,5.4-1.8c1.8-0.6,3.6-1.2,5.4-1.9c7.2-2.8,14.2-5.9,20.9-9.7
				l0.2,0.3c-6.6,3.9-13.6,7.3-20.7,10.2c-1.8,0.8-3.6,1.4-5.4,2.1s-3.6,1.4-5.4,2c-3.7,1.2-7.3,2.5-11,3.5
				c-14.8,4.4-29.9,7.8-45,10.6c-15.2,2.9-30.4,5.1-45.7,7c-15.2,1.9-30.6,3.4-45.9,4.7c-15.4,1.2-30.7,2.3-46.1,3.1
				c-15.3,0.7-30.7,1.4-46.1,1.8c-30.8,0.8-61.5,1.1-92.3,1c-61.5-0.2-123-2-184.5-4.7c-30.7-1.4-61.4-3.1-92.1-5s-61.3-4-92-6.5
				L5.6,604.3z"/>
		</g>
	</g>
	<g>
		<g>
			<path class="st1" d="M710.4,598.9c-2.1,1-4.2,1.9-6.3,2.8l-6.4,2.6l-6.5,2.4l-6.5,2.2l-6.6,2l-6.6,1.8l-6.7,1.6
				c-2.2,0.5-4.5,1-6.7,1.4c-9,1.7-18.2,2.9-27.3,3.3c9-1.6,18-3.4,26.8-5.5c2.2-0.5,4.4-1.1,6.6-1.6l6.6-1.8l6.5-1.9l6.5-2l6.5-2.1
				l6.4-2.3l6.4-2.4c2.1-0.9,4.2-1.7,6.3-2.5c8.4-3.4,16.7-7.1,25-11C726.7,590.9,718.6,595.2,710.4,598.9z"/>
		</g>
		<g>
			<path class="st1" d="M702.3,612.3c-2.3,0.8-4.6,1.7-6.9,2.5l-6.9,2.3l-7,2.1l-7,2l-7.1,1.8l-7.1,1.6l-7.2,1.5
				c-2.4,0.5-4.8,0.9-7.2,1.3c-9.7,1.6-19.4,2.7-29.1,3.2c9.6-1.7,19.1-3.5,28.6-5.5c2.4-0.6,4.7-1.1,7.1-1.6l7.1-1.7l7.1-1.7l7-1.9
				l7-1.9l7-2l7-2.1c2.3-0.7,4.6-1.5,6.9-2.2c9.2-3,18.3-6.2,27.5-9.6C720.5,604.9,711.5,608.8,702.3,612.3z"/>
		</g>
		<g>
			<path class="st1" d="M695.5,623.2c-2.2,0.8-4.5,1.5-6.7,2.3l-6.7,2.4c-4.5,1.5-9,3.1-13.5,4.6l-6.8,2.2l-6.9,2l-6.9,1.7
				c-2.3,0.5-4.7,0.9-7,1.4c-9.4,1.7-19.1,2.4-28.5,1.2c9.5-0.1,18.8-1.4,28-3.5l6.8-1.7l6.8-1.9l6.8-2.1l6.7-2.2l13.5-4.5
				c4.5-1.4,9-2.9,13.6-4.2c9.1-2.6,18.4-4.8,27.9-5.7C713.3,617.3,704.3,620.1,695.5,623.2z"/>
		</g>
		<g>
			<path class="st1" d="M699.6,634c-4,1.7-8.1,3.2-12.1,4.8c-4.1,1.5-8.2,3-12.3,4.3c-4.2,1.3-8.4,2.5-12.6,3.5s-8.5,1.9-12.8,2.4
				c-8.6,1.2-17.5,1.3-26-0.2c8.6,0.2,17.2-0.6,25.6-2.1c4.2-0.8,8.4-1.7,12.5-2.8s8.2-2.3,12.3-3.6c4.1-1.3,8.1-2.7,12.2-4.1
				l12.2-4.3c8.2-2.8,16.4-5.6,24.8-7.7L699.6,634z"/>
		</g>
		<g>
			<path class="st1" d="M697.7,643.7c-3.7,1.5-7.4,2.8-11.1,4.2c-3.8,1.3-7.5,2.6-11.3,3.8c-3.8,1.1-7.6,2.3-11.4,3.4
				c-3.8,1-7.6,2.1-11.5,3c-7.7,1.9-15.5,3.5-23.3,4.6c7.6-2.4,15.2-4.6,22.7-6.9l11.3-3.5l5.6-1.8l5.6-1.8l5.6-1.8l5.6-1.9
				l11.2-3.8c7.5-2.5,15-5.1,22.5-7.6C712.2,637.2,704.9,640.4,697.7,643.7z"/>
		</g>
		<g>
			<path class="st1" d="M688.8,656.4c-2,0.8-4,1.6-6,2.3l-6.1,2.1l-6.2,1.9l-6.2,1.7l-6.3,1.5l-6.3,1.3l-6.3,1.1
				c-2.1,0.3-4.3,0.6-6.4,0.9c-8.5,1.1-17.1,1.6-25.7,1.4c8.5-1,16.9-2.2,25.3-3.7c2.1-0.4,4.2-0.8,6.3-1.2l6.2-1.3l6.2-1.4l6.2-1.6
				l6.2-1.6l6.1-1.8l6.1-1.9c2.1-0.7,4.1-1.3,6.1-2c8-2.8,16-5.9,23.9-9.1C704.5,649.3,696.8,653.1,688.8,656.4z"/>
		</g>
		<g>
			<path class="st1" d="M673.5,668.7l-11.9,3.8l-12,3.7l-6,1.7l-6.1,1.6l-6.1,1.4c-2.1,0.4-4.1,0.8-6.2,1.2
				c-8.2,1.5-16.6,2.3-25,1.9c8.4-0.8,16.5-2.3,24.6-4.2c2-0.5,4-1,6-1.5l6-1.6l6-1.7l6-1.8l12-3.5c4-1.1,8-2.3,12.1-3.3
				c8-2.1,16.3-3.8,24.6-4.6C689.4,663.8,681.5,666.1,673.5,668.7z"/>
		</g>
		<g>
			<path class="st1" d="M668.7,679.3l-11.6,3.7c-3.9,1.2-7.9,2.4-11.8,3.5c-4,1.1-8,2-12,2.8c-4,0.7-8.1,1.3-12.2,1.6
				c-8.2,0.6-16.6,0-24.4-2.4c8.1,1.2,16.2,1,24.2,0c4-0.6,8-1.2,11.9-2.1c4-0.9,7.9-1.8,11.8-2.9c3.9-1,7.8-2.2,11.7-3.3
				c3.9-1.1,7.8-2.2,11.8-3.2c7.9-2,16-3.7,24.2-4.1C684.3,674.6,676.5,676.9,668.7,679.3z"/>
		</g>
		<g>
			<path class="st1" d="M656.5,690c-3.1,0.7-6.2,1.3-9.3,1.9l-9.3,1.8l-9.3,1.6c-3.1,0.5-6.2,1.1-9.3,1.5
				c-6.3,0.9-12.5,1.8-18.8,2.4c6-1.8,12.1-3.3,18.3-4.7c3-0.7,6.1-1.3,9.2-2l9.3-1.8l9.3-1.6c3.2-0.5,6.3-1,9.4-1.4
				c6.2-0.8,12.5-1.6,18.8-2C668.7,687.3,662.5,688.7,656.5,690z"/>
		</g>
		<g>
			<path class="st1" d="M610.6,619.5c-2.7,0.6-5.4,1.2-8.1,1.8l-8.1,1.7l-8.3,1.6l-8.2,1.4l-8.2,1.3l-8.2,1.1l-8.3,1
				c-2.8,0.3-5.5,0.5-8.3,0.8c-11,1-22.1,1.6-33.2,1.7c11-1.3,22-2.6,33-4c2.7-0.4,5.5-0.7,8.2-1.1l8.2-1.2l8.2-1.2l8.2-1.3l8.2-1.4
				l8.2-1.4l8.2-1.5c2.7-0.6,5.4-1.1,8.1-1.6c10.8-2.1,21.6-4.4,32.5-6.7C632.2,614,621.5,616.9,610.6,619.5z"/>
		</g>
		<g>
			<path class="st1" d="M603.6,629.1l-15.2,3.2c-5.1,1.1-10.2,2.1-15.3,3.1l-7.7,1.4l-7.7,1.3l-7.8,1c-2.6,0.3-5.2,0.6-7.8,0.8
				c-10.4,0.8-20.9,0.8-31.2-0.8c10.4,0.3,20.8-0.3,31-1.6l7.7-1l7.7-1.2l7.6-1.3l7.6-1.5l15.3-2.9c5.2-0.9,10.3-1.9,15.4-2.7
				c10.2-1.7,20.6-3,31-3.1C623.9,625.2,613.7,627.1,603.6,629.1z"/>
		</g>
		<g>
			<path class="st1" d="M588.4,644.4c-2.5,0.5-5,1.1-7.6,1.6l-7.7,1.4l-7.7,1.2l-7.8,1l-7.8,0.7l-7.8,0.5l-7.8,0.3
				c-2.6,0-5.2,0-7.8,0c-10.4-0.1-20.8-0.9-31.1-2.4c10.4,0.3,20.8,0.3,31.1,0c2.5-0.1,5.1-0.2,7.7-0.3l7.7-0.5l7.7-0.6l7.7-0.8
				l7.7-0.9l7.7-1.1l7.7-1.2c2.5-0.4,5-0.9,7.6-1.3c10.2-1.9,20.3-4.1,30.4-6.6C608.6,639.1,598.6,642,588.4,644.4z"/>
		</g>
		<g>
			<path class="st1" d="M589.4,649.9c-4.8,0.8-9.7,1.4-14.5,2.1l-7.3,0.9l-7.3,0.7l-7.3,0.5l-7.3,0.4l-7.3,0.2c-2.4,0.1-4.9,0-7.3,0
				c-9.8-0.2-19.6-1-29.2-2.8c9.8,0.6,19.5,0.7,29.2,0.5c2.4-0.1,4.9-0.1,7.3-0.2l7.3-0.4l7.3-0.5l7.3-0.6l7.3-0.7l7.3-0.8l14.5-1.6
				c9.7-1.1,19.4-2.3,29.1-3.2C609,646.5,599.4,648.3,589.4,649.9z"/>
		</g>
		<g>
			<path class="st1" d="M598.3,654.7c-2.3,0.5-4.6,1-6.9,1.4l-6.9,1.3l-6.9,1.1l-6.9,1l-7,0.9l-7,0.8c-4.7,0.5-9.3,0.9-14,1.2
				c-9.4,0.6-18.7,0.9-28.1,0.7l27.9-3c2.3-0.3,4.6-0.5,6.9-0.8l6.9-0.9l6.9-0.9l6.9-1l6.9-1l6.9-1l6.9-1.1c2.3-0.4,4.6-0.7,6.9-1.1
				l27.6-4.7C616.4,650.3,607.3,652.6,598.3,654.7z"/>
		</g>
		<g>
			<path class="st1" d="M600.7,659.3c-2.7,0.6-5.3,1.1-8,1.6l-8.1,1.4l-8.1,1.2l-8.1,1l-8.1,0.8l-8.1,0.7l-8.2,0.5
				c-2.8,0.1-5.5,0.2-8.2,0.3c-10.9,0.2-21.8,0-32.6-0.9c10.8-0.4,21.7-0.8,32.5-1.5c2.7-0.2,5.4-0.4,8.1-0.6l8.1-0.7l8.1-0.8
				l8.1-0.9l8.1-1l8-1.1l8-1.2c2.6-0.5,5.3-0.9,8-1.3c10.7-1.8,21.3-3.8,32-6C621.8,654.2,611.3,656.9,600.7,659.3z"/>
		</g>
		<g>
			<path class="st1" d="M599.8,669.2c-4.8,1-9.6,1.8-14.4,2.7l-7.2,1.2l-7.2,1.1l-7.2,0.9l-7.3,0.8c-4.9,0.5-9.7,1-14.6,1.3
				c-9.7,0.7-19.5,1-29.2,0.9l29-3.2c2.4-0.3,4.8-0.6,7.2-0.9l7.2-0.9l7.2-0.9l7.2-1l7.2-1l7.2-1.1l7.2-1.1c2.4-0.4,4.8-0.7,7.2-1.1
				l28.8-4.7C618.7,664.9,609.3,667.2,599.8,669.2z"/>
		</g>
		<g>
			<path class="st1" d="M582.9,682.2c-3.9,0.4-7.8,0.8-11.7,1.1c-3.9,0.3-7.8,0.5-11.7,0.8c-3.9,0.2-7.8,0.4-11.7,0.5
				c-3.9,0.1-7.8,0.3-11.7,0.3c-7.8,0.1-15.7,0-23.5-0.5c7.8-0.7,15.6-1.3,23.4-1.8c3.9-0.3,7.8-0.5,11.7-0.8l11.7-0.7l11.7-0.6
				c3.9-0.2,7.8-0.4,11.7-0.6c7.8-0.3,15.7-0.7,23.5-0.8C598.6,680.5,590.8,681.4,582.9,682.2z"/>
		</g>
		<g>
			<path class="st1" d="M576,689.7c-2.3,0.2-4.5,0.5-6.8,0.7l-6.8,0.6l-7.1,0.5l-6.8,0.4l-6.8,0.2l-6.8,0.1l-6.8-0.1
				c-2.3-0.1-4.5-0.1-6.8-0.2c-9-0.3-18.1-1-27.1-2.2c9.1,0,18.2,0,27.2-0.1c2.3,0,4.5-0.1,6.8-0.1l6.8-0.2l6.8-0.2l6.8-0.3l6.8-0.3
				l6.8-0.4l6.8-0.4c2.3-0.1,4.5-0.3,6.8-0.4c9-0.6,18-1.3,27.1-2C594,687.3,585,688.6,576,689.7z"/>
		</g>
		<g>
			<path class="st1" d="M493,626.4c-5.2,0.6-10.3,1.1-15.5,1.6s-10.3,1-15.5,1.4c-5.2,0.4-10.3,0.8-15.5,1.1
				c-5.1,0.3-10.3,0.6-15.5,0.8c-10.3,0.4-20.7,0.7-31.1,0.5c10.3-1.1,20.7-1.9,31-2.8l31-2.5l31-2.3c10.3-0.7,20.6-1.5,31-2
				C513.6,624,503.3,625.3,493,626.4z"/>
		</g>
		<g>
			<path class="st1" d="M490.1,634.8c-4.7,0.4-9.3,0.6-13.9,0.9l-13.9,0.7l-13.9,0.6c-4.6,0.1-9.3,0.3-13.9,0.4
				c-9.3,0.2-18.5,0.3-27.8,0.1c9.2-1,18.5-1.8,27.7-2.4c4.7-0.4,9.3-0.6,13.9-0.9l13.9-0.7l13.9-0.5c4.6-0.1,9.3-0.3,13.9-0.4
				c9.3-0.2,18.5-0.3,27.8-0.1C508.6,633.5,499.4,634.3,490.1,634.8z"/>
		</g>
		<g>
			<path class="st1" d="M496.5,646.7c-2.1,0.2-4.1,0.3-6.2,0.5l-6.2,0.4l-6.2,0.3l-6.2,0.2h-6.2l-6.2-0.1c-4.1-0.2-8.3-0.3-12.4-0.6
				c-8.3-0.5-16.5-1.4-24.7-2.8l24.8,0.5c2.1,0,4.1,0.1,6.2,0.1h6.2h6.2l6.2-0.1l6.2-0.1l6.2-0.2l6.2-0.2c2.1-0.1,4.1-0.1,6.2-0.2
				l24.7-1.2C513.2,644.9,504.9,646,496.5,646.7z"/>
		</g>
		<g>
			<path class="st1" d="M494.4,656.7c-2.5,0.4-5,0.8-7.5,1.2l-7.5,1l-7.6,0.9l-7.6,0.8l-7.6,0.6l-7.6,0.5l-7.6,0.3
				c-2.5,0.1-5.1,0.1-7.6,0.2c-10.1,0.2-20.3,0-30.4-0.7c10.1-0.5,20.2-1,30.3-1.6c2.6-0.2,5.1-0.4,7.6-0.5l7.6-0.6l7.5-0.6l7.5-0.7
				l7.5-0.7l7.5-0.8l7.5-0.8c2.5-0.3,5-0.6,7.5-0.9c10-1.2,20.1-2.6,30.1-3.9C514.2,652.9,504.3,654.9,494.4,656.7z"/>
		</g>
		<g>
			<path class="st1" d="M494.4,666.9c-2.5,0.4-4.9,0.8-7.4,1.1l-7.4,0.9l-7.4,0.7l-7.4,0.5l-7.4,0.3l-7.4,0.1l-7.4-0.1
				c-2.4-0.1-4.9-0.2-7.4-0.3c-9.9-0.4-19.7-1.4-29.5-3.1c9.9,0.4,19.7,0.8,29.6,0.8c2.5,0,4.9,0,7.4,0l7.4-0.1l7.4-0.2l7.4-0.4
				l7.4-0.4l7.4-0.6l7.4-0.7c2.4-0.3,4.8-0.6,7.3-0.8c9.8-1.1,19.6-2.5,29.4-4C514.3,663.3,504.6,665.4,494.4,666.9z"/>
		</g>
		<g>
			<path class="st1" d="M485.5,677.2c-4.8,0.5-9.7,1-14.6,1.4c-4.9,0.4-9.8,0.7-14.7,1c-4.9,0.2-9.8,0.4-14.7,0.6
				c-4.9,0.1-9.8,0.2-14.7,0.2c-9.8,0-19.6-0.2-29.4-0.9c9.8-0.6,19.5-1,29.3-1.5l14.6-0.7l7.3-0.4l7.3-0.4l7.3-0.4l7.3-0.4
				l14.6-0.9c9.8-0.6,19.5-1.3,29.3-1.8C504.7,674.7,495,676,485.5,677.2z"/>
		</g>
		<g>
			<path class="st1" d="M491.1,687.1c-2.4,0.2-4.8,0.5-7.2,0.7l-7.3,0.5l-7.3,0.3l-7.3,0.1l-7.3-0.1l-7.3-0.3l-7.3-0.5
				c-2.4-0.2-4.8-0.4-7.2-0.7c-9.6-1.2-19.2-2.9-28.6-5.3c9.6,1.2,19.2,2.2,28.8,2.9c2.4,0.2,4.8,0.3,7.2,0.5l7.2,0.3l7.2,0.2
				l7.2,0.1h7.2l7.2-0.2l7.2-0.3c2.4-0.1,4.8-0.3,7.2-0.4c9.6-0.6,19.2-1.6,28.8-2.8C510.1,684.5,500.5,686.2,491.1,687.1z"/>
		</g>
		<g>
			<path class="st1" d="M502.3,693.2c-2.4,0.3-4.8,0.6-7.2,0.9l-7.2,0.7l-7.2,0.5l-7.2,0.4l-7.2,0.2h-7.2l-7.2-0.2
				c-2.4-0.1-4.8-0.2-7.2-0.3c-9.6-0.6-19.2-1.6-28.7-3.3c9.6,0.5,19.2,0.9,28.8,1c2.4,0,4.8,0.1,7.2,0.1h7.2l7.2-0.1l7.2-0.2
				l7.2-0.3l7.2-0.4l7.2-0.5c2.4-0.2,4.8-0.4,7.2-0.6c9.5-0.8,19-1.9,28.6-3.1C521.7,690.4,512.2,692.1,502.3,693.2z"/>
		</g>
		<g>
			<path class="st1" d="M566.5,695.1c-3.5,0-6.9,0-10.4,0l-10.4-0.1l-10.4-0.3c-3.5-0.2-6.9-0.3-10.4-0.5
				c-6.9-0.4-13.9-0.8-20.8-1.6c6.9-0.4,13.9-0.6,20.8-0.7c3.5,0,6.9,0,10.4,0l10.4,0.1l10.4,0.3c3.5,0.2,6.9,0.3,10.4,0.5
				c6.9,0.4,13.9,0.8,20.8,1.6C580.3,694.9,573.4,695.1,566.5,695.1z"/>
		</g>
		<g>
			<path class="st1" d="M384.2,629.4c-2.4,0.1-4.7,0.3-7.1,0.4l-7.1,0.3l-7.1,0.1h-7.1l-7.1-0.2l-7.1-0.3l-7.1-0.5
				c-2.4-0.2-4.7-0.4-7.1-0.6c-9.4-0.8-18.9-2.1-28.2-4c9.5,0.6,18.9,1.2,28.4,1.7c2.4,0.1,4.7,0.2,7.1,0.3l7.1,0.2l7.1,0.2l7.1,0.1
				l7.1,0.1h7.1l7.1-0.1c2.4,0,4.7-0.1,7.1-0.1c9.4-0.3,18.9-0.7,28.4-1.1C403.5,627.6,394,628.6,384.2,629.4z"/>
		</g>
		<g>
			<path class="st1" d="M397.6,642.5c-2.6,0.3-5.1,0.6-7.7,0.8l-7.7,0.6l-7.7,0.4l-7.7,0.2l-7.7-0.1l-7.7-0.2l-7.7-0.5
				c-2.6-0.2-5.1-0.5-7.7-0.7c-10.3-1-20.4-2.6-30.4-5c10.2,1.1,20.4,2.1,30.6,2.7c2.5,0.1,5.1,0.2,7.6,0.4l7.6,0.3l7.6,0.2h7.6
				l7.6-0.1l7.6-0.3l7.6-0.4c2.5-0.2,5.1-0.3,7.6-0.5c10.2-0.8,20.3-1.9,30.5-3.2C417.6,639.6,407.4,641.4,397.6,642.5z"/>
		</g>
		<g>
			<path class="st1" d="M396.8,651.3c-5.2,0.5-10.4,0.7-15.7,1l-7.9,0.3l-7.9,0.2h-7.9l-7.9-0.1c-5.3-0.1-10.5-0.2-15.8-0.5
				c-10.5-0.5-21-1.3-31.4-2.6l31.5,0.3c2.7,0,5.3,0,7.9,0h7.9h7.9l7.9-0.1l7.9-0.1l7.9-0.2l7.9-0.2c2.7-0.1,5.3-0.1,7.9-0.2
				l31.5-1.2C418.1,649.6,407.6,650.7,396.8,651.3z"/>
		</g>
		<g>
			<path class="st1" d="M397.1,665.6c-2.7,0.5-5.3,1-7.9,1.4l-7.9,1l-8,0.7l-8,0.3h-8l-8-0.4l-8-0.7c-2.6-0.4-5.3-0.7-7.9-1.1
				c-10.5-1.7-20.9-4.3-30.8-8c10.3,2.5,20.6,4.5,31.1,5.7c2.6,0.3,5.2,0.5,7.8,0.8l7.9,0.5l7.9,0.3h7.9l7.9-0.3l7.9-0.6l7.8-0.8
				c2.6-0.4,5.2-0.7,7.8-1.1c10.4-1.6,20.7-4,30.9-6.9C417.7,660.5,407.5,663.5,397.1,665.6z"/>
		</g>
		<g>
			<path class="st1" d="M384.7,672.8c-2.4,0.2-4.9,0.4-7.4,0.6l-7.5,0.4l-7.5,0.3l-7.5,0.2h-7.5l-7.5-0.1l-7.5-0.3
				c-2.5-0.2-5-0.3-7.5-0.5c-10-0.7-19.9-1.8-29.7-3.5c10,0.4,19.9,0.8,29.8,1.1c2.4,0.1,4.9,0.1,7.4,0.2l7.4,0.1l7.4,0.1h7.4
				l7.4-0.1l7.4-0.2l7.4-0.2c2.4-0.1,4.9-0.2,7.4-0.3c9.9-0.4,19.8-1,29.7-1.6C404,670.9,394.1,672.1,384.7,672.8z"/>
		</g>
		<g>
			<path class="st1" d="M387.7,682.8c-2.6,0.2-5.2,0.4-7.8,0.6l-7.8,0.5l-7.8,0.3l-7.8,0.2l-7.8,0.1h-7.8
				c-5.3-0.1-10.5-0.2-15.7-0.5c-10.4-0.5-20.8-1.3-31.2-2.6l31.3,0.3c2.6,0,5.2,0,7.8,0h7.8l7.8-0.1l7.8-0.1l7.8-0.1l7.8-0.2
				l7.8-0.2c2.6-0.1,5.2-0.2,7.8-0.3l31.2-1.4C408.6,681,398.2,682.2,387.7,682.8z"/>
		</g>
		<g>
			<path class="st1" d="M386.3,694.4c-2.5,0.2-5.1,0.4-7.6,0.6l-7.6,0.3l-7.6,0.1l-7.6-0.1l-7.6-0.4l-7.6-0.6l-7.6-0.8
				c-2.6-0.3-5.1-0.6-7.6-1c-10-1.5-20-3.6-29.7-6.5c10,1.7,20,3.1,30,4.2c2.5,0.2,5,0.4,7.5,0.7l7.5,0.6l7.5,0.5l7.6,0.3l7.6,0.2
				h7.6l7.6-0.1c2.6-0.1,5.1-0.2,7.6-0.3c10.1-0.5,20.1-1.3,30.2-2.4C406.6,692,396.5,693.5,386.3,694.4z"/>
		</g>
		<g>
			<path class="st1" d="M399.1,689.6l-27.5,0.6l-27.5,0.6c-9.2,0.3-18.4,0.5-27.6,0.5c9.2-1.3,18.3-2.2,27.5-2.8
				c4.6-0.3,9.2-0.6,13.8-0.8c4.6-0.2,9.2-0.4,13.8-0.5c4.6,0,9.2-0.1,13.8-0.1c4.6,0,9.2,0.1,13.8,0.2c9.2,0.3,18.4,0.7,27.6,1.6
				C417.6,689.2,408.4,689.4,399.1,689.6z"/>
		</g>
		<g>
			<path class="st1" d="M272.3,626.8c-2.6,0-5.3,0-7.9,0l-7.9-0.2l-7.9-0.4l-7.9-0.5l-7.8-0.7l-7.8-0.9l-7.8-1.1
				c-2.6-0.4-5.2-0.9-7.8-1.3c-10.4-1.8-20.6-4.1-30.7-7c10.3,1.7,20.6,3.4,31,4.7c2.6,0.3,5.2,0.7,7.8,1l7.8,0.9l7.8,0.8l7.8,0.6
				l7.8,0.6l7.8,0.4l7.8,0.4c2.6,0.1,5.2,0.2,7.8,0.3c10.5,0.3,20.9,0.3,31.4,0.2C293.2,625.9,282.7,626.6,272.3,626.8z"/>
		</g>
		<g>
			<path class="st1" d="M279.2,633.5c-2.8,0.1-5.6,0.1-8.4,0.1l-8.4-0.1l-8.4-0.2l-8.4-0.3l-8.4-0.5l-8.4-0.6l-8.4-0.8
				c-2.7-0.3-5.5-0.6-8.3-0.9c-11.1-1.3-22.1-3-33.1-5.2c11.1,1,22.2,2,33.3,2.9c2.7,0.2,5.5,0.4,8.3,0.6l8.3,0.6l8.3,0.5l8.3,0.4
				l8.3,0.4l8.3,0.3l8.3,0.3c2.8,0,5.6,0.1,8.4,0.2c11.2,0.2,22.3,0.4,33.5,0.5C301.2,632.8,290,633.4,279.2,633.5z"/>
		</g>
		<g>
			<path class="st1" d="M285.1,643.7c-2.4,0.2-4.8,0.4-7.2,0.5l-7.2,0.3l-7.2,0.1h-7.2l-7.2-0.2l-7.2-0.4l-7.2-0.6
				c-2.4-0.2-4.8-0.4-7.2-0.7c-9.6-1.1-19.1-2.7-28.4-4.9c9.5,1,19.1,1.9,28.6,2.6c2.4,0.1,4.8,0.2,7.2,0.4l7.2,0.4l7.2,0.3l7.2,0.1
				l7.2,0.1h7.2l7.2-0.1c2.4-0.1,4.8-0.1,7.2-0.2c9.6-0.4,19.1-1,28.7-1.7C304.6,641.6,295.1,642.9,285.1,643.7z"/>
		</g>
		<g>
			<path class="st1" d="M275.4,650.8c-4.9,0.2-9.8,0.3-14.7,0.4h-7.4l-7.4-0.1l-7.4-0.2l-7.4-0.3l-7.4-0.5c-2.4-0.2-4.9-0.5-7.3-0.7
				c-9.8-1.1-19.5-2.6-29.1-4.9c9.8,1,19.5,1.9,29.3,2.5c2.4,0.1,4.9,0.2,7.3,0.4l7.3,0.3l7.3,0.3l7.3,0.2l7.3,0.1l7.3,0.1l14.7,0.1
				c9.8,0.1,19.6,0.1,29.4,0.4C294.7,649.8,284.9,650.4,275.4,650.8z"/>
		</g>
		<g>
			<path class="st1" d="M283.1,658.4c-4.1,0.8-8.2,1.5-12.4,2.1c-4.2,0.5-8.4,0.9-12.6,1.1c-8.4,0.4-16.9,0-25.3-1.2
				c-8.3-1.2-16.6-3.2-24.5-6c8.3,1.7,16.5,3,24.8,3.7c4.2,0.4,8.3,0.6,12.5,0.7c4.2,0.1,8.4,0.1,12.5-0.1c4.1-0.1,8.3-0.4,12.4-0.9
				s8.2-1.1,12.4-1.6c8.3-1,16.9-1.6,25.2,0.2C299.7,655.8,291.5,657.1,283.1,658.4z"/>
		</g>
		<g>
			<path class="st1" d="M283,671.9c-2.3,0.3-4.7,0.5-7,0.8l-7.1,0.6l-7.1,0.3l-7.1,0.1l-7.1-0.1l-7.1-0.3l-7.1-0.6
				c-2.3-0.2-4.7-0.5-7-0.8c-9.4-1.2-18.7-3.1-27.7-5.7c9.3,1.4,18.6,2.6,27.9,3.4c2.3,0.1,4.7,0.3,7,0.5l7,0.4l7,0.2l7,0.1l7-0.1
				l7-0.2l7-0.4c2.3-0.2,4.7-0.3,7-0.5c9.3-0.8,18.6-2,27.9-3.4C301.4,668.8,292.2,670.7,283,671.9z"/>
		</g>
		<g>
			<path class="st1" d="M279.2,678c-2.2,0.2-4.5,0.4-6.7,0.6l-6.7,0.4l-6.7,0.2h-6.7l-6.7-0.2l-6.7-0.4l-6.7-0.6
				c-2.2-0.2-4.5-0.5-6.7-0.8c-8.9-1.2-17.7-3-26.3-5.5c8.9,1.3,17.7,2.4,26.6,3.2c2.3,0.1,4.5,0.3,6.7,0.5l6.7,0.4l6.7,0.3l6.7,0.2
				l6.7,0.1l6.7-0.1l6.7-0.2c2.3-0.1,4.5-0.2,6.7-0.3c8.9-0.5,17.8-1.3,26.7-2.3C297.5,675.7,288.7,677.2,279.2,678z"/>
		</g>
		<g>
			<path class="st1" d="M278,682.1c-4.3,0.4-8.6,0.7-12.9,1s-8.6,0.4-12.9,0.6c-4.3,0.1-8.6,0.2-12.9,0.2s-8.6,0-12.9-0.2
				c-8.6-0.3-17.2-0.8-25.8-1.8c8.6-0.3,17.2-0.4,25.8-0.6l12.9-0.3l6.4-0.2l6.4-0.2l6.4-0.2l6.4-0.2l12.9-0.5
				c8.6-0.4,17.2-0.8,25.8-1.1C295.1,680.1,286.5,681.1,278,682.1z"/>
		</g>
		<g>
			<path class="st1" d="M281.9,690c-2.1,0.4-4.2,0.7-6.3,1.1l-6.3,0.9l-6.3,0.6l-6.4,0.4l-6.4,0.1l-6.4-0.2l-6.4-0.4
				c-2.1-0.2-4.2-0.5-6.3-0.7c-8.4-1.1-16.8-2.9-24.8-5.5c8.3,1.4,16.6,2.6,25,3.2c2.1,0.1,4.2,0.2,6.3,0.4l6.3,0.2l6.3,0.1l6.3-0.1
				l6.3-0.3l6.3-0.5l6.2-0.7c2-0.3,4.1-0.5,6.2-0.8c8.3-1.2,16.5-2.9,24.7-4.9C298.4,686.1,290.2,688.5,281.9,690z"/>
		</g>
		<g>
			<path class="st1" d="M299.1,694.3c-1.3,0.1-2.5,0.2-3.7,0.3l-3.7,0.1c-2.5,0-4.9-0.1-7.3-0.2l-7.2-0.5l-7.2-0.5
				c-4.8-0.3-9.6-0.5-14.4-0.3c4.7-1.4,9.6-1.9,14.4-2c2.5-0.1,4.9,0,7.3,0l7.2,0.3l3.6,0.2c1.2,0,2.4,0,3.6,0.1l3.6,0.1
				c1.2,0,2.4,0,3.6,0c4.8-0.1,9.5-0.6,14.2-1.7C308.8,692.5,303.9,693.7,299.1,694.3z"/>
		</g>
		<g>
			<path class="st1" d="M169.6,623.7c-2.1,0-4.2,0-6.3,0l-6.3-0.1l-6.3-0.3l-6.3-0.4l-6.3-0.5l-6.3-0.6c-4.2-0.5-8.4-0.9-12.6-1.6
				c-8.3-1.3-16.6-2.9-24.8-5c8.4,0.9,16.7,1.9,25.1,2.7c2.1,0.2,4.2,0.4,6.3,0.6l6.3,0.5l6.3,0.5l6.3,0.4l6.3,0.4l6.3,0.4l6.3,0.3
				c2.1,0.1,4.2,0.2,6.3,0.3c8.4,0.3,16.8,0.5,25.2,0.8C186.7,623.1,178.3,623.5,169.6,623.7z"/>
		</g>
		<g>
			<path class="st1" d="M170.2,629.7l-24.1-1.8l-24.1-2c-8-0.7-16.1-1.4-24.1-2.3c8.1-0.3,16.1-0.2,24.2,0c4,0.1,8.1,0.3,12.1,0.5
				c4.1,0.2,8.1,0.5,12.1,0.8c4.1,0.4,8.1,0.7,12.1,1.1c4,0.5,8,0.9,12,1.4c8,1,16,2.2,23.9,3.8
				C186.2,630.9,178.2,630.3,170.2,629.7z"/>
		</g>
		<g>
			<path class="st1" d="M180.9,638.1c-4.7,0.3-9.3,0.4-14,0.5s-9.3,0.1-14,0.1s-9.3-0.1-14-0.2c-4.7-0.2-9.3-0.3-14-0.6
				c-9.3-0.5-18.6-1.2-27.9-2.3c9.3-0.1,18.7,0,28,0l28,0.1l28,0.1c9.3,0,18.6,0,28,0.2C199.7,637.1,190.4,637.7,180.9,638.1z"/>
		</g>
		<g>
			<path class="st1" d="M183,650.4c-8.2,0.3-16.3,0.4-24.5,0.2c-4.1-0.1-8.2-0.3-12.3-0.7c-4.1-0.4-8.2-0.9-12.2-1.6
				c-8.1-1.3-16.1-3.5-23.6-6.7c7.9,2,15.9,3.5,23.9,4.4c8,0.9,16.1,1.4,24.2,1.6c4.1,0.2,8.1,0.2,12.2,0.3
				c4.1,0.1,8.1,0.1,12.2,0.2c8.1,0.2,16.3,0.5,24.4,1.1C199.1,649.8,191,650.2,183,650.4z"/>
		</g>
		<g>
			<path class="st1" d="M189.3,660.4c-4.4,0-8.8-0.2-13.2-0.3s-8.8-0.4-13.2-0.6l-6.6-0.5l-6.6-0.6l-6.6-0.7
				c-2.2-0.3-4.4-0.6-6.6-0.9c-8.8-1.3-17.5-3-26-5.3c8.8,1.2,17.5,2.2,26.3,3c2.2,0.2,4.4,0.4,6.6,0.6l6.6,0.5l6.6,0.5l6.6,0.4
				l6.6,0.4l6.6,0.4l13.2,0.8c8.8,0.5,17.6,1,26.4,1.8C207.2,660.3,198.4,660.5,189.3,660.4z"/>
		</g>
		<g>
			<path class="st1" d="M186.1,670.3c-2,0.1-4,0.2-6,0.2h-6l-6-0.2l-6-0.3l-6-0.5l-5.9-0.6l-5.9-0.8c-2-0.3-3.9-0.6-5.9-1
				c-7.8-1.4-15.6-3.3-23.1-5.9c7.9,1.3,15.7,2.6,23.5,3.6c2,0.2,3.9,0.4,5.9,0.7l5.9,0.6l5.9,0.6l5.9,0.4l5.9,0.4l5.9,0.2l5.9,0.2
				c1.9,0,3.9,0.1,5.9,0.1c7.9,0.1,15.8-0.1,23.8-0.4C202,669.1,194.1,669.9,186.1,670.3z"/>
		</g>
		<g>
			<path class="st1" d="M181.4,681c-2,0.2-4,0.3-6,0.4l-6,0.2l-6,0.1h-6l-6-0.2l-6-0.3l-6-0.5c-2-0.2-4-0.5-6-0.7
				c-7.9-0.9-15.8-2.3-23.6-4.2c8,0.7,16,1.4,23.9,1.9c2,0.1,4,0.3,6,0.4l6,0.3l6,0.2l6,0.2l6,0.1h6h6c2-0.1,4-0.1,6-0.1
				c7.9-0.1,15.9-0.5,23.9-0.8C197.7,679.5,189.8,680.5,181.4,681z"/>
		</g>
		<g>
			<path class="st1" d="M185.6,688.3c-2,0.2-4,0.4-6,0.6l-6.1,0.5l-6.1,0.3l-6.1,0.2h-6.1l-6.1-0.1l-6.1-0.3
				c-2.1-0.2-4.1-0.3-6.1-0.5c-8.1-0.7-16.1-1.9-24-3.6c8,0.4,16.1,0.9,24.1,1.2c2,0.1,4,0.1,6,0.2l6,0.1h6l6-0.1l6-0.1l6-0.2l6-0.3
				c2-0.1,4-0.2,6-0.3c8-0.5,16-1.2,24.1-1.9C201.2,686,193.2,687.3,185.6,688.3z"/>
		</g>
		<g>
			<path class="st1" d="M29.8,615c3.1,0.9,6.2,1.8,9.3,2.6c3.1,0.9,6.2,1.7,9.3,2.5s6.2,1.6,9.3,2.3c3.1,0.8,6.2,1.4,9.3,2.2
				c3.2,0.7,6.3,1.5,9.4,2c3.1,0.5,6.3,0.6,9.4-0.2c-2.9,1.5-6.3,1.8-9.6,1.7s-6.5-0.6-9.7-1.1c-3.2-0.4-6.3-1.1-9.5-1.7
				c-3.1-0.7-6.3-1.4-9.4-2.2s-6.2-1.6-9.3-2.6c-3.1-1-6.2-2-9.2-3.1c-6.1-2.2-12-4.7-17.8-7.6L29.8,615z"/>
		</g>
		<g>
			<path class="st1" d="M27.1,623.9c6.6,2.6,13.2,4.9,19.9,6.8c3.4,0.9,6.8,1.8,10.2,2.5c1.7,0.4,3.4,0.8,5.1,1.1
				c1.8,0.3,3.5,0.6,5.2,0.9c6.9,1.2,13.9,1.9,21,2.5c-7.1,0.7-14.2,0.6-21.3-0.1s-14.1-2.1-21-4c-3.5-1-6.9-2-10.2-3.3
				s-6.6-2.6-9.8-4.2c-6.4-3-12.5-6.4-19.2-8.7C14,618.5,20.6,621.4,27.1,623.9z"/>
		</g>
		<g>
			<path class="st1" d="M31.8,634.8c3.8,1,7.6,2,11.5,2.9c3.9,0.9,7.7,1.8,11.6,2.6s7.8,1.6,11.7,2.3s7.8,1.4,11.7,2
				s7.8,1.1,11.7,1.1c3.9,0.1,7.8-0.5,11.6-1.8c-3.5,1.9-7.6,2.9-11.6,3.3c-4,0.4-8.1,0.2-12.1-0.2c-4-0.4-7.9-1-11.9-1.6
				c-4-0.6-7.9-1.4-11.8-2.2c-7.9-1.8-15.6-3.8-23.2-6.3s-15.1-5.4-22.3-8.8C16.3,630.3,23.9,632.6,31.8,634.8z"/>
		</g>
		<g>
			<path class="st1" d="M28.2,642.7c2.2,0.5,4.3,1.1,6.5,1.7l6.6,1.6l6.6,1.4l6.6,1.2l6.7,1.1l6.7,0.9l6.7,0.7
				c2.2,0.2,4.5,0.4,6.7,0.6c9,0.7,18,0.8,27.1,0.7c-9,1.4-18.1,1.9-27.2,1.7c-2.3-0.1-4.5-0.2-6.8-0.3l-6.7-0.6l-6.8-0.8l-6.8-1
				l-6.7-1.3l-6.7-1.5l-6.6-1.8c-2.2-0.6-4.3-1.3-6.5-2c-8.6-2.9-17-6.5-25-10.8C11.1,637.4,19.6,640.3,28.2,642.7z"/>
		</g>
		<g>
			<path class="st1" d="M30.3,648.7l15,4.1c5,1.3,10,2.7,15,3.8c5,1.2,10,2.2,15.1,3.1c5.1,0.9,10.2,1.4,15.3,1.8l3.8,0.2
				c1.3,0,2.6,0,3.9,0h1.9l1.9-0.1c1.3-0.1,2.6-0.1,3.9-0.2c5.2-0.5,10.2-1.4,15.3-2.6c-4.9,1.8-9.9,3.2-15.1,4s-10.5,1.1-15.7,1
				c-10.5-0.3-20.9-2-31-4.4c-10.2-2.4-20.1-5.5-30-8.6c-9.9-3.1-19.8-6.3-29.6-9.8C10.2,643.3,20.2,645.8,30.3,648.7z"/>
		</g>
		<g>
			<path class="st1" d="M30.6,658.3c4.5,1.4,9,2.8,13.5,4.2c4.5,1.4,9,2.8,13.5,4.1c4.5,1.4,9,2.6,13.6,3.7c4.5,1.1,9.1,2,13.7,2.7
				c9.3,1.3,18.7,1.6,28-0.1c-9.1,2.9-18.8,3.3-28.3,2.4c-4.8-0.5-9.4-1.3-14.1-2.3s-9.2-2.3-13.8-3.6c-9.1-2.7-18-5.7-26.9-9
				s-17.6-6.8-26.2-10.8L30.6,658.3z"/>
		</g>
		<g>
			<path class="st1" d="M39.7,671.2c1.2,0.4,2.5,0.7,3.7,1.1c1.2,0.4,2.5,0.8,3.7,1.1c2.5,0.6,5,1.3,7.5,1.8l3.7,0.8l3.8,0.7
				c2.5,0.5,5.1,0.8,7.6,1.2c1.3,0.2,2.5,0.3,3.8,0.5c1.3,0.1,2.5,0.3,3.8,0.4c2.6,0.2,5.1,0.4,7.7,0.5c5.2,0.3,10.3,0.1,15.4,0
				c10.3-0.5,20.5-1.9,30.6-4.1c-9.8,3.3-20,5.4-30.4,6.4c-10.4,0.9-20.9,0.6-31.2-0.7c-10.3-1.4-20.6-3.8-30.3-7.5
				c-9.9-3.6-18.8-8.8-28.6-12.1C20.7,663.5,30.1,668.2,39.7,671.2z"/>
		</g>
		<g>
			<path class="st1" d="M95.6,688.1c-2.3,0.1-4.6,0.2-6.9,0.3l-6.9,0.1c-2.3,0-4.6-0.1-6.9-0.2l-6.9-0.5c-2.3-0.2-4.6-0.5-6.9-0.8
				c-2.3-0.3-4.6-0.7-6.9-1.1l-6.8-1.5c-2.2-0.5-4.5-1.2-6.7-1.8c-8.9-2.6-17.5-6.3-25.3-11.2c8.4,3.8,17.1,6.8,25.9,9l6.7,1.5
				l6.7,1.2l6.8,1l6.8,0.7l6.8,0.5l6.8,0.3l6.8,0.2h6.9c9.2-0.1,18.3-0.6,27.5-1.2C114.1,686.4,105,687.6,95.6,688.1z"/>
		</g>
		<g>
			<path class="st1" d="M73.2,615.5l-8.5-0.2l-8.6-0.3c-2.9-0.1-5.7-0.3-8.6-0.6l-4.3-0.5c-1.5-0.2-2.9-0.5-4.3-0.7
				c-5.7-1-11.3-2.6-16.5-5.1c5.6,1.3,11.2,2.2,16.8,2.8c1.4,0.1,2.8,0.3,4.2,0.4l4.2,0.3l4.3,0.3l4.3,0.2l8.6,0.5
				c2.9,0.2,5.7,0.4,8.6,0.7c5.7,0.6,11.4,1.6,16.9,3.3C84.6,616.1,78.9,615.9,73.2,615.5z"/>
		</g>
		<g>
			<path class="st1" d="M13,636.6c0.7,1.4,1.4,2.8,2.1,4.2l2.2,4.2c0.8,1.3,1.5,2.7,2.3,4.1l2.4,4.1l2.4,4.1l2.5,4l2.5,4
				c0.9,1.3,1.7,2.6,2.6,3.9c3.5,5.2,7.2,10.4,10.9,15.5c-4.6-4.3-8.9-9.1-12.8-14.1c-1-1.2-2-2.5-2.9-3.8l-2.7-3.9l-2.6-4l-2.5-4.1
				l-2.3-4.2c-0.7-1.4-1.5-2.8-2.2-4.2l-2.1-4.3c-0.6-1.5-1.3-2.9-1.9-4.4c-2.4-5.8-4.5-11.9-5.9-18.1
				C7.7,625.4,10.3,631.1,13,636.6z"/>
		</g>
		<g>
			<path class="st1" d="M17.9,615.8l2.7,6.1l2.9,6l3,5.9l3.2,5.8l3.3,5.7l3.5,5.7l3.5,5.6c1.2,1.9,2.4,3.7,3.6,5.6
				c4.9,7.4,9.9,14.8,14.7,22.3c-5.8-6.7-11.3-13.7-16.6-20.9c-1.3-1.8-2.6-3.6-3.9-5.4l-3.8-5.5c-1.2-1.9-2.4-3.8-3.6-5.7l-3.5-5.8
				l-3.2-5.9c-1-2-2-4-3-6l-2.7-6.1c-0.8-2.1-1.6-4.2-2.4-6.3c-3-8.4-5.1-17.2-5.9-26.1C11.7,599.5,14.4,607.9,17.9,615.8z"/>
		</g>
		<g>
			<path class="st1" d="M13.5,552.8c0.3,1.6,0.6,3.3,0.9,4.9l1,4.9c0.4,1.6,0.7,3.3,1.1,4.9l1.2,4.9l1.2,4.9l1.3,4.8l1.4,4.8
				c0.5,1.6,1,3.2,1.5,4.8c2,6.4,4.2,12.7,6.5,19.1c-3.4-5.8-6.2-12-8.7-18.3c-0.6-1.6-1.2-3.2-1.8-4.8l-1.6-4.8l-1.4-4.9l-1.3-4.9
				l-1.1-5l-1-5l-0.8-5c-0.2-1.6-0.4-3.3-0.6-5c-0.8-6.8-1.1-13.5-0.7-20.3C11.5,539.5,12.4,546.1,13.5,552.8z"/>
		</g>
		<g>
			<path class="st1" d="M24.5,553c0.3,1.6,0.6,3.2,0.9,4.8l1,4.7c0.4,1.6,0.7,3.1,1.1,4.7l1.2,4.7l1.3,4.7l1.5,4.6l1.6,4.6
				c0.6,1.6,1.2,3.1,1.7,4.6c2.3,6,4.9,12,7.7,17.9c-3.8-5.3-7.1-11-9.8-17c-0.7-1.5-1.4-3-2-4.5l-1.8-4.6l-1.6-4.7l-1.4-4.7
				l-1.2-4.8c-0.3-1.6-0.7-3.2-1-4.8l-0.8-4.9c-0.2-1.6-0.4-3.3-0.6-4.9c-0.7-6.6-0.8-13.2-0.2-19.7C22.7,540.2,23.5,546.6,24.5,553
				z"/>
		</g>
		<g>
			<path class="st1" d="M35.2,552.5c0.4,1.5,0.8,3.1,1.2,4.6l1.3,4.6c0.4,1.5,0.8,3.1,1.3,4.6l1.5,4.5l1.6,4.5l1.7,4.5l1.8,4.4
				c0.7,1.5,1.3,2.9,1.9,4.4c2.6,5.9,5.4,11.6,8.4,17.3c-4-5.1-7.5-10.6-10.5-16.3c-0.8-1.4-1.5-2.8-2.2-4.3l-2-4.4l-1.8-4.5
				l-1.7-4.6l-1.4-4.6c-0.4-1.6-0.9-3.1-1.3-4.7l-1.1-4.7c-0.3-1.6-0.6-3.2-0.9-4.8c-1-6.4-1.6-12.9-1.4-19.3
				C32.7,540,33.9,546.3,35.2,552.5z"/>
		</g>
		<g>
			<path class="st1" d="M49.9,555.9c0.5,1.6,1,3.3,1.5,4.9l1.6,4.9l1.6,4.9l1.7,4.8l1.8,4.8L60,585l1.9,4.7c0.7,1.5,1.3,3.1,2,4.7
				c2.8,6.3,5.7,12.5,8.7,18.7c-4.1-5.6-7.6-11.6-10.8-17.7c-0.8-1.5-1.6-3-2.3-4.6l-2.2-4.7l-2-4.8l-1.9-4.8l-1.7-4.9l-1.5-4.9
				l-1.4-5c-0.4-1.6-0.8-3.3-1.2-5c-1.6-6.8-2.6-13.6-3.1-20.5C46.2,542.9,47.9,549.5,49.9,555.9z"/>
		</g>
		<g>
			<path class="st1" d="M64.6,539.7c0.4,0.2,0.7,0.5,1,0.8c0.6,0.7,0.9,1.5,1.2,2.3s0.4,1.7,0.6,2.5l0.5,2.4
				c0.6,3.2,1.4,6.4,2.3,9.5c1.8,6.2,4,12.4,6.7,18.3c1.3,3,2.7,5.9,4.3,8.8l1.1,2.2l1.2,2.1c0.8,1.4,1.6,2.8,2.5,4.2
				c3.4,5.5,7.3,10.8,11.4,16c-5-4.3-9.5-9.3-13.4-14.7l-1.5-2c-0.5-0.7-0.9-1.4-1.4-2.1l-1.3-2.1l-1.3-2.2
				c-1.6-2.9-3.1-5.9-4.5-8.9c-0.7-1.5-1.3-3.1-1.9-4.6c-0.6-1.5-1.2-3.1-1.7-4.7s-1-3.2-1.4-4.8c-0.4-1.7-0.9-3.3-1.2-4.9
				c-0.7-3.3-1.2-6.6-1.5-9.9l-0.2-2.5c-0.1-0.8-0.2-1.6-0.3-2.4c-0.2-0.8-0.4-1.5-0.8-2.2c-0.2-0.3-0.4-0.6-0.7-0.9
				c-0.3-0.2-0.7-0.4-1.1-0.5C63.6,539.5,64,539.6,64.6,539.7z"/>
		</g>
		<g>
			<path class="st1" d="M88.3,561.2c0.6,1.5,1.1,3,1.7,4.5l1.8,4.4c0.7,1.5,1.3,2.9,1.9,4.4l2,4.4l2,4.3l2.1,4.3l2.2,4.3
				c0.8,1.4,1.6,2.8,2.3,4.2c3.1,5.6,6.4,11.2,9.7,16.7c-4.4-4.8-8.2-10-11.7-15.5c-0.8-1.3-1.7-2.7-2.5-4.1l-2.4-4.2l-2.2-4.3
				l-2.1-4.4l-1.9-4.5c-0.6-1.5-1.2-3-1.8-4.5l-1.6-4.6c-0.5-1.5-1-3.1-1.5-4.6c-1.8-6.2-3.3-12.6-4.1-19
				C84.2,549.2,86.3,555.3,88.3,561.2z"/>
		</g>
		<g>
			<path class="st1" d="M35.1,626.3c0.9,1.4,1.8,2.8,2.6,4.2l2.6,4.2c0.9,1.4,1.7,2.8,2.6,4.2l2.7,4.2l2.7,4.2l2.7,4.1l2.7,4.1
				c1,1.4,1.9,2.7,2.8,4.1L67.7,676c-4.7-4.7-9-9.8-13.1-15c-2.1-2.6-4-5.3-6-8l-2.8-4.1l-2.8-4.2l-2.6-4.2
				c-0.9-1.4-1.8-2.9-2.6-4.3c-1.7-2.8-3.3-5.7-4.8-8.7c-3.1-5.9-5.9-12-8.2-18.2L35.1,626.3z"/>
		</g>
		<g>
			<path class="st1" d="M52,628.1c0.6,1.6,1.1,3.3,1.6,4.9l1.7,4.9l1.8,4.8l1.9,4.8l2,4.7l2.1,4.7l2.2,4.7c0.8,1.5,1.6,3.1,2.3,4.6
				c3.1,6.1,6.5,12.1,10,18.1c-4.6-5.3-8.6-11-12.1-17c-0.9-1.5-1.8-3-2.6-4.5l-2.4-4.6l-2.2-4.7l-2.1-4.8l-1.9-4.9l-1.7-4.9l-1.5-5
				c-0.4-1.7-0.9-3.4-1.3-5.1c-1.6-6.8-2.8-13.7-3.2-20.6C48.3,614.9,50,621.6,52,628.1z"/>
		</g>
		<g>
			<path class="st1" d="M67.4,633.7c0.9,1.6,1.8,3.2,2.6,4.8l2.7,4.7l2.7,4.7l2.8,4.6l2.9,4.6l2.9,4.5l3,4.5c1.1,1.5,2.1,3,3.1,4.5
				c4.1,5.9,8.4,11.7,12.8,17.5c-5.3-4.9-10.2-10.4-14.7-16.1c-1.1-1.4-2.2-2.8-3.3-4.3l-3.2-4.4l-3.1-4.5l-2.9-4.6l-2.8-4.7
				l-2.7-4.8l-2.5-4.9c-0.9-1.6-1.6-3.2-2.4-4.9c-3-6.6-5.7-13.4-7.7-20.4C60.8,621.1,64,627.5,67.4,633.7z"/>
		</g>
		<g>
			<path class="st1" d="M722,591.1c0.5,0.3,1,0.9,1.3,1.5c0.7,1.3,0.9,2.6,1,4c0.1,1.4-0.2,2.7-0.3,4l-0.2,2l-0.3,2
				c-0.9,5.3-2.1,10.5-3.8,15.6c-3.3,10.2-8,19.9-13.3,29.2c-2.6,4.6-5.5,9.2-8.4,13.6c-2.9,4.4-6,8.9-9.4,13
				c-3.4,4.2-7.2,8.1-11.5,11.3c-2.2,1.6-4.5,3-6.9,4.2s-4.9,2.1-7.5,2.7c1.3-0.5,2.5-0.9,3.7-1.5c0.6-0.3,1.2-0.6,1.8-0.9l1.7-1
				c2.2-1.4,4.3-2.8,6.3-4.6c2-1.7,3.9-3.5,5.6-5.5c1.8-2,3.4-4,5-6.1c3.2-4.2,6.1-8.6,8.9-13.1c2.8-4.4,5.6-8.9,8.2-13.5
				c2.6-4.5,5.1-9.2,7.4-13.9c2.4-4.7,4.4-9.6,6.3-14.5c1.9-4.9,3.4-10,4.6-15.1l0.5-1.9l0.4-1.9c0.2-1.3,0.5-2.6,0.6-3.9
				c0-1.3-0.1-2.6-0.6-3.8c-0.3-0.6-0.6-1.2-1.1-1.6s-1.1-0.6-1.8-0.5C720.9,590.8,721.6,590.9,722,591.1z"/>
		</g>
		<g>
			<path class="st1" d="M712.2,603.2c0.1,1.3-0.1,2.6-0.5,3.8c-0.4,1.3-0.9,2.4-1.4,3.6l-1.4,3.5c-2,4.6-4,9.2-6.1,13.8
				c-2,4.6-4.3,9.1-6.5,13.6c-2.3,4.5-4.7,8.9-7.2,13.3s-5.2,8.7-8,12.9c-2.9,4.2-6,8.2-9.6,11.9c-3.6,3.7-7.6,6.9-12.1,9.4
				c-4.5,2.4-9.6,3.9-14.6,4c5-0.8,9.7-2.6,13.8-5.3c1-0.7,2-1.3,3-2.1c0.9-0.8,1.9-1.6,2.8-2.4c0.9-0.8,1.8-1.7,2.7-2.5
				c0.8-0.9,1.7-1.8,2.5-2.7c6.5-7.4,11.7-16,16.7-24.6c5-8.7,9.6-17.6,14.2-26.5l6.8-13.4l1.7-3.3c0.5-1.1,1.1-2.2,1.6-3.3
				c0.4-1.1,0.8-2.3,0.8-3.5s-0.4-2.5-1.5-3.2C711,600.8,711.7,602.1,712.2,603.2z"/>
		</g>
		<g>
			<path class="st1" d="M694.7,609.2c-0.1,1-0.4,2-0.6,3c-0.4,2-1,4-1.5,6c-1.1,3.9-2.3,7.8-3.7,11.7c-1.3,3.9-2.8,7.7-4.4,11.5
				c-1.6,3.8-3.4,7.5-5.2,11.2c-3.8,7.3-7.8,14.4-12.6,21.2c-1.2,1.7-2.5,3.4-3.9,4.9c-1.4,1.5-2.9,3-4.5,4.3
				c-3.2,2.6-7.1,4.5-11.2,5c4-1.2,7.4-3.3,10.3-6.1c2.9-2.8,5.3-6,7.5-9.4c2.1-3.4,4.2-6.9,6.1-10.5c2-3.6,3.9-7.2,5.7-10.8
				c3.6-7.2,7-14.6,10.1-22.1c1.6-3.8,3.1-7.6,4.5-11.4c0.7-1.9,1.4-3.8,2.1-5.7c0.3-1,0.7-1.9,1-2.9c0.2-1,0.4-2.1-0.3-2.9
				C694.9,607,695,608.2,694.7,609.2z"/>
		</g>
		<g>
			<path class="st1" d="M671.2,629.6c-2,4.1-4.1,8.2-6.2,12.2l-6.4,12.1l-6.5,12c-2.2,4-4.4,8-6.7,11.9c-2.2,4-4.5,8-7.3,11.7
				s-6.4,6.9-10.8,8.4c4.1-2,7.2-5.4,9.6-9.2c2.4-3.7,4.3-7.8,6.4-11.9c2-4.1,4.1-8.1,6.2-12.2l6.4-12.1l6.5-12
				c2.2-4,4.4-8,6.7-11.9c4.5-7.9,9.1-15.8,14-23.5C679.3,613.5,675.3,621.6,671.2,629.6z"/>
		</g>
		<g>
			<path class="st1" d="M736.8,535.6c-0.2,2.2-0.6,4.4-0.9,6.6l-1.1,6.6c-0.8,4.4-1.7,8.8-2.7,13.1c-1,4.3-2.1,8.6-3.5,12.9
				c0.2-4.5,0.6-8.9,1.2-13.3c0.5-4.4,1.2-8.8,2-13.2l1.3-6.5c0.5-2.2,0.9-4.3,1.4-6.5c1-4.3,2.1-8.6,3.5-12.9
				C737.8,526.9,737.3,531.3,736.8,535.6z"/>
		</g>
		<g>
			<path class="st1" d="M727.6,537.3l-2.1,14.4l-1.2,7.2c-0.4,2.4-0.8,4.8-1.4,7.2c-1.1,4.8-2.4,9.6-4.3,14.1
				c0.7-4.9,1.4-9.7,2-14.5c0.2-1.2,0.3-2.4,0.5-3.6l0.5-3.6l1-7.2c0.4-2.4,0.8-4.8,1.2-7.2c0.5-2.4,1-4.8,1.6-7.2
				c1.1-4.7,2.6-9.5,4.7-13.9C729.1,527.8,728.3,532.6,727.6,537.3z"/>
		</g>
		<g>
			<path class="st1" d="M717.1,540.8c-0.3,1-0.6,2-1,3l-1,3c-0.3,1-0.7,2-1,3l-1,3l-4,12.1c-1.3,4.1-2.6,8.1-4.1,12.2
				c0.2-4.3,0.9-8.6,1.8-12.8c0.9-4.2,2-8.4,3.4-12.5c0.7-2.1,1.4-4.1,2.2-6.1c0.9-2,1.7-4,2.6-5.9c1.8-3.9,3.8-7.7,6.2-11.3
				C719.9,532.7,718.5,536.7,717.1,540.8z"/>
		</g>
		<g>
			<path class="st1" d="M706.1,546.9l-4.8,17.6l-4.9,17.6c-1.7,5.9-3.3,11.8-5.2,17.6c0.6-6.1,1.7-12.1,2.9-18.1c0.6-3,1.3-6,2-9
				s1.5-5.9,2.3-8.9c0.9-2.9,1.7-5.9,2.6-8.8c1-2.9,1.9-5.8,2.9-8.7c2-5.8,4.2-11.5,6.8-17.1C709.3,535.1,707.7,541,706.1,546.9z"/>
		</g>
		<g>
			<path class="st1" d="M59.3,558.7c0.6,1.5,1.2,3,1.7,4.6l1.7,4.6c0.7,1.5,1.2,3.1,1.8,4.6l1.8,4.6l1.8,4.6l1.9,4.5l2,4.5
				c0.7,1.5,1.3,3,2,4.5c2.7,5.9,5.5,11.9,8.3,17.9c-3.9-5.4-7.3-11-10.4-16.9c-0.8-1.4-1.6-2.9-2.3-4.4l-2.2-4.5l-2-4.5l-1.9-4.6
				l-1.8-4.6c-0.6-1.6-1.2-3.1-1.7-4.7l-1.5-4.7c-0.5-1.6-0.9-3.2-1.4-4.8c-1.8-6.4-3.3-12.8-4.2-19.4
				C55,546.3,57.1,552.6,59.3,558.7z"/>
		</g>
	</g>
</g>
</svg>
