<?xml version="1.0" encoding="utf-8"?>
<!-- Generator: Adobe Illustrator 22.0.1, SVG Export Plug-In . SVG Version: 6.00 Build 0)  -->
<svg version="1.1" id="圖層_1" xmlns="http://www.w3.org/2000/svg" xmlns:xlink="http://www.w3.org/1999/xlink" x="0px" y="0px"
	 viewBox="0 0 750 700" style="enable-background:new 0 0 750 700;" xml:space="preserve">
<style type="text/css">
	.st0{fill:#B58647;stroke:#534741;stroke-width:3;stroke-miterlimit:10;}
	.st1{fill:#534741;}
	.st2{fill:#B58647;}
</style>
<g>
	<g>
		<path class="st0" d="M751.7,538l-13.2,161c0,0-648.8-6.3-669.4-11.2c0,0-63.3-104.9-67.4-123.1c-4.1-18.2,451.7,71.7,709.1,23.6
			L731,538H751.7z"/>
		<g>
			<path class="st1" d="M54.5,663.1c1.9-1.5,3.7-1.9,5.5-2c0.9-0.1,1.8,0,2.7,0.1l2.7,0.2l10.7,0.7c7.1,0.4,14.3,0.9,21.4,1.4
				c7.1,0.4,14.3,1,21.4,1.5l21.4,1.5l42.8,3.1l21.4,1.4l21.4,1.3l42.9,2.2l42.9,1.9c28.6,1.2,57.2,2.3,85.8,3.3
				c28.6,1.1,57.2,2.1,85.8,2.9c28.6,0.8,57.2,1.4,85.8,1.7c28.6,0.3,57.2-0.1,85.8-1.1c3.6-0.1,7.1-0.2,10.7-0.4l10.7-0.4
				c7.1-0.3,14.2-0.7,21.4-1.1c3.5-0.3,7.1-0.5,10.6-0.8l5.3-0.4l5.3-0.5c3.5-0.4,7-0.8,10.5-1.4c1.7-0.3,3.4-0.6,5.2-0.6
				c1.8,0.1,3.6,0.1,5.7,0.9l0.1,0.3c-0.7,0.9-1.4,1.5-2.2,2.1c-0.4,0.3-0.8,0.6-1.2,0.8c-0.4,0.2-0.8,0.4-1.3,0.6
				c-1.7,0.7-3.5,1.2-5.3,1.5c-3.6,0.6-7.2,1.1-10.8,1.6c-7.2,0.9-14.4,1.4-21.5,1.9c-3.6,0.2-7.2,0.4-10.8,0.6
				c-3.6,0.1-7.2,0.3-10.8,0.4c-7.2,0.2-14.3,0.3-21.5,0.3c-14.3,0.1-28.7-0.1-43-0.3l-21.5-0.3l-21.5-0.4
				c-28.6-0.5-57.2-1.2-85.8-2.1c-28.6-0.9-57.2-1.9-85.8-3c-57.2-2.4-114.3-5.6-171.5-8.3l-21.4-1l-21.4-0.9l-42.9-1.6l-21.4-0.9
				c-7.1-0.3-14.3-0.6-21.4-1c-7.1-0.4-14.3-0.7-21.4-1.2l-10.7-0.6l-2.7-0.2c-0.9-0.1-1.8-0.1-2.7-0.2c-1.8-0.4-3.5-1-5.2-2.7
				L54.5,663.1z"/>
		</g>
		<g>
			<path class="st1" d="M19.5,601.4c3.7-0.6,7.4-0.3,11.1,0l11,0.7l22.1,1.4l44.2,2.9c29.4,1.9,58.9,3.7,88.4,5.5
				c29.5,1.6,58.9,3.2,88.4,4.7c29.5,1.5,59,2.8,88.4,4.1c59,2.6,117.9,4.7,176.9,5.9c14.7,0.2,29.5,0.4,44.2,0.5
				c14.7,0,29.5-0.1,44.2-0.3c3.7-0.1,7.4-0.1,11.1-0.2c3.7-0.1,7.4-0.2,11-0.3c3.7-0.1,7.4-0.3,11-0.4c3.7-0.1,7.4-0.3,11-0.5
				c7.3-0.4,14.7-0.8,22-1.6c1.8-0.2,3.6-0.4,5.5-0.6c1.8-0.2,3.6-0.5,5.4-0.8c1.8-0.2,3.6-0.5,5.4-0.6l2.8-0.1c0.9,0,1.9,0,2.9,0.1
				l0.1,0.3c-0.8,0.6-1.6,1.1-2.5,1.5c-0.4,0.2-0.9,0.4-1.3,0.6c-0.4,0.2-0.9,0.3-1.3,0.5c-0.9,0.3-1.8,0.6-2.7,0.8
				c-0.9,0.2-1.8,0.4-2.8,0.6c-1.8,0.3-3.7,0.6-5.5,0.8c-1.8,0.2-3.7,0.5-5.5,0.7c-7.4,0.8-14.8,1.3-22.2,1.8
				c-7.4,0.4-14.8,0.7-22.2,0.9c-3.7,0.1-7.4,0.2-11.1,0.2c-3.7,0.1-7.4,0.1-11.1,0.1c-14.8,0.1-29.5,0-44.3-0.2
				c-14.8-0.2-29.5-0.5-44.3-0.8c-59-1.3-118-3.7-177-6.5c-29.5-1.4-59-3-88.4-4.6c-29.5-1.6-58.9-3.3-88.4-5.1
				c-29.5-1.6-58.9-3.4-88.4-5.1c-14.7-0.9-29.5-1.8-44.2-2.7L41.5,604l-11-0.8c-3.7-0.2-7.4-0.4-11-1.5L19.5,601.4z"/>
		</g>
		<g>
			<polygon class="st2" points="468.6,601.9 468.6,538 232.1,538 223.5,584.5 			"/>
			<path class="st1" d="M468.5,601.8l-0.3-63.8l0.4,0.4l-236.5,0.8l1.2-1l-8.4,46.5l-1.3-1.6l61,4.2c20.3,1.5,40.6,3,61,4.6
				l61.3,4.8L468.5,601.8z M468.7,602l-60.9-3.7l-61.3-3.9c-20.5-1.3-41-2.7-61.5-4.1l-61.6-4.5l-1.6-0.1l0.3-1.5l8.8-46.5l0.2-1
				l1,0l236.5,0.8l0.4,0l0,0.4L468.7,602z"/>
		</g>
	</g>
	<g>
		<g>
			<path class="st1" d="M686.7,698.5c2.9-9.5,6.4-18.8,10.2-28c1.9-4.6,3.9-9.1,6-13.7c2.1-4.5,4.3-9,6.6-13.4
				c2.3-4.4,4.8-8.7,7.3-13c2.6-4.3,5.3-8.5,8.2-12.5c2.9-4.1,6-8,9.3-11.7c3.3-3.7,6.9-7.3,10.9-10.2c-3.5,3.5-6.7,7.3-9.7,11.2
				c-3,3.9-5.8,8-8.5,12.1c-5.3,8.3-10.2,16.9-14.8,25.6c-4.6,8.7-8.9,17.6-13.2,26.6C694.8,680.4,690.7,689.4,686.7,698.5z"/>
		</g>
		<g>
			<path class="st1" d="M7.3,564.9c2.2,3,4.1,6.1,5.9,9.3c1.8,3.2,3.5,6.4,5.1,9.7c1.6,3.3,3.1,6.6,4.5,10c1.4,3.4,2.7,6.8,3.8,10.3
				c-2.2-3-4.1-6.1-5.9-9.3c-1.8-3.2-3.5-6.4-5.1-9.7c-1.6-3.3-3.1-6.6-4.5-10C9.7,571.9,8.4,568.5,7.3,564.9z"/>
		</g>
		<g>
			<path class="st1" d="M18.6,564.6c1.8,3.5,3.3,7.1,4.8,10.6c0.8,1.8,1.5,3.6,2.3,5.3l2.2,5.4c1.5,3.6,2.9,7.2,4.3,10.8
				c1.4,3.6,2.8,7.3,3.9,11c-2.3-3.2-4.3-6.6-6.1-10c-1.8-3.5-3.5-7-4.9-10.6c-0.7-1.8-1.4-3.6-2.1-5.5c-0.6-1.9-1.3-3.7-1.8-5.6
				C20.1,572.3,19.2,568.5,18.6,564.6z"/>
		</g>
		<g>
			<path class="st1" d="M29,562.3c1.3,3.4,2.4,6.9,3.4,10.3c1,3.4,2,6.9,2.9,10.4c0.9,3.5,1.8,6.9,2.6,10.4c0.8,3.5,1.6,7,2.2,10.6
				c-1.7-3.2-3.2-6.6-4.4-9.9c-1.3-3.4-2.3-6.8-3.3-10.3c-0.9-3.5-1.7-7-2.3-10.6C29.5,569.5,29.1,565.9,29,562.3z"/>
		</g>
		<g>
			<path class="st1" d="M37.3,564.7c1.2,3.7,2.2,7.4,3.2,11c0.3,0.9,0.5,1.8,0.8,2.7l0.8,2.7c0.5,1.8,1,3.7,1.5,5.5l3.1,11
				c1,3.7,2.1,7.3,3,11.1c-2.1-3.3-3.7-6.8-5.2-10.3c-1.5-3.6-2.7-7.2-3.8-10.9c-0.5-1.9-1-3.7-1.4-5.6c-0.4-1.9-0.8-3.8-1.1-5.7
				C37.6,572.4,37.2,568.5,37.3,564.7z"/>
		</g>
		<g>
			<path class="st1" d="M46.5,569.6c1.5,2.9,2.7,5.8,3.8,8.8c1.1,3,2.1,6,3,9.1c0.9,3.1,1.7,6.1,2.4,9.3c0.7,3.1,1.3,6.3,1.5,9.5
				c-1.5-2.9-2.7-5.8-3.8-8.8c-1.1-3-2.1-6-3-9.1c-0.9-3.1-1.7-6.1-2.4-9.3C47.3,576,46.8,572.8,46.5,569.6z"/>
		</g>
		<g>
			<path class="st1" d="M52.8,568.2c1.3,3.3,2.4,6.6,3.5,9.9l3.2,9.8l3.2,9.9c1.1,3.3,2.1,6.6,3,10c-2-2.9-3.7-6-5.2-9.2
				c-1.5-3.2-2.8-6.4-3.8-9.8c-1.1-3.3-2-6.7-2.6-10.2C53.4,575.3,52.9,571.8,52.8,568.2z"/>
		</g>
		<g>
			<path class="st1" d="M62.4,573.1c1.7,2.5,3,5.1,4.2,7.7c1.2,2.7,2.2,5.4,3.1,8.2c0.9,2.8,1.6,5.6,2.1,8.5c0.5,2.9,0.9,5.8,1,8.7
				c-1.3-2.7-2.3-5.4-3.2-8.1c-1-2.7-1.9-5.5-2.7-8.2c-0.9-2.7-1.7-5.5-2.4-8.3C63.6,578.8,62.9,576,62.4,573.1z"/>
		</g>
		<g>
			<path class="st1" d="M70.5,571.9c1.6,2.9,2.9,5.8,4.1,8.8c1.2,3,2.3,6,3.3,9c1,3,1.9,6.1,2.7,9.2c0.8,3.1,1.5,6.3,1.9,9.5
				c-1.6-2.9-2.9-5.8-4.1-8.8c-1.2-3-2.3-6-3.3-9c-1-3-1.9-6.1-2.7-9.2C71.6,578.3,71,575.2,70.5,571.9z"/>
		</g>
		<g>
			<path class="st1" d="M82.1,577.6c1.3,2.2,2.3,4.5,3.2,6.9c0.9,2.3,1.7,4.7,2.3,7.1c0.7,2.4,1.3,4.8,1.7,7.3
				c0.4,2.5,0.8,4.9,0.9,7.5c-1.3-2.2-2.3-4.5-3.2-6.9c-0.9-2.3-1.7-4.7-2.3-7.1c-0.7-2.4-1.3-4.8-1.7-7.3
				C82.5,582.7,82.1,580.2,82.1,577.6z"/>
		</g>
		<g>
			<path class="st1" d="M89.6,575.6c1.6,1.9,2.8,3.9,3.9,6.1c1.1,2.2,1.9,4.4,2.6,6.7c0.7,2.3,1.2,4.7,1.4,7.1
				c0.3,2.4,0.3,4.8,0,7.3c-0.9-2.3-1.6-4.5-2.3-6.8l-2-6.7l-1.9-6.7C90.7,580.3,90.1,578,89.6,575.6z"/>
		</g>
		<g>
			<path class="st1" d="M96.8,574.4c1.8,2.2,3.2,4.5,4.5,7c1.3,2.4,2.4,5,3.4,7.6c1,2.6,1.7,5.3,2.3,8c0.6,2.7,1,5.5,1.1,8.3
				c-1.3-2.5-2.3-5-3.3-7.6c-1-2.5-2-5.1-2.9-7.6c-0.9-2.5-1.8-5.1-2.7-7.7C98.4,579.7,97.5,577.1,96.8,574.4z"/>
		</g>
		<g>
			<path class="st1" d="M106.1,574c1.2,2.8,2.6,5.4,4,7.9c1.5,2.5,3,5.1,4.5,7.8c1.4,2.7,2.7,5.5,3.3,8.6c0.7,3.1,0.5,6.4-0.8,9.2
				c0.1-3.1-0.5-5.9-1.4-8.6c-1-2.7-2.3-5.3-3.7-7.9c-1.4-2.6-2.8-5.3-3.9-8.1C107,580.2,106.1,577.1,106.1,574z"/>
		</g>
		<g>
			<path class="st1" d="M118.7,580.1c1.6,1.6,2.8,3.5,3.8,5.5c1,2,1.8,4.1,2.3,6.3c0.5,2.2,0.8,4.4,0.8,6.7c0,2.2-0.2,4.5-1,6.6
				c-0.6-2.2-0.9-4.3-1.4-6.4c-0.4-2.1-0.9-4.1-1.4-6.2c-0.5-2.1-1-4.1-1.6-6.2C119.8,584.4,119.2,582.3,118.7,580.1z"/>
		</g>
		<g>
			<path class="st1" d="M124.1,575.5c1.5,1.9,2.6,4,3.7,6c1.1,2.1,2.1,4.2,2.9,6.3c0.9,2.2,1.7,4.3,2.3,6.6c0.7,2.2,1.3,4.5,1.5,6.9
				c-1.5-1.9-2.6-3.9-3.7-6c-1.1-2.1-2.1-4.2-2.9-6.3c-0.9-2.2-1.7-4.3-2.3-6.6C125,580.2,124.4,577.9,124.1,575.5z"/>
		</g>
		<g>
			<path class="st1" d="M133.6,579.1c1.6,2.3,2.8,4.7,3.9,7.1c1.1,2.5,2,5,2.8,7.6c0.8,2.6,1.5,5.2,2,7.8c0.5,2.7,0.8,5.3,0.8,8.1
				c-1.2-2.5-2.2-5-3.1-7.5c-0.9-2.5-1.8-5-2.5-7.6c-0.8-2.5-1.5-5.1-2.2-7.7C134.6,584.5,134,581.9,133.6,579.1z"/>
		</g>
		<g>
			<path class="st1" d="M149.6,581.3c0.9,2.4,1.6,4.8,2.2,7.1c0.6,2.4,1.2,4.7,1.8,7.1c0.6,2.4,1.1,4.8,1.6,7.2
				c0.5,2.4,0.9,4.8,1.2,7.4c-1.4-2.1-2.5-4.4-3.5-6.7c-0.9-2.3-1.7-4.7-2.2-7.2c-0.6-2.4-1-4.9-1.2-7.4
				C149.3,586.3,149.3,583.8,149.6,581.3z"/>
		</g>
		<g>
			<path class="st1" d="M160,583.7c0.8,2.1,1.4,4.1,2,6.2c0.5,2.1,1,4.1,1.4,6.2c0.4,2.1,0.8,4.1,1.1,6.2c0.3,2.1,0.5,4.2,0.6,6.5
				c-1.2-1.9-2.1-3.9-2.8-5.9c-0.7-2-1.3-4.1-1.7-6.2c-0.4-2.1-0.7-4.3-0.8-6.4C159.6,588.1,159.6,585.9,160,583.7z"/>
		</g>
		<g>
			<path class="st1" d="M168.7,584.9c1.5,1.7,2.7,3.6,3.7,5.6c1,2,1.8,4.1,2.3,6.2c0.6,2.2,0.9,4.4,1.1,6.6c0.1,2.2,0,4.5-0.5,6.7
				c-0.8-2.1-1.3-4.2-1.9-6.3l-1.6-6.2l-1.6-6.2C169.6,589.2,169.1,587.1,168.7,584.9z"/>
		</g>
		<g>
			<path class="st1" d="M183.9,585c1.1,2.1,1.9,4.2,2.6,6.3c0.7,2.1,1.3,4.3,1.8,6.5c0.5,2.2,0.9,4.4,1.2,6.6
				c0.3,2.2,0.4,4.5,0.3,6.8c-1.1-2.1-1.9-4.2-2.6-6.3c-0.7-2.1-1.3-4.3-1.8-6.5c-0.5-2.2-0.9-4.4-1.1-6.6
				C183.9,589.5,183.7,587.3,183.9,585z"/>
		</g>
		<g>
			<path class="st1" d="M199.6,584.9c1.1,1.8,1.9,3.8,2.6,5.7c0.7,1.9,1.3,3.9,1.8,5.9c0.5,2,0.9,4,1.2,6c0.3,2,0.4,4.1,0.3,6.3
				c-1.1-1.8-1.9-3.8-2.6-5.7c-0.7-1.9-1.3-3.9-1.8-5.9c-0.5-2-0.9-4-1.2-6C199.7,589.1,199.5,587,199.6,584.9z"/>
		</g>
		<g>
			<path class="st1" d="M213.8,587.3c0.7,1.9,1.3,3.8,1.8,5.6c0.5,1.9,0.9,3.7,1.3,5.6c0.4,1.9,0.8,3.7,1.1,5.6
				c0.3,1.9,0.6,3.8,0.7,5.9c-1.3-1.6-2.2-3.4-2.9-5.2c-0.8-1.8-1.3-3.7-1.7-5.7c-0.4-1.9-0.6-3.9-0.7-5.9
				C213.2,591.3,213.3,589.3,213.8,587.3z"/>
		</g>
		<g>
			<path class="st1" d="M227.8,588.5c1,1.8,1.6,3.6,2.2,5.4c0.6,1.8,1,3.7,1.4,5.6c0.4,1.9,0.6,3.8,0.8,5.7c0.1,1.9,0.2,3.9-0.1,5.9
				c-1-1.8-1.7-3.6-2.2-5.4c-0.6-1.8-1-3.7-1.4-5.6c-0.4-1.9-0.6-3.8-0.8-5.7C227.6,592.5,227.6,590.5,227.8,588.5z"/>
		</g>
		<g>
			<path class="st1" d="M237.3,591c1,1.4,1.7,2.9,2.4,4.5c0.6,1.5,1.1,3.1,1.6,4.7c0.4,1.6,0.7,3.2,0.9,4.8c0.2,1.6,0.3,3.3,0.1,5.1
				c-1-1.4-1.8-2.9-2.4-4.5c-0.6-1.5-1.1-3.1-1.6-4.7c-0.4-1.6-0.7-3.2-0.9-4.8C237.2,594.4,237.1,592.7,237.3,591z"/>
		</g>
		<g>
			<path class="st1" d="M247.3,594.4c1.1,1.2,2,2.6,2.7,4c0.7,1.4,1.2,2.9,1.6,4.5c0.4,1.5,0.6,3.1,0.6,4.7c0,1.6-0.1,3.2-0.6,4.8
				c-0.8-1.5-1.3-2.9-1.7-4.4c-0.5-1.5-0.9-2.9-1.2-4.4c-0.3-1.5-0.6-2.9-0.9-4.5C247.5,597.6,247.3,596.1,247.3,594.4z"/>
		</g>
		<g>
			<path class="st1" d="M259.7,589.8c1.2,2.4,2.2,4.8,3.1,7.3c0.9,2.4,1.8,4.9,2.6,7.4c0.8,2.5,1.6,4.9,2.3,7.5
				c0.7,2.5,1.4,5.1,1.8,7.7c-1.6-2.2-2.9-4.5-4-6.9c-1.1-2.4-2.1-4.8-2.9-7.3c-0.8-2.5-1.5-5.1-2-7.7
				C260.1,595.1,259.8,592.5,259.7,589.8z"/>
		</g>
		<g>
			<path class="st1" d="M278.5,593.2c1,1.5,1.7,3.1,2.4,4.6c0.7,1.6,1.3,3.1,1.8,4.7c0.6,1.6,1,3.2,1.5,4.8c0.4,1.6,0.8,3.3,1,5.1
				c-1.3-1.3-2.3-2.7-3.2-4.2c-0.9-1.5-1.6-3.1-2.1-4.7c-0.6-1.6-1-3.3-1.3-5C278.4,596.7,278.2,595,278.5,593.2z"/>
		</g>
		<g>
			<path class="st1" d="M290.3,590.8c0.8,1.7,1.4,3.4,1.9,5c0.5,1.7,1,3.3,1.5,5c0.5,1.7,0.9,3.4,1.2,5.1c0.4,1.7,0.7,3.5,0.8,5.3
				c-1.3-1.4-2.2-2.9-3.1-4.5c-0.8-1.6-1.4-3.3-1.9-5.1c-0.5-1.7-0.8-3.5-0.9-5.3C289.9,594.5,289.9,592.7,290.3,590.8z"/>
		</g>
		<g>
			<path class="st1" d="M302.9,596.9c0.9,0.9,1.6,1.8,2.2,2.8c0.6,1,1,2,1.4,3.1c0.4,1.1,0.6,2.2,0.8,3.3c0.1,1.1,0.2,2.3,0,3.6
				c-1-0.9-1.6-1.8-2.2-2.8c-0.6-1-1-2-1.4-3.1c-0.4-1.1-0.6-2.2-0.8-3.3C302.7,599.4,302.6,598.2,302.9,596.9z"/>
		</g>
		<g>
			<path class="st1" d="M320.9,595.7c1,2,1.8,4.1,2.6,6.2c0.8,2.1,1.5,4.1,2.2,6.2c0.7,2.1,1.4,4.1,2,6.2c0.6,2.1,1.3,4.2,1.7,6.5
				c-1.6-1.7-2.8-3.6-3.9-5.6c-1.1-2-2-4-2.7-6.2c-0.7-2.1-1.3-4.3-1.7-6.5C320.9,600.2,320.7,598,320.9,595.7z"/>
		</g>
		<g>
			<path class="st1" d="M346.7,597.1c1.6,1.8,3,3.8,4.3,5.7c1.3,2,2.5,4,3.6,6c1.1,2.1,2.2,4.1,3.2,6.3c1,2.2,1.9,4.3,2.6,6.7
				c-1.8-1.7-3.2-3.6-4.6-5.5c-1.4-1.9-2.6-3.9-3.8-6c-1.1-2.1-2.2-4.2-3.1-6.4C348,601.7,347.2,599.5,346.7,597.1z"/>
		</g>
		<g>
			<path class="st1" d="M333.5,593.5c1.3,2,2.4,4,3.4,6.1c1,2.1,1.8,4.2,2.6,6.4c0.8,2.2,1.4,4.4,1.9,6.6c0.5,2.2,1,4.5,1.1,6.9
				c-1.3-2-2.4-4-3.4-6.1c-1-2.1-1.8-4.2-2.5-6.4c-0.7-2.2-1.4-4.4-1.9-6.6C334.1,598.1,333.7,595.8,333.5,593.5z"/>
		</g>
		<g>
			<path class="st1" d="M29.5,605.1c3.6,4.4,7,8.9,10.2,13.6c1.7,2.3,3.2,4.6,4.8,7l4.7,7.1l4.6,7.1c1.5,2.4,3,4.8,4.4,7.2
				c2.9,4.9,5.7,9.8,8.3,14.8c-3.6-4.4-7-8.9-10.2-13.6c-1.7-2.3-3.2-4.6-4.8-7l-4.7-7.1l-4.6-7.1c-1.5-2.4-3-4.8-4.4-7.2
				C34.9,615.1,32.1,610.2,29.5,605.1z"/>
		</g>
		<g>
			<path class="st1" d="M37.6,603.5c3.8,4.1,7.3,8.4,10.7,12.8c1.7,2.2,3.3,4.4,5,6.7c1.6,2.2,3.2,4.5,4.8,6.8
				c1.5,2.3,3.1,4.6,4.6,6.9c1.5,2.4,3,4.7,4.4,7.1c2.8,4.8,5.5,9.6,7.9,14.7c-3.5-4.4-6.7-8.9-9.9-13.4c-1.6-2.2-3.2-4.5-4.8-6.8
				l-4.7-6.8l-4.6-6.9c-1.5-2.3-3.1-4.6-4.6-6.9C43.4,613,40.5,608.3,37.6,603.5z"/>
		</g>
		<g>
			<path class="st1" d="M50.6,602.8c3.8,4.9,7.2,10,10.5,15.2c1.7,2.6,3.2,5.2,4.8,7.9c1.5,2.7,3,5.4,4.5,8c1.4,2.7,2.9,5.4,4.2,8.2
				c1.3,2.8,2.7,5.5,4,8.3c2.5,5.6,4.9,11.3,6.9,17.1c-3.1-5.3-6.1-10.7-9-16.1l-8.7-16.1L59,619.1
				C56.1,613.7,53.3,608.3,50.6,602.8z"/>
		</g>
		<g>
			<path class="st1" d="M61.6,607.1c3.3,4.2,6.2,8.7,9,13.2c1.4,2.2,2.7,4.6,4.1,6.9c1.3,2.3,2.6,4.7,3.8,7c1.2,2.4,2.4,4.7,3.6,7.1
				c1.1,2.4,2.3,4.8,3.3,7.2c2.1,4.9,4.1,9.8,5.8,14.9c-2.8-4.6-5.3-9.2-7.9-13.9c-1.3-2.3-2.5-4.7-3.8-7l-3.7-7l-3.7-7
				c-1.2-2.4-2.4-4.7-3.6-7.1C66.1,616.7,63.8,612,61.6,607.1z"/>
		</g>
		<g>
			<path class="st1" d="M69.2,603.7c3.2,4.5,6.1,9.3,8.8,14.1c1.4,2.4,2.6,4.9,3.9,7.4c1.2,2.5,2.4,5,3.6,7.5
				c1.1,2.5,2.2,5.1,3.3,7.6c1,2.6,2.1,5.2,3,7.8c1.9,5.2,3.6,10.5,4.8,15.9c-2.5-5-4.7-10-7-15l-6.8-15l-6.8-15
				C73.6,613.8,71.3,608.8,69.2,603.7z"/>
		</g>
		<g>
			<path class="st1" d="M80.5,607.8c2.8,4.3,5.3,8.8,7.7,13.4c1.2,2.3,2.3,4.6,3.4,6.9c1.1,2.3,2.1,4.7,3.2,7c1,2.4,2,4.7,2.9,7.1
				c0.9,2.4,1.8,4.8,2.7,7.2c1.7,4.9,3.2,9.8,4.4,14.8c-2.4-4.6-4.5-9.3-6.6-13.9c-1.1-2.3-2.1-4.7-3.1-7l-3-7l-3-7.1
				c-1-2.4-2-4.7-2.9-7.1C84.1,617.5,82.2,612.7,80.5,607.8z"/>
		</g>
		<g>
			<path class="st1" d="M91.3,612.6c2.6,3.7,4.9,7.6,7.1,11.5c1.1,2,2.1,4,3.1,6c1,2,1.9,4.1,2.9,6.1c1.9,4.1,3.5,8.3,5.1,12.5
				c1.5,4.2,2.9,8.5,4,12.9c-2.2-4-4.2-8-6.1-12c-1.9-4-3.8-8.1-5.7-12.2l-2.7-6.1c-0.9-2.1-1.8-4.1-2.7-6.2
				C94.5,621,92.8,616.9,91.3,612.6z"/>
		</g>
		<g>
			<path class="st1" d="M103.3,607.8c2.7,4.7,5.2,9.5,7.5,14.4c1.2,2.4,2.3,4.9,3.5,7.3l3.3,7.4l3.2,7.5c1,2.5,2.1,5,3,7.5
				c2,5,3.8,10.1,5.4,15.3c-2.7-4.7-5.2-9.5-7.5-14.4c-1.2-2.4-2.3-4.9-3.5-7.3l-3.3-7.4l-3.2-7.5c-1-2.5-2-5-3-7.5
				C106.7,618.1,104.9,613,103.3,607.8z"/>
		</g>
		<g>
			<path class="st1" d="M114.9,603.9c4.4,3.5,7.3,8.6,9.5,13.7c2.2,5.2,3.9,10.4,5.7,15.7l2.5,7.9c0.8,2.7,1.6,5.3,2.4,8
				c1.5,5.3,3,10.7,4.1,16.1c-2.3-5.1-4.4-10.2-6.3-15.4c-1-2.6-1.9-5.2-2.8-7.8l-2.7-7.9l-2.5-7.9c-0.8-2.6-1.6-5.3-2.5-7.9
				C120.5,613.3,118.4,608.3,114.9,603.9z"/>
		</g>
		<g>
			<path class="st1" d="M126.4,611.8c2.9,3.8,5.5,7.8,8,11.9c1.3,2,2.4,4.1,3.6,6.2c1.2,2.1,2.3,4.2,3.4,6.3
				c1.1,2.1,2.1,4.3,3.2,6.4c1,2.2,2,4.3,3,6.5c1.9,4.4,3.7,8.8,5.1,13.4c-2.6-4-4.9-8.2-7.2-12.4c-1.2-2.1-2.2-4.2-3.4-6.3
				l-3.3-6.3l-3.2-6.3c-1-2.1-2.1-4.2-3.1-6.4C130.2,620.6,128.2,616.3,126.4,611.8z"/>
		</g>
		<g>
			<path class="st1" d="M143.6,623.2c2.7,3.3,5.1,6.8,7.4,10.4c1.2,1.8,2.2,3.6,3.3,5.5c1.1,1.8,2.1,3.7,3.1,5.6
				c2,3.8,3.8,7.6,5.5,11.5c1.7,3.9,3.3,7.9,4.5,12c-2.4-3.6-4.5-7.2-6.6-10.9c-2.1-3.7-4.1-7.4-6.1-11.1l-2.9-5.6
				c-0.9-1.9-1.9-3.8-2.9-5.7C147,631,145.2,627.2,143.6,623.2z"/>
		</g>
		<g>
			<path class="st1" d="M169.3,636.8c2,1.7,3.8,3.7,5.3,5.8c1.6,2.1,2.9,4.3,4.1,6.7c1.2,2.3,2.2,4.8,3,7.3c0.8,2.5,1.3,5.1,1.5,7.7
				c-1.4-2.3-2.5-4.6-3.7-6.8l-3.4-6.8l-3.4-6.8C171.5,641.6,170.3,639.3,169.3,636.8z"/>
		</g>
		<g>
			<path class="st1" d="M66.2,667.4c1.1,1.3,1.9,2.7,2.7,4.1c0.7,1.4,1.3,2.9,1.9,4.4c0.5,1.5,0.9,3,1.3,4.6
				c0.3,1.6,0.5,3.2,0.4,4.9c-1.1-1.3-1.9-2.7-2.7-4.1c-0.7-1.4-1.3-2.9-1.9-4.4c-0.5-1.5-0.9-3.1-1.3-4.6
				C66.3,670.7,66.1,669.1,66.2,667.4z"/>
		</g>
		<g>
			<path class="st1" d="M75.1,667.4c1.2,1.3,2.1,2.7,2.9,4.2c0.7,1.5,1.3,3,1.8,4.6c0.4,1.6,0.7,3.2,0.8,4.9c0.1,1.7,0,3.3-0.4,5
				c-0.8-1.5-1.4-3.1-2-4.6c-0.5-1.5-1-3-1.4-4.6c-0.4-1.5-0.8-3.1-1.1-4.7C75.4,670.7,75.1,669.1,75.1,667.4z"/>
		</g>
		<g>
			<path class="st1" d="M81.4,669.9c1.1,0.9,1.8,2,2.5,3.2c0.6,1.2,1.1,2.4,1.4,3.6c0.3,1.3,0.5,2.6,0.5,3.9c0,1.3-0.2,2.6-0.7,3.9
				c-0.7-1.2-1.2-2.4-1.7-3.5c-0.4-1.2-0.8-2.3-1.1-3.5c-0.3-1.2-0.5-2.4-0.7-3.6C81.4,672.6,81.3,671.3,81.4,669.9z"/>
		</g>
		<g>
			<path class="st1" d="M87.9,669.9c1,1.3,1.7,2.8,2.3,4.2c0.6,1.4,1.1,2.9,1.4,4.4c0.4,1.5,0.6,3,0.8,4.6c0.1,1.5,0.2,3.1,0,4.8
				c-1-1.3-1.7-2.8-2.3-4.2c-0.6-1.4-1.1-2.9-1.4-4.4c-0.4-1.5-0.6-3-0.8-4.6C87.8,673.1,87.7,671.5,87.9,669.9z"/>
		</g>
		<g>
			<path class="st1" d="M95.2,669c0.8,1.2,1.4,2.4,1.8,3.7c0.4,1.3,0.8,2.5,1,3.8c0.2,1.3,0.4,2.6,0.4,3.9c0,1.3-0.1,2.7-0.5,4.1
				c-0.8-1.2-1.4-2.4-1.9-3.7c-0.4-1.3-0.8-2.5-1-3.8c-0.2-1.3-0.4-2.6-0.4-3.9C94.8,671.8,94.9,670.4,95.2,669z"/>
		</g>
		<g>
			<path class="st1" d="M102.1,670.6c0.9,1.3,1.4,2.7,1.9,4.1c0.5,1.4,0.8,2.8,1,4.3c0.2,1.4,0.4,2.9,0.4,4.4c0,1.5-0.1,3-0.4,4.5
				c-0.9-1.3-1.4-2.7-1.9-4.1c-0.5-1.4-0.8-2.8-1-4.3c-0.2-1.4-0.4-2.9-0.4-4.4C101.7,673.6,101.8,672.2,102.1,670.6z"/>
		</g>
		<g>
			<path class="st1" d="M107.9,673.1c0.9,1,1.4,2,1.9,3c0.5,1,0.8,2.1,1.1,3.2c0.3,1.1,0.4,2.2,0.4,3.4c0,1.1,0,2.3-0.4,3.6
				c-0.9-1-1.4-2-1.9-3c-0.5-1-0.8-2.1-1.1-3.2c-0.3-1.1-0.4-2.2-0.4-3.4C107.5,675.5,107.5,674.3,107.9,673.1z"/>
		</g>
		<g>
			<path class="st1" d="M114.9,672.3c0.8,1.4,1.4,2.9,1.8,4.3c0.4,1.5,0.7,3,1,4.4c0.2,1.5,0.3,3,0.3,4.5c0,1.5-0.1,3.1-0.5,4.7
				c-0.8-1.4-1.4-2.9-1.8-4.3c-0.4-1.5-0.8-3-1-4.4c-0.2-1.5-0.3-3-0.3-4.5C114.4,675.4,114.5,673.9,114.9,672.3z"/>
		</g>
		<g>
			<path class="st1" d="M120.7,670.6c0.8,1,1.4,2.1,1.8,3.3c0.4,1.1,0.7,2.3,1,3.4c0.2,1.2,0.3,2.3,0.3,3.5c0,1.2-0.1,2.4-0.5,3.7
				c-0.8-1-1.4-2.1-1.8-3.3c-0.4-1.1-0.7-2.3-1-3.4c-0.2-1.2-0.3-2.3-0.3-3.5C120.2,673.1,120.3,671.9,120.7,670.6z"/>
		</g>
		<g>
			<path class="st1" d="M128.3,670c1,1.5,1.6,3,2.2,4.6c0.6,1.6,1,3.2,1.3,4.8c0.3,1.6,0.6,3.3,0.7,4.9c0.1,1.7,0.1,3.4-0.1,5.1
				c-1-1.5-1.6-3-2.2-4.6c-0.6-1.6-1-3.2-1.3-4.8c-0.3-1.6-0.6-3.3-0.7-4.9C128,673.4,128,671.7,128.3,670z"/>
		</g>
		<g>
			<path class="st1" d="M137.1,669c1.2,1.7,2.1,3.5,2.9,5.3c0.8,1.8,1.4,3.7,1.9,5.7c0.5,1.9,0.8,3.9,1,5.9c0.2,2,0.2,4-0.1,6
				c-0.9-1.8-1.6-3.7-2.3-5.6c-0.6-1.9-1.2-3.7-1.6-5.6c-0.5-1.9-0.9-3.8-1.2-5.7C137.4,673,137.1,671.1,137.1,669z"/>
		</g>
		<g>
			<path class="st1" d="M145.7,673.6c1.4,1,2.6,2.3,3.5,3.7c1,1.4,1.7,3,2.2,4.6c0.5,1.6,0.9,3.3,0.9,5c0.1,1.7-0.1,3.4-0.6,5.1
				c-0.7-1.6-1.2-3.1-1.7-4.6l-1.5-4.5l-1.5-4.5C146.7,676.8,146.1,675.3,145.7,673.6z"/>
		</g>
		<g>
			<path class="st1" d="M151.4,671.1c1.6,0.7,3,1.8,4.2,3c1.2,1.3,2.1,2.8,2.8,4.4c0.7,1.6,1.1,3.3,1.2,5c0.1,1.7-0.1,3.5-0.7,5.1
				l-1.6-4.6c-0.5-1.5-1.1-2.9-1.6-4.3c-0.6-1.4-1.2-2.8-1.9-4.2L151.4,671.1z"/>
		</g>
		<g>
			<path class="st1" d="M163.6,672.9c1.1,1.1,1.9,2.4,2.5,3.7c0.6,1.3,1.1,2.7,1.4,4.1c0.3,1.4,0.4,2.9,0.4,4.3
				c0,1.5-0.2,2.9-0.8,4.4c-0.7-1.4-1.1-2.7-1.5-4.1c-0.4-1.3-0.7-2.7-1-4c-0.3-1.3-0.5-2.7-0.7-4.1
				C163.7,675.9,163.6,674.5,163.6,672.9z"/>
		</g>
		<g>
			<path class="st1" d="M169.7,672.3c0.9,1.1,1.5,2.4,2.1,3.6c0.5,1.2,0.9,2.5,1.2,3.8c0.3,1.3,0.5,2.6,0.6,3.9
				c0.1,1.3,0.1,2.7-0.2,4.1c-0.9-1.1-1.5-2.4-2.1-3.6c-0.5-1.2-0.9-2.5-1.2-3.8c-0.3-1.3-0.5-2.6-0.6-3.9
				C169.4,675.1,169.4,673.7,169.7,672.3z"/>
		</g>
		<g>
			<path class="st1" d="M174.1,672.1c1.3,1.1,2.3,2.5,3.1,3.9c0.8,1.4,1.5,2.9,1.9,4.5c0.5,1.6,0.8,3.2,0.9,4.8
				c0.1,1.6,0,3.3-0.5,4.9c-0.8-1.5-1.3-3-1.9-4.5c-0.5-1.5-1-2.9-1.4-4.4c-0.4-1.5-0.9-3-1.2-4.5
				C174.6,675.4,174.3,673.8,174.1,672.1z"/>
		</g>
		<g>
			<path class="st1" d="M181.2,673.9c1.1,0.7,1.9,1.7,2.5,2.7c0.7,1,1.2,2.1,1.5,3.2c0.4,1.1,0.6,2.3,0.6,3.5c0,1.2-0.1,2.4-0.5,3.7
				c-0.8-1.1-1.3-2.1-1.8-3.1c-0.5-1-0.8-2.1-1.2-3.1c-0.3-1.1-0.6-2.1-0.8-3.2C181.4,676.3,181.2,675.2,181.2,673.9z"/>
		</g>
		<g>
			<path class="st1" d="M188.9,671.4c0.9,1.5,1.5,3,2,4.5c0.5,1.5,0.9,3.1,1.2,4.7c0.3,1.6,0.5,3.2,0.5,4.8c0.1,1.6,0,3.3-0.3,4.9
				c-0.9-1.5-1.5-3-2-4.5c-0.5-1.5-0.9-3.1-1.2-4.7c-0.3-1.6-0.5-3.2-0.5-4.8C188.6,674.7,188.6,673.1,188.9,671.4z"/>
		</g>
		<g>
			<path class="st1" d="M194.5,672.2c1,1.1,1.7,2.4,2.2,3.8c0.5,1.3,0.9,2.7,1.1,4.1c0.2,1.4,0.3,2.8,0.2,4.3
				c-0.1,1.4-0.3,2.9-0.9,4.3c-0.7-1.4-1.1-2.7-1.4-4.1c-0.3-1.3-0.6-2.7-0.8-4c-0.2-1.3-0.4-2.7-0.5-4.1
				C194.3,675.1,194.3,673.7,194.5,672.2z"/>
		</g>
		<g>
			<path class="st1" d="M200.5,673.2c0.9,1.1,1.5,2.2,2,3.4c0.5,1.2,0.9,2.4,1.2,3.6c0.3,1.2,0.5,2.5,0.6,3.7
				c0.1,1.3,0.1,2.6-0.3,3.9c-0.9-1.1-1.5-2.2-2-3.4c-0.5-1.2-0.9-2.4-1.2-3.6c-0.3-1.2-0.5-2.5-0.6-3.7
				C200.2,675.8,200.2,674.5,200.5,673.2z"/>
		</g>
		<g>
			<path class="st1" d="M208.3,673.8c1.2,1,2,2.2,2.7,3.6c0.7,1.3,1.1,2.7,1.4,4.2c0.3,1.4,0.4,2.9,0.2,4.4
				c-0.1,1.5-0.5,2.9-1.2,4.3c-0.5-1.5-0.8-2.8-1.1-4.2c-0.3-1.3-0.6-2.7-0.8-4c-0.2-1.3-0.5-2.6-0.7-4
				C208.6,676.7,208.4,675.4,208.3,673.8z"/>
		</g>
		<g>
			<path class="st1" d="M221.7,674.4c1.2,0.9,2,1.9,2.8,3c0.8,1.1,1.4,2.3,2,3.5c0.5,1.2,1,2.5,1.2,3.8c0.3,1.3,0.4,2.7,0.3,4.1
				c-1-1-1.8-2.1-2.5-3.2c-0.7-1.1-1.3-2.3-1.8-3.5c-0.5-1.2-1-2.4-1.3-3.7C222.1,677.2,221.8,675.9,221.7,674.4z"/>
		</g>
		<g>
			<path class="st1" d="M235.5,675.4c0.9,1.1,1.6,2.3,2.1,3.5c0.6,1.2,1,2.4,1.4,3.6c0.4,1.2,0.7,2.5,1,3.8c0.2,1.3,0.4,2.6,0.3,4.1
				c-1.1-1-1.9-2.1-2.6-3.3c-0.7-1.2-1.2-2.4-1.6-3.7c-0.4-1.3-0.7-2.6-0.9-3.9C235.2,678.2,235.2,676.9,235.5,675.4z"/>
		</g>
		<g>
			<path class="st1" d="M245.2,679.4c1,0.4,1.8,1.1,2.4,1.8c0.6,0.8,1.1,1.6,1.4,2.5c0.3,0.9,0.5,1.9,0.4,2.8c0,1-0.2,2-0.8,2.9
				c-0.7-0.8-1.1-1.6-1.5-2.4c-0.4-0.8-0.7-1.6-1-2.3c-0.3-0.8-0.5-1.6-0.7-2.5C245.3,681.4,245.2,680.5,245.2,679.4z"/>
		</g>
		<g>
			<path class="st1" d="M254.4,679.7c0.9,0.5,1.5,1.1,2,1.8c0.5,0.7,0.9,1.4,1.2,2.1c0.3,0.7,0.5,1.5,0.6,2.3
				c0.1,0.8,0.1,1.7-0.2,2.7c-0.9-0.5-1.5-1.1-2-1.8c-0.5-0.7-0.9-1.4-1.2-2.1c-0.3-0.7-0.5-1.5-0.6-2.3
				C254.1,681.6,254.1,680.7,254.4,679.7z"/>
		</g>
		<g>
			<path class="st1" d="M265.1,678.9c0.9,0.7,1.6,1.4,2.1,2.2c0.5,0.8,1,1.7,1.3,2.5c0.3,0.9,0.6,1.8,0.7,2.8c0.1,1,0.2,2-0.1,3.1
				c-0.9-0.7-1.6-1.4-2.1-2.2c-0.5-0.8-1-1.7-1.3-2.5c-0.3-0.9-0.6-1.8-0.7-2.8C264.9,681,264.8,680,265.1,678.9z"/>
		</g>
		<g>
			<path class="st1" d="M278.9,677.2c0.9,1,1.6,2,2.2,3.1c0.6,1.1,1,2.2,1.3,3.4c0.3,1.2,0.6,2.3,0.7,3.6c0.1,1.2,0.2,2.5-0.1,3.8
				c-0.9-1-1.6-2-2.2-3.1c-0.6-1.1-1-2.2-1.3-3.4c-0.3-1.2-0.6-2.3-0.7-3.6C278.7,679.8,278.7,678.6,278.9,677.2z"/>
		</g>
		<g>
			<path class="st1" d="M292.4,679.4c-0.2,0.1-0.5-0.1-0.5-0.3c-0.1-0.2-0.1-0.5,0-0.7c0.1-0.2,0.3-0.5,0.7-0.6
				c0.3-0.1,0.6,0,0.9,0.1c0.5,0.2,0.8,0.6,1.1,0.9c0.3,0.3,0.4,0.5,0.6,0.8c0.8,1,1.5,2.1,2.1,3.3c0.6,1.1,1.1,2.3,1.5,3.6
				c0.4,1.2,0.7,2.5,0.7,4c-1.1-0.9-2-1.8-2.8-2.9c-0.8-1-1.5-2.1-2.1-3.3c-0.6-1.1-1.1-2.3-1.5-3.6c-0.2-0.6-0.3-1.3-0.4-1.5
				c0-0.1-0.1-0.1,0-0.2c0.1-0.1,0-0.1-0.1-0.1c-0.1,0-0.2,0.1-0.2,0.2C292.2,679.2,292.2,679.3,292.4,679.4z"/>
		</g>
		<g>
			<path class="st1" d="M304,678.6c1.2,0.8,2.2,1.8,3.1,2.9c0.9,1.1,1.6,2.2,2.3,3.4c0.6,1.2,1.2,2.5,1.6,3.8
				c0.4,1.3,0.7,2.7,0.6,4.2c-1.1-1-2-2.1-2.7-3.2c-0.8-1.1-1.5-2.2-2.1-3.4c-0.6-1.2-1.2-2.4-1.7-3.6
				C304.6,681.3,304.2,680,304,678.6z"/>
		</g>
		<g>
			<path class="st1" d="M3,565.1c5.4,2.1,10.7,4.5,15.9,7.1c2.6,1.3,5.2,2.6,7.8,4c2.6,1.4,5.1,2.8,7.6,4.2c2.5,1.5,5,2.9,7.5,4.4
				c2.5,1.5,5,3,7.4,4.6c4.9,3.1,9.7,6.4,14.3,10c-5.3-2.5-10.4-5.2-15.5-8c-2.6-1.4-5.1-2.8-7.6-4.2l-7.6-4.2l-7.5-4.3
				c-2.5-1.5-5-2.9-7.5-4.4C12.9,571.3,7.9,568.3,3,565.1z"/>
		</g>
		<g>
			<path class="st1" d="M6.7,574.9c2.8,0.5,5.5,1.7,8.1,3c2.6,1.3,5,2.7,7.5,4.2c2.5,1.4,4.9,2.9,7.4,4.4l7.3,4.5l7.2,4.6
				c2.4,1.6,4.8,3.1,7.1,4.8c4.7,3.2,9.3,6.6,13.8,10.1c-5.1-2.5-10.1-5.3-15.1-8.2c-2.5-1.4-4.9-2.9-7.4-4.4l-7.3-4.5l-7.2-4.6
				c-2.4-1.6-4.8-3.1-7.1-4.8C16.3,580.8,11.9,577.2,6.7,574.9z"/>
		</g>
		<g>
			<path class="st1" d="M14.6,589.2c4.5,2.8,9,5.5,13.5,8.2c1.1,0.6,2.3,1.3,3.4,2l3.4,1.9c1.2,0.6,2.3,1.3,3.4,1.9l3.5,1.8l3.5,1.8
				l3.5,1.7l3.5,1.7c1.2,0.5,2.4,1.1,3.6,1.7c4.8,2.2,9.6,4.2,14.5,6.4c-5.2-0.9-10.4-2.4-15.4-4.2c-1.2-0.5-2.5-0.9-3.7-1.4
				l-3.7-1.5l-3.6-1.7l-3.6-1.8l-3.5-1.9c-1.2-0.7-2.3-1.3-3.5-2l-3.4-2.1c-1.1-0.7-2.2-1.5-3.3-2.2
				C22.5,596.3,18.4,592.9,14.6,589.2z"/>
		</g>
		<g>
			<path class="st1" d="M20.2,603.8c2.6,0.3,5.1,1.4,7.4,2.5c2.3,1.2,4.6,2.5,6.8,3.7c2.3,1.2,4.5,2.5,6.7,3.7
				c2.2,1.2,4.5,2.5,6.8,3.6c2.3,1.2,4.5,2.4,6.8,3.6c2.3,1.2,4.6,2.3,6.9,3.5c4.6,2.3,9.2,4.5,13.8,6.9c-5.1-1.2-10-2.9-14.8-4.8
				c-2.4-0.9-4.8-2-7.1-3.1c-2.4-1.1-4.7-2.3-7-3.5c-4.6-2.5-9-5.1-13.3-8C28.9,609.1,25.1,605.7,20.2,603.8z"/>
		</g>
		<g>
			<path class="st1" d="M26,611.7c4.8,1.8,9.5,3.8,14.1,6c2.3,1,4.6,2.2,6.9,3.3l6.8,3.4l6.7,3.6c2.2,1.2,4.5,2.4,6.7,3.7
				c4.4,2.5,8.8,5.2,13,8.1c-4.8-1.8-9.5-3.8-14.1-6c-2.3-1-4.6-2.2-6.9-3.3l-6.8-3.4l-6.7-3.6c-2.2-1.2-4.5-2.4-6.7-3.7
				C34.6,617.3,30.2,614.6,26,611.7z"/>
		</g>
		<g>
			<path class="st1" d="M35,624.7c5.2,1.1,10.2,2.6,15.2,4.2c2.5,0.8,5,1.7,7.5,2.6c2.5,0.9,4.9,1.9,7.4,2.8c2.4,1,4.9,2,7.3,3.1
				c2.4,1.1,4.8,2.2,7.2,3.3c4.7,2.3,9.4,4.8,13.9,7.5c-5-1.7-9.9-3.5-14.8-5.4c-2.5-0.9-4.9-1.9-7.3-2.9l-7.3-2.9l-7.3-3
				c-2.4-1-4.8-2-7.3-3C44.6,629.1,39.8,627,35,624.7z"/>
		</g>
		<g>
			<path class="st1" d="M38.9,633.6c5.2,0.8,10.3,2.2,15.3,3.8c1.2,0.4,2.5,0.8,3.7,1.3l3.7,1.4c1.2,0.5,2.4,1,3.6,1.5l3.6,1.6
				l3.5,1.8l3.5,1.8c2.3,1.3,4.6,2.6,6.8,4c4.4,2.8,8.7,5.9,12.6,9.4c-4.6-2.5-9.2-5-13.8-7.4c-1.2-0.6-2.3-1.2-3.4-1.8l-3.5-1.8
				l-3.5-1.7l-3.5-1.7l-3.5-1.7c-1.2-0.5-2.4-1-3.5-1.6l-3.5-1.6c-1.2-0.5-2.4-1-3.6-1.5C48.6,637.5,43.7,635.6,38.9,633.6z"/>
		</g>
		<g>
			<path class="st1" d="M43.8,642.5c5,1.3,9.9,3,14.8,4.8c2.4,0.9,4.8,1.8,7.3,2.7l7.2,2.9l7.1,3.1c2.3,1.1,4.7,2.1,7,3.3
				c4.7,2.3,9.3,4.6,13.7,7.3c-5-1.5-9.8-3.3-14.7-5.2c-2.4-0.9-4.8-1.9-7.2-2.8l-7.2-3l-7.1-3.1c-2.4-1.1-4.7-2.1-7.1-3.2
				C53.1,647.3,48.4,645,43.8,642.5z"/>
		</g>
		<g>
			<path class="st1" d="M49.4,655c1.2-0.8,2.7-1.1,4.2-0.9c1.5,0.1,2.9,0.5,4.3,1c2.7,0.9,5.3,1.9,8,2.9c2.7,1,5.3,2.1,7.9,3.1
				c2.6,1.1,5.2,2.2,7.8,3.3l7.7,3.5c2.5,1.2,5.1,2.4,7.6,3.7c5.1,2.5,10.1,5.2,14.9,8.2c-5.4-1.8-10.6-3.9-15.9-6.1
				c-2.6-1-5.2-2.2-7.8-3.3l-7.8-3.4l-7.7-3.5c-2.6-1.2-5.1-2.3-7.7-3.6c-2.6-1.2-5.1-2.4-7.6-3.7c-1.2-0.6-2.5-1.2-3.8-1.5
				C52.2,654.6,50.8,654.5,49.4,655z"/>
		</g>
		<g>
			<path class="st1" d="M59.3,666.9c0.3-0.5,0.8-0.8,1.4-0.9c0.6-0.1,1.2-0.1,1.8,0c1.2,0.2,2.2,0.5,3.3,0.8
				c2.1,0.6,4.3,1.2,6.4,1.9c2.1,0.7,4.2,1.4,6.3,2.2c2.1,0.8,4.1,1.6,6.2,2.4c4.1,1.7,8.1,3.5,12.1,5.5c4,2,7.8,4.1,11.6,6.6
				c-4.3-1.3-8.4-2.8-12.5-4.4c-4.1-1.6-8.2-3.2-12.3-4.8l-6.1-2.5c-2-0.9-4.1-1.7-6.1-2.6c-2-0.9-4-1.8-6-2.7c-1-0.5-2-1-3-1.4
				c-0.5-0.2-1-0.3-1.5-0.4C60.2,666.4,59.7,666.5,59.3,666.9z"/>
		</g>
		<g>
			<path class="st1" d="M60.6,674.6c3.6,0.4,7.1,1.1,10.6,2c3.5,0.9,6.9,1.9,10.2,3.1c3.4,1.2,6.7,2.5,9.9,4.1
				c3.2,1.5,6.4,3.2,9.4,5.2c-3.5-0.8-6.9-1.9-10.3-3c-3.4-1.1-6.7-2.2-10-3.4c-3.3-1.2-6.6-2.4-9.9-3.7
				C67.2,677.5,63.9,676.1,60.6,674.6z"/>
		</g>
		<g>
			<path class="st1" d="M108.3,668.6c4.5,0.7,9,1.9,13.3,3.3c2.2,0.7,4.3,1.4,6.5,2.2c2.1,0.8,4.3,1.7,6.4,2.5
				c4.2,1.8,8.3,3.8,12.4,6c4,2.2,7.9,4.6,11.6,7.3c-4.3-1.7-8.5-3.4-12.6-5.2l-12.5-5.3c-2.1-0.9-4.2-1.8-6.3-2.7l-3.1-1.3
				c-1.1-0.4-2.1-0.9-3.1-1.3C116.7,672.3,112.5,670.6,108.3,668.6z"/>
		</g>
		<g>
			<path class="st1" d="M132.5,668.1c4.2,1,8.4,2.4,12.4,3.8c2,0.7,4,1.5,6,2.3c2,0.8,4,1.7,6,2.6c3.9,1.8,7.8,3.7,11.6,5.8
				c3.8,2.1,7.5,4.3,11.1,6.8c-4.1-1.4-8.1-3-12.1-4.7c-4-1.7-7.9-3.4-11.8-5.1l-5.9-2.7c-1.9-0.9-3.9-1.8-5.8-2.8
				C140.2,672.2,136.3,670.3,132.5,668.1z"/>
		</g>
		<g>
			<path class="st1" d="M15.9,563.4c3.2,0.6,6.3,2,9.2,3.5l8.6,4.5c2.9,1.5,5.7,3,8.6,4.4c2.9,1.5,5.8,2.9,8.7,4.3
				c2.9,1.5,5.8,2.8,8.7,4.2c2.9,1.4,5.9,2.8,8.8,4.1c5.9,2.7,11.8,5.4,17.7,8.2c-6.3-1.6-12.5-3.7-18.6-6c-3.1-1.1-6-2.4-9-3.7
				c-3-1.3-5.9-2.7-8.9-4.1c-5.8-2.9-11.6-6-17.1-9.4c-2.8-1.7-5.5-3.5-8.2-5.3C21.6,566.3,18.9,564.6,15.9,563.4z"/>
		</g>
		<g>
			<path class="st1" d="M45.5,565.8c6.7,2.3,13.2,5,19.6,8c3.2,1.5,6.4,3.1,9.5,4.6c3.1,1.6,6.2,3.3,9.3,5c3.1,1.8,6.1,3.6,9.1,5.4
				c3,1.9,6,3.8,8.9,5.8c5.8,4,11.5,8.1,16.9,12.7c-6.1-3.5-12.1-7.2-18.2-10.7l-9.1-5.3l-4.5-2.6l-4.6-2.6l-4.6-2.6l-4.6-2.5
				l-9.2-5.1C57.9,572.5,51.7,569.2,45.5,565.8z"/>
		</g>
		<g>
			<path class="st1" d="M62.8,606.7c3.6,1.7,7,3.7,10.4,5.8c1.7,1,3.3,2.1,5,3.2l4.9,3.3l9.6,6.8c3.2,2.2,6.5,4.4,9.9,6.4
				c-3.9-0.9-7.6-2.5-11.1-4.4c-3.5-1.9-6.9-4-10.1-6.3l-4.8-3.4c-1.6-1.2-3.2-2.3-4.7-3.6C68.7,612,65.7,609.4,62.8,606.7z"/>
		</g>
		<g>
			<path class="st1" d="M79,607.5c3.6,1.8,7,3.7,10.4,5.7c1.7,1,3.4,2,5.1,2.9l5,3c3.4,2,6.7,4,10,6.1c3.3,2.1,6.7,4.1,9.9,6.4
				c-3.8-1.2-7.5-2.7-11-4.4c-3.6-1.7-7.1-3.5-10.5-5.6c-1.7-1-3.4-2.1-5-3.2c-1.6-1.1-3.3-2.2-4.9-3.4
				C84.9,612.7,81.8,610.3,79,607.5z"/>
		</g>
		<g>
			<path class="st1" d="M97.7,609.1c2.5,0.9,4.9,2.1,7.2,3.3c2.3,1.2,4.6,2.5,6.8,3.8c2.2,1.3,4.4,2.8,6.5,4.3
				c2.1,1.5,4.2,3.1,6.2,4.9c-2.6-0.7-5-1.7-7.4-2.8c-2.4-1.1-4.7-2.4-6.9-3.7c-2.2-1.4-4.4-2.8-6.5-4.4
				C101.6,612.8,99.6,611.1,97.7,609.1z"/>
		</g>
		<g>
			<path class="st1" d="M268.8,591.8c0.1,1.2,0.5,2.2,1.1,3.1c0.5,1,1.1,2,1.7,3c1.1,2,2,4.1,2.9,6.3c0.9,2.1,1.6,4.3,2.3,6.5
				c0.6,2.2,1.2,4.5,1.5,6.8c-1.4-1.9-2.6-3.9-3.7-6c-1.1-2.1-2-4.1-2.9-6.3c-0.9-2.1-1.6-4.3-2.3-6.5c-0.3-1.1-0.6-2.2-0.9-3.4
				C268.3,594.3,268.2,592.9,268.8,591.8z"/>
		</g>
		<g>
			<path class="st1" d="M308.5,593.3c1.2,1.9,2.2,3.8,3.1,5.8c0.9,2,1.7,4,2.4,6c0.7,2,1.4,4.1,2,6.2c0.6,2.1,1.1,4.2,1.3,6.5
				c-1.4-1.8-2.5-3.7-3.5-5.6c-1-2-1.8-4-2.6-6c-0.7-2.1-1.4-4.1-1.8-6.3C308.9,597.8,308.5,595.6,308.5,593.3z"/>
		</g>
		<g>
			<path class="st1" d="M355.8,597.6c1.7,1.8,3.1,3.8,4.5,5.7c1.3,2,2.6,4.1,3.7,6.2c1.2,2.1,2.2,4.3,3.2,6.5
				c0.9,2.2,1.8,4.5,2.4,6.9c-1.7-1.8-3.1-3.8-4.5-5.7c-1.3-2-2.6-4.1-3.7-6.2c-1.1-2.1-2.2-4.3-3.2-6.5
				C357.3,602.3,356.4,600,355.8,597.6z"/>
		</g>
		<g>
			<path class="st1" d="M369.2,598.1c1.7,1.7,3,3.5,4.3,5.4c1.3,1.9,2.4,3.8,3.5,5.9c1,2,2,4.1,2.8,6.2c0.8,2.1,1.5,4.3,1.9,6.6
				c-1.5-1.8-2.8-3.7-4-5.6c-1.2-1.9-2.3-3.9-3.3-5.9c-1-2-2-4-2.9-6.1C370.6,602.5,369.7,600.4,369.2,598.1z"/>
		</g>
		<g>
			<path class="st1" d="M386.6,601.1c1.5,1.5,2.8,3.2,3.9,5c1.2,1.8,2.2,3.6,3.1,5.4c0.9,1.9,1.8,3.8,2.5,5.8c0.7,2,1.3,4,1.6,6.2
				c-1.4-1.6-2.6-3.4-3.7-5.1c-1.1-1.8-2.1-3.6-3-5.4c-0.9-1.9-1.8-3.8-2.5-5.7C387.8,605.2,387.1,603.2,386.6,601.1z"/>
		</g>
		<g>
			<path class="st1" d="M400.3,600c1.6,1.1,3,2.5,4.3,3.9c1.3,1.4,2.4,3,3.4,4.6c1,1.6,1.9,3.3,2.6,5.1c0.7,1.8,1.3,3.6,1.6,5.6
				c-1.4-1.4-2.5-2.9-3.6-4.5c-1.1-1.5-2.1-3.1-3.1-4.7c-1-1.6-1.9-3.2-2.8-4.9C401.8,603.6,401,601.9,400.3,600z"/>
		</g>
		<g>
			<path class="st1" d="M416.5,599.4c1.9,1.6,3.6,3.4,5.1,5.3c1.5,1.9,2.9,3.9,4.2,5.9c1.3,2.1,2.4,4.2,3.4,6.4
				c1,2.2,1.8,4.5,2.3,6.9c-1.6-1.9-3-3.8-4.4-5.8c-1.3-2-2.6-4-3.9-6c-1.2-2-2.4-4.1-3.6-6.2C418.5,603.8,417.4,601.7,416.5,599.4z
				"/>
		</g>
		<g>
			<path class="st1" d="M429.7,603.9c0.1-0.1-0.1-0.2-0.2-0.2c-0.1,0,0,0.1,0,0.1c0.1,0.1,0.2,0.2,0.5,0.4c0.4,0.3,0.8,0.7,1.2,1.1
				c0.8,0.8,1.6,1.5,2.3,2.4c1.4,1.6,2.7,3.4,3.8,5.3c1.1,1.9,2,3.9,2.7,5.9c0.7,2.1,1.3,4.2,1.4,6.4c-1.3-1.8-2.4-3.6-3.5-5.4
				c-1.1-1.8-2.2-3.6-3.2-5.4c-1-1.8-2.1-3.6-3.1-5.5l-1.5-2.8c-0.2-0.5-0.5-1-0.7-1.4c-0.1-0.2-0.3-0.5-0.3-1
				c0-0.1,0.1-0.2,0.2-0.3c0.1-0.1,0.3-0.1,0.3,0c0.1,0,0.1,0.1,0.2,0.2C429.8,603.7,429.7,603.9,429.7,603.9z"/>
		</g>
		<g>
			<path class="st1" d="M436,603.1c1.5,1.4,2.7,3,3.9,4.5c1.2,1.6,2.3,3.1,3.4,4.7c1.1,1.6,2.1,3.2,3.1,4.9c1,1.7,1.9,3.4,2.7,5.3
				c-1.7-1.1-3.2-2.5-4.6-3.9c-1.4-1.5-2.6-3-3.7-4.7c-1.1-1.7-2.1-3.4-2.9-5.2C437.1,607,436.4,605.1,436,603.1z"/>
		</g>
		<g>
			<path class="st1" d="M736,683.2c-0.2,1.2-0.5,2.3-0.8,3.3c-0.4,1-0.8,2-1.3,2.9c-0.5,0.9-1,1.8-1.6,2.7c-0.6,0.9-1.3,1.8-2.2,2.6
				c-0.3-1.2-0.2-2.4,0-3.5c0.2-1.1,0.6-2.2,1.1-3.2c0.5-1,1.2-1.9,1.9-2.8C733.9,684.4,734.8,683.7,736,683.2z"/>
		</g>
		<g>
			<path class="st1" d="M729.8,682.5c-0.2,1.2-0.6,2.1-0.9,3c-0.4,0.9-0.8,1.8-1.2,2.6c-0.4,0.8-0.9,1.6-1.4,2.5
				c-0.5,0.8-1.1,1.6-1.9,2.5c-0.4-1.1-0.4-2.2-0.3-3.3c0.2-1.1,0.5-2.1,1-3.1c0.5-1,1.1-1.8,1.9-2.6
				C727.8,683.4,728.7,682.8,729.8,682.5z"/>
		</g>
		<g>
			<path class="st1" d="M721,684.8c-0.7,1.2-1.4,2.1-2.1,3l-2.1,2.7c-0.7,0.9-1.4,1.8-2.1,2.7c-0.7,0.9-1.5,1.8-2.5,2.8
				c-0.2-1.3,0-2.7,0.4-3.9c0.4-1.2,1.1-2.4,1.9-3.4c0.8-1,1.8-1.9,2.9-2.6C718.4,685.4,719.6,684.9,721,684.8z"/>
		</g>
		<g>
			<path class="st1" d="M712.8,685.8c-0.6,1.1-1.3,1.9-1.9,2.8c-0.7,0.8-1.3,1.6-2,2.3c-0.7,0.8-1.4,1.5-2.1,2.2
				c-0.7,0.7-1.5,1.5-2.5,2.2c-0.1-1.2,0.1-2.4,0.5-3.5c0.4-1.1,1.1-2.1,1.8-3c0.8-0.9,1.7-1.6,2.7-2.2
				C710.4,686.2,711.6,685.8,712.8,685.8z"/>
		</g>
		<g>
			<path class="st1" d="M703.2,687.5c-0.8,1.1-1.6,2-2.4,2.9l-2.3,2.6l-2.3,2.6c-0.8,0.9-1.6,1.8-2.6,2.7c-0.2-1.4,0.1-2.7,0.5-3.9
				c0.5-1.2,1.2-2.4,2-3.4c0.9-1,1.9-1.8,3.1-2.5C700.5,688,701.8,687.6,703.2,687.5z"/>
		</g>
		<g>
			<path class="st1" d="M692.3,686.7c-0.7,1-1.4,1.9-2.1,2.6c-0.7,0.8-1.4,1.5-2.1,2.2c-0.7,0.7-1.5,1.4-2.3,2
				c-0.8,0.7-1.7,1.3-2.8,1.9c0-1.2,0.4-2.4,0.9-3.4c0.5-1,1.2-2,2.1-2.7c0.8-0.8,1.8-1.4,2.8-1.9
				C689.9,686.9,691,686.6,692.3,686.7z"/>
		</g>
		<g>
			<path class="st1" d="M681.5,688.6c-0.6,1.1-1.2,2-1.9,2.8c-0.6,0.8-1.3,1.6-1.9,2.4c-0.6,0.8-1.3,1.5-2,2.3
				c-0.7,0.8-1.4,1.6-2.4,2.4c-0.2-1.2,0-2.4,0.4-3.5c0.4-1.1,1-2.1,1.7-3c0.7-0.9,1.6-1.7,2.7-2.3
				C679.1,689,680.3,688.6,681.5,688.6z"/>
		</g>
		<g>
			<path class="st1" d="M672.6,690c-0.7,0.9-1.3,1.5-1.9,2.1c-0.6,0.6-1.2,1.1-1.9,1.6c-0.6,0.5-1.3,1-2,1.5c-0.7,0.5-1.5,1-2.5,1.4
				c-0.1-1.1,0.2-2.1,0.7-3c0.5-0.9,1.1-1.7,1.9-2.3c0.8-0.6,1.7-1.1,2.6-1.4C670.6,689.8,671.6,689.7,672.6,690z"/>
		</g>
		<g>
			<path class="st1" d="M663.5,689.7c-0.7,1.1-1.4,2-2.1,2.8c-0.7,0.8-1.4,1.6-2.2,2.3c-0.7,0.7-1.5,1.5-2.3,2.2
				c-0.8,0.7-1.7,1.4-2.8,2.1c0-1.3,0.4-2.4,0.9-3.5c0.5-1.1,1.2-2,2.1-2.9c0.8-0.8,1.8-1.5,2.9-2.1
				C661,690,662.2,689.7,663.5,689.7z"/>
		</g>
		<g>
			<path class="st1" d="M652.3,690.7c-0.4,0.9-0.8,1.5-1.3,2.1c-0.5,0.6-0.9,1.1-1.5,1.5c-0.5,0.5-1.1,0.9-1.7,1.2
				c-0.6,0.4-1.3,0.7-2.3,1c-0.1-1,0.2-1.8,0.5-2.5c0.4-0.7,0.9-1.4,1.5-1.9c0.6-0.5,1.3-0.9,2.1-1.2
				C650.5,690.6,651.4,690.5,652.3,690.7z"/>
		</g>
		<g>
			<path class="st1" d="M643.2,690.8c-1,0.8-2,1.4-2.9,2.1c-0.9,0.6-1.7,1.3-2.5,1.9c-0.8,0.6-1.6,1.3-2.4,2
				c-0.8,0.7-1.7,1.5-2.7,2.3c-0.1-1.3,0.2-2.6,0.8-3.7c0.6-1.1,1.4-2.1,2.5-2.9c1-0.8,2.2-1.4,3.4-1.7
				C640.6,690.5,642,690.4,643.2,690.8z"/>
		</g>
		<g>
			<path class="st1" d="M631.3,692.4c-0.6,0.8-1.2,1.4-1.8,2c-0.6,0.6-1.2,1-1.8,1.5c-0.6,0.5-1.2,0.9-1.9,1.3
				c-0.7,0.4-1.4,0.8-2.4,1.1c-0.1-1,0.3-2,0.7-2.8c0.5-0.8,1.1-1.5,1.8-2.1c0.7-0.6,1.6-1,2.5-1.2
				C629.3,692.1,630.3,692.1,631.3,692.4z"/>
		</g>
		<g>
			<path class="st1" d="M621.1,689.5c-0.5,0.9-1,1.6-1.5,2.2c-0.6,0.6-1.1,1.1-1.8,1.6c-0.6,0.5-1.3,0.9-2,1.2
				c-0.7,0.4-1.5,0.7-2.5,0.9c0.1-1,0.5-1.9,1-2.6c0.5-0.7,1.1-1.4,1.8-1.9c0.7-0.5,1.5-0.9,2.3-1.2
				C619.2,689.4,620.1,689.3,621.1,689.5z"/>
		</g>
		<g>
			<path class="st1" d="M611.5,689.2c-0.8,0.8-1.6,1.4-2.3,2l-2.1,1.6c-0.7,0.5-1.4,1-2.1,1.6c-0.7,0.5-1.5,1.1-2.5,1.7
				c-0.1-1.1,0.2-2.2,0.7-3.2c0.5-1,1.2-1.8,2.1-2.4c0.9-0.7,1.8-1.1,2.9-1.4C609.3,688.8,610.4,688.8,611.5,689.2z"/>
		</g>
		<g>
			<path class="st1" d="M597.7,689.4c-0.3,1-0.7,1.9-1.2,2.6c-0.4,0.8-0.9,1.5-1.4,2.1c-0.5,0.7-1.1,1.3-1.7,1.9
				c-0.6,0.6-1.3,1.2-2.3,1.8c-0.2-1.1-0.1-2.1,0.2-3c0.3-0.9,0.8-1.8,1.4-2.5c0.6-0.8,1.3-1.4,2.1-1.9
				C595.7,689.8,596.6,689.4,597.7,689.4z"/>
		</g>
		<g>
			<path class="st1" d="M589.9,688.6c-0.8,0.7-1.4,1.2-1.9,1.7c-0.5,0.5-1,1-1.5,1.5c-0.5,0.5-1,1-1.5,1.5c-0.5,0.6-1,1.2-1.7,2
				c-0.6-0.9-0.6-2-0.4-3c0.2-1,0.8-1.9,1.5-2.6c0.7-0.7,1.6-1.3,2.6-1.5C587.9,688,589,688.1,589.9,688.6z"/>
		</g>
		<g>
			<path class="st1" d="M739.4,628.6c-0.1,3.9-0.5,7.8-1,11.7c-0.2,1.9-0.5,3.8-0.8,5.8l-1,5.7c-0.7,3.8-1.5,7.6-2.5,11.4
				c-0.9,3.8-2,7.5-3.3,11.2c0.1-3.9,0.5-7.8,1-11.7c0.5-3.9,1.1-7.7,1.8-11.5l1.2-5.7c0.4-1.9,0.8-3.8,1.3-5.7
				C737,636.1,738.1,632.3,739.4,628.6z"/>
		</g>
		<g>
			<path class="st1" d="M732.1,624.5c-0.2,5-0.6,9.9-1.1,14.8c-0.2,2.5-0.6,4.9-0.8,7.4l-1,7.4l-1.1,7.3c-0.4,2.4-0.8,4.9-1.3,7.3
				c-0.9,4.9-1.8,9.7-3.1,14.6c0-5,0.3-9.9,0.8-14.9c0.2-2.5,0.5-4.9,0.8-7.4l1-7.4l1.1-7.3c0.4-2.4,0.8-4.9,1.3-7.3
				C729.6,634.1,730.7,629.3,732.1,624.5z"/>
		</g>
		<g>
			<path class="st1" d="M725,623.8c-0.4,5.3-1,10.5-1.6,15.7c-0.3,2.6-0.7,5.2-1,7.8l-1,7.8l-1,7.8c-0.4,2.6-0.7,5.2-1.1,7.8
				c-0.7,5.2-1.5,10.4-2.5,15.6c-0.3-5.3-0.2-10.6,0.1-15.8c0.1-2.6,0.4-5.3,0.6-7.9c0.3-2.6,0.6-5.2,0.9-7.9
				c0.4-2.6,0.7-5.2,1.2-7.8c0.5-2.6,0.9-5.2,1.5-7.8C722.2,634,723.4,628.9,725,623.8z"/>
		</g>
		<g>
			<path class="st1" d="M718.1,629.8c-1.4,1.8-1.5,4-1.7,6.2c-0.1,2.2-0.3,4.4-0.5,6.7c-0.2,2.2-0.4,4.4-0.6,6.6l-0.8,6.6
				c-0.6,4.4-1.3,8.8-2.1,13.2c-0.8,4.4-1.7,8.7-2.9,13.1c0-4.5,0.3-8.9,0.6-13.4c0.4-4.4,0.9-8.9,1.5-13.3l1-6.6
				c0.4-2.2,0.7-4.4,1.1-6.6c0.4-2.2,0.9-4.4,1.3-6.5c0.3-1.1,0.5-2.2,1-3.3C716.5,631.5,717.2,630.5,718.1,629.8z"/>
		</g>
		<g>
			<path class="st1" d="M708.6,631.6c-0.5,0.3-0.7,0.8-0.8,1.4c-0.1,0.5-0.1,1.1-0.1,1.7l-0.1,3.4c-0.1,2.3-0.3,4.5-0.4,6.8
				c-0.2,2.3-0.4,4.5-0.6,6.8l-0.8,6.7c-0.6,4.5-1.3,9-2.1,13.4c-0.8,4.5-1.7,8.9-2.9,13.3c0-4.6,0.2-9.1,0.6-13.6
				c0.4-4.5,0.8-9,1.4-13.5l1-6.7c0.4-2.2,0.7-4.5,1.1-6.7c0.4-2.2,0.8-4.5,1.3-6.7l0.8-3.3c0.1-0.5,0.2-1.1,0.5-1.7
				C707.6,632.3,708,631.8,708.6,631.6z"/>
		</g>
		<g>
			<path class="st1" d="M701.4,629.3c0.2,4.8,0,9.5-0.5,14.2c-0.2,2.4-0.5,4.7-0.8,7.1c-0.3,2.4-0.7,4.7-1.1,7
				c-0.4,2.3-0.9,4.7-1.4,7c-0.6,2.3-1.1,4.6-1.7,6.9c-1.2,4.6-2.7,9.1-4.5,13.5c0.6-4.7,1.4-9.4,2.2-14l2.5-13.9l2.5-13.9
				C699.5,638.6,700.3,633.9,701.4,629.3z"/>
		</g>
		<g>
			<path class="st1" d="M693.1,627.3c-0.5,0.3-0.8,0.8-0.9,1.3c-0.1,0.5-0.1,1.1-0.2,1.6c-0.1,1.1-0.2,2.3-0.2,3.4
				c-0.2,2.3-0.5,4.5-0.8,6.7c-0.3,2.2-0.7,4.5-1.1,6.7c-0.4,2.2-0.9,4.4-1.3,6.7c-1,4.4-2.2,8.8-3.5,13.1
				c-1.3,4.3-2.9,8.6-4.7,12.7c0.7-4.5,1.6-8.9,2.5-13.3c0.9-4.4,1.9-8.8,2.8-13.2l1.5-6.6c0.5-2.2,1-4.4,1.6-6.6
				c0.5-2.2,1.1-4.4,1.6-6.6l0.9-3.3c0.2-0.5,0.3-1.1,0.5-1.7C692,627.9,692.5,627.4,693.1,627.3z"/>
		</g>
		<g>
			<path class="st1" d="M682.5,629c-1,2.1-1.5,4.4-1.8,6.6c-0.1,1.1-0.3,2.3-0.4,3.4c-0.1,1.2-0.3,2.3-0.4,3.5
				c-0.6,4.7-1.4,9.3-2.4,13.8c-0.5,2.3-1.1,4.6-1.7,6.8c-0.6,2.3-1.2,4.5-2,6.7c-1.4,4.5-3,8.9-5,13.1c0.8-4.6,1.8-9.2,2.8-13.7
				l3-13.6l3-13.6c0.5-2.3,1-4.5,1.6-6.8C680,633.1,680.9,630.8,682.5,629z"/>
		</g>
		<g>
			<path class="st1" d="M671.2,628.6c-0.3,4.5-0.8,8.9-1.5,13.3c-0.3,2.2-0.7,4.4-1,6.6l-1.2,6.5c-0.8,4.4-1.7,8.7-2.7,13
				c-1,4.3-2.1,8.6-3.4,12.9c0.1-4.5,0.6-8.9,1.1-13.3c0.6-4.4,1.2-8.8,2.1-13.1c0.4-2.2,0.9-4.4,1.3-6.5c0.5-2.2,1-4.3,1.5-6.5
				C668.5,637.1,669.7,632.8,671.2,628.6z"/>
		</g>
		<g>
			<path class="st1" d="M660.9,629.8c0,4.5-0.3,8.9-0.9,13.3c-0.3,2.2-0.6,4.4-1,6.6c-0.4,2.2-0.8,4.3-1.3,6.5
				c-1,4.3-2.1,8.6-3.5,12.8c-1.4,4.2-2.9,8.4-4.9,12.4c0.7-4.4,1.7-8.7,2.6-13l2.8-12.9l2.9-12.8
				C658.7,638.4,659.7,634.1,660.9,629.8z"/>
		</g>
		<g>
			<path class="st1" d="M652.7,631.1c0.3,5.3,0.1,10.5-0.3,15.8c-0.2,2.6-0.5,5.2-0.8,7.9c-0.3,2.6-0.8,5.2-1.2,7.8
				c-0.5,2.6-1,5.2-1.6,7.7c-0.6,2.6-1.2,5.1-2,7.7c-1.4,5.1-3.1,10.1-5.2,14.9c0.9-5.2,2-10.3,3-15.4l1.5-7.7l0.7-3.8l0.7-3.8
				l0.7-3.8c0.2-1.3,0.4-2.6,0.7-3.9l1.3-7.7C650.9,641.4,651.7,636.3,652.7,631.1z"/>
		</g>
		<g>
			<path class="st1" d="M645.2,630.9c-0.3,2.7-0.6,5.4-1,8c-0.4,2.7-0.8,5.3-1.2,8c-0.4,2.7-0.9,5.3-1.4,8l-1.5,7.9l-1.7,7.9
				c-0.6,2.6-1.2,5.2-1.9,7.9c-1.3,5.2-2.7,10.4-4.4,15.6c0.5-5.4,1.2-10.7,2.1-16c0.4-2.7,0.9-5.3,1.4-8l1.6-7.9l1.7-7.9
				c0.6-2.6,1.2-5.2,1.9-7.9c0.6-2.6,1.3-5.2,2.1-7.8C643.5,636,644.2,633.4,645.2,630.9z"/>
		</g>
		<g>
			<path class="st1" d="M634.7,631c0,5.1-0.5,10.2-1.2,15.2c-0.7,5-1.8,10-3,14.9c-0.7,2.5-1.4,4.9-2.1,7.3
				c-0.8,2.4-1.6,4.8-2.5,7.2c-1.7,4.8-4,9.2-3.9,14.4c-0.7-2.5-0.6-5.1-0.2-7.7c0.5-2.6,1.2-5,1.9-7.4c1.3-4.9,2.7-9.7,3.9-14.6
				c0.7-2.4,1.2-4.9,1.8-7.3c0.6-2.4,1.2-4.9,1.8-7.3C632.3,640.8,633.4,635.9,634.7,631z"/>
		</g>
		<g>
			<path class="st1" d="M625.8,629.2c0.1,5.6-0.3,11.1-1,16.7c-0.3,2.8-0.8,5.5-1.3,8.3c-0.5,2.7-1.1,5.5-1.8,8.2
				c-0.7,2.7-1.4,5.4-2.2,8.1c-0.8,2.7-1.7,5.3-2.6,7.9c-1.8,5.2-3.4,10.4-4,16c-0.7-5.6,0.4-11.3,1.8-16.6c1.4-5.4,2.9-10.6,4.2-16
				c1.4-5.3,2.5-10.7,3.7-16.1L625.8,629.2z"/>
		</g>
		<g>
			<path class="st1" d="M743.6,605.1c-0.3,2.3-0.5,4.6-0.9,6.8c-0.4,2.2-1,4.4-1.6,6.6c-0.6,2.2-1.4,4.3-2.2,6.4
				c-0.9,2.1-1.8,4.2-3,6.2c0-2.4,0.4-4.6,0.8-6.9c0.4-2.2,1-4.4,1.6-6.6c0.6-2.2,1.4-4.3,2.2-6.4
				C741.3,609.1,742.1,607,743.6,605.1z"/>
		</g>
		<g>
			<path class="st1" d="M741.7,593c-0.7,3.5-1.6,6.9-2.6,10.3c-1,3.4-2.1,6.7-3.2,10c-1.2,3.3-2.4,6.6-3.7,9.8
				c-1.3,3.2-2.7,6.5-4.4,9.6c0.5-3.5,1.3-7,2.2-10.4c0.9-3.4,2-6.8,3.1-10.1c1.2-3.3,2.4-6.6,3.9-9.8
				C738.4,599.2,739.9,596.1,741.7,593z"/>
		</g>
		<g>
			<path class="st1" d="M743.8,565.5c-1.5,6.1-3.2,12-5.1,18c-0.9,3-1.9,5.9-2.9,8.9l-3,8.8l-3.2,8.8l-3.3,8.7
				c-2.2,5.8-4.1,11.6-4.7,17.8c-0.7-6.3,0.7-12.6,2.4-18.6c1.8-6,3.8-11.8,5.9-17.7l3.2-8.8c1.1-2.9,2.2-5.8,3.3-8.7
				C738.8,576.9,741.1,571.2,743.8,565.5z"/>
		</g>
		<g>
			<path class="st1" d="M745.7,545.6c-0.8,0.4-1.3,1.1-1.6,1.9c-0.3,0.8-0.5,1.6-0.7,2.4l-1.2,5c-0.8,3.3-1.7,6.7-2.5,10
				c-0.9,3.3-1.8,6.6-2.7,9.9l-2.9,9.9l-3,9.8c-1.1,3.3-2.1,6.5-3.2,9.8c-2.2,6.5-4.5,13-7,19.4c1.4-6.7,3-13.4,4.8-20
				c0.9-3.3,1.8-6.6,2.7-9.9l2.9-9.9l3-9.8c1.1-3.3,2.1-6.5,3.2-9.8c1.1-3.3,2.2-6.5,3.4-9.7l1.8-4.8c0.3-0.8,0.6-1.6,1.1-2.4
				C744.2,546.6,744.9,545.9,745.7,545.6z"/>
		</g>
		<g>
			<path class="st1" d="M739.1,541.3c-1.7,6.8-3.6,13.6-5.5,20.3c-1,3.4-2,6.7-3,10.1l-3.1,10l-3.2,10c-1.1,3.3-2.2,6.7-3.3,10
				c-2.2,6.6-4.5,13.2-7.1,19.8c1.4-6.9,3-13.7,4.9-20.5c0.9-3.4,1.9-6.7,2.8-10.1l3-10.1l3.3-10c1.1-3.3,2.3-6.6,3.5-9.9
				C733.7,554.3,736.2,547.7,739.1,541.3z"/>
		</g>
		<g>
			<path class="st1" d="M732,539.6c-1.9,7.6-4,15-6.3,22.5c-1.1,3.7-2.3,7.4-3.4,11.1l-3.6,11.1l-3.8,11c-1.3,3.7-2.6,7.3-3.9,11
				c-2.7,7.3-5.4,14.6-8.5,21.8c1.9-7.6,4-15,6.3-22.5c1.1-3.7,2.3-7.4,3.4-11.1l3.6-11.1l3.8-11c1.3-3.7,2.6-7.3,3.9-11
				C726.2,554,729,546.7,732,539.6z"/>
		</g>
		<g>
			<path class="st1" d="M706.5,589.5c-0.8,3.3-1.7,6.5-2.8,9.6c-1,3.2-2.1,6.3-3.3,9.4c-1.1,3.1-2.3,6.2-3.6,9.2
				c-1.3,3.1-2.6,6.1-4.2,9.1c0.4-3.4,1.1-6.6,1.9-9.8c0.8-3.2,1.9-6.4,3-9.5c1.2-3.1,2.4-6.2,3.9-9.2
				C703,595.2,704.6,592.3,706.5,589.5z"/>
		</g>
		<g>
			<path class="st1" d="M696.9,591.9c-0.8,2.7-1.9,5.3-2.9,7.8c-1.1,2.5-2.1,5.1-3.3,7.6c-1.1,2.5-2.3,5-3.5,7.4
				c-1.2,2.5-2.5,4.9-4,7.3c0.3-2.8,1-5.5,1.8-8.2c0.8-2.7,1.8-5.3,3-7.8c1.1-2.5,2.5-5,3.9-7.4C693.4,596.3,695,594,696.9,591.9z"
				/>
		</g>
		<g>
			<path class="st1" d="M682.9,598.4c-0.5,2.6-1.3,5.1-2,7.6c-0.7,2.5-1.5,4.9-2.3,7.4c-0.8,2.4-1.6,4.9-2.5,7.3
				c-0.9,2.4-1.8,4.9-2.9,7.3c-0.1-2.7,0.2-5.3,0.7-7.9c0.5-2.6,1.1-5.2,1.9-7.7c0.8-2.5,1.8-5,3-7.3
				C680,602.8,681.3,600.5,682.9,598.4z"/>
		</g>
		<g>
			<path class="st1" d="M674.2,597.3c-0.7,2.5-1.5,4.8-2.3,7.2l-2.4,7l-2.3,7c-0.8,2.4-1.5,4.7-2.5,7.1c-0.3-2.6-0.1-5.1,0.2-7.7
				c0.4-2.5,1-5,1.8-7.4c0.8-2.4,1.8-4.8,3.1-7C671,601.3,672.4,599.2,674.2,597.3z"/>
		</g>
		<g>
			<path class="st1" d="M668.4,595c-0.5,2.5-1.2,5-1.9,7.4c-0.7,2.4-1.6,4.7-2.4,7.1c-0.9,2.3-1.8,4.6-2.8,6.9
				c-1,2.3-2.1,4.6-3.4,6.8c0.1-2.6,0.6-5.1,1.1-7.5c0.6-2.5,1.3-4.9,2.2-7.2c0.9-2.4,1.9-4.7,3.1-6.9
				C665.6,599.3,666.8,597.1,668.4,595z"/>
		</g>
		<g>
			<path class="st1" d="M657.6,598.6c-0.2,2.9-0.7,5.6-1.4,8.4c-0.6,2.7-1.4,5.4-2.3,8.1c-0.9,2.7-1.9,5.3-3.1,7.8
				c-1.2,2.6-2.5,5.1-4,7.5c0.4-2.8,1.1-5.6,1.8-8.3c0.7-2.7,1.6-5.4,2.5-8c0.9-2.6,1.9-5.3,2.9-7.9
				C655,603.7,656.2,601.1,657.6,598.6z"/>
		</g>
		<g>
			<path class="st1" d="M648.5,601c-0.7,2.6-1.6,5.1-2.5,7.6l-2.6,7.4l-2.6,7.5c-0.9,2.5-1.7,5-2.8,7.5c-0.2-2.7,0-5.4,0.5-8.1
				c0.4-2.7,1.1-5.3,2-7.9c0.9-2.6,2-5,3.3-7.4C645.2,605.3,646.7,603,648.5,601z"/>
		</g>
		<g>
			<path class="st1" d="M641,599.9c-0.3,3-1,5.8-1.7,8.7c-0.7,2.8-1.6,5.6-2.6,8.4c-1,2.7-2.1,5.5-3.3,8.1c-1.3,2.6-2.6,5.3-4.2,7.7
				c0.5-2.9,1.2-5.8,2-8.6c0.8-2.8,1.7-5.6,2.7-8.3c1-2.7,2-5.4,3.2-8.1C638.3,605.1,639.5,602.5,641,599.9z"/>
		</g>
		<g>
			<path class="st1" d="M634,601.5c-0.8,3-1.8,5.9-2.9,8.8c-1.1,2.9-2.3,5.7-3.7,8.4c-1.3,2.8-2.7,5.5-4.3,8.2
				c-1.5,2.7-3.1,5.3-5,7.8c0.8-3,1.8-5.9,2.9-8.8c1.1-2.9,2.3-5.7,3.7-8.4c1.3-2.8,2.7-5.5,4.3-8.2
				C630.5,606.6,632.1,604,634,601.5z"/>
		</g>
		<g>
			<path class="st1" d="M619.9,602.3c0.4,2.6,0.4,5.3,0.3,7.9c-0.1,2.6-0.4,5.2-0.9,7.8c-0.5,2.6-1.1,5.1-1.9,7.6
				c-0.8,2.5-1.8,4.9-3.1,7.3c0.1-2.7,0.5-5.2,0.8-7.8c0.4-2.6,0.8-5.1,1.3-7.6c0.5-2.5,1-5.1,1.5-7.6
				C618.5,607.3,619.1,604.8,619.9,602.3z"/>
		</g>
		<g>
			<path class="st1" d="M608.3,604.7c-0.2-0.2-0.4,0-0.5,0.1c-0.1,0.2-0.2,0.4-0.2,0.6c0,0.1,0,0.5,0.1,0.7l0,0.8
				c0,1.1,0.1,2.1,0,3.2c-0.1,2.1-0.2,4.2-0.5,6.3c-0.3,2.1-0.7,4.1-1.2,6.2c-0.5,2-1.1,4.1-2,6.1c-0.3-2.2-0.4-4.3-0.3-6.4
				c0.1-2.1,0.2-4.2,0.5-6.3c0.3-2.1,0.7-4.2,1.2-6.2c0.2-1,0.5-2,0.9-3.1l0.3-0.8c0.1-0.3,0.1-0.5,0.3-0.8c0.2-0.3,0.4-0.5,0.7-0.7
				c0.1-0.1,0.3-0.1,0.5-0.1C608.2,604.4,608.3,604.5,608.3,604.7z"/>
		</g>
		<g>
			<path class="st1" d="M597.5,602.8c0.2,2,0.1,4,0,5.9c-0.2,1.9-0.4,3.8-0.7,5.7c-0.3,1.9-0.8,3.8-1.3,5.7
				c-0.5,1.9-1.2,3.7-2.1,5.5c-0.3-2-0.4-4-0.3-5.9c0.1-2,0.3-3.9,0.7-5.8c0.3-1.9,0.8-3.8,1.4-5.7
				C595.8,606.4,596.5,604.6,597.5,602.8z"/>
		</g>
		<g>
			<path class="st1" d="M590.6,604.6c-0.6,0-0.7,0.5-0.8,0.9c0,0.2-0.1,0.4-0.1,0.7c0,0.2,0,0.4,0,0.7c0,1,0,2,0,3.1
				c0,2-0.1,4-0.3,6.1c-0.2,2-0.4,4-0.7,6c-0.3,2-0.6,4-1.2,6.1c-0.7-2-1-4.1-1.1-6.2c-0.2-2.1-0.1-4.1,0-6.2c0.2-2.1,0.5-4.1,1-6.1
				c0.2-1,0.5-2,0.9-3c0.1-0.2,0.2-0.5,0.3-0.8c0.1-0.3,0.3-0.5,0.5-0.8c0.2-0.2,0.4-0.4,0.7-0.6C590,604.4,590.4,604.4,590.6,604.6
				z"/>
		</g>
		<g>
			<path class="st1" d="M582.1,605.3c0.5,1.8,0.7,3.7,0.8,5.5c0.1,1.8,0.1,3.6,0,5.4c-0.1,1.8-0.3,3.6-0.7,5.4
				c-0.3,1.8-0.8,3.6-1.5,5.3c-0.5-1.8-0.7-3.7-0.8-5.5c-0.1-1.8-0.1-3.6,0-5.4c0.1-1.8,0.3-3.6,0.7-5.4
				C580.9,608.8,581.4,607,582.1,605.3z"/>
		</g>
		<g>
			<path class="st1" d="M574.3,605.9c0.3,2,0.3,4,0.3,6c-0.1,2-0.3,4-0.6,5.9c-0.3,2-0.7,3.9-1.2,5.8c-0.5,1.9-1.1,3.8-2,5.7
				c-0.3-2-0.4-4-0.3-6c0.1-2,0.3-4,0.6-5.9c0.3-2,0.7-3.9,1.2-5.8C572.8,609.6,573.4,607.7,574.3,605.9z"/>
		</g>
		<g>
			<path class="st1" d="M567.6,603.4c0.4,2.1,0.5,4.1,0.5,6.2c0,2-0.2,4.1-0.5,6.1c-0.3,2-0.7,4-1.3,6c-0.6,2-1.3,3.9-2.3,5.8
				c-0.2-2.1-0.2-4.1-0.1-6.2c0.1-2,0.3-4,0.6-6c0.3-2,0.7-4,1.1-5.9C566.3,607.4,566.8,605.4,567.6,603.4z"/>
		</g>
		<g>
			<path class="st1" d="M556.9,606.4c0.3,2.2,0.4,4.4,0.3,6.6c-0.1,2.2-0.2,4.4-0.5,6.5c-0.3,2.2-0.7,4.3-1.2,6.4
				c-0.5,2.1-1.1,4.2-2,6.3c-0.3-2.2-0.4-4.4-0.3-6.6c0.1-2.2,0.2-4.4,0.5-6.5c0.3-2.2,0.7-4.3,1.2-6.4
				C555.4,610.6,556,608.5,556.9,606.4z"/>
		</g>
		<g>
			<path class="st1" d="M743.8,540.4c0.8,0.9,1.3,1.8,1.7,2.8c0.4,1,0.7,1.9,0.8,2.9c0.2,1,0.2,2,0.2,3c-0.1,1-0.2,2.1-0.7,3.2
				c-0.8-0.9-1.3-1.8-1.7-2.8c-0.4-1-0.7-1.9-0.8-2.9c-0.2-1-0.2-2-0.2-3C743.2,542.5,743.3,541.5,743.8,540.4z"/>
		</g>
		<g>
			<path class="st1" d="M734.5,540.6c2.1,3.3,3.9,6.9,5.4,10.5c0.8,1.8,1.4,3.7,2.1,5.5c0.6,1.9,1.2,3.7,1.8,5.6
				c1.1,3.8,1.9,7.6,2.4,11.5c0.6,3.9,0.9,7.8,0.8,11.7c-1.1-3.8-2.1-7.5-3.1-11.3l-3-11.2l-0.8-2.8c-0.3-0.9-0.6-1.8-0.8-2.8
				l-0.8-2.8c-0.3-0.9-0.6-1.9-0.8-2.8C736.6,548.1,735.5,544.4,734.5,540.6z"/>
		</g>
		<g>
			<path class="st1" d="M737.9,569.8c-0.2-1-1.2-1.5-1.9-1.3l0.4-0.5c1.1,3.6,2.1,7.3,3,11c0.9,3.7,1.7,7.4,2.6,11.1
				c0.8,3.7,1.5,7.4,2.2,11.1c0.7,3.7,1.3,7.5,1.7,11.3c-1.5-3.5-2.8-7.1-3.9-10.8c-1.1-3.6-2.1-7.3-2.9-11
				c-0.8-3.7-1.6-7.4-2.2-11.2c-0.6-3.8-1.1-7.5-1.3-11.4l0-0.5l0.4,0C737.1,567.7,738,568.8,737.9,569.8z"/>
		</g>
		<g>
			<path class="st1" d="M728.8,580.6c1.1,3.8,2.9,7.1,4.5,10.7c0.8,1.8,1.5,3.6,2.2,5.4c0.7,1.8,1.2,3.7,1.8,5.6
				c1.1,3.8,1.8,7.7,2.3,11.6c0.5,3.9,0.6,7.8,0.3,11.7c-0.9-3.8-1.7-7.6-2.6-11.3c-0.9-3.7-1.8-7.5-2.8-11.1c-1-3.7-2.1-7.3-3.3-11
				C729.9,588.5,728.7,584.6,728.8,580.6z"/>
		</g>
		<g>
			<path class="st1" d="M726.4,605.9c2,3.7,3.7,7.5,5.2,11.5c0.8,1.9,1.4,3.9,2.1,5.9c0.7,2,1.2,4,1.8,6c1.1,4,2.1,8.1,2.9,12.2
				c0.8,4.1,1.4,8.3,1.6,12.5c-1.4-4-2.7-7.9-3.9-11.9c-1.2-4-2.4-8-3.5-12l-1.7-6c-0.5-2-1.1-4-1.6-6
				C728.3,614.1,727.3,610.1,726.4,605.9z"/>
		</g>
		<g>
			<path class="st1" d="M721.5,617.1c2.5,3.3,4.7,6.9,6.6,10.6c1,1.8,1.8,3.8,2.7,5.7c0.8,1.9,1.6,3.9,2.3,5.8
				c1.4,3.9,2.6,7.9,3.5,12c0.9,4.1,1.6,8.2,1.8,12.4c-1.4-3.9-2.7-7.9-4-11.7c-1.3-3.9-2.7-7.8-4.1-11.6l-1-2.9
				c-0.4-1-0.7-1.9-1.1-2.9l-2.2-5.8C724.5,624.9,722.9,621,721.5,617.1z"/>
		</g>
		<g>
			<path class="st1" d="M718.9,634.1c2.4,3.4,4.4,7,6.2,10.8c0.9,1.9,1.7,3.8,2.4,5.7c0.7,1.9,1.4,3.9,2,5.9c1.2,4,2.1,8,2.8,12.1
				c0.6,4.1,1,8.3,0.9,12.4c-1.1-4-2.1-8-3.2-11.9c-1.1-3.9-2.2-7.9-3.4-11.8l-0.9-2.9c-0.3-1-0.6-1.9-0.9-2.9l-1-2.9
				c-0.3-1-0.7-1.9-1-2.9C721.6,641.9,720.2,638,718.9,634.1z"/>
		</g>
		<g>
			<path class="st1" d="M712.7,652.8c2.7,3.3,5.1,6.8,7.2,10.5c1.1,1.8,2.1,3.7,3.1,5.5c1,1.9,1.9,3.8,2.9,5.7
				c1.8,3.8,3.4,7.7,4.9,11.7c1.4,4,2.7,8.1,3.5,12.2c-2-3.7-3.8-7.5-5.7-11.3l-5.4-11.4l-5.4-11.4
				C716.1,660.6,714.3,656.7,712.7,652.8z"/>
		</g>
		<g>
			<path class="st1" d="M708.6,666.5c2.6,1.5,4.8,3.4,6.9,5.5c2.1,2.1,4,4.3,5.7,6.8c1.7,2.4,3.1,5,4.4,7.7c1.2,2.7,2.2,5.5,2.7,8.4
				c-1.7-2.4-3.2-4.9-4.8-7.3c-1.6-2.4-3.1-4.8-4.7-7.1c-1.6-2.3-3.3-4.6-5-6.9C712.1,671.2,710.4,668.9,708.6,666.5z"/>
		</g>
		<g>
			<path class="st1" d="M691.8,669.6c2.3,1.2,4.4,2.7,6.4,4.3c2,1.7,3.8,3.5,5.4,5.5c1.6,2,3.1,4.1,4.3,6.4c1.2,2.3,2.3,4.6,2.9,7.2
				c-1.8-1.9-3.3-3.9-4.9-5.9l-4.7-5.8l-4.7-5.8C694.9,673.7,693.3,671.7,691.8,669.6z"/>
		</g>
		<g>
			<path class="st1" d="M681.8,668.8c2.8,1.7,5.3,3.8,7.7,6c2.4,2.2,4.6,4.6,6.7,7.1c2.1,2.5,4,5.1,5.7,7.9c1.7,2.8,3.2,5.6,4.4,8.7
				c-2.2-2.4-4.3-4.9-6.3-7.3l-6.1-7.4l-6-7.4C685.7,673.9,683.7,671.5,681.8,668.8z"/>
		</g>
		<g>
			<path class="st1" d="M673.2,678c2,1,3.8,2.2,5.5,3.5c1.7,1.3,3.3,2.8,4.8,4.3c1.5,1.5,2.9,3.2,4.2,4.9c1.3,1.7,2.5,3.5,3.4,5.6
				c-1.9-1.2-3.5-2.6-5.1-4c-1.6-1.4-3.1-2.9-4.6-4.4c-1.5-1.5-2.9-3.1-4.3-4.7C675.7,681.6,674.3,679.9,673.2,678z"/>
		</g>
		<g>
			<path class="st1" d="M660.4,681.3c1.8,0.4,3.4,1.1,5,2c1.6,0.9,3,1.9,4.4,3c1.4,1.1,2.6,2.4,3.7,3.8c1.1,1.4,2.1,2.9,2.8,4.6
				c-1.6-0.9-3-1.9-4.4-2.9c-1.4-1-2.7-2.1-4-3.2c-1.3-1.1-2.6-2.2-3.8-3.4C662.8,684,661.6,682.7,660.4,681.3z"/>
		</g>
		<g>
			<path class="st1" d="M650.5,687.4c1.9,0.2,3.8,0.8,5.5,1.5c1.7,0.8,3.4,1.7,4.9,2.8c1.5,1.1,3,2.4,4.2,3.8c1.3,1.4,2.4,3,3.2,4.7
				c-1.7-0.9-3.2-1.9-4.7-3c-1.5-1-3-2.1-4.4-3.1c-1.5-1-2.9-2.1-4.4-3.2C653.4,689.9,652,688.7,650.5,687.4z"/>
		</g>
		<g>
			<path class="st1" d="M655.9,628.6c1.8,0.9,3.3,2.1,4.8,3.3c1.5,1.2,2.9,2.5,4.2,3.9c1.3,1.4,2.6,2.8,3.7,4.4
				c1.2,1.5,2.2,3.1,3.1,4.9c-1.8-0.9-3.3-2.1-4.8-3.3c-1.5-1.2-2.9-2.5-4.2-3.9c-1.3-1.4-2.6-2.8-3.7-4.4
				C657.9,632,656.8,630.4,655.9,628.6z"/>
		</g>
		<g>
			<path class="st1" d="M666.8,626.6c1.8,0.6,3.3,1.5,4.8,2.5c1.5,1,2.8,2.2,4,3.5c1.2,1.3,2.3,2.7,3.2,4.3c0.9,1.5,1.7,3.2,2.1,5
				c-1.5-1.1-2.8-2.3-4-3.5c-1.2-1.2-2.4-2.4-3.6-3.7c-1.2-1.3-2.3-2.5-3.4-3.8C668.9,629.6,667.8,628.2,666.8,626.6z"/>
		</g>
		<g>
			<path class="st1" d="M681.4,629.5c2.2,0.7,4.3,1.6,6.3,2.6c2,1,3.9,2.1,5.8,3.3c1.9,1.2,3.7,2.5,5.5,3.9c0.9,0.7,1.8,1.6,2.5,2.7
				c0.3,0.5,0.6,1.1,0.7,1.8c0.1,0.6,0,1.3-0.3,1.8c-0.1-1.2-0.7-2-1.5-2.6c-0.8-0.7-1.7-1.1-2.6-1.6c-2-1-3.9-2.1-5.8-3.3
				c-1.9-1.2-3.7-2.5-5.5-3.9C684.7,632.6,683,631.2,681.4,629.5z"/>
		</g>
		<g>
			<path class="st1" d="M695,626.6c2.5,0.4,4.8,1.4,7,2.6c2.2,1.2,4.2,2.8,6,4.6c1.8,1.8,3.3,3.8,4.5,6c1.2,2.2,2.2,4.5,2.5,7
				c-1.5-2-3-3.9-4.5-5.7c-1.5-1.8-3.1-3.6-4.7-5.2c-1.6-1.7-3.4-3.2-5.2-4.8C698.8,629.6,696.9,628.1,695,626.6z"/>
		</g>
		<g>
			<path class="st1" d="M709.8,623.8c1.9,0.8,3.6,1.8,5.2,3c1.6,1.2,3.1,2.5,4.4,3.9c1.4,1.4,2.6,3,3.7,4.6c1.1,1.6,2.1,3.4,2.8,5.3
				c-1.7-1.2-3.2-2.5-4.6-3.8c-1.4-1.3-2.8-2.7-4.1-4.1c-1.3-1.4-2.6-2.8-3.9-4.3C712.2,627.1,710.9,625.6,709.8,623.8z"/>
		</g>
		<g>
			<path class="st1" d="M317.7,680.2c1.2,0.7,2.2,1.7,3.1,2.7c0.9,1,1.6,2.1,2.2,3.3c0.6,1.2,1.1,2.4,1.4,3.7
				c0.3,1.3,0.5,2.7,0.4,4.1c-1.1-1-1.8-2-2.6-3.1c-0.7-1.1-1.4-2.2-2-3.3c-0.6-1.1-1.1-2.3-1.6-3.5
				C318.3,682.9,317.9,681.6,317.7,680.2z"/>
		</g>
		<g>
			<path class="st1" d="M331,680.3c1.3,0.4,2.5,1.1,3.5,1.9c1,0.8,2,1.7,2.8,2.7c0.8,1,1.6,2,2.2,3.2c0.6,1.2,1.1,2.4,1.4,3.8
				c-1.2-0.7-2.3-1.5-3.2-2.3c-0.9-0.9-1.8-1.7-2.6-2.7c-0.8-0.9-1.6-1.9-2.3-3C332.2,682.7,331.5,681.6,331,680.3z"/>
		</g>
		<g>
			<path class="st1" d="M25.7,609.6c2,1.6,3.8,3.4,5.4,5.3c1.6,1.9,3.1,4,4.4,6.1c1.3,2.1,2.5,4.4,3.5,6.7c1,2.3,1.9,4.7,2.4,7.2
				c-1.6-2-3.1-4-4.5-6.1c-1.4-2.1-2.7-4.1-4-6.2c-1.3-2.1-2.6-4.2-3.8-6.3C27.9,614.1,26.7,611.9,25.7,609.6z"/>
		</g>
		<g>
			<path class="st1" d="M45.1,605.8c2.3,1.3,4.3,3,6.1,4.9c1.8,1.9,3.5,3.9,4.9,6.1c1.4,2.2,2.7,4.5,3.7,6.9c1,2.4,1.8,4.9,2.2,7.5
				c-1.5-2.1-2.9-4.3-4.3-6.4c-1.4-2.1-2.7-4.2-4.1-6.3c-1.4-2.1-2.8-4.1-4.2-6.2C47.9,610.1,46.5,608,45.1,605.8z"/>
		</g>
		<g>
			<path class="st1" d="M241.2,538.8c0.3,3.7,0.3,7.4,0.1,11.1c-0.2,3.7-0.5,7.3-1,11c-0.5,3.6-1.1,7.3-2,10.8
				c-0.8,3.6-1.8,7.1-3.1,10.6c0.1-3.7,0.4-7.4,0.8-11c0.4-3.6,0.8-7.3,1.3-10.9c0.5-3.6,1-7.2,1.7-10.8
				C239.6,546,240.3,542.4,241.2,538.8z"/>
		</g>
		<g>
			<path class="st1" d="M253.7,538.8c0.3,4.1,0.3,8.2,0.2,12.3c0,2-0.1,4.1-0.2,6.1l-0.4,6.1c-0.3,4.1-0.7,8.1-1.3,12.2
				c-0.5,4.1-1.2,8.1-2.1,12.1c-0.3-4.1-0.3-8.2-0.2-12.3c0.1-4.1,0.3-8.2,0.6-12.2l0.6-6.1c0.2-2,0.4-4.1,0.7-6.1
				C252.1,546.9,252.8,542.8,253.7,538.8z"/>
		</g>
		<g>
			<path class="st1" d="M266.4,539.5c0.2,3.8,0.2,7.5,0.1,11.3c0,3.7-0.1,7.5-0.3,11.2c-0.1,3.7-0.2,7.4-0.4,11.2
				c-0.2,3.7-0.4,7.5-0.8,11.2c-0.8-3.7-1.3-7.5-1.5-11.2c-0.3-3.8-0.3-7.5-0.2-11.3c0.1-3.8,0.4-7.5,0.9-11.3
				C264.6,546.8,265.3,543.1,266.4,539.5z"/>
		</g>
		<g>
			<path class="st1" d="M282.7,539.5c0.1,4.1,0.1,8.1,0,12l-0.3,12l-0.4,12c-0.1,2-0.2,4-0.3,6l-0.2,3c0,0.5-0.1,1,0,1.4
				c0.1,0.2,0.2,0.3,0.3,0.3c0.2,0,0.4-0.3,0.2-0.5c0.1,0,0.2,0.2,0.2,0.3c0,0.1-0.1,0.3-0.3,0.3c-0.1,0.1-0.3,0.1-0.5,0
				c-0.1-0.1-0.3-0.2-0.4-0.3c-0.2-0.3-0.2-0.6-0.3-0.8l-0.1-0.7c-0.2-1-0.3-2-0.5-3c-0.3-2-0.5-4-0.6-6c-0.3-4-0.4-8.1-0.2-12.1
				c0.1-2,0.2-4,0.3-6c0.2-2,0.3-4,0.6-6C280.9,547.4,281.6,543.4,282.7,539.5z"/>
		</g>
		<g>
			<path class="st1" d="M297.7,540.2c0.5,4,0.8,7.9,1,11.9c0.2,4,0.2,7.9,0.1,11.9c0,4-0.2,7.9-0.5,11.9c-0.3,4-0.7,7.9-1.3,11.8
				l-0.2-0.1l0.6-0.5l-0.5,0.7l-0.2,0.2l0-0.3c-0.5-4-0.7-7.9-0.9-11.9c-0.1-4-0.2-7.9-0.1-11.9c0.1-4,0.2-7.9,0.5-11.9
				C296.7,548.1,297.1,544.1,297.7,540.2z"/>
		</g>
		<g>
			<path class="st1" d="M313.8,538.2c0.4,4.3,0.7,8.6,0.8,12.9c0.1,2.1,0.1,4.3,0.2,6.4l0.2,6.4c0.1,4.3,0.1,8.6,0.1,12.9
				c0,2.1,0,4.3,0,6.5l-0.1,3.2c0,0.5-0.1,1.1,0,1.5c0,0.2,0.2,0.4,0.3,0.4c0.1,0,0.2-0.1,0.2-0.2c0-0.1,0-0.3-0.1-0.3
				c0.1-0.1,0.3,0.1,0.3,0.3c0,0.2-0.1,0.3-0.2,0.4c-0.4,0.2-0.7-0.1-0.9-0.4c-0.3-0.6-0.3-1.1-0.4-1.6c-0.2-1.1-0.4-2.1-0.6-3.2
				c-0.3-2.1-0.6-4.3-0.8-6.4c-0.4-4.3-0.7-8.6-0.8-12.9c0-2.2,0-4.3,0-6.5c0.1-2.2,0.1-4.3,0.3-6.5
				C312.5,546.7,313,542.4,313.8,538.2z"/>
		</g>
		<g>
			<path class="st1" d="M328.2,540.2c0.6,4.1,0.9,8.2,1.2,12.3c0.1,2.1,0.2,4.1,0.2,6.2l0.1,6.2c0,4.1-0.1,8.2-0.3,12.3
				c-0.1,2.1-0.3,4.1-0.4,6.2l-0.3,3.1c-0.1,0.5-0.1,1.1-0.2,1.5c0,0.2,0,0.4,0.2,0.5c0,0,0.1,0,0.2-0.1c0-0.1,0.1-0.3-0.1-0.2
				c0,0,0.2,0,0.2,0c0,0.1,0,0.1,0,0.2c0,0.1-0.1,0.3-0.3,0.3c-0.4,0-0.6-0.4-0.6-0.7c-0.1-0.6-0.1-1-0.2-1.6l-0.3-3.1
				c-0.2-2.1-0.3-4.1-0.4-6.2c-0.2-4.1-0.3-8.2-0.3-12.3l0.1-6.2c0.1-2.1,0.1-4.1,0.3-6.2C327.3,548.4,327.6,544.3,328.2,540.2z"/>
		</g>
		<g>
			<path class="st1" d="M339.9,539.5c1,4.2,1.7,8.4,2.3,12.6c0.3,2.1,0.5,4.2,0.7,6.3c0.2,2.1,0.3,4.2,0.5,6.4
				c0.3,4.2,0.4,8.5,0.4,12.8c0,4.3-0.2,8.5-0.7,12.8c-0.7-4.2-1.2-8.5-1.6-12.7c-0.4-4.2-0.8-8.4-1-12.7l-0.3-6.3
				c-0.1-2.1-0.2-4.2-0.2-6.4C339.8,548.1,339.7,543.8,339.9,539.5z"/>
		</g>
		<g>
			<path class="st1" d="M350.2,541.6c0.9,4,1.5,8,2.1,12c0.6,4,1.1,8,1.6,12c0.5,4,0.9,8,1.3,12c0.4,4,0.7,8.1,0.9,12.1l-0.5-0.2
				c0.6-0.4,1.2-0.7,1.8-1.1c-0.5,0.5-1,1-1.4,1.5l-0.3,0.3l-0.1-0.5c-1.1-3.9-2-7.9-2.8-11.9c-0.7-4-1.3-8-1.8-12.1
				c-0.4-4-0.8-8.1-0.9-12.1C349.9,549.7,349.9,545.6,350.2,541.6z"/>
		</g>
		<g>
			<path class="st1" d="M365.6,538.9c0.8,4.5,1.3,9,1.7,13.5c0.2,2.2,0.4,4.5,0.6,6.8l0.4,6.8c0.3,4.5,0.4,9,0.5,13.5
				c0,2.3,0,4.5,0,6.8l-0.1,3.4c0,1.1-0.1,2.2,0.7,3.1c-0.5-0.3-0.8-0.8-1.1-1.4c-0.2-0.6-0.3-1.1-0.4-1.7l-0.6-3.4
				c-0.3-2.2-0.6-4.5-0.9-6.7c-0.5-4.5-0.9-9-1.1-13.5c-0.1-2.3-0.2-4.5-0.3-6.8c0-2.3-0.1-4.5-0.1-6.8
				C365,547.9,365.1,543.4,365.6,538.9z"/>
		</g>
		<g>
			<path class="st1" d="M375.9,540.2c1.1,4.5,1.8,9.1,2.5,13.7c0.4,2.3,0.6,4.6,0.9,6.9l0.8,6.9l0.6,6.9c0.1,2.3,0.3,4.6,0.4,6.9
				c0.1,2.3,0.2,4.6,0.2,6.9l0,3.5c0,0.6-0.1,1.2,0.1,1.6c0.1,0.2,0.2,0.4,0.4,0.3c0.2-0.1,0.5-0.4,0.2-0.6c0.2,0,0.3,0.2,0.2,0.4
				c0,0.2-0.1,0.3-0.3,0.4c-0.1,0.1-0.4,0.1-0.6,0.1c-0.2-0.1-0.3-0.2-0.4-0.4c-0.2-0.3-0.3-0.6-0.3-0.9l-0.2-0.9l-0.7-3.4
				c-0.4-2.3-0.8-4.6-1.1-6.9c-0.4-2.3-0.6-4.6-0.9-6.9l-0.8-6.9l-0.6-6.9c-0.1-2.3-0.3-4.6-0.4-6.9
				C375.9,549.5,375.8,544.9,375.9,540.2z"/>
		</g>
		<g>
			<path class="st1" d="M387.2,540.9c1.2,4.4,2,8.8,2.8,13.2c0.8,4.4,1.5,8.8,2.1,13.3c0.6,4.4,1.1,8.9,1.5,13.4
				c0.4,4.5,0.7,8.9,0.8,13.5l-0.6-0.1c0.4-0.8,0.9-1.5,1.4-2.3c-0.3,0.9-0.5,1.7-0.8,2.6l-0.3,1l-0.3-1.1c-1-4.4-1.9-8.8-2.6-13.2
				c-0.7-4.4-1.4-8.9-1.9-13.3c-0.5-4.4-1-8.9-1.4-13.4C387.5,549.9,387.2,545.4,387.2,540.9z"/>
		</g>
		<g>
			<path class="st1" d="M399.8,540.9c1.3,4.6,2.3,9.3,3.2,14c0.9,4.7,1.5,9.4,2,14.2c0.3,2.4,0.4,4.8,0.6,7.1
				c0.2,2.4,0.3,4.8,0.4,7.1c0.2,4.8,0.2,9.6-0.1,14.3l-0.4-0.1l1.3-1.2l-1,1.5l-0.3,0.5l-0.1-0.6c-0.7-4.7-1.3-9.4-1.9-14.2
				l-0.8-7.1l-0.7-7.1c-0.5-4.7-0.9-9.4-1.3-14.2C400.3,550.5,399.9,545.7,399.8,540.9z"/>
		</g>
		<g>
			<path class="st1" d="M415.5,541.3c0.9,4.5,1.6,9.1,2.2,13.6c0.3,2.3,0.6,4.5,0.9,6.8l0.8,6.8c0.2,2.3,0.5,4.5,0.8,6.8l0.9,6.8
				l1.9,13.6c-1.8-4.3-3.1-8.7-4.2-13.2c-0.5-2.2-0.9-4.5-1.4-6.8c-0.4-2.3-0.7-4.6-1-6.9c-0.2-2.3-0.5-4.6-0.7-6.9
				c-0.1-2.3-0.3-4.6-0.4-6.9C415.2,550.6,415.2,546,415.5,541.3z"/>
		</g>
		<g>
			<path class="st1" d="M431.3,540.7c-0.1,2.3,0.2,4.6,0.6,6.8c0.4,2.3,0.8,4.5,1.1,6.8c0.4,2.3,0.7,4.6,1,6.9l0.8,6.9l0.6,6.9
				c0.2,2.3,0.4,4.6,0.5,6.9c0.3,4.6,0.4,9.2,0.3,13.9c-1.1-4.5-1.9-9.1-2.6-13.6c-0.4-2.3-0.6-4.6-1-6.9l-0.8-6.9l-0.6-6.9
				c-0.2-2.3-0.4-4.6-0.5-6.9c-0.1-2.3-0.2-4.6-0.3-6.9C430.5,545.4,430.6,543,431.3,540.7z"/>
		</g>
		<g>
			<path class="st1" d="M447.1,541.5c0.7,4.5,1.2,8.9,1.5,13.4c0.2,2.2,0.3,4.5,0.4,6.7l0.3,6.7c0.1,4.5,0.1,8.9,0,13.4
				c-0.1,4.5-0.3,8.9-0.8,13.4c-0.7-4.4-1.2-8.9-1.5-13.3c-0.3-4.5-0.6-8.9-0.7-13.4l-0.1-6.7c0-2.2,0-4.5,0.1-6.7
				C446.4,550.5,446.6,546,447.1,541.5z"/>
		</g>
		<g>
			<path class="st1" d="M459,539.5c0.6,4.7,0.9,9.5,1.2,14.2c0.1,2.4,0.2,4.7,0.3,7.1l0.1,7.1l-0.1,7.1c-0.1,2.4-0.1,4.7-0.2,7.1
				c-0.2,4.7-0.5,9.5-1.2,14.2c-0.6-4.7-1-9.5-1.2-14.2c-0.1-2.4-0.2-4.7-0.2-7.1l-0.1-7.1l0.1-7.1c0.1-2.4,0.1-4.7,0.3-7.1
				C458.1,549,458.4,544.2,459,539.5z"/>
		</g>
		<g>
			<path class="st1" d="M228.3,574.6c1.6,0.3,3.1,0.9,4.4,1.6c1.4,0.8,2.6,1.7,3.8,2.7c1.2,1,2.2,2.2,3.1,3.4
				c0.9,1.3,1.7,2.6,2.2,4.2c-1.4-0.8-2.7-1.7-3.9-2.6c-1.2-0.9-2.3-1.9-3.4-2.8c-1.1-1-2.2-2-3.2-3
				C230.3,577,229.3,575.9,228.3,574.6z"/>
		</g>
		<g>
			<path class="st1" d="M239,573.9c1.6,0.3,3.1,1,4.5,1.7c1.4,0.8,2.7,1.7,3.9,2.7c1.2,1,2.3,2.2,3.3,3.4c1,1.3,1.9,2.6,2.5,4.2
				c-1.5-0.7-2.8-1.6-4.1-2.5c-1.3-0.9-2.5-1.8-3.6-2.8c-1.2-1-2.3-2-3.4-3.1C241.1,576.4,240,575.3,239,573.9z"/>
		</g>
		<g>
			<path class="st1" d="M256.4,575.3c2,0.6,3.8,1.6,5.5,2.7c1.7,1.1,3.3,2.3,4.8,3.7c1.5,1.3,2.9,2.8,4.1,4.4
				c1.2,1.6,2.4,3.3,3.2,5.2c-1.8-1.1-3.3-2.3-4.9-3.5c-1.5-1.2-3-2.5-4.5-3.8c-1.4-1.3-2.9-2.7-4.2-4.1
				C259,578.4,257.6,577,256.4,575.3z"/>
		</g>
		<g>
			<path class="st1" d="M274.1,577.7c1.3,0.1,2.5,0.6,3.7,1.1c1.1,0.6,2.1,1.3,3,2.2c0.9,0.9,1.7,1.8,2.3,2.9
				c0.6,1.1,1.1,2.3,1.3,3.6c-1.2-0.6-2.2-1.3-3.1-2.1c-0.9-0.7-1.8-1.5-2.6-2.3c-0.8-0.8-1.6-1.6-2.4-2.5
				C275.6,579.8,274.8,578.8,274.1,577.7z"/>
		</g>
		<g>
			<path class="st1" d="M289.4,579.5c0,0-0.1,0-0.2,0c-0.1,0-0.1-0.1-0.1-0.2c0-0.2,0.1-0.2,0.2-0.3c0.2-0.2,0.4-0.3,0.6-0.3
				c0.1,0,0.3,0,0.4,0c0.2,0,0.4,0.2,0.4,0.2l0.5,0.3c0.7,0.3,1.3,0.7,1.9,1.1c1.2,0.8,2.3,1.7,3.4,2.7c1.1,1,2.1,2,3,3.2
				c0.9,1.1,1.7,2.4,2.4,3.8c-1.5-0.5-2.8-1.2-4-2c-1.2-0.8-2.3-1.7-3.4-2.7c-1.1-1-2.1-2-3-3.2c-0.5-0.6-0.9-1.2-1.3-1.8l-0.3-0.5
				c-0.1-0.1,0-0.1,0-0.1c0,0,0-0.1-0.1-0.1c-0.1-0.1-0.3-0.1-0.4-0.1C289.4,579.4,289.2,579.4,289.4,579.5z"/>
		</g>
		<g>
			<path class="st1" d="M302.9,576.3c1.5,0.9,2.7,1.9,3.9,3c1.2,1.1,2.3,2.2,3.3,3.3c1,1.2,2,2.4,3,3.6c0.9,1.3,1.8,2.6,2.5,4.1
				c-1.6-0.6-2.9-1.5-4.2-2.5c-1.3-1-2.4-2.1-3.5-3.3c-1.1-1.2-2-2.5-2.9-3.8C304.1,579.4,303.3,577.9,302.9,576.3z"/>
		</g>
		<g>
			<path class="st1" d="M313.4,579.2c1.4,0.2,2.6,0.8,3.7,1.4c1.1,0.6,2.2,1.4,3.2,2.2c1,0.8,1.9,1.8,2.7,2.8c0.8,1,1.5,2.2,1.9,3.5
				c-1.3-0.5-2.5-1.1-3.5-1.8c-1.1-0.7-2.1-1.4-3-2.2c-0.9-0.8-1.8-1.7-2.7-2.6C314.8,581.4,314,580.4,313.4,579.2z"/>
		</g>
		<g>
			<path class="st1" d="M326.2,579c1.6,0.8,3.1,1.7,4.4,2.7c1.4,1,2.7,2.1,3.9,3.2c1.2,1.1,2.4,2.3,3.6,3.6c1.1,1.3,2.2,2.6,3.2,4.2
				c-1.7-0.6-3.2-1.4-4.7-2.4c-1.4-0.9-2.8-2-4.1-3.2c-1.3-1.2-2.5-2.4-3.5-3.7C328,582,327,580.6,326.2,579z"/>
		</g>
		<g>
			<path class="st1" d="M338.1,581.8c1.5,0.5,2.8,1.2,4,2c1.2,0.8,2.3,1.7,3.3,2.8c1,1,1.9,2.1,2.8,3.3c0.8,1.2,1.5,2.5,2,4
				c-1.4-0.7-2.6-1.5-3.7-2.3c-1.1-0.9-2.2-1.8-3.2-2.8c-1-1-1.9-2-2.8-3.2C339.6,584.3,338.8,583.2,338.1,581.8z"/>
		</g>
		<g>
			<path class="st1" d="M353.4,581.4c0.4-0.3,0.9-0.6,1.4-0.8c0.5-0.1,1.1-0.2,1.7-0.1c1.1,0.1,2.2,0.6,3.1,1.1
				c0.9,0.5,1.8,1.2,2.5,1.9c0.7,0.7,1.5,1.3,2.2,2c1.4,1.4,2.7,2.9,4,4.4c1.2,1.6,2.4,3.2,3.4,5c-1.8-1-3.5-2.1-5-3.4
				c-1.6-1.2-3-2.6-4.4-4c-0.7-0.7-1.4-1.4-2-2.2c-0.6-0.7-1.3-1.4-1.9-2c-0.7-0.6-1.3-1.2-2.1-1.6
				C355.3,581.5,354.4,581.3,353.4,581.4z"/>
		</g>
		<g>
			<path class="st1" d="M373.5,583.8c1.3,0.5,2.3,1.2,3.3,1.9c1,0.7,1.9,1.5,2.8,2.3c0.9,0.8,1.7,1.7,2.5,2.6
				c0.8,0.9,1.6,1.9,2.2,3.1c-1.4-0.2-2.6-0.7-3.7-1.3c-1.1-0.6-2.1-1.3-3.1-2.2c-0.9-0.8-1.8-1.8-2.5-2.8
				C374.4,586.2,373.8,585.1,373.5,583.8z"/>
		</g>
		<g>
			<path class="st1" d="M386.3,581c1.5,0.6,2.8,1.3,4,2.2c1.2,0.8,2.3,1.8,3.4,2.8c1.1,1,2,2.1,2.9,3.2c0.9,1.2,1.7,2.4,2.4,3.9
				c-1.5-0.6-2.8-1.3-4-2.2c-1.2-0.8-2.3-1.8-3.4-2.8c-1.1-1-2-2.1-2.9-3.3C387.7,583.7,386.9,582.4,386.3,581z"/>
		</g>
		<g>
			<path class="st1" d="M399.3,585.4c1.6,0.5,3,1.2,4.4,1.9c1.3,0.8,2.6,1.6,3.8,2.6c1.2,0.9,2.4,2,3.4,3.1c1.1,1.1,2.1,2.3,2.9,3.8
				c-1.6-0.5-3-1.2-4.4-1.9c-1.3-0.8-2.6-1.6-3.8-2.6c-1.2-0.9-2.4-2-3.4-3.1C401.2,588,400.1,586.8,399.3,585.4z"/>
		</g>
		<g>
			<path class="st1" d="M417.6,585.7c1.6,0.2,3.1,0.7,4.5,1.4c1.4,0.7,2.7,1.5,3.9,2.5c1.2,1,2.3,2.1,3.3,3.3c1,1.2,1.8,2.6,2.3,4.1
				c-1.5-0.7-2.7-1.6-4-2.4c-1.2-0.9-2.4-1.8-3.5-2.7c-1.1-0.9-2.3-1.9-3.4-2.9C419.7,588,418.6,587,417.6,585.7z"/>
		</g>
		<g>
			<path class="st1" d="M431.9,585.3c1.9,0.4,3.6,1.1,5.2,1.9c1.6,0.8,3.2,1.8,4.7,2.9c1.5,1.1,2.9,2.2,4.2,3.5
				c1.3,1.3,2.5,2.7,3.5,4.3c-1.8-0.7-3.4-1.6-4.9-2.5c-1.5-0.9-3-1.9-4.5-3c-1.4-1-2.9-2.2-4.2-3.3
				C434.5,588,433.1,586.7,431.9,585.3z"/>
		</g>
		<g>
			<path class="st1" d="M447.6,587.1c1.4,0.4,2.6,1.1,3.8,1.8c1.2,0.7,2.2,1.5,3.2,2.4c1,0.9,1.9,1.8,2.8,2.9
				c0.9,1.1,1.6,2.2,2.2,3.5c-1.4-0.4-2.6-1.1-3.8-1.8c-1.2-0.7-2.2-1.5-3.2-2.4c-1-0.9-1.9-1.8-2.8-2.9
				C449,589.5,448.2,588.4,447.6,587.1z"/>
		</g>
		<g>
			<path class="st1" d="M457,589c1.1,0.2,2,0.5,2.8,1c0.8,0.5,1.6,1,2.2,1.6c0.7,0.6,1.3,1.3,1.8,2.1c0.5,0.8,1,1.6,1.2,2.7
				c-1.1-0.2-2-0.5-2.8-1c-0.8-0.5-1.6-1-2.2-1.6c-0.7-0.6-1.3-1.3-1.8-2.1C457.7,591,457.3,590.1,457,589z"/>
		</g>
	</g>
</g>
</svg>
