<?xml version="1.0" encoding="utf-8"?>
<!-- Generator: Adobe Illustrator 22.0.1, SVG Export Plug-In . SVG Version: 6.00 Build 0)  -->
<svg version="1.1" id="圖層_1" xmlns="http://www.w3.org/2000/svg" xmlns:xlink="http://www.w3.org/1999/xlink" x="0px" y="0px"
	 viewBox="0 0 750 700" style="enable-background:new 0 0 750 700;" xml:space="preserve">
<style type="text/css">
	.st0{fill:#B58647;stroke:#534741;stroke-width:3;stroke-miterlimit:10;}
	.st1{fill:#534741;}
	.st2{fill:#B58647;}
</style>
<g>
	<g>
		<path class="st0" d="M22.4,538l20.2,50.3c257.4,48.1,713.2-41.8,709.1-23.6c-4.1,18.2-67.4,123.1-67.4,123.1
			C663.7,692.7,14.9,699,14.9,699L1.7,538H22.4z"/>
		<g>
			<path class="st1" d="M698.7,663.9c-1.7,1.7-3.4,2.3-5.2,2.7c-0.9,0.1-1.8,0.1-2.7,0.2l-2.7,0.2l-10.7,0.6
				c-7.1,0.5-14.3,0.8-21.4,1.2s-14.3,0.7-21.4,1l-21.4,0.9l-42.9,1.6l-21.4,0.9l-21.4,1c-57.2,2.7-114.3,5.9-171.5,8.3
				c-28.6,1.1-57.2,2.1-85.8,3c-28.6,0.9-57.2,1.6-85.8,2.1l-21.5,0.4l-21.5,0.3c-14.3,0.2-28.7,0.4-43,0.3
				c-7.2,0-14.3-0.1-21.5-0.3c-3.6-0.1-7.2-0.3-10.8-0.4c-3.6-0.2-7.2-0.4-10.8-0.6c-7.1-0.5-14.3-1-21.5-1.9
				c-3.6-0.5-7.2-1-10.8-1.6c-1.8-0.3-3.6-0.8-5.3-1.5c-0.5-0.2-0.9-0.4-1.3-0.6c-0.4-0.2-0.8-0.5-1.2-0.8c-0.8-0.6-1.5-1.2-2.2-2.1
				l0.1-0.3c2.1-0.8,3.9-0.8,5.7-0.9c1.8,0,3.5,0.3,5.2,0.6c3.5,0.6,7,1,10.5,1.4l5.3,0.5l5.3,0.4c3.5,0.3,7.1,0.5,10.6,0.8
				c7.2,0.4,14.3,0.8,21.4,1.1l10.7,0.4c3.6,0.2,7.1,0.3,10.7,0.4c28.6,1,57.2,1.4,85.8,1.1s57.2-0.9,85.8-1.7
				c28.6-0.8,57.2-1.8,85.8-2.9c28.6-1,57.2-2.1,85.8-3.3l42.9-1.9l42.9-2.2l21.4-1.3l21.4-1.4l42.8-3.1l21.4-1.5
				c7.1-0.5,14.3-1.1,21.4-1.5c7.1-0.5,14.3-1,21.4-1.4l10.7-0.7l2.7-0.2c0.9-0.1,1.8-0.2,2.7-0.1c1.8,0.1,3.6,0.5,5.5,2
				L698.7,663.9z"/>
		</g>
		<g>
			<path class="st1" d="M733.9,601.7c-3.6,1.1-7.3,1.3-11,1.5l-11,0.8l-21.9,1.6c-14.7,0.9-29.5,1.8-44.2,2.7
				c-29.5,1.7-58.9,3.5-88.4,5.1c-29.5,1.8-58.9,3.5-88.4,5.1c-29.4,1.6-58.9,3.2-88.4,4.6c-59,2.8-118,5.2-177,6.5
				c-14.8,0.3-29.5,0.6-44.3,0.8s-29.5,0.3-44.3,0.2c-3.7,0-7.4,0-11.1-0.1c-3.7,0-7.4-0.1-11.1-0.2c-7.4-0.2-14.8-0.5-22.2-0.9
				c-7.4-0.5-14.8-1-22.2-1.8c-1.8-0.2-3.7-0.5-5.5-0.7s-3.7-0.5-5.5-0.8c-1-0.2-1.9-0.4-2.8-0.6s-1.8-0.5-2.7-0.8
				c-0.4-0.2-0.9-0.3-1.3-0.5c-0.4-0.2-0.9-0.4-1.3-0.6c-0.9-0.4-1.7-0.9-2.5-1.5l0.1-0.3c1-0.1,2-0.1,2.9-0.1l2.8,0.1
				c1.8,0.1,3.6,0.4,5.4,0.6c1.8,0.3,3.6,0.6,5.4,0.8c1.9,0.2,3.7,0.4,5.5,0.6c7.3,0.8,14.7,1.2,22,1.6c3.6,0.2,7.3,0.4,11,0.5
				c3.6,0.1,7.3,0.3,11,0.4c3.6,0.1,7.3,0.2,11,0.3c3.7,0.1,7.4,0.1,11.1,0.2c14.7,0.2,29.5,0.3,44.2,0.3
				c14.7-0.1,29.5-0.3,44.2-0.5c59-1.2,117.9-3.3,176.9-5.9c29.4-1.3,58.9-2.6,88.4-4.1s58.9-3.1,88.4-4.7c29.5-1.8,59-3.6,88.4-5.5
				l44.2-2.9l22.1-1.4l11-0.7c3.7-0.3,7.4-0.6,11.1,0V601.7z"/>
		</g>
		<g>
			<polygon class="st2" points="529.9,584.5 521.3,538 284.8,538 284.8,601.9 			"/>
			<path class="st1" d="M346.5,596.7l61.3-4.8c20.4-1.6,40.7-3.1,61-4.6l61-4.2l-1.3,1.6l-8.4-46.5l1.2,1l-236.5-0.8l0.4-0.4
				l-0.3,63.8L346.5,596.7z M284.4,537.9v-0.4h0.4l236.5-0.8h1l0.2,1l8.8,46.5l0.3,1.5l-1.6,0.1l-61.6,4.5
				c-20.5,1.4-41,2.8-61.5,4.1l-61.3,3.9l-60.9,3.7L284.4,537.9z"/>
		</g>
	</g>
	<g>
		<g>
			<path class="st1" d="M54.4,671.5c-4.3-9-8.6-17.9-13.2-26.6c-4.6-8.7-9.5-17.3-14.8-25.6c-2.7-4.1-5.5-8.2-8.5-12.1
				s-6.2-7.7-9.7-11.2c4,2.9,7.6,6.5,10.9,10.2s6.4,7.6,9.3,11.7c2.9,4,5.6,8.2,8.2,12.5c2.5,4.3,5,8.6,7.3,13s4.5,8.9,6.6,13.4
				c2.1,4.6,4.1,9.1,6,13.7c3.8,9.2,7.3,18.5,10.2,28C62.7,689.4,58.6,680.4,54.4,671.5z"/>
		</g>
		<g>
			<path class="st1" d="M742.3,575.2c-1.4,3.4-2.9,6.7-4.5,10c-1.6,3.3-3.3,6.5-5.1,9.7c-1.8,3.2-3.7,6.3-5.9,9.3
				c1.1-3.5,2.4-6.9,3.8-10.3s2.9-6.7,4.5-10s3.3-6.5,5.1-9.7c1.8-3.2,3.7-6.3,5.9-9.3C745,568.5,743.7,571.9,742.3,575.2z"/>
		</g>
		<g>
			<path class="st1" d="M732.2,576c-0.5,1.9-1.2,3.7-1.8,5.6c-0.7,1.9-1.4,3.7-2.1,5.5c-1.4,3.6-3.1,7.1-4.9,10.6
				c-1.8,3.4-3.8,6.8-6.1,10c1.1-3.7,2.5-7.4,3.9-11c1.4-3.6,2.8-7.2,4.3-10.8l2.2-5.4c0.8-1.7,1.5-3.5,2.3-5.3
				c1.5-3.5,3-7.1,4.8-10.6C734.2,568.5,733.3,572.3,732.2,576z"/>
		</g>
		<g>
			<path class="st1" d="M723.3,573.2c-0.6,3.6-1.4,7.1-2.3,10.6c-1,3.5-2,6.9-3.3,10.3c-1.2,3.3-2.7,6.7-4.4,9.9
				c0.6-3.6,1.4-7.1,2.2-10.6c0.8-3.5,1.7-6.9,2.6-10.4s1.9-7,2.9-10.4c1-3.4,2.1-6.9,3.4-10.3C724.3,565.9,723.9,569.5,723.3,573.2
				z"/>
		</g>
		<g>
			<path class="st1" d="M715.2,576.2c-0.3,1.9-0.7,3.8-1.1,5.7c-0.4,1.9-0.9,3.7-1.4,5.6c-1.1,3.7-2.3,7.3-3.8,10.9
				c-1.5,3.5-3.1,7-5.2,10.3c0.9-3.8,2-7.4,3-11.1l3.1-11c0.5-1.8,1-3.7,1.5-5.5l0.8-2.7c0.3-0.9,0.5-1.8,0.8-2.7
				c1-3.6,2-7.3,3.2-11C716.2,568.5,715.8,572.4,715.2,576.2z"/>
		</g>
		<g>
			<path class="st1" d="M705.4,579.1c-0.7,3.2-1.5,6.2-2.4,9.3c-0.9,3.1-1.9,6.1-3,9.1c-1.1,3-2.3,5.9-3.8,8.8
				c0.2-3.2,0.8-6.4,1.5-9.5c0.7-3.2,1.5-6.2,2.4-9.3s1.9-6.1,3-9.1s2.3-5.9,3.8-8.8C706.6,572.8,706.1,576,705.4,579.1z"/>
		</g>
		<g>
			<path class="st1" d="M699.3,578.6c-0.6,3.5-1.5,6.9-2.6,10.2c-1,3.4-2.3,6.6-3.8,9.8s-3.2,6.3-5.2,9.2c0.9-3.4,1.9-6.7,3-10
				l3.2-9.9l3.2-9.8c1.1-3.3,2.2-6.6,3.5-9.9C700.5,571.8,700,575.3,699.3,578.6z"/>
		</g>
		<g>
			<path class="st1" d="M688.9,581.6c-0.7,2.8-1.5,5.6-2.4,8.3c-0.8,2.7-1.7,5.5-2.7,8.2c-0.9,2.7-1.9,5.4-3.2,8.1
				c0.1-2.9,0.5-5.8,1-8.7s1.2-5.7,2.1-8.5c0.9-2.8,1.9-5.5,3.1-8.2c1.2-2.6,2.5-5.2,4.2-7.7C690.5,576,689.8,578.8,688.9,581.6z"/>
		</g>
		<g>
			<path class="st1" d="M681,581.4c-0.8,3.1-1.7,6.2-2.7,9.2s-2.1,6-3.3,9c-1.2,3-2.5,5.9-4.1,8.8c0.4-3.2,1.1-6.4,1.9-9.5
				c0.8-3.1,1.7-6.2,2.7-9.2s2.1-6,3.3-9s2.5-5.9,4.1-8.8C682.4,575.2,681.8,578.3,681,581.4z"/>
		</g>
		<g>
			<path class="st1" d="M670.4,585.1c-0.4,2.5-1,4.9-1.7,7.3c-0.6,2.4-1.4,4.8-2.3,7.1c-0.9,2.4-1.9,4.7-3.2,6.9
				c0.1-2.6,0.5-5,0.9-7.5c0.4-2.5,1-4.9,1.7-7.3c0.6-2.4,1.4-4.8,2.3-7.1c0.9-2.4,1.9-4.7,3.2-6.9
				C671.3,580.2,670.9,582.7,670.4,585.1z"/>
		</g>
		<g>
			<path class="st1" d="M662.1,582.6l-1.9,6.7l-2,6.7c-0.7,2.3-1.4,4.5-2.3,6.8c-0.3-2.5-0.3-4.9,0-7.3c0.2-2.4,0.7-4.8,1.4-7.1
				s1.5-4.5,2.6-6.7c1.1-2.2,2.3-4.2,3.9-6.1C663.3,578,662.7,580.3,662.1,582.6z"/>
		</g>
		<g>
			<path class="st1" d="M654.2,582.4c-0.9,2.6-1.8,5.2-2.7,7.7c-0.9,2.5-1.9,5.1-2.9,7.6c-1,2.6-2,5.1-3.3,7.6
				c0.1-2.8,0.5-5.6,1.1-8.3c0.6-2.7,1.3-5.4,2.3-8s2.1-5.2,3.4-7.6c1.3-2.5,2.7-4.8,4.5-7C655.9,577.1,655,579.7,654.2,582.4z"/>
		</g>
		<g>
			<path class="st1" d="M645.3,582.9c-1.1,2.8-2.5,5.5-3.9,8.1c-1.4,2.6-2.7,5.2-3.7,7.9c-0.9,2.7-1.5,5.5-1.4,8.6
				c-1.3-2.8-1.5-6.1-0.8-9.2c0.6-3.1,1.9-5.9,3.3-8.6c1.5-2.7,3-5.3,4.5-7.8c1.4-2.5,2.8-5.1,4-7.9
				C647.3,577.1,646.4,580.2,645.3,582.9z"/>
		</g>
		<g>
			<path class="st1" d="M633.2,586.4c-0.6,2.1-1.1,4.1-1.6,6.2c-0.5,2.1-1,4.1-1.4,6.2c-0.5,2.1-0.8,4.2-1.4,6.4
				c-0.8-2.1-1-4.4-1-6.6c0-2.3,0.3-4.5,0.8-6.7s1.3-4.3,2.3-6.3s2.2-3.9,3.8-5.5C634.2,582.3,633.6,584.4,633.2,586.4z"/>
		</g>
		<g>
			<path class="st1" d="M627.8,582.4c-0.6,2.3-1.4,4.4-2.3,6.6c-0.8,2.1-1.8,4.2-2.9,6.3c-1.1,2.1-2.2,4.1-3.7,6
				c0.2-2.4,0.8-4.7,1.5-6.9c0.6-2.3,1.4-4.4,2.3-6.6c0.8-2.1,1.8-4.2,2.9-6.3c1.1-2,2.2-4.1,3.7-6
				C629,577.9,628.4,580.2,627.8,582.4z"/>
		</g>
		<g>
			<path class="st1" d="M618.1,586.9c-0.7,2.6-1.4,5.2-2.2,7.7c-0.7,2.6-1.6,5.1-2.5,7.6c-0.9,2.5-1.9,5-3.1,7.5
				c0-2.8,0.3-5.4,0.8-8.1c0.5-2.6,1.2-5.2,2-7.8s1.7-5.1,2.8-7.6c1.1-2.4,2.3-4.8,3.9-7.1C619.4,581.9,618.8,584.5,618.1,586.9z"/>
		</g>
		<g>
			<path class="st1" d="M603.9,588.8c-0.2,2.5-0.6,5-1.2,7.4c-0.5,2.5-1.3,4.9-2.2,7.2c-1,2.3-2.1,4.6-3.5,6.7
				c0.3-2.6,0.7-5,1.2-7.4s1-4.8,1.6-7.2c0.6-2.4,1.2-4.7,1.8-7.1c0.6-2.3,1.3-4.7,2.2-7.1C604.1,583.8,604.1,586.3,603.9,588.8z"/>
		</g>
		<g>
			<path class="st1" d="M593.6,590.3c-0.1,2.1-0.4,4.3-0.8,6.4c-0.4,2.1-1,4.2-1.7,6.2s-1.6,4-2.8,5.9c0.1-2.3,0.3-4.4,0.6-6.5
				c0.3-2.1,0.7-4.1,1.1-6.2c0.4-2.1,0.9-4.1,1.4-6.2c0.6-2.1,1.2-4.1,2-6.2C593.8,585.9,593.8,588.1,593.6,590.3z"/>
		</g>
		<g>
			<path class="st1" d="M583.2,591.3l-1.6,6.2l-1.6,6.2c-0.6,2.1-1.1,4.2-1.9,6.3c-0.5-2.2-0.6-4.5-0.5-6.7c0.2-2.2,0.5-4.4,1.1-6.6
				c0.5-2.1,1.3-4.2,2.3-6.2s2.2-3.9,3.7-5.6C584.3,587.1,583.8,589.2,583.2,591.3z"/>
		</g>
		<g>
			<path class="st1" d="M569.1,591.8c-0.2,2.2-0.6,4.4-1.1,6.6s-1.1,4.4-1.8,6.5c-0.7,2.1-1.5,4.2-2.6,6.3c-0.1-2.3,0-4.6,0.3-6.8
				c0.3-2.2,0.7-4.4,1.2-6.6s1.1-4.4,1.8-6.5c0.7-2.1,1.5-4.2,2.6-6.3C569.7,587.3,569.5,589.5,569.1,591.8z"/>
		</g>
		<g>
			<path class="st1" d="M553.5,591.2c-0.3,2-0.7,4-1.2,6s-1.1,4-1.8,5.9c-0.7,1.9-1.5,3.9-2.6,5.7c-0.1-2.2,0-4.3,0.3-6.3
				c0.3-2,0.7-4,1.2-6s1.1-4,1.8-5.9c0.7-1.9,1.5-3.9,2.6-5.7C553.9,587,553.7,589.1,553.5,591.2z"/>
		</g>
		<g>
			<path class="st1" d="M540,593.2c-0.1,2-0.3,4-0.7,5.9c-0.4,2-0.9,3.9-1.7,5.7c-0.7,1.8-1.6,3.6-2.9,5.2c0.1-2.1,0.4-4,0.7-5.9
				c0.3-1.9,0.7-3.7,1.1-5.6c0.4-1.9,0.8-3.7,1.3-5.6c0.5-1.8,1.1-3.7,1.8-5.6C540.1,589.3,540.2,591.3,540,593.2z"/>
		</g>
		<g>
			<path class="st1" d="M525.7,594.4c-0.2,1.9-0.4,3.8-0.8,5.7c-0.4,1.9-0.8,3.8-1.4,5.6c-0.5,1.8-1.2,3.6-2.2,5.4
				c-0.3-2-0.2-4-0.1-5.9c0.2-1.9,0.4-3.8,0.8-5.7c0.4-1.9,0.8-3.8,1.4-5.6c0.6-1.8,1.2-3.6,2.2-5.4
				C525.8,590.5,525.8,592.5,525.7,594.4z"/>
		</g>
		<g>
			<path class="st1" d="M516,596.1c-0.2,1.6-0.5,3.2-0.9,4.8c-0.5,1.6-1,3.2-1.6,4.7c-0.6,1.6-1.4,3.1-2.4,4.5
				c-0.2-1.8-0.1-3.5,0.1-5.1c0.2-1.6,0.5-3.2,0.9-4.8c0.5-1.6,1-3.2,1.6-4.7c0.7-1.6,1.4-3.1,2.4-4.5
				C516.3,592.7,516.2,594.4,516,596.1z"/>
		</g>
		<g>
			<path class="st1" d="M505.6,599.1c-0.3,1.6-0.6,3-0.9,4.5c-0.3,1.5-0.7,2.9-1.2,4.4c-0.4,1.5-0.9,2.9-1.7,4.4
				c-0.5-1.6-0.6-3.2-0.6-4.8c0-1.6,0.2-3.2,0.6-4.7c0.4-1.6,0.9-3.1,1.6-4.5c0.7-1.4,1.6-2.8,2.7-4
				C506.1,596.1,505.9,597.6,505.6,599.1z"/>
		</g>
		<g>
			<path class="st1" d="M492.8,597.8c-0.5,2.6-1.2,5.2-2,7.7s-1.8,4.9-2.9,7.3s-2.4,4.7-4,6.9c0.4-2.6,1.1-5.2,1.8-7.7
				c0.7-2.6,1.5-5,2.3-7.5c0.8-2.5,1.7-5,2.6-7.4c0.9-2.5,1.9-4.9,3.1-7.3C493.6,592.5,493.3,595.1,492.8,597.8z"/>
		</g>
		<g>
			<path class="st1" d="M474.8,598.5c-0.3,1.7-0.7,3.4-1.3,5c-0.5,1.6-1.2,3.2-2.1,4.7c-0.9,1.5-1.9,2.9-3.2,4.2
				c0.2-1.8,0.6-3.5,1-5.1c0.5-1.6,0.9-3.2,1.5-4.8c0.5-1.6,1.1-3.1,1.8-4.7c0.7-1.5,1.4-3.1,2.4-4.6
				C475.2,595,475,596.7,474.8,598.5z"/>
		</g>
		<g>
			<path class="st1" d="M463.6,596.3c-0.1,1.8-0.4,3.6-0.9,5.3c-0.5,1.8-1.1,3.5-1.9,5.1c-0.9,1.6-1.8,3.1-3.1,4.5
				c0.1-1.8,0.4-3.6,0.8-5.3c0.3-1.7,0.7-3.4,1.2-5.1s1-3.3,1.5-5c0.5-1.6,1.1-3.3,1.9-5C463.5,592.7,463.5,594.5,463.6,596.3z"/>
		</g>
		<g>
			<path class="st1" d="M450.5,600.5c-0.2,1.1-0.4,2.2-0.8,3.3s-0.8,2.1-1.4,3.1s-1.2,1.9-2.2,2.8c-0.2-1.3-0.1-2.5,0-3.6
				c0.2-1.1,0.4-2.2,0.8-3.3s0.8-2.1,1.4-3.1s1.3-1.9,2.2-2.8C450.8,598.2,450.7,599.4,450.5,600.5z"/>
		</g>
		<g>
			<path class="st1" d="M432.3,602.5c-0.4,2.2-1,4.4-1.7,6.5c-0.7,2.2-1.6,4.2-2.7,6.2s-2.3,3.9-3.9,5.6c0.4-2.3,1.1-4.4,1.7-6.5
				c0.6-2.1,1.3-4.1,2-6.2c0.7-2.1,1.4-4.1,2.2-6.2c0.8-2.1,1.6-4.2,2.6-6.2C432.7,598,432.5,600.2,432.3,602.5z"/>
		</g>
		<g>
			<path class="st1" d="M404.5,603.9c-0.9,2.2-2,4.3-3.1,6.4c-1.2,2.1-2.4,4.1-3.8,6s-2.8,3.8-4.6,5.5c0.7-2.4,1.6-4.5,2.6-6.7
				s2.1-4.2,3.2-6.3c1.1-2,2.3-4,3.6-6c1.3-1.9,2.7-3.9,4.3-5.7C406.2,599.5,405.4,601.7,404.5,603.9z"/>
		</g>
		<g>
			<path class="st1" d="M418.7,600.4c-0.5,2.2-1.2,4.4-1.9,6.6s-1.5,4.3-2.5,6.4s-2.1,4.1-3.4,6.1c0.1-2.4,0.6-4.7,1.1-6.9
				c0.5-2.2,1.1-4.4,1.9-6.6c0.8-2.2,1.6-4.3,2.6-6.4s2.1-4.1,3.4-6.1C419.7,595.8,419.3,598.1,418.7,600.4z"/>
		</g>
		<g>
			<path class="st1" d="M715.6,619.9c-1.4,2.4-2.9,4.8-4.4,7.2l-4.6,7.1l-4.7,7.1c-1.6,2.4-3.1,4.7-4.8,7
				c-3.2,4.7-6.6,9.2-10.2,13.6c2.6-5,5.4-9.9,8.3-14.8c1.4-2.4,2.9-4.8,4.4-7.2l4.6-7.1l4.7-7.1c1.6-2.4,3.1-4.7,4.8-7
				c3.2-4.7,6.6-9.2,10.2-13.6C721.3,610.2,718.5,615.1,715.6,619.9z"/>
		</g>
		<g>
			<path class="st1" d="M707,617.7c-1.5,2.3-3.1,4.6-4.6,6.9l-4.6,6.9l-4.7,6.8c-1.6,2.3-3.2,4.6-4.8,6.8c-3.2,4.5-6.4,9-9.9,13.4
				c2.4-5.1,5.1-9.9,7.9-14.7c1.4-2.4,2.9-4.7,4.4-7.1c1.5-2.3,3.1-4.6,4.6-6.9c1.6-2.3,3.2-4.6,4.8-6.8c1.7-2.3,3.3-4.5,5-6.7
				c3.4-4.4,6.9-8.7,10.7-12.8C712.9,608.3,710,613,707,617.7z"/>
		</g>
		<g>
			<path class="st1" d="M694.4,619.1l-8.8,16.2l-8.7,16.1c-2.9,5.4-5.9,10.8-9,16.1c2-5.8,4.4-11.5,6.9-17.1c1.3-2.8,2.7-5.5,4-8.3
				s2.8-5.5,4.2-8.2c1.5-2.6,3-5.3,4.5-8c1.6-2.7,3.1-5.3,4.8-7.9c3.3-5.2,6.7-10.3,10.5-15.2C700.1,608.3,697.3,613.7,694.4,619.1z
				"/>
		</g>
		<g>
			<path class="st1" d="M684.9,621.4c-1.2,2.4-2.4,4.7-3.6,7.1l-3.7,7l-3.7,7c-1.3,2.3-2.5,4.7-3.8,7c-2.6,4.7-5.1,9.3-7.9,13.9
				c1.7-5.1,3.7-10,5.8-14.9c1-2.4,2.2-4.8,3.3-7.2c1.2-2.4,2.4-4.7,3.6-7.1c1.2-2.3,2.5-4.7,3.8-7c1.4-2.3,2.7-4.7,4.1-6.9
				c2.8-4.5,5.7-9,9-13.2C689.6,612,687.3,616.7,684.9,621.4z"/>
		</g>
		<g>
			<path class="st1" d="M677.4,619l-6.8,15l-6.8,15c-2.3,5-4.5,10-7,15c1.2-5.4,2.9-10.7,4.8-15.9c0.9-2.6,2-5.2,3-7.8
				c1.1-2.5,2.2-5.1,3.3-7.6c1.2-2.5,2.4-5,3.6-7.5c1.3-2.5,2.5-5,3.9-7.4c2.7-4.8,5.6-9.6,8.8-14.1
				C682.1,608.8,679.8,613.8,677.4,619z"/>
		</g>
		<g>
			<path class="st1" d="M667.2,622.1c-0.9,2.4-1.9,4.7-2.9,7.1l-3,7.1l-3,7c-1,2.3-2,4.7-3.1,7c-2.1,4.6-4.2,9.3-6.6,13.9
				c1.2-5,2.7-9.9,4.4-14.8c0.9-2.4,1.8-4.8,2.7-7.2c0.9-2.4,1.9-4.7,2.9-7.1c1.1-2.3,2.1-4.7,3.2-7c1.1-2.3,2.2-4.6,3.4-6.9
				c2.4-4.6,4.9-9.1,7.7-13.4C671.2,612.7,669.3,617.5,667.2,622.1z"/>
		</g>
		<g>
			<path class="st1" d="M657.1,625.1c-0.9,2.1-1.8,4.1-2.7,6.2l-2.7,6.1c-1.9,4.1-3.8,8.2-5.7,12.2c-1.9,4-3.9,8-6.1,12
				c1.1-4.4,2.5-8.7,4-12.9c1.6-4.2,3.2-8.4,5.1-12.5c1-2,1.9-4.1,2.9-6.1s2-4,3.1-6c2.2-3.9,4.5-7.8,7.1-11.5
				C660.6,616.9,658.9,621,657.1,625.1z"/>
		</g>
		<g>
			<path class="st1" d="M644.7,623.1c-1,2.5-2,5-3,7.5l-3.2,7.5l-3.3,7.4c-1.2,2.4-2.3,4.9-3.5,7.3c-2.3,4.9-4.8,9.7-7.5,14.4
				c1.6-5.2,3.4-10.3,5.4-15.3c0.9-2.5,2-5,3-7.5l3.2-7.5l3.3-7.4c1.2-2.4,2.3-4.9,3.5-7.3c2.3-4.9,4.8-9.7,7.5-14.4
				C648.5,613,646.7,618.1,644.7,623.1z"/>
		</g>
		<g>
			<path class="st1" d="M631.1,618.4c-0.9,2.6-1.7,5.3-2.5,7.9l-2.5,7.9l-2.7,7.9c-0.9,2.6-1.8,5.2-2.8,7.8
				c-1.9,5.2-4,10.3-6.3,15.4c1.1-5.4,2.6-10.8,4.1-16.1c0.8-2.7,1.6-5.3,2.4-8l2.5-7.9c1.8-5.3,3.5-10.5,5.7-15.7
				c2.2-5.1,5.1-10.2,9.5-13.7C635,608.3,632.9,613.3,631.1,618.4z"/>
		</g>
		<g>
			<path class="st1" d="M620.9,624.8c-1,2.2-2.1,4.3-3.1,6.4l-3.2,6.3l-3.3,6.3c-1.2,2.1-2.2,4.2-3.4,6.3c-2.3,4.2-4.6,8.4-7.2,12.4
				c1.4-4.6,3.2-9,5.1-13.4c1-2.2,2-4.3,3-6.5c1.1-2.1,2.1-4.3,3.2-6.4c1.1-2.1,2.2-4.2,3.4-6.3c1.2-2.1,2.3-4.2,3.6-6.2
				c2.5-4.1,5.1-8.1,8-11.9C625.2,616.3,623.2,620.6,620.9,624.8z"/>
		</g>
		<g>
			<path class="st1" d="M604.5,634.9c-1,1.9-2,3.8-2.9,5.7l-2.9,5.6c-2,3.7-4,7.4-6.1,11.1c-2.1,3.7-4.2,7.3-6.6,10.9
				c1.2-4.1,2.8-8.1,4.5-12c1.7-3.9,3.5-7.7,5.5-11.5c1-1.9,2-3.8,3.1-5.6c1.1-1.9,2.1-3.7,3.3-5.5c2.3-3.6,4.7-7.1,7.4-10.4
				C608.2,627.2,606.4,631,604.5,634.9z"/>
		</g>
		<g>
			<path class="st1" d="M580.7,643.9l-3.4,6.8l-3.4,6.8c-1.2,2.2-2.3,4.5-3.7,6.8c0.2-2.6,0.7-5.2,1.5-7.7c0.8-2.5,1.8-5,3-7.3
				c1.2-2.4,2.5-4.6,4.1-6.7c1.5-2.1,3.3-4.1,5.3-5.8C583.1,639.3,581.9,641.6,580.7,643.9z"/>
		</g>
		<g>
			<path class="st1" d="M686.8,672.3c-0.4,1.5-0.8,3.1-1.3,4.6c-0.6,1.5-1.2,3-1.9,4.4c-0.8,1.4-1.6,2.8-2.7,4.1
				c-0.1-1.7,0.1-3.3,0.4-4.9c0.4-1.6,0.8-3.1,1.3-4.6c0.6-1.5,1.2-3,1.9-4.4c0.8-1.4,1.6-2.8,2.7-4.1
				C687.3,669.1,687.1,670.7,686.8,672.3z"/>
		</g>
		<g>
			<path class="st1" d="M677.7,672.2c-0.3,1.6-0.7,3.2-1.1,4.7c-0.4,1.6-0.9,3.1-1.4,4.6c-0.6,1.5-1.2,3.1-2,4.6
				c-0.4-1.7-0.5-3.3-0.4-5c0.1-1.7,0.4-3.3,0.8-4.9c0.5-1.6,1.1-3.1,1.8-4.6c0.8-1.5,1.7-2.9,2.9-4.2
				C678.3,669.1,678,670.7,677.7,672.2z"/>
		</g>
		<g>
			<path class="st1" d="M671.8,673.9c-0.2,1.2-0.4,2.4-0.7,3.6s-0.7,2.3-1.1,3.5c-0.5,1.1-1,2.3-1.7,3.5c-0.5-1.3-0.7-2.6-0.7-3.9
				c0-1.3,0.2-2.6,0.5-3.9c0.3-1.2,0.8-2.4,1.4-3.6c0.7-1.2,1.4-2.3,2.5-3.2C672.1,671.3,672,672.6,671.8,673.9z"/>
		</g>
		<g>
			<path class="st1" d="M665.5,674.7c-0.2,1.6-0.4,3.1-0.8,4.6c-0.3,1.5-0.8,3-1.4,4.4c-0.6,1.4-1.3,2.9-2.3,4.2
				c-0.2-1.7-0.1-3.3,0-4.8c0.2-1.6,0.4-3.1,0.8-4.6c0.3-1.5,0.8-3,1.4-4.4c0.6-1.4,1.3-2.9,2.3-4.2
				C665.7,671.5,665.6,673.1,665.5,674.7z"/>
		</g>
		<g>
			<path class="st1" d="M658.8,673.1c0,1.3-0.2,2.6-0.4,3.9c-0.2,1.3-0.6,2.5-1,3.8c-0.5,1.3-1.1,2.5-1.9,3.7
				c-0.4-1.4-0.5-2.8-0.5-4.1c0-1.3,0.2-2.6,0.4-3.9c0.2-1.3,0.6-2.5,1-3.8c0.4-1.3,1-2.5,1.8-3.7
				C658.5,670.4,658.6,671.8,658.8,673.1z"/>
		</g>
		<g>
			<path class="st1" d="M651.7,675.1c0,1.5-0.2,3-0.4,4.4c-0.2,1.5-0.5,2.9-1,4.3c-0.5,1.4-1,2.8-1.9,4.1c-0.3-1.5-0.4-3-0.4-4.5
				s0.2-3,0.4-4.4c0.2-1.5,0.5-2.9,1-4.3c0.5-1.4,1-2.8,1.9-4.1C651.6,672.2,651.7,673.6,651.7,675.1z"/>
		</g>
		<g>
			<path class="st1" d="M645.9,676.7c0,1.2-0.1,2.3-0.4,3.4c-0.3,1.1-0.6,2.2-1.1,3.2s-1,2-1.9,3c-0.4-1.3-0.4-2.5-0.4-3.6
				c0-1.2,0.1-2.3,0.4-3.4c0.3-1.1,0.6-2.2,1.1-3.2s1-2,1.9-3C645.9,674.3,645.9,675.5,645.9,676.7z"/>
		</g>
		<g>
			<path class="st1" d="M639,677c0,1.5-0.1,3-0.3,4.5c-0.2,1.4-0.6,2.9-1,4.4c-0.4,1.4-1,2.9-1.8,4.3c-0.4-1.6-0.5-3.2-0.5-4.7
				s0.1-3,0.3-4.5c0.3-1.4,0.6-2.9,1-4.4c0.4-1.4,1-2.9,1.8-4.3C638.9,673.9,639,675.4,639,677z"/>
		</g>
		<g>
			<path class="st1" d="M633.2,674.3c0,1.2-0.1,2.3-0.3,3.5c-0.3,1.1-0.6,2.3-1,3.4c-0.4,1.2-1,2.3-1.8,3.3
				c-0.4-1.3-0.5-2.5-0.5-3.7s0.1-2.3,0.3-3.5c0.3-1.1,0.6-2.3,1-3.4c0.4-1.2,1-2.3,1.8-3.3C633.1,671.9,633.2,673.1,633.2,674.3z"
				/>
		</g>
		<g>
			<path class="st1" d="M625.2,675.1c-0.1,1.6-0.4,3.3-0.7,4.9s-0.7,3.2-1.3,4.8c-0.6,1.6-1.2,3.1-2.2,4.6c-0.2-1.7-0.2-3.4-0.1-5.1
				c0.1-1.6,0.4-3.3,0.7-4.9s0.7-3.2,1.3-4.8c0.6-1.6,1.2-3.1,2.2-4.6C625.4,671.7,625.4,673.4,625.2,675.1z"/>
		</g>
		<g>
			<path class="st1" d="M615.7,675c-0.3,1.9-0.7,3.8-1.2,5.7c-0.4,1.9-1,3.7-1.6,5.6c-0.7,1.9-1.4,3.8-2.3,5.6c-0.3-2-0.3-4-0.1-6
				s0.5-4,1-5.9c0.5-2,1.1-3.9,1.9-5.7s1.7-3.6,2.9-5.3C616.3,671.1,616,673,615.7,675z"/>
		</g>
		<g>
			<path class="st1" d="M606.4,678.4l-1.5,4.5l-1.5,4.5c-0.5,1.5-1,3-1.7,4.6c-0.5-1.7-0.7-3.4-0.6-5.1c0-1.7,0.4-3.4,0.9-5
				s1.2-3.2,2.2-4.6c0.9-1.4,2.1-2.7,3.5-3.7C607.3,675.3,606.7,676.8,606.4,678.4z"/>
		</g>
		<g>
			<path class="st1" d="M599.6,675.5c-0.7,1.4-1.3,2.8-1.9,4.2c-0.5,1.4-1.1,2.8-1.6,4.3l-1.6,4.6c-0.6-1.6-0.8-3.4-0.7-5.1
				s0.5-3.4,1.2-5c0.7-1.6,1.6-3.1,2.8-4.4c1.2-1.2,2.6-2.3,4.2-3L599.6,675.5z"/>
		</g>
		<g>
			<path class="st1" d="M589.5,677.2c-0.2,1.4-0.4,2.8-0.7,4.1s-0.6,2.7-1,4c-0.4,1.4-0.8,2.7-1.5,4.1c-0.6-1.5-0.8-2.9-0.8-4.4
				c0-1.4,0.1-2.9,0.4-4.3c0.3-1.4,0.8-2.8,1.4-4.1c0.6-1.3,1.4-2.6,2.5-3.7C589.8,674.5,589.7,675.9,589.5,677.2z"/>
		</g>
		<g>
			<path class="st1" d="M583.9,676.4c-0.1,1.3-0.3,2.6-0.6,3.9s-0.7,2.6-1.2,3.8c-0.6,1.2-1.2,2.5-2.1,3.6c-0.3-1.4-0.3-2.8-0.2-4.1
				c0.1-1.3,0.3-2.6,0.6-3.9c0.3-1.3,0.7-2.6,1.2-3.8c0.6-1.2,1.2-2.5,2.1-3.6C584,673.7,584,675.1,583.9,676.4z"/>
		</g>
		<g>
			<path class="st1" d="M578.4,676.8c-0.3,1.5-0.8,3-1.2,4.5c-0.4,1.5-0.9,2.9-1.4,4.4c-0.6,1.5-1.1,3-1.9,4.5
				c-0.5-1.6-0.6-3.3-0.5-4.9c0.1-1.6,0.4-3.2,0.9-4.8c0.4-1.6,1.1-3.1,1.9-4.5c0.8-1.4,1.8-2.8,3.1-3.9
				C579.1,673.8,578.8,675.4,578.4,676.8z"/>
		</g>
		<g>
			<path class="st1" d="M571.9,677.6c-0.2,1.1-0.5,2.1-0.8,3.2c-0.4,1-0.7,2.1-1.2,3.1s-1,2-1.8,3.1c-0.4-1.3-0.5-2.5-0.5-3.7
				s0.2-2.4,0.6-3.5c0.3-1.1,0.8-2.2,1.5-3.2c0.6-1,1.4-2,2.5-2.7C572.2,675.2,572,676.3,571.9,677.6z"/>
		</g>
		<g>
			<path class="st1" d="M564.8,676.3c0,1.6-0.2,3.2-0.5,4.8c-0.3,1.6-0.7,3.2-1.2,4.7s-1.1,3-2,4.5c-0.3-1.6-0.4-3.3-0.3-4.9
				c0-1.6,0.2-3.2,0.5-4.8c0.3-1.6,0.7-3.2,1.2-4.7s1.1-3,2-4.5C564.8,673.1,564.8,674.7,564.8,676.3z"/>
		</g>
		<g>
			<path class="st1" d="M559,676.5c-0.1,1.4-0.3,2.8-0.5,4.1c-0.2,1.3-0.5,2.7-0.8,4c-0.3,1.4-0.7,2.7-1.4,4.1
				c-0.6-1.4-0.8-2.9-0.9-4.3c-0.1-1.5,0-2.9,0.2-4.3c0.2-1.4,0.6-2.8,1.1-4.1c0.5-1.4,1.2-2.7,2.2-3.8
				C559.1,673.7,559.1,675.1,559,676.5z"/>
		</g>
		<g>
			<path class="st1" d="M553.2,677.1c-0.1,1.2-0.3,2.5-0.6,3.7c-0.3,1.2-0.7,2.4-1.2,3.6s-1.1,2.3-2,3.4c-0.4-1.3-0.4-2.6-0.3-3.9
				c0.1-1.2,0.3-2.5,0.6-3.7c0.3-1.2,0.7-2.4,1.2-3.6s1.1-2.3,2-3.4C553.2,674.5,553.2,675.8,553.2,677.1z"/>
		</g>
		<g>
			<path class="st1" d="M544.6,678.1c-0.2,1.4-0.5,2.7-0.7,4c-0.2,1.3-0.5,2.7-0.8,4c-0.3,1.4-0.6,2.7-1.1,4.2
				c-0.7-1.4-1.1-2.8-1.2-4.3c-0.2-1.5-0.1-3,0.2-4.4c0.3-1.5,0.7-2.9,1.4-4.2c0.7-1.4,1.5-2.6,2.7-3.6
				C545,675.4,544.8,676.7,544.6,678.1z"/>
		</g>
		<g>
			<path class="st1" d="M531,678.4c-0.3,1.3-0.8,2.5-1.3,3.7s-1.1,2.4-1.8,3.5c-0.7,1.1-1.5,2.2-2.5,3.2c-0.1-1.4,0-2.8,0.3-4.1
				c0.2-1.3,0.7-2.6,1.2-3.8c0.6-1.2,1.2-2.4,2-3.5c0.8-1.1,1.6-2.1,2.8-3C531.6,675.9,531.3,677.2,531,678.4z"/>
		</g>
		<g>
			<path class="st1" d="M518.2,679.5c-0.2,1.3-0.5,2.6-0.9,3.9s-0.9,2.5-1.6,3.7c-0.7,1.2-1.5,2.3-2.6,3.3c-0.1-1.5,0.1-2.8,0.3-4.1
				c0.3-1.3,0.6-2.6,1-3.8c0.4-1.2,0.8-2.4,1.4-3.6c0.5-1.2,1.2-2.4,2.1-3.5C518.2,676.9,518.2,678.2,518.2,679.5z"/>
		</g>
		<g>
			<path class="st1" d="M508,682.2c-0.2,0.9-0.4,1.7-0.7,2.5c-0.3,0.7-0.6,1.5-1,2.3c-0.4,0.8-0.8,1.6-1.5,2.4
				c-0.6-0.9-0.8-1.9-0.8-2.9c-0.1-0.9,0.1-1.9,0.4-2.8s0.8-1.7,1.4-2.5c0.6-0.7,1.4-1.4,2.4-1.8C508.2,680.5,508.1,681.4,508,682.2
				z"/>
		</g>
		<g>
			<path class="st1" d="M499.2,682.4c-0.1,0.8-0.3,1.6-0.6,2.3c-0.3,0.7-0.7,1.4-1.2,2.1s-1.1,1.3-2,1.8c-0.3-1-0.3-1.9-0.2-2.7
				s0.3-1.6,0.6-2.3c0.3-0.7,0.7-1.4,1.2-2.1s1.1-1.3,2-1.8C499.3,680.7,499.3,681.6,499.2,682.4z"/>
		</g>
		<g>
			<path class="st1" d="M488.4,682c-0.1,1-0.4,1.9-0.7,2.8c-0.3,0.8-0.8,1.7-1.3,2.5s-1.2,1.5-2.1,2.2c-0.3-1.1-0.2-2.1-0.1-3.1
				s0.4-1.9,0.7-2.8c0.3-0.8,0.8-1.7,1.3-2.5s1.2-1.5,2.1-2.2C488.6,680,488.5,681,488.4,682z"/>
		</g>
		<g>
			<path class="st1" d="M474.6,681c-0.1,1.3-0.4,2.4-0.7,3.6s-0.7,2.3-1.3,3.4s-1.3,2.1-2.2,3.1c-0.3-1.3-0.2-2.6-0.1-3.8
				c0.1-1.3,0.4-2.4,0.7-3.6s0.7-2.3,1.3-3.4s1.3-2.1,2.2-3.1C474.7,678.6,474.7,679.8,474.6,681z"/>
		</g>
		<g>
			<path class="st1" d="M461,679.1c0-0.1-0.1-0.2-0.2-0.2s-0.2,0-0.1,0.1c0.1,0.1,0,0.1,0,0.2c-0.1,0.2-0.2,0.9-0.4,1.5
				c-0.4,1.3-0.9,2.5-1.5,3.6c-0.6,1.2-1.3,2.3-2.1,3.3c-0.8,1.1-1.7,2-2.8,2.9c0-1.5,0.3-2.8,0.7-4c0.4-1.3,0.9-2.5,1.5-3.6
				c0.6-1.2,1.3-2.3,2.1-3.3c0.2-0.3,0.3-0.5,0.6-0.8c0.3-0.3,0.6-0.7,1.1-0.9c0.3-0.1,0.6-0.2,0.9-0.1c0.4,0.1,0.6,0.4,0.7,0.6
				s0.1,0.5,0,0.7c0,0.2-0.3,0.4-0.5,0.3C461.2,679.3,461.2,679.2,461,679.1z"/>
		</g>
		<g>
			<path class="st1" d="M448.3,682.7c-0.5,1.2-1.1,2.4-1.7,3.6s-1.3,2.3-2.1,3.4c-0.7,1.1-1.6,2.2-2.7,3.2c-0.1-1.5,0.2-2.9,0.6-4.2
				s1-2.6,1.6-3.8c0.7-1.2,1.4-2.3,2.3-3.4c0.9-1.1,1.9-2.1,3.1-2.9C449.2,680,448.8,681.3,448.3,682.7z"/>
		</g>
		<g>
			<path class="st1" d="M735.6,574.3c-2.5,1.5-5,2.9-7.5,4.4l-7.5,4.3l-7.6,4.2c-2.5,1.4-5,2.8-7.6,4.2c-5.1,2.8-10.2,5.5-15.5,8
				c4.6-3.6,9.4-6.9,14.3-10c2.4-1.6,4.9-3.1,7.4-4.6s5-2.9,7.5-4.4c2.5-1.4,5-2.8,7.6-4.2c2.6-1.4,5.2-2.7,7.8-4
				c5.2-2.6,10.5-5,15.9-7.1C745.5,568.3,740.5,571.3,735.6,574.3z"/>
		</g>
		<g>
			<path class="st1" d="M732.4,584c-2.3,1.7-4.7,3.2-7.1,4.8l-7.2,4.6l-7.3,4.5c-2.5,1.5-4.9,3-7.4,4.4c-5,2.9-10,5.7-15.1,8.2
				c4.5-3.5,9.1-6.9,13.8-10.1c2.3-1.7,4.7-3.2,7.1-4.8l7.2-4.6l7.3-4.5c2.5-1.5,4.9-3,7.4-4.4c2.5-1.5,4.9-2.9,7.5-4.2
				s5.3-2.5,8.1-3C741.5,577.2,737.1,580.8,732.4,584z"/>
		</g>
		<g>
			<path class="st1" d="M726.7,599.5c-1.1,0.7-2.2,1.5-3.3,2.2l-3.4,2.1c-1.2,0.7-2.3,1.3-3.5,2l-3.5,1.9l-3.6,1.8l-3.6,1.7
				l-3.7,1.5c-1.2,0.5-2.5,0.9-3.7,1.4c-5,1.8-10.2,3.3-15.4,4.2c4.9-2.2,9.7-4.2,14.5-6.4c1.2-0.6,2.4-1.2,3.6-1.7l3.5-1.7l3.5-1.7
				l3.5-1.8l3.5-1.8c1.1-0.6,2.2-1.3,3.4-1.9l3.4-1.9c1.1-0.7,2.3-1.4,3.4-2c4.5-2.7,9-5.4,13.5-8.2
				C735,592.9,730.9,596.3,726.7,599.5z"/>
		</g>
		<g>
			<path class="st1" d="M720.2,611.9c-4.3,2.9-8.7,5.5-13.3,8c-2.3,1.2-4.6,2.4-7,3.5c-2.3,1.1-4.7,2.2-7.1,3.1
				c-4.8,1.9-9.7,3.6-14.8,4.8c4.6-2.4,9.2-4.6,13.8-6.9c2.3-1.2,4.6-2.3,6.9-3.5c2.3-1.2,4.5-2.4,6.8-3.6c2.3-1.1,4.6-2.4,6.8-3.6
				s4.4-2.5,6.7-3.7c2.2-1.2,4.5-2.5,6.8-3.7c2.3-1.1,4.8-2.2,7.4-2.5C728.3,605.7,724.5,609.1,720.2,611.9z"/>
		</g>
		<g>
			<path class="st1" d="M714.4,619.8c-2.2,1.3-4.5,2.5-6.7,3.7l-6.7,3.6l-6.8,3.4c-2.3,1.1-4.6,2.3-6.9,3.3c-4.6,2.2-9.3,4.2-14.1,6
				c4.2-2.9,8.6-5.6,13-8.1c2.2-1.3,4.5-2.5,6.7-3.7l6.7-3.6l6.8-3.4c2.3-1.1,4.6-2.3,6.9-3.3c4.6-2.2,9.3-4.2,14.1-6
				C723.2,614.6,718.8,617.3,714.4,619.8z"/>
		</g>
		<g>
			<path class="st1" d="M703.9,631c-2.5,1-4.9,2-7.3,3l-7.3,3l-7.3,2.9c-2.4,1-4.8,2-7.3,2.9c-4.9,1.9-9.8,3.7-14.8,5.4
				c4.5-2.7,9.2-5.2,13.9-7.5c2.4-1.1,4.8-2.2,7.2-3.3c2.4-1.1,4.9-2.1,7.3-3.1c2.5-0.9,4.9-1.9,7.4-2.8c2.5-0.9,5-1.8,7.5-2.6
				c5-1.6,10-3.1,15.2-4.2C713.6,627,708.8,629.1,703.9,631z"/>
		</g>
		<g>
			<path class="st1" d="M700,639.4c-1.2,0.5-2.4,1-3.6,1.5l-3.5,1.6c-1.1,0.6-2.3,1.1-3.5,1.6l-3.5,1.7l-3.5,1.7l-3.5,1.7l-3.5,1.8
				c-1.1,0.6-2.2,1.2-3.4,1.8c-4.6,2.4-9.2,4.9-13.8,7.4c3.9-3.5,8.2-6.6,12.6-9.4c2.2-1.4,4.5-2.7,6.8-4l3.5-1.8l3.5-1.8l3.6-1.6
				c1.2-0.5,2.4-1,3.6-1.5l3.7-1.4c1.2-0.5,2.5-0.9,3.7-1.3c5-1.6,10.1-3,15.3-3.8C709.7,635.6,704.8,637.5,700,639.4z"/>
		</g>
		<g>
			<path class="st1" d="M695.8,649.3c-2.4,1.1-4.7,2.1-7.1,3.2l-7.1,3.1l-7.2,3c-2.4,0.9-4.8,1.9-7.2,2.8c-4.9,1.9-9.7,3.7-14.7,5.2
				c4.4-2.7,9-5,13.7-7.3c2.3-1.2,4.7-2.2,7-3.3l7.1-3.1l7.2-2.9c2.5-0.9,4.9-1.8,7.3-2.7c4.9-1.8,9.8-3.5,14.8-4.8
				C705,645,700.3,647.3,695.8,649.3z"/>
		</g>
		<g>
			<path class="st1" d="M699.9,654.7c-1.3,0.3-2.6,0.9-3.8,1.5c-2.5,1.3-5,2.5-7.6,3.7c-2.6,1.3-5.1,2.4-7.7,3.6l-7.7,3.5l-7.8,3.4
				c-2.6,1.1-5.2,2.3-7.8,3.3c-5.3,2.2-10.5,4.3-15.9,6.1c4.8-3,9.8-5.7,14.9-8.2c2.5-1.3,5.1-2.5,7.6-3.7l7.7-3.5
				c2.6-1.1,5.2-2.2,7.8-3.3c2.6-1,5.2-2.1,7.9-3.1c2.7-1,5.3-2,8-2.9c1.4-0.5,2.8-0.9,4.3-1c1.5-0.2,3,0.1,4.2,0.9
				C702.6,654.5,701.2,654.6,699.9,654.7z"/>
		</g>
		<g>
			<path class="st1" d="M692.5,666.6c-0.5,0.1-1,0.2-1.5,0.4c-1,0.4-2,0.9-3,1.4c-2,0.9-4,1.8-6,2.7c-2,0.9-4.1,1.7-6.1,2.6
				l-6.1,2.5c-4.1,1.6-8.2,3.2-12.3,4.8c-4.1,1.6-8.2,3.1-12.5,4.4c3.8-2.5,7.6-4.6,11.6-6.6s8-3.8,12.1-5.5
				c2.1-0.8,4.1-1.6,6.2-2.4c2.1-0.8,4.2-1.5,6.3-2.2c2.1-0.7,4.3-1.3,6.4-1.9c1.1-0.3,2.1-0.6,3.3-0.8c0.6-0.1,1.2-0.1,1.8,0
				c0.6,0.1,1.1,0.4,1.4,0.9C693.7,666.5,693.2,666.4,692.5,666.6z"/>
		</g>
		<g>
			<path class="st1" d="M682.9,678.9c-3.3,1.3-6.6,2.5-9.9,3.7s-6.6,2.3-10,3.4c-3.4,1.1-6.8,2.2-10.3,3c3-2,6.2-3.7,9.4-5.2
				c3.2-1.6,6.5-2.9,9.9-4.1c3.3-1.2,6.7-2.2,10.2-3.1s7-1.6,10.6-2C689.5,676.1,686.2,677.5,682.9,678.9z"/>
		</g>
		<g>
			<path class="st1" d="M632.5,674.1c-1,0.4-2,0.9-3.1,1.3l-3.1,1.3c-2.1,0.9-4.2,1.8-6.3,2.7l-12.5,5.3c-4.1,1.8-8.3,3.5-12.6,5.2
				c3.7-2.7,7.6-5.1,11.6-7.3c4.1-2.2,8.2-4.2,12.4-6c2.1-0.8,4.3-1.7,6.4-2.5c2.2-0.8,4.3-1.5,6.5-2.2c4.3-1.4,8.8-2.6,13.3-3.3
				C640.9,670.6,636.7,672.3,632.5,674.1z"/>
		</g>
		<g>
			<path class="st1" d="M609.4,674.1c-1.9,1-3.9,1.9-5.8,2.8l-5.9,2.7c-3.9,1.7-7.8,3.4-11.8,5.1s-8,3.3-12.1,4.7
				c3.6-2.5,7.3-4.7,11.1-6.8c3.8-2.1,7.7-4,11.6-5.8c2-0.9,4-1.8,6-2.6s4-1.6,6-2.3c4-1.4,8.2-2.8,12.4-3.8
				C617.1,670.3,613.2,672.2,609.4,674.1z"/>
		</g>
		<g>
			<path class="st1" d="M729,568.1c-2.7,1.8-5.4,3.6-8.2,5.3c-5.5,3.4-11.3,6.5-17.1,9.4c-3,1.4-5.9,2.8-8.9,4.1s-5.9,2.6-9,3.7
				c-6.1,2.3-12.3,4.4-18.6,6c5.9-2.8,11.8-5.5,17.7-8.2c2.9-1.3,5.9-2.7,8.8-4.1c2.9-1.4,5.8-2.7,8.7-4.2c2.9-1.4,5.8-2.8,8.7-4.3
				c2.9-1.4,5.7-2.9,8.6-4.4l8.6-4.5c2.9-1.5,6-2.9,9.2-3.5C734.5,564.6,731.8,566.3,729,568.1z"/>
		</g>
		<g>
			<path class="st1" d="M689.4,575.9l-9.2,5.1l-4.6,2.5l-4.6,2.6l-4.6,2.6l-4.5,2.6l-9.1,5.3c-6.1,3.5-12.1,7.2-18.2,10.7
				c5.4-4.6,11.1-8.7,16.9-12.7c2.9-2,5.9-3.9,8.9-5.8c3-1.8,6-3.6,9.1-5.4c3.1-1.7,6.2-3.4,9.3-5c3.1-1.5,6.3-3.1,9.5-4.6
				c6.4-3,12.9-5.7,19.6-8C701.7,569.2,695.5,572.5,689.4,575.9z"/>
		</g>
		<g>
			<path class="st1" d="M681.5,614.5c-1.5,1.3-3.1,2.4-4.7,3.6l-4.8,3.4c-3.2,2.3-6.6,4.4-10.1,6.3s-7.2,3.5-11.1,4.4
				c3.4-2,6.7-4.2,9.9-6.4l9.6-6.8l4.9-3.3c1.7-1.1,3.3-2.2,5-3.2c3.4-2.1,6.8-4.1,10.4-5.8C687.7,609.4,684.7,612,681.5,614.5z"/>
		</g>
		<g>
			<path class="st1" d="M665.4,615c-1.6,1.2-3.3,2.3-4.9,3.4c-1.6,1.1-3.3,2.2-5,3.2c-3.4,2.1-6.9,3.9-10.5,5.6
				c-3.5,1.7-7.2,3.2-11,4.4c3.2-2.3,6.6-4.3,9.9-6.4c3.3-2.1,6.6-4.1,10-6.1l5-3c1.7-0.9,3.4-1.9,5.1-2.9c3.4-2,6.8-3.9,10.4-5.7
				C671.6,610.3,668.5,612.7,665.4,615z"/>
		</g>
		<g>
			<path class="st1" d="M649.8,614.5c-2.1,1.6-4.3,3-6.5,4.4c-2.2,1.3-4.5,2.6-6.9,3.7c-2.4,1.1-4.8,2.1-7.4,2.8
				c2-1.8,4.1-3.4,6.2-4.9c2.1-1.5,4.3-3,6.5-4.3c2.2-1.3,4.5-2.6,6.8-3.8s4.7-2.4,7.2-3.3C653.8,611.1,651.8,612.8,649.8,614.5z"/>
		</g>
		<g>
			<path class="st1" d="M484.9,595.3c-0.3,1.2-0.6,2.3-0.9,3.4c-0.7,2.2-1.4,4.4-2.3,6.5c-0.9,2.2-1.8,4.2-2.9,6.3s-2.3,4.1-3.7,6
				c0.3-2.3,0.9-4.6,1.5-6.8c0.7-2.2,1.4-4.4,2.3-6.5c0.9-2.2,1.8-4.3,2.9-6.3c0.6-1,1.2-2,1.7-3c0.6-0.9,1-1.9,1.1-3.1
				C485.2,592.9,485.1,594.3,484.9,595.3z"/>
		</g>
		<g>
			<path class="st1" d="M444,599.9c-0.4,2.2-1.1,4.2-1.8,6.3c-0.8,2-1.6,4-2.6,6c-1,1.9-2.1,3.8-3.5,5.6c0.2-2.3,0.7-4.4,1.3-6.5
				c0.6-2.1,1.3-4.2,2-6.2c0.7-2,1.5-4,2.4-6s1.9-3.9,3.1-5.8C444.9,595.6,444.5,597.8,444,599.9z"/>
		</g>
		<g>
			<path class="st1" d="M395.2,604.5c-1,2.2-2.1,4.4-3.2,6.5c-1.1,2.1-2.4,4.2-3.7,6.2c-1.4,1.9-2.8,3.9-4.5,5.7
				c0.6-2.4,1.5-4.7,2.4-6.9c1-2.2,2-4.4,3.2-6.5c1.1-2.1,2.4-4.2,3.7-6.2c1.4-1.9,2.8-3.9,4.5-5.7C397,600,396.1,602.3,395.2,604.5
				z"/>
		</g>
		<g>
			<path class="st1" d="M381.9,604.6c-0.9,2.1-1.9,4.1-2.9,6.1s-2.1,4-3.3,5.9c-1.2,1.9-2.5,3.8-4,5.6c0.4-2.3,1.1-4.5,1.9-6.6
				c0.8-2.1,1.8-4.2,2.8-6.2c1.1-2.1,2.2-4,3.5-5.9s2.6-3.7,4.3-5.4C383.7,600.4,382.8,602.5,381.9,604.6z"/>
		</g>
		<g>
			<path class="st1" d="M364.9,607.3c-0.7,1.9-1.6,3.8-2.5,5.7c-0.9,1.8-1.9,3.6-3,5.4c-1.1,1.7-2.3,3.5-3.7,5.1
				c0.3-2.2,0.9-4.2,1.6-6.2s1.6-3.9,2.5-5.8c0.9-1.8,1.9-3.6,3.1-5.4c1.1-1.8,2.4-3.5,3.9-5C366.3,603.2,365.6,605.2,364.9,607.3z"
				/>
		</g>
		<g>
			<path class="st1" d="M350.7,605.1c-0.9,1.7-1.8,3.3-2.8,4.9c-1,1.6-2,3.2-3.1,4.7c-1.1,1.6-2.2,3.1-3.6,4.5
				c0.3-2,0.9-3.8,1.6-5.6s1.6-3.5,2.6-5.1s2.1-3.2,3.4-4.6s2.7-2.8,4.3-3.9C352.4,601.9,351.6,603.6,350.7,605.1z"/>
		</g>
		<g>
			<path class="st1" d="M333.8,605.9c-1.2,2.1-2.4,4.2-3.6,6.2c-1.3,2-2.6,4-3.9,6c-1.4,2-2.8,3.9-4.4,5.8c0.5-2.4,1.3-4.7,2.3-6.9
				s2.1-4.3,3.4-6.4c1.3-2,2.7-4,4.2-5.9c1.5-1.9,3.2-3.7,5.1-5.3C336,601.7,334.9,603.8,333.8,605.9z"/>
		</g>
		<g>
			<path class="st1" d="M323.6,603.7c0.1-0.1,0.1-0.2,0.2-0.2c0-0.1,0.2-0.1,0.3,0s0.2,0.2,0.2,0.3c0,0.5-0.2,0.8-0.3,1
				c-0.2,0.4-0.5,0.9-0.7,1.4l-1.5,2.8c-1,1.9-2.1,3.7-3.1,5.5c-1,1.8-2.1,3.6-3.2,5.4c-1.1,1.8-2.2,3.6-3.5,5.4
				c0.1-2.2,0.7-4.3,1.4-6.4c0.7-2,1.6-4,2.7-5.9c1.1-1.9,2.4-3.7,3.8-5.3c0.7-0.9,1.5-1.6,2.3-2.4c0.4-0.4,0.8-0.8,1.2-1.1
				c0.3-0.2,0.4-0.3,0.5-0.4c0,0,0.1-0.1,0-0.1s-0.3,0.1-0.2,0.2L323.6,603.7z"/>
		</g>
		<g>
			<path class="st1" d="M315.5,608.7c-0.8,1.8-1.8,3.5-2.9,5.2s-2.3,3.2-3.7,4.7c-1.4,1.4-2.9,2.8-4.6,3.9c0.8-1.9,1.7-3.6,2.7-5.3
				s2-3.3,3.1-4.9c1.1-1.6,2.2-3.1,3.4-4.7c1.2-1.5,2.4-3.1,3.9-4.5C317,605.1,316.3,607,315.5,608.7z"/>
		</g>
		<g>
			<path class="st1" d="M20.3,685.2c0.7,0.9,1.4,1.8,1.9,2.8s0.9,2.1,1.1,3.2s0.3,2.3,0,3.5c-0.9-0.8-1.6-1.7-2.2-2.6
				s-1.1-1.8-1.6-2.7s-0.9-1.9-1.3-2.9c-0.3-1-0.6-2.1-0.8-3.3C18.6,683.7,19.5,684.4,20.3,685.2z"/>
		</g>
		<g>
			<path class="st1" d="M26.4,684.1c0.8,0.8,1.4,1.6,1.9,2.6s0.8,2,1,3.1c0.1,1.1,0.1,2.2-0.3,3.3c-0.8-0.9-1.4-1.7-1.9-2.5
				c-0.5-0.9-1-1.7-1.4-2.5s-0.8-1.7-1.2-2.6c-0.3-0.9-0.7-1.8-0.9-3C24.7,682.8,25.6,683.4,26.4,684.1z"/>
		</g>
		<g>
			<path class="st1" d="M36,686.1c1.1,0.7,2.1,1.6,2.9,2.6c0.8,1,1.5,2.2,1.9,3.4s0.6,2.6,0.4,3.9c-1-1-1.8-1.9-2.5-2.8
				c-0.7-0.9-1.4-1.8-2.1-2.7l-2.1-2.7c-0.7-0.9-1.4-1.8-2.1-3C33.8,684.9,35,685.4,36,686.1z"/>
		</g>
		<g>
			<path class="st1" d="M44.1,686.6c1,0.6,1.9,1.3,2.7,2.2c0.7,0.9,1.4,1.9,1.8,3s0.6,2.3,0.5,3.5c-1-0.7-1.8-1.5-2.5-2.2
				c-0.7-0.7-1.4-1.4-2.1-2.2c-0.7-0.7-1.3-1.5-2-2.3c-0.6-0.9-1.3-1.7-1.9-2.8C41.8,685.8,43,686.2,44.1,686.6z"/>
		</g>
		<g>
			<path class="st1" d="M54.2,688.5c1.2,0.7,2.2,1.5,3.1,2.5c0.8,1,1.5,2.2,2,3.4c0.4,1.2,0.7,2.5,0.5,3.9c-1-0.9-1.8-1.8-2.6-2.7
				l-2.3-2.6l-2.3-2.6c-0.8-0.9-1.6-1.8-2.4-2.9C51.6,687.6,52.9,688,54.2,688.5z"/>
		</g>
		<g>
			<path class="st1" d="M64.6,687.4c1,0.5,2,1.1,2.8,1.9c0.9,0.7,1.6,1.7,2.1,2.7s0.9,2.2,0.9,3.4c-1.1-0.6-2-1.2-2.8-1.9
				c-0.8-0.6-1.6-1.3-2.3-2c-0.7-0.7-1.4-1.4-2.1-2.2c-0.7-0.7-1.4-1.6-2.1-2.6C62.4,686.6,63.5,686.9,64.6,687.4z"/>
		</g>
		<g>
			<path class="st1" d="M75.3,689.7c1.1,0.6,2,1.4,2.7,2.3s1.3,1.9,1.7,3s0.6,2.3,0.4,3.5c-1-0.8-1.7-1.6-2.4-2.4s-1.4-1.5-2-2.3
				c-0.6-0.8-1.3-1.6-1.9-2.4c-0.7-0.8-1.3-1.7-1.9-2.8C73.1,688.6,74.3,689,75.3,689.7z"/>
		</g>
		<g>
			<path class="st1" d="M83.9,689.9c0.9,0.3,1.8,0.8,2.6,1.4c0.8,0.6,1.4,1.4,1.9,2.3s0.8,1.9,0.7,3c-1-0.4-1.8-0.9-2.5-1.4
				s-1.4-1-2-1.5c-0.7-0.5-1.3-1-1.9-1.6c-0.6-0.6-1.2-1.2-1.9-2.1C81.8,689.7,82.8,689.8,83.9,689.9z"/>
		</g>
		<g>
			<path class="st1" d="M93.4,690.6c1.1,0.6,2.1,1.3,2.9,2.1c0.9,0.9,1.6,1.8,2.1,2.9s0.9,2.2,0.9,3.5c-1.1-0.7-2-1.4-2.8-2.1
				s-1.6-1.5-2.3-2.2c-0.8-0.7-1.5-1.5-2.2-2.3c-0.7-0.8-1.4-1.7-2.1-2.8C91.2,689.7,92.4,690,93.4,690.6z"/>
		</g>
		<g>
			<path class="st1" d="M103.8,690.9c0.8,0.3,1.5,0.7,2.1,1.2s1.1,1.2,1.5,1.9c0.3,0.7,0.6,1.5,0.5,2.5c-1-0.3-1.7-0.6-2.3-1
				c-0.6-0.3-1.2-0.7-1.7-1.2c-0.6-0.4-1-0.9-1.5-1.5s-0.9-1.2-1.3-2.1C102,690.5,102.9,690.6,103.8,690.9z"/>
		</g>
		<g>
			<path class="st1" d="M114,690.8c1.2,0.3,2.4,0.9,3.4,1.7c1.1,0.8,1.9,1.8,2.5,2.9c0.6,1.1,0.9,2.4,0.8,3.7
				c-1-0.8-1.9-1.6-2.7-2.3c-0.8-0.7-1.6-1.4-2.4-2c-0.8-0.6-1.6-1.3-2.5-1.9c-0.9-0.7-1.9-1.3-2.9-2.1
				C111.4,690.4,112.8,690.5,114,690.8z"/>
		</g>
		<g>
			<path class="st1" d="M125,692.2c0.9,0.2,1.8,0.6,2.5,1.2s1.3,1.3,1.8,2.1c0.4,0.8,0.8,1.8,0.7,2.8c-1-0.3-1.7-0.7-2.4-1.1
				c-0.7-0.4-1.3-0.8-1.9-1.3s-1.2-0.9-1.8-1.5s-1.2-1.2-1.8-2C123.1,692.1,124.1,692.1,125,692.2z"/>
		</g>
		<g>
			<path class="st1" d="M135,689.7c0.8,0.3,1.6,0.7,2.3,1.2s1.3,1.2,1.8,1.9c0.5,0.7,0.9,1.6,1,2.6c-1-0.2-1.8-0.5-2.5-0.9
				c-0.7-0.3-1.4-0.7-2-1.2c-0.7-0.5-1.2-1-1.8-1.6c-0.5-0.6-1-1.3-1.5-2.2C133.3,689.3,134.2,689.4,135,689.7z"/>
		</g>
		<g>
			<path class="st1" d="M145.2,689.1c1.1,0.3,2,0.7,2.9,1.4c0.9,0.6,1.6,1.4,2.1,2.4s0.8,2.1,0.7,3.2c-1-0.6-1.8-1.2-2.5-1.7
				c-0.7-0.6-1.4-1.1-2.1-1.6l-2.1-1.6c-0.7-0.6-1.5-1.2-2.3-2C143,688.8,144.1,688.8,145.2,689.1z"/>
		</g>
		<g>
			<path class="st1" d="M158.6,690.4c0.8,0.5,1.5,1.1,2.1,1.9c0.6,0.7,1.1,1.6,1.4,2.5s0.4,1.9,0.2,3c-1-0.6-1.7-1.2-2.3-1.8
				c-0.6-0.6-1.2-1.2-1.7-1.9c-0.5-0.6-1-1.3-1.4-2.1c-0.5-0.7-0.9-1.6-1.2-2.6C156.8,689.4,157.7,689.8,158.6,690.4z"/>
		</g>
		<g>
			<path class="st1" d="M166.4,688.2c1,0.2,1.9,0.8,2.6,1.5c0.7,0.7,1.3,1.6,1.5,2.6c0.2,1,0.2,2.1-0.4,3c-0.7-0.8-1.2-1.4-1.7-2
				c-0.5-0.5-1-1-1.5-1.5s-1-1-1.5-1.5s-1.1-1-1.9-1.7C164.4,688.1,165.5,688,166.4,688.2z"/>
		</g>
		<g>
			<path class="st1" d="M17.3,639.8c0.5,1.9,0.9,3.8,1.3,5.7l1.2,5.7c0.7,3.8,1.3,7.6,1.8,11.5s0.9,7.8,1,11.7
				c-1.3-3.7-2.4-7.4-3.3-11.2c-1-3.8-1.8-7.6-2.5-11.4l-1-5.7c-0.3-2-0.6-3.9-0.8-5.8c-0.5-3.9-0.9-7.8-1-11.7
				C15.3,632.3,16.4,636.1,17.3,639.8z"/>
		</g>
		<g>
			<path class="st1" d="M24.7,639c0.5,2.4,0.9,4.9,1.3,7.3l1.1,7.3l1,7.4c0.3,2.5,0.6,4.9,0.8,7.4c0.5,5,0.8,9.9,0.8,14.9
				c-1.3-4.9-2.2-9.7-3.1-14.6c-0.5-2.4-0.9-4.9-1.3-7.3l-1.1-7.3l-1-7.4c-0.2-2.5-0.6-4.9-0.8-7.4c-0.5-4.9-0.9-9.8-1.1-14.8
				C22.7,629.3,23.8,634.1,24.7,639z"/>
		</g>
		<g>
			<path class="st1" d="M32.3,639.1c0.6,2.6,1,5.2,1.5,7.8s0.8,5.2,1.2,7.8c0.3,2.7,0.6,5.3,0.9,7.9c0.2,2.6,0.5,5.3,0.6,7.9
				c0.3,5.2,0.4,10.5,0.1,15.8c-1-5.2-1.8-10.4-2.5-15.6c-0.4-2.6-0.7-5.2-1.1-7.8l-1-7.8l-1-7.8c-0.3-2.6-0.7-5.2-1-7.8
				c-0.6-5.2-1.2-10.4-1.6-15.7C30,628.9,31.2,634,32.3,639.1z"/>
		</g>
		<g>
			<path class="st1" d="M37.4,632.5c0.5,1.1,0.7,2.2,1,3.3c0.4,2.1,0.9,4.3,1.3,6.5c0.4,2.2,0.7,4.4,1.1,6.6l1,6.6
				c0.6,4.4,1.1,8.9,1.5,13.3c0.3,4.5,0.6,8.9,0.6,13.4c-1.2-4.4-2.1-8.7-2.9-13.1s-1.5-8.8-2.1-13.2l-0.8-6.6
				c-0.2-2.2-0.4-4.4-0.6-6.6c-0.2-2.3-0.4-4.5-0.5-6.7c-0.2-2.2-0.3-4.4-1.7-6.2C36.2,630.5,36.9,631.5,37.4,632.5z"/>
		</g>
		<g>
			<path class="st1" d="M45.9,632.9c0.3,0.6,0.4,1.2,0.5,1.7l0.8,3.3c0.5,2.2,0.9,4.5,1.3,6.7c0.4,2.2,0.7,4.5,1.1,6.7l1,6.7
				c0.6,4.5,1,9,1.4,13.5c0.4,4.5,0.6,9,0.6,13.6c-1.2-4.4-2.1-8.8-2.9-13.3c-0.8-4.4-1.5-8.9-2.1-13.4l-0.8-6.7
				c-0.2-2.3-0.4-4.5-0.6-6.8c-0.1-2.3-0.3-4.5-0.4-6.8l-0.1-3.4c0-0.6,0-1.2-0.1-1.7c-0.1-0.6-0.3-1.1-0.8-1.4
				C45.4,631.8,45.8,632.3,45.9,632.9z"/>
		</g>
		<g>
			<path class="st1" d="M54.8,643.2l2.5,13.9l2.5,13.9c0.8,4.6,1.6,9.3,2.2,14c-1.8-4.4-3.3-8.9-4.5-13.5c-0.6-2.3-1.1-4.6-1.7-6.9
				c-0.5-2.3-1-4.7-1.4-7c-0.4-2.3-0.8-4.6-1.1-7c-0.3-2.4-0.6-4.7-0.8-7.1c-0.5-4.7-0.7-9.4-0.5-14.2
				C53.1,633.9,53.9,638.6,54.8,643.2z"/>
		</g>
		<g>
			<path class="st1" d="M61.6,628.2c0.2,0.6,0.3,1.2,0.5,1.7l0.9,3.3c0.5,2.2,1.1,4.4,1.6,6.6c0.6,2.2,1.1,4.4,1.6,6.6l1.5,6.6
				c0.9,4.4,1.9,8.8,2.8,13.2c0.9,4.4,1.8,8.8,2.5,13.3c-1.8-4.1-3.4-8.4-4.7-12.7s-2.5-8.7-3.5-13.1c-0.4-2.3-0.9-4.5-1.3-6.7
				c-0.4-2.2-0.8-4.5-1.1-6.7s-0.6-4.4-0.8-6.7c0-1.1-0.1-2.3-0.2-3.4c-0.1-0.5-0.1-1.1-0.2-1.6c-0.1-0.5-0.4-1-0.9-1.3
				C60.9,627.4,61.4,627.9,61.6,628.2z"/>
		</g>
		<g>
			<path class="st1" d="M74.2,635.2c0.6,2.3,1.1,4.5,1.6,6.8l3,13.6l3,13.6c1,4.5,2,9.1,2.8,13.7c-2-4.2-3.6-8.6-5-13.1
				c-0.8-2.2-1.4-4.4-2-6.7c-0.6-2.2-1.2-4.5-1.7-6.8c-1-4.5-1.8-9.1-2.4-13.8c-0.1-1.2-0.3-2.3-0.4-3.5c-0.1-1.1-0.3-2.3-0.4-3.4
				c-0.3-2.2-0.8-4.5-1.8-6.6C72.5,630.8,73.4,633.1,74.2,635.2z"/>
		</g>
		<g>
			<path class="st1" d="M86,641.5c0.5,2.2,1,4.3,1.5,6.5c0.4,2.1,0.9,4.3,1.3,6.5c0.9,4.3,1.5,8.7,2.1,13.1c0.5,4.4,1,8.8,1.1,13.3
				c-1.3-4.3-2.4-8.6-3.4-12.9s-1.9-8.6-2.7-13l-1.2-6.5c-0.3-2.2-0.7-4.4-1-6.6c-0.7-4.4-1.2-8.8-1.5-13.3
				C83.7,632.8,84.9,637.1,86,641.5z"/>
		</g>
		<g>
			<path class="st1" d="M95.8,642.7l2.9,12.8l2.8,12.9c0.9,4.3,1.9,8.6,2.6,13c-2-4-3.5-8.2-4.9-12.4s-2.5-8.5-3.5-12.8
				c-0.5-2.2-0.9-4.3-1.3-6.5c-0.4-2.2-0.7-4.4-1-6.6c-0.6-4.4-0.9-8.8-0.9-13.3C93.7,634.1,94.7,638.4,95.8,642.7z"/>
		</g>
		<g>
			<path class="st1" d="M103.2,646.8l1.3,7.7c0.3,1.3,0.5,2.6,0.7,3.9l0.7,3.8l0.7,3.8l0.7,3.8l1.5,7.7c1,5.1,2.1,10.2,3,15.4
				c-2.1-4.8-3.8-9.8-5.2-14.9c-0.8-2.6-1.4-5.1-2-7.7c-0.6-2.5-1.1-5.1-1.6-7.7c-0.4-2.6-0.9-5.2-1.2-7.8c-0.3-2.7-0.6-5.3-0.8-7.9
				c-0.4-5.3-0.6-10.5-0.3-15.8C101.7,636.3,102.5,641.4,103.2,646.8z"/>
		</g>
		<g>
			<path class="st1" d="M110.5,638.7c0.8,2.6,1.5,5.2,2.1,7.8c0.7,2.7,1.3,5.3,1.9,7.9l1.7,7.9l1.6,7.9c0.5,2.7,1,5.3,1.4,8
				c0.9,5.3,1.6,10.6,2.1,16c-1.7-5.2-3.1-10.4-4.4-15.6c-0.7-2.7-1.3-5.3-1.9-7.9l-1.7-7.9l-1.5-7.9c-0.5-2.7-1-5.3-1.4-8
				s-0.8-5.3-1.2-8c-0.4-2.6-0.7-5.3-1-8C109.2,633.4,109.9,636,110.5,638.7z"/>
		</g>
		<g>
			<path class="st1" d="M122.2,645.7c0.6,2.4,1.2,4.9,1.8,7.3c0.6,2.4,1.1,4.9,1.8,7.3c1.2,4.9,2.6,9.7,3.9,14.6
				c0.7,2.4,1.4,4.8,1.9,7.4c0.4,2.6,0.5,5.2-0.2,7.7c0.1-5.2-2.2-9.6-3.9-14.4c-0.9-2.4-1.7-4.8-2.5-7.2c-0.7-2.4-1.4-4.8-2.1-7.3
				c-1.2-4.9-2.3-9.9-3-14.9s-1.2-10.1-1.2-15.2C120,635.9,121.1,640.8,122.2,645.7z"/>
		</g>
		<g>
			<path class="st1" d="M130.8,645.7c1.2,5.4,2.3,10.8,3.7,16.1c1.3,5.4,2.8,10.6,4.2,16c1.4,5.3,2.5,11,1.8,16.6
				c-0.6-5.6-2.2-10.8-4-16c-0.9-2.6-1.8-5.2-2.6-7.9c-0.8-2.7-1.5-5.4-2.2-8.1s-1.3-5.5-1.8-8.2c-0.5-2.8-1-5.5-1.3-8.3
				c-0.7-5.6-1.1-11.1-1-16.7L130.8,645.7z"/>
		</g>
		<g>
			<path class="st1" d="M12.9,611.2c0.8,2.1,1.6,4.2,2.2,6.4c0.6,2.2,1.2,4.4,1.6,6.6c0.4,2.3,0.8,4.5,0.8,6.9c-1.2-2-2.1-4.1-3-6.2
				c-0.8-2.1-1.6-4.2-2.2-6.4c-0.6-2.2-1.2-4.4-1.6-6.6s-0.6-4.5-0.9-6.8C11.3,607,12.1,609.1,12.9,611.2z"/>
		</g>
		<g>
			<path class="st1" d="M16.4,602.4c1.5,3.2,2.7,6.5,3.9,9.8c1.1,3.3,2.2,6.7,3.1,10.1s1.7,6.9,2.2,10.4c-1.7-3.1-3.1-6.4-4.4-9.6
				s-2.5-6.5-3.7-9.8c-1.1-3.3-2.2-6.6-3.2-10c-1-3.4-1.9-6.8-2.6-10.3C13.5,596.1,15,599.2,16.4,602.4z"/>
		</g>
		<g>
			<path class="st1" d="M17,582.7c1.1,2.9,2.2,5.8,3.3,8.7l3.2,8.8c2.1,5.9,4.1,11.7,5.9,17.7c1.7,6,3.1,12.3,2.4,18.6
				c-0.6-6.2-2.5-12-4.7-17.8l-3.3-8.7l-3.2-8.8l-3-8.8c-1-3-2-5.9-2.9-8.9c-1.9-6-3.6-11.9-5.1-18C12.3,571.2,14.6,576.9,17,582.7z
				"/>
		</g>
		<g>
			<path class="st1" d="M9.6,547.4c0.5,0.8,0.8,1.6,1.1,2.4l1.8,4.8c1.2,3.2,2.3,6.4,3.4,9.7c1.1,3.3,2.1,6.5,3.2,9.8l3,9.8l2.9,9.9
				c0.9,3.3,1.8,6.6,2.7,9.9c1.8,6.6,3.4,13.3,4.8,20c-2.5-6.4-4.8-12.9-7-19.4c-1.1-3.3-2.1-6.5-3.2-9.8l-3-9.8l-2.9-9.9
				c-0.9-3.3-1.8-6.6-2.7-9.9c-0.8-3.3-1.7-6.7-2.5-10l-1.2-5c-0.2-0.8-0.4-1.6-0.7-2.4c-0.3-0.8-0.8-1.5-1.6-1.9
				C8.5,545.9,9.2,546.6,9.6,547.4z"/>
		</g>
		<g>
			<path class="st1" d="M22,560.9c1.2,3.3,2.4,6.6,3.5,9.9l3.3,10l3,10.1c0.9,3.4,1.9,6.7,2.8,10.1c1.9,6.8,3.5,13.6,4.9,20.5
				c-2.6-6.6-4.9-13.2-7.1-19.8c-1.1-3.3-2.2-6.7-3.3-10l-3.2-10l-3.1-10c-1-3.4-2-6.7-3-10.1c-1.9-6.7-3.8-13.5-5.5-20.3
				C17.2,547.7,19.7,554.3,22,560.9z"/>
		</g>
		<g>
			<path class="st1" d="M29.9,561.4c1.3,3.7,2.6,7.3,3.9,11l3.8,11l3.6,11.1c1.1,3.7,2.3,7.4,3.4,11.1c2.3,7.5,4.4,14.9,6.3,22.5
				c-3.1-7.2-5.8-14.5-8.5-21.8c-1.3-3.7-2.6-7.3-3.9-11l-3.8-11l-3.6-11.1c-1.1-3.7-2.3-7.4-3.4-11.1c-2.3-7.5-4.4-14.9-6.3-22.5
				C24.4,546.7,27.2,554,29.9,561.4z"/>
		</g>
		<g>
			<path class="st1" d="M52,598.3c1.5,3,2.7,6.1,3.9,9.2c1.1,3.1,2.2,6.3,3,9.5c0.8,3.2,1.5,6.4,1.9,9.8c-1.6-3-2.9-6-4.2-9.1
				c-1.3-3-2.5-6.1-3.6-9.2c-1.2-3.1-2.3-6.2-3.3-9.4c-1.1-3.1-2-6.3-2.8-9.6C48.8,592.3,50.4,595.2,52,598.3z"/>
		</g>
		<g>
			<path class="st1" d="M61.5,598.6c1.4,2.4,2.8,4.9,3.9,7.4c1.2,2.5,2.2,5.1,3,7.8s1.5,5.4,1.8,8.2c-1.5-2.4-2.8-4.8-4-7.3
				c-1.2-2.4-2.4-4.9-3.5-7.4c-1.2-2.5-2.2-5.1-3.3-7.6c-1-2.5-2.1-5.1-2.9-7.8C58.4,594,60,596.3,61.5,598.6z"/>
		</g>
		<g>
			<path class="st1" d="M74.6,605.1c1.2,2.3,2.2,4.8,3,7.3c0.8,2.5,1.4,5.1,1.9,7.7c0.5,2.6,0.8,5.2,0.7,7.9c-1.1-2.4-2-4.9-2.9-7.3
				c-0.9-2.4-1.7-4.9-2.5-7.3c-0.8-2.5-1.6-4.9-2.3-7.4s-1.5-5-2-7.6C72.1,600.5,73.4,602.8,74.6,605.1z"/>
		</g>
		<g>
			<path class="st1" d="M83.6,603.5c1.3,2.2,2.3,4.6,3.1,7s1.4,4.9,1.8,7.4c0.3,2.6,0.5,5.1,0.2,7.7c-1-2.4-1.7-4.7-2.5-7.1l-2.3-7
				l-2.4-7c-0.8-2.4-1.6-4.7-2.3-7.2C81,599.2,82.4,601.3,83.6,603.5z"/>
		</g>
		<g>
			<path class="st1" d="M89.1,601.6c1.2,2.2,2.2,4.5,3.1,6.9c0.9,2.3,1.6,4.7,2.2,7.2c0.5,2.4,1,4.9,1.1,7.5
				c-1.3-2.2-2.4-4.5-3.4-6.8c-1-2.3-1.9-4.6-2.8-6.9c-0.8-2.4-1.7-4.7-2.4-7.1s-1.4-4.9-1.9-7.4C86.6,597.1,87.8,599.3,89.1,601.6z
				"/>
		</g>
		<g>
			<path class="st1" d="M99.4,606.2c1,2.6,2,5.3,2.9,7.9s1.8,5.3,2.5,8s1.4,5.5,1.8,8.3c-1.5-2.4-2.8-4.9-4-7.5
				c-1.2-2.5-2.2-5.1-3.1-7.8c-0.9-2.7-1.7-5.4-2.3-8.1c-0.7-2.8-1.2-5.5-1.4-8.4C97.2,601.1,98.4,603.7,99.4,606.2z"/>
		</g>
		<g>
			<path class="st1" d="M109.6,607.6c1.3,2.4,2.4,4.8,3.3,7.4c0.9,2.6,1.6,5.2,2,7.9c0.5,2.7,0.7,5.4,0.5,8.1
				c-1.1-2.5-1.9-5-2.8-7.5L110,616l-2.6-7.4c-0.9-2.5-1.8-5-2.5-7.6C106.7,603,108.2,605.3,109.6,607.6z"/>
		</g>
		<g>
			<path class="st1" d="M116.3,607.8c1.2,2.7,2.2,5.4,3.2,8.1s1.9,5.5,2.7,8.3s1.5,5.7,2,8.6c-1.6-2.4-2.9-5.1-4.2-7.7
				c-1.2-2.6-2.3-5.4-3.3-8.1c-1-2.8-1.9-5.6-2.6-8.4c-0.7-2.9-1.4-5.7-1.7-8.7C113.9,602.5,115.1,605.1,116.3,607.8z"/>
		</g>
		<g>
			<path class="st1" d="M124.4,609.3c1.6,2.7,3,5.4,4.3,8.2c1.4,2.7,2.6,5.5,3.7,8.4c1.1,2.9,2.1,5.8,2.9,8.8
				c-1.9-2.5-3.5-5.1-5-7.8c-1.6-2.7-3-5.4-4.3-8.2c-1.4-2.7-2.6-5.5-3.7-8.4c-1.1-2.9-2.1-5.8-2.9-8.8
				C121.3,604,122.9,606.6,124.4,609.3z"/>
		</g>
		<g>
			<path class="st1" d="M135.5,609.9c0.5,2.5,1,5.1,1.5,7.6s0.9,5,1.3,7.6c0.3,2.6,0.7,5.1,0.8,7.8c-1.3-2.4-2.3-4.8-3.1-7.3
				c-0.8-2.5-1.4-5-1.9-7.6s-0.8-5.2-0.9-7.8c-0.1-2.6-0.1-5.3,0.3-7.9C134.3,604.8,134.9,607.3,135.5,609.9z"/>
		</g>
		<g>
			<path class="st1" d="M145.3,604.3c0.2,0,0.4,0,0.5,0.1c0.3,0.2,0.5,0.4,0.7,0.7s0.2,0.5,0.3,0.8l0.3,0.8c0.4,1.1,0.7,2.1,0.9,3.1
				c0.5,2,0.9,4.1,1.2,6.2s0.4,4.2,0.5,6.3c0.1,2.1,0,4.2-0.3,6.4c-0.9-2-1.5-4.1-2-6.1c-0.5-2.1-0.9-4.1-1.2-6.2s-0.4-4.2-0.5-6.3
				c-0.1-1.1,0-2.1,0-3.2v-0.8c0.1-0.2,0.1-0.6,0.1-0.7c0-0.2-0.1-0.4-0.2-0.6c-0.1-0.1-0.3-0.3-0.5-0.1
				C145.1,604.5,145.2,604.4,145.3,604.3z"/>
		</g>
		<g>
			<path class="st1" d="M158.2,608.2c0.6,1.9,1.1,3.8,1.4,5.7c0.4,1.9,0.6,3.8,0.7,5.8c0.1,1.9,0,3.9-0.3,5.9
				c-0.9-1.8-1.6-3.6-2.1-5.5s-1-3.8-1.3-5.7s-0.5-3.8-0.7-5.7c-0.1-1.9-0.2-3.9,0-5.9C156.9,604.6,157.6,606.4,158.2,608.2z"/>
		</g>
		<g>
			<path class="st1" d="M163.6,604.5c0.3,0.2,0.5,0.4,0.7,0.6c0.2,0.3,0.4,0.5,0.5,0.8s0.2,0.6,0.3,0.8c0.4,1,0.7,2,0.9,3
				c0.5,2,0.8,4,1,6.1c0.1,2.1,0.2,4.1,0,6.2c-0.1,2.1-0.4,4.2-1.1,6.2c-0.6-2.1-0.9-4.1-1.2-6.1s-0.5-4-0.7-6
				c-0.2-2.1-0.3-4.1-0.3-6.1c0-1.1,0-2.1,0-3.1c0-0.3,0-0.5,0-0.7c0-0.3-0.1-0.5-0.1-0.7c-0.1-0.4-0.2-0.9-0.8-0.9
				C163,604.4,163.4,604.4,163.6,604.5z"/>
		</g>
		<g>
			<path class="st1" d="M172.8,610.6c0.4,1.8,0.6,3.6,0.7,5.4c0.1,1.8,0.1,3.6,0,5.4s-0.3,3.7-0.8,5.5c-0.7-1.7-1.2-3.5-1.5-5.3
				c-0.4-1.8-0.6-3.6-0.7-5.4c-0.1-1.8-0.1-3.6,0-5.4s0.3-3.7,0.8-5.5C172,607,172.5,608.8,172.8,610.6z"/>
		</g>
		<g>
			<path class="st1" d="M181.1,611.6c0.5,1.9,0.9,3.8,1.2,5.8c0.3,1.9,0.5,3.9,0.6,5.9c0.1,2,0,4-0.3,6c-0.9-1.9-1.5-3.8-2-5.7
				c-0.5-1.9-0.9-3.8-1.2-5.8c-0.3-1.9-0.5-3.9-0.6-5.9c0-2,0-4,0.3-6C180,607.7,180.6,609.6,181.1,611.6z"/>
		</g>
		<g>
			<path class="st1" d="M187.8,609.4c0.4,1.9,0.8,3.9,1.1,5.9s0.5,4,0.6,6c0.1,2.1,0.1,4.1-0.1,6.2c-1-1.9-1.7-3.8-2.3-5.8
				s-1-4-1.3-6s-0.5-4.1-0.5-6.1c0-2.1,0.1-4.1,0.5-6.2C186.6,605.4,187.1,607.4,187.8,609.4z"/>
		</g>
		<g>
			<path class="st1" d="M198.5,612.7c0.5,2.1,0.9,4.2,1.2,6.4c0.3,2.1,0.4,4.3,0.5,6.5c0.1,2.2,0,4.4-0.3,6.6
				c-0.9-2.1-1.5-4.2-2-6.3c-0.5-2.1-0.9-4.2-1.2-6.4c-0.3-2.1-0.4-4.3-0.5-6.5c-0.1-2.2,0-4.4,0.3-6.6
				C197.4,608.5,198,610.6,198.5,612.7z"/>
		</g>
		<g>
			<path class="st1" d="M10.3,543.6c0,1,0,2-0.2,3c-0.1,1-0.4,1.9-0.8,2.9s-0.9,1.9-1.7,2.8c-0.5-1.1-0.6-2.2-0.7-3.2c0-1,0-2,0.2-3
				c0.1-1,0.4-1.9,0.8-2.9c0.4-1,0.9-1.9,1.7-2.8C10.1,541.5,10.2,542.5,10.3,543.6z"/>
		</g>
		<g>
			<path class="st1" d="M15.7,551.7c-0.2,0.9-0.5,1.9-0.8,2.8l-0.8,2.8c-0.2,1-0.5,1.9-0.8,2.8l-0.8,2.8l-3,11.2
				c-1,3.8-2,7.5-3.1,11.3c-0.1-3.9,0.2-7.8,0.8-11.7c0.5-3.9,1.3-7.7,2.4-11.5c0.6-1.9,1.2-3.7,1.8-5.6c0.7-1.8,1.3-3.7,2.1-5.5
				c1.5-3.6,3.3-7.2,5.4-10.5C17.9,544.4,16.8,548.1,15.7,551.7z"/>
		</g>
		<g>
			<path class="st1" d="M17.4,567.6h0.4v0.5c-0.2,3.9-0.7,7.6-1.3,11.4c-0.6,3.8-1.4,7.5-2.2,11.2c-0.8,3.7-1.8,7.4-2.9,11
				c-1.1,3.7-2.4,7.3-3.9,10.8c0.4-3.8,1-7.6,1.7-11.3c0.7-3.7,1.4-7.4,2.2-11.1c0.9-3.7,1.7-7.4,2.6-11.1s1.9-7.4,3-11l0.4,0.5
				c-0.7-0.2-1.7,0.3-1.9,1.3C15.4,568.8,16.3,567.7,17.4,567.6z"/>
		</g>
		<g>
			<path class="st1" d="M22.2,592.2c-1.2,3.7-2.3,7.3-3.3,11c-1,3.6-1.9,7.4-2.8,11.1c-0.9,3.7-1.7,7.5-2.6,11.3
				c-0.3-3.9-0.2-7.8,0.3-11.7c0.5-3.9,1.2-7.8,2.3-11.6c0.6-1.9,1.1-3.8,1.8-5.6c0.7-1.8,1.4-3.6,2.2-5.4c1.6-3.6,3.4-6.9,4.5-10.7
				C24.7,584.6,23.5,588.5,22.2,592.2z"/>
		</g>
		<g>
			<path class="st1" d="M24.1,618.1c-0.5,2-1.1,4-1.6,6l-1.7,6c-1.1,4-2.3,8-3.5,12s-2.5,7.9-3.9,11.9c0.2-4.2,0.8-8.4,1.6-12.5
				c0.8-4.1,1.8-8.2,2.9-12.2c0.6-2,1.1-4,1.8-6c0.7-2,1.3-4,2.1-5.9c1.5-4,3.2-7.8,5.2-11.5C26.1,610.1,25.1,614.1,24.1,618.1z"/>
		</g>
		<g>
			<path class="st1" d="M27.4,628.7l-2.2,5.8c-0.4,1-0.7,1.9-1.1,2.9l-1,2.9c-1.4,3.8-2.8,7.7-4.1,11.6c-1.3,3.8-2.6,7.8-4,11.7
				c0.2-4.2,0.9-8.3,1.8-12.4c0.9-4.1,2.1-8.1,3.5-12c0.7-1.9,1.5-3.9,2.3-5.8c0.9-1.9,1.7-3.9,2.7-5.7c1.9-3.7,4.1-7.3,6.6-10.6
				C30.5,621,28.9,624.9,27.4,628.7z"/>
		</g>
		<g>
			<path class="st1" d="M30.6,645.7c-0.3,1-0.7,1.9-1,2.9l-1,2.9c-0.3,1-0.6,1.9-0.9,2.9l-0.9,2.9c-1.2,3.9-2.3,7.9-3.4,11.8
				c-1.1,3.9-2.1,7.9-3.2,11.9c-0.1-4.1,0.3-8.3,0.9-12.4c0.7-4.1,1.6-8.1,2.8-12.1c0.6-2,1.3-4,2-5.9s1.5-3.8,2.4-5.7
				c1.8-3.8,3.8-7.4,6.2-10.8C33.2,638,31.8,641.9,30.6,645.7z"/>
		</g>
		<g>
			<path class="st1" d="M35.6,664.3l-5.4,11.4l-5.4,11.4c-1.9,3.8-3.7,7.6-5.7,11.3c0.8-4.1,2.1-8.2,3.5-12.2
				c1.5-4,3.1-7.9,4.9-11.7c1-1.9,1.9-3.8,2.9-5.7c1-1.8,2-3.7,3.1-5.5c2.1-3.7,4.5-7.2,7.2-10.5C39.1,656.7,37.3,660.6,35.6,664.3z
				"/>
		</g>
		<g>
			<path class="st1" d="M39.6,673.6c-1.7,2.3-3.4,4.6-5,6.9c-1.6,2.3-3.1,4.7-4.7,7.1c-1.6,2.4-3.1,4.9-4.8,7.3
				c0.5-2.9,1.5-5.7,2.7-8.4c1.3-2.7,2.7-5.3,4.4-7.7c1.7-2.5,3.6-4.7,5.7-6.8c2.1-2.1,4.3-4,6.9-5.5
				C43,668.9,41.3,671.2,39.6,673.6z"/>
		</g>
		<g>
			<path class="st1" d="M56.9,675.5l-4.7,5.8l-4.7,5.8c-1.6,2-3.1,4-4.9,5.9c0.6-2.6,1.7-4.9,2.9-7.2c1.2-2.3,2.7-4.4,4.3-6.4
				c1.6-2,3.4-3.8,5.4-5.5c2-1.6,4.1-3.1,6.4-4.3C60.1,671.7,58.5,673.7,56.9,675.5z"/>
		</g>
		<g>
			<path class="st1" d="M65.5,676.4l-6,7.4l-6.1,7.4c-2,2.4-4.1,4.9-6.3,7.3c1.2-3.1,2.7-5.9,4.4-8.7c1.7-2.8,3.6-5.4,5.7-7.9
				c2.1-2.5,4.3-4.9,6.7-7.1s4.9-4.3,7.7-6C69.7,671.5,67.7,673.9,65.5,676.4z"/>
		</g>
		<g>
			<path class="st1" d="M76.3,683.2c-1.4,1.6-2.8,3.2-4.3,4.7s-3,3-4.6,4.4s-3.2,2.8-5.1,4c0.9-2.1,2.1-3.9,3.4-5.6s2.7-3.4,4.2-4.9
				s3.1-3,4.8-4.3s3.5-2.5,5.5-3.5C79.1,679.9,77.7,681.6,76.3,683.2z"/>
		</g>
		<g>
			<path class="st1" d="M89.3,685.2c-1.2,1.2-2.5,2.3-3.8,3.4c-1.3,1.1-2.6,2.2-4,3.2s-2.8,2-4.4,2.9c0.7-1.7,1.7-3.2,2.8-4.6
				c1.1-1.4,2.3-2.7,3.7-3.8s2.8-2.1,4.4-3s3.2-1.6,5-2C91.8,682.7,90.6,684,89.3,685.2z"/>
		</g>
		<g>
			<path class="st1" d="M98.6,690.9c-1.5,1.1-2.9,2.2-4.4,3.2c-1.4,1-2.9,2.1-4.4,3.1c-1.5,1.1-3,2.1-4.7,3c0.8-1.7,1.9-3.3,3.2-4.7
				c1.2-1.4,2.7-2.7,4.2-3.8s3.2-2,4.9-2.8c1.7-0.7,3.6-1.3,5.5-1.5C101.4,688.7,100,689.9,98.6,690.9z"/>
		</g>
		<g>
			<path class="st1" d="M94.4,633.5c-1.1,1.6-2.4,3-3.7,4.4s-2.7,2.7-4.2,3.9s-3,2.4-4.8,3.3c0.9-1.8,1.9-3.4,3.1-4.9
				c1.1-1.6,2.4-3,3.7-4.4s2.7-2.7,4.2-3.9s3-2.4,4.8-3.3C96.6,630.4,95.5,632,94.4,633.5z"/>
		</g>
		<g>
			<path class="st1" d="M83.5,630.9c-1.1,1.3-2.2,2.5-3.4,3.8c-1.2,1.3-2.4,2.5-3.6,3.7s-2.5,2.4-4,3.5c0.4-1.8,1.2-3.5,2.1-5
				c0.9-1.6,2-3,3.2-4.3s2.5-2.5,4-3.5s3-1.9,4.8-2.5C85.6,628.2,84.5,629.6,83.5,630.9z"/>
		</g>
		<g>
			<path class="st1" d="M66.9,634.2c-1.8,1.4-3.6,2.7-5.5,3.9c-1.9,1.2-3.8,2.3-5.8,3.3c-0.9,0.5-1.8,0.9-2.6,1.6
				c-0.8,0.6-1.4,1.4-1.5,2.6c-0.3-0.5-0.4-1.2-0.3-1.8c0.1-0.7,0.4-1.3,0.7-1.8c0.7-1.1,1.6-2,2.5-2.7c1.8-1.4,3.6-2.7,5.5-3.9
				c1.9-1.2,3.8-2.3,5.8-3.3s4.1-1.9,6.3-2.6C70.4,631.2,68.7,632.6,66.9,634.2z"/>
		</g>
		<g>
			<path class="st1" d="M52.8,631.1c-1.8,1.6-3.6,3.1-5.2,4.8c-1.6,1.6-3.2,3.4-4.7,5.2s-3,3.7-4.5,5.7c0.3-2.5,1.3-4.8,2.5-7
				s2.7-4.2,4.5-6s3.8-3.4,6-4.6c2.2-1.2,4.5-2.2,7-2.6C56.5,628.1,54.6,629.6,52.8,631.1z"/>
		</g>
		<g>
			<path class="st1" d="M40.1,628.4c-1.3,1.5-2.6,2.9-3.9,4.3c-1.3,1.4-2.7,2.8-4.1,4.1c-1.4,1.3-2.9,2.6-4.6,3.8
				c0.7-1.9,1.7-3.7,2.8-5.3c1.1-1.6,2.3-3.2,3.7-4.6c1.3-1.4,2.8-2.7,4.4-3.9c1.6-1.2,3.3-2.2,5.2-3
				C42.5,625.6,41.2,627.1,40.1,628.4z"/>
		</g>
		<g>
			<path class="st1" d="M434.8,684.1c-0.5,1.2-1,2.4-1.6,3.5s-1.3,2.2-2,3.3c-0.8,1.1-1.5,2.1-2.6,3.1c-0.1-1.4,0.1-2.8,0.4-4.1
				s0.8-2.5,1.4-3.7s1.3-2.3,2.2-3.3s1.9-2,3.1-2.7C435.5,681.6,435.1,682.9,434.8,684.1z"/>
		</g>
		<g>
			<path class="st1" d="M420.6,683.9c-0.7,1.1-1.5,2.1-2.3,3c-0.8,1-1.7,1.8-2.6,2.7c-0.9,0.8-2,1.6-3.2,2.3
				c0.3-1.4,0.8-2.6,1.4-3.8s1.4-2.2,2.2-3.2s1.8-1.9,2.8-2.7c1-0.8,2.2-1.5,3.5-1.9C421.9,681.6,421.2,682.7,420.6,683.9z"/>
		</g>
		<g>
			<path class="st1" d="M724.3,616.3c-1.2,2.1-2.5,4.2-3.8,6.3c-1.3,2.1-2.6,4.1-4,6.2c-1.4,2.1-2.9,4.1-4.5,6.1
				c0.5-2.5,1.4-4.9,2.4-7.2s2.2-4.6,3.5-6.7s2.8-4.2,4.4-6.1c1.6-1.9,3.4-3.7,5.4-5.3C726.7,611.9,725.5,614.1,724.3,616.3z"/>
		</g>
		<g>
			<path class="st1" d="M704,612.3c-1.4,2.1-2.8,4.1-4.2,6.2c-1.4,2.1-2.7,4.2-4.1,6.3c-1.4,2.1-2.8,4.3-4.3,6.4
				c0.4-2.6,1.2-5.1,2.2-7.5s2.3-4.7,3.7-6.9c1.4-2.2,3.1-4.2,4.9-6.1c1.8-1.9,3.8-3.6,6.1-4.9C706.9,608,705.5,610.1,704,612.3z"/>
		</g>
		<g>
			<path class="st1" d="M514.4,549.6c0.7,3.6,1.2,7.2,1.7,10.8c0.5,3.6,0.9,7.3,1.3,10.9c0.4,3.6,0.7,7.3,0.8,11
				c-1.3-3.5-2.3-7-3.1-10.6c-0.9-3.5-1.5-7.2-2-10.8c-0.5-3.7-0.8-7.3-1-11c-0.2-3.7-0.2-7.4,0.1-11.1
				C513.1,542.4,513.8,546,514.4,549.6z"/>
		</g>
		<g>
			<path class="st1" d="M501.8,550.9c0.3,2,0.5,4.1,0.7,6.1l0.6,6.1c0.3,4,0.5,8.1,0.6,12.2s0.1,8.2-0.2,12.3c-0.9-4-1.6-8-2.1-12.1
				c-0.6-4.1-1-8.1-1.3-12.2l-0.4-6.1c-0.1-2-0.2-4.1-0.2-6.1c-0.1-4.1-0.1-8.2,0.2-12.3C500.6,542.8,501.3,546.9,501.8,550.9z"/>
		</g>
		<g>
			<path class="st1" d="M489.2,550.6c0.5,3.8,0.8,7.5,0.9,11.3c0.1,3.8,0.1,7.5-0.2,11.3c-0.2,3.7-0.7,7.5-1.5,11.2
				c-0.4-3.7-0.6-7.5-0.8-11.2c-0.2-3.8-0.3-7.5-0.4-11.2c-0.2-3.7-0.3-7.5-0.3-11.2c-0.1-3.8-0.1-7.5,0.1-11.3
				C488.1,543.1,488.8,546.8,489.2,550.6z"/>
		</g>
		<g>
			<path class="st1" d="M473.2,551.4c0.3,2,0.4,4,0.6,6c0.1,2,0.2,4,0.3,6c0.2,4,0.1,8.1-0.2,12.1c-0.1,2-0.3,4-0.6,6
				c-0.2,1-0.3,2-0.5,3l-0.1,0.7c-0.1,0.2-0.1,0.5-0.3,0.8c-0.1,0.1-0.3,0.2-0.4,0.3c-0.2,0.1-0.4,0.1-0.5,0c-0.2,0-0.3-0.2-0.3-0.3
				s0.1-0.3,0.2-0.3c-0.2,0.2,0,0.5,0.2,0.5c0.1,0,0.2-0.1,0.3-0.3c0.1-0.4,0-0.9,0-1.4l-0.2-3c-0.1-2-0.2-4-0.3-6l-0.4-12l-0.3-12
				c-0.1-3.9-0.1-7.9,0-12C471.8,543.4,472.5,547.4,473.2,551.4z"/>
		</g>
		<g>
			<path class="st1" d="M457.2,552c0.3,4,0.4,7.9,0.5,11.9s0,7.9-0.1,11.9c-0.2,4-0.4,7.9-0.9,11.9v0.3l-0.2-0.2l-0.5-0.7l0.6,0.5
				l-0.2,0.1c-0.6-3.9-1-7.8-1.3-11.8s-0.5-7.9-0.5-11.9c-0.1-4-0.1-7.9,0.1-11.9s0.5-7.9,1-11.9C456.3,544.1,456.7,548.1,457.2,552
				z"/>
		</g>
		<g>
			<path class="st1" d="M441.1,551.1c0.2,2.2,0.2,4.3,0.3,6.5c0,2.2,0,4.3,0,6.5c-0.1,4.3-0.4,8.6-0.8,12.9
				c-0.2,2.1-0.5,4.3-0.8,6.4c-0.2,1.1-0.4,2.1-0.6,3.2c-0.1,0.5-0.1,1-0.4,1.6c-0.2,0.3-0.5,0.6-0.9,0.4c-0.1-0.1-0.2-0.2-0.2-0.4
				s0.2-0.4,0.3-0.3c-0.1,0-0.1,0.2-0.1,0.3c0,0.1,0.1,0.2,0.2,0.2c0.1,0,0.3-0.2,0.3-0.4c0.1-0.4,0-1,0-1.5l-0.1-3.2
				c0-2.2,0-4.4,0-6.5c0-4.3,0-8.6,0.1-12.9l0.2-6.4c0.1-2.1,0.1-4.3,0.2-6.4c0.1-4.3,0.4-8.6,0.8-12.9
				C440.4,542.4,440.9,546.7,441.1,551.1z"/>
		</g>
		<g>
			<path class="st1" d="M426.1,552.4c0.2,2.1,0.2,4.1,0.3,6.2l0.1,6.2c0,4.1-0.1,8.2-0.3,12.3c-0.1,2.1-0.2,4.1-0.4,6.2l-0.3,3.1
				c-0.1,0.6-0.1,1-0.2,1.6c0,0.3-0.2,0.7-0.6,0.7c-0.2,0-0.3-0.2-0.3-0.3c0-0.1,0-0.1,0-0.2h0.2c-0.2-0.1-0.1,0.1-0.1,0.2
				c0.1,0.1,0.2,0.1,0.2,0.1c0.2-0.1,0.2-0.3,0.2-0.5c-0.1-0.4-0.1-1-0.2-1.5l-0.3-3.1c-0.1-2.1-0.3-4.1-0.4-6.2
				c-0.2-4.1-0.3-8.2-0.3-12.3l0.1-6.2c0-2.1,0.1-4.1,0.2-6.2c0.3-4.1,0.6-8.2,1.2-12.3C425.8,544.3,426.1,548.4,426.1,552.4z"/>
		</g>
		<g>
			<path class="st1" d="M413.4,552.3c0,2.2-0.1,4.3-0.2,6.4l-0.3,6.3c-0.2,4.3-0.6,8.5-1,12.7s-0.9,8.5-1.6,12.7
				c-0.5-4.3-0.7-8.5-0.7-12.8s0.1-8.6,0.4-12.8c0.2-2.2,0.3-4.3,0.5-6.4s0.4-4.2,0.7-6.3c0.6-4.2,1.3-8.4,2.3-12.6
				C413.7,543.8,413.6,548.1,413.4,552.3z"/>
		</g>
		<g>
			<path class="st1" d="M403.3,553.6c-0.1,4-0.5,8.1-0.9,12.1c-0.5,4.1-1.1,8.1-1.8,12.1c-0.8,4-1.7,8-2.8,11.9l-0.1,0.5l-0.3-0.3
				c-0.4-0.5-0.9-1-1.4-1.5c0.6,0.4,1.2,0.7,1.8,1.1l-0.5,0.2c0.2-4,0.5-8.1,0.9-12.1s0.8-8,1.3-12s1-8,1.6-12s1.2-8,2.1-12
				C403.5,545.6,403.5,549.7,403.3,553.6z"/>
		</g>
		<g>
			<path class="st1" d="M388.5,552.5c0,2.3-0.1,4.5-0.1,6.8c-0.1,2.3-0.2,4.5-0.3,6.8c-0.2,4.5-0.6,9-1.1,13.5
				c-0.3,2.2-0.6,4.5-0.9,6.7l-0.6,3.4c-0.1,0.6-0.2,1.1-0.4,1.7c-0.3,0.6-0.6,1.1-1.1,1.4c0.8-0.9,0.7-2,0.7-3.1l-0.1-3.4
				c0-2.3,0-4.5,0-6.8c0.1-4.5,0.2-9,0.5-13.5l0.4-6.8c0.2-2.3,0.4-4.6,0.6-6.8c0.4-4.5,0.9-9,1.7-13.5
				C388.3,543.4,388.4,547.9,388.5,552.5z"/>
		</g>
		<g>
			<path class="st1" d="M377.5,554c-0.1,2.3-0.3,4.6-0.4,6.9l-0.6,6.9l-0.8,6.9c-0.3,2.3-0.5,4.6-0.9,6.9c-0.3,2.3-0.7,4.6-1.1,6.9
				l-0.7,3.4l-0.2,0.9c0,0.3-0.1,0.6-0.3,0.9c-0.1,0.2-0.2,0.3-0.4,0.4c-0.2,0-0.5,0-0.6-0.1c-0.2-0.1-0.3-0.2-0.3-0.4
				c-0.1-0.2,0-0.4,0.2-0.4c-0.3,0.2,0,0.5,0.2,0.6c0.2,0.1,0.3-0.1,0.4-0.3c0.2-0.4,0.1-1,0.1-1.6v-3.5c0-2.3,0.1-4.6,0.2-6.9
				c0.1-2.3,0.3-4.6,0.4-6.9l0.6-6.9l0.8-6.9c0.3-2.3,0.5-4.6,0.9-6.9c0.7-4.6,1.4-9.2,2.5-13.7C377.6,544.9,377.5,549.5,377.5,554z
				"/>
		</g>
		<g>
			<path class="st1" d="M365.5,554.5c-0.4,4.5-0.9,9-1.4,13.4c-0.5,4.4-1.2,8.9-1.9,13.3s-1.6,8.8-2.6,13.2l-0.3,1.1l-0.3-1
				c-0.3-0.9-0.5-1.7-0.8-2.6c0.5,0.8,1,1.5,1.4,2.3l-0.6,0.1c0.1-4.6,0.4-9,0.8-13.5s0.9-9,1.5-13.4c0.6-4.5,1.3-8.9,2.1-13.3
				s1.6-8.8,2.8-13.2C366.2,545.4,365.9,549.9,365.5,554.5z"/>
		</g>
		<g>
			<path class="st1" d="M352.7,555.1c-0.4,4.8-0.8,9.5-1.3,14.2l-0.7,7.1l-0.8,7.1c-0.6,4.8-1.2,9.5-1.9,14.2l-0.1,0.6l-0.3-0.5
				l-1-1.5l1.3,1.2l-0.4,0.1c-0.3-4.7-0.3-9.5-0.1-14.3c0.1-2.3,0.2-4.7,0.4-7.1c0.2-2.3,0.3-4.7,0.6-7.1c0.5-4.8,1.1-9.5,2-14.2
				c0.9-4.7,1.9-9.4,3.2-14C353.5,545.7,353.1,550.5,352.7,555.1z"/>
		</g>
		<g>
			<path class="st1" d="M338.1,555c-0.1,2.3-0.3,4.6-0.4,6.9c-0.2,2.3-0.5,4.6-0.7,6.9c-0.3,2.3-0.6,4.6-1,6.9
				c-0.5,2.3-0.9,4.6-1.4,6.8c-1.1,4.5-2.4,8.9-4.2,13.2l1.9-13.6l0.9-6.8c0.3-2.3,0.6-4.5,0.8-6.8l0.8-6.8c0.3-2.3,0.6-4.5,0.9-6.8
				c0.6-4.5,1.3-9.1,2.2-13.6C338.2,546,338.2,550.6,338.1,555z"/>
		</g>
		<g>
			<path class="st1" d="M323,547.7c-0.1,2.3-0.2,4.6-0.3,6.9c-0.1,2.3-0.3,4.6-0.5,6.9l-0.6,6.9l-0.8,6.9c-0.4,2.3-0.6,4.6-1,6.9
				c-0.7,4.5-1.5,9.1-2.6,13.6c-0.1-4.7,0-9.3,0.3-13.9c0.1-2.3,0.3-4.6,0.5-6.9l0.6-6.9l0.8-6.9c0.3-2.3,0.6-4.6,1-6.9
				c0.3-2.3,0.7-4.5,1.1-6.8c0.4-2.2,0.7-4.5,0.6-6.8C322.8,543,322.9,545.4,323,547.7z"/>
		</g>
		<g>
			<path class="st1" d="M307.1,555c0.1,2.2,0.1,4.5,0.1,6.7l-0.1,6.7c-0.1,4.5-0.4,8.9-0.7,13.4c-0.3,4.4-0.8,8.9-1.5,13.3
				c-0.5-4.5-0.7-8.9-0.8-13.4s-0.1-8.9,0-13.4l0.3-6.7c0.1-2.2,0.2-4.5,0.4-6.7c0.3-4.5,0.8-8.9,1.5-13.4
				C306.8,546,307,550.5,307.1,555z"/>
		</g>
		<g>
			<path class="st1" d="M295.4,553.7c0.2,2.4,0.2,4.7,0.3,7.1l0.1,7.1l-0.1,7.1c0,2.4-0.1,4.7-0.2,7.1c-0.2,4.7-0.6,9.5-1.2,14.2
				c-0.7-4.7-1-9.5-1.2-14.2c-0.1-2.4-0.1-4.7-0.2-7.1l-0.1-7.1l0.1-7.1c0.1-2.4,0.2-4.7,0.3-7.1c0.3-4.7,0.6-9.5,1.2-14.2
				C295,544.2,295.3,549,295.4,553.7z"/>
		</g>
		<g>
			<path class="st1" d="M522.1,578.1c-1,1-2.1,2-3.2,3c-1.1,0.9-2.2,1.9-3.4,2.8c-1.2,0.9-2.5,1.8-3.9,2.6c0.5-1.6,1.3-2.9,2.2-4.2
				c0.9-1.2,1.9-2.4,3.1-3.4c1.2-1,2.4-1.9,3.8-2.7c1.3-0.7,2.8-1.3,4.4-1.6C524.1,575.9,523.1,577,522.1,578.1z"/>
		</g>
		<g>
			<path class="st1" d="M511.3,577.5c-1.1,1.1-2.2,2.1-3.4,3.1c-1.1,1-2.3,1.9-3.6,2.8c-1.3,0.9-2.6,1.8-4.1,2.5
				c0.6-1.6,1.5-2.9,2.5-4.2c1-1.2,2.1-2.4,3.3-3.4c1.2-1,2.5-1.9,3.9-2.7c1.4-0.7,2.9-1.4,4.5-1.7
				C513.4,575.3,512.3,576.4,511.3,577.5z"/>
		</g>
		<g>
			<path class="st1" d="M493,579.9c-1.3,1.4-2.8,2.8-4.2,4.1c-1.5,1.3-3,2.6-4.5,3.8c-1.6,1.2-3.1,2.4-4.9,3.5
				c0.8-1.9,2-3.6,3.2-5.2c1.2-1.6,2.6-3.1,4.1-4.4c1.5-1.4,3.1-2.6,4.8-3.7c1.7-1.1,3.5-2.1,5.5-2.7
				C495.8,577,494.4,578.4,493,579.9z"/>
		</g>
		<g>
			<path class="st1" d="M477.1,580.6c-0.8,0.9-1.6,1.7-2.4,2.5c-0.8,0.8-1.7,1.6-2.6,2.3c-0.9,0.8-1.9,1.5-3.1,2.1
				c0.2-1.3,0.7-2.5,1.3-3.6c0.6-1.1,1.4-2,2.3-2.9s1.9-1.6,3-2.2c1.2-0.5,2.4-1,3.7-1.1C478.6,578.8,477.8,579.8,477.1,580.6z"/>
		</g>
		<g>
			<path class="st1" d="M464,579.5c-0.1,0-0.3,0-0.4,0.1c-0.1,0-0.1,0.1-0.1,0.1s0.1,0,0,0.1l-0.3,0.5c-0.4,0.6-0.8,1.2-1.3,1.8
				c-0.9,1.2-1.9,2.2-3,3.2s-2.2,1.9-3.4,2.7s-2.5,1.5-4,2c0.7-1.4,1.5-2.7,2.4-3.8c0.9-1.2,1.9-2.2,3-3.2s2.2-1.9,3.4-2.7
				c0.6-0.4,1.2-0.8,1.9-1.1l0.5-0.3c0,0,0.2-0.2,0.4-0.2c0.1,0,0.3,0,0.4,0c0.2,0,0.4,0.1,0.6,0.3c0.1,0.1,0.2,0.1,0.2,0.3
				c0,0.1,0,0.2-0.1,0.2S464,579.5,464,579.5C464.2,579.4,464,579.4,464,579.5z"/>
		</g>
		<g>
			<path class="st1" d="M448.4,580.7c-0.9,1.3-1.8,2.6-2.9,3.8s-2.2,2.3-3.5,3.3c-1.3,1-2.6,1.9-4.2,2.5c0.7-1.5,1.6-2.8,2.5-4.1
				c1-1.2,2-2.4,3-3.6c1-1.1,2.1-2.2,3.3-3.3c1.2-1.1,2.4-2.1,3.9-3C450.1,577.9,449.3,579.4,448.4,580.7z"/>
		</g>
		<g>
			<path class="st1" d="M437.7,582.5c-0.9,0.9-1.8,1.8-2.7,2.6s-1.9,1.5-3,2.2c-1,0.7-2.2,1.3-3.5,1.8c0.4-1.3,1.1-2.5,1.9-3.5
				c0.8-1,1.7-2,2.7-2.8s2.1-1.6,3.2-2.2c1.1-0.6,2.3-1.2,3.7-1.4C439.4,580.4,438.6,581.4,437.7,582.5z"/>
		</g>
		<g>
			<path class="st1" d="M424.4,583.4c-1,1.3-2.2,2.5-3.5,3.7c-1.3,1.2-2.7,2.3-4.1,3.2c-1.5,1-3,1.8-4.7,2.4c1-1.6,2.1-2.9,3.2-4.2
				c1.2-1.3,2.4-2.5,3.6-3.6c1.2-1.1,2.5-2.2,3.9-3.2c1.3-1,2.8-1.9,4.4-2.7C426.4,580.6,425.4,582,424.4,583.4z"/>
		</g>
		<g>
			<path class="st1" d="M412.9,585.6c-0.9,1.2-1.8,2.2-2.8,3.2s-2.1,1.9-3.2,2.8c-1.1,0.8-2.3,1.6-3.7,2.3c0.5-1.5,1.2-2.8,2-4
				c0.9-1.2,1.8-2.3,2.8-3.3c1-1.1,2.1-2,3.3-2.8s2.5-1.5,4-2C414.6,583.2,413.8,584.3,412.9,585.6z"/>
		</g>
		<g>
			<path class="st1" d="M397.1,581.7c-0.8,0.4-1.4,1-2.1,1.6c-0.6,0.6-1.3,1.3-1.9,2c-0.6,0.8-1.3,1.5-2,2.2c-1.4,1.4-2.8,2.8-4.4,4
				c-1.5,1.3-3.2,2.4-5,3.4c1-1.8,2.2-3.4,3.4-5c1.3-1.5,2.6-3,4-4.4c0.7-0.7,1.5-1.3,2.2-2s1.6-1.4,2.5-1.9s2-1,3.1-1.1
				c0.6-0.1,1.2,0,1.7,0.1c0.5,0.2,1,0.5,1.4,0.8C399,581.3,398.1,581.5,397.1,581.7z"/>
		</g>
		<g>
			<path class="st1" d="M378.4,587.4c-0.7,1-1.6,2-2.5,2.8c-1,0.9-2,1.6-3.1,2.2s-2.3,1.1-3.7,1.3c0.6-1.2,1.4-2.2,2.2-3.1
				c0.8-0.9,1.6-1.8,2.5-2.6s1.8-1.6,2.8-2.3s2-1.4,3.3-1.9C379.6,585.1,379,586.2,378.4,587.4z"/>
		</g>
		<g>
			<path class="st1" d="M364.7,584.8c-0.9,1.2-1.8,2.3-2.9,3.3s-2.2,2-3.4,2.8c-1.2,0.9-2.5,1.6-4,2.2c0.7-1.5,1.5-2.7,2.4-3.9
				c0.9-1.1,1.8-2.2,2.9-3.2s2.2-2,3.4-2.8c1.2-0.9,2.5-1.6,4-2.2C366.5,582.4,365.7,583.7,364.7,584.8z"/>
		</g>
		<g>
			<path class="st1" d="M351.2,589.2c-1,1.1-2.2,2.2-3.4,3.1c-1.2,1-2.5,1.8-3.8,2.6c-1.4,0.7-2.8,1.4-4.4,1.9
				c0.8-1.5,1.8-2.7,2.9-3.8c1-1.1,2.2-2.2,3.4-3.1c1.2-1,2.5-1.8,3.8-2.6c1.4-0.7,2.8-1.4,4.4-1.9
				C353.3,586.8,352.2,588,351.2,589.2z"/>
		</g>
		<g>
			<path class="st1" d="M332.7,589c-1.1,1-2.3,2-3.4,2.9s-2.3,1.8-3.5,2.7c-1.3,0.8-2.5,1.7-4,2.4c0.5-1.5,1.3-2.9,2.3-4.1
				s2.1-2.3,3.3-3.3c1.2-1,2.5-1.8,3.9-2.5s2.9-1.2,4.5-1.4C334.8,587,333.7,588,332.7,589z"/>
		</g>
		<g>
			<path class="st1" d="M317.5,589.1c-1.3,1.1-2.8,2.3-4.2,3.3c-1.5,1.1-3,2.1-4.5,3s-3.1,1.8-4.9,2.5c1-1.6,2.2-3,3.5-4.3
				c1.3-1.3,2.7-2.4,4.2-3.5c1.5-1.1,3.1-2.1,4.7-2.9c1.6-0.8,3.3-1.5,5.2-1.9C320.3,586.7,318.9,588,317.5,589.1z"/>
		</g>
		<g>
			<path class="st1" d="M303.6,590.6c-0.9,1.1-1.8,2-2.8,2.9s-2,1.7-3.2,2.4c-1.2,0.7-2.4,1.4-3.8,1.8c0.6-1.3,1.3-2.4,2.2-3.5
				c0.9-1.1,1.8-2,2.8-2.9s2-1.7,3.2-2.4c1.2-0.7,2.4-1.4,3.8-1.8C305.2,588.4,304.4,589.5,303.6,590.6z"/>
		</g>
		<g>
			<path class="st1" d="M295.2,591.7c-0.5,0.8-1.1,1.5-1.8,2.1c-0.6,0.6-1.4,1.1-2.2,1.6s-1.7,0.8-2.8,1c0.2-1.1,0.7-1.9,1.2-2.7
				s1.1-1.5,1.8-2.1c0.6-0.6,1.4-1.1,2.2-1.6s1.7-0.8,2.8-1C296.1,590.1,295.7,591,295.2,591.7z"/>
		</g>
	</g>
</g>
</svg>
