<?xml version="1.0" encoding="utf-8"?>
<!-- Generator: Adobe Illustrator 22.0.1, SVG Export Plug-In . SVG Version: 6.00 Build 0)  -->
<svg version="1.1" id="圖層_1" xmlns="http://www.w3.org/2000/svg" xmlns:xlink="http://www.w3.org/1999/xlink" x="0px" y="0px"
	 viewBox="0 0 750 700" style="enable-background:new 0 0 750 700;" xml:space="preserve">
<style type="text/css">
	.st0{fill:#B58647;stroke:#534741;stroke-width:3;stroke-miterlimit:10;}
	.st1{fill:#534741;}
</style>
<g>
	<g>
		<path class="st0" d="M0.7,544.6c0,0,60.5,72.6,287.5,65.4s307.3-21.8,355.6-32.4c48.3-10.6,61.7-21.5,64.6-39.7
			c2.9-18.2-5.8-29.1-10.5-31.1c0,0,30.8,0.5,46,47.7c15.1,47.2,4.7,89.8-35.5,111.5c-40.2,21.7-178.1,32.5-268.1,33.2
			S164.8,707.5,84.9,657C4.9,606.6,3.4,548.5,0.7,544.6z"/>
		<g>
			<path class="st1" d="M45.6,590.2c9,5.2,18.4,9.5,27.9,13.4c9.6,3.9,19.3,7.2,29.3,9.9c4.9,1.5,10,2.5,15,3.6l7.6,1.4
				c1.3,0.2,2.5,0.5,3.8,0.7l3.8,0.6c10.1,1.9,20.4,2.8,30.7,4l0,0.3c-2.6,0.1-5.2,0.2-7.8,0.2l-3.9,0.1c-1.3,0-2.6-0.1-3.9-0.2
				c-2.6-0.1-5.2-0.3-7.8-0.5c-2.6-0.2-5.2-0.6-7.8-0.9c-5.2-0.6-10.3-1.8-15.4-2.9l-7.5-2c-2.5-0.6-5-1.4-7.5-2.2
				c-9.9-3-19.7-6.6-29.2-10.9c-9.5-4.2-18.7-9-27.5-14.5L45.6,590.2z"/>
		</g>
		<g>
			<path class="st1" d="M33,606.7c7,4.2,14.5,7.6,22,10.6c7.6,3,15.3,5.5,23.3,7.3c4,0.9,7.9,1.6,12,2.1c4,0.6,8,1,12.1,1.3
				c8.1,0.7,16.1,0.5,24.3-0.1l0.1,0.3c-7.9,2.2-16.3,3.1-24.6,2.8c-8.3-0.2-16.5-1.9-24.4-4c-8-2.1-15.7-4.9-23.3-8.2
				c-7.5-3.4-14.8-7.2-21.6-11.7L33,606.7z"/>
		</g>
		<g>
			<path class="st1" d="M517.2,612.1l65.7-0.6c10.9-0.1,21.9-0.1,32.8-0.3c10.9-0.3,21.8-1.3,32.5-3c10.7-1.8,21.3-4.6,31.3-8.7
				c2.5-1,4.9-2.2,7.4-3.3l3.6-1.9c1.2-0.6,2.4-1.3,3.5-2l3.4-2.1c1.2-0.7,2.2-1.6,3.3-2.3c2.2-1.5,4.2-3.3,6.3-5.1
				c16.2-14.1,24.9-36.2,23.5-58l0.3,0c1.7,10.9,0.3,22.2-3.4,32.6c-1.8,5.2-4.4,10.2-7.5,14.9c-3.1,4.6-6.8,8.9-10.8,12.7
				c-2.1,1.8-4.2,3.7-6.5,5.3c-1.1,0.8-2.2,1.7-3.4,2.4l-3.5,2.2c-1.2,0.8-2.4,1.4-3.6,2l-3.7,1.9c-2.5,1.1-5.1,2.3-7.6,3.3
				c-10.3,4-21.1,6.7-32,8.3c-10.9,1.6-21.9,2.4-32.9,2.6c-11,0-21.9-0.1-32.8-0.2l-65.7-0.6V612.1z"/>
		</g>
		<g>
			<path class="st1" d="M590.3,626.1l50.6-0.6l12.6-0.1l3.2,0l3.1-0.2l3.1-0.2l1.6-0.1l1.6-0.2c8.3-0.9,16.5-2.8,24.2-5.9
				c15.5-6.2,28-18.4,35.1-33.3c0.5-0.9,0.9-1.9,1.3-2.8c0.4-1,0.9-1.9,1.2-2.8c0.7-1.9,1.5-3.9,2.1-5.9c0.7-2,1.2-4,1.8-6
				c0.5-2,1-4,1.4-6.1c0.8-4.1,1.4-8.2,1.7-12.4c0.4-4.2,0.5-8.4,0.4-12.6l0.3,0c1.1,8.4,0.8,17-0.4,25.4c-0.6,4.2-1.5,8.4-2.7,12.5
				c-0.6,2.1-1.3,4.1-2,6.1c-0.4,1-0.8,2-1.2,3c-0.4,1-0.8,2-1.3,2.9l-1.4,2.9l-1.6,2.8l-0.8,1.4l-0.9,1.3l-1.8,2.7
				c-0.6,0.9-1.3,1.7-2,2.5l-1,1.3c-0.3,0.4-0.7,0.8-1.1,1.2l-2.2,2.4c-0.7,0.8-1.6,1.5-2.3,2.2c-6.3,5.8-13.8,10.4-21.8,13.4
				c-8,3.1-16.4,4.9-24.9,5.6l-1.6,0.2l-1.6,0.1l-3.2,0.1l-3.2,0.1l-3.2,0l-12.6-0.1l-50.6-0.6V626.1z"/>
		</g>
		<g>
			<path class="st1" d="M625.2,592.7c8.1-0.5,16.2-1.6,24.2-3.3c8-1.6,15.8-3.8,23.3-6.9c3.7-1.5,7.4-3.3,10.8-5.3
				c3.5-2,6.8-4.3,9.9-6.7l1.2-0.9c0.4-0.3,0.7-0.7,1.1-1c0.7-0.7,1.5-1.3,2.2-2l2.1-2.1l1.9-2.3c2.4-3.1,4.6-6.6,6.3-10.3l0.3,0.1
				c-0.9,4-2.6,7.9-4.8,11.4c-2.2,3.6-5.1,6.7-8.2,9.5c-1.6,1.4-3.3,2.6-5,3.8l-2.7,1.7c-0.9,0.5-1.8,1-2.7,1.5
				c-3.7,1.9-7.5,3.6-11.4,5c-7.8,2.8-15.8,4.8-23.9,6.1c-8.1,1.3-16.3,2-24.5,2.1L625.2,592.7z"/>
		</g>
	</g>
	<g>
		<g>
			<path class="st1" d="M13.4,563.4c5.3,2.4,10.5,5.1,15.6,7.7c2.6,1.3,5.1,2.7,7.7,4l7.7,4.1l7.6,4.1c2.5,1.4,5.1,2.7,7.6,4.2
				c5.1,2.8,10.1,5.6,15.1,8.7c-5.5-1.9-10.9-4.2-16.1-6.6c-2.7-1.2-5.2-2.5-7.9-3.7c-2.6-1.3-5.2-2.6-7.7-4
				c-2.5-1.4-5.1-2.8-7.6-4.2c-2.5-1.5-5-2.9-7.5-4.5C23,570.1,18.1,566.9,13.4,563.4z"/>
		</g>
		<g>
			<path class="st1" d="M11.6,571.7c4.6,2.8,9.2,5.6,13.9,8.2c1.2,0.6,2.4,1.2,3.5,1.9l3.6,1.8c1.2,0.6,2.4,1.2,3.6,1.8l3.6,1.7
				l3.6,1.6l3.7,1.5l3.7,1.5c1.3,0.4,2.5,0.9,3.8,1.4c5,1.8,10.1,3.5,15.3,5.1c-5.4-0.4-10.8-1.4-16-2.9c-1.3-0.4-2.6-0.8-3.9-1.2
				l-3.9-1.3l-3.8-1.5l-3.8-1.6l-3.7-1.8c-1.2-0.6-2.4-1.2-3.6-1.9l-3.5-2c-1.2-0.7-2.3-1.4-3.4-2.2
				C19.8,578.8,15.5,575.5,11.6,571.7z"/>
		</g>
		<g>
			<path class="st1" d="M23.5,586.5c5.9,2.5,11.6,5.2,17.4,7.9l8.6,4c1.4,0.6,2.9,1.3,4.3,2l4.3,2c2.9,1.3,5.8,2.6,8.7,3.9l8.7,3.9
				c5.8,2.6,11.6,5.2,17.4,7.9c-6.2-1.6-12.3-3.5-18.3-5.7c-3-1.1-6-2.3-8.9-3.5c-2.9-1.2-5.9-2.5-8.8-3.8c-2.9-1.3-5.8-2.7-8.6-4.1
				c-2.8-1.5-5.7-2.9-8.5-4.4C34.3,593.4,28.8,590.1,23.5,586.5z"/>
		</g>
		<g>
			<path class="st1" d="M51.1,604.9c5.4,3.8,10.9,7.2,16.7,10.1c1.5,0.7,2.9,1.4,4.4,2.1l4.4,2c1.5,0.6,3,1.2,4.5,1.8l4.6,1.6
				l4.6,1.5l4.7,1.3l4.7,1.1c1.6,0.3,3.2,0.6,4.8,0.9c6.4,1.1,12.9,1.7,19.4,1.9c-6.5,1-13.2,1.1-19.8,0.4c-1.6-0.2-3.3-0.4-4.9-0.6
				l-4.9-0.9l-4.8-1.2l-4.8-1.4l-4.7-1.7c-1.5-0.6-3.1-1.3-4.6-1.9l-4.5-2.2c-1.5-0.8-2.9-1.6-4.3-2.4
				C61,613.7,55.7,609.6,51.1,604.9z"/>
		</g>
		<g>
			<path class="st1" d="M39.3,618.8c8.4,4,16.8,8.1,25.2,12c2.1,1,4.2,1.9,6.3,2.9l6.4,2.8l6.4,2.7l6.5,2.5l6.5,2.4l6.6,2.2l6.6,2
				l6.7,1.8c9,2.2,18.1,3.8,27.4,4.7c-9.3,0.3-18.7-0.6-27.9-2.4c-2.3-0.5-4.6-1-6.9-1.5l-6.8-1.8l-6.7-2.1l-6.6-2.4l-6.5-2.6
				c-2.1-0.9-4.3-1.8-6.4-2.8l-6.3-3c-2.1-1-4.2-2.1-6.3-3.2C55.2,628.6,47.2,623.9,39.3,618.8z"/>
		</g>
		<g>
			<path class="st1" d="M64.8,636.1c8.1,4.2,16.3,8,24.7,11.3c2.1,0.8,4.2,1.6,6.3,2.4l6.4,2.2l6.5,2l6.5,1.8l6.6,1.6l6.6,1.4
				l6.7,1.2c2.2,0.3,4.5,0.6,6.7,1c9,1.1,18,1.7,27.1,1.9c-9,1.1-18.2,1.1-27.3,0.4c-2.3-0.2-4.6-0.4-6.8-0.7l-6.8-1l-6.7-1.3
				l-6.7-1.5l-6.6-1.9l-6.5-2.1l-6.4-2.4c-2.1-0.9-4.2-1.8-6.3-2.7C80.3,645.8,72.3,641.4,64.8,636.1z"/>
		</g>
		<g>
			<path class="st1" d="M76,647.5c8.5,3.5,17,6.8,25.6,9.8c2.2,0.7,4.3,1.4,6.5,2.2l6.5,2.1l6.5,2l6.6,1.8l6.6,1.7l6.6,1.6l6.7,1.4
				c2.2,0.4,4.5,0.9,6.7,1.3c9,1.7,18,3,27.1,4.2c-9.2,0.1-18.3-0.6-27.5-1.9c-2.3-0.3-4.5-0.7-6.8-1l-6.8-1.3l-6.7-1.5l-6.7-1.7
				l-6.6-1.9l-6.6-2.1l-6.5-2.3c-2.2-0.8-4.3-1.6-6.4-2.5C92.2,656.1,83.9,652.2,76,647.5z"/>
		</g>
		<g>
			<path class="st1" d="M147.1,630.3c7.5,1.7,14.9,3.4,22.4,4.9c1.9,0.3,3.8,0.7,5.6,1.1l5.6,1l5.6,0.9l5.7,0.8l5.7,0.8l5.7,0.7
				l5.7,0.6c1.9,0.2,3.8,0.3,5.7,0.5c7.6,0.7,15.2,1.1,22.9,1.5c-7.6,0.8-15.3,1-23,0.8c-1.9-0.1-3.8-0.1-5.8-0.2l-5.8-0.4l-5.7-0.6
				l-5.7-0.7l-5.7-0.9l-5.7-1l-5.6-1.2c-1.9-0.4-3.7-0.9-5.6-1.4C161.5,635.5,154.2,633.2,147.1,630.3z"/>
		</g>
		<g>
			<path class="st1" d="M140.5,633.2c8.3,0.9,16.4,3.3,24.3,5.7c7.9,2.4,15.8,4.8,23.8,6.6c4,0.9,8,1.8,12.1,2.5
				c4,0.7,8.1,1.3,12.2,1.9c8.2,1.1,16.4,1.7,24.7,2.2c-8.3,0.8-16.6,0.8-25,0.2c-4.2-0.3-8.3-0.8-12.4-1.4
				c-4.1-0.6-8.2-1.4-12.3-2.3c-4.1-0.9-8.1-2-12.1-3.2c-4-1.2-7.9-2.6-11.8-4C156.3,638.2,148.6,635.3,140.5,633.2z"/>
		</g>
		<g>
			<path class="st1" d="M132.9,640.3c9.2,3.1,18.4,6.1,27.8,8.7c2.3,0.6,4.7,1.2,7,1.9l7,1.7l7.1,1.6l7.1,1.5l7.1,1.3l7.2,1.2
				l7.2,1.1c2.4,0.3,4.8,0.6,7.2,0.9c9.6,1.1,19.3,1.9,29,2.5c-9.7,0.7-19.5,0.5-29.2-0.2c-2.4-0.2-4.9-0.4-7.3-0.6l-7.3-0.9
				l-7.2-1.1l-7.2-1.3l-7.2-1.5l-7.1-1.7l-7.1-2c-2.3-0.7-4.7-1.4-7-2.2C150.7,648.2,141.7,644.6,132.9,640.3z"/>
		</g>
		<g>
			<path class="st1" d="M152.6,655.3c8.3,2.2,16.5,4.4,24.8,6.4c2.1,0.5,4.2,0.9,6.2,1.4l6.2,1.3l6.3,1.3l6.3,1.2l6.3,1.1l6.3,1
				l6.3,0.9c2.1,0.3,4.2,0.5,6.3,0.8c8.5,1.1,16.9,1.9,25.5,2.7c-8.6,0.4-17.1,0.2-25.7-0.4c-2.1-0.2-4.3-0.4-6.4-0.6l-6.4-0.7
				l-6.4-0.9l-6.4-1.1l-6.3-1.2l-6.3-1.4l-6.2-1.6c-2.1-0.6-4.1-1.1-6.2-1.7C168.5,661.6,160.4,658.8,152.6,655.3z"/>
		</g>
		<g>
			<path class="st1" d="M164.8,670c7.2,1.2,14.4,2.5,21.6,3.8l10.8,1.8l5.4,0.9l5.4,0.8l5.4,0.8l5.4,0.8l10.8,1.6
				c7.2,1,14.5,2,21.7,3c-7.3,0.2-14.7-0.1-22-0.7c-3.7-0.3-7.3-0.7-10.9-1.1c-3.6-0.4-7.3-1-10.9-1.5c-3.6-0.6-7.2-1.2-10.8-1.9
				c-3.6-0.7-7.2-1.5-10.7-2.3C178.8,674.3,171.8,672.4,164.8,670z"/>
		</g>
		<g>
			<path class="st1" d="M154.8,674.1c8.5,1.8,17,3.6,25.4,5.3c2.1,0.4,4.2,0.8,6.4,1.2l6.4,1.2l6.4,1.1l6.4,1l6.4,1l6.4,0.9l6.4,0.9
				c2.1,0.3,4.3,0.5,6.4,0.8c8.6,1.1,17.2,2,25.8,3c-8.7,0.3-17.4,0-26-0.7c-2.2-0.2-4.3-0.4-6.5-0.6l-6.5-0.7l-6.5-0.8l-6.5-1
				l-6.4-1.1l-6.4-1.2l-6.4-1.4c-2.1-0.5-4.2-1-6.3-1.5C171.3,679.5,163,677.1,154.8,674.1z"/>
		</g>
		<g>
			<path class="st1" d="M232.4,643.8c6.8,1.4,13.5,2.6,20.3,3.6c1.7,0.2,3.4,0.4,5.1,0.7l5.1,0.6l5.1,0.5l5.1,0.4l5.1,0.3l5.1,0.2
				l5.1,0.1c1.7,0,3.4,0,5.1,0c6.8,0,13.7-0.3,20.6-0.7c-6.7,1.6-13.6,2.6-20.5,3.1c-1.7,0.1-3.5,0.2-5.2,0.3l-5.2,0.1l-5.2-0.1
				l-5.2-0.3l-5.2-0.5l-5.2-0.6l-5.1-0.8c-1.7-0.3-3.4-0.7-5.1-1C245.5,648.3,238.8,646.4,232.4,643.8z"/>
		</g>
		<g>
			<path class="st1" d="M241.2,655.2l24.1,2.2l12.1,1l6,0.5l6,0.4l6,0.4l6,0.4l12.1,0.6l24.2,1.1c-8.1,0.8-16.2,1.2-24.3,1.2
				c-4.1,0-8.1-0.1-12.2-0.2c-4.1-0.1-8.1-0.4-12.1-0.6c-4-0.3-8.1-0.6-12.1-1.1c-4-0.5-8.1-0.9-12.1-1.5
				C257,658.6,249,657.1,241.2,655.2z"/>
		</g>
		<g>
			<path class="st1" d="M238.2,665.5c8.7-0.1,17.4,0.7,26.1,1.6c4.3,0.4,8.6,1,13,1.5l6.5,0.8l6.5,0.7l6.5,0.6l6.5,0.5l6.5,0.4
				l6.5,0.1c8.6,0,17.3-0.6,25.9-2.1c-8.3,2.7-17.1,4-25.8,4.4c-2.2,0.1-4.4,0.1-6.6,0.1L303,674l-6.6-0.4l-6.5-0.6
				c-4.3-0.5-8.7-1-13-1.6c-4.3-0.6-8.6-1.3-12.9-2C255.4,668.1,246.9,666.7,238.2,665.5z"/>
		</g>
		<g>
			<path class="st1" d="M249.1,676.7c7.8,1.3,15.6,2.5,23.4,3.4c2,0.2,3.9,0.4,5.9,0.6l5.9,0.5l5.9,0.4l5.9,0.3l5.9,0.2l5.9,0.1
				l5.9,0c2,0,3.9-0.1,5.9-0.1c7.9-0.2,15.7-0.6,23.6-1.1c-7.7,1.8-15.6,2.9-23.5,3.5c-2,0.1-4,0.3-5.9,0.4l-6,0.2l-6,0l-6-0.2
				l-5.9-0.4l-5.9-0.5l-5.9-0.7c-2-0.3-3.9-0.6-5.9-0.9C264.3,681,256.6,679.2,249.1,676.7z"/>
		</g>
		<g>
			<path class="st1" d="M254.3,684.4c8.4,0.4,16.8,1.4,25.2,2.5l12.5,1.7l6.2,0.8l6.2,0.7l6.2,0.7l6.2,0.5c2.1,0.1,4.2,0.2,6.2,0.3
				l6.3,0.1c8.3,0,16.7-0.7,25-2.4c-8,2.8-16.4,4.3-24.9,4.7c-2.1,0.1-4.2,0.2-6.4,0.2c-2.1,0-4.2-0.1-6.4-0.1
				c-2.1-0.1-4.2-0.2-6.3-0.4l-6.3-0.6l-6.3-0.8c-2.1-0.3-4.2-0.6-6.3-0.9c-4.2-0.7-8.3-1.4-12.4-2.2
				C270.8,687.6,262.5,686,254.3,684.4z"/>
		</g>
		<g>
			<path class="st1" d="M253.2,690.7c6.9,1.2,13.7,2.4,20.6,3.4c1.7,0.2,3.4,0.4,5.2,0.7l5.2,0.6l5.2,0.5l5.2,0.4l5.2,0.3l5.2,0.2
				l5.2,0.2c1.7,0,3.5,0,5.2,0.1c6.9,0,13.9-0.2,20.9-0.4c-6.8,1.5-13.8,2.4-20.8,2.8c-1.8,0.1-3.5,0.2-5.3,0.2l-5.3,0.1l-5.3-0.1
				l-5.3-0.3l-5.2-0.5l-5.2-0.6l-5.2-0.8c-1.7-0.3-3.5-0.6-5.2-1C266.5,694.9,259.7,693.1,253.2,690.7z"/>
		</g>
		<g>
			<path class="st1" d="M734,545.2c-0.4,6-1.7,12-3.7,17.7c-0.5,1.4-1.1,2.8-1.6,4.2l-1.9,4.1c-0.7,1.3-1.4,2.7-2.2,4l-2.4,3.9
				l-2.6,3.7l-2.8,3.6l-3,3.4c-1.1,1.1-2.1,2.2-3.2,3.2c-4.4,4.1-9.4,7.7-14.7,10.5c4.7-3.8,9.1-7.8,13.1-12.1
				c1-1.1,1.9-2.2,2.9-3.3l2.8-3.4l2.6-3.5l2.5-3.6l2.3-3.7c0.7-1.3,1.4-2.6,2.2-3.8l2-3.9c0.6-1.3,1.2-2.7,1.9-4
				C730.5,556.6,732.4,551,734,545.2z"/>
		</g>
		<g>
			<path class="st1" d="M738.5,554.1c-0.1,5.5-1.2,11-2.9,16.3c-0.5,1.3-0.9,2.6-1.4,3.9l-1.7,3.8c-0.6,1.2-1.3,2.5-1.9,3.7
				l-2.1,3.6l-2.4,3.4l-2.5,3.3l-2.8,3.1c-1,1-1.9,2-2.9,2.9c-4,3.8-8.6,7.1-13.5,9.5c4.2-3.5,8.2-7.2,11.8-11.2c0.9-1,1.7-2,2.6-3
				l2.5-3.2l2.4-3.2l2.2-3.4l2.1-3.4c0.6-1.2,1.3-2.4,1.9-3.5l1.8-3.6c0.5-1.2,1.1-2.5,1.6-3.7C735.5,564.6,737.1,559.4,738.5,554.1
				z"/>
		</g>
		<g>
			<path class="st1" d="M741.8,565.5c-0.7,5.2-2.2,10.4-4.4,15.2c-0.6,1.2-1.2,2.4-1.8,3.6l-2,3.5c-0.7,1.1-1.5,2.2-2.2,3.3
				l-2.4,3.2l-2.6,3l-2.8,2.9l-3,2.7c-1,0.8-2.1,1.7-3.1,2.5c-4.3,3.2-9,5.8-13.9,7.6c4.4-2.9,8.6-6,12.5-9.4
				c0.9-0.9,1.9-1.8,2.8-2.6l2.7-2.7l2.6-2.8l2.5-3l2.4-3c0.7-1,1.5-2.1,2.2-3.2l2.1-3.2c0.6-1.1,1.3-2.2,2-3.3
				C737.8,575.1,739.9,570.4,741.8,565.5z"/>
		</g>
		<g>
			<path class="st1" d="M743.8,575.5c-1.6,6.8-4.2,13.4-7.4,19.6c-0.8,1.5-1.7,3.1-2.6,4.6l-2.8,4.5c-1,1.4-2,2.9-3.1,4.3l-3.3,4.2
				l-3.5,4l-3.7,3.8l-3.9,3.6c-1.3,1.1-2.7,2.2-4.1,3.4c-5.6,4.3-11.6,8-18,10.8c5.8-3.9,11.3-8.1,16.5-12.6
				c1.3-1.2,2.5-2.3,3.8-3.5l3.7-3.6l3.5-3.8l3.4-3.9l3.2-4c1-1.4,2-2.8,3.1-4.1l2.9-4.3c0.9-1.5,1.8-2.9,2.8-4.4
				C737.9,588.1,741.1,581.9,743.8,575.5z"/>
		</g>
		<g>
			<path class="st1" d="M746.1,589.4c-2.7,6.5-6.3,12.6-10.4,18.3c-1.1,1.4-2.1,2.8-3.2,4.2l-3.4,4.1l-3.6,3.9l-3.8,3.7l-4,3.5
				l-4.2,3.3l-4.3,3.1c-1.5,1-3,1.9-4.5,2.9c-6,3.7-12.5,6.7-19.1,8.9c6.2-3.3,12.2-6.9,17.9-10.8c1.4-1,2.8-2,4.2-3l4.1-3.2l4-3.3
				l3.9-3.5l3.8-3.6c1.2-1.2,2.4-2.5,3.6-3.7l3.5-3.8c1.1-1.3,2.2-2.6,3.4-4C738.3,601,742.3,595.3,746.1,589.4z"/>
		</g>
		<g>
			<path class="st1" d="M742.8,606.3c-2.3,6.8-5.9,13.3-10.2,19.1c-1.1,1.4-2.2,2.9-3.4,4.3c-1.2,1.4-2.4,2.7-3.6,4.1
				c-1.3,1.3-2.5,2.6-3.8,3.9c-1.3,1.2-2.7,2.5-4,3.7c-1.4,1.2-2.8,2.3-4.2,3.5c-1.4,1.1-2.9,2.2-4.3,3.3l-4.5,3.1
				c-1.5,1-3,2-4.6,2.9c-6.2,3.7-12.6,7-19.3,9.8c6.1-3.9,12.1-7.7,18-11.8c1.5-1,2.9-2.1,4.4-3.1l4.3-3.2l4.2-3.3l4.1-3.4
				c1.3-1.2,2.6-2.4,4-3.5l3.8-3.7c1.2-1.3,2.4-2.6,3.7-3.8l3.5-4C735.4,618.5,739.4,612.6,742.8,606.3z"/>
		</g>
		<g>
			<path class="st1" d="M740.1,621.9c-3.1,6.8-7.3,13.1-12.3,18.7c-2.5,2.8-5.2,5.4-8.1,7.9c-2.9,2.4-6,4.6-9.1,6.7
				c-6.4,4.1-13.1,7.4-20,10.3c-6.9,2.9-14,5.3-21.1,7.4c6.7-3.3,13.5-6.3,20.2-9.5c3.3-1.6,6.6-3.2,9.9-5c3.2-1.8,6.4-3.6,9.5-5.6
				c6.2-3.9,11.9-8.5,17.1-13.7C731.4,633.8,736,628,740.1,621.9z"/>
		</g>
		<g>
			<path class="st1" d="M693.3,608.7c-7.7,2.4-15.5,4.2-23.4,5.8c-2,0.4-3.9,0.8-5.9,1.1l-6,1l-6,0.8l-6,0.7l-6,0.6l-6,0.5
				c-4,0.2-8,0.5-12,0.6c-8,0.2-16.1,0.1-24.1-0.5l24-1.8c2-0.2,4-0.4,6-0.5l6-0.6l6-0.6l6-0.7l6-0.7l5.9-0.7l5.9-0.8
				c2-0.3,4-0.5,5.9-0.8C677.5,611,685.4,609.8,693.3,608.7z"/>
		</g>
		<g>
			<path class="st1" d="M686.7,613.7c-5.8,3.2-12.1,5.8-18.5,7.8c-1.6,0.5-3.2,0.9-4.8,1.4l-4.9,1.2c-1.6,0.3-3.3,0.6-5,0.9l-5,0.7
				l-5,0.5l-5,0.3l-5,0.1c-1.7,0-3.4-0.1-5-0.1c-6.7-0.3-13.4-1.3-19.8-3c6.7,0.5,13.3,0.7,19.9,0.7c1.6-0.1,3.3-0.1,4.9-0.1
				l4.9-0.3l4.9-0.4l4.9-0.6l4.9-0.7c1.6-0.3,3.2-0.6,4.9-0.8l4.9-0.9c1.6-0.4,3.2-0.7,4.8-1.1C674,617.7,680.4,615.8,686.7,613.7z"
				/>
		</g>
		<g>
			<path class="st1" d="M613.9,636c7-0.6,14.1-0.9,21.1-1.3c1.8-0.1,3.5-0.3,5.3-0.3l5.2-0.4l5.2-0.5l5.2-0.6l5.2-0.7l5.2-0.9l5.1-1
				l5.1-1.2c6.8-1.7,13.4-4.1,19.8-7c-5.8,4-12.4,7-19.1,9.2c-1.7,0.5-3.4,1.1-5.1,1.5c-1.7,0.4-3.5,0.9-5.2,1.2
				c-1.7,0.3-3.5,0.7-5.2,1c-1.8,0.3-3.5,0.5-5.3,0.8l-5.3,0.5c-1.8,0.1-3.5,0.3-5.3,0.4l-5.3,0.2c-1.8,0-3.5,0.1-5.3,0.1
				C628,637.1,620.9,636.7,613.9,636z"/>
		</g>
		<g>
			<path class="st1" d="M607.3,647.9c8.5-0.7,17-0.8,25.4-1.4c4.2-0.4,8.4-0.8,12.5-1.5c4.2-0.6,8.3-1.4,12.4-2.4
				c8.2-1.9,16.2-4.4,24-7.5c7.8-3,15.4-6.8,22.9-10.8c-6.8,5.1-14.2,9.5-22,13c-3.9,1.8-7.9,3.3-11.9,4.7
				c-4.1,1.3-8.2,2.5-12.3,3.5c-8.3,1.9-16.9,3-25.4,3.2C624.2,649,615.8,648.4,607.3,647.9z"/>
		</g>
		<g>
			<path class="st1" d="M623.4,655.5c6.5-0.4,12.8-1.2,19-2.4l4.7-1l4.6-1.2l4.6-1.3l4.6-1.4l4.5-1.5l4.5-1.6l4.5-1.6
				c1.5-0.6,3-1.1,4.5-1.7c6-2.3,12-4.6,18.1-6.8c-5.6,3.2-11.3,6.2-17.2,8.9c-2.9,1.4-5.9,2.6-8.9,3.8c-1.5,0.6-3,1.1-4.5,1.7
				l-4.6,1.6l-4.7,1.4c-1.6,0.4-3.1,0.8-4.7,1.2l-4.8,1c-1.6,0.3-3.2,0.5-4.8,0.8C636.4,656.2,629.8,656.3,623.4,655.5z"/>
		</g>
		<g>
			<path class="st1" d="M602,659.7c7.4,0.2,14.8-0.1,22.1-1l5.5-0.7l5.4-0.9l5.4-1l5.4-1.2l5.4-1.3l5.3-1.4l5.3-1.4
				c1.8-0.5,3.5-1,5.3-1.5c7.1-2,14.2-4.2,21.4-6c-6.8,3-13.7,5.8-20.7,8.2c-3.5,1.3-7.1,2.3-10.6,3.4c-1.8,0.5-3.6,1-5.4,1.5
				l-5.4,1.4l-5.5,1.1c-1.8,0.3-3.7,0.7-5.5,1l-5.6,0.7c-1.9,0.2-3.7,0.3-5.6,0.5C616.8,661.5,609.3,661.2,602,659.7z"/>
		</g>
		<g>
			<path class="st1" d="M629.9,665c4.6-0.5,9.1-1.1,13.6-1.9c1.1-0.2,2.2-0.5,3.3-0.7l3.3-0.8c1.1-0.3,2.2-0.5,3.3-0.8l3.3-0.9
				l3.3-0.9l3.3-1l3.3-1c1.1-0.4,2.2-0.7,3.3-1c4.4-1.3,8.8-2.7,13.3-3.7c-4.1,2.2-8.3,4.2-12.5,5.9c-2.1,0.9-4.3,1.7-6.5,2.5
				c-2.2,0.7-4.4,1.4-6.7,2.1l-3.4,0.8c-1.1,0.3-2.3,0.5-3.4,0.7l-3.4,0.6c-1.2,0.2-2.3,0.3-3.5,0.4
				C639.2,665.8,634.5,665.8,629.9,665z"/>
		</g>
		<g>
			<path class="st1" d="M610.4,671.5c7-0.4,13.9-0.7,20.8-1.2c1.7-0.2,3.4-0.3,5.2-0.4l5.2-0.5l5.1-0.6l5.1-0.6l5.1-0.7l5.1-0.8
				l5.1-0.8c1.7-0.3,3.4-0.6,5.1-0.9c6.8-1.2,13.6-2.7,20.4-4.1c-6.5,2.6-13.1,4.7-19.9,6.4c-1.7,0.4-3.4,0.8-5.1,1.2l-5.1,1
				l-5.2,0.9l-5.2,0.8l-5.2,0.6l-5.2,0.5l-5.2,0.3c-1.7,0.1-3.5,0.1-5.2,0.1C624.3,672.7,617.3,672.4,610.4,671.5z"/>
		</g>
		<g>
			<path class="st1" d="M602.7,676.4c7.4,0.4,14.8,0.6,22.1,0.4c1.8-0.1,3.7-0.1,5.5-0.2l5.5-0.3l5.5-0.4l5.5-0.6l5.4-0.7l5.4-0.9
				l5.4-1c1.8-0.4,3.6-0.8,5.4-1.1c7.2-1.6,14.3-3.5,21.4-5.6c-6.6,3.3-13.6,5.9-20.8,7.9c-1.8,0.5-3.6,1-5.4,1.4l-5.5,1.2l-5.5,1
				l-5.5,0.8l-5.6,0.5l-5.6,0.4l-5.6,0.1c-1.9,0-3.7-0.1-5.6-0.1C617.4,678.9,610,678.1,602.7,676.4z"/>
		</g>
		<g>
			<path class="st1" d="M535.7,628.1c6.9-0.3,13.8-0.5,20.7-0.9c1.7-0.1,3.4-0.2,5.2-0.3l5.1-0.3l5.1-0.4l5.1-0.4l5.1-0.5l5.1-0.5
				l5.1-0.6c1.7-0.2,3.4-0.4,5.1-0.6c6.8-0.8,13.7-1.8,20.5-2.7c-6.6,2.1-13.4,3.8-20.2,5.1c-1.7,0.3-3.4,0.6-5.1,0.9l-5.1,0.8
				l-5.2,0.6l-5.2,0.5l-5.2,0.4l-5.2,0.3l-5.2,0.1c-1.7,0-3.5,0-5.2,0C549.5,629.5,542.6,629.1,535.7,628.1z"/>
		</g>
		<g>
			<path class="st1" d="M532.7,633.8c7.1,0.9,14.3,1.7,21.4,2.2c1.8,0.1,3.6,0.2,5.3,0.3l5.3,0.2l5.3,0.1l5.3-0.1l5.3-0.2l5.3-0.3
				l5.3-0.4c1.8-0.2,3.5-0.4,5.3-0.6c7.1-0.8,14.2-2,21.2-3.3c-6.8,2.5-13.8,4.3-20.9,5.6c-1.8,0.3-3.6,0.6-5.4,0.9l-5.4,0.7
				l-5.4,0.4l-5.4,0.3l-5.4,0l-5.4-0.1l-5.4-0.4c-1.8-0.2-3.6-0.4-5.4-0.6C546.7,637.4,539.6,636,532.7,633.8z"/>
		</g>
		<g>
			<path class="st1" d="M529.2,644c8.2,0.9,16.5,1.5,24.7,1.7c2.1,0,4.1,0,6.2,0l6.2-0.1l6.1-0.3l6.1-0.5l6.1-0.6l6.1-0.8l6.1-1
				c2-0.4,4-0.8,6.1-1.1c8.1-1.6,16-3.7,24-6.1c-7.5,3.6-15.4,6.3-23.5,8.4c-2,0.5-4,1-6.1,1.4l-6.1,1.2L585,647l-6.2,0.7l-6.2,0.4
				l-6.3,0.2l-6.3-0.1c-2.1-0.1-4.2-0.2-6.2-0.3C545.5,647.4,537.3,646.1,529.2,644z"/>
		</g>
		<g>
			<path class="st1" d="M526.8,656.3c7.4,0.1,14.7,0.1,22-0.1c1.8-0.1,3.7-0.2,5.5-0.2l5.5-0.3l5.5-0.4l5.4-0.5l5.4-0.6l5.4-0.7
				l5.4-0.8c1.8-0.3,3.6-0.6,5.4-0.9c7.2-1.3,14.4-2.8,21.5-4.5c-6.8,2.8-13.9,5-21.1,6.8c-1.8,0.4-3.6,0.8-5.4,1.2l-5.4,1l-5.5,0.8
				l-5.5,0.7l-5.5,0.5l-5.5,0.3l-5.5,0.1c-1.8,0-3.7,0-5.5,0C541.4,658.3,534.1,657.6,526.8,656.3z"/>
		</g>
		<g>
			<path class="st1" d="M524.4,669.4c8.2-0.3,16.3-0.7,24.3-1.3c2-0.2,4-0.4,6-0.6l6-0.7l6-0.8l6-0.9l6-1l6-1.1l5.9-1.2
				c2-0.5,3.9-0.9,5.9-1.3c7.9-1.8,15.7-3.9,23.6-6.2c-7.4,3.4-15.1,6.2-23,8.4c-2,0.6-3.9,1.1-5.9,1.6l-6,1.4l-6,1.2l-6,1.1
				l-6.1,0.8l-6.1,0.7l-6.1,0.5c-2,0.1-4.1,0.2-6.1,0.3C540.7,670.6,532.5,670.4,524.4,669.4z"/>
		</g>
		<g>
			<path class="st1" d="M538.1,671.3c6.6,0.5,13.1,0.8,19.6,0.9c1.6,0,3.3,0,4.9,0l4.9-0.2c1.6-0.1,3.2-0.2,4.9-0.3l4.8-0.4l4.8-0.5
				l4.8-0.6l4.8-0.7c1.6-0.3,3.2-0.6,4.8-0.8c6.4-1.2,12.7-2.7,19.1-4.3c-5.9,2.8-12.2,5-18.6,6.6c-1.6,0.4-3.2,0.8-4.8,1.1
				l-4.9,0.9l-4.9,0.7l-4.9,0.6l-4.9,0.3c-1.7,0.1-3.3,0.1-5,0.2l-5-0.1c-1.7-0.1-3.3-0.2-4.9-0.3C551,674,544.5,673,538.1,671.3z"
				/>
		</g>
		<g>
			<path class="st1" d="M532.2,680.8c7.3,0.2,14.5,0.4,21.7,0.4c1.8,0,3.6,0,5.4,0l5.4-0.1l5.4-0.2l5.4-0.3l5.4-0.3l5.4-0.4l5.4-0.4
				c1.8-0.2,3.6-0.4,5.4-0.5c7.2-0.7,14.4-1.6,21.6-2.6c-7,2.1-14.1,3.7-21.3,4.9c-1.8,0.3-3.6,0.6-5.4,0.8l-5.4,0.7l-5.4,0.5
				l-5.5,0.4l-5.5,0.2l-5.5,0.1l-5.5-0.1c-1.8-0.1-3.6-0.2-5.5-0.3C546.6,683.1,539.3,682.2,532.2,680.8z"/>
		</g>
		<g>
			<path class="st1" d="M533.4,688.3c7.2,0.1,14.4,0,21.6-0.3c1.8-0.1,3.6-0.2,5.4-0.3l5.4-0.4l5.4-0.5l5.3-0.6l5.3-0.7l5.3-0.8
				l5.3-0.9c1.8-0.4,3.5-0.7,5.3-1c7-1.4,14-3.1,21.1-4.9c-6.6,3-13.5,5.3-20.5,7.1c-1.8,0.4-3.5,0.9-5.3,1.3l-5.3,1.1l-5.4,0.9
				l-5.4,0.8l-5.4,0.5l-5.4,0.4l-5.4,0.2c-1.8,0-3.6,0-5.4,0C547.8,690.2,540.5,689.6,533.4,688.3z"/>
		</g>
		<g>
			<path class="st1" d="M464,644.8c6.1-0.1,12.1-0.3,18.1-0.8c1.5-0.1,3-0.3,4.5-0.4l4.5-0.5c1.5-0.2,3-0.4,4.5-0.5l4.5-0.7l4.4-0.7
				l4.4-0.8l4.4-0.9c1.5-0.4,2.9-0.7,4.4-1c5.9-1.4,11.7-3,17.5-4.7c-5.4,2.9-11.1,5.1-16.9,7c-1.5,0.4-2.9,0.9-4.4,1.3l-4.4,1.1
				l-4.5,0.9l-4.5,0.8l-4.6,0.6c-1.5,0.1-3,0.3-4.6,0.4l-4.6,0.3c-1.5,0.1-3.1,0.1-4.6,0.1C476.1,646.4,470,645.9,464,644.8z"/>
		</g>
		<g>
			<path class="st1" d="M459.9,656c5.9-1,11.7-1.9,17.5-3c1.5-0.3,2.9-0.6,4.4-0.8l4.3-0.9c1.4-0.3,2.9-0.6,4.3-0.9l4.3-1l4.3-1
				l4.3-1.1l4.3-1.1c1.4-0.4,2.8-0.8,4.3-1.1c5.7-1.6,11.4-3.3,17.1-4.9c-5.3,2.8-10.8,5.2-16.4,7.2c-1.4,0.5-2.8,1-4.2,1.4
				l-4.3,1.3l-4.3,1.2l-4.4,1.1l-4.4,0.9c-1.5,0.3-2.9,0.6-4.4,0.8l-4.4,0.7c-1.5,0.2-3,0.4-4.4,0.5
				C471.8,656,465.9,656.2,459.9,656z"/>
		</g>
		<g>
			<path class="st1" d="M461.7,661.7c6-0.3,12.1-0.2,18.1-0.1c6,0.1,11.9,0.2,17.7-0.8c2.9-0.4,5.8-1.1,8.6-1.9
				c2.9-0.7,5.7-1.7,8.5-2.7c5.6-2,11.2-4.3,16.9-6.3c-5.1,3.2-10.4,6.1-16,8.5c-2.8,1.2-5.6,2.3-8.6,3.2c-2.9,0.9-5.9,1.6-9,2.1
				c-3.1,0.4-6.1,0.7-9.2,0.6c-3.1,0-6.1-0.2-9.1-0.5C473.7,663.4,467.7,662.7,461.7,661.7z"/>
		</g>
		<g>
			<path class="st1" d="M456.9,671.7l19.4-1.7c6.5-0.6,12.9-1.2,19.3-2c3.2-0.4,6.4-0.8,9.6-1.2c3.2-0.4,6.4-1,9.6-1.5
				c6.4-1.1,12.7-2.5,19-4.1c-5.9,2.8-12.2,4.8-18.5,6.4c-3.2,0.8-6.4,1.4-9.6,2c-3.2,0.6-6.5,1-9.7,1.4c-3.2,0.4-6.5,0.7-9.8,0.9
				c-3.3,0.2-6.5,0.4-9.8,0.5C469.9,672.5,463.4,672.4,456.9,671.7z"/>
		</g>
		<g>
			<path class="st1" d="M469.3,679.1c5.4-0.8,10.7-1.5,16.1-2.3c1.3-0.2,2.7-0.5,4-0.7l4-0.7c1.3-0.3,2.6-0.5,4-0.8l3.9-0.8l3.9-0.9
				l3.9-0.9l3.9-1c1.3-0.4,2.6-0.7,3.9-1c5.2-1.4,10.4-2.9,15.6-4.4c-4.8,2.7-9.8,4.8-14.9,6.7c-1.3,0.5-2.6,0.9-3.9,1.3l-3.9,1.2
				l-4,1l-4,0.9l-4,0.8c-1.3,0.2-2.7,0.5-4,0.7l-4.1,0.5c-1.4,0.2-2.7,0.3-4.1,0.4C480.2,679.5,474.8,679.6,469.3,679.1z"/>
		</g>
		<g>
			<path class="st1" d="M467.1,681.7c5.5,0.4,11,0.6,16.5,0.7c1.4,0,2.7,0,4.1,0l4.1-0.1c1.4-0.1,2.7-0.1,4.1-0.2l4.1-0.3l4.1-0.4
				l4.1-0.5l4-0.6c1.3-0.3,2.7-0.5,4-0.7c5.4-1,10.7-2.3,16.1-3.6c-4.9,2.5-10.2,4.5-15.6,5.9c-1.3,0.4-2.7,0.7-4.1,1l-4.1,0.8
				l-4.1,0.6l-4.2,0.5l-4.2,0.3c-1.4,0-2.8,0.1-4.2,0.1l-4.2-0.1c-1.4-0.1-2.8-0.2-4.2-0.3C477.9,684.2,472.4,683.3,467.1,681.7z"/>
		</g>
		<g>
			<path class="st1" d="M466.9,687.7c6.7,0.2,13.4,0.6,20,1c1.7,0.1,3.3,0.1,5,0.2l5,0.2l5,0.1l5,0l5-0.1l5-0.2l4.9-0.4l4.9-0.6
				c6.6-0.9,13-2.3,19.4-4.3c-5.9,3.1-12.4,5.2-19.1,6.6c-1.7,0.3-3.3,0.6-5,0.9l-5,0.6c-1.7,0.1-3.4,0.2-5.1,0.3l-5.1,0.1l-5.1-0.1
				c-1.7-0.1-3.4-0.1-5-0.2l-5-0.4c-1.7-0.2-3.3-0.3-5-0.5C480.1,690.2,473.5,689.1,466.9,687.7z"/>
		</g>
		<g>
			<path class="st1" d="M333.1,657.6c11.4,0.3,22.8,0.5,34.1,0.4c2.8,0,5.7-0.1,8.5-0.1l8.5-0.2l8.5-0.3l8.5-0.4l8.5-0.5l8.5-0.6
				l8.5-0.7c2.8-0.3,5.7-0.5,8.5-0.8c11.3-1.1,22.6-2.4,33.9-3.8c-11.1,2.6-22.4,4.6-33.7,6.1c-2.8,0.4-5.7,0.7-8.5,1l-8.5,0.9
				l-8.5,0.7l-8.5,0.5l-8.6,0.3l-8.6,0.2l-8.6,0c-2.9,0-5.7-0.1-8.6-0.2C355.8,659.9,344.4,659.1,333.1,657.6z"/>
		</g>
		<g>
			<path class="st1" d="M327.1,666.7c10.8,0.3,21.6,0.5,32.4,0.4c2.7-0.1,5.4-0.1,8.1-0.1l8.1-0.3l8.1-0.4l8.1-0.5l8.1-0.6l8-0.7
				l8-0.8c2.7-0.3,5.4-0.6,8-0.9c10.7-1.3,21.4-3,32.1-4.7c-10.4,3-21,5.3-31.7,7c-2.7,0.4-5.4,0.8-8,1.2l-8.1,1l-8.1,0.8l-8.1,0.7
				l-8.1,0.4l-8.1,0.3l-8.1,0c-2.7,0-5.4-0.1-8.1-0.1C348.7,669.1,337.9,668.2,327.1,666.7z"/>
		</g>
		<g>
			<path class="st1" d="M329,671c10.5,2.9,21.2,4.5,32,5.1c5.4,0.3,10.8,0.4,16.2,0.2c5.4-0.2,10.8-0.5,16.1-1.1
				c5.4-0.5,10.7-1.3,16.1-2.1c5.4-0.8,10.7-1.8,16-2.8c10.7-2.1,21.3-4.4,32-6.4c-10.4,3.3-20.9,6.2-31.5,8.7
				c-5.3,1.3-10.7,2.3-16,3.3c-5.4,0.9-10.8,1.7-16.2,2.3c-5.4,0.5-10.9,0.9-16.4,1c-5.5,0-11-0.1-16.4-0.7
				C349.9,677.5,339.1,675.1,329,671z"/>
		</g>
		<g>
			<path class="st1" d="M332.5,680.5c10.4,1.2,20.8,2.2,31.2,2.6c2.6,0.1,5.2,0.2,7.8,0.3l7.8,0.1l7.8-0.1l7.8-0.3l7.8-0.4l7.8-0.6
				l7.8-0.8c2.6-0.3,5.2-0.6,7.7-0.9c10.3-1.4,20.6-3.2,30.8-5.3c-9.9,3.3-20.1,5.8-30.5,7.6c-2.6,0.4-5.2,0.8-7.8,1.2l-7.8,1
				l-7.8,0.7l-7.9,0.5l-7.9,0.2l-7.9,0l-7.9-0.3c-2.6-0.2-5.2-0.4-7.8-0.6C353.1,684.5,342.7,682.9,332.5,680.5z"/>
		</g>
		<g>
			<path class="st1" d="M334.1,687.9c11.9,2.5,23.9,4.2,36,4.9l9,0.4l9.1,0.1l9.1-0.2l9-0.4l9-0.6l9-0.9l9-1.1l9-1.2
				c12-1.8,23.9-4,35.8-6.2c-11.7,3.5-23.5,6.3-35.5,8.5c-3,0.5-6,1-9,1.5l-9,1.3l-9.1,1l-9.1,0.7l-9.1,0.4l-9.2,0.1l-9.1-0.3
				c-3-0.2-6.1-0.5-9.1-0.7C357.7,693.9,345.7,691.6,334.1,687.9z"/>
		</g>
		<g>
			<path class="st1" d="M303.8,647.7c7,3.1,14.5,4.5,22,5.3c7.5,0.8,15.1,1.2,22.7,1.2c3.8,0,7.6-0.1,11.3-0.3
				c1.9-0.1,3.8-0.2,5.7-0.4c1.9-0.2,3.8-0.3,5.7-0.5c7.5-0.8,15-2,22.6-3.4c-7.2,2.6-14.7,4.5-22.3,5.8c-7.6,1.3-15.3,1.9-23,1.9
				c-3.9,0-7.7-0.2-11.5-0.5c-3.8-0.4-7.7-0.7-11.5-1.4C317.9,654.1,310.2,651.9,303.8,647.7z"/>
		</g>
		<g>
			<path class="st1" d="M411.5,653.1c6.5-0.8,13-1.5,19.4-2.5c1.6-0.3,3.2-0.5,4.8-0.8l4.8-0.8c1.6-0.3,3.2-0.6,4.8-0.9l4.8-1l4.8-1
				l4.7-1.1l4.7-1.2c1.6-0.4,3.1-0.8,4.7-1.2c6.3-1.7,12.5-3.6,18.8-5.5c-5.8,3.1-11.9,5.6-18.1,7.7c-1.6,0.5-3.1,1-4.7,1.5
				l-4.7,1.4l-4.8,1.2l-4.8,1.1l-4.8,0.9c-1.6,0.3-3.2,0.6-4.9,0.8l-4.9,0.6c-1.6,0.2-3.3,0.3-4.9,0.5
				C424.7,653.5,418.1,653.6,411.5,653.1z"/>
		</g>
	</g>
</g>
</svg>
