<?xml version="1.0" encoding="utf-8"?>
<!-- Generator: Adobe Illustrator 22.0.1, SVG Export Plug-In . SVG Version: 6.00 Build 0)  -->
<svg version="1.1" id="圖層_1" xmlns="http://www.w3.org/2000/svg" xmlns:xlink="http://www.w3.org/1999/xlink" x="0px" y="0px"
	 viewBox="0 0 750 700" style="enable-background:new 0 0 750 700;" xml:space="preserve">
<style type="text/css">
	.st0{fill:#B58647;}
	.st1{fill:#534741;}
	.st2{fill:#F2EEDD;}
</style>
<g>
	<g>
		<g>
			<path class="st0" d="M337,618V23.9c0,0,5.9-5.9,8.4,2.6s2.5,578.5,0,590S337,618,337,618z"/>
			<path class="st1" d="M337,618c-1.2-1.2-1.7-2.6-1.8-4.2c-0.1-1.5,0-3.1-0.1-4.6v-9.3v-18.6v-37.2l-0.1-74.3l0.2-148.7l0.3-148.7
				V23.8v-0.6l0.4-0.4c0.8-0.7,1.4-1.2,2.3-1.7c0.9-0.4,1.9-0.8,3.1-0.7c1.1,0,2.4,0.6,3.1,1.3c0.8,0.7,1.3,1.6,1.7,2.4
				c0.2,0.4,0.3,0.8,0.5,1.3l0.2,0.6l0.1,0.8c0,0.3,0,0.5,0.1,0.7v0.6c0,0.4,0.1,0.8,0.1,1.2l0.2,4.8c0.2,6.4,0.3,12.8,0.4,19.2
				l0.5,38.4l0.8,76.9l1.4,153.7c0.3,51.2,0.6,102.5,0.6,153.8c-0.1,25.6-0.1,51.3-0.3,76.9c-0.1,12.8-0.2,25.6-0.5,38.5
				c-0.1,6.4-0.2,12.8-0.4,19.3c-0.1,1.6-0.1,3.2-0.3,5l-0.1,0.9l-0.1,0.5l-0.1,0.3c-0.1,0.5-0.2,0.9-0.4,1.4
				c-0.3,0.9-0.6,1.9-1.2,3.1c-0.1,0.3-0.3,0.6-0.5,0.9c-0.2,0.3-0.4,0.6-0.7,0.9c-0.2,0.3-0.7,0.6-1,0.9c-0.5,0.3-0.9,0.6-1.5,0.8
				c-1.1,0.5-2.5,0.6-3.5,0.3c-1-0.2-1.8-0.7-2.4-1.1c-1.1-0.9-1.6-2-1.8-3.2c-0.1-0.6-0.1-1.2,0-1.8c0-0.3,0.1-0.6,0.2-1
				C336.6,618.7,336.8,618.3,337,618z M337,618c0.8,0,1.5,0,2,0c0.6,0,1.1,0.1,1.5,0.1c0.9,0.1,1.5,0.1,1.7,0c0.1,0,0.1-0.2-0.2-0.2
				c-0.3-0.1-0.8,0-1.2,0.1c-0.8,0.4-0.6,0.5-0.4,0.2s0.4-0.8,0.5-1.4c0.1-0.3,0.2-0.6,0.2-0.9l0.1-0.2v-0.1c0-0.1,0-0.2,0-0.3
				c0.1-1.4,0.2-3,0.2-4.6c0.2-6.3,0.3-12.7,0.4-19.1c0.2-12.8,0.3-25.6,0.4-38.4l0.6-76.8l1.1-153.7c0.4-51.2,0.7-102.5,0.9-153.7
				c0-25.6,0.1-51.2,0-76.9l-0.3-38.4c-0.1-6.4-0.2-12.8-0.3-19.2l-0.2-4.8c0-0.4,0-0.8-0.1-1.2v-0.6c0-0.2,0-0.4,0-0.5s0-0.3,0-0.4
				l-0.2-0.5c-0.1-0.3-0.2-0.7-0.4-1c-0.3-0.6-0.6-1.2-1-1.5c-0.4-0.4-0.7-0.5-1.2-0.5c-0.9-0.1-2.2,0.7-3.1,1.5l0.4-1.1v148.4
				l0.3,148.4l0.2,148.4l-0.1,74.2v37.1V599v9.3c0,1.6,0,3.1-0.1,4.7C338.7,614.5,338.2,616.1,337,618z"/>
		</g>
		<g>
			<path id="flagArea" class="st2" d="M14.1,538.2C61.9,128.9,354.5,2,354.5,2s40,404.6,137.4,461.1
				C491.9,463.1,79.6,458.9,14.1,538.2z"/>
			<g>
				<path class="st1" d="M14,538.3c0.8-6.8,1.6-13.8,2.5-20.7l1.5-10.2c0.5-3.4,1-6.8,1.6-10.2l1.7-10.2l0.9-5.1l1-5.1l1.9-10.2
					c0.6-3.4,1.4-6.7,2.1-10.1c5.8-27,12.7-53.7,21.3-79.9l3.2-9.8l3.4-9.8c2.2-6.5,4.8-12.9,7.2-19.4c5.1-12.8,10.3-25.6,16.1-38.1
					l2.1-4.7l2.2-4.7l4.5-9.3c3.1-6.2,6.1-12.3,9.4-18.4c3.2-6.1,6.6-12.1,9.9-18.2c3.5-6,6.9-12,10.5-17.8
					c3.5-5.9,7.3-11.7,11-17.5l5.7-8.6c1.9-2.9,3.9-5.7,5.9-8.5c7.9-11.3,16.1-22.4,24.7-33.2c17.2-21.6,35.8-42,55.6-61.2
					s40.9-37.1,63.2-53.4c11.4-8,22.9-15.8,34.6-23c5.9-3.6,11.8-7.1,17.9-10.5c6.1-3.3,12.2-6.6,18.5-9.4l1.3-0.6l0.1,1.4
					c2.1,20.3,4.7,40.5,7.4,60.8c2.7,20.2,5.7,40.4,9,60.6c6.5,40.3,14,80.4,23.1,120.2c4.5,19.9,9.5,39.7,15,59.3
					s11.6,39.1,18.7,58.2c3.5,9.6,7.3,19,11.4,28.3s8.6,18.4,13.6,27.3c5,8.8,10.5,17.4,16.9,25.2c0.8,1,1.6,1.9,2.4,2.9l2.5,2.8
					l2.6,2.7c0.9,0.9,1.8,1.8,2.7,2.6l2.8,2.5c0.9,0.8,2,1.5,3,2.3l1.5,1.1c0.5,0.4,1,0.7,1.6,1l3.1,2l4.4,2.8H492
					c-20.4-0.1-40.9,0.1-61.3,0.5s-40.9,1-61.3,1.8c-40.8,1.6-81.7,4.1-122.4,7.9c-40.7,3.9-81.3,8.8-121.4,17
					c-20,4.2-39.9,9-59.1,15.8c-9.6,3.4-19.1,7.3-28.1,12.2c-4.5,2.4-8.8,5.2-13,8.1C21.3,531,17.6,534.4,14,538.3z M14.1,538
					l2.4-2.8c0.8-0.9,1.8-1.8,2.7-2.7c1.8-1.8,3.9-3.3,5.9-5c4.1-3,8.4-5.9,12.9-8.3c9-5,18.4-9,28-12.5c19.3-7,39.1-12.1,59.2-16.4
					c20-4.2,40.2-7.7,60.5-10.6s40.6-5.3,61-7.3c40.7-4,81.6-6.6,122.5-8.4s81.8-2.6,122.7-2.5l-0.8,2.8l-3.3-2.1
					c-0.5-0.4-1.1-0.7-1.6-1.1l-1.6-1.2c-1-0.8-2.1-1.6-3.1-2.4l-2.9-2.6c-1-0.8-1.9-1.8-2.8-2.7l-2.7-2.8l-2.6-2.9
					c-0.9-1-1.7-1.9-2.5-3c-6.5-8-12.1-16.7-17.1-25.6s-9.5-18.2-13.7-27.5c-4.2-9.4-7.9-18.9-11.5-28.5
					c-7.1-19.2-13.1-38.8-18.6-58.5s-10.4-39.6-14.9-59.5c-9-39.9-16.3-80.1-22.8-120.4c-3.2-20.2-6.1-40.4-8.8-60.6
					c-2.7-20.3-5.2-40.5-7.3-60.9l1.4,0.8c-6.2,2.8-12.3,6-18.3,9.3s-12,6.8-17.8,10.4c-11.7,7.2-23.1,14.9-34.3,23
					c-22.3,16.2-43.3,34-63.2,53.1c-19.8,19.1-38.4,39.5-55.6,60.9c-8.6,10.8-16.8,21.8-24.8,33c-2,2.8-4,5.6-5.9,8.5l-5.7,8.6
					c-3.7,5.8-7.5,11.5-11,17.4c-3.7,5.8-7.1,11.8-10.6,17.7c-3.4,6-6.8,12-10,18.1c-3.3,6-6.3,12.2-9.5,18.4l-4.5,9.3l-2.2,4.7
					l-2.1,4.7c-5.8,12.5-11.1,25.2-16.1,38c-2.4,6.4-5,12.8-7.2,19.4l-3.5,9.7l-3.3,9.8c-8.7,26.2-15.7,52.8-21.5,79.7
					c-0.7,3.4-1.5,6.7-2.1,10.1l-2,10.1l-1,5.1l-0.9,5.1L20,497.3c-0.6,3.4-1.1,6.8-1.6,10.2l-1.5,10.2L14.1,538z"/>
			</g>
		</g>
		<g>
			<path class="st1" d="M625.4,622.6c-13.2-13-26.2-26.1-39.2-39.4c-12.9-13.3-25.7-26.7-38.3-40.2c-12.6-13.6-25.2-27.2-37-41.5
				c-5.9-7.2-11.6-14.5-17-22.1c-2.7-3.8-5.3-7.7-7.6-11.7c-1.2-2-2.3-4.1-3.3-6.2s-1.9-4.3-2.3-6.6l0.3-0.1
				c0.6,2.2,1.7,4.3,2.8,6.3c1.1,2,2.4,3.9,3.7,5.8c2.6,3.8,5.3,7.5,8.2,11.2c5.7,7.3,11.6,14.4,17.6,21.4c12,14,24.1,28,36.4,41.8
				c12.4,13.7,25,27.3,37.6,40.8c12.7,13.5,25.4,26.9,38.3,40.2L625.4,622.6z"/>
		</g>
		<g>
			<path class="st1" d="M136.3,482.8c7.2,10.5,13.7,21.4,20.1,32.4c6.3,11,12.5,22.1,18.7,33.2c6.2,11.1,12.7,22,18.9,33
				c3.1,5.5,6.4,11,9.7,16.3c1.7,2.7,3.5,5.3,5.3,7.8c1.9,2.5,3.9,5,6.5,6.7l-0.1,0.3c-1.4-0.7-2.8-1.7-4-2.7
				c-1.2-1.1-2.3-2.2-3.4-3.4c-2.1-2.4-4.1-4.9-6-7.5c-3.8-5.1-7.2-10.5-10.6-16c-6.7-10.9-12.5-22.2-18.5-33.4S161,527,155,515.9
				c-6-11.2-12.1-22.3-19-33L136.3,482.8z"/>
		</g>
		<g>
			<path class="st1" d="M80.5,499.2c0.9,2.9,2.2,5.7,3.6,8.4c0.7,1.3,1.5,2.6,2.3,4l2.5,3.8c3.4,5.1,7.1,9.9,10.9,14.7
				c7.6,9.6,15.7,18.7,24,27.6c8.3,8.9,17,17.5,25.5,26.2c4.3,4.4,8.6,8.7,12.9,13c2.2,2.2,4.3,4.3,6.5,6.4c2.2,2.1,4.4,4.2,6.8,6
				l-0.2,0.3c-1.4-0.7-2.7-1.6-3.9-2.5c-1.3-0.9-2.5-1.8-3.7-2.8c-2.4-1.9-4.8-3.9-7.1-5.9c-4.6-4-9.1-8.2-13.6-12.4
				c-8.9-8.5-17-17.6-25.2-26.8c-8.1-9.2-16-18.5-23.4-28.3c-3.7-4.9-7.2-9.9-10.5-15.1l-2.4-4c-0.7-1.4-1.5-2.7-2.2-4.1
				c-1.4-2.7-2.6-5.6-3.4-8.6L80.5,499.2z"/>
		</g>
		<g>
			<path class="st1" d="M131.4,605.6c-10.5-4.2-20.9-8.8-31.3-13.4c-10.3-4.7-20.6-9.6-30.7-14.8s-20-10.8-29.7-16.9
				c-4.8-3.1-9.5-6.3-14.1-9.8c-4.5-3.5-8.9-7.2-12.7-11.7l2.5-0.8c-0.3,4.8,0.1,9.8,0.6,14.7c0.5,4.9,1.1,9.9,1.8,14.8
				c0.7,4.9,1.5,9.9,2.3,14.8l2.5,14.8l-0.3,0.1c-1.5-4.8-2.8-9.6-4-14.5s-2.3-9.8-3.2-14.7s-1.7-9.9-2.2-15
				c-0.5-5-0.8-10.1-0.3-15.3l0.3-3.4l2.2,2.6c3.5,4.3,7.7,8,12.1,11.5s9,6.7,13.7,9.9c9.4,6.2,19.3,11.9,29.3,17.2
				c10,5.4,20.1,10.5,30.3,15.4s20.5,9.6,31,14.1L131.4,605.6z"/>
		</g>
	</g>
	<g>
		<g>
			<path class="st1" d="M170.4,180.6c-1.5,0.3-2.9,1-4.1,2c-1.2,1-2.1,2.2-3,3.5c-1.7,2.5-2.9,5.4-4.2,8.2l-3.9,8.4
				c-0.6,1.4-1.3,2.8-1.9,4.2l-1.8,4.3c-2.4,5.7-5,11.3-7.1,17.1l-3.4,8.6l-0.8,2.2l-0.8,2.2l-1.5,4.4c-8.2,23.2-14.9,47-19.7,71.2
				c-4.9,24.1-8,48.6-9.5,73.3c-0.3,3.1-0.3,6.2-0.4,9.2l-0.3,9.2c-0.2,3.1-0.1,6.2-0.1,9.2v9.3c0,1.5,0,3.1,0.1,4.6l0.1,4.6
				l0.3,9.3l1.2,18.5c-0.7-6.1-1.4-12.3-2-18.4l-0.6-9.3l-0.3-4.6c-0.1-1.5-0.2-3.1-0.3-4.6l-0.2-9.3c0-3.1-0.2-6.2-0.1-9.3l0.1-9.3
				c0-3.1,0-6.2,0.2-9.3c0.9-24.8,4-49.4,8.9-73.7c5-24.3,11.7-48.2,20.5-71.4l1.6-4.4l0.8-2.2l0.9-2.1l3.6-8.6
				c2.3-5.8,5-11.3,7.6-17l2-4.2c0.7-1.4,1.4-2.8,2.1-4.1l4.2-8.3c1.4-2.7,2.7-5.6,4.6-8.1c0.9-1.3,2-2.4,3.2-3.4
				C167.4,181.5,168.9,180.9,170.4,180.6z"/>
		</g>
		<g>
			<path class="st1" d="M148.8,230.6c-7.2,9.1-14.4,18.2-21.4,27.4c-1.7,2.3-3.4,4.7-5.2,7l-5.1,7l-5,7.1l-4.9,7.1l-4.9,7.2
				l-4.8,7.2l-4.7,7.3c-1.5,2.5-3.1,4.9-4.6,7.3c-6.1,9.8-12,19.8-17.8,29.9c4.7-10.6,10.1-20.9,15.8-31c1.5-2.5,2.9-5,4.4-7.5
				l4.5-7.4l4.7-7.3l4.8-7.3l5-7.1l5.1-7l5.3-6.9c1.8-2.3,3.6-4.6,5.4-6.8C132.9,247.5,140.6,238.8,148.8,230.6z"/>
		</g>
		<g>
			<path class="st1" d="M133.5,277.8c-7.5,8.1-13.6,17.2-20.2,26.1c-3.2,4.5-6.6,8.8-9.8,13.3l-10,13.2l-10.1,13.1
				c-3.4,4.3-6.8,8.7-10.2,13c-6.9,8.6-13.8,17.1-19.9,26.3c5.1-9.8,11.6-18.8,18.1-27.7c3.2-4.5,6.6-8.8,9.8-13.3l10-13.2
				l10.1-13.1c3.4-4.3,6.8-8.7,10.2-13C118.4,293.9,125.2,285.1,133.5,277.8z"/>
		</g>
		<g>
			<path class="st1" d="M130.6,306.8c-6.2,9.8-12.7,19.4-19.2,28.9c-3.3,4.8-6.6,9.5-9.9,14.3l-10,14.2l-10.2,14.1
				c-3.4,4.7-6.8,9.4-10.3,14c-3.4,4.7-6.9,9.3-10.4,13.9s-6.9,9.3-9.9,14.2c2.4-5.3,5.5-10.2,8.7-15.1c3.2-4.8,6.5-9.6,9.7-14.4
				s6.6-9.5,9.9-14.3l10-14.2l10.2-14.1c3.4-4.7,6.8-9.4,10.3-14C116.3,325,123.3,315.8,130.6,306.8z"/>
		</g>
		<g>
			<path class="st1" d="M122.3,338.2c-6,10-12.2,19.9-18.6,29.7c-3.1,4.9-6.4,9.8-9.6,14.7l-9.7,14.6l-9.8,14.5
				c-3.3,4.8-6.6,9.6-10,14.4c-6.7,9.6-13.5,19-20.5,28.4c6-10,12.2-19.9,18.5-29.7c3.1-4.9,6.4-9.8,9.6-14.7l9.7-14.6l9.8-14.5
				c3.3-4.8,6.6-9.6,10-14.4C108.5,357,115.3,347.5,122.3,338.2z"/>
		</g>
		<g>
			<path class="st1" d="M123.5,362.9c-6.3,8.1-12,16.7-17.4,25.4c-1.3,2.2-2.6,4.4-4,6.6l-3.9,6.6l-7.9,13.3l-4,6.6l-4.1,6.5
				l-4.3,6.4c-1.5,2.1-3,4.2-4.5,6.3c-6.2,8.3-13.2,16.1-21.2,22.6c7.2-7.4,13.5-15.5,19.3-23.9l4.3-6.4l4.1-6.5l4-6.5l4-6.6l8-13.2
				l4.1-6.5c1.4-2.2,2.8-4.3,4.2-6.5C110,378.5,116.2,370.2,123.5,362.9z"/>
		</g>
		<g>
			<path class="st1" d="M116.5,385c-5.1,7.8-8.4,16.5-11.4,25.2c-1.5,4.4-3,8.8-4.7,13.1c-1.6,4.4-3.5,8.7-5.6,12.9
				c-2.2,4.2-4.6,8.2-7.1,12.1c-2.6,3.9-5.1,7.8-7.8,11.6c-5.3,7.6-10.6,15.2-16.2,22.7c4.6-8.1,9.4-16.1,14.3-24
				c2.4-4,5-7.8,7.3-11.8c2.4-3.9,4.7-7.9,6.8-12c4.2-8.1,7.2-16.9,10.8-25.5C106.4,400.7,110.4,392.1,116.5,385z"/>
		</g>
		<g>
			<path class="st1" d="M127.7,406c-2,6.3-4.4,12.5-7,18.6c-1.3,3-2.7,6-4.1,9s-2.9,5.9-4.4,8.9c-1.6,2.9-3.1,5.8-4.8,8.7
				c-1.7,2.9-3.3,5.7-5.1,8.5c-3.5,5.6-7.2,11.1-11.2,16.4c3-5.9,6.1-11.7,9.2-17.6l4.6-8.7l2.3-4.4l2.3-4.4l2.3-4.4
				c0.8-1.5,1.5-2.9,2.3-4.4l4.5-8.8C121.5,417.7,124.5,411.9,127.7,406z"/>
		</g>
		<g>
			<path class="st1" d="M125,353.4c-0.3-0.1-0.6-0.2-0.8,0c-0.3,0.1-0.5,0.3-0.6,0.6c-0.3,0.5-0.5,1.1-0.5,1.6c-0.1,1.1,0,2.4,0,3.5
				v3.6l0.1,3.6l0.1,3.6l0.2,3.6l0.2,3.6l0.2,3.5c0.1,2.4,0.3,4.7,0.5,7.1s0.4,4.7,0.7,7.1c0.5,4.7,1,9.4,1.7,14.1
				c0.6,4.7,1.3,9.4,2,14.1c0.7,4.7,1.5,9.4,2.2,14.1c1.5,9.4,3.1,18.8,4.4,28.2c-2.5-9.2-4.7-18.5-6.7-27.8c-1-4.7-1.9-9.4-2.7-14
				c-0.8-4.7-1.5-9.4-2.2-14.2c-0.6-4.7-1.1-9.5-1.5-14.3c-0.2-2.4-0.4-4.8-0.5-7.2l-0.2-3.6c0-1.2,0-2.4-0.1-3.6
				c0-2.4-0.1-4.8,0-7.2l0.1-3.6l0.2-3.6l0.2-3.6l0.3-3.6c0.1-1.2,0.2-2.4,0.4-3.6c0.2-0.6,0.4-1.2,0.8-1.7c0.2-0.2,0.4-0.5,0.7-0.6
				C124.5,353.1,124.8,353.2,125,353.4z"/>
		</g>
		<g>
			<path class="st1" d="M134.2,356c-0.1,8.6,0.5,17.2,1.6,25.6c0.6,4.2,1.2,8.5,1.9,12.7s1.4,8.5,2.1,12.7c0.7,4.2,1.5,8.4,2.3,12.7
				c0.7,4.2,1.6,8.4,2.4,12.6c0.8,4.2,1.7,8.4,3.1,12.4c1.3,4,3.1,7.9,5.6,11.4c-3-3.1-5.3-6.9-7-10.9s-2.9-8.2-4-12.4
				c-1.1-4.2-2-8.4-2.9-12.6s-1.7-8.5-2.4-12.7c-1.4-8.5-2.7-17-3.3-25.7C132.9,373.3,132.8,364.6,134.2,356z"/>
		</g>
		<g>
			<path class="st1" d="M149.6,375.5c1.9,7.2,3.8,14.4,5.7,21.6l2.9,10.7l1.5,5.4l1.5,5.3l1.5,5.3l1.6,5.3l3.2,10.7
				c2.2,7.1,4.4,14.2,6.5,21.3c-3.3-6.7-6.2-13.6-8.7-20.6c-1.3-3.5-2.5-7-3.7-10.6c-1.1-3.6-2.2-7.1-3.3-10.7
				c-1-3.6-2-7.2-2.9-10.8c-0.8-3.6-1.7-7.3-2.4-10.9C151.6,390.3,150.4,382.9,149.6,375.5z"/>
		</g>
		<g>
			<path class="st1" d="M165.3,371.6l5.9,21.9l3,10.9l1.6,5.4l1.6,5.4l1.6,5.4l1.7,5.4l3.4,10.8l6.9,21.6
				c-3.4-6.8-6.4-13.7-9.1-20.8c-1.4-3.5-2.6-7.1-3.9-10.7c-1.2-3.6-2.3-7.2-3.4-10.8c-1-3.6-2.1-7.3-3-11s-1.8-7.4-2.6-11.1
				C167.4,386.6,166.1,379.1,165.3,371.6z"/>
		</g>
	</g>
</g>
</svg>
