<?xml version="1.0" encoding="utf-8"?>
<!-- Generator: Adobe Illustrator 22.0.1, SVG Export Plug-In . SVG Version: 6.00 Build 0)  -->
<svg version="1.1" id="圖層_1" xmlns="http://www.w3.org/2000/svg" xmlns:xlink="http://www.w3.org/1999/xlink" x="0px" y="0px"
	 viewBox="0 0 750 700" style="enable-background:new 0 0 750 700;" xml:space="preserve">
<style type="text/css">
	.st0{fill:#B58647;}
	.st1{fill:#534741;}
	.st2{fill:#F2EEDD;}
</style>
<g>
	<g>
		<g>
			<path class="st0" d="M389.5,616.5c-2.5-11.5-2.5-581.5,0-590s8.4-2.6,8.4-2.6V618C397.9,618,392,628,389.5,616.5z"/>
			<path class="st1" d="M398.5,618.7c0.1,0.4,0.2,0.7,0.2,1c0.1,0.6,0.1,1.2,0,1.8c-0.2,1.2-0.7,2.3-1.8,3.2
				c-0.6,0.4-1.4,0.9-2.4,1.1c-1,0.3-2.4,0.2-3.5-0.3c-0.6-0.2-1-0.5-1.5-0.8c-0.3-0.3-0.8-0.6-1-0.9c-0.3-0.3-0.5-0.6-0.7-0.9
				c-0.2-0.3-0.4-0.6-0.5-0.9c-0.6-1.2-0.9-2.2-1.2-3.1c-0.2-0.5-0.3-0.9-0.4-1.4l-0.1-0.3l-0.1-0.5l-0.1-0.9
				c-0.2-1.8-0.2-3.4-0.3-5c-0.2-6.5-0.3-12.9-0.4-19.3c-0.3-12.9-0.4-25.7-0.5-38.5c-0.2-25.6-0.2-51.3-0.3-76.9
				c0-51.3,0.3-102.6,0.6-153.8l1.4-153.7l0.8-76.9l0.5-38.4c0.1-6.4,0.2-12.8,0.4-19.2l0.2-4.8c0-0.4,0.1-0.8,0.1-1.2v-0.6
				c0.1-0.2,0.1-0.4,0.1-0.7l0.1-0.8l0.2-0.6c0.2-0.5,0.3-0.9,0.5-1.3c0.4-0.8,0.9-1.7,1.7-2.4c0.7-0.7,2-1.3,3.1-1.3
				c1.2-0.1,2.2,0.3,3.1,0.7c0.9,0.5,1.5,1,2.3,1.7l0.4,0.4v0.6v148.6l0.3,148.7l0.2,148.7l-0.1,74.3v37.2v18.6v9.3
				c-0.1,1.5,0,3.1-0.1,4.6c-0.1,1.6-0.6,3-1.8,4.2C398.1,618.3,398.3,618.7,398.5,618.7z M396.2,613c-0.1-1.6-0.1-3.1-0.1-4.7V599
				v-18.6v-37.1l-0.1-74.2l0.2-148.4l0.3-148.4V23.9l0.4,1.1c-0.9-0.8-2.2-1.6-3.1-1.5c-0.5,0-0.8,0.1-1.2,0.5
				c-0.4,0.3-0.7,0.9-1,1.5c-0.2,0.3-0.3,0.7-0.4,1L391,27c0,0.1,0,0.3,0,0.4s0,0.3,0,0.5v0.6c-0.1,0.4-0.1,0.8-0.1,1.2l-0.2,4.8
				c-0.1,6.4-0.2,12.8-0.3,19.2l-0.3,38.4c-0.1,25.7,0,51.3,0,76.9c0.2,51.2,0.5,102.5,0.9,153.7l1.1,153.7l0.6,76.8
				c0.1,12.8,0.2,25.6,0.4,38.4c0.1,6.4,0.2,12.8,0.4,19.1c0,1.6,0.1,3.2,0.2,4.6c0,0.1,0,0.2,0,0.3v0.1l0.1,0.2
				c0,0.3,0.1,0.6,0.2,0.9c0.1,0.6,0.3,1.1,0.5,1.4s0.4,0.2-0.4-0.2c-0.4-0.1-0.9-0.2-1.2-0.1c-0.3,0-0.3,0.2-0.2,0.2
				c0.2,0.1,0.8,0.1,1.7,0c0.4,0,0.9-0.1,1.5-0.1c0.5,0,1.2,0,2,0C396.7,616.1,396.2,614.5,396.2,613z"/>
		</g>
		<g>
			<path id="flagArea" class="st2" d="M243,463.1C340.4,406.6,380.4,2,380.4,2S673,128.9,720.8,538.2
				C655.3,458.9,243,463.1,243,463.1z"/>
			<g>
				<path class="st1" d="M709.5,527.8c-4.2-2.9-8.5-5.7-13-8.1c-9-4.9-18.5-8.8-28.1-12.2c-19.2-6.8-39.1-11.6-59.1-15.8
					c-40.1-8.2-80.7-13.1-121.4-17c-40.7-3.8-81.6-6.3-122.4-7.9c-20.4-0.8-40.9-1.4-61.3-1.8s-40.9-0.6-61.3-0.5h-5.2l4.4-2.8
					l3.1-2c0.6-0.3,1.1-0.6,1.6-1l1.5-1.1c1-0.8,2.1-1.5,3-2.3l2.8-2.5c0.9-0.8,1.8-1.7,2.7-2.6l2.6-2.7l2.5-2.8
					c0.8-1,1.6-1.9,2.4-2.9c6.4-7.8,11.9-16.4,16.9-25.2c5-8.9,9.5-18,13.6-27.3s7.9-18.7,11.4-28.3c7.1-19.1,13.2-38.6,18.7-58.2
					s10.5-39.4,15-59.3c9.1-39.8,16.6-79.9,23.1-120.2c3.3-20.2,6.3-40.4,9-60.6c2.7-20.3,5.3-40.5,7.4-60.8l0.1-1.4l1.3,0.6
					c6.3,2.8,12.4,6.1,18.5,9.4c6.1,3.4,12,6.9,17.9,10.5c11.7,7.2,23.2,15,34.6,23c22.3,16.3,43.4,34.2,63.2,53.4
					c19.8,19.2,38.4,39.6,55.6,61.2c8.6,10.8,16.8,21.9,24.7,33.2c2,2.8,4,5.6,5.9,8.5l5.7,8.6c3.7,5.8,7.5,11.6,11,17.5
					c3.6,5.8,7,11.8,10.5,17.8c3.3,6.1,6.7,12.1,9.9,18.2c3.3,6.1,6.3,12.2,9.4,18.4l4.5,9.3l2.2,4.7l2.1,4.7
					c5.8,12.5,11,25.3,16.1,38.1c2.4,6.5,5,12.9,7.2,19.4l3.4,9.8l3.2,9.8c8.6,26.2,15.5,52.9,21.3,79.9c0.7,3.4,1.5,6.7,2.1,10.1
					l1.9,10.2l1,5.1l0.9,5.1l1.7,10.2c0.6,3.4,1.1,6.8,1.6,10.2l1.5,10.2c0.9,6.9,1.7,13.9,2.5,20.7
					C717.3,534.4,713.6,531,709.5,527.8z M718,517.7l-1.5-10.2c-0.5-3.4-1-6.8-1.6-10.2l-1.6-10.4l-0.9-5.1l-1-5.1l-2-10.1
					c-0.6-3.4-1.4-6.7-2.1-10.1c-5.8-26.9-12.8-53.5-21.5-79.7l-3.3-9.8l-3.5-9.7c-2.2-6.6-4.8-13-7.2-19.4
					c-5-12.8-10.3-25.5-16.1-38l-2.1-4.7l-2.2-4.7l-4.5-9.3c-3.2-6.2-6.2-12.4-9.5-18.4c-3.2-6.1-6.6-12.1-10-18.1
					c-3.5-5.9-6.9-11.9-10.6-17.7c-3.5-5.9-7.3-11.6-11-17.4l-5.7-8.6c-1.9-2.9-3.9-5.7-5.9-8.5c-8-11.2-16.2-22.2-24.8-33
					c-17.2-21.4-35.8-41.8-55.6-60.9c-19.9-19.1-40.9-36.9-63.2-53.1c-11.2-8.1-22.6-15.8-34.3-23c-5.8-3.6-11.8-7.1-17.8-10.4
					s-12.1-6.5-18.3-9.3l1.4-0.8c-2.1,20.4-4.6,40.6-7.3,60.9c-2.7,20.2-5.6,40.4-8.8,60.6c-6.5,40.3-13.8,80.5-22.8,120.4
					c-4.5,19.9-9.4,39.8-14.9,59.5s-11.5,39.3-18.6,58.5c-3.6,9.6-7.3,19.1-11.5,28.5c-4.2,9.3-8.7,18.6-13.7,27.5
					s-10.6,17.6-17.1,25.6c-0.8,1.1-1.6,2-2.5,3l-2.6,2.9l-2.7,2.8c-0.9,0.9-1.8,1.9-2.8,2.7l-2.9,2.6c-1,0.8-2.1,1.6-3.1,2.4
					l-1.6,1.2c-0.5,0.4-1.1,0.7-1.6,1.1l-3.3,2.1l-0.8-2.8c40.9-0.1,81.8,0.7,122.7,2.5s81.8,4.4,122.5,8.4c20.4,2,40.7,4.4,61,7.3
					c20.3,2.9,40.5,6.4,60.5,10.6c20.1,4.3,39.9,9.4,59.2,16.4c9.6,3.5,19,7.5,28,12.5c4.5,2.4,8.8,5.3,12.9,8.3
					c2,1.7,4.1,3.2,5.9,5c0.9,0.9,1.9,1.8,2.7,2.7l2.4,2.8L718,517.7z"/>
			</g>
		</g>
		<g>
			<path class="st1" d="M109.3,622.3c12.9-13.3,25.6-26.7,38.3-40.2c12.6-13.5,25.2-27.1,37.6-40.8c12.3-13.8,24.4-27.8,36.4-41.8
				c6-7,11.9-14.1,17.6-21.4c2.9-3.7,5.6-7.4,8.2-11.2c1.3-1.9,2.6-3.8,3.7-5.8c1.1-2,2.2-4.1,2.8-6.3l0.3,0.1
				c-0.4,2.3-1.3,4.5-2.3,6.6s-2.1,4.2-3.3,6.2c-2.3,4-4.9,7.9-7.6,11.7c-5.4,7.6-11.1,14.9-17,22.1c-11.8,14.3-24.4,27.9-37,41.5
				c-12.6,13.5-25.4,26.9-38.3,40.2c-13,13.3-26,26.4-39.2,39.4L109.3,622.3z"/>
		</g>
		<g>
			<path class="st1" d="M598.9,482.9c-6.9,10.7-13,21.8-19,33c-6,11.1-11.9,22.4-17.9,33.6s-11.8,22.5-18.5,33.4
				c-3.4,5.5-6.8,10.9-10.6,16c-1.9,2.6-3.9,5.1-6,7.5c-1.1,1.2-2.2,2.3-3.4,3.4c-1.2,1-2.6,2-4,2.7l-0.1-0.3
				c2.6-1.7,4.6-4.2,6.5-6.7c1.8-2.5,3.6-5.1,5.3-7.8c3.3-5.3,6.6-10.8,9.7-16.3c6.2-11,12.7-21.9,18.9-33
				c6.2-11.1,12.4-22.2,18.7-33.2c6.4-11,12.9-21.9,20.1-32.4L598.9,482.9z"/>
		</g>
		<g>
			<path class="st1" d="M655,499.1c-0.8,3-2,5.9-3.4,8.6c-0.7,1.4-1.5,2.7-2.2,4.1l-2.4,4c-3.3,5.2-6.8,10.2-10.5,15.1
				c-7.4,9.8-15.3,19.1-23.4,28.3c-8.2,9.2-16.3,18.3-25.2,26.8c-4.5,4.2-9,8.4-13.6,12.4c-2.3,2-4.7,4-7.1,5.9
				c-1.2,1-2.4,1.9-3.7,2.8c-1.2,0.9-2.5,1.8-3.9,2.5l-0.2-0.3c2.4-1.8,4.6-3.9,6.8-6c2.2-2.1,4.3-4.2,6.5-6.4
				c4.3-4.3,8.6-8.6,12.9-13c8.5-8.7,17.2-17.3,25.5-26.2c8.3-8.9,16.4-18,24-27.6c3.8-4.8,7.5-9.6,10.9-14.7l2.5-3.8
				c0.8-1.4,1.6-2.7,2.3-4c1.4-2.7,2.7-5.5,3.6-8.4L655,499.1z"/>
		</g>
		<g>
			<path class="st1" d="M603.4,605.2c10.5-4.5,20.8-9.2,31-14.1s20.3-10,30.3-15.4c10-5.3,19.9-11,29.3-17.2
				c4.7-3.2,9.3-6.4,13.7-9.9c4.4-3.5,8.6-7.2,12.1-11.5l2.2-2.6l0.3,3.4c0.5,5.2,0.2,10.3-0.3,15.3c-0.5,5.1-1.3,10.1-2.2,15
				s-2,9.8-3.2,14.7s-2.5,9.7-4,14.5l-0.3-0.1l2.5-14.8c0.8-4.9,1.6-9.9,2.3-14.8c0.7-4.9,1.3-9.9,1.8-14.8s0.9-9.9,0.6-14.7
				l2.5,0.8c-3.8,4.5-8.2,8.2-12.7,11.7c-4.6,3.5-9.3,6.7-14.1,9.8c-9.7,6.1-19.6,11.7-29.7,16.9c-10.1,5.2-20.4,10.1-30.7,14.8
				c-10.4,4.6-20.8,9.2-31.3,13.4L603.4,605.2z"/>
		</g>
	</g>
	<g>
		<g>
			<path class="st1" d="M568.5,182.5c1.2,1,2.3,2.1,3.2,3.4c1.9,2.5,3.2,5.4,4.6,8.1l4.2,8.3c0.7,1.3,1.4,2.7,2.1,4.1l2,4.2
				c2.6,5.7,5.3,11.2,7.6,17l3.6,8.6l0.9,2.1l0.8,2.2l1.6,4.4c8.8,23.2,15.5,47.1,20.5,71.4c4.9,24.3,8,48.9,8.9,73.7
				c0.2,3.1,0.2,6.2,0.2,9.3l0.1,9.3c0.1,3.1-0.1,6.2-0.1,9.3l-0.2,9.3c-0.1,1.5-0.2,3.1-0.3,4.6l-0.3,4.6l-0.6,9.3
				c-0.6,6.1-1.3,12.3-2,18.4l1.2-18.5l0.3-9.3l0.1-4.6c0.1-1.5,0.1-3.1,0.1-4.6v-9.3c0-3,0.1-6.1-0.1-9.2l-0.3-9.2
				c-0.1-3-0.1-6.1-0.4-9.2c-1.5-24.7-4.6-49.2-9.5-73.3c-4.8-24.2-11.5-48-19.7-71.2l-1.5-4.4l-0.8-2.2l-0.8-2.2l-3.4-8.6
				c-2.1-5.8-4.7-11.4-7.1-17.1l-1.8-4.3c-0.6-1.4-1.3-2.8-1.9-4.2l-3.9-8.4c-1.3-2.8-2.5-5.7-4.2-8.2
				C570.7,184.8,569.8,183.6,568.5,182.5c-1.1-0.9-2.5-1.6-4-1.9C566,180.9,567.5,181.5,568.5,182.5z"/>
		</g>
		<g>
			<path class="st1" d="M609.5,256.8c1.8,2.2,3.6,4.5,5.4,6.8l5.3,6.9l5.1,7l5,7.1l4.8,7.3l4.7,7.3l4.5,7.4c1.5,2.5,2.9,5,4.4,7.5
				c5.7,10.1,11.1,20.4,15.8,31c-5.8-10.1-11.7-20.1-17.8-29.9c-1.5-2.4-3.1-4.8-4.6-7.3l-4.7-7.3l-4.8-7.2l-4.9-7.2l-4.9-7.1
				l-5-7.1l-5.1-7c-1.8-2.3-3.5-4.7-5.2-7c-7-9.2-14.2-18.3-21.4-27.4C594.3,238.8,602,247.5,609.5,256.8z"/>
		</g>
		<g>
			<path class="st1" d="M623.4,302.5c3.4,4.3,6.8,8.7,10.2,13l10.1,13.1l10,13.2c3.2,4.5,6.6,8.8,9.8,13.3
				c6.5,8.9,13,17.9,18.1,27.7c-6.1-9.2-13-17.7-19.9-26.3c-3.4-4.3-6.8-8.7-10.2-13l-10.1-13.1l-10-13.2c-3.2-4.5-6.6-8.8-9.8-13.3
				c-6.6-8.9-12.7-18-20.2-26.1C609.7,285.1,616.5,293.9,623.4,302.5z"/>
		</g>
		<g>
			<path class="st1" d="M625.4,334.3c3.5,4.6,6.9,9.3,10.3,14l10.2,14.1l10,14.2c3.3,4.8,6.7,9.5,9.9,14.3s6.5,9.6,9.7,14.4
				c3.2,4.9,6.3,9.8,8.7,15.1c-3-4.9-6.4-9.6-9.9-14.2s-7-9.2-10.4-13.9c-3.5-4.6-6.9-9.3-10.3-14l-10.2-14.1l-10-14.2
				c-3.3-4.8-6.6-9.5-9.9-14.3c-6.5-9.5-13-19.1-19.2-28.9C611.6,315.8,618.6,325,625.4,334.3z"/>
		</g>
		<g>
			<path class="st1" d="M633.2,366.6c3.4,4.8,6.7,9.6,10,14.4l9.8,14.5l9.7,14.6c3.2,4.9,6.5,9.8,9.6,14.7
				c6.3,9.8,12.5,19.7,18.5,29.7c-7-9.4-13.8-18.8-20.5-28.4c-3.4-4.8-6.7-9.6-10-14.4l-9.8-14.5l-9.7-14.6
				c-3.2-4.9-6.5-9.8-9.6-14.7c-6.4-9.8-12.6-19.7-18.6-29.7C619.6,347.5,626.4,357,633.2,366.6z"/>
		</g>
		<g>
			<path class="st1" d="M630.7,387.1c1.4,2.2,2.8,4.3,4.2,6.5l4.1,6.5l8,13.2l4,6.6l4,6.5l4.1,6.5l4.3,6.4
				c5.8,8.4,12.1,16.5,19.3,23.9c-8-6.5-15-14.3-21.2-22.6c-1.5-2.1-3-4.2-4.5-6.3l-4.3-6.4l-4.1-6.5l-4-6.6l-7.9-13.3l-3.9-6.6
				c-1.4-2.2-2.7-4.4-4-6.6c-5.4-8.7-11.1-17.3-17.4-25.4C618.7,370.2,624.9,378.5,630.7,387.1z"/>
		</g>
		<g>
			<path class="st1" d="M632,409.3c3.6,8.6,6.6,17.4,10.8,25.5c2.1,4.1,4.4,8.1,6.8,12c2.3,4,4.9,7.8,7.3,11.8
				c4.9,7.9,9.7,15.9,14.3,24c-5.6-7.5-10.9-15.1-16.2-22.7c-2.7-3.8-5.2-7.7-7.8-11.6c-2.5-3.9-4.9-7.9-7.1-12.1
				c-2.1-4.2-4-8.5-5.6-12.9c-1.7-4.3-3.2-8.7-4.7-13.1c-3-8.7-6.3-17.4-11.4-25.2C624.5,392.1,628.5,400.7,632,409.3z"/>
		</g>
		<g>
			<path class="st1" d="M616.3,423.4l4.5,8.8c0.8,1.5,1.5,2.9,2.3,4.4l2.3,4.4l2.3,4.4l2.3,4.4l4.6,8.7c3.1,5.9,6.2,11.7,9.2,17.6
				c-4-5.3-7.7-10.8-11.2-16.4c-1.8-2.8-3.4-5.6-5.1-8.5c-1.7-2.9-3.2-5.8-4.8-8.7c-1.5-3-3-5.9-4.4-8.9s-2.8-6-4.1-9
				c-2.6-6.1-5-12.3-7-18.6C610.4,411.9,613.4,417.7,616.3,423.4z"/>
		</g>
		<g>
			<path class="st1" d="M610.7,353.1c0.3,0.1,0.5,0.4,0.7,0.6c0.4,0.5,0.6,1.1,0.8,1.7c0.2,1.2,0.3,2.4,0.4,3.6l0.3,3.6l0.2,3.6
				l0.2,3.6l0.1,3.6c0.1,2.4,0,4.8,0,7.2c-0.1,1.2-0.1,2.4-0.1,3.6l-0.2,3.6c-0.1,2.4-0.3,4.8-0.5,7.2c-0.4,4.8-0.9,9.6-1.5,14.3
				c-0.7,4.8-1.4,9.5-2.2,14.2c-0.8,4.6-1.7,9.3-2.7,14c-2,9.3-4.2,18.6-6.7,27.8c1.3-9.4,2.9-18.8,4.4-28.2
				c0.7-4.7,1.5-9.4,2.2-14.1c0.7-4.7,1.4-9.4,2-14.1c0.7-4.7,1.2-9.4,1.7-14.1c0.3-2.4,0.5-4.7,0.7-7.1s0.4-4.7,0.5-7.1l0.2-3.5
				l0.2-3.6l0.2-3.6l0.1-3.6l0.1-3.6v-3.6c0-1.1,0.1-2.4,0-3.5c0-0.5-0.2-1.1-0.5-1.6c-0.1-0.3-0.3-0.5-0.6-0.6
				c-0.2-0.2-0.5-0.1-0.8,0C610.1,353.2,610.4,353.1,610.7,353.1z"/>
		</g>
		<g>
			<path class="st1" d="M601.3,381.8c-0.6,8.7-1.9,17.2-3.3,25.7c-0.7,4.2-1.5,8.5-2.4,12.7c-0.9,4.2-1.8,8.4-2.9,12.6
				c-1.1,4.2-2.3,8.4-4,12.4c-1.7,4-4,7.8-7,10.9c2.5-3.5,4.3-7.4,5.6-11.4c1.4-4,2.3-8.2,3.1-12.4s1.7-8.4,2.4-12.6
				c0.8-4.3,1.6-8.5,2.3-12.7s1.4-8.5,2.1-12.7c0.7-4.2,1.3-8.5,1.9-12.7c1.1-8.4,1.7-17,1.6-25.6
				C602.1,364.6,602,373.3,601.3,381.8z"/>
		</g>
		<g>
			<path class="st1" d="M581.9,397.5c-0.7,3.6-1.6,7.3-2.4,10.9c-0.9,3.6-1.9,7.2-2.9,10.8c-1.1,3.6-2.2,7.1-3.3,10.7
				c-1.2,3.6-2.4,7.1-3.7,10.6c-2.5,7-5.4,13.9-8.7,20.6c2.1-7.1,4.3-14.2,6.5-21.3l3.2-10.7l1.6-5.3l1.5-5.3l1.5-5.3l1.5-5.4
				l2.9-10.7c1.9-7.2,3.8-14.4,5.7-21.6C584.5,382.9,583.3,390.3,581.9,397.5z"/>
		</g>
		<g>
			<path class="st1" d="M565.9,394c-0.8,3.7-1.7,7.4-2.6,11.1c-0.9,3.7-2,7.4-3,11c-1.1,3.6-2.2,7.2-3.4,10.8
				c-1.3,3.6-2.5,7.2-3.9,10.7c-2.7,7.1-5.7,14-9.1,20.8l6.9-21.6l3.4-10.8l1.7-5.4l1.6-5.4l1.6-5.4l1.6-5.4l3-10.9l5.9-21.9
				C568.8,379.1,567.5,386.6,565.9,394z"/>
		</g>
	</g>
</g>
</svg>
