<?xml version="1.0" encoding="utf-8"?>
<!-- Generator: Adobe Illustrator 22.0.1, SVG Export Plug-In . SVG Version: 6.00 Build 0)  -->
<svg version="1.1" id="圖層_1" xmlns="http://www.w3.org/2000/svg" xmlns:xlink="http://www.w3.org/1999/xlink" x="0px" y="0px"
	 viewBox="0 0 750 700" style="enable-background:new 0 0 750 700;" xml:space="preserve">
<style type="text/css">
	.st0{fill:#534741;}
	.st1{fill:#B58647;}
	.st2{fill:#F2EEDD;}
</style>
<g>
	<g>
		<g>
			<path class="st0" d="M676.9,587.8c-5.4-5.6-10.5-11.4-15.6-17.3c-5-5.9-9.9-12-14.6-18.2c-2.4-3.2-4.7-6.3-6.9-9.5
				s-4.3-6.5-6.1-10s-3.4-7.1-4.7-10.8c-1.2-3.7-2.1-7.7-1.8-11.6h0.3c0.4,1.9,0.7,3.8,1.4,5.6l0.5,1.3l0.5,1.3l0.5,1.3l0.6,1.3
				c1.6,3.4,3.5,6.8,5.4,10.1c3.9,6.5,7.9,13.1,12.3,19.5c4.4,6.3,9,12.5,13.8,18.6c4.7,6.1,9.6,12.1,14.6,18L676.9,587.8z"/>
		</g>
		<g>
			<path class="st0" d="M585.6,602.5l-4.6-21.7l-4.5-21.7c-1.4-7.2-3.2-14.4-4.3-21.7c-1.1-7.4-2.2-14.7-2.7-22.1l0.3-0.1
				c2.2,7.2,3.9,14.4,5.4,21.6c1.6,7.3,2.6,14.6,3.8,21.9l3.6,21.9l3.5,21.9L585.6,602.5z"/>
		</g>
		<g>
			<path class="st1" d="M432,604.5c-2.5-11.5-2.5-581.5,0-590s8.4-2.6,8.4-2.6V606C440.4,606,434.5,616,432,604.5z"/>
			<path class="st0" d="M441,606.7c0.1,0.4,0.2,0.7,0.2,1c0.1,0.6,0.1,1.2,0,1.8c-0.2,1.2-0.7,2.3-1.8,3.2c-0.6,0.4-1.4,0.9-2.4,1.1
				c-1,0.3-2.4,0.2-3.5-0.3c-0.6-0.2-1-0.5-1.5-0.8c-0.3-0.3-0.8-0.6-1-0.9c-0.3-0.3-0.5-0.6-0.7-0.9c-0.2-0.3-0.4-0.6-0.5-0.9
				c-0.6-1.2-0.9-2.2-1.2-3.1c-0.2-0.5-0.3-0.9-0.4-1.4l-0.1-0.3l-0.1-0.5l-0.1-0.9c-0.2-1.8-0.2-3.4-0.3-5
				c-0.2-6.5-0.3-12.9-0.4-19.3c-0.3-12.9-0.4-25.7-0.5-38.5c-0.2-25.6-0.2-51.3-0.3-76.9c0-51.3,0.3-102.6,0.6-153.8l1.4-153.7
				l0.8-76.9l0.5-38.4c0.1-6.4,0.2-12.8,0.4-19.2l0.2-4.8c0-0.4,0.1-0.8,0.1-1.2v-0.6c0.1-0.2,0.1-0.4,0.1-0.7l0.1-0.8l0.2-0.6
				c0.2-0.5,0.3-0.9,0.5-1.3c0.4-0.8,0.9-1.7,1.7-2.4c0.7-0.7,2-1.3,3.1-1.3c1.2-0.1,2.2,0.3,3.1,0.7c0.9,0.5,1.5,1,2.3,1.7l0.4,0.4
				v0.6v148.6l0.3,148.7l0.2,148.7l-0.1,74.3v37.2v18.6v9.3c-0.1,1.5,0,3.1-0.1,4.6c-0.1,1.6-0.6,3-1.8,4.2
				C440.5,606.3,440.7,606.7,441,606.7z M438.7,601c-0.1-1.6-0.1-3.1-0.1-4.7V587v-18.6v-37.1l-0.1-74.2l0.2-148.4l0.3-148.4V11.9
				l0.4,1.1c-0.9-0.8-2.2-1.6-3.1-1.5c-0.5,0-0.8,0.1-1.2,0.5c-0.4,0.3-0.7,0.9-1,1.5c-0.2,0.3-0.3,0.7-0.4,1l-0.2,0.5
				c0,0.1,0,0.3,0,0.4s0,0.3,0,0.5v0.6c-0.1,0.4-0.1,0.8-0.1,1.2l-0.2,4.8c-0.1,6.4-0.2,12.8-0.3,19.2l-0.3,38.4
				c-0.1,25.7,0,51.3,0,76.9c0.2,51.2,0.5,102.5,0.9,153.7l1.1,153.7l0.6,76.8c0.1,12.8,0.2,25.6,0.4,38.4
				c0.1,6.4,0.2,12.8,0.4,19.1c0,1.6,0.1,3.2,0.2,4.6c0,0.1,0,0.2,0,0.3v0.1l0.1,0.2c0,0.3,0.1,0.6,0.2,0.9c0.1,0.6,0.3,1.1,0.5,1.4
				s0.4,0.2-0.4-0.2c-0.4-0.1-0.9-0.2-1.2-0.1c-0.3,0-0.3,0.2-0.2,0.2c0.2,0.1,0.8,0.1,1.7,0c0.4,0,0.9-0.1,1.5-0.1c0.5,0,1.2,0,2,0
				C439.1,604.1,438.7,602.5,438.7,601z"/>
		</g>
		<g>
			<polygon class="st0" points="303.3,265 94.4,603.2 92.5,602.3 140.4,473.6 164.3,409.3 188.4,345.1 200.4,312.9 212.5,280.8 
				236.8,216.6 261.2,152.5 285.9,88.4 286.1,88.6 262.6,153 239,217.4 215.1,281.8 203.2,314 191.2,346.1 167.1,410.4 142.9,474.6 
				94.5,603 92.6,602.1 303,264.8 			"/>
		</g>
		<g>
			<path class="st0" d="M306,336l-52.5,67l-52.7,67c-17.6,22.4-35,44.8-52.9,66.9c-18,22-35.8,44.1-54.2,65.8l-0.2-0.2
				c17-22.7,34.5-45.1,52-67.5c17.5-22.3,35.5-44.4,53.3-66.5l53.4-66.4l53.6-66.3L306,336z"/>
		</g>
		<g>
			<path id="flagArea" class="st2" d="M279.2,524c60.2-163.1-0.3-433-0.3-433s-0.2-1.1-0.7-3.1C339,79,519.2,54.5,604,64.3
				c0.4,0.3,110.4,85.9,137.7,441.4c-0.5,0-0.9,0-0.9,0s-15.2,0.6-40.1,1.6C602.8,511.2,354,521.1,279.2,524z"/>
			<g>
				<path class="st0" d="M595.4,512l-105.3,4.6l-105.3,4.6l-105.4,4.4l-2.2,0.1l0.8-2.1c12.4-34.4,19.3-70.7,22.9-107.1l0.7-6.8
					c0.2-2.2,0.5-4.5,0.6-6.8l1-13.7c0.3-4.5,0.5-9.1,0.7-13.7c0.1-2.3,0.2-4.6,0.3-6.9l0.2-6.9l0.2-6.9l0.1-3.4V348v-13.8
					c-0.2-9.2-0.2-18.3-0.6-27.5c-0.6-18.4-1.7-36.7-3.2-55s-3.4-36.6-5.6-54.8c-2.2-18.2-4.8-36.4-7.8-54.5c-1.4-9-3-18.1-4.7-27.1
					c-1.7-9.1-3.5-18.1-5.5-27L277,87l1.3-0.2c54-7.9,108.2-14.6,162.5-19.5c27.2-2.5,54.4-4.5,81.7-5.5c3.4-0.2,6.8-0.2,10.2-0.3
					l10.2-0.2l5.1-0.1h5.1h10.2h5.1l5.1,0.2l10.2,0.4c3.4,0,6.8,0.4,10.2,0.7l10.2,0.9h0.2l0.2,0.2c7.6,6.5,13.9,14,19.9,21.8
					c6,7.8,11.5,16,16.7,24.3c10.3,16.8,19.2,34.3,27.1,52.3c7.9,18,14.8,36.4,21,55l2.3,7l1.1,3.4l1.1,3.5L698,245l4,14.2
					c0.7,2.4,1.4,4.7,2,7.1l1.8,7.1c9.7,38,17.2,76.5,23,115.3s10,77.8,13.1,116.9v0.2h-0.2l-41,1.6L595.4,512z M741.6,505.5
					l-0.1,0.2c-3-39.1-7.2-78.1-13.2-116.9c-0.6-4.8-1.5-9.7-2.3-14.5l-2.4-14.5c-0.9-4.9-1.8-9.7-2.7-14.5c-1-4.8-1.8-9.6-2.8-14.4
					l-3-14.4l-1.5-7.2l-1.7-7.2l-3.4-14.3c-1.2-4.7-2.5-9.5-3.7-14.2l-1.8-7.1c-0.6-2.4-1.3-4.7-2-7.1l-4-14.1l-4.3-14l-1.1-3.5
					l-1.2-3.5l-2.3-7c-6.3-18.6-13.2-36.9-21.2-54.8c-7.9-17.9-16.9-35.3-27.1-52c-5.2-8.2-10.6-16.4-16.6-24.1
					c-2.9-3.9-6.1-7.6-9.3-11.3c-3.3-3.6-6.7-7.2-10.4-10.2l0.4,0.2l-10.2-0.9c-3.4-0.3-6.8-0.6-10.2-0.7l-10.2-0.4l-5.1-0.2h-5.1
					h-10.2h-5.1l-5.1,0.1l-10.1,0.4c-3.4,0.1-6.8,0.1-10.2,0.3c-27.3,1-54.5,3.1-81.6,5.6c-54.3,5-108.4,11.8-162.3,19.5l1-1.4
					c2,8.9,3.8,18,5.5,27c1.7,9.1,3.3,18.1,4.8,27.2c3,18.2,5.7,36.4,8,54.6c2.3,18.3,4.3,36.6,5.8,54.9c1.6,18.3,2.7,36.7,3.3,55.1
					c0.4,9.2,0.5,18.4,0.6,27.6v13.8v3.5l-0.1,3.4l-0.2,6.9l-0.2,6.9c-0.1,2.3-0.2,4.6-0.3,6.9c-0.3,4.6-0.4,9.2-0.7,13.8l-1,13.8
					c-0.1,2.3-0.4,4.6-0.6,6.9l-0.7,6.9c-3.6,36.6-10.6,73.1-23.1,107.9l-1.5-2l105.4-3.9l105.4-3.7l105.4-3.8l105.4-4L741.6,505.5z
					"/>
			</g>
		</g>
	</g>
	<g>
		<g>
			<path class="st0" d="M713,485.9c-0.6,3-1.6,5.8-2.9,8.5c-1.3,2.7-2.9,5.2-4.8,7.5c-1.9,2.3-4.1,4.4-6.6,6
				c1.7-2.5,3.3-4.8,4.7-7.3c1.4-2.5,2.8-5,4-7.5c1.2-2.5,2.3-5.1,3.3-7.8c1-2.6,1.9-5.4,2.8-8.2C713.9,480.1,713.6,483,713,485.9z"
				/>
		</g>
		<g>
			<path class="st0" d="M700.8,480.1c-0.8,3-1.7,5.9-2.7,8.8c-1,2.8-2,5.8-3.7,8.6c-0.8,1.4-1.8,2.7-3,3.8c-1.2,1-2.7,1.9-4.2,2.2
				c2.6-1.9,4.1-4.4,5.2-7.1c1.2-2.7,2-5.6,3-8.5s2.1-5.8,3.3-8.6s2.5-5.6,4.1-8.3C702.4,474.1,701.7,477.1,700.8,480.1z"/>
		</g>
		<g>
			<path class="st0" d="M690.6,458.7c-0.3,2.5-0.9,4.9-1.5,7.3c-1.1,4.9-2.6,9.6-4.3,14.3c-0.9,2.3-1.8,4.6-2.8,6.9s-2,4.6-3.1,6.8
				c-2.2,4.5-4.6,8.8-7.5,12.9c1.7-4.7,3.6-9.2,5.4-13.8c0.8-2.3,1.8-4.6,2.6-6.9c0.9-2.3,1.8-4.6,2.6-6.9c0.9-2.3,1.7-4.6,2.5-6.9
				s1.6-4.7,2.4-7c0.8-2.4,1.7-4.7,2.3-7c0.7-2.3,1.1-4.7,0.6-7.2C690.9,453.5,691,456.2,690.6,458.7z"/>
		</g>
		<g>
			<path class="st0" d="M673.9,429.5c0.4,0.3,0.6,0.7,0.8,1.1c0.4,0.8,0.5,1.8,0.6,2.6c0.2,1.7,0.3,3.4,0.4,5.1
				c0.2,3.4,0.3,6.8,0.2,10.2c0,3.4-0.3,6.8-0.6,10.2c-0.4,3.4-0.9,6.8-1.6,10.2c-0.7,3.3-1.7,6.7-2.8,9.9c-1.2,3.2-2.6,6.4-4.2,9.4
				c-3.3,6-7.5,11.6-12.7,16c4.4-5.3,7.9-11,10.6-17.1c1.4-3,2.6-6.1,3.6-9.3c1.1-3.1,1.9-6.3,2.6-9.6s1.2-6.6,1.7-9.9
				s0.8-6.7,1.1-10c0.3-3.4,0.5-6.7,0.7-10.1l0.3-5.1c0-0.8,0-1.6-0.2-2.4c-0.1-0.8-0.6-1.6-1.5-1.7
				C673.4,429,673.8,429.2,673.9,429.5z"/>
		</g>
		<g>
			<path class="st0" d="M656.1,435.4c0.3,0.2,0.6,0.6,0.8,1c0.3,0.8,0.5,1.6,0.6,2.5c0,1.7,0,3.3,0,5c-0.1,3.3-0.3,6.7-0.7,10
				s-1,6.6-1.7,9.9c-0.7,3.3-1.6,6.5-2.6,9.7c-1.1,3.1-2.2,6.3-3.5,9.4c-1.4,3.1-2.8,6.2-4.4,9.1c-1.5,3-3.3,5.9-5.5,8.5
				c-2.2,2.5-4.9,4.8-8.1,5.9c2.8-1.7,5.1-4.1,6.9-6.8c1.8-2.7,3.2-5.6,4.6-8.6c2.8-5.9,5.1-12,7.1-18.3c2-6.3,3.6-12.6,4.8-19.1
				c0.5-3.3,1.1-6.5,1.5-9.8c0.3-1.6,0.4-3.3,0.6-4.9c0.1-0.7,0-1.5-0.2-2.3c-0.2-0.7-0.7-1.4-1.6-1.5
				C655.1,435,655.5,435.1,656.1,435.4z"/>
		</g>
		<g>
			<path class="st0" d="M630.6,461.2c-0.3,1.3-0.6,2.6-0.9,3.9l-1,3.9c-0.3,1.3-0.7,2.6-1.1,3.9l-1.2,3.8l-1.3,3.8l-1.4,3.7
				c-1,2.4-2,4.9-3.2,7.3c-2.3,4.8-5,9.5-8,13.9c1.9-5,3.9-9.9,5.8-14.8c0.5-1.2,0.9-2.5,1.4-3.7l1.3-3.7l1.3-3.7l1.3-3.7l1.2-3.7
				c0.4-1.3,0.8-2.6,1.2-3.8l1.2-3.8c0.3-1.3,0.7-2.5,1.1-3.8c1.5-5.1,2.9-10.2,4.3-15.3C632.4,450.8,631.7,456.1,630.6,461.2z"/>
		</g>
		<g>
			<path class="st0" d="M614.1,446.4c-0.3,3.1-1.1,6.2-1.8,9.2c-1.4,6.1-3.3,12-5.3,17.9c-1.1,2.9-2.2,5.8-3.4,8.7
				c-1.2,2.8-2.4,5.7-3.8,8.5c-2.6,5.6-5.6,11.1-9,16.3l6.9-17.2c1.1-2.9,2.3-5.7,3.3-8.6c1.1-2.9,2.2-5.8,3.2-8.7
				c1-2.9,2-5.8,3-8.7s1.9-5.9,2.9-8.8c0.9-2.9,2-5.8,2.6-8.8c0.7-3,0.9-6.1,0.2-9.1C614.3,439.9,614.5,443.2,614.1,446.4z"/>
		</g>
		<g>
			<path class="st0" d="M590.9,458.5c-0.2,3.1-0.7,6.1-1.1,9.2c-0.2,1.6-0.5,3.1-0.8,4.6l-0.9,4.5l-1.2,4.5c-0.4,1.5-0.8,3-1.3,4.5
				l-1.6,4.4c-0.6,1.5-1.2,2.9-1.8,4.3c-2.5,5.6-5.8,11-9.9,15.6c3.1-5.3,5.7-10.8,7.8-16.5l1.5-4.3l1.3-4.3l1.2-4.4l1.1-4.4l1-4.4
				l0.9-4.5l0.8-4.5c0.3-1.5,0.5-3,0.8-4.5c1-6,1.9-12.1,3.1-18.1C591.9,446.4,591.6,452.5,590.9,458.5z"/>
		</g>
		<g>
			<path class="st0" d="M573.9,428L573.9,428l0.2,0.1c1.8,3.2,2.6,7,2.9,10.7c0.3,3.7,0,7.4-0.4,11.1c-0.5,3.6-1,7.3-1.7,10.9
				c-0.7,3.6-1.5,7.2-2.4,10.8c-1.7,7.1-3.7,14.2-5.9,21.2c-1.1,3.5-2.4,7-4.2,10.3c-1.8,3.3-4,6.3-6.8,8.7c4.7-5.7,7-12.7,8.8-19.7
				l5.3-21.3c0.8-3.5,1.7-7,2.4-10.6s1.4-7.1,2-10.7c0.6-3.5,1-7.1,1.1-10.7c0-3.6-0.4-7.2-1.7-10.6l0.2,0.1l-2.9-0.4L573.9,428z"/>
		</g>
		<g>
			<path class="st0" d="M551.5,448.7c-0.1,1.5-0.4,2.9-0.6,4.4c-0.5,2.9-1,5.7-1.7,8.6c-0.6,2.8-1.4,5.7-2.2,8.5
				c-0.9,2.8-1.8,5.6-2.7,8.4c-1,2.8-2,5.6-3.1,8.3c-0.5,1.4-1.1,2.8-1.7,4.1c-0.5,1.3-1.2,2.7-1.8,4c-2.5,5.3-5.3,10.5-8.5,15.4
				l6.3-16.4c1-2.7,2-5.5,3-8.2s2-5.4,2.9-8.2c2-5.5,3.7-11,5.5-16.6c0.9-2.8,1.8-5.6,2.6-8.4c0.4-1.4,0.9-2.8,1.2-4.2
				c0.3-1.4,0.5-2.9,0.1-4.3C551.4,445.4,551.6,447,551.5,448.7z"/>
		</g>
		<g>
			<path class="st0" d="M524.4,463.7c-1.3,5.4-3,10.6-4.9,15.7c-0.9,2.5-1.9,5.1-2.9,7.6c-1.1,2.5-2.1,5.1-3.4,7.5
				c-2.5,4.9-5.6,9.7-9.7,13.3c3.2-4.4,5.6-9.2,7.6-14.2c1-2.5,2-5,2.9-7.6l2.8-7.6c1-2.5,1.9-5.1,2.8-7.6c1-2.5,1.8-5,2.7-7.6
				c1.6-5.2,3.1-10.3,4.2-15.7C526.6,452.9,525.8,458.4,524.4,463.7z"/>
		</g>
		<g>
			<path class="st0" d="M506.4,456.4c-0.4,3-1.2,5.9-2.1,8.7c-0.8,2.8-1.8,5.6-2.8,8.4c-1,2.8-2.1,5.6-3.2,8.3
				c-1.2,2.7-2.4,5.4-3.6,8.1c-1.3,2.7-2.6,5.4-4,8c-2.7,5.2-5.8,10.3-9.2,15.2c2.3-5.4,4.7-10.8,7.1-16.2
				c2.3-5.4,4.7-10.8,6.9-16.2c2.3-5.5,4.4-10.9,6.6-16.4c1.1-2.8,2.1-5.5,2.9-8.3c0.8-2.8,1.2-5.7,1-8.7
				C506.9,450.1,506.8,453.2,506.4,456.4z"/>
		</g>
		<g>
			<path class="st0" d="M477,465.2c0.2,0,0.4,0,0.5,0.1c0.3,0.2,0.5,0.4,0.7,0.7c0.2,0.3,0.3,0.6,0.4,1c0,0.4,0,0.7,0,1
				c0.1,1.2,0,2.5,0,3.7c-0.1,2.5-0.4,5-0.9,7.4c-1,4.9-2.6,9.6-4.4,14.2c-1.9,4.6-4,9-6.4,13.4c-1.2,2.2-2.6,4.3-4.5,6.1
				c-1,0.9-2,1.7-3.2,2.2c-1.2,0.6-2.5,0.8-3.7,0.7c2.5-0.4,4.4-2,5.8-3.8c1.4-1.9,2.5-4,3.5-6.2l2.9-6.7c0.9-2.2,1.9-4.4,2.8-6.7
				s1.8-4.5,2.6-6.8c0.9-2.3,1.6-4.6,2.3-6.9c0.6-2.3,1.2-4.6,1.7-7l0.4-1.8l0.3-1.8c0-0.3,0.1-0.7,0.1-0.9c0-0.3,0-0.5-0.1-0.8
				c-0.1-0.2-0.2-0.5-0.4-0.7c-0.1-0.1-0.3-0.2-0.4-0.2c-0.2,0-0.3,0.1-0.4,0.2C476.7,465.4,476.8,465.3,477,465.2z"/>
		</g>
		<g>
			<path class="st0" d="M447.6,485.4c-0.5,3.1-1.5,6.1-2.7,9c-1.3,2.9-2.9,5.7-4.8,8.2c-1.9,2.5-4.1,4.8-6.7,6.6
				c1.6-2.7,3.2-5.3,4.7-7.9c1.5-2.7,2.8-5.4,4-8.1c1.2-2.7,2.3-5.5,3.2-8.4c0.9-2.8,1.7-5.8,2.5-8.8
				C448.3,479.1,448.1,482.2,447.6,485.4z"/>
		</g>
		<g>
			<path class="st0" d="M415.7,483.9c-1.1,2.8-2.5,5.4-4,8c-1.6,2.5-3.3,5-5.3,7.2s-4.1,4.3-6.6,6c1.5-2.6,3.1-5.1,4.7-7.5
				c1.6-2.5,3.1-4.9,4.6-7.4s2.9-5,4.4-7.5c1.4-2.5,2.8-5,4.4-7.6C417.5,478,416.6,480.9,415.7,483.9z"/>
		</g>
		<g>
			<path class="st0" d="M396.4,483.4c-0.6,2-1.3,3.9-2,5.8c-0.8,1.9-1.6,3.7-2.5,5.6c-1.8,3.7-4,7.2-6.6,10.4c-2.6,3.1-5.7,6-9.2,8
				c2.8-3,5.2-6.1,7.4-9.4c2.2-3.3,4-6.8,5.8-10.3l1.3-2.7l1.2-2.7l1.2-2.7c0.4-0.9,0.8-1.8,1.2-2.7c1.6-3.6,3.2-7.4,5-11
				C398.5,475.8,397.6,479.7,396.4,483.4z"/>
		</g>
		<g>
			<path class="st0" d="M435.6,478.9c-0.3,1.2-0.6,2.5-0.9,3.7l-1.1,3.6c-0.4,1.2-0.9,2.4-1.3,3.6l-1.5,3.5l-1.7,3.4l-1.8,3.3
				l-2,3.2c-0.7,1-1.5,2.1-2.2,3.1c-3,4.1-6.5,7.8-10.4,10.9c3.1-4,5.9-8,8.5-12.2c0.6-1.1,1.3-2.2,1.9-3.2l1.8-3.2l1.7-3.3l1.6-3.3
				l1.5-3.4c0.4-1.1,0.8-2.3,1.3-3.4l1.3-3.5c0.3-1.2,0.7-2.3,1.1-3.5c1.4-4.7,2.6-9.5,3.6-14.4
				C437.2,468.8,436.7,473.9,435.6,478.9z"/>
		</g>
		<g>
			<path class="st0" d="M375.7,492.8c-0.8,3.2-2.1,6.3-3.8,9.1c-1.7,2.8-3.8,5.5-6.2,7.7c-2.4,2.3-5.1,4.2-8.1,5.5
				c2.3-2.3,4.4-4.6,6.4-7c1.9-2.4,3.7-4.9,5.3-7.6c1.6-2.7,3-5.4,4.2-8.3s2.2-5.9,3.1-9C376.9,486.5,376.5,489.8,375.7,492.8z"/>
		</g>
		<g>
			<path class="st0" d="M353.2,494.2c-1.1,3.3-2.3,6.5-3.7,9.6s-2.8,6.2-4.5,9.2s-3.4,5.9-5.5,8.7c1-3.3,2.2-6.5,3.4-9.7
				c1.2-3.2,2.6-6.3,3.9-9.4c1.3-3.1,2.7-6.1,4.2-9.2s3-6.1,4.8-9.1C355.2,487.7,354.3,491,353.2,494.2z"/>
		</g>
		<g>
			<path class="st0" d="M374.1,96.6c2.2,2.8,4.1,5.8,5.6,9s2.6,6.6,3.3,10.1s1,7,0.6,10.5c-0.8-3.4-1.7-6.7-2.8-9.9
				c-1.1-3.2-2.4-6.4-3.8-9.4c-1.4-3.1-3-6-4.8-8.9s-3.7-5.7-5.8-8.5C369.4,91.5,371.9,93.9,374.1,96.6z"/>
		</g>
		<g>
			<path class="st0" d="M363.5,105.2c0.7,1.5,1.5,3,2.2,4.5l2.1,4.6c0.6,1.5,1.2,3.1,1.8,4.6l1.7,4.7l1.5,4.8l1.3,4.8l1.1,4.9
				c0.4,1.6,0.6,3.3,0.9,4.9c1,6.6,1.4,13.3,1.1,19.9c-0.9-6.5-2-13-3.4-19.4c-0.4-1.6-0.7-3.2-1.1-4.8l-1.2-4.7l-1.5-4.7l-1.5-4.7
				l-1.6-4.6c-0.5-1.5-1.1-3.1-1.7-4.6l-1.8-4.6c-0.6-1.5-1.3-3-1.9-4.5c-2.7-6-5.6-11.9-8.8-17.7
				C356.9,93.8,360.5,99.4,363.5,105.2z"/>
		</g>
		<g>
			<path class="st0" d="M348.4,103.1c0.6,0.2,1.1,0.6,1.6,1c1,0.8,1.6,1.9,2.1,3c0.6,1.1,0.9,2.3,1.2,3.4c0.3,1.1,0.6,2.2,0.9,3.3
				c0.7,2.2,1.2,4.5,1.8,6.7l1.6,6.7l1.4,6.8c0.5,2.3,0.9,4.5,1.3,6.8c0.8,4.6,1.5,9.2,1.9,13.8c-1.7-4.4-3-8.8-4.2-13.3
				c-0.7-2.2-1.2-4.5-1.8-6.7l-1.6-6.7l-1.4-6.8c-0.5-2.3-0.9-4.5-1.3-6.8c-0.2-1.1-0.4-2.3-0.6-3.4c-0.1-1.2-0.3-2.2-0.6-3.3
				s-0.7-2.1-1.3-3s-1.5-1.5-2.7-1.6C347.3,102.9,347.9,102.9,348.4,103.1z"/>
		</g>
		<g>
			<path class="st0" d="M346.3,130c0.6,1.9,1,3.7,1.5,5.6c0.4,1.9,0.8,3.8,1.1,5.7c0.6,3.8,1,7.7,1,11.5c0,3.9-0.2,7.7-0.9,11.5
				c-0.5-3.8-0.9-7.6-1.4-11.3c-0.5-3.8-1-7.5-1.6-11.2l-0.4-2.8c-0.2-1-0.4-1.9-0.5-2.8l-1-5.6c-0.7-3.7-1.4-7.4-2.1-11.2
				C343.8,122.7,345.2,126.3,346.3,130z"/>
		</g>
		<g>
			<path class="st0" d="M337.7,142.5c0.6,1.9,0.9,4,1.1,6c0.1,2,0.1,4.1-0.2,6.1c-0.3,2-0.8,4-1.7,5.9c-0.3-2.1-0.4-4-0.6-6
				l-0.4-5.8l-0.5-5.8c-0.1-1.9-0.3-3.9-0.3-6C336.3,138.7,337.2,140.6,337.7,142.5z"/>
		</g>
		<g>
			<path class="st0" d="M330.7,148.7c0.6,1.4,1,2.8,1.2,4.3c0.2,1.5,0.2,3-0.1,4.5c-0.3,1.5-0.8,2.9-1.7,4.2
				c-0.4-1.5-0.5-2.8-0.7-4.2l-0.5-4l-0.5-4c-0.2-1.4-0.4-2.8-0.4-4.3C329.1,146.2,330,147.5,330.7,148.7z"/>
		</g>
	</g>
</g>
</svg>
