<?xml version="1.0" encoding="utf-8"?>
<!-- Generator: Adobe Illustrator 22.0.1, SVG Export Plug-In . SVG Version: 6.00 Build 0)  -->
<svg version="1.1" id="圖層_1" xmlns="http://www.w3.org/2000/svg" xmlns:xlink="http://www.w3.org/1999/xlink" x="0px" y="0px"
	 viewBox="0 0 750 700" style="enable-background:new 0 0 750 700;" xml:space="preserve">
<style type="text/css">
	.st0{fill:#534741;}
	.st1{fill:#B58647;}
	.st2{fill:#F2EEDD;}
</style>
<g>
	<g>
		<g>
			<path class="st0" d="M80.4,587.4c5-5.9,9.9-11.9,14.6-18c4.8-6.1,9.4-12.3,13.8-18.6c4.4-6.4,8.4-13,12.3-19.5
				c1.9-3.3,3.8-6.7,5.4-10.1l0.6-1.3l0.5-1.3l0.5-1.3l0.5-1.3c0.7-1.8,1-3.7,1.4-5.6h0.3c0.3,3.9-0.6,7.9-1.8,11.6
				c-1.3,3.7-2.9,7.3-4.7,10.8c-1.8,3.5-3.9,6.8-6.1,10s-4.5,6.3-6.9,9.5c-4.7,6.2-9.6,12.3-14.6,18.2c-5.1,5.9-10.2,11.7-15.6,17.3
				L80.4,587.4z"/>
		</g>
		<g>
			<path class="st0" d="M171.4,602.5l3.5-21.9l3.6-21.9c1.2-7.3,2.2-14.6,3.8-21.9c1.5-7.2,3.2-14.4,5.4-21.6l0.3,0.1
				c-0.5,7.4-1.6,14.7-2.7,22.1c-1.1,7.3-2.9,14.5-4.3,21.7l-4.5,21.7l-4.6,21.7L171.4,602.5z"/>
		</g>
		<g>
			<path class="st1" d="M317.1,606V11.9c0,0,5.9-5.9,8.4,2.6s2.5,578.5,0,590S317.1,606,317.1,606z"/>
			<path class="st0" d="M317.1,606c-1.2-1.2-1.7-2.6-1.8-4.2c-0.1-1.5,0-3.1-0.1-4.6v-9.3v-18.6v-37.2l-0.1-74.3l0.2-148.7
				l0.3-148.7V11.8v-0.6l0.4-0.4c0.8-0.7,1.4-1.2,2.3-1.7c0.9-0.4,1.9-0.8,3.1-0.7c1.1,0,2.4,0.6,3.1,1.3c0.8,0.7,1.3,1.6,1.7,2.4
				c0.2,0.4,0.3,0.8,0.5,1.3l0.2,0.6l0.1,0.8c0,0.3,0,0.5,0.1,0.7v0.6c0,0.4,0.1,0.8,0.1,1.2l0.2,4.8c0.2,6.4,0.3,12.8,0.4,19.2
				l0.5,38.4l0.8,76.9l1.4,153.7c0.3,51.2,0.6,102.5,0.6,153.8c-0.1,25.6-0.1,51.3-0.3,76.9c-0.1,12.8-0.2,25.6-0.5,38.5
				c-0.1,6.4-0.2,12.8-0.4,19.3c-0.1,1.6-0.1,3.2-0.3,5l-0.1,0.9l-0.1,0.5l-0.1,0.3c-0.1,0.5-0.2,0.9-0.4,1.4
				c-0.3,0.9-0.6,1.9-1.2,3.1c-0.1,0.3-0.3,0.6-0.5,0.9c-0.2,0.3-0.4,0.6-0.7,0.9c-0.2,0.3-0.7,0.6-1,0.9c-0.5,0.3-0.9,0.6-1.5,0.8
				c-1.1,0.5-2.5,0.6-3.5,0.3c-1-0.2-1.8-0.7-2.4-1.1c-1.1-0.9-1.6-2-1.8-3.2c-0.1-0.6-0.1-1.2,0-1.8c0-0.3,0.1-0.6,0.2-1
				C316.8,606.7,317,606.3,317.1,606z M317.1,606c0.8,0,1.5,0,2,0c0.6,0,1.1,0.1,1.5,0.1c0.9,0.1,1.5,0.1,1.7,0
				c0.1,0,0.1-0.2-0.2-0.2c-0.3-0.1-0.8,0-1.2,0.1c-0.8,0.4-0.6,0.5-0.4,0.2s0.4-0.8,0.5-1.4c0.1-0.3,0.2-0.6,0.2-0.9l0.1-0.2v-0.1
				c0-0.1,0-0.2,0-0.3c0.1-1.4,0.2-3,0.2-4.6c0.2-6.3,0.3-12.7,0.4-19.1c0.2-12.8,0.3-25.6,0.4-38.4l0.6-76.8l1.1-153.7
				c0.4-51.2,0.7-102.5,0.9-153.7c0-25.6,0.1-51.2,0-76.9l-0.3-38.4c-0.1-6.4-0.2-12.8-0.3-19.2l-0.2-4.8c0-0.4,0-0.8-0.1-1.2v-0.6
				c0-0.2,0-0.4,0-0.5s0-0.3,0-0.4l-0.2-0.5c-0.1-0.3-0.2-0.7-0.4-1c-0.3-0.6-0.6-1.2-1-1.5c-0.4-0.4-0.7-0.5-1.2-0.5
				c-0.9-0.1-2.2,0.7-3.1,1.5l0.4-1.1v148.4l0.3,148.4l0.2,148.4l-0.1,74.2v37.1V587v9.3c0,1.6,0,3.1-0.1,4.7
				C318.8,602.5,318.4,604.1,317.1,606z"/>
		</g>
		<g>
			<polygon class="st0" points="454.5,264.8 664.9,602.1 663,603 614.6,474.6 590.4,410.4 566.3,346.1 554.3,314 542.4,281.8 
				518.5,217.4 494.9,153 471.4,88.6 471.6,88.4 496.3,152.5 520.7,216.6 545,280.8 557.1,312.9 569.1,345.1 593.2,409.3 
				617.1,473.6 665,602.3 663.1,603.2 454.2,265 			"/>
		</g>
		<g>
			<path class="st0" d="M451.7,335.8l53.6,66.3l53.4,66.4c17.8,22.1,35.8,44.2,53.3,66.5c17.5,22.4,35,44.8,52,67.5l-0.2,0.2
				c-18.4-21.7-36.2-43.8-54.2-65.8c-17.9-22.1-35.3-44.5-52.9-66.9L504,403l-52.5-67L451.7,335.8z"/>
		</g>
		<g>
			<path class="st2" id="flagArea" d="M56.8,507.3c-24.9-1-40.1-1.6-40.1-1.6s-0.4,0-0.9,0C43.1,150.2,153.1,64.6,153.5,64.3
				c84.8-9.8,265,14.7,325.8,23.6c-0.5,2-0.7,3.1-0.7,3.1s-60.5,269.9-0.3,433C403.5,521.1,154.7,511.2,56.8,507.3z"/>
			<g>
				<path class="st0" d="M56.8,507.4l-41-1.6h-0.2v-0.2c3.1-39.1,7.3-78.1,13.1-116.9s13.3-77.3,23-115.3l1.8-7.1
					c0.6-2.4,1.3-4.7,2-7.1l4-14.2l4.3-14.1l1.1-3.5L66,224l2.3-7c6.2-18.6,13.1-37,21-55s16.8-35.5,27.1-52.3
					c5.2-8.3,10.7-16.5,16.7-24.3c6-7.8,12.3-15.3,19.9-21.8l0.2-0.2h0.2l10.2-0.9c3.4-0.3,6.8-0.7,10.2-0.7l10.2-0.4l5.1-0.2h5.1
					h10.2h5.1l5.1,0.1l10.2,0.2c3.4,0.1,6.8,0.1,10.2,0.3c27.3,1,54.5,3,81.7,5.5c54.3,4.9,108.5,11.6,162.5,19.5l1.3,0.2l-0.3,1.3
					c-2,8.9-3.8,17.9-5.5,27c-1.7,9-3.3,18.1-4.7,27.1c-3,18.1-5.6,36.3-7.8,54.5c-2.2,18.2-4.1,36.5-5.6,54.8s-2.6,36.6-3.2,55
					c-0.4,9.2-0.4,18.3-0.6,27.5V348v3.4l0.1,3.4l0.2,6.9l0.2,6.9c0.1,2.3,0.2,4.6,0.3,6.9c0.2,4.6,0.4,9.2,0.7,13.7l1,13.7
					c0.1,2.3,0.4,4.6,0.6,6.8l0.7,6.8c3.6,36.4,10.5,72.7,22.9,107.1l0.8,2.1l-2.2-0.1l-105.4-4.4l-105.3-4.6L162.1,512L56.8,507.4z
					 M56.8,507.1l105.4,4l105.4,3.8l105.4,3.7l105.4,3.9l-1.5,2c-12.5-34.8-19.5-71.3-23.1-107.9l-0.7-6.9c-0.2-2.3-0.5-4.6-0.6-6.9
					l-1-13.8c-0.3-4.6-0.4-9.2-0.7-13.8c-0.1-2.3-0.2-4.6-0.3-6.9l-0.2-6.9l-0.2-6.9l-0.1-3.4v-3.5v-13.8c0.1-9.2,0.2-18.4,0.6-27.6
					c0.6-18.4,1.7-36.8,3.3-55.1c1.5-18.3,3.5-36.6,5.8-54.9c2.3-18.2,5-36.4,8-54.6c1.5-9.1,3.1-18.1,4.8-27.2
					c1.7-9,3.5-18.1,5.5-27l1,1.4c-53.9-7.7-108-14.5-162.3-19.5c-27.1-2.5-54.3-4.6-81.6-5.6c-3.4-0.2-6.8-0.2-10.2-0.3L214.8,63
					l-5.1-0.1h-5.1h-10.2h-5.1l-5.1,0.2L174,63.5c-3.4,0.1-6.8,0.4-10.2,0.7l-10.2,0.9l0.4-0.2c-3.7,3-7.1,6.6-10.4,10.2
					c-3.2,3.7-6.4,7.4-9.3,11.3c-6,7.7-11.4,15.9-16.6,24.1c-10.2,16.7-19.2,34.1-27.1,52c-8,17.9-14.9,36.2-21.2,54.8l-2.3,7
					l-1.2,3.5l-1.1,3.5l-4.3,14l-4,14.1c-0.7,2.4-1.4,4.7-2,7.1l-1.8,7.1c-1.2,4.7-2.5,9.5-3.7,14.2l-3.4,14.3l-1.7,7.2l-1.5,7.2
					l-3,14.4c-1,4.8-1.8,9.6-2.8,14.4c-0.9,4.8-1.8,9.6-2.7,14.5l-2.4,14.5c-0.8,4.8-1.7,9.7-2.3,14.5c-6,38.8-10.2,77.8-13.2,116.9
					l-0.1-0.2L56.8,507.1z"/>
			</g>
		</g>
	</g>
	<g>
		<g>
			<path class="st0" d="M44,477.1c0.9,2.8,1.8,5.6,2.8,8.2c1,2.7,2.1,5.3,3.3,7.8s2.6,5,4,7.5s3,4.8,4.7,7.3c-2.5-1.6-4.7-3.7-6.6-6
				c-1.9-2.3-3.5-4.8-4.8-7.5s-2.3-5.5-2.9-8.5C43.9,483,43.6,480.1,44,477.1z"/>
		</g>
		<g>
			<path class="st0" d="M54.7,471c1.6,2.7,2.9,5.5,4.1,8.3c1.2,2.8,2.3,5.7,3.3,8.6s1.8,5.8,3,8.5c1.1,2.7,2.6,5.2,5.2,7.1
				c-1.5-0.3-3-1.2-4.2-2.2c-1.2-1.1-2.2-2.4-3-3.8c-1.7-2.8-2.7-5.8-3.7-8.6c-1-2.9-1.9-5.8-2.7-8.8
				C55.8,477.1,55.1,474.1,54.7,471z"/>
		</g>
		<g>
			<path class="st0" d="M67.7,451.2c-0.5,2.5-0.1,4.9,0.6,7.2c0.6,2.3,1.5,4.6,2.3,7c0.8,2.3,1.6,4.7,2.4,7s1.6,4.6,2.5,6.9
				c0.8,2.3,1.7,4.6,2.6,6.9c0.8,2.3,1.8,4.6,2.6,6.9c1.8,4.6,3.7,9.1,5.4,13.8c-2.9-4.1-5.3-8.4-7.5-12.9c-1.1-2.2-2.1-4.5-3.1-6.8
				s-1.9-4.6-2.8-6.9c-1.7-4.7-3.2-9.4-4.3-14.3c-0.6-2.4-1.2-4.8-1.5-7.3C66.5,456.2,66.6,453.5,67.7,451.2z"/>
		</g>
		<g>
			<path class="st0" d="M84.6,429c-0.9,0.1-1.4,0.9-1.5,1.7c-0.2,0.8-0.2,1.6-0.2,2.4l0.3,5.1c0.2,3.4,0.4,6.7,0.7,10.1
				c0.3,3.3,0.6,6.7,1.1,10s1,6.6,1.7,9.9s1.5,6.5,2.6,9.6c1,3.2,2.2,6.3,3.6,9.3c2.7,6.1,6.2,11.8,10.6,17.1
				c-5.2-4.4-9.4-10-12.7-16c-1.6-3-3-6.2-4.2-9.4c-1.1-3.2-2.1-6.6-2.8-9.9c-0.7-3.4-1.2-6.8-1.6-10.2c-0.3-3.4-0.6-6.8-0.6-10.2
				c-0.1-3.4,0-6.8,0.2-10.2c0.1-1.7,0.2-3.4,0.4-5.1c0.1-0.8,0.2-1.8,0.6-2.6c0.2-0.4,0.4-0.8,0.8-1.1
				C83.7,429.2,84.1,429,84.6,429z"/>
		</g>
		<g>
			<path class="st0" d="M102.8,435.1c-0.9,0.1-1.4,0.8-1.6,1.5c-0.2,0.8-0.3,1.6-0.2,2.3c0.2,1.6,0.3,3.3,0.6,4.9
				c0.4,3.3,1,6.5,1.5,9.8c1.2,6.5,2.8,12.8,4.8,19.1c2,6.3,4.3,12.4,7.1,18.3c1.4,3,2.8,5.9,4.6,8.6c1.8,2.7,4.1,5.1,6.9,6.8
				c-3.2-1.1-5.9-3.4-8.1-5.9c-2.2-2.6-4-5.5-5.5-8.5c-1.6-2.9-3-6-4.4-9.1c-1.3-3.1-2.4-6.3-3.5-9.4c-1-3.2-1.9-6.4-2.6-9.7
				c-0.7-3.3-1.3-6.6-1.7-9.9c-0.4-3.3-0.6-6.7-0.7-10c0-1.7,0-3.3,0-5c0.1-0.9,0.3-1.7,0.6-2.5c0.2-0.4,0.5-0.8,0.8-1
				C102,435.1,102.4,435,102.8,435.1z"/>
		</g>
		<g>
			<path class="st0" d="M124.9,445.4c1.4,5.1,2.8,10.2,4.3,15.3c0.4,1.3,0.8,2.5,1.1,3.8l1.2,3.8c0.4,1.2,0.8,2.5,1.2,3.8l1.2,3.7
				l1.3,3.7l1.3,3.7l1.3,3.7c0.5,1.2,0.9,2.5,1.4,3.7c1.9,4.9,3.9,9.8,5.8,14.8c-3-4.4-5.7-9.1-8-13.9c-1.2-2.4-2.2-4.9-3.2-7.3
				l-1.4-3.7l-1.3-3.8l-1.2-3.8c-0.4-1.3-0.8-2.6-1.1-3.9l-1-3.9c-0.3-1.3-0.6-2.6-0.9-3.9C125.8,456.1,125.1,450.8,124.9,445.4z"/>
		</g>
		<g>
			<path class="st0" d="M144.6,437.1c-0.7,3-0.5,6.1,0.2,9.1c0.6,3,1.7,5.9,2.6,8.8c1,2.9,1.9,5.9,2.9,8.8s2,5.8,3,8.7
				c1,2.9,2.1,5.8,3.2,8.7c1,2.9,2.2,5.7,3.3,8.6l6.9,17.2c-3.4-5.2-6.4-10.7-9-16.3c-1.4-2.8-2.6-5.7-3.8-8.5
				c-1.2-2.9-2.3-5.8-3.4-8.7c-2-5.9-3.9-11.8-5.3-17.9c-0.7-3-1.5-6.1-1.8-9.2C143,443.2,143.2,439.9,144.6,437.1z"/>
		</g>
		<g>
			<path class="st0" d="M165.7,440.2c1.2,6,2.1,12.1,3.1,18.1c0.3,1.5,0.5,3,0.8,4.5l0.8,4.5l0.9,4.5l1,4.4l1.1,4.4l1.2,4.4l1.3,4.3
				l1.5,4.3c2.1,5.7,4.7,11.2,7.8,16.5c-4.1-4.6-7.4-10-9.9-15.6c-0.6-1.4-1.2-2.8-1.8-4.3l-1.6-4.4c-0.5-1.5-0.9-3-1.3-4.5
				l-1.2-4.5l-0.9-4.5c-0.3-1.5-0.6-3-0.8-4.6c-0.4-3.1-0.9-6.1-1.1-9.2C165.9,452.5,165.6,446.4,165.7,440.2z"/>
		</g>
		<g>
			<path class="st0" d="M186.7,427.9l-2.9,0.4l0.2-0.1c-1.3,3.4-1.7,7-1.7,10.6c0.1,3.6,0.5,7.2,1.1,10.7c0.6,3.6,1.3,7.1,2,10.7
				s1.6,7.1,2.4,10.6l5.3,21.3c1.8,7,4.1,14,8.8,19.7c-2.8-2.4-5-5.4-6.8-8.7c-1.8-3.3-3.1-6.8-4.2-10.3c-2.2-7-4.2-14.1-5.9-21.2
				c-0.9-3.6-1.7-7.2-2.4-10.8c-0.7-3.6-1.2-7.3-1.7-10.9c-0.4-3.7-0.7-7.4-0.4-11.1s1.1-7.5,2.9-10.7l0.1-0.1h0.1L186.7,427.9z"/>
		</g>
		<g>
			<path class="st0" d="M206.7,444.1c-0.4,1.4-0.2,2.9,0.1,4.3s0.8,2.8,1.2,4.2c0.8,2.8,1.7,5.6,2.6,8.4c1.8,5.6,3.5,11.1,5.5,16.6
				c0.9,2.8,1.9,5.5,2.9,8.2s2,5.5,3,8.2l6.3,16.4c-3.2-4.9-6-10.1-8.5-15.4c-0.6-1.3-1.3-2.7-1.8-4c-0.6-1.3-1.2-2.7-1.7-4.1
				c-1.1-2.7-2.1-5.5-3.1-8.3c-0.9-2.8-1.8-5.6-2.7-8.4c-0.8-2.8-1.6-5.7-2.2-8.5c-0.7-2.9-1.2-5.7-1.7-8.6
				c-0.2-1.5-0.5-2.9-0.6-4.4C205.9,447,206.1,445.4,206.7,444.1z"/>
		</g>
		<g>
			<path class="st0" d="M231,447.5c1.1,5.4,2.6,10.5,4.2,15.7c0.9,2.6,1.7,5.1,2.7,7.6c0.9,2.5,1.8,5.1,2.8,7.6l2.8,7.6
				c0.9,2.6,1.9,5.1,2.9,7.6c2,5,4.4,9.8,7.6,14.2c-4.1-3.6-7.2-8.4-9.7-13.3c-1.3-2.4-2.3-5-3.4-7.5c-1-2.5-2-5.1-2.9-7.6
				c-1.9-5.1-3.6-10.3-4.9-15.7C231.7,458.4,230.9,452.9,231,447.5z"/>
		</g>
		<g>
			<path class="st0" d="M251.5,447.3c-0.2,3,0.2,5.9,1,8.7c0.8,2.8,1.8,5.5,2.9,8.3c2.2,5.5,4.3,10.9,6.6,16.4
				c2.2,5.4,4.6,10.8,6.9,16.2c2.4,5.4,4.8,10.8,7.1,16.2c-3.4-4.9-6.5-10-9.2-15.2c-1.4-2.6-2.7-5.3-4-8c-1.2-2.7-2.4-5.4-3.6-8.1
				c-1.1-2.7-2.2-5.5-3.2-8.3c-1-2.8-2-5.6-2.8-8.4c-0.9-2.8-1.7-5.7-2.1-8.7C250.7,453.2,250.6,450.1,251.5,447.3z"/>
		</g>
		<g>
			<path class="st0" d="M280.9,465.6c-0.1-0.1-0.2-0.2-0.4-0.2c-0.1,0-0.3,0.1-0.4,0.2c-0.2,0.2-0.3,0.5-0.4,0.7
				c-0.1,0.3-0.1,0.5-0.1,0.8c0,0.2,0.1,0.6,0.1,0.9l0.3,1.8l0.4,1.8c0.5,2.4,1.1,4.7,1.7,7c0.7,2.3,1.4,4.6,2.3,6.9
				c0.8,2.3,1.7,4.5,2.6,6.8s1.9,4.5,2.8,6.7l2.9,6.7c1,2.2,2.1,4.3,3.5,6.2c1.4,1.8,3.3,3.4,5.8,3.8c-1.2,0.1-2.5-0.1-3.7-0.7
				c-1.2-0.5-2.2-1.3-3.2-2.2c-1.9-1.8-3.3-3.9-4.5-6.1c-2.4-4.4-4.5-8.8-6.4-13.4c-1.8-4.6-3.4-9.3-4.4-14.2
				c-0.5-2.4-0.8-4.9-0.9-7.4c0-1.2-0.1-2.5,0-3.7c0-0.3,0-0.6,0-1c0.1-0.4,0.2-0.7,0.4-1c0.2-0.3,0.4-0.5,0.7-0.7
				c0.1-0.1,0.3-0.1,0.5-0.1C280.7,465.3,280.8,465.4,280.9,465.6z"/>
		</g>
		<g>
			<path class="st0" d="M309.7,476c0.8,3,1.6,6,2.5,8.8c0.9,2.9,2,5.7,3.2,8.4c1.2,2.7,2.5,5.4,4,8.1c1.5,2.6,3.1,5.2,4.7,7.9
				c-2.6-1.8-4.8-4.1-6.7-6.6c-1.9-2.5-3.5-5.3-4.8-8.2c-1.2-2.9-2.2-5.9-2.7-9C309.4,482.2,309.2,479.1,309.7,476z"/>
		</g>
		<g>
			<path class="st0" d="M339.6,475.1c1.6,2.6,3,5.1,4.4,7.6c1.5,2.5,2.9,5,4.4,7.5s3,4.9,4.6,7.4c1.6,2.4,3.2,4.9,4.7,7.5
				c-2.5-1.7-4.6-3.8-6.6-6s-3.7-4.7-5.3-7.2c-1.5-2.6-2.9-5.2-4-8C340.9,480.9,340,478,339.6,475.1z"/>
		</g>
		<g>
			<path class="st0" d="M358.3,471.7c1.8,3.6,3.4,7.4,5,11c0.4,0.9,0.8,1.8,1.2,2.7l1.2,2.7l1.2,2.7l1.3,2.7c1.8,3.5,3.6,7,5.8,10.3
				c2.2,3.3,4.6,6.4,7.4,9.4c-3.5-2-6.6-4.9-9.2-8c-2.6-3.2-4.8-6.7-6.6-10.4c-0.9-1.9-1.7-3.7-2.5-5.6c-0.7-1.9-1.4-3.8-2-5.8
				C359.9,479.7,359,475.8,358.3,471.7z"/>
		</g>
		<g>
			<path class="st0" d="M320.5,463.8c1,4.9,2.2,9.7,3.6,14.4c0.4,1.2,0.8,2.3,1.1,3.5l1.3,3.5c0.5,1.1,0.9,2.3,1.3,3.4l1.5,3.4
				l1.6,3.3l1.7,3.3l1.8,3.2c0.6,1,1.3,2.1,1.9,3.2c2.6,4.2,5.4,8.2,8.5,12.2c-3.9-3.1-7.4-6.8-10.4-10.9c-0.7-1-1.5-2.1-2.2-3.1
				l-2-3.2l-1.8-3.3l-1.7-3.4l-1.5-3.5c-0.4-1.2-0.9-2.4-1.3-3.6l-1.1-3.6c-0.3-1.2-0.6-2.5-0.9-3.7
				C320.8,473.9,320.3,468.8,320.5,463.8z"/>
		</g>
		<g>
			<path class="st0" d="M380.9,483.2c0.9,3.1,1.9,6.1,3.1,9s2.6,5.6,4.2,8.3c1.6,2.7,3.4,5.2,5.3,7.6c2,2.4,4.1,4.7,6.4,7
				c-3-1.3-5.7-3.2-8.1-5.5c-2.4-2.2-4.5-4.9-6.2-7.7c-1.7-2.8-3-5.9-3.8-9.1C381,489.8,380.6,486.5,380.9,483.2z"/>
		</g>
		<g>
			<path class="st0" d="M401.7,484.3c1.8,3,3.3,6,4.8,9.1s2.9,6.1,4.2,9.2c1.3,3.1,2.7,6.2,3.9,9.4c1.2,3.2,2.4,6.4,3.4,9.7
				c-2.1-2.8-3.8-5.7-5.5-8.7s-3.1-6.1-4.5-9.2s-2.6-6.3-3.7-9.6C403.2,491,402.3,487.7,401.7,484.3z"/>
		</g>
		<g>
			<path class="st0" d="M391.1,89.5c-2.1,2.8-4,5.6-5.8,8.5s-3.4,5.8-4.8,8.9c-1.4,3-2.7,6.2-3.8,9.4c-1.1,3.2-2,6.5-2.8,9.9
				c-0.4-3.5-0.1-7,0.6-10.5s1.8-6.9,3.3-10.1s3.4-6.2,5.6-9C385.6,93.9,388.1,91.5,391.1,89.5z"/>
		</g>
		<g>
			<path class="st0" d="M404.8,88.6c-3.2,5.8-6.1,11.7-8.8,17.7c-0.6,1.5-1.3,3-1.9,4.5l-1.8,4.6c-0.6,1.5-1.2,3.1-1.7,4.6l-1.6,4.6
				l-1.5,4.7L386,134l-1.2,4.7c-0.4,1.6-0.7,3.2-1.1,4.8c-1.4,6.4-2.5,12.9-3.4,19.4c-0.3-6.6,0.1-13.3,1.1-19.9
				c0.3-1.6,0.5-3.3,0.9-4.9l1.1-4.9l1.3-4.8l1.5-4.8l1.7-4.7c0.6-1.5,1.2-3.1,1.8-4.6l2.1-4.6c0.7-1.5,1.5-3,2.2-4.5
				C397,99.4,400.6,93.8,404.8,88.6z"/>
		</g>
		<g>
			<path class="st0" d="M410.8,103c-1.2,0.1-2.1,0.7-2.7,1.6s-1,1.9-1.3,3s-0.5,2.1-0.6,3.3c-0.2,1.1-0.4,2.3-0.6,3.4
				c-0.4,2.3-0.8,4.5-1.3,6.8l-1.4,6.8l-1.6,6.7c-0.6,2.2-1.1,4.5-1.8,6.7c-1.2,4.5-2.5,8.9-4.2,13.3c0.4-4.6,1.1-9.2,1.9-13.8
				c0.4-2.3,0.8-4.5,1.3-6.8l1.4-6.8l1.6-6.7c0.6-2.2,1.1-4.5,1.8-6.7c0.3-1.1,0.6-2.2,0.9-3.3c0.3-1.1,0.6-2.3,1.2-3.4
				c0.5-1.1,1.1-2.2,2.1-3c0.5-0.4,1-0.8,1.6-1C409.6,102.9,410.2,102.9,410.8,103z"/>
		</g>
		<g>
			<path class="st0" d="M415.5,119.4c-0.7,3.8-1.4,7.5-2.1,11.2l-1,5.6c-0.1,0.9-0.3,1.8-0.5,2.8l-0.4,2.8
				c-0.6,3.7-1.1,7.4-1.6,11.2c-0.5,3.7-0.9,7.5-1.4,11.3c-0.7-3.8-0.9-7.6-0.9-11.5c0-3.8,0.4-7.7,1-11.5c0.3-1.9,0.7-3.8,1.1-5.7
				c0.5-1.9,0.9-3.7,1.5-5.6C412.3,126.3,413.7,122.7,415.5,119.4z"/>
		</g>
		<g>
			<path class="st0" d="M422.4,136.9c0,2.1-0.2,4.1-0.3,6l-0.5,5.8l-0.4,5.8c-0.2,2-0.3,3.9-0.6,6c-0.9-1.9-1.4-3.9-1.7-5.9
				c-0.3-2-0.3-4.1-0.2-6.1c0.2-2,0.5-4.1,1.1-6C420.3,140.6,421.2,138.7,422.4,136.9z"/>
		</g>
		<g>
			<path class="st0" d="M429.5,145.2c0,1.5-0.2,2.9-0.4,4.3l-0.5,4l-0.5,4c-0.2,1.4-0.3,2.7-0.7,4.2c-0.9-1.3-1.4-2.7-1.7-4.2
				c-0.3-1.5-0.3-3-0.1-4.5c0.2-1.5,0.6-2.9,1.2-4.3C427.5,147.5,428.4,146.2,429.5,145.2z"/>
		</g>
	</g>
</g>
</svg>
