<?xml version="1.0" encoding="utf-8"?>
<!-- Generator: Adobe Illustrator 22.0.1, SVG Export Plug-In . SVG Version: 6.00 Build 0)  -->
<svg version="1.1" id="圖層_1" xmlns="http://www.w3.org/2000/svg" xmlns:xlink="http://www.w3.org/1999/xlink" x="0px" y="0px"
	 viewBox="0 0 750 700" style="enable-background:new 0 0 750 700;" xml:space="preserve">
<style type="text/css">
	.st0{fill:#534741;}
	.st1{fill:#B58647;}
	.st2{fill:#F2EEDD;}
	.st3{fill:none;}
	.st4{fill:#FFFFFF;}
</style>
<g>
	<g>
		<g>
			<path class="st0" d="M79.8,536.5l9.9-226.8c1.7-37.8,3.2-75.6,5.2-113.4C97,158.5,99,120.8,101.7,83h0.3
				c-0.9,37.8-2.5,75.6-4.1,113.4s-3.8,75.6-5.8,113.4l-12,226.7H79.8z"/>
		</g>
		<g>
			<path class="st0" d="M556.9,114.9c6.8,42.1,13.4,84.3,19.8,126.5s12.6,84.4,18.6,126.7s11.9,84.6,16.7,127
				c2.3,21.2,4.6,42.4,6.3,63.7c0.8,10.7,1.6,21.3,2,32c0.2,5.3,0.3,10.7,0.3,16c-0.1,5.4-0.1,10.8-1.4,16l-0.3-0.1l0.4-2
				c0.1-0.7,0.1-1.3,0.2-2c0.1-1.3,0.1-2.7,0.2-4c0.1-2.7,0.1-5.3,0-8c-0.1-5.4-0.4-10.7-0.8-16c-0.7-10.7-1.7-21.3-2.8-31.9
				c-2.1-21.2-4.6-42.4-7.2-63.6c-5.2-42.4-10.4-84.7-16.1-127s-11.6-84.6-17.7-126.8c-6-42.3-12.2-84.5-18.6-126.7L556.9,114.9z"/>
		</g>
		<g>
			<path class="st0" d="M451.8,619.5c2.2-4.9,4.4-9.8,6.2-14.9c0.9-2.6,2-5,2.8-7.6l2.5-7.7c3.4-10.2,6.3-20.5,9.1-30.9
				c5.5-20.8,10.4-41.7,15-62.7c4.7-21,8.9-42.1,13-63.2s7.9-42.2,11.7-63.4c7.5-42.3,14.2-84.8,21.2-127.2S547,157,553.8,114.5h0.3
				c-5.2,42.7-11.4,85.3-17.9,127.8s-14,84.9-21.8,127.2c-3.9,21.2-7.9,42.3-12.2,63.4C498,454,493.6,475,488.8,496
				c-4.8,21-9.8,41.9-15.6,62.6c-2.9,10.4-6,20.7-9.4,30.9l-2.6,7.6c-0.8,2.6-1.9,5.1-2.8,7.6c-1.8,5.1-4.1,10-6.3,14.9L451.8,619.5
				z"/>
		</g>
		<g>
			<path class="st1" d="M563,610.5c0-9,0-506-1-512s-6.9-1.9-6.9-1.9S555,306,555,615C555,615,563,619.5,563,610.5z"/>
			<path class="st0" d="M557.1,615.1c0.6,0,1.3,0,1.8-0.1c0.6-0.1,1-0.3,1.3-0.5c0.1,0,0.1-0.1,0.2-0.2c0.1-0.1,0.1-0.1,0.2-0.2
				c0.1-0.2,0.2-0.4,0.3-0.6c0.1-0.2,0.2-0.4,0.3-0.7l0.2-0.8c0.1-0.3,0.1-0.6,0.1-0.9s0-0.6,0-1v-4.2v-16.7l-0.1-33.3v-66.6
				l0.2-133.3V222.8l-0.1-66.6l-0.1-33.3l-0.1-16.7c0-1.4-0.1-2.7-0.1-4.1v-2c-0.1-0.6,0-1.4-0.2-1.9c-0.1-0.6-0.4-1.1-0.7-1.4
				c-0.3-0.4-0.7-0.5-1.2-0.5c-1,0-2.3,0.5-3.3,1.2l0,0l0.4-0.8l-0.1,64.7v64.7l0.2,129.4l0.4,64.6l0.5,64.4l0.2,32.2
				c0,10.7,0.1,21.4,0.1,32.2v32.3l-0.1,16.2c-0.1,2.7,0,5.3-0.1,8.1c-0.1,1.4-0.3,2.9-0.6,4.4c-0.4,1.6-0.8,3.2-1.6,5
				C555.8,614.9,556.5,615,557.1,615.1z M553.5,612.2c-0.3-1.2-0.5-2.4-0.6-3.7c-0.1-2.7-0.1-5.4-0.1-8.1v-16.2v-32.5
				c0-10.9,0-21.7,0.1-32.6l0.2-32.6l0.6-65.2l0.4-65l0.3-129.8v-64.9l-0.1-64.9v-0.5l0.4-0.3l0,0c0.6-0.5,1.3-0.8,2-1.1
				s1.5-0.5,2.4-0.5c0.8,0,1.9,0.3,2.5,1c0.6,0.7,1,1.5,1.2,2.3c0.2,0.8,0.2,1.5,0.2,2.2l0.1,2.1c0,1.4,0.1,2.8,0.1,4.2l0.2,16.7
				l0.2,33.3l0.3,66.6l0.3,133.3l0.4,133.3l0.1,66.6l-0.1,33.3v16.7v4.2c0,0.3,0,0.7,0,1.1s-0.1,0.8-0.1,1.2l-0.3,1.2
				c-0.1,0.4-0.3,0.8-0.5,1.2c-0.2,0.4-0.5,0.8-0.8,1.2c-0.4,0.3-0.7,0.7-1.2,0.9c-0.9,0.5-1.8,0.6-2.7,0.5
				c-0.9-0.1-1.6-0.4-2.3-0.8c-0.7-0.4-1.2-0.8-1.8-1.5C554.1,614.2,553.7,613.1,553.5,612.2z"/>
		</g>
		<g>
			<path class="st1" d="M207,613.5c3-7-4-596-4-604S196.8,3,196.8,3s0,236.3,0,615C196.8,618,204,620.5,207,613.5z"/>
			<path class="st0" d="M197.4,618.2h0.3h0.6c0.4,0,0.8-0.1,1.2-0.1c0.8-0.1,1.5-0.3,2.2-0.5c1.3-0.5,2.4-1.3,3.2-2.5l0.5-0.9l0.4-1
				c0-0.2,0.1-1.2,0.1-1.9c0.1-1.7,0.2-3.3,0.2-4.9c0.1-6.5,0.2-13.1,0.2-19.6c0.1-13.1,0.1-26.1,0-39.2l-0.4-78.4L205,312.5
				l-1.2-156.7l-0.7-78.4l-0.3-39.2l-0.2-19.6c0-3.3,0-6.6-0.1-9.8c-0.1-1.5-0.4-3.1-1.4-4.1c-0.5-0.5-1.1-0.8-1.8-0.9
				c-0.7,0-1.5,0-2,0.3l0,0l0.8-1v153.6c-0.1,25.6,0,51.2-0.2,76.8c-0.2,25.7-0.4,51.3-0.3,76.9L198,387l0.6,76.4l0.2,38.2
				c0.1,12.7,0.2,25.4,0.2,38.2v38.3v19.2v4.8c0,1.6,0,3.2-0.1,4.9s-0.3,3.4-0.6,5.2s-0.7,3.6-1.3,5.7
				C196.9,617.8,197.1,617.9,197.4,618.2z M195.5,614.1c-0.3-1.4-0.5-2.9-0.6-4.4s-0.1-3.1-0.1-4.7v-4.8v-19.3v-38.6
				c0-12.8,0.1-25.7,0.2-38.6l0.2-38.7l0.6-77.3l0.4-77.1c0.1-25.7-0.1-51.3-0.3-76.9s-0.2-51.2-0.2-76.9V2.9V2.1l0.8-0.2l0,0
				c1.1,0,2,0.1,2.9,0.4s1.8,0.8,2.4,1.5c1.3,1.4,1.7,3.2,1.8,4.9c0,3.3,0,6.5,0.1,9.8l0.3,19.6l0.5,39.2l1,78.4l1.9,156.7
				l1.6,156.7c0.1,26.2,0.3,52.3,0.3,78.4c0,13.1,0,26.1-0.1,39.2c-0.1,6.5-0.1,13-0.3,19.6c0,1.6-0.1,3.2-0.2,4.9l-0.1,1.3
				c0,0.3-0.1,1.1-0.3,1.6l-0.7,1.2c-0.2,0.4-0.5,0.7-0.8,1.1c-1.2,1.4-3.1,2.4-4.9,2.6c-0.9,0.1-1.8,0.1-2.7-0.1
				c-0.5,0-0.9-0.2-1.3-0.3c-0.2,0-0.4-0.1-0.6-0.2l-0.3-0.1c-0.1-0.1-0.1-0.1-0.3-0.2C196.1,616.9,195.7,615.6,195.5,614.1z"/>
		</g>
		<g>
			<path id="flagArea" class="st2" d="M84.9,228.1l313.2-27c0,0,86.6,177.9,70.6,304.2c-194.1-87.4-388.3,31.2-388.3,31.2
				C114,446.1,102.7,331.1,93,270.2C88.8,244.2,84.9,228.1,84.9,228.1z"/>
			<path class="st0" d="M88.8,249c-1.3-7-2.8-14-4.4-21l-0.1-0.3h0.3c26.1-2.2,52.2-4.7,78.3-7.1l78.3-7.3l78.3-7l78.3-6.8l1.1-0.1
				l0.5,1c11.3,23.9,21.3,48.3,30.3,73.1c4.5,12.4,8.7,24.8,12.7,37.4c3.9,12.6,7.7,25.2,11,38c3.3,12.7,6.4,25.5,8.9,38.5
				c2.6,13,4.8,26,6.3,39.1c0.5,3.2,0.8,6.5,1.1,9.8c0.2,3.3,0.6,6.6,0.8,9.9l0.6,9.9l0.3,9.9c0.2,13.2-0.4,26.4-2,39.5l-0.1,1.1
				l-1-0.4l-11.6-4.9l-5.8-2.5c-1.9-0.8-3.9-1.5-5.9-2.2l-11.9-4.3c-3.9-1.3-8-2.5-12-3.7l-6-1.8c-2-0.7-4.1-1.1-6.1-1.6l-12.2-3
				c-4.1-0.9-8.3-1.6-12.4-2.4l-6.2-1.2l-6.2-0.9c-33.2-5-67.1-5.2-100.5-1.7c-33.5,3.4-66.4,10.8-98.4,21.1
				c-16,5.1-31.7,11.1-47.1,17.8c-3.9,1.7-7.7,3.5-11.5,5.2c-3.8,1.8-7.6,3.6-11.3,5.5c-7.5,3.8-15,7.7-22.1,12l-3.2,1.9l1.2-3.5
				l0,0c8-20.9,13.4-42.7,17.1-64.8c3.6-22.1,5.5-44.5,6.1-66.9c0.7-22.4-0.1-44.8-1.7-67.2c-1.7-22.3-4.3-44.6-7.8-66.8
				C91.7,263.2,90.4,256.2,88.8,249z M101.2,337c1.7,22.4,2.4,44.8,2,67.3c-0.4,22.4-2.1,44.9-5.5,67.1c-3.3,22.2-8.4,44.2-16,65.5
				l0,0l-2-1.6c7.3-4.3,14.8-8.1,22.4-11.8c3.8-1.9,7.7-3.6,11.5-5.4c3.9-1.7,7.7-3.4,11.6-5c15.5-6.5,31.3-12.3,47.4-17.4
				c16.1-5,32.4-9.3,48.9-12.8s33.1-6.3,49.9-7.9c33.5-3.4,67.5-3,100.8,1.8l6.3,0.9l6.2,1.2c4.1,0.8,8.3,1.6,12.4,2.4l12.3,2.9
				c2,0.5,4.1,0.9,6.1,1.5l6.1,1.8c4,1.2,8.1,2.3,12.1,3.6l11.9,4.2c2,0.7,4,1.3,6,2.1l5.8,2.4l11.7,4.8l-1.2,0.6
				c1.5-13.1,2-26.2,1.7-39.3l-0.3-9.8l-0.7-9.8c-0.2-3.3-0.6-6.5-0.9-9.8c-0.3-3.3-0.6-6.6-1.1-9.8c-1.6-13-3.9-25.9-6.5-38.8
				c-2.6-12.8-5.7-25.6-9.1-38.3c-3.3-12.7-7.1-25.3-11.1-37.8s-8.3-25-12.8-37.3c-4.6-12.3-9.4-24.6-14.4-36.7
				c-5.1-12.1-10.3-24.2-15.9-36l1.5,0.9l-78.3,6.7l-78.3,6.4l-78.4,6.2c-26.1,2-52.2,4.1-78.3,6.3l0.2-0.3c1.6,6.9,3,14,4.3,21
				c1.3,7.1,2.5,14.1,3.6,21.2C96.7,292.4,99.4,314.7,101.2,337z"/>
		</g>
		<g>
			<path class="st2" d="M112.5,86.4l173.7-26.1c0,0,67.3,23.7,53.1,122.2c-112.3-22-215.4,31.4-215.4,31.4
				c34.4-53.3,18.4-91.9,3.6-111.9C119.9,91.7,112.6,86.3,112.5,86.4z"/>
			<path class="st0" d="M123.9,98c-1.2-1.4-2.4-2.7-3.6-4c-2.4-2.6-5.1-5.1-7.9-7.3l-0.5-0.4l0.6-0.1l21.7-3.4l21.7-3.5l43.4-7
				c14.5-2.4,28.9-4.6,43.4-6.9c14.5-2.3,28.9-4.5,43.4-6.7l0.4-0.1l0.3,0.1c5.9,2.3,11,5.4,16,9c4.9,3.6,9.5,7.7,13.6,12.2
				c8.3,9,14.5,19.7,18.8,31.1l1.5,4.3l1.3,4.4c0.4,1.4,0.8,2.9,1.1,4.4c0.3,1.4,0.7,2.9,1,4.4c0.5,3,1.1,6,1.4,9
				c0.2,1.5,0.4,3,0.5,4.5l0.3,4.5c0.7,12.1-0.1,24.2-1.9,36.1l-0.2,1.2l-1.2-0.2l0,0l-6.8-1.2l-3.4-0.6c-1.1-0.2-2.3-0.3-3.4-0.5
				l-6.8-0.9c-2.2-0.2-4.5-0.5-6.8-0.7l-3.4-0.4c-1.1-0.1-2.3-0.1-3.4-0.2l-6.9-0.5l-6.9-0.2l-3.4-0.1h-3.4h-6.9l-6.9,0.2
				c-2.3,0-4.6,0.2-6.9,0.3c-2.3,0.1-4.6,0.2-6.9,0.4c-9.2,0.7-18.3,1.8-27.4,3.2c-18.2,2.9-36.2,7-53.8,12.3
				c-8.8,2.6-17.5,5.5-26.1,8.8c-8.6,3.2-17.2,6.8-25.4,10.8l-1.6,0.8l1-1.5c5.4-8.3,10.2-17.1,13.8-26.4c3.6-9.3,6-19.1,6.7-29
				s-0.3-20-3.2-29.5c-2.9-9.6-7.5-18.6-13.4-26.6C126.3,100.6,125.2,99.2,123.9,98z M141.1,128.5c2.9,9.6,3.9,19.7,3.3,29.7
				s-3,19.8-6.5,29.2s-8.3,18.2-13.6,26.7l-0.6-0.7c8.3-4.1,16.8-7.7,25.4-11.1c8.7-3.3,17.4-6.4,26.2-9.1
				c17.6-5.4,35.7-9.6,53.9-12.6c9.1-1.4,18.3-2.6,27.5-3.3c2.3-0.2,4.6-0.3,6.9-0.5c2.3-0.2,4.6-0.3,6.9-0.4l6.9-0.2h6.9h3.5
				l3.5,0.1l6.9,0.2l6.9,0.4c1.2,0,2.3,0.1,3.5,0.2l3.5,0.3c2.3,0.2,4.6,0.4,6.9,0.7l6.9,0.9c1.1,0.2,2.3,0.3,3.4,0.5l3.4,0.6
				l6.8,1.2l0,0l-1.4,1c1.6-11.8,2.3-23.8,1.4-35.6l-0.4-4.4c-0.1-1.5-0.3-2.9-0.5-4.4c-0.3-3-0.9-5.9-1.4-8.8
				c-0.3-1.4-0.7-2.9-1-4.3c-0.3-1.5-0.6-2.9-1.1-4.3l-1.3-4.2l-1.5-4.2c-4.2-11-10.3-21.3-18.2-30c-4-4.4-8.4-8.3-13.1-11.8
				c-2.4-1.7-4.9-3.3-7.4-4.8c-2.5-1.4-5.2-2.8-7.8-3.8l0.7,0.1c-14.4,2.2-28.9,4.3-43.4,6.4s-29,4.2-43.5,6.2l-43.5,6.1l-21.7,3
				l-21.7,3.1l0.1-0.5c2.8,2.2,5.4,4.8,7.9,7.4c1.3,1.3,2.5,2.7,3.6,4.1s2.2,2.8,3.3,4.3C133.5,109.9,138.2,119,141.1,128.5z"/>
		</g>
		<g>
			<path class="st3" d="M427.8,466.4"/>
		</g>
		<g>
			<path class="st3" d="M565.8,479.7"/>
		</g>
		<g>
			<path class="st3" d="M468.2,364.6"/>
		</g>
		<g>
			<path class="st0" d="M627.4,150c-1.9,1.1-4,1.4-6.1,1.8l-6.2,1.1c-4.2,0.8-8.3,1.5-12.5,2.2l-12.5,2.1l-12.5,2.2l-49.8,9.2
				c-16.6,3.1-33.2,6.2-49.8,9.1l-25,4.2c-4.2,0.7-8.3,1.4-12.5,2l-6.3,0.9c-2.1,0.3-4.2,0.8-6.4,0.3l-0.1-0.3
				c1.9-1.3,4-1.4,6.1-1.9l6.2-1.2c4.1-0.8,8.3-1.6,12.4-2.4l24.9-4.6c16.6-3,33.3-5.7,49.9-8.5l49.9-8.3l12.5-2.2l12.4-2.3
				c4.2-0.7,8.3-1.5,12.5-2.2l6.2-1.1c2.1-0.4,4.2-0.8,6.4-0.4L627.4,150z"/>
		</g>
		<g>
			<path class="st0" d="M695.1,310c-2.4,1.2-5,1.3-7.5,1.8l-7.6,1.3c-5.1,0.9-10.1,1.7-15.2,2.5l-15.2,2.4l-15.2,2.5l-60.7,10.3
				c-20.3,3.4-40.5,6.9-60.8,10.1c-10.1,1.5-20.2,3.2-30.4,4.7c-5,0.7-10.1,1.5-15.2,2.2c-5,0.7-10.1,1.7-15.3,1.6v-0.3
				c5-1.7,10.1-2.3,15.1-3.3c5.1-0.9,10.1-1.8,15.2-2.7c10.1-1.7,20.3-3.4,30.4-5.1c20.3-3.4,40.6-6.5,60.9-9.6l60.9-9.4l15.2-2.4
				l15.2-2.5c5.1-0.9,10.1-1.7,15.2-2.5l7.6-1.2c2.6-0.4,5-1,7.7-0.7L695.1,310z"/>
		</g>
		<g>
			<path class="st0" d="M303.5,46.8c-0.9,1.3-2,1.8-3.1,2.2c-1.1,0.3-2.3,0.5-3.4,0.7c-2.3,0.4-4.5,0.8-6.8,1.2
				c-4.6,0.7-9.1,1.4-13.7,2.1l-13.6,1.9l-6.8,1.1l-6.8,1.1c-18.2,3.2-36.3,6.9-54.5,10.3l-27.2,5.1l-27.2,5
				c-9.1,1.6-18.2,3.4-27.3,5c-4.6,0.8-9.1,1.6-13.7,2.3c-2.3,0.3-4.6,0.7-6.9,1c-2.3,0.2-4.6,0.3-7,0.1l-0.1-0.3
				c2.1-1,4.4-1.7,6.6-2.3c2.3-0.5,4.5-0.9,6.8-1.4c4.5-0.9,9.1-1.8,13.6-2.6c9.1-1.6,18.2-3.2,27.3-4.8l27.3-4.8l27.3-4.7
				c18.2-3.2,36.4-6,54.6-9.4l6.8-1.3l6.8-1.4L276,50c4.5-1,9.1-1.9,13.6-2.8c2.3-0.4,4.5-0.8,6.8-1.2c1.1-0.1,2.2-0.4,3.4-0.5
				c1.2,0,2.4,0.2,3.7,1V46.8z"/>
		</g>
		<g>
			<path class="st0" d="M412.6,190.3c-1.8,1.2-3.7,1.5-5.6,1.7l-5.7,0.5c-3.8,0.4-7.6,0.7-11.4,1c-7.6,0.6-15.2,1.1-22.8,1.7
				l-22.8,1.6l-22.8,1.8c-30.4,2.5-60.7,5.4-91.1,8.1l-91.1,8l-45.5,4.1l-11.4,1L71,220.7c-3.8,0.3-7.6,0.6-11.4,0.8
				c-3.8,0.1-7.6,0.1-11.5-0.4v-0.3c3.8-1.2,7.5-1.8,11.3-2.3c3.8-0.4,7.6-0.7,11.4-1.1l11.4-1.1l11.4-0.9l45.6-3.6l91.1-7.4
				c30.3-2.4,60.7-4.6,91.1-7.2l22.8-2.1l22.7-2.2c7.6-0.7,15.2-1.5,22.8-2.1c3.8-0.4,7.6-0.7,11.4-1l5.7-0.5
				c1.9-0.1,3.8-0.1,5.8,0.8L412.6,190.3z"/>
		</g>
		<g>
			<path class="st0" d="M746.9,489.6c-1.4,1-2.8,1.5-4.2,1.8c-1.4,0.3-2.9,0.5-4.3,0.7c-2.9,0.4-5.8,0.8-8.7,1.2
				c-5.9,0.8-11.7,1.5-17.5,2.2c-11.6,1.4-23.3,2.8-34.9,4.4c-23.2,3.2-46.4,6.8-69.6,10.2L538,520.2l-34.8,5.2
				c-5.8,0.8-11.6,1.7-17.4,2.4l-8.7,1.1c-2.9,0.4-5.8,0.6-8.9-0.3v-0.3c2.7-1.7,5.6-2.3,8.5-2.7l8.7-1.3c5.8-0.9,11.6-1.7,17.4-2.5
				l34.9-4.6l69.7-9.5c23.3-3.1,46.6-6,69.8-9.3c11.6-1.6,23.2-3.5,34.8-5.3c5.8-0.9,11.6-1.9,17.4-2.7c2.9-0.4,5.8-0.8,8.7-1.2
				c1.5-0.1,2.9-0.4,4.4-0.5c1.4,0,2.9,0,4.5,0.6L746.9,489.6z"/>
		</g>
		<g>
			<path class="st0" d="M74.2,536.6c1-1.1,2-0.9,3-1l3-0.2l6-0.4l12-0.9l24.1-1.7l24.1-1.6l24-1.7l96.2-7.3l48.1-3.6l48.1-3.5
				l48.1-3.5c8.1-0.5,16.1-1.1,24.1-1.6l12-0.7l6-0.4c2-0.1,4-0.5,6.1,0.6v0.3c-1.9,1.4-3.9,1.3-5.9,1.5l-6,0.5l-12,1
				c-8,0.6-16,1.2-24,1.8l-48.1,3.4l-48.1,3.3l-48.1,3.2l-96.2,6.4l-24,1.8l-24,1.8l-24,1.8l-12,0.8l-6,0.4l-3,0.2
				c-1,0-2,0.3-3.1-0.6L74.2,536.6z"/>
		</g>
		<g>
			<path class="st0" d="M351.5,184.8l0,0.4c-4.6,1.5-9.4,1.7-14.1,2.2c-4.7,0.4-9.5,0.8-14.2,1.2l-14.2,1.1l-14.2,1.2l-28.4,2.8
				l-28.4,2.8l-56.9,5.5l-14.2,1.5l-14.2,1.5c-4.7,0.5-9.5,0.9-14.2,1.3l-7.1,0.5c-1.2,0-2.4,0-3.6-0.1c-1.2-0.1-2.5-0.4-3.7-0.9
				v-0.3c1.1-0.8,2.2-1.2,3.4-1.6c1.1-0.3,2.3-0.6,3.5-0.7l7.1-0.8c4.7-0.5,9.5-0.9,14.2-1.3l14.2-1.1l14.2-1.1l56.9-4.9l28.5-2.3
				l28.5-2.4l14.2-1.4l14.2-1.4c4.7-0.4,9.5-0.9,14.2-1.3C341.9,184.9,346.7,184.2,351.5,184.8L351.5,184.8z"/>
		</g>
		<g>
			<path class="st0" d="M105.8,617.5l11.9-29l12-29c4.1-9.6,7.9-19.4,12.2-28.9c4.4-9.6,8.8-19,13.7-28.3l0.3,0.1
				c-3.4,9.9-7.2,19.6-11.2,29.3c-3.9,9.7-8.4,19.2-12.7,28.7L119.1,589l-13,28.6L105.8,617.5z"/>
		</g>
		<g>
			<path class="st4" d="M462.4,310.3c1.1-0.2,2.3-0.4,2.3-0.4s152.6-23.6,196.4-30.4"/>
			<path class="st0" d="M661.2,279.6c-0.9,1-1.9,1.5-2.9,1.8c-1,0.3-2.1,0.4-3.1,0.6c-2.1,0.4-4.1,0.7-6.2,1
				c-4.2,0.6-8.3,1.2-12.5,1.7c-8.3,1-16.6,2-24.9,3.3c-16.6,2.5-33.1,5.4-49.6,8.1l-24.8,4l-24.8,3.9l-24.8,3.9
				c-4.1,0.6-8.2,1.3-12.4,1.8l-6.2,0.8l-3.1,0.4c-1.1,0.2-2.1,0.1-3.3-0.6V310c0.9-1.1,1.9-1.4,2.9-1.6l3.1-0.5l6.2-1.1
				c4.1-0.7,8.3-1.3,12.4-2L512,301l24.8-3.7l24.9-3.6c16.6-2.4,33.2-4.6,49.7-7.2c8.2-1.3,16.5-2.9,24.7-4.4
				c4.1-0.8,8.3-1.5,12.4-2.2c2.1-0.4,4.1-0.7,6.2-1c1-0.1,2-0.4,3.1-0.4c1.1,0,2.1,0.1,3.3,0.8L661.2,279.6z"/>
		</g>
		<g>
			<path class="st2" d="M660,278.8c-106.6-20.3-204.4,27.9-210.4,31c17.6-51.3,21.4-80.8,13-102.2c-5-12.8-10.3-19.7-10.3-19.7
				l156.7-29c0,0,12.8,7.4,25.6,25.8C647.6,203.4,660.5,233.5,660,278.8z"/>
			<path class="st0" d="M646.8,206.2c3.4,7.5,6.1,15.4,8.2,23.4s3.7,16.2,4.6,24.4c0.9,8.2,1.4,16.5,1.4,24.8v1.2l-1.2-0.2
				c-17.7-3-35.6-4.7-53.5-4.5c-4.4,0-8.9,0.2-13.4,0.3c-2.2,0.1-4.5,0.3-6.7,0.4l-3.4,0.2l-3.3,0.3c-2.2,0.2-4.5,0.3-6.7,0.6
				l-6.7,0.7c-4.4,0.6-8.9,1.2-13.3,1.9c-17.7,2.7-35.2,6.9-52.4,12c-8.6,2.6-17.1,5.4-25.5,8.6c-8.4,3.1-16.7,6.6-24.7,10.5
				l-2.7,1.3l1-2.8c3.4-10,6.7-20.1,9.5-30.3c2.8-10.2,5.2-20.5,6.7-30.9c0.7-5.2,1.2-10.5,1.2-15.7c-0.1-5.2-0.4-10.5-1.5-15.6
				s-2.9-10-5.1-14.8s-4.7-9.5-7.7-13.7l-0.8-1.1l1.3-0.2l156.8-28.3h0.1l0,0c2.6,1.7,5.1,3.5,7.4,5.5c2.3,2,4.6,4.1,6.7,6.3
				c2.1,2.2,4.2,4.4,6.1,6.8c1,1.2,1.9,2.4,2.8,3.6c0.9,1.2,1.8,2.5,2.7,3.7C639.4,191.4,643.5,198.6,646.8,206.2z M631.7,181
				c-0.9-1.2-1.8-2.4-2.8-3.6c-1.9-2.3-4-4.6-6.1-6.8c-2.2-2.1-4.4-4.2-6.7-6.2c-2.3-1.9-4.7-3.8-7.3-5.4h0.1l-156.5,29.5l0.5-1.4
				c3.2,4.4,5.7,9.2,8,14c2.2,4.9,4.2,9.9,5.3,15.2c1.2,5.3,1.6,10.7,1.6,16c0.1,5.4-0.5,10.7-1.1,16c-1.4,10.5-3.8,20.9-6.6,31.2
				s-6,20.4-9.4,30.5l-1.7-1.5c8.2-4,16.5-7.5,24.9-10.8s17-6.2,25.6-8.9c17.2-5.4,34.8-9.6,52.7-12.4c8.9-1.4,17.9-2.5,26.9-3.2
				s18.1-1.1,27.1-1c18.1,0.1,36.2,1.9,53.9,5.4l-1.2,1c0.2-8.2,0-16.4-0.8-24.6c-0.7-8.2-2.1-16.3-4-24.3s-4.6-15.8-7.8-23.4
				c-3.3-7.5-7.3-14.8-11.9-21.6C633.5,183.5,632.7,182.3,631.7,181z"/>
		</g>
		<g>
			<path class="st2" d="M464.7,523.8C509.4,419,450,357.3,449.9,357.1l106.7-16l120.1-18c0,0,50.6,40,55.3,164.3
				C588.9,450.1,464.7,523.8,464.7,523.8"/>
			<path class="st0" d="M464.6,523.3c10-5.7,20.4-10.6,31-15.1c10.6-4.6,21.4-8.6,32.3-12.2c21.9-7.2,44.3-12.5,67.1-16
				c11.4-1.6,22.9-2.8,34.4-3.5l8.6-0.3c1.4-0.1,2.9-0.2,4.3-0.2h4.3c2.8,0,5.7-0.1,8.6,0l8.6,0.3c2.9,0.1,5.7,0.3,8.6,0.5l4.3,0.3
				c1.4,0.1,2.9,0.2,4.3,0.4c5.8,0.6,11.5,1.2,17.2,2.1c11.4,1.6,22.7,4.1,33.9,6.8l-1.1,0.9l-1.4-22.1l-1.3-11l-0.6-5.5l-0.3-2.7
				l-0.2-1.4l-0.2-1.4l-1.9-10.9l-0.9-5.4c-0.3-1.8-0.8-3.6-1.2-5.4l-2.4-10.8l-0.3-1.3l-0.4-1.3l-0.8-2.7l-1.5-5.3
				c-4.2-14.1-9.3-28-16.1-41c-1.8-3.2-3.5-6.4-5.4-9.6l-2.9-4.6c-0.5-0.8-1-1.5-1.5-2.3l-1.6-2.2c-1-1.4-2-3-3.2-4.4
				c-1.1-1.5-2.2-2.9-3.4-4.3c-2.4-2.7-4.9-5.5-7.6-7.7l1,0.3l-56.7,8.7l-56.7,8.6l-56.7,8.5c-18.9,2.9-37.8,5.6-56.7,8.4l0.8-2.3
				c5.1,5.7,9.1,11.9,12.8,18.3c3.6,6.4,6.7,13.2,9.3,20.1c5.2,13.9,8,28.6,8.9,43.3c0.8,14.8-0.4,29.6-3.5,44
				c-3,14.5-7.7,28.5-13.6,42l-0.3,0c5.6-13.6,10-27.6,12.7-42c1.4-7.1,2.2-14.4,2.8-21.7l0.3-5.5c0.1-1.8,0.1-3.7,0.1-5.5v-2.7
				c0-0.9-0.1-1.8-0.1-2.7c-0.1-1.9-0.2-3.7-0.3-5.5c-1.1-14.6-4.1-29-9.3-42.6c-2.6-6.8-5.7-13.4-9.3-19.7
				c-1.8-3.1-3.7-6.2-5.8-9.2s-4.3-5.9-6.7-8.5l-1.7-1.9l2.5-0.4c18.9-2.9,37.8-5.9,56.7-8.7l56.7-8.5l56.7-8.4l56.7-8.4l0.6-0.1
				l0.4,0.3c5.8,5.1,10.4,10.9,14.7,17l1.6,2.3c0.5,0.8,1,1.6,1.5,2.4l3,4.7c1.9,3.2,3.6,6.4,5.4,9.7c6.9,13.2,12,27.2,16.1,41.4
				l1.5,5.4l0.8,2.7l0.4,1.3l0.3,1.4l2.4,10.8c0.4,1.8,0.9,3.6,1.2,5.4l0.9,5.5l1.8,11l0.2,1.4l0.2,1.4l0.3,2.8l0.6,5.5l1.2,11
				l1.3,22.2l0.1,1.2l-1.2-0.3c-11.1-2.8-22.3-5.3-33.7-6.9c-5.7-1-11.4-1.5-17.1-2.2c-1.4-0.2-2.9-0.3-4.3-0.4l-4.3-0.3
				c-2.9-0.2-5.7-0.4-8.6-0.5l-8.6-0.3c-2.9-0.1-5.7-0.1-8.6-0.1h-4.3c-1.4,0-2.9,0.1-4.3,0.1l-8.6,0.3c-11.5,0.6-22.9,1.7-34.3,3.3
				c-22.7,3.3-45.1,8.5-67,15.6c-10.9,3.6-21.7,7.5-32.3,12c-10.5,4.4-21,9.3-31,14.9L464.6,523.3z"/>
		</g>
	</g>
	<g>
		<g>
			<path class="st0" d="M710.5,472.9c-0.6,0.7-1.1,1.4-1.7,2.1c-0.6,0.6-1.3,1.2-2,1.8s-1.5,1.2-2.5,1.6c0-1.1,0.3-2.1,0.7-3
				s0.9-1.7,1.6-2.4c0.7-0.7,1.4-1.3,2.3-1.8c0.8-0.4,1.8-0.8,2.9-0.9C711.4,471.4,711,472.2,710.5,472.9z"/>
		</g>
		<g>
			<path class="st0" d="M696.8,467c-0.7,1.3-1.5,2.5-2.3,3.7c-0.9,1.2-1.8,2.3-2.8,3.4s-2.1,2.1-3.5,2.9c0.4-1.5,0.9-2.9,1.6-4.2
				c0.7-1.3,1.5-2.5,2.3-3.7c0.9-1.2,1.8-2.3,2.8-3.4s2.2-2.1,3.5-2.9C698.1,464.3,697.5,465.7,696.8,467z"/>
		</g>
		<g>
			<path class="st0" d="M690.3,459.2c-1.4,1.9-2.7,3.7-3.9,5.6c-1.3,1.9-2.4,3.9-3.5,5.9c-1.1,2-2.1,4-3.2,6.2
				c-0.1-2.5,0.4-4.9,1.1-7.2c0.7-2.3,1.8-4.6,3.1-6.6c1.3-2,2.9-3.9,4.7-5.5s3.8-3,6.1-3.9C693.2,455.6,691.7,457.3,690.3,459.2z"
				/>
		</g>
		<g>
			<path class="st0" d="M678.2,456.7c-1.3,2.2-2.6,4.3-4,6.4c-1.4,2.1-2.9,4.1-4.4,6.1s-3.1,4-4.9,5.8c0.7-2.4,1.8-4.7,2.9-7
				c1.2-2.2,2.5-4.4,3.9-6.5c1.5-2,3-4.1,4.6-6c1.7-1.9,3.4-3.8,5.4-5.4C680.7,452.5,679.5,454.7,678.2,456.7z"/>
		</g>
		<g>
			<path class="st0" d="M667.4,449.6c-1.5,2.8-3.2,5.6-4.8,8.4c-1.7,2.8-3.4,5.6-5.1,8.3c-1.8,2.7-3.5,5.4-5.5,8.1
				c0.8-3.2,2-6.2,3.4-9.2c1.3-3,2.8-5.9,4.5-8.7c1.7-2.8,3.5-5.6,5.5-8.2s4.1-5.1,6.5-7.4C670.6,443.9,669,446.7,667.4,449.6z"/>
		</g>
		<g>
			<path class="st0" d="M654.8,450.1c-2,2.9-3.9,5.9-5.7,8.9c-1.8,3.1-3.5,6.2-5.2,9.3c-1.6,3.1-3.2,6.4-4.8,9.6
				c0.5-3.6,1.4-7.1,2.7-10.5c1.2-3.4,2.8-6.7,4.7-9.8c1.8-3.1,4-6.1,6.4-8.8c2.4-2.8,5-5.3,8-7.4
				C658.8,444.4,656.7,447.3,654.8,450.1z"/>
		</g>
		<g>
			<path class="st0" d="M640.6,449.3l-5.7,9l-5.6,9c-1,1.5-1.9,3-2.9,4.5s-2.2,3-3.7,4c1-1.5,1.7-3.1,2.4-4.7s1.3-3.3,2.1-4.9
				c1.5-3.3,3.3-6.5,5.2-9.5c2-3,4.1-5.9,6.4-8.7c2.3-2.7,4.8-5.4,7.6-7.7C644.5,443.4,642.6,446.4,640.6,449.3z"/>
		</g>
		<g>
			<path class="st0" d="M625.7,447.7l-5.2,9.5l-5.3,9.5c-1.7,3.2-3.5,6.4-5.5,9.5c0.8-3.6,2-7.1,3.4-10.5c1.4-3.4,3-6.7,4.8-9.9
				c1.8-3.2,3.8-6.3,5.9-9.3c2.1-3,4.4-5.9,7-8.5C629.2,441.4,627.5,444.6,625.7,447.7z"/>
		</g>
		<g>
			<path class="st0" d="M610.7,444.7c-0.9,1.6-1.8,3.3-2.7,5c-0.9,1.7-1.9,3.3-2.8,5l-2.8,4.9c-1.9,3.3-3.8,6.5-5.8,9.8
				c-2,3.2-4,6.4-6.2,9.6c1.1-3.7,2.5-7.2,4.1-10.7c1.6-3.5,3.4-6.9,5.3-10.2c1-1.6,2-3.3,3-4.9c1-1.6,2.1-3.3,3.2-4.8
				c1.1-1.6,2.3-3.1,3.5-4.6c0.6-0.8,1.3-1.5,2.1-2.1c0.8-0.6,1.7-1.1,2.7-1.2C612.6,441.5,611.6,443,610.7,444.7z"/>
		</g>
		<g>
			<path class="st0" d="M588.5,454.7c-2,3-4,6-6,9l-5.9,9.1c-1.9,3-3.8,6.1-5.9,9.2c1-3.6,2.3-7.1,3.9-10.4c1.6-3.3,3.4-6.5,5.4-9.6
				c2.1-3.1,4.3-6,6.7-8.8c2.4-2.8,5-5.4,7.9-7.7C592.7,448.6,590.6,451.6,588.5,454.7z"/>
		</g>
		<g>
			<path class="st0" d="M567.1,466c-1.7,2.7-3.5,5.3-5.3,8s-3.6,5.4-5.4,8c-1.9,2.6-3.7,5.3-5.7,7.9c0.9-3.2,2.1-6.2,3.6-9.1
				c1.4-3,3.1-5.8,4.9-8.5c1.8-2.7,3.7-5.4,5.9-7.8c2.1-2.4,4.4-4.8,7-6.8C570.5,460.6,568.7,463.3,567.1,466z"/>
		</g>
		<g>
			<path class="st0" d="M550.2,470.6c-1,2.1-2,4.1-3.1,6.1c-1.1,2-2.3,3.9-3.6,5.8s-2.7,3.7-4.4,5.4c0.5-2.3,1.4-4.4,2.3-6.5
				c1-2.1,2-4.1,3.1-6.1c1.1-2,2.3-3.9,3.6-5.8s2.7-3.7,4.4-5.4C551.9,466.4,551,468.6,550.2,470.6z"/>
		</g>
		<g>
			<path class="st0" d="M534.1,477.2c-1.2,2.3-2.4,4.6-3.7,6.8c-1.3,2.2-2.6,4.4-4,6.6c-1.4,2.1-2.8,4.3-4.5,6.4
				c0.5-2.6,1.4-5.1,2.4-7.5s2.2-4.7,3.5-7c1.3-2.3,2.7-4.5,4.3-6.6c1.6-2.1,3.3-4.1,5.3-5.9C536.5,472.5,535.3,474.8,534.1,477.2z"
				/>
		</g>
		<g>
			<path class="st0" d="M521,484.6l-3.1,5.7l-3,5.7c-1,1.9-2,3.9-3.2,5.8c0-2.3,0.4-4.5,1-6.7c0.7-2.1,1.5-4.2,2.6-6.2
				s2.4-3.9,3.8-5.6c1.5-1.7,3.1-3.2,5-4.5C523.1,480.8,522.1,482.7,521,484.6z"/>
		</g>
		<g>
			<path class="st0" d="M507.9,493.1c-0.3,1.7-0.8,3.3-1.5,4.9c-0.7,1.5-1.5,3.1-2.4,4.5s-2,2.8-3.3,4c0.2-1.8,0.7-3.4,1.2-5
				s1.1-3.2,1.7-4.7s1.3-3,2.1-4.5c0.8-1.5,1.6-3,2.7-4.4C508.5,489.7,508.3,491.4,507.9,493.1z"/>
		</g>
		<g>
			<path class="st0" d="M496.5,499.9c-0.1,0.9-0.4,1.7-0.8,2.5c-0.3,0.8-0.9,1.5-1.5,2.1c-0.7,0.6-1.4,1.1-2.4,1.3
				c0-1,0.2-1.8,0.4-2.6c0.3-0.7,0.6-1.4,0.9-2.1c0.3-0.7,0.7-1.4,1.2-2c0.5-0.7,1.1-1.3,1.9-1.9C496.5,498.1,496.6,499,496.5,499.9
				z"/>
		</g>
		<g>
			<path class="st0" d="M637.7,267.4c-0.2,0.5-0.5,1-0.8,1.4c-0.4,0.4-0.8,0.7-1.3,1s-1.1,0.5-1.9,0.5c-0.1-0.8-0.1-1.4,0.1-2
				c0.2-0.5,0.5-1,0.8-1.4c0.4-0.4,0.8-0.7,1.3-1s1.1-0.5,1.9-0.5C638,266.2,637.9,266.8,637.7,267.4z"/>
		</g>
		<g>
			<path class="st0" d="M629.7,263.5c-0.4,1.1-1,2.1-1.6,3c-0.7,0.9-1.4,1.8-2.2,2.6c-0.9,0.9-1.8,1.6-2.9,2.2
				c0.1-1.3,0.5-2.4,0.9-3.5c0.4-1.1,1-2.1,1.6-3c0.7-0.9,1.4-1.8,2.2-2.6c0.9-0.8,1.8-1.6,2.9-2.2
				C630.5,261.3,630.1,262.4,629.7,263.5z"/>
		</g>
		<g>
			<path class="st0" d="M625,253.2c-0.5,0.9-1,1.9-1.6,2.8c-1.1,1.9-2.3,3.7-3.6,5.4c-1.3,1.8-2.6,3.4-4.1,5s-3,3.2-4.8,4.5
				c0.8-2.1,1.8-4,2.9-5.9c1.1-1.9,2.3-3.7,3.6-5.4c1.3-1.8,2.6-3.4,4.1-5c0.8-0.8,1.5-1.5,2.4-2.3c0.4-0.3,0.9-0.7,1.5-0.9
				c0.5-0.2,1.2-0.3,1.7-0.2C626.1,251.6,625.5,252.4,625,253.2z"/>
		</g>
		<g>
			<path class="st0" d="M609.5,254.3c-1.3,2-2.8,4-4.3,6c-1.5,1.9-3.1,3.8-4.7,5.7c-1.7,1.8-3.4,3.6-5.3,5.3
				c0.9-2.4,2.1-4.6,3.4-6.7c1.4-2.1,2.8-4.1,4.3-6.1s3.2-3.9,4.9-5.7c1.8-1.8,3.6-3.5,5.7-5C612.3,250.1,611,252.2,609.5,254.3z"/>
		</g>
		<g>
			<path class="st0" d="M595.1,250.2c-1.2,2.4-2.4,4.7-3.8,7c-1.3,2.2-2.8,4.4-4.3,6.6c-1.6,2.1-3.2,4.3-5.1,6.2
				c0.8-2.6,1.9-5,3-7.4c1.2-2.4,2.4-4.7,3.8-7c1.3-2.2,2.8-4.4,4.3-6.6c1.6-2.2,3.2-4.3,5.1-6.2
				C597.3,245.4,596.2,247.8,595.1,250.2z"/>
		</g>
		<g>
			<path class="st0" d="M582.7,248.8c-1.6,2.6-3.3,5.1-5.1,7.5c-1.8,2.4-3.6,4.9-5.5,7.2c-1.9,2.4-3.8,4.7-6,6.9
				c1.1-2.9,2.6-5.6,4.1-8.2s3.2-5.1,5-7.6c1.8-2.4,3.7-4.8,5.7-7.1s4.1-4.5,6.5-6.5C586,243.8,584.4,246.4,582.7,248.8z"/>
		</g>
		<g>
			<path class="st0" d="M564.6,251.3c-2.1,3.1-4.3,6.2-6.6,9.1c-2.3,3-4.7,5.8-7.3,8.6c-2.6,2.8-5.2,5.4-8.1,7.9
				c1.9-3.3,4-6.4,6.2-9.4c2.1-3,4.4-6,6.7-8.9c2.3-2.9,4.6-5.8,7.1-8.6s5-5.6,7.7-8.2C568.6,245.2,566.6,248.3,564.6,251.3z"/>
		</g>
		<g>
			<path class="st0" d="M540,260.6l-4.6,7.3l-4.6,7.3c-1.5,2.5-3,4.9-4.7,7.4c0.5-3,1.4-5.8,2.6-8.5c1.1-2.8,2.5-5.4,4.1-7.9
				c1.6-2.5,3.3-4.9,5.3-7.1c2-2.3,4.1-4.3,6.5-6.1C543.1,255.6,541.5,258,540,260.6z"/>
		</g>
		<g>
			<path class="st0" d="M527.2,256c-0.5,0.6-0.8,1.3-1.2,2c-0.4,0.7-0.7,1.4-1.1,2.1l-1.1,2.1c-1.5,2.8-3,5.6-4.4,8.4
				c-1.4,2.8-2.7,5.6-4.1,8.5c-1.3,2.8-2.6,5.7-4.1,8.6c0.2-3.2,0.9-6.4,1.9-9.5c0.9-3.1,2.2-6.1,3.6-9c1.5-2.9,3.2-5.7,5.1-8.3
				c0.9-1.3,1.9-2.6,3-3.8c0.6-0.6,1.1-1.3,1.8-1.8c0.4-0.3,0.8-0.5,1.2-0.6c0.5-0.2,0.9-0.2,1.3,0
				C528.3,254.8,527.7,255.3,527.2,256z"/>
		</g>
		<g>
			<path class="st0" d="M506.2,271.7c-1.2,2.1-2.4,4.2-3.7,6.2s-2.6,4-4,6c-1.4,1.9-2.8,3.9-4.5,5.8c0.5-2.5,1.4-4.8,2.4-7
				c1-2.3,2.2-4.4,3.5-6.5s2.7-4.1,4.3-6c1.6-1.8,3.2-3.6,5.2-5.2C508.5,267.3,507.3,269.4,506.2,271.7z"/>
		</g>
		<g>
			<path class="st0" d="M491.5,276.2c-0.9,1.7-1.8,3.3-2.8,4.9s-2.1,3.2-3.2,4.7c-1.2,1.5-2.4,3-3.8,4.4c0.3-2,0.9-3.8,1.7-5.6
				c0.8-1.8,1.7-3.5,2.7-5.1c1-1.7,2.2-3.2,3.4-4.7c1.2-1.4,2.6-2.8,4.2-4C493.1,272.7,492.3,274.5,491.5,276.2z"/>
		</g>
		<g>
			<path class="st0" d="M479.4,284.8c-0.6,1.1-1.2,2.1-1.9,3c-0.7,0.9-1.4,1.8-2.2,2.7c-0.8,0.8-1.7,1.7-2.8,2.4
				c0-1.4,0.3-2.6,0.8-3.7c0.5-1.2,1.1-2.2,1.8-3.2s1.6-1.9,2.5-2.7c0.9-0.8,1.9-1.5,3.2-2C480.5,282.6,479.9,283.6,479.4,284.8z"/>
		</g>
		<g>
			<path class="st0" d="M468.4,292c-0.2,0.8-0.5,1.5-0.9,2.2c-0.5,0.7-1,1.3-1.6,1.8c-0.6,0.5-1.3,1-2.3,1.2c0-1,0.2-1.8,0.4-2.5
				c0.3-0.7,0.6-1.4,1-2s0.8-1.2,1.4-1.7s1.2-1,2.1-1.4C468.7,290.6,468.6,291.4,468.4,292z"/>
		</g>
		<g>
			<path class="st0" d="M325.8,172.4c-0.6,0.7-1.1,1.2-1.7,1.7s-1.2,0.9-1.9,1.3s-1.5,0.8-2.5,1c0-1.1,0.4-1.9,0.8-2.7
				c0.5-0.8,1-1.4,1.7-2c0.6-0.5,1.4-1,2.2-1.3c0.8-0.3,1.7-0.4,2.7-0.3C326.7,171.1,326.2,171.8,325.8,172.4z"/>
		</g>
		<g>
			<path class="st0" d="M316.2,169.6c-0.4,0.8-1,1.5-1.6,2.1c-0.6,0.6-1.4,1.1-2.2,1.4c-0.8,0.3-1.7,0.5-2.7,0.4
				c0.3-1,0.8-1.7,1.3-2.3c0.5-0.6,1-1.2,1.6-1.7c0.5-0.5,1.1-1,1.8-1.4c0.7-0.4,1.4-0.8,2.4-1.1
				C316.8,168.1,316.5,168.9,316.2,169.6z"/>
		</g>
		<g>
			<path class="st0" d="M305,165c-1.3,1.4-2.7,2.7-4.1,4s-2.9,2.5-4.4,3.6s-3.1,2.2-4.9,3.1c0.9-1.8,2.1-3.3,3.3-4.8s2.6-2.8,4-4.1
				c1.5-1.3,3-2.4,4.6-3.5c1.6-1,3.3-2,5.2-2.7C307.6,162.2,306.3,163.7,305,165z"/>
		</g>
		<g>
			<path class="st0" d="M298,156c-1.2,1.8-2.6,3.5-4,5.1s-3,3.1-4.6,4.5c-1.6,1.4-3.3,2.7-5.3,3.8c1.1-2,2.3-3.7,3.6-5.4
				c1.3-1.7,2.7-3.3,4.1-4.9s2.9-3.1,4.4-4.6c1.6-1.5,3.2-2.9,5-4.2C300.3,152.3,299.2,154.2,298,156z"/>
		</g>
		<g>
			<path class="st0" d="M282,150.6c-1.2,1.5-2.5,2.9-3.8,4.3l-3.8,4.2c-2.5,2.8-5.1,5.6-7.8,8.3c-2.6,2.7-5.3,5.4-8.2,8
				c2-3.3,4.2-6.5,6.5-9.5c2.3-3.1,4.8-6,7.4-8.8c1.3-1.4,2.6-2.7,4-4.1c1.4-1.3,2.8-2.6,4.2-3.9c2.8-2.6,5.8-5,9-7.2
				C287.2,145,284.7,147.9,282,150.6z"/>
		</g>
		<g>
			<path class="st0" d="M263.6,151.2c-2.3,2.9-4.8,5.7-7.3,8.5s-5.1,5.5-7.7,8.2s-5.2,5.3-8.1,7.8c1.9-3.3,4.1-6.4,6.4-9.4
				s4.7-5.9,7.2-8.7c2.6-2.8,5.2-5.5,7.9-8.1s5.5-5,8.6-7.3C268.4,145.3,266.1,148.3,263.6,151.2z"/>
		</g>
		<g>
			<path class="st0" d="M247.9,147.9c-1.2,2-2.6,3.9-3.9,5.8c-1.3,1.9-2.7,3.7-4.1,5.6c-1.4,1.9-2.8,3.7-4.3,5.5s-2.9,3.6-4.5,5.3
				c-3.1,3.5-6.2,6.9-9.7,10c2.5-4,5.2-7.8,7.9-11.5c1.3-1.9,2.7-3.7,4.1-5.6l4.2-5.5l4.2-5.5c1.5-1.8,2.8-3.6,4.3-5.4
				c2.9-3.6,5.8-7.2,8.9-10.7C252.9,140.1,250.5,144,247.9,147.9z"/>
		</g>
		<g>
			<path class="st0" d="M218.9,156.4l-4,4.8c-0.7,0.8-1.3,1.6-2,2.4l-2,2.4c-2.6,3.2-5.2,6.5-7.7,9.8c-2.5,3.3-5,6.6-7.7,9.9
				c1.6-4,3.6-7.7,5.8-11.3c2.2-3.6,4.6-7.1,7.3-10.4c1.3-1.6,2.7-3.2,4.1-4.8c1.4-1.5,2.9-3,4.4-4.5c3.1-3,6.3-5.7,9.8-8.1
				C224.2,149.9,221.5,153.1,218.9,156.4z"/>
		</g>
		<g>
			<path class="st0" d="M190.4,171.8c-1.2,1.8-2.4,3.5-3.7,5.2s-2.6,3.4-4,5c-1.3,1.7-2.8,3.3-4.4,4.8c0.6-2.2,1.5-4.2,2.5-6.1
				s2.2-3.8,3.5-5.5s2.7-3.4,4.3-4.9c1.6-1.5,3.3-2.9,5.2-4.1C192.8,168.2,191.7,170,190.4,171.8z"/>
		</g>
		<g>
			<path class="st0" d="M175,180c-0.9,1.6-1.8,3.3-2.9,4.8c-1,1.6-2.2,3.1-3.4,4.5c-1.2,1.4-2.5,2.8-4.1,4c0.6-1.9,1.3-3.6,2.2-5.3
				c0.9-1.6,1.8-3.3,2.9-4.8c1-1.6,2.2-3.1,3.4-4.5c1.2-1.4,2.5-2.8,4.1-4C176.7,176.6,175.9,178.3,175,180z"/>
		</g>
		<g>
			<path class="st0" d="M161.4,185c-0.9,1.5-1.9,2.9-2.9,4.3c-1.1,1.3-2.2,2.7-3.4,3.9c-1.3,1.2-2.6,2.4-4.1,3.4
				c0.6-1.7,1.3-3.3,2.2-4.8s1.9-2.9,2.9-4.3c1.1-1.3,2.2-2.7,3.4-3.9c1.3-1.2,2.6-2.4,4.1-3.4C163,181.9,162.2,183.5,161.4,185z"/>
		</g>
		<g>
			<path class="st0" d="M148.5,191.2c-0.6,1-1.3,1.9-2.1,2.8s-1.7,1.7-2.6,2.4s-2,1.3-3.2,1.8c0.3-1.3,0.8-2.4,1.4-3.4
				s1.3-1.9,2.1-2.8s1.7-1.7,2.6-2.4s2-1.3,3.2-1.8C149.5,189.1,149,190.2,148.5,191.2z"/>
		</g>
		<g>
			<path class="st0" d="M138.4,199.4c-0.4,1-0.9,1.9-1.5,2.7c-0.6,0.8-1.3,1.5-2.2,2.1c-0.9,0.5-1.9,1-3,1.1c0.4-1.1,0.8-2,1.3-2.8
				c0.4-0.8,0.9-1.6,1.5-2.3c0.5-0.8,1.1-1.4,1.8-2.1s1.4-1.3,2.4-1.9C138.8,197.3,138.6,198.4,138.4,199.4z"/>
		</g>
		<g>
			<path class="st0" d="M465.2,480.8c-0.1,1.4-0.5,2.9-1.1,4.2c-0.5,1.3-1.3,2.6-2.3,3.7s-2.1,2.1-3.5,2.7c0.4-1.5,1-2.8,1.5-4
				l1.6-3.6l1.6-3.6c0.6-1.2,1.1-2.5,1.9-3.8C465.4,477.8,465.4,479.3,465.2,480.8z"/>
		</g>
		<g>
			<path class="st0" d="M462.6,469.4c-0.8,3.2-2,6.3-3.5,9.3s-3.2,5.8-5.3,8.4s-4.4,4.9-7.1,6.9c1.7-2.8,3.5-5.5,5.1-8.3
				c1.7-2.8,3.2-5.6,4.6-8.4c1.4-2.8,2.7-5.7,3.9-8.7s2.3-6,3.5-9.1C463.8,462.8,463.3,466.1,462.6,469.4z"/>
		</g>
		<g>
			<path class="st0" d="M460,449.6c-0.8,4.7-2.1,9.3-3.6,13.9c-1.7,4.5-3.4,9-6,13.2c-0.6,1-1.4,2-2.1,3c-0.8,0.9-1.6,1.9-2.5,2.7
				c-1.8,1.7-3.9,3.1-6.1,3.9c3.9-2.8,6.5-6.7,8.6-10.8c1.1-2.1,2-4.2,2.8-6.4s1.7-4.4,2.4-6.6c0.8-2.2,1.5-4.5,2.2-6.7
				c0.8-2.3,1.4-4.5,2-6.8c1.2-4.5,2.3-9.1,3.4-13.8C461.2,439.9,460.8,444.7,460,449.6z"/>
		</g>
		<g>
			<path class="st0" d="M457.1,415.3c-0.2,3.3-0.8,6.7-1.5,9.9c-1.4,6.5-3.2,12.9-5.5,19.2c-1.1,3.2-2.4,6.3-3.8,9.3
				c-1.5,3-2.9,6.1-4.7,8.9c-3.4,5.7-7.6,11.1-12.4,15.6c3.9-5.3,7.4-10.9,10.4-16.7s5.6-11.8,7.8-18c1.2-3.1,2.2-6.2,3.2-9.3
				s1.9-6.3,2.9-9.4c1.8-6.3,3.5-12.7,2.7-19.3C457.3,408.7,457.5,412.1,457.1,415.3z"/>
		</g>
		<g>
			<path class="st0" d="M447.5,407.9c-0.3,2.1-0.6,4.1-0.9,6.2l-1.2,6.1l-1.6,6.1l-1.8,6l-2.2,5.9l-2.4,5.8l-2.7,5.6
				c-1,1.8-2,3.7-3,5.5c-4.2,7.2-9.1,14-14.8,20c4.7-6.9,9.1-13.9,12.8-21.2c0.9-1.8,1.8-3.7,2.7-5.5l2.5-5.6l2.3-5.7l2.1-5.8
				l1.9-5.9l1.6-5.9l1.4-6c0.4-2,0.8-4,1.2-6c1.4-8.1,2.3-16.3,2.6-24.6C448.9,391.2,448.7,399.6,447.5,407.9z"/>
		</g>
		<g>
			<path class="st0" d="M443.7,374.6c-0.1,5.9-0.6,11.8-1.3,17.6c-0.8,5.8-1.9,11.6-3.3,17.3c-1.5,5.7-3.2,11.3-5.3,16.8
				s-4.5,10.9-7.2,16.1c-5.4,10.5-12.1,20.2-19.9,28.9c6.8-9.5,12.9-19.4,17.8-29.9c5-10.5,8.9-21.4,11.7-32.6
				c2.9-11.2,4.4-22.7,5.2-34.3c0.7-11.6,0.8-23.2,1-34.9C443.4,351.2,444.1,362.9,443.7,374.6z"/>
		</g>
		<g>
			<path class="st0" d="M431.1,356.1l-1.3,9.8l-1.7,9.8l-2.1,9.7l-2.4,9.6l-2.8,9.5l-3.1,9.4l-3.5,9.3c-1.3,3-2.6,6.1-3.9,9.1
				c-5.4,12.1-11.7,23.7-19,34.7c6.2-11.6,11.8-23.5,16.8-35.6c1.2-3.1,2.4-6.2,3.6-9.2l3.3-9.3l3-9.3l2.7-9.4l2.5-9.5l2.2-9.6
				l1.9-9.6l1.6-9.7c2-12.9,3.2-26,3.7-39.2C433.3,329.7,432.8,343,431.1,356.1z"/>
		</g>
		<g>
			<path class="st0" d="M416,353.5l-1.2,9.9l-1.6,9.9l-1.9,9.8l-2.3,9.7l-2.6,9.6l-3,9.5l-3.3,9.4c-1.2,3.1-2.4,6.2-3.6,9.3
				c-5.1,12.3-11.1,24.2-18,35.5c5.9-11.9,11.1-24,15.8-36.4c1.1-3.1,2.2-6.2,3.3-9.3l3.1-9.4l2.8-9.5l2.5-9.6l2.3-9.6l2-9.7
				l1.8-9.7l1.5-9.8c1.8-13.1,2.9-26.2,3.4-39.5C417.7,326.8,417.3,340.2,416,353.5z"/>
		</g>
		<g>
			<path class="st0" d="M398.2,354.6c-0.5,3.3-1,6.7-1.5,10l-1.7,10c-0.6,3.3-1.3,6.6-2,9.9l-2.3,9.9l-2.6,9.8
				c-0.9,3.2-1.9,6.5-2.9,9.7l-3.3,9.6c-1.2,3.1-2.5,6.3-3.7,9.4l-4.1,9.3l-4.6,9l-5.1,8.7c-1.8,2.8-3.7,5.6-5.6,8.4
				c6.9-11.6,12.6-23.8,17.4-36.3l3.4-9.4l3.1-9.6l2.8-9.6l2.5-9.7l2.3-9.8l2.1-9.8l1.9-9.9l1.8-9.9l6.8-39.8
				C401.8,327.9,400.4,341.3,398.2,354.6z"/>
		</g>
		<g>
			<path class="st0" d="M381.7,366.6c-0.5,2.6-1.1,5.1-1.7,7.7l-1.9,7.7c-0.7,2.5-1.4,5.1-2.1,7.6l-2.3,7.6l-2.5,7.5l-2.7,7.4
				l-3,7.3c-1.1,2.4-2.2,4.8-3.3,7.2c-4.6,9.5-10.1,18.6-16.5,26.9c5.4-9,10.1-18.3,14.3-27.9l3-7.2l2.8-7.3l2.6-7.4l2.4-7.4
				l2.3-7.5l2.2-7.5l2.1-7.6l2-7.6c2.6-10.1,5.1-20.3,7.7-30.5C385.6,346,383.8,356.4,381.7,366.6z"/>
		</g>
		<g>
			<path class="st0" d="M358.8,400.5c-0.7,3.6-1.5,7.2-2.4,10.7s-1.9,7-2.9,10.5c-2.2,6.9-4.5,13.8-7.6,20.5
				c-1.5,3.3-3.4,6.6-5.6,9.5c-1.1,1.5-2.3,2.9-3.7,4.1c-1.3,1.2-2.8,2.3-4.4,3.2c5.7-4.6,9.1-11.1,11.7-17.7
				c1.3-3.4,2.5-6.8,3.6-10.2c1.2-3.4,2.3-6.8,3.3-10.3c2.1-6.9,4.1-13.8,5.9-20.8c1.8-7,3.5-14,5.2-21.1
				C361.4,386.2,360.4,393.4,358.8,400.5z"/>
		</g>
		<g>
			<path class="st0" d="M333.2,419.3c-1.4,5.4-3.1,10.8-4.9,16.1c-1.9,5.3-3.6,10.7-6.1,15.8c-1.3,2.6-2.8,5.1-4.6,7.3
				s-4,4.2-6.5,5.5c4.3-3.7,6.9-8.6,8.9-13.7c1-2.5,2-5.1,2.8-7.8l2.7-7.9l2.7-7.9c0.9-2.6,1.8-5.3,2.8-7.9c1.9-5.3,3.8-10.5,6-15.7
				C336,408.7,334.7,414.1,333.2,419.3z"/>
		</g>
		<g>
			<path class="st0" d="M307.1,433.2c-0.6,1.8-1.3,3.5-2,5.3c-0.7,1.8-1.5,3.5-2.3,5.2c-1.6,3.4-3.4,6.8-5.3,10
				c-2,3.2-4.1,6.4-6.5,9.3c1.3-3.6,2.9-7,4.4-10.4c1.5-3.4,3.1-6.8,4.7-10.2l2.4-5.1c0.8-1.6,1.6-3.3,2.4-5c1.7-3.3,3.3-6.7,5.2-10
				C309.4,426,308.3,429.7,307.1,433.2z"/>
		</g>
		<g>
			<path class="st0" d="M177.7,466.7c-0.4,3.5-1.2,7-2.5,10.4s-2.9,6.6-5,9.5c-2.1,3-4.5,5.6-7.3,7.8c1.9-3,3.7-6,5.3-9
				c1.6-3,3-6.1,4.2-9.3c1.2-3.2,2.2-6.5,3-9.8c0.8-3.3,1.4-6.7,1.9-10.2C178,459.6,178,463.2,177.7,466.7z"/>
		</g>
		<g>
			<path class="st0" d="M162.2,474.7c-0.3,1-0.6,1.9-0.9,2.9l-1,2.8c-0.4,1-0.8,1.9-1.2,2.8l-1.3,2.7c-1.9,3.5-4.2,6.8-6.9,9.8
				c-2.7,3-5.7,5.6-9.1,7.7c2.6-3,5.1-6,7.3-9.1c2.2-3.1,4.3-6.3,6.1-9.7l1.3-2.5c0.4-0.9,0.8-1.7,1.2-2.6l1.2-2.6
				c0.4-0.9,0.7-1.8,1.1-2.7c1.4-3.6,2.6-7.3,3.7-11.1C163.8,467.1,163.3,471.1,162.2,474.7z"/>
		</g>
		<g>
			<path class="st0" d="M129.3,492.4c-0.6,1.1-1.3,2.2-2,3.3l-2.2,3.3c-0.7,1.1-1.5,2.1-2.3,3.2l-2.4,3.1l-2.6,3l-2.7,2.9l-2.8,2.7
				c-1,0.9-1.9,1.7-2.9,2.6c-3.9,3.4-8.2,6.5-12.7,9.1c3.8-3.6,7.5-7.1,11.1-10.8c0.8-1,1.7-1.9,2.6-2.8l2.6-2.8l2.5-2.9l2.5-2.9
				l2.4-3c0.8-1,1.6-2,2.4-3l2.3-3.1c0.7-1,1.4-2.1,2.2-3.1c3-4.2,5.8-8.5,8.6-12.9C134.2,483.3,131.9,488,129.3,492.4z"/>
		</g>
	</g>
</g>
</svg>
