<?xml version="1.0" encoding="utf-8"?>
<!-- Generator: Adobe Illustrator 22.0.1, SVG Export Plug-In . SVG Version: 6.00 Build 0)  -->
<svg version="1.1" id="圖層_1" xmlns="http://www.w3.org/2000/svg" xmlns:xlink="http://www.w3.org/1999/xlink" x="0px" y="0px"
	 viewBox="0 0 750 700" style="enable-background:new 0 0 750 700;" xml:space="preserve">
<style type="text/css">
	.st0{fill:#534741;}
	.st1{fill:#B58647;}
	.st2{fill:#F2EEDD;}
	.st3{fill:none;}
	.st4{fill:#FFFFFF;}
</style>
<g>
	<g>
		<g>
			<path class="st0" d="M700.4,536.5l-12-226.7c-2-37.8-4.2-75.6-5.8-113.4s-3.2-75.6-4.1-113.4h0.3c2.7,37.8,4.7,75.5,6.8,113.3
				c2,37.8,3.5,75.6,5.2,113.4l9.9,226.8H700.4z"/>
		</g>
		<g>
			<path class="st0" d="M224,114.7c-6.4,42.2-12.6,84.4-18.6,126.7c-6.1,42.2-12,84.5-17.7,126.8s-10.9,84.6-16.1,127
				c-2.6,21.2-5.1,42.4-7.2,63.6c-1.1,10.6-2.1,21.2-2.8,31.9c-0.4,5.3-0.7,10.6-0.8,16c-0.1,2.7-0.1,5.3,0,8c0.1,1.3,0.1,2.7,0.2,4
				c0.1,0.7,0.1,1.3,0.2,2l0.4,2l-0.3,0.1c-1.3-5.2-1.3-10.6-1.4-16c0-5.3,0.1-10.7,0.3-16c0.4-10.7,1.2-21.3,2-32
				c1.7-21.3,4-42.5,6.3-63.7c4.8-42.4,10.7-84.7,16.7-127s12.2-84.5,18.6-126.7c6.4-42.2,13-84.4,19.8-126.5L224,114.7z"/>
		</g>
		<g>
			<path class="st0" d="M328.4,619.6c-2.2-4.9-4.5-9.8-6.3-14.9c-0.9-2.5-2-5-2.8-7.6l-2.6-7.6c-3.4-10.2-6.5-20.5-9.4-30.9
				c-5.8-20.7-10.8-41.6-15.6-62.6c-4.8-21-9.2-42-13.4-63.1c-4.3-21.1-8.3-42.2-12.2-63.4c-7.8-42.3-15.3-84.7-21.8-127.2
				s-12.7-85.1-17.9-127.8h0.3c6.8,42.5,13.5,85,20.5,127.4s13.7,84.9,21.2,127.2c3.8,21.2,7.6,42.3,11.7,63.4s8.3,42.2,13,63.2
				c4.6,21,9.5,41.9,15,62.7c2.8,10.4,5.7,20.7,9.1,30.9l2.5,7.7c0.8,2.6,1.9,5,2.8,7.6c1.8,5.1,4,10,6.2,14.9L328.4,619.6z"/>
		</g>
		<g>
			<path class="st1" d="M225.5,615c0-309-0.1-518.4-0.1-518.4s-5.9-4.1-6.9,1.9s-1,503-1,512S225.5,615,225.5,615z"/>
			<path class="st0" d="M225.4,614.9c-0.8-1.8-1.2-3.4-1.6-5c-0.3-1.5-0.5-3-0.6-4.4c-0.1-2.8,0-5.4-0.1-8.1l-0.1-16.2v-32.3
				c0-10.8,0.1-21.5,0.1-32.2l0.2-32.2l0.5-64.4l0.4-64.6l0.2-129.4v-64.7l-0.1-64.7l0.4,0.8l0,0c-1-0.7-2.3-1.2-3.3-1.2
				c-0.5,0-0.9,0.1-1.2,0.5c-0.3,0.3-0.6,0.8-0.7,1.4c-0.2,0.5-0.1,1.3-0.2,1.9v2c0,1.4-0.1,2.7-0.1,4.1l-0.1,16.7l-0.1,33.3
				l-0.1,66.6V356l0.2,133.3v66.6l-0.1,33.3v16.7v4.2c0,0.4,0,0.7,0,1s0,0.6,0.1,0.9l0.2,0.8c0.1,0.3,0.2,0.5,0.3,0.7
				s0.2,0.4,0.3,0.6c0.1,0.1,0.1,0.1,0.2,0.2c0.1,0.1,0.1,0.2,0.2,0.2c0.3,0.2,0.7,0.4,1.3,0.5c0.5,0.1,1.2,0.1,1.8,0.1
				C224,615,224.7,614.9,225.4,614.9z M225.6,615.1c-0.6,0.7-1.1,1.1-1.8,1.5s-1.4,0.7-2.3,0.8c-0.9,0.1-1.8,0-2.7-0.5
				c-0.5-0.2-0.8-0.6-1.2-0.9c-0.3-0.4-0.6-0.8-0.8-1.2s-0.4-0.8-0.5-1.2l-0.3-1.2c0-0.4-0.1-0.8-0.1-1.2s0-0.8,0-1.1v-4.2v-16.7
				l-0.1-33.3l0.1-66.6l0.4-133.3l0.3-133.3l0.3-66.6l0.2-33.3l0.2-16.7c0-1.4,0.1-2.8,0.1-4.2l0.1-2.1c0-0.7,0-1.4,0.2-2.2
				c0.2-0.8,0.6-1.6,1.2-2.3c0.6-0.7,1.7-1,2.5-1c0.9,0,1.7,0.2,2.4,0.5s1.4,0.6,2,1.1l0,0l0.4,0.3v0.5l-0.1,64.9v64.9l0.3,129.8
				l0.4,65l0.6,65.2l0.2,32.6c0.1,10.9,0.1,21.7,0.1,32.6v32.5v16.2c0,2.7,0,5.4-0.1,8.1c-0.1,1.3-0.3,2.5-0.6,3.7
				C226.8,613.1,226.4,614.2,225.6,615.1z"/>
		</g>
		<g>
			<path class="st1" d="M583.7,618c0-378.7,0-615,0-615s-6.2-1.5-6.2,6.5s-7,597-4,604S583.7,618,583.7,618z"/>
			<path class="st0" d="M583.5,617.9c-0.6-2.1-1-3.9-1.3-5.7s-0.5-3.5-0.6-5.2s-0.1-3.3-0.1-4.9v-4.8v-19.2v-38.3
				c0-12.8,0.1-25.5,0.2-38.2l0.2-38.2l0.6-76.4l0.4-76.6c0.1-25.6-0.1-51.2-0.3-76.9c-0.2-25.6-0.1-51.2-0.2-76.8V3.1l0.8,1l0,0
				c-0.5-0.3-1.3-0.3-2-0.3c-0.7,0.1-1.3,0.4-1.8,0.9c-1,1-1.3,2.6-1.4,4.1c-0.1,3.2-0.1,6.5-0.1,9.8l-0.2,19.6l-0.3,39.2l-0.7,78.4
				l-1.2,156.7l-0.9,156.7l-0.4,78.4c-0.1,13.1-0.1,26.1,0,39.2c0,6.5,0.1,13.1,0.2,19.6c0,1.6,0.1,3.2,0.2,4.9
				c0,0.7,0.1,1.7,0.1,1.9l0.4,1l0.5,0.9c0.8,1.2,1.9,2,3.2,2.5c0.7,0.2,1.4,0.4,2.2,0.5c0.4,0,0.8,0.1,1.2,0.1h0.6h0.3
				C583.4,617.9,583.6,617.8,583.5,617.9z M583.8,618.1c-0.2,0.1-0.2,0.1-0.3,0.2l-0.3,0.1c-0.2,0.1-0.4,0.2-0.6,0.2
				c-0.4,0.1-0.8,0.3-1.3,0.3c-0.9,0.2-1.8,0.2-2.7,0.1c-1.8-0.2-3.7-1.2-4.9-2.6c-0.3-0.4-0.6-0.7-0.8-1.1l-0.7-1.2
				c-0.2-0.5-0.3-1.3-0.3-1.6l-0.1-1.3c-0.1-1.7-0.2-3.3-0.2-4.9c-0.2-6.6-0.2-13.1-0.3-19.6c-0.1-13.1-0.1-26.1-0.1-39.2
				c0-26.1,0.2-52.2,0.3-78.4l1.6-156.7l1.9-156.7l1-78.4l0.5-39.2l0.3-19.6c0.1-3.3,0.1-6.5,0.1-9.8c0.1-1.7,0.5-3.5,1.8-4.9
				c0.6-0.7,1.5-1.2,2.4-1.5s1.8-0.4,2.9-0.4l0,0l0.8,0.2v0.8v153.9c0,25.7,0,51.3-0.2,76.9s-0.4,51.2-0.3,76.9l0.4,77.1l0.6,77.3
				l0.2,38.7c0.1,12.9,0.2,25.8,0.2,38.6v38.6v19.3v4.8c0,1.6,0,3.2-0.1,4.7s-0.3,3-0.6,4.4C584.8,615.6,584.4,616.9,583.8,618.1z"
				/>
		</g>
		<g>
			<path id="flagArea" class="st2" d="M687.5,270.2c-9.7,60.9-21,175.9,12.6,266.3c0,0-194.2-118.6-388.3-31.2
				c-16-126.3,70.6-304.2,70.6-304.2l313.2,27C695.6,228.1,691.7,244.2,687.5,270.2z"/>
			<path class="st0" d="M687.7,270.3c-3.5,22.2-6.1,44.5-7.8,66.8c-1.6,22.4-2.4,44.8-1.7,67.2c0.6,22.4,2.5,44.8,6.1,66.9
				c3.7,22.1,9.1,43.9,17.1,64.8l0,0l1.2,3.5l-3.2-1.9c-7.1-4.3-14.6-8.2-22.1-12c-3.7-1.9-7.5-3.7-11.3-5.5
				c-3.8-1.7-7.6-3.5-11.5-5.2c-15.4-6.7-31.1-12.7-47.1-17.8c-32-10.3-64.9-17.7-98.4-21.1c-33.4-3.5-67.3-3.3-100.5,1.7l-6.2,0.9
				l-6.2,1.2c-4.1,0.8-8.3,1.5-12.4,2.4l-12.2,3c-2,0.5-4.1,0.9-6.1,1.6l-6,1.8c-4,1.2-8.1,2.4-12,3.7l-11.9,4.3
				c-2,0.7-4,1.4-5.9,2.2l-5.8,2.5l-11.6,4.9l-1,0.4l-0.1-1.1c-1.6-13.1-2.2-26.3-2-39.5l0.3-9.9l0.6-9.9c0.2-3.3,0.6-6.6,0.8-9.9
				c0.3-3.3,0.6-6.6,1.1-9.8c1.5-13.1,3.7-26.1,6.3-39.1c2.5-13,5.6-25.8,8.9-38.5c3.3-12.8,7.1-25.4,11-38c4-12.6,8.2-25,12.7-37.4
				c9-24.8,19-49.2,30.3-73.1l0.5-1l1.1,0.1l78.3,6.8l78.3,7l78.3,7.3c26.1,2.4,52.2,4.9,78.3,7.1h0.3l-0.1,0.3
				c-1.6,7-3.1,14-4.4,21C690.1,256.2,688.8,263.2,687.7,270.3z M687.4,270.2c1.1-7.1,2.3-14.1,3.6-21.2c1.3-7,2.7-14.1,4.3-21
				l0.2,0.3c-26.1-2.2-52.2-4.3-78.3-6.3l-78.4-6.2l-78.3-6.4l-78.3-6.7l1.5-0.9c-5.6,11.8-10.8,23.9-15.9,36
				c-5,12.1-9.8,24.4-14.4,36.7c-4.5,12.3-8.8,24.8-12.8,37.3s-7.8,25.1-11.1,37.8c-3.4,12.7-6.5,25.5-9.1,38.3
				c-2.6,12.9-4.9,25.8-6.5,38.8c-0.5,3.2-0.8,6.5-1.1,9.8c-0.3,3.3-0.7,6.5-0.9,9.8l-0.7,9.8l-0.3,9.8c-0.3,13.1,0.2,26.2,1.7,39.3
				l-1.2-0.6l11.7-4.8l5.8-2.4c2-0.8,4-1.4,6-2.1l11.9-4.2c4-1.3,8.1-2.4,12.1-3.6l6.1-1.8c2-0.6,4.1-1,6.1-1.5l12.3-2.9
				c4.1-0.8,8.3-1.6,12.4-2.4l6.2-1.2l6.3-0.9c33.3-4.8,67.3-5.2,100.8-1.8c16.8,1.6,33.4,4.4,49.9,7.9s32.8,7.8,48.9,12.8
				c16.1,5.1,31.9,10.9,47.4,17.4c3.9,1.6,7.7,3.3,11.6,5c3.8,1.8,7.7,3.5,11.5,5.4c7.6,3.7,15.1,7.5,22.4,11.8l-2,1.6l0,0
				c-7.6-21.3-12.7-43.3-16-65.5c-3.4-22.2-5.1-44.7-5.5-67.1c-0.4-22.5,0.3-44.9,2-67.3C681.1,314.7,683.8,292.4,687.4,270.2z"/>
		</g>
		<g>
			<path class="st2" d="M653,102c-14.8,20-30.8,58.6,3.6,111.9c0,0-103.1-53.4-215.4-31.4C427,84,494.3,60.3,494.3,60.3L668,86.4
				C667.9,86.3,660.6,91.7,653,102z"/>
			<path class="st0" d="M653.1,102.1c-5.9,8-10.5,17-13.4,26.6c-2.9,9.5-3.9,19.6-3.2,29.5s3.1,19.7,6.7,29
				c3.6,9.3,8.4,18.1,13.8,26.4l1,1.5l-1.6-0.8c-8.2-4-16.8-7.6-25.4-10.8c-8.6-3.3-17.3-6.2-26.1-8.8c-17.6-5.3-35.6-9.4-53.8-12.3
				c-9.1-1.4-18.2-2.5-27.4-3.2c-2.3-0.2-4.6-0.3-6.9-0.4c-2.3-0.1-4.6-0.3-6.9-0.3l-6.9-0.2h-6.9h-3.4l-3.4,0.1l-6.9,0.2l-6.9,0.5
				c-1.1,0.1-2.3,0.1-3.4,0.2l-3.4,0.4c-2.3,0.2-4.6,0.5-6.8,0.7l-6.8,0.9c-1.1,0.2-2.3,0.3-3.4,0.5l-3.4,0.6l-6.8,1.2l0,0l-1.2,0.2
				l-0.2-1.2c-1.8-11.9-2.6-24-1.9-36.1l0.3-4.5c0.1-1.5,0.3-3,0.5-4.5c0.3-3,0.9-6,1.4-9c0.3-1.5,0.7-3,1-4.4
				c0.3-1.5,0.7-3,1.1-4.4l1.3-4.4l1.5-4.3c4.3-11.4,10.5-22.1,18.8-31.1c4.1-4.5,8.7-8.6,13.6-12.2c5-3.6,10.1-6.7,16-9l0.3-0.1
				l0.4,0.1c14.5,2.2,28.9,4.4,43.4,6.7c14.5,2.3,28.9,4.5,43.4,6.9l43.4,7l21.7,3.5l21.7,3.4l0.6,0.1l-0.5,0.4
				c-2.8,2.2-5.5,4.7-7.9,7.3c-1.2,1.3-2.4,2.6-3.6,4C655.3,99.2,654.2,100.6,653.1,102.1z M652.9,101.9c1.1-1.5,2.2-2.9,3.3-4.3
				s2.3-2.8,3.6-4.1c2.5-2.6,5.1-5.2,7.9-7.4l0.1,0.5l-21.7-3.1l-21.7-3l-43.5-6.1c-14.5-2-29-4.1-43.5-6.2s-29-4.2-43.4-6.4
				l0.7-0.1c-2.6,1-5.3,2.4-7.8,3.8c-2.5,1.5-5,3.1-7.4,4.8c-4.7,3.5-9.1,7.4-13.1,11.8c-7.9,8.7-14,19-18.2,30l-1.5,4.2l-1.3,4.2
				c-0.5,1.4-0.8,2.8-1.1,4.3c-0.3,1.4-0.7,2.9-1,4.3c-0.5,2.9-1.1,5.8-1.4,8.8c-0.2,1.5-0.4,2.9-0.5,4.4l-0.4,4.4
				c-0.9,11.8-0.2,23.8,1.4,35.6l-1.4-1l0,0l6.8-1.2l3.4-0.6c1.1-0.2,2.3-0.3,3.4-0.5l6.9-0.9c2.3-0.3,4.6-0.5,6.9-0.7l3.5-0.3
				c1.2-0.1,2.3-0.2,3.5-0.2l6.9-0.4l6.9-0.2l3.5-0.1h3.5h6.9l6.9,0.2c2.3,0.1,4.6,0.2,6.9,0.4c2.3,0.2,4.6,0.3,6.9,0.5
				c9.2,0.7,18.4,1.9,27.5,3.3c18.2,3,36.3,7.2,53.9,12.6c8.8,2.7,17.5,5.8,26.2,9.1c8.6,3.4,17.1,7,25.4,11.1l-0.6,0.7
				c-5.3-8.5-10.1-17.3-13.6-26.7s-5.9-19.2-6.5-29.2s0.4-20.1,3.3-29.7C642.3,119,647,109.9,652.9,101.9z"/>
		</g>
		<g>
			<path class="st3" d="M352.7,466.4"/>
		</g>
		<g>
			<path class="st3" d="M214.7,479.7"/>
		</g>
		<g>
			<path class="st3" d="M312.3,364.6"/>
		</g>
		<g>
			<path class="st0" d="M153.4,149.7c2.2-0.4,4.3,0,6.4,0.4l6.2,1.1c4.2,0.7,8.3,1.5,12.5,2.2l12.4,2.3l12.5,2.2l49.9,8.3
				c16.6,2.8,33.3,5.5,49.9,8.5l24.9,4.6c4.1,0.8,8.3,1.6,12.4,2.4l6.2,1.2c2.1,0.5,4.2,0.6,6.1,1.9l-0.1,0.3
				c-2.2,0.5-4.3,0-6.4-0.3l-6.3-0.9c-4.2-0.6-8.3-1.3-12.5-2l-25-4.2c-16.6-2.9-33.2-6-49.8-9.1l-49.8-9.2l-12.5-2.2l-12.5-2.1
				c-4.2-0.7-8.3-1.4-12.5-2.2l-6.2-1.1c-2.1-0.4-4.2-0.7-6.1-1.8L153.4,149.7z"/>
		</g>
		<g>
			<path class="st0" d="M85.1,309.7c2.7-0.3,5.1,0.3,7.7,0.7l7.6,1.2c5.1,0.8,10.1,1.6,15.2,2.5l15.2,2.5L146,319l60.9,9.4
				c20.3,3.1,40.6,6.2,60.9,9.6c10.1,1.7,20.3,3.4,30.4,5.1c5.1,0.9,10.1,1.8,15.2,2.7c5,1,10.1,1.6,15.1,3.3v0.3
				c-5.2,0.1-10.3-0.9-15.3-1.6c-5.1-0.7-10.2-1.5-15.2-2.2c-10.2-1.5-20.3-3.2-30.4-4.7c-20.3-3.2-40.5-6.7-60.8-10.1l-60.7-10.3
				l-15.2-2.5l-15.2-2.4c-5.1-0.8-10.1-1.6-15.2-2.5l-7.6-1.3c-2.5-0.5-5.1-0.6-7.5-1.8L85.1,309.7z"/>
		</g>
		<g>
			<path class="st0" d="M477,46.5c1.3-0.8,2.5-1,3.7-1c1.2,0.1,2.3,0.4,3.4,0.5c2.3,0.4,4.5,0.8,6.8,1.2c4.5,0.9,9.1,1.8,13.6,2.8
				l13.5,2.9l6.8,1.4l6.8,1.3c18.2,3.4,36.4,6.2,54.6,9.4l27.3,4.7l27.3,4.8c9.1,1.6,18.2,3.2,27.3,4.8c4.5,0.8,9.1,1.7,13.6,2.6
				c2.3,0.5,4.5,0.9,6.8,1.4c2.2,0.6,4.5,1.3,6.6,2.3l-0.1,0.3c-2.4,0.2-4.7,0.1-7-0.1c-2.3-0.3-4.6-0.7-6.9-1
				c-4.6-0.7-9.1-1.5-13.7-2.3c-9.1-1.6-18.2-3.4-27.3-5l-27.2-5l-27.2-5.1c-18.2-3.4-36.3-7.1-54.5-10.3l-6.8-1.1l-6.8-1.1L504,53
				c-4.6-0.7-9.1-1.4-13.7-2.1c-2.3-0.4-4.5-0.8-6.8-1.2c-1.1-0.2-2.3-0.4-3.4-0.7c-1.1-0.4-2.2-0.9-3.1-2.2V46.5z"/>
		</g>
		<g>
			<path class="st0" d="M367.9,190.1c2-0.9,3.9-0.9,5.8-0.8l5.7,0.5c3.8,0.3,7.6,0.6,11.4,1c7.6,0.6,15.2,1.4,22.8,2.1l22.7,2.2
				l22.8,2.1c30.4,2.6,60.8,4.8,91.1,7.2l91.1,7.4l45.6,3.6l11.4,0.9l11.4,1.1c3.8,0.4,7.6,0.7,11.4,1.1c3.8,0.5,7.5,1.1,11.3,2.3
				v0.3c-3.9,0.5-7.7,0.5-11.5,0.4c-3.8-0.2-7.6-0.5-11.4-0.8l-11.4-0.9l-11.4-1l-45.5-4.1l-91.1-8c-30.4-2.7-60.7-5.6-91.1-8.1
				l-22.8-1.8l-22.8-1.6c-7.6-0.6-15.2-1.1-22.8-1.7c-3.8-0.3-7.6-0.6-11.4-1l-5.7-0.5c-1.9-0.2-3.8-0.5-5.6-1.7L367.9,190.1z"/>
		</g>
		<g>
			<path class="st0" d="M33.5,489.3c1.6-0.6,3.1-0.6,4.5-0.6c1.5,0.1,2.9,0.4,4.4,0.5c2.9,0.4,5.8,0.8,8.7,1.2
				c5.8,0.8,11.6,1.8,17.4,2.7c11.6,1.8,23.2,3.7,34.8,5.3c23.2,3.3,46.5,6.2,69.8,9.3l69.7,9.5l34.9,4.6c5.8,0.8,11.6,1.6,17.4,2.5
				l8.7,1.3c2.9,0.4,5.8,1,8.5,2.7v0.3c-3.1,0.9-6,0.7-8.9,0.3l-8.7-1.1c-5.8-0.7-11.6-1.6-17.4-2.4l-34.8-5.2l-69.7-10.1
				c-23.2-3.4-46.4-7-69.6-10.2c-11.6-1.6-23.3-3-34.9-4.4c-5.8-0.7-11.6-1.4-17.5-2.2c-2.9-0.4-5.8-0.8-8.7-1.2
				c-1.4-0.2-2.9-0.4-4.3-0.7c-1.4-0.3-2.8-0.8-4.2-1.8L33.5,489.3z"/>
		</g>
		<g>
			<path class="st0" d="M705.9,536.7c-1.1,0.9-2.1,0.6-3.1,0.6l-3-0.2l-6-0.4l-12-0.8l-24-1.8l-24-1.8l-24-1.8l-96.2-6.4l-48.1-3.2
				l-48.1-3.3l-48.1-3.4c-8-0.6-16-1.2-24-1.8l-12-1l-6-0.5c-2-0.2-4-0.1-5.9-1.5v-0.3c2.1-1.1,4.1-0.7,6.1-0.6l6,0.4l12,0.7
				c8,0.5,16,1.1,24.1,1.6l48.1,3.5l48.1,3.5l48.1,3.6l96.2,7.3l24,1.7l24.1,1.6l24.1,1.7l12,0.9l6,0.4l3,0.2c1,0.1,2-0.1,3,1
				L705.9,536.7z"/>
		</g>
		<g>
			<path class="st0" d="M429,184.8c4.8-0.6,9.6,0.1,14.3,0.4c4.7,0.4,9.5,0.9,14.2,1.3l14.2,1.4l14.2,1.4l28.5,2.4l28.5,2.3
				l56.9,4.9L614,200l14.2,1.1c4.7,0.4,9.5,0.8,14.2,1.3l7.1,0.8c1.2,0.1,2.4,0.4,3.5,0.7c1.2,0.4,2.3,0.8,3.4,1.6v0.3
				c-1.2,0.5-2.5,0.8-3.7,0.9c-1.2,0.1-2.4,0.1-3.6,0.1l-7.1-0.5c-4.7-0.4-9.5-0.8-14.2-1.3l-14.2-1.5l-14.2-1.5l-56.9-5.5
				l-28.4-2.8l-28.4-2.8l-14.2-1.2l-14.2-1.1c-4.7-0.4-9.5-0.8-14.2-1.2c-4.7-0.5-9.5-0.7-14.1-2.2L429,184.8L429,184.8z"/>
		</g>
		<g>
			<path class="st0" d="M674.4,617.6l-13-28.6l-12.9-28.6c-4.3-9.5-8.8-19-12.7-28.7c-4-9.7-7.8-19.4-11.2-29.3l0.3-0.1
				c4.9,9.3,9.3,18.7,13.7,28.3c4.3,9.5,8.1,19.3,12.2,28.9l12,29l11.9,29L674.4,617.6z"/>
		</g>
		<g>
			<path class="st4" d="M119.4,279.5c43.8,6.8,196.4,30.4,196.4,30.4s1.2,0.2,2.3,0.4"/>
			<path class="st0" d="M119.4,279.3c1.2-0.7,2.2-0.8,3.3-0.8c1.1,0,2.1,0.3,3.1,0.4c2.1,0.3,4.1,0.6,6.2,1
				c4.1,0.7,8.3,1.4,12.4,2.2c8.2,1.5,16.5,3.1,24.7,4.4c16.5,2.6,33.1,4.8,49.7,7.2l24.9,3.6l24.8,3.7l24.8,3.8
				c4.1,0.7,8.3,1.3,12.4,2l6.2,1.1l3.1,0.5c1,0.2,2,0.5,2.9,1.6v0.3c-1.2,0.7-2.2,0.8-3.3,0.6l-3.1-0.4l-6.2-0.8
				c-4.2-0.5-8.3-1.2-12.4-1.8l-24.8-3.9l-24.8-3.9l-24.8-4c-16.5-2.7-33-5.6-49.6-8.1c-8.3-1.3-16.6-2.3-24.9-3.3
				c-4.2-0.5-8.3-1.1-12.5-1.7c-2.1-0.3-4.1-0.6-6.2-1c-1-0.2-2.1-0.3-3.1-0.6c-1-0.3-2-0.8-2.9-1.8L119.4,279.3z"/>
		</g>
		<g>
			<path class="st2" d="M145.9,184.7c12.8-18.4,25.6-25.8,25.6-25.8l156.7,29c0,0-5.3,6.9-10.3,19.7c-8.4,21.4-4.6,50.9,13,102.2
				c-6-3.1-103.8-51.3-210.4-31C120,233.5,132.9,203.4,145.9,184.7z"/>
			<path class="st0" d="M145.8,184.6c0.9-1.2,1.8-2.5,2.7-3.7s1.8-2.4,2.8-3.6c1.9-2.4,4-4.6,6.1-6.8s4.4-4.3,6.7-6.3
				s4.8-3.8,7.4-5.5l0,0h0.1L328.4,187l1.3,0.2l-0.8,1.1c-3,4.2-5.5,8.9-7.7,13.7s-4,9.7-5.1,14.8s-1.4,10.4-1.5,15.6
				c0,5.2,0.5,10.5,1.2,15.7c1.5,10.4,3.9,20.7,6.7,30.9c2.8,10.2,6.1,20.3,9.5,30.3l1,2.8l-2.7-1.3c-8-3.9-16.3-7.4-24.7-10.5
				c-8.4-3.2-16.9-6-25.5-8.6c-17.2-5.1-34.7-9.3-52.4-12c-4.4-0.7-8.9-1.3-13.3-1.9l-6.7-0.7c-2.2-0.3-4.5-0.4-6.7-0.6l-3.3-0.3
				l-3.4-0.2c-2.2-0.1-4.5-0.3-6.7-0.4c-4.5-0.1-9-0.3-13.4-0.3c-17.9-0.2-35.8,1.5-53.5,4.5l-1.2,0.2v-1.2c0-8.3,0.5-16.6,1.4-24.8
				s2.5-16.4,4.6-24.4s4.8-15.9,8.2-23.4C137,198.6,141.1,191.4,145.8,184.6z M146.1,184.7c-4.6,6.8-8.6,14.1-11.9,21.6
				c-3.2,7.6-5.9,15.4-7.8,23.4c-1.9,8-3.3,16.1-4,24.3c-0.8,8.2-1,16.4-0.8,24.6l-1.2-1c17.7-3.5,35.8-5.3,53.9-5.4
				c9-0.1,18.1,0.3,27.1,1s18,1.8,26.9,3.2c17.9,2.8,35.5,7,52.7,12.4c8.6,2.7,17.2,5.6,25.6,8.9s16.7,6.8,24.9,10.8l-1.7,1.5
				c-3.4-10.1-6.6-20.2-9.4-30.5s-5.2-20.7-6.6-31.2c-0.6-5.3-1.2-10.6-1.1-16c0-5.3,0.4-10.7,1.6-16c1.1-5.3,3.1-10.3,5.3-15.2
				c2.3-4.8,4.8-9.6,8-14l0.5,1.4L171.6,159h0.1c-2.6,1.6-5,3.5-7.3,5.4c-2.3,2-4.5,4.1-6.7,6.2c-2.1,2.2-4.2,4.5-6.1,6.8
				c-1,1.2-1.9,2.4-2.8,3.6C147.8,182.3,147,183.5,146.1,184.7z"/>
		</g>
		<g>
			<path class="st2" d="M315.8,523.8c0,0-124.2-73.7-267.3-36.4c4.7-124.3,55.3-164.3,55.3-164.3l120.1,18l106.7,16
				C330.5,357.3,271.1,419,315.8,523.8"/>
			<path class="st0" d="M315.7,523.9c-10-5.6-20.5-10.5-31-14.9c-10.6-4.5-21.4-8.4-32.3-12c-21.9-7.1-44.3-12.3-67-15.6
				c-11.4-1.6-22.8-2.7-34.3-3.3l-8.6-0.3c-1.4,0-2.9-0.1-4.3-0.1h-4.3c-2.9,0-5.7,0-8.6,0.1l-8.6,0.3c-2.9,0.1-5.7,0.3-8.6,0.5
				l-4.3,0.3c-1.4,0.1-2.9,0.2-4.3,0.4c-5.7,0.7-11.4,1.2-17.1,2.2c-11.4,1.6-22.6,4.1-33.7,6.9l-1.2,0.3l0.1-1.2l1.3-22.2l1.2-11
				l0.6-5.5L51,446l0.2-1.4l0.2-1.4l1.8-11l0.9-5.5c0.3-1.8,0.8-3.6,1.2-5.4l2.4-10.8l0.3-1.4l0.4-1.3l0.8-2.7l1.5-5.4
				c4.1-14.2,9.2-28.2,16.1-41.4c1.8-3.3,3.5-6.5,5.4-9.7l3-4.7c0.5-0.8,1-1.6,1.5-2.4l1.6-2.3c4.3-6.1,8.9-11.9,14.7-17l0.4-0.3
				l0.6,0.1l56.7,8.4l56.7,8.4l56.7,8.5c18.9,2.8,37.8,5.8,56.7,8.7l2.5,0.4l-1.7,1.9c-2.4,2.6-4.6,5.5-6.7,8.5s-4,6.1-5.8,9.2
				c-3.6,6.3-6.7,12.9-9.3,19.7c-5.2,13.6-8.2,28-9.3,42.6c-0.1,1.8-0.2,3.6-0.3,5.5c0,0.9-0.1,1.8-0.1,2.7v2.7c0,1.8,0,3.7,0.1,5.5
				l0.3,5.5c0.6,7.3,1.4,14.6,2.8,21.7c2.7,14.4,7.1,28.4,12.7,42L315.7,523.9c-5.9-13.5-10.6-27.5-13.6-42
				c-3.1-14.4-4.3-29.2-3.5-44c0.9-14.7,3.7-29.4,8.9-43.3c2.6-6.9,5.7-13.7,9.3-20.1c3.7-6.4,7.7-12.6,12.8-18.3l0.8,2.3
				c-18.9-2.8-37.8-5.5-56.7-8.4l-56.7-8.5l-56.7-8.6l-56.7-8.7l1-0.3c-2.7,2.2-5.2,5-7.6,7.7c-1.2,1.4-2.3,2.8-3.4,4.3
				c-1.2,1.4-2.2,3-3.2,4.4l-1.6,2.2c-0.5,0.8-1,1.5-1.5,2.3l-2.9,4.6c-1.9,3.2-3.6,6.4-5.4,9.6c-6.8,13-11.9,26.9-16.1,41l-1.5,5.3
				l-0.8,2.7l-0.4,1.3l-0.3,1.3l-2.4,10.8c-0.4,1.8-0.9,3.6-1.2,5.4l-0.9,5.4l-1.9,10.9l-0.2,1.4l-0.2,1.4l-0.3,2.7l-0.6,5.5
				l-1.3,11l-1.4,22.1l-1.1-0.9c11.2-2.7,22.5-5.2,33.9-6.8c5.7-0.9,11.4-1.5,17.2-2.1c1.4-0.2,2.9-0.3,4.3-0.4l4.3-0.3
				c2.9-0.2,5.7-0.4,8.6-0.5l8.6-0.3c2.9-0.1,5.8,0,8.6,0h4.3c1.4,0,2.9,0.1,4.3,0.2l8.6,0.3c11.5,0.7,23,1.9,34.4,3.5
				c22.8,3.5,45.2,8.8,67.1,16c10.9,3.6,21.7,7.6,32.3,12.2c10.6,4.5,21,9.4,31,15.1L315.7,523.9z"/>
		</g>
	</g>
	<g>
		<g>
			<path class="st0" d="M68.7,470.3c1.1,0.1,2.1,0.5,2.9,0.9c0.9,0.5,1.6,1.1,2.3,1.8c0.7,0.7,1.2,1.5,1.6,2.4s0.7,1.9,0.7,3
				c-1-0.4-1.8-1-2.5-1.6s-1.4-1.2-2-1.8c-0.6-0.7-1.1-1.4-1.7-2.1C69.5,472.2,69.1,471.4,68.7,470.3z"/>
		</g>
		<g>
			<path class="st0" d="M82.1,462.8c1.3,0.8,2.5,1.8,3.5,2.9s1.9,2.2,2.8,3.4c0.8,1.2,1.6,2.4,2.3,3.7c0.7,1.3,1.2,2.7,1.6,4.2
				c-1.4-0.8-2.5-1.8-3.5-2.9s-1.9-2.2-2.8-3.4c-0.8-1.2-1.6-2.4-2.3-3.7C83,465.7,82.4,464.3,82.1,462.8z"/>
		</g>
		<g>
			<path class="st0" d="M85.8,453.7c2.3,0.9,4.3,2.3,6.1,3.9c1.8,1.6,3.4,3.5,4.7,5.5c1.3,2,2.4,4.3,3.1,6.6
				c0.7,2.3,1.2,4.7,1.1,7.2c-1.1-2.2-2.1-4.2-3.2-6.2s-2.2-4-3.5-5.9c-1.2-1.9-2.5-3.7-3.9-5.6C88.8,457.3,87.3,455.6,85.8,453.7z"
				/>
		</g>
		<g>
			<path class="st0" d="M98.8,450.1c2,1.6,3.7,3.5,5.4,5.4c1.6,1.9,3.1,4,4.6,6c1.4,2.1,2.7,4.3,3.9,6.5c1.1,2.3,2.2,4.6,2.9,7
				c-1.8-1.8-3.4-3.8-4.9-5.8s-3-4-4.4-6.1s-2.7-4.2-4-6.4C101,454.7,99.8,452.5,98.8,450.1z"/>
		</g>
		<g>
			<path class="st0" d="M108.6,440.9c2.4,2.3,4.5,4.8,6.5,7.4s3.8,5.4,5.5,8.2c1.7,2.8,3.2,5.7,4.5,8.7c1.4,3,2.6,6,3.4,9.2
				c-2-2.7-3.7-5.4-5.5-8.1c-1.7-2.7-3.4-5.5-5.1-8.3c-1.6-2.8-3.3-5.6-4.8-8.4C111.5,446.7,109.9,443.9,108.6,440.9z"/>
		</g>
		<g>
			<path class="st0" d="M119.6,441.4c3,2.1,5.6,4.6,8,7.4c2.4,2.7,4.6,5.7,6.4,8.8c1.9,3.1,3.5,6.4,4.7,9.8
				c1.3,3.4,2.2,6.9,2.7,10.5c-1.6-3.2-3.2-6.5-4.8-9.6c-1.7-3.1-3.4-6.2-5.2-9.3c-1.8-3-3.7-6-5.7-8.9
				C123.8,447.3,121.7,444.4,119.6,441.4z"/>
		</g>
		<g>
			<path class="st0" d="M134.1,440.3c2.8,2.3,5.3,5,7.6,7.7c2.3,2.8,4.4,5.7,6.4,8.7c1.9,3,3.7,6.2,5.2,9.5c0.8,1.6,1.4,3.3,2.1,4.9
				c0.7,1.6,1.4,3.2,2.4,4.7c-1.5-1-2.7-2.5-3.7-4s-1.9-3-2.9-4.5l-5.6-9l-5.7-9C137.9,446.4,136,443.4,134.1,440.3z"/>
		</g>
		<g>
			<path class="st0" d="M149.7,438c2.6,2.6,4.9,5.5,7,8.5s4.1,6.1,5.9,9.3c1.8,3.2,3.4,6.5,4.8,9.9c1.4,3.4,2.6,6.9,3.4,10.5
				c-2-3.1-3.8-6.3-5.5-9.5l-5.3-9.5l-5.2-9.5C153,444.6,151.3,441.4,149.7,438z"/>
		</g>
		<g>
			<path class="st0" d="M166.2,440.5c1,0.1,1.9,0.6,2.7,1.2s1.5,1.3,2.1,2.1c1.2,1.5,2.4,3,3.5,4.6c1.1,1.5,2.2,3.2,3.2,4.8
				c1,1.6,2,3.3,3,4.9c1.9,3.3,3.7,6.7,5.3,10.2s3,7,4.1,10.7c-2.2-3.2-4.2-6.4-6.2-9.6c-2-3.3-3.9-6.5-5.8-9.8l-2.8-4.9
				c-0.9-1.7-1.9-3.3-2.8-5c-0.9-1.7-1.8-3.4-2.7-5C168.9,443,167.9,441.5,166.2,440.5z"/>
		</g>
		<g>
			<path class="st0" d="M185.9,445.5c2.9,2.3,5.5,4.9,7.9,7.7c2.4,2.8,4.6,5.7,6.7,8.8c2,3.1,3.8,6.3,5.4,9.6
				c1.6,3.3,2.9,6.8,3.9,10.4c-2.1-3.1-4-6.2-5.9-9.2l-5.9-9.1c-2-3-4-6-6-9C189.9,451.6,187.8,448.6,185.9,445.5z"/>
		</g>
		<g>
			<path class="st0" d="M208.4,457.7c2.6,2,4.9,4.4,7,6.8c2.2,2.4,4.1,5.1,5.9,7.8c1.8,2.7,3.5,5.5,4.9,8.5c1.5,2.9,2.7,5.9,3.6,9.1
				c-2-2.6-3.8-5.3-5.7-7.9c-1.8-2.6-3.6-5.3-5.4-8c-1.8-2.7-3.6-5.3-5.3-8C211.8,463.3,210,460.6,208.4,457.7z"/>
		</g>
		<g>
			<path class="st0" d="M228,464.1c1.7,1.7,3.1,3.5,4.4,5.4c1.3,1.9,2.5,3.8,3.6,5.8s2.1,4,3.1,6.1c0.9,2.1,1.8,4.2,2.3,6.5
				c-1.7-1.7-3.1-3.5-4.4-5.4c-1.3-1.9-2.5-3.8-3.6-5.8s-2.1-4-3.1-6.1C229.5,468.6,228.6,466.4,228,464.1z"/>
		</g>
		<g>
			<path class="st0" d="M243.1,470c2,1.8,3.7,3.8,5.3,5.9s3,4.3,4.3,6.6c1.3,2.3,2.5,4.6,3.5,7s1.9,4.9,2.4,7.5
				c-1.7-2.1-3.1-4.3-4.5-6.4c-1.4-2.2-2.7-4.4-4-6.6s-2.5-4.5-3.7-6.8C245.2,474.8,244,472.5,243.1,470z"/>
		</g>
		<g>
			<path class="st0" d="M256.4,478.8c1.9,1.3,3.5,2.8,5,4.5c1.4,1.7,2.7,3.6,3.8,5.6c1.1,2,1.9,4.1,2.6,6.2c0.6,2.2,1,4.4,1,6.7
				c-1.2-1.9-2.2-3.9-3.2-5.8l-3-5.7l-3.1-5.7C258.4,482.7,257.4,480.8,256.4,478.8z"/>
		</g>
		<g>
			<path class="st0" d="M272.1,487.9c1.1,1.4,1.9,2.9,2.7,4.4c0.8,1.5,1.5,3,2.1,4.5s1.2,3.1,1.7,4.7s1,3.2,1.2,5
				c-1.3-1.2-2.4-2.6-3.3-4s-1.7-3-2.4-4.5c-0.7-1.6-1.2-3.2-1.5-4.9C272.2,491.4,272,489.7,272.1,487.9z"/>
		</g>
		<g>
			<path class="st0" d="M284.3,497.2c0.8,0.6,1.4,1.2,1.9,1.9c0.5,0.6,0.9,1.3,1.2,2c0.3,0.7,0.6,1.4,0.9,2.1
				c0.2,0.8,0.4,1.6,0.4,2.6c-1-0.2-1.7-0.7-2.4-1.3c-0.6-0.6-1.2-1.3-1.5-2.1c-0.4-0.8-0.7-1.6-0.8-2.5
				C283.9,499,284,498.1,284.3,497.2z"/>
		</g>
		<g>
			<path class="st0" d="M142.7,265.4c0.8,0,1.4,0.2,1.9,0.5s0.9,0.6,1.3,1c0.3,0.4,0.6,0.9,0.8,1.4c0.2,0.6,0.2,1.2,0.1,2
				c-0.8,0-1.4-0.2-1.9-0.5s-0.9-0.6-1.3-1c-0.3-0.4-0.6-0.9-0.8-1.4C142.6,266.8,142.5,266.2,142.7,265.4z"/>
		</g>
		<g>
			<path class="st0" d="M149.9,260c1.1,0.6,2,1.4,2.9,2.2c0.8,0.8,1.5,1.7,2.2,2.6c0.6,0.9,1.2,1.9,1.6,3c0.4,1.1,0.8,2.2,0.9,3.5
				c-1.1-0.6-2-1.3-2.9-2.2c-0.8-0.8-1.5-1.7-2.2-2.6c-0.6-0.9-1.2-1.9-1.6-3C150.4,262.4,150,261.3,149.9,260z"/>
		</g>
		<g>
			<path class="st0" d="M153.4,251.2c0.5-0.1,1.2,0,1.7,0.2c0.6,0.2,1.1,0.6,1.5,0.9c0.9,0.8,1.6,1.5,2.4,2.3c1.5,1.6,2.8,3.2,4.1,5
				c1.3,1.7,2.5,3.5,3.6,5.4s2.1,3.8,2.9,5.9c-1.8-1.3-3.3-2.9-4.8-4.5s-2.8-3.2-4.1-5c-1.3-1.7-2.5-3.5-3.6-5.4
				c-0.6-0.9-1.1-1.9-1.6-2.8C155,252.4,154.4,251.6,153.4,251.2z"/>
		</g>
		<g>
			<path class="st0" d="M167,247.8c2.1,1.5,3.9,3.2,5.7,5c1.7,1.8,3.4,3.7,4.9,5.7s2.9,4,4.3,6.1c1.3,2.1,2.5,4.3,3.4,6.7
				c-1.9-1.7-3.6-3.5-5.3-5.3c-1.6-1.9-3.2-3.8-4.7-5.7c-1.5-2-3-4-4.3-6C169.5,252.2,168.2,250.1,167,247.8z"/>
		</g>
		<g>
			<path class="st0" d="M182.4,242.8c1.9,1.9,3.5,4,5.1,6.2c1.5,2.2,3,4.4,4.3,6.6c1.4,2.3,2.6,4.6,3.8,7c1.1,2.4,2.2,4.8,3,7.4
				c-1.9-1.9-3.5-4.1-5.1-6.2c-1.5-2.2-3-4.4-4.3-6.6c-1.4-2.3-2.6-4.6-3.8-7C184.3,247.8,183.2,245.4,182.4,242.8z"/>
		</g>
		<g>
			<path class="st0" d="M193.1,241c2.4,2,4.5,4.2,6.5,6.5s3.9,4.7,5.7,7.1c1.8,2.5,3.5,5,5,7.6s3,5.3,4.1,8.2
				c-2.2-2.2-4.1-4.5-6-6.9c-1.9-2.3-3.7-4.8-5.5-7.2c-1.8-2.4-3.5-4.9-5.1-7.5C196.1,246.4,194.5,243.8,193.1,241z"/>
		</g>
		<g>
			<path class="st0" d="M210.2,241.8c2.7,2.6,5.2,5.4,7.7,8.2s4.8,5.7,7.1,8.6c2.3,2.9,4.6,5.9,6.7,8.9c2.2,3,4.3,6.1,6.2,9.4
				c-2.9-2.5-5.5-5.1-8.1-7.9s-5-5.6-7.3-8.6c-2.3-2.9-4.5-6-6.6-9.1C213.9,248.3,211.9,245.2,210.2,241.8z"/>
		</g>
		<g>
			<path class="st0" d="M235.9,253c2.4,1.8,4.5,3.8,6.5,6.1c2,2.2,3.7,4.6,5.3,7.1s3,5.1,4.1,7.9c1.2,2.7,2.1,5.5,2.6,8.5
				c-1.7-2.5-3.2-4.9-4.7-7.4l-4.6-7.3l-4.6-7.3C239,258,237.4,255.6,235.9,253z"/>
		</g>
		<g>
			<path class="st0" d="M251.4,254.7c0.4-0.2,0.8-0.2,1.3,0c0.4,0.1,0.8,0.3,1.2,0.6c0.7,0.5,1.2,1.2,1.8,1.8c1.1,1.2,2.1,2.5,3,3.8
				c1.9,2.6,3.6,5.4,5.1,8.3c1.4,2.9,2.7,5.9,3.6,9c1,3.1,1.7,6.3,1.9,9.5c-1.5-2.9-2.8-5.8-4.1-8.6c-1.4-2.9-2.7-5.7-4.1-8.5
				s-2.9-5.6-4.4-8.4l-1.1-2.1c-0.4-0.7-0.7-1.4-1.1-2.1c-0.4-0.7-0.7-1.4-1.2-2C252.8,255.3,252.2,254.8,251.4,254.7z"/>
		</g>
		<g>
			<path class="st0" d="M271.1,265c2,1.6,3.6,3.4,5.2,5.2c1.6,1.9,3,3.9,4.3,6s2.5,4.2,3.5,6.5c1,2.2,1.9,4.5,2.4,7
				c-1.7-1.9-3.1-3.9-4.5-5.8c-1.4-2-2.7-4-4-6s-2.5-4.1-3.7-6.2C273.2,269.4,272,267.3,271.1,265z"/>
		</g>
		<g>
			<path class="st0" d="M286.8,270.8c1.6,1.2,3,2.6,4.2,4c1.2,1.5,2.4,3,3.4,4.7c1,1.6,1.9,3.3,2.7,5.1c0.8,1.8,1.4,3.6,1.7,5.6
				c-1.4-1.4-2.6-2.9-3.8-4.4c-1.1-1.5-2.2-3.1-3.2-4.7s-1.9-3.2-2.8-4.9C288.2,274.5,287.4,272.7,286.8,270.8z"/>
		</g>
		<g>
			<path class="st0" d="M299.7,281.3c1.3,0.5,2.3,1.2,3.2,2c0.9,0.8,1.8,1.7,2.5,2.7s1.3,2,1.8,3.2c0.5,1.1,0.8,2.3,0.8,3.7
				c-1.1-0.7-2-1.6-2.8-2.4c-0.8-0.9-1.5-1.8-2.2-2.7c-0.7-0.9-1.3-1.9-1.9-3C300.6,283.6,300,282.6,299.7,281.3z"/>
		</g>
		<g>
			<path class="st0" d="M312,289.6c0.9,0.4,1.5,0.9,2.1,1.4s1,1.1,1.4,1.7s0.7,1.3,1,2c0.2,0.7,0.4,1.5,0.4,2.5
				c-1-0.2-1.7-0.7-2.3-1.2c-0.6-0.5-1.1-1.1-1.6-1.8c-0.4-0.7-0.7-1.4-0.9-2.2C311.9,291.4,311.8,290.6,312,289.6z"/>
		</g>
		<g>
			<path class="st0" d="M453.4,170.1c1-0.1,1.9,0,2.7,0.3c0.8,0.3,1.6,0.8,2.2,1.3c0.7,0.6,1.2,1.2,1.7,2c0.4,0.8,0.8,1.6,0.8,2.7
				c-1-0.2-1.8-0.6-2.5-1s-1.3-0.8-1.9-1.3s-1.1-1-1.7-1.7C454.3,171.8,453.8,171.1,453.4,170.1z"/>
		</g>
		<g>
			<path class="st0" d="M463.7,167c1,0.3,1.7,0.7,2.4,1.1c0.7,0.4,1.3,0.9,1.8,1.4c0.6,0.5,1.1,1.1,1.6,1.7c0.5,0.6,1,1.3,1.3,2.3
				c-1,0.1-1.9-0.1-2.7-0.4c-0.8-0.3-1.6-0.8-2.2-1.4c-0.6-0.6-1.2-1.3-1.6-2.1C464,168.9,463.7,168.1,463.7,167z"/>
		</g>
		<g>
			<path class="st0" d="M471.8,160.6c1.9,0.7,3.6,1.7,5.2,2.7c1.6,1.1,3.1,2.2,4.6,3.5c1.4,1.3,2.8,2.6,4,4.1s2.4,3,3.3,4.8
				c-1.8-0.9-3.4-2-4.9-3.1s-3-2.3-4.4-3.6s-2.8-2.6-4.1-4C474.2,163.7,472.9,162.2,471.8,160.6z"/>
		</g>
		<g>
			<path class="st0" d="M479.3,150.3c1.8,1.3,3.4,2.7,5,4.2c1.5,1.5,3,3,4.4,4.6s2.8,3.2,4.1,4.9c1.3,1.7,2.5,3.4,3.6,5.4
				c-2-1.1-3.7-2.4-5.3-3.8c-1.6-1.4-3.2-2.9-4.6-4.5s-2.8-3.3-4-5.1C481.3,154.2,480.2,152.3,479.3,150.3z"/>
		</g>
		<g>
			<path class="st0" d="M491,141.9c3.2,2.2,6.2,4.6,9,7.2c1.4,1.3,2.8,2.6,4.2,3.9c1.4,1.4,2.7,2.7,4,4.1c2.6,2.8,5.1,5.7,7.4,8.8
				c2.3,3,4.5,6.2,6.5,9.5c-2.9-2.6-5.6-5.3-8.2-8c-2.7-2.7-5.3-5.5-7.8-8.3l-3.8-4.2c-1.3-1.4-2.6-2.8-3.8-4.3
				C495.8,147.9,493.3,145,491,141.9z"/>
		</g>
		<g>
			<path class="st0" d="M509.9,142.2c3.1,2.3,5.9,4.7,8.6,7.3s5.3,5.3,7.9,8.1c2.5,2.8,4.9,5.7,7.2,8.7s4.5,6.1,6.4,9.4
				c-2.9-2.5-5.5-5.1-8.1-7.8s-5.2-5.4-7.7-8.2s-5-5.6-7.3-8.5C514.4,148.3,512.1,145.3,509.9,142.2z"/>
		</g>
		<g>
			<path class="st0" d="M525.5,135.9c3.1,3.5,6,7.1,8.9,10.7c1.5,1.8,2.8,3.6,4.3,5.4l4.2,5.5l4.2,5.5c1.4,1.9,2.8,3.7,4.1,5.6
				c2.7,3.7,5.4,7.5,7.9,11.5c-3.5-3.1-6.6-6.5-9.7-10c-1.6-1.7-3-3.5-4.5-5.3s-2.9-3.6-4.3-5.5c-1.4-1.9-2.8-3.7-4.1-5.6
				c-1.3-1.9-2.7-3.8-3.9-5.8C530,144,527.6,140.1,525.5,135.9z"/>
		</g>
		<g>
			<path class="st0" d="M553.6,146.6c3.5,2.4,6.7,5.1,9.8,8.1c1.5,1.5,3,3,4.4,4.5c1.4,1.6,2.8,3.2,4.1,4.8
				c2.7,3.3,5.1,6.8,7.3,10.4c2.2,3.6,4.2,7.3,5.8,11.3c-2.7-3.3-5.2-6.6-7.7-9.9c-2.5-3.3-5.1-6.6-7.7-9.8l-2-2.4
				c-0.7-0.8-1.3-1.6-2-2.4l-4-4.8C559,153.1,556.3,149.9,553.6,146.6z"/>
		</g>
		<g>
			<path class="st0" d="M586.7,166.2c1.9,1.2,3.6,2.6,5.2,4.1c1.6,1.5,3,3.2,4.3,4.9s2.5,3.6,3.5,5.5s1.9,3.9,2.5,6.1
				c-1.6-1.5-3.1-3.1-4.4-4.8c-1.4-1.6-2.7-3.3-4-5s-2.5-3.4-3.7-5.2C588.8,170,587.7,168.2,586.7,166.2z"/>
		</g>
		<g>
			<path class="st0" d="M603.3,174.7c1.6,1.2,2.9,2.6,4.1,4c1.2,1.4,2.4,2.9,3.4,4.5c1.1,1.5,2,3.2,2.9,4.8c0.9,1.7,1.6,3.4,2.2,5.3
				c-1.6-1.2-2.9-2.6-4.1-4c-1.2-1.4-2.4-2.9-3.4-4.5c-1.1-1.5-2-3.2-2.9-4.8C604.6,178.3,603.8,176.6,603.3,174.7z"/>
		</g>
		<g>
			<path class="st0" d="M616.9,180.2c1.5,1,2.8,2.2,4.1,3.4c1.2,1.2,2.3,2.6,3.4,3.9c1,1.4,2,2.8,2.9,4.3s1.6,3.1,2.2,4.8
				c-1.5-1-2.8-2.2-4.1-3.4c-1.2-1.2-2.3-2.6-3.4-3.9c-1-1.4-2-2.8-2.9-4.3C618.3,183.5,617.5,181.9,616.9,180.2z"/>
		</g>
		<g>
			<path class="st0" d="M630.6,187.8c1.2,0.5,2.3,1.1,3.2,1.8s1.8,1.5,2.6,2.4s1.5,1.8,2.1,2.8s1.1,2.1,1.4,3.4
				c-1.2-0.5-2.3-1.1-3.2-1.8s-1.8-1.5-2.6-2.4s-1.5-1.8-2.1-2.8C631.5,190.2,631,189.1,630.6,187.8z"/>
		</g>
		<g>
			<path class="st0" d="M641.8,196.2c1,0.6,1.7,1.2,2.4,1.9s1.3,1.3,1.8,2.1c0.6,0.7,1.1,1.5,1.5,2.3c0.5,0.8,0.9,1.7,1.3,2.8
				c-1.1-0.1-2.1-0.6-3-1.1c-0.9-0.6-1.6-1.3-2.2-2.1c-0.6-0.8-1.1-1.7-1.5-2.7C641.9,198.4,641.7,197.3,641.8,196.2z"/>
		</g>
		<g>
			<path class="st0" d="M315.6,476.4c0.8,1.3,1.3,2.6,1.9,3.8l1.6,3.6l1.6,3.6c0.5,1.2,1.1,2.5,1.5,4c-1.4-0.6-2.5-1.6-3.5-2.7
				s-1.8-2.4-2.3-3.7c-0.6-1.3-1-2.8-1.1-4.2C315.1,479.3,315.1,477.8,315.6,476.4z"/>
		</g>
		<g>
			<path class="st0" d="M316.7,459.5c1.2,3.1,2.3,6.1,3.5,9.1s2.5,5.9,3.9,8.7c1.4,2.8,2.9,5.6,4.6,8.4c1.6,2.8,3.4,5.5,5.1,8.3
				c-2.7-2-5-4.3-7.1-6.9s-3.8-5.4-5.3-8.4s-2.7-6.1-3.5-9.3C317.2,466.1,316.7,462.8,316.7,459.5z"/>
		</g>
		<g>
			<path class="st0" d="M319.4,435.2c1.1,4.7,2.2,9.3,3.4,13.8c0.6,2.3,1.2,4.5,2,6.8c0.7,2.2,1.4,4.5,2.2,6.7
				c0.7,2.2,1.6,4.4,2.4,6.6s1.7,4.3,2.8,6.4c2.1,4.1,4.7,8,8.6,10.8c-2.2-0.8-4.3-2.2-6.1-3.9c-0.9-0.8-1.7-1.8-2.5-2.7
				c-0.7-1-1.5-2-2.1-3c-2.6-4.2-4.3-8.7-6-13.2c-1.5-4.6-2.8-9.2-3.6-13.9C319.7,444.7,319.3,439.9,319.4,435.2z"/>
		</g>
		<g>
			<path class="st0" d="M324.3,405.5c-0.8,6.6,0.9,13,2.7,19.3c1,3.1,1.9,6.3,2.9,9.4s2,6.2,3.2,9.3c2.2,6.2,4.8,12.2,7.8,18
				s6.5,11.4,10.4,16.7c-4.8-4.5-9-9.9-12.4-15.6c-1.8-2.8-3.2-5.9-4.7-8.9c-1.4-3-2.7-6.1-3.8-9.3c-2.3-6.3-4.1-12.7-5.5-19.2
				c-0.7-3.2-1.3-6.6-1.5-9.9C323,412.1,323.2,408.7,324.3,405.5z"/>
		</g>
		<g>
			<path class="st0" d="M332.5,382.9c0.3,8.3,1.2,16.5,2.6,24.6c0.4,2,0.8,4,1.2,6l1.4,6l1.6,5.9l1.9,5.9l2.1,5.8l2.3,5.7l2.5,5.6
				c0.9,1.8,1.8,3.7,2.7,5.5c3.7,7.3,8.1,14.3,12.8,21.2c-5.7-6-10.6-12.8-14.8-20c-1-1.8-2-3.7-3-5.5l-2.7-5.6l-2.4-5.8l-2.2-5.9
				l-1.8-6l-1.6-6.1l-1.2-6.1c-0.3-2.1-0.6-4.1-0.9-6.2C331.8,399.6,331.6,391.2,332.5,382.9z"/>
		</g>
		<g>
			<path class="st0" d="M338.1,339.6c0.2,11.7,0.3,23.3,1,34.9c0.8,11.6,2.3,23.1,5.2,34.3c2.8,11.2,6.7,22.1,11.7,32.6
				c4.9,10.5,11,20.4,17.8,29.9c-7.8-8.7-14.5-18.4-19.9-28.9c-2.7-5.2-5.1-10.6-7.2-16.1s-3.8-11.1-5.3-16.8
				c-1.4-5.7-2.5-11.5-3.3-17.3c-0.7-5.8-1.2-11.7-1.3-17.6C336.4,362.9,337.1,351.2,338.1,339.6z"/>
		</g>
		<g>
			<path class="st0" d="M347.9,316.6c0.5,13.2,1.7,26.3,3.7,39.2l1.6,9.7l1.9,9.6l2.2,9.6l2.5,9.5l2.7,9.4l3,9.3l3.3,9.3
				c1.2,3,2.4,6.1,3.6,9.2c5,12.1,10.6,24,16.8,35.6c-7.3-11-13.6-22.6-19-34.7c-1.3-3-2.6-6.1-3.9-9.1l-3.5-9.3l-3.1-9.4l-2.8-9.5
				l-2.4-9.6l-2.1-9.7l-1.7-9.8l-1.3-9.8C347.7,343,347.2,329.7,347.9,316.6z"/>
		</g>
		<g>
			<path class="st0" d="M363.5,313.6c0.5,13.3,1.6,26.4,3.4,39.5l1.5,9.8l1.8,9.7l2,9.7l2.3,9.6l2.5,9.6l2.8,9.5l3.1,9.4
				c1.1,3.1,2.2,6.2,3.3,9.3c4.7,12.4,9.9,24.5,15.8,36.4c-6.9-11.3-12.9-23.2-18-35.5c-1.2-3.1-2.4-6.2-3.6-9.3l-3.3-9.4l-3-9.5
				l-2.6-9.6l-2.3-9.7l-1.9-9.8l-1.6-9.9l-1.2-9.9C363.2,340.2,362.8,326.8,363.5,313.6z"/>
		</g>
		<g>
			<path class="st0" d="M377.6,314.5l6.8,39.8l1.8,9.9l1.9,9.9l2.1,9.8l2.3,9.8l2.5,9.7l2.8,9.6l3.1,9.6l3.4,9.4
				c4.8,12.5,10.5,24.7,17.4,36.3c-1.9-2.8-3.8-5.6-5.6-8.4l-5.1-8.7l-4.6-9l-4.1-9.3c-1.2-3.1-2.5-6.3-3.7-9.4l-3.3-9.6
				c-1-3.2-2-6.5-2.9-9.7l-2.6-9.8l-2.3-9.9c-0.7-3.3-1.4-6.6-2-9.9l-1.7-10c-0.5-3.3-1-6.7-1.5-10
				C380.1,341.3,378.7,327.9,377.6,314.5z"/>
		</g>
		<g>
			<path class="st0" d="M393.4,335.6c2.6,10.2,5.1,20.4,7.7,30.5l2,7.6l2.1,7.6l2.2,7.5l2.3,7.5l2.4,7.4l2.6,7.4l2.8,7.3l3,7.2
				c4.2,9.6,8.9,18.9,14.3,27.9c-6.4-8.3-11.9-17.4-16.5-26.9c-1.1-2.4-2.2-4.8-3.3-7.2l-3-7.3l-2.7-7.4l-2.5-7.5l-2.3-7.6
				c-0.7-2.5-1.4-5.1-2.1-7.6l-1.9-7.7c-0.6-2.6-1.2-5.1-1.7-7.7C396.7,356.4,394.9,346,393.4,335.6z"/>
		</g>
		<g>
			<path class="st0" d="M418.6,378.9c1.7,7.1,3.4,14.1,5.2,21.1c1.8,7,3.8,13.9,5.9,20.8c1,3.5,2.1,6.9,3.3,10.3
				c1.1,3.4,2.3,6.8,3.6,10.2c2.6,6.6,6,13.1,11.7,17.7c-1.6-0.9-3.1-2-4.4-3.2c-1.4-1.2-2.6-2.6-3.7-4.1c-2.2-2.9-4.1-6.2-5.6-9.5
				c-3.1-6.7-5.4-13.6-7.6-20.5c-1-3.5-2-7-2.9-10.5s-1.7-7.1-2.4-10.7C420.1,393.4,419.1,386.2,418.6,378.9z"/>
		</g>
		<g>
			<path class="st0" d="M443.5,403.1c2.2,5.2,4.1,10.4,6,15.7c1,2.6,1.9,5.3,2.8,7.9l2.7,7.9l2.7,7.9c0.8,2.7,1.8,5.3,2.8,7.8
				c2,5.1,4.6,10,8.9,13.7c-2.5-1.3-4.7-3.3-6.5-5.5s-3.3-4.7-4.6-7.3c-2.5-5.1-4.2-10.5-6.1-15.8c-1.8-5.3-3.5-10.7-4.9-16.1
				C445.8,414.1,444.5,408.7,443.5,403.1z"/>
		</g>
		<g>
			<path class="st0" d="M470.4,422.3c1.9,3.3,3.5,6.7,5.2,10c0.8,1.7,1.6,3.4,2.4,5l2.4,5.1c1.6,3.4,3.2,6.8,4.7,10.2
				c1.5,3.4,3.1,6.8,4.4,10.4c-2.4-2.9-4.5-6.1-6.5-9.3c-1.9-3.2-3.7-6.6-5.3-10c-0.8-1.7-1.6-3.4-2.3-5.2c-0.7-1.8-1.4-3.5-2-5.3
				C472.2,429.7,471.1,426,470.4,422.3z"/>
		</g>
		<g>
			<path class="st0" d="M603.2,456.1c0.5,3.5,1.1,6.9,1.9,10.2c0.8,3.3,1.8,6.6,3,9.8c1.2,3.2,2.6,6.3,4.2,9.3c1.6,3,3.4,6,5.3,9
				c-2.8-2.2-5.2-4.8-7.3-7.8c-2.1-2.9-3.7-6.1-5-9.5s-2.1-6.9-2.5-10.4C602.5,463.2,602.5,459.6,603.2,456.1z"/>
		</g>
		<g>
			<path class="st0" d="M616.8,463.1c1.1,3.8,2.3,7.5,3.7,11.1c0.4,0.9,0.7,1.8,1.1,2.7l1.2,2.6c0.4,0.9,0.8,1.7,1.2,2.6l1.3,2.5
				c1.8,3.4,3.9,6.6,6.1,9.7c2.2,3.1,4.7,6.1,7.3,9.1c-3.4-2.1-6.4-4.7-9.1-7.7c-2.7-3-5-6.3-6.9-9.8l-1.3-2.7
				c-0.4-0.9-0.8-1.8-1.2-2.8l-1-2.8c-0.3-1-0.6-1.9-0.9-2.9C617.2,471.1,616.7,467.1,616.8,463.1z"/>
		</g>
		<g>
			<path class="st0" d="M644.6,478.3c2.8,4.4,5.6,8.7,8.6,12.9c0.8,1,1.5,2.1,2.2,3.1l2.3,3.1c0.8,1,1.6,2,2.4,3l2.4,3l2.5,2.9
				l2.5,2.9l2.6,2.8c0.9,0.9,1.8,1.8,2.6,2.8c3.6,3.7,7.3,7.2,11.1,10.8c-4.5-2.6-8.8-5.7-12.7-9.1c-1-0.9-1.9-1.7-2.9-2.6l-2.8-2.7
				l-2.7-2.9l-2.6-3l-2.4-3.1c-0.8-1.1-1.6-2.1-2.3-3.2l-2.2-3.3c-0.7-1.1-1.4-2.2-2-3.3C648.6,488,646.3,483.3,644.6,478.3z"/>
		</g>
	</g>
</g>
</svg>
