<?xml version="1.0" encoding="utf-8"?>
<!-- Generator: Adobe Illustrator 22.0.1, SVG Export Plug-In . SVG Version: 6.00 Build 0)  -->
<svg version="1.1" id="圖層_1" xmlns="http://www.w3.org/2000/svg" xmlns:xlink="http://www.w3.org/1999/xlink" x="0px" y="0px"
	 viewBox="0 0 20.9 9.9" style="enable-background:new 0 0 20.9 9.9;" xml:space="preserve">
<style type="text/css">
	.st0{fill:#754C24;}
</style>
<g>
	<path class="st0" d="M0.3,5c0.8-0.4,1-1.3,1.4-2c0.4-0.8,1-1.4,1.8-1.9C4.2,0.6,5.1,0.3,6,0.3s1.9,0.2,2.5,1l0,0
		c0.1,0.1,0,0.2,0,0.2c-0.1,0-0.2,0-0.2,0c-0.4-0.4-1.1-0.3-1.6,0S5.8,2.4,5.9,3s0.7,1,1.3,1.1C7.8,4.2,8.4,4,8.9,3.7
		c1-0.7,1.7-1.8,2.8-2.5c1.1-0.7,2.7-0.7,3.8,0c0.1,0.1,0.2,0.2,0.1,0.4c-0.1,0.1-0.2,0.1-0.3,0.1c-0.8-0.1-1.8-0.1-2.3,0.6
		c-0.2,0.3-0.3,0.7-0.2,1c0.1,0.3,0.5,0.6,0.8,0.8c0.7,0.3,1.7,0.2,2.4-0.3c0.7-0.5,1.2-1.3,1.9-1.9l0,0l0,0c-0.6,0.6-1,1.5-1.7,2.1
		c-0.8,0.6-1.8,0.8-2.7,0.4c-0.5-0.2-0.9-0.5-1.1-1s-0.1-1.1,0.2-1.5c0.3-0.4,0.8-0.7,1.3-0.7c0.5-0.1,1-0.1,1.4,0l-0.2,0.5
		c-1-0.6-2.3-0.7-3.3-0.1C10.8,2.2,10,3.3,8.9,4C8.3,4.3,7.7,4.5,7,4.4C6.4,4.3,5.8,3.8,5.6,3.2C5.4,2.5,5.9,1.9,6.4,1.5
		s1.3-0.5,1.9,0L8,1.7C7.5,1.1,6.6,0.9,5.8,0.9C5,0.9,4.2,1.2,3.5,1.6C2.8,2,2.2,2.6,1.7,3.3C1.5,3.6,1.3,4,1,4.4
		C1.1,4.6,0.8,4.9,0.3,5L0.3,5L0.3,5z"/>
</g>
<g>
	<path class="st0" d="M4.9,10c0.8-0.4,1-1.3,1.4-2.1C6.7,7.1,7.4,6.5,8.1,6c0.7-0.5,1.6-0.8,2.5-0.8s1.9,0.2,2.4,1l0,0
		c0,0.1,0,0.2,0,0.2c-0.1,0-0.1,0-0.2,0c-0.9-0.8-2.7,0.2-2.4,1.5c0.1,0.6,0.7,1,1.3,1.1c0.6,0.1,1.2-0.1,1.7-0.5
		c1-0.7,1.7-1.8,2.8-2.5c1.1-0.8,2.7-0.7,3.8,0l0,0c0.1,0.1,0.1,0.2,0.1,0.4c-0.1,0.1-0.2,0.1-0.2,0.1c-0.7-0.1-1.3-0.1-1.8,0.2
		c-0.5,0.3-0.9,0.9-0.6,1.4c0.2,0.5,0.9,0.9,1.5,1s1.3-0.1,1.9-0.5l0,0l0,0C20.4,9,19.7,9.3,19,9.3c-0.7,0-1.5-0.3-1.8-1
		C17,8,17,7.5,17.2,7.1c0.2-0.4,0.4-0.7,0.8-0.9c0.7-0.4,1.5-0.4,2.1-0.3l-0.2,0.5c-1-0.6-2.3-0.7-3.3,0c-1,0.6-1.8,1.7-2.9,2.4
		c-0.6,0.3-1.2,0.5-1.9,0.4c-0.6-0.2-1.2-0.6-1.4-1.3c-0.2-1.4,1.5-2.6,2.7-1.7l-0.2,0.2c-0.5-0.6-1.4-0.8-2.2-0.8
		C9.9,5.7,9.1,5.9,8.4,6.3C7.7,6.7,7.1,7.3,6.6,8C6.4,8.3,6.2,8.7,5.9,9.1C5.7,9.6,5.4,9.9,4.9,10L4.9,10L4.9,10z"/>
</g>
</svg>
