<?xml version="1.0" encoding="utf-8"?>
<!-- Generator: Adobe Illustrator 22.0.1, SVG Export Plug-In . SVG Version: 6.00 Build 0)  -->
<svg version="1.1" id="圖層_1" xmlns="http://www.w3.org/2000/svg" xmlns:xlink="http://www.w3.org/1999/xlink" x="0px" y="0px"
	 viewBox="0 0 48 13" style="enable-background:new 0 0 48 13;" xml:space="preserve">
<style type="text/css">
	.st0{fill:#754C24;}
	.st1{fill:#E4CA9A;}
</style>
<g>
	<path class="st0" d="M23.2,12.5c0.8-0.3,1-1.3,1.4-2c0.4-0.8,1.1-1.4,1.8-1.9s1.6-0.8,2.5-0.8s1.9,0.1,2.5,1c0.1,0.1,0,0.2-0.1,0.3
		c-0.1,0.1-0.2,0-0.3,0c-0.8-0.7-2.5,0.3-2.2,1.4c0.1,0.5,0.7,1,1.2,1.1c0.6,0.1,1.2-0.1,1.7-0.4c1.1-0.6,1.8-1.8,2.8-2.5
		c1.1-0.7,2.6-0.7,3.7,0c0.1,0,0.1,0.1,0.1,0.2S38.2,9,38.1,9l0,0c-0.6-0.1-1.3-0.1-1.8,0.2c-0.5,0.3-0.9,0.8-0.7,1.3
		c0.1,0.5,0.7,0.9,1.2,1c0.6,0.1,1.2,0,1.7-0.2c1.1-0.5,1.5-1.9,2.7-2.6s2.7-0.7,3.9,0l0,0c0.1,0.1,0.1,0.2,0.1,0.3
		c-0.1,0.1-0.1,0.1-0.2,0.1c-0.5-0.1-1.1,0.1-1.5,0.5s-0.3,1.1,0,1.6s0.9,0.7,1.5,0.7c0.6,0.1,1.2,0,1.8-0.1l0,0l0,0
		C46.2,12,45.6,12,44.9,12c-0.3,0-0.6,0-0.9-0.2c-0.3-0.1-0.6-0.3-0.8-0.6c-0.4-0.5-0.4-1.4,0-1.9c0.4-0.6,1.1-0.9,1.8-0.7L44.8,9
		c-1-0.6-2.4-0.5-3.4,0.1c-1,0.5-1.4,2-2.8,2.6c-0.6,0.3-1.3,0.4-2,0.2c-0.7-0.2-1.3-0.6-1.5-1.4s0.4-1.5,1-1.8
		c0.7-0.3,1.3-0.2,2-0.2L38,8.8c-1-0.7-2.4-0.7-3.4-0.1c-1.1,0.6-1.8,1.8-2.9,2.5c-0.5,0.3-1.2,0.6-1.9,0.5
		c-0.6-0.1-1.3-0.5-1.5-1.2C28,9,29.9,7.8,31.1,8.7L30.8,9c-0.4-0.6-1.3-0.9-2.1-0.8c-0.8,0-1.6,0.3-2.3,0.7c-0.7,0.4-1.3,1-1.8,1.7
		c-0.2,0.4-0.4,0.7-0.7,1.1C24,12.1,23.6,12.4,23.2,12.5C23.2,12.6,23.2,12.6,23.2,12.5L23.2,12.5z"/>
</g>
<g>
	<path class="st1" d="M0.7,5.1c0.7-0.2,1-1.1,1.4-1.8C3,1.6,4.8,0.4,6.7,0.4c0.8,0,1.6,0.3,2,0.9C8.2,0.9,7.4,1,6.9,1.3
		C6.5,1.6,6.2,2,6.1,2.6c0,0.9,1,1.6,1.9,1.5s1.7-0.7,2.3-1.3C11,2.2,11.6,1.4,12.4,1c1-0.5,2.3-0.4,3.2,0.2
		c-0.6-0.1-1.2-0.1-1.8,0.1s-1,0.7-1,1.3c0,0.8,0.8,1.4,1.6,1.5S16,4,16.6,3.5c0.7-0.5,1.1-1.3,1.7-1.9c1.1-1,2.9-1.2,4.2-0.4
		c-0.7-0.2-1.6,0.2-1.8,0.9c-0.3,0.7,0.1,1.6,0.7,1.9c0.3,0.1,0.6,0.2,0.9,0.2c0.8,0.1,1.8,0.1,2.5-0.4c0.6-0.4,0.8-1,1.3-1.5
		c1-1.1,2.4-1.9,3.9-1.8c0.8,0,1.6,0.3,2,0.9c-0.5-0.4-1.3-0.3-1.8,0c-0.4,0.3-0.7,0.7-0.8,1.3c0,0.9,1,1.6,1.9,1.5s1.7-0.7,2.3-1.3
		c0.7-0.6,1.3-1.4,2.1-1.8c1-0.5,2.3-0.4,3.2,0.2c-0.6-0.1-1.2-0.1-1.8,0.1s-1,0.7-1,1.3c0,0.8,0.8,1.4,1.6,1.5s1.6-0.1,2.2-0.6
		c0.7-0.5,1.1-1.3,1.7-1.9c1.1-1,2.9-1.2,4.2-0.4c-0.7-0.2-1.6,0.2-1.8,0.9c-0.3,0.7,0.1,1.6,0.7,1.9c0.3,0.1,0.6,0.2,0.9,0.2
		c0.7,0.1,1.4,0,2-0.1"/>
	<path class="st0" d="M0.7,5.1c0.8-0.3,1.1-1.3,1.5-2c0.4-0.8,1-1.4,1.8-1.9c0.7-0.5,1.6-0.8,2.5-0.8s1.9,0.2,2.4,1
		c0.1,0.1,0,0.2,0,0.2c-0.1,0-0.1,0-0.2,0l0,0C7.8,0.9,6.2,1.9,6.4,3c0.1,0.5,0.7,0.9,1.2,1s1.1-0.1,1.6-0.4c1-0.6,1.7-1.7,2.9-2.4
		c1.1-0.7,2.7-0.7,3.8,0.1C16,1.4,16,1.5,16,1.5c0,0.1-0.1,0.1-0.2,0.1c-0.6-0.1-1.3-0.1-1.8,0.1s-0.9,0.8-0.8,1.4
		c0.1,0.6,0.7,1,1.3,1.1s1.2,0.1,1.8-0.2c1.1-0.5,1.6-1.9,2.7-2.6c1.1-0.7,2.6-0.7,3.7,0c0,0,0.1,0.1,0,0.1c0,0-0.1,0.1-0.1,0
		c-0.6-0.2-1.4,0.2-1.7,0.8c-0.3,0.6-0.1,1.4,0.4,1.8s1.3,0.4,1.9,0.4c0.7,0,1.4-0.2,1.8-0.6c0.5-0.4,0.7-1.2,1.3-1.6
		c0.5-0.5,1.1-0.9,1.8-1.2c0.7-0.3,1.4-0.4,2.1-0.4c0.7,0,1.5,0.3,2,1c0.1,0.1,0,0.2-0.1,0.3c-0.1,0.1-0.2,0-0.3,0
		c-0.4-0.3-1-0.3-1.5,0s-0.8,0.8-0.7,1.3s0.6,0.9,1.2,1c0.5,0.1,1.1-0.1,1.6-0.4c1-0.6,1.7-1.7,2.8-2.5c1.2-0.7,2.7-0.7,3.9,0
		c0.1,0.1,0.2,0.2,0.1,0.4C39.1,1.9,39,1.9,39,1.9c-0.6-0.1-1.2-0.1-1.7,0.1s-0.9,0.8-0.8,1.3c0.1,0.5,0.6,0.9,1.2,1
		c0.6,0.1,1.2,0.1,1.7-0.2c1.1-0.5,1.5-1.9,2.7-2.6s2.7-0.7,3.8,0c0.1,0,0.1,0.1,0,0.2c0,0.1-0.1,0.1-0.2,0.1
		c-0.5-0.2-1.2,0.1-1.5,0.5c-0.4,0.5-0.4,1.1,0,1.6c0.3,0.5,0.9,0.7,1.5,0.8c0.6,0.1,1.2,0,1.8-0.1l0,0l0,0
		c-0.6,0.2-1.2,0.2-1.9,0.2c-0.6,0-1.3-0.2-1.7-0.8c-0.4-0.5-0.4-1.3,0-1.9c0.4-0.5,1.1-0.8,1.8-0.7l-0.1,0.3
		c-1.1-0.6-2.5-0.6-3.5,0.1c-1.1,0.6-1.5,2-2.7,2.7c-0.6,0.3-1.3,0.4-2,0.3c-0.7-0.2-1.4-0.6-1.6-1.4c-0.2-0.8,0.4-1.5,1-1.8
		c0.7-0.3,1.4-0.3,2-0.2l-0.2,0.5c-1-0.6-2.3-0.7-3.3,0c-1,0.6-1.7,1.7-2.9,2.5c-0.6,0.3-1.3,0.6-2,0.4c-0.7-0.1-1.4-0.6-1.5-1.4
		c-0.2-0.8,0.3-1.5,0.9-1.8c0.6-0.4,1.4-0.5,2,0l-0.3,0.3c-0.3-0.5-1-0.8-1.6-0.8c-0.7-0.1-1.3,0.1-2,0.3c-0.6,0.2-1.2,0.6-1.7,1.1
		c-0.5,0.4-0.8,1.1-1.3,1.6c-0.6,0.5-1.3,0.7-2,0.7c-0.4,0-0.7,0-1.1-0.1c-0.4-0.1-0.7-0.2-1-0.4c-0.6-0.5-0.8-1.4-0.4-2
		c0.4-0.7,1.2-1,1.9-0.8l-0.1,0.2c-1.1-0.6-2.5-0.6-3.6,0s-1.5,2-2.7,2.7c-0.6,0.3-1.3,0.4-1.9,0.3c-0.6-0.2-1.3-0.6-1.5-1.3
		c-0.2-0.7,0.3-1.4,1-1.7c0.6-0.3,1.3-0.3,2-0.2l-0.1,0.3c-1-0.6-2.4-0.7-3.4,0c-1,0.6-1.7,1.8-2.8,2.5C8.6,4.6,8,4.9,7.3,4.7
		C6.6,4.6,6,4.1,5.8,3.4C5.6,2.7,6.1,2,6.7,1.6c0.6-0.4,1.4-0.5,2,0L8.5,1.8C8.1,1.1,7.1,0.9,6.3,0.9S4.6,1.2,3.9,1.7
		C3.2,2.1,2.6,2.8,2.1,3.5C1.9,3.9,1.7,4.3,1.5,4.6C1.5,4.7,1.2,5,0.7,5.1C0.7,5.2,0.7,5.2,0.7,5.1L0.7,5.1z"/>
</g>
</svg>
