<?xml version="1.0" encoding="utf-8"?>
<!-- Generator: Adobe Illustrator 22.0.1, SVG Export Plug-In . SVG Version: 6.00 Build 0)  -->
<svg version="1.1" id="圖層_1" xmlns="http://www.w3.org/2000/svg" xmlns:xlink="http://www.w3.org/1999/xlink" x="0px" y="0px"
	 viewBox="0 0 600 650" style="enable-background:new 0 0 600 650;" xml:space="preserve">
<style type="text/css">
	.st0{fill:#E9D7BE;}
	.st1{fill:#3A302E;}
</style>
<g>
	<path class="st0" id="flagArea" d="M255.4,102.3c4.6-0.2,290-58.3,290-58.3l27.9,362.3l-292.2,29.5L255.4,102.3z"/>
	<g>
		<g>
			<g>
				<g>
					<g>
						<path class="st1" d="M259.7,101.3c-4.6,1,2.6-0.3-3,0.7C257.3,101.8,258.2,101.5,259.7,101.3z"/>
						<path class="st1" d="M257.5,118.2c1.9,15.2,2.6,35.3,4.2,52c0.2,2-0.5-0.5,0,3.9c1.8,16.1,3.3,41.7,4.2,61.4l-0.2-1.2
							c0.2,3.8,0.9,8.3,1.1,12.3c-0.1,0-0.2-1.3-0.2-0.3c0.3,1,0.6,7.2,0.9,8.9c0,1.6-0.2,1.4-0.1,3.5l0.4,2.3
							c1.1,6.3,1.1,15.4,2,24c-0.1-0.4-0.2-1.3-0.2-0.6c1.4,13.8,2.6,31.2,3.8,46.7c-0.1-0.6-0.4-1.2-0.4-0.3
							c0.3,0.7,0.8,5.5,1.1,9.7c-0.2,1.9,0.8,7.1,1,12l-0.1-0.4c0.6,3.6,0.2,5.4,0.8,8.3l-0.1,2.3c0.5,1.6,0.2,5.2,0.6,8.2l0.1-0.1
							c0.3,2.8,0.2,4.3,0.5,6.9v0.3c0.5,6.1,0.6,9.7,0.9,9.5c-0.1,2.2-0.5-5.9-0.7-2.5c0.7,8.4,1.4,16.9,2.1,25.4
							c0.6,8.5,1.2,16.9,1.9,25.4c3.2-0.3,6.4-0.6,9.6-0.9c2.3-0.1,3.8-0.2,4.3-0.1c2-0.3,7.6-0.8,9.4-1.1c-0.7,0.1,1.3,0,2.4,0
							c3.7-0.2,4-0.7,8-1c-1.6,0.2-2.1,0.4-1.6,0.5c3.4-0.6,8-1,12.1-1.4c-0.6,0.1-1.6,0.2-1.4,0.3c4.4-0.7,8.1-0.7,12-1.2l-1.4,0.3
							c6.3-0.4,1.8-0.6,7.2-0.9c-1.3,0.2-0.8,0.2-1.1,0.3c5-0.8,13.2-1.5,18.3-2c-0.3,0.1-0.2,0.1-0.2,0.1c5.5-0.6,11.2-1,17.3-1.7
							c2.2-0.1-0.7,0.5,5.1-0.1c-0.2-0.3,9.9-1.1,6.4-1.2c5-0.4,12.8-1,16.1-1.4c-2.2,0.3,2.5,0.2-1.7,0.6l3.1-0.1
							c-0.4,0.2-3.2,0.2-2.2,0.3c2.1-0.2,8.1-0.9,9.9-1c3.8-0.6,7.3-1.3,13.5-2c-2.9,0.4,1.7,0.3-0.3,0.5l8.6-1.5
							c2.1-0.2,0.5,0.3,3.5-0.1c-0.2-0.1,1.1-0.3,2-0.4c0.8,0,8.6-0.9,9.5-0.6c0.9,0.1-3.4,0.4-1.1,0.3c3.8-0.4,4-0.5,7.8-0.9h0.1
							c2.5-0.2,7.4-0.8,4.7-0.8c-1.8,0.2,0.7,0.2-1.9,0.3c1.8-0.4,6.2-0.8,10-1.2c-1.3,0.2-1.1,0.3-1.6,0.4c5.1-0.8,10.5-1.4,16.2-2
							c0.1-0.2-2.1,0.5-3,0.5c7.4-0.4,15.1-1.7,21.3-2c-1,0.1-0.6-0.2-0.5-0.2c3.5-0.3,3.4,0,5.7-0.3c0.2,0.1,2.9-0.3,5.3-0.6
							c1.2-0.2,0.6,0-1.4,0.2c3.3-0.4,16.5-1.9,24.1-2.4c-0.2-0.1,4.7-0.8,6.4-0.9l-0.7,0.3c1.6,0,5.9-0.6,6.2-0.4
							c3.7-0.6-14.4,1.6-9.4,0.9c1.3,0.1,7-1,6-0.6c3.5-0.3,6.9-0.9,10.3-1c-1,0.1-2.8,0.6,0,0.3c5-0.5,1.4-0.2,5.5-0.7l2.5-0.3
							c0.2-0.2,4.5-0.4,2.6-0.5c0.6,0.1,7.3-0.8,6.8-0.4l-0.7,0.4c0.4,0,0.7-0.1,1-0.1c0.2,0,0.3,0,0.5-0.1c0.1,0,0.2,0,0.3-0.1
							c0.4-0.1,0.7-0.2,0.9-0.3c-0.1-0.3-0.2-0.6-0.2-1c0-0.1,0-0.2,0-0.3c0-0.2,0-0.3,0.1-0.2c-0.5-0.3-0.3-5.2-0.9-7.7
							c-0.2-4.6-0.8-11.6-0.7-13.7c-0.4-3.5-0.8-6.7-1-10.7c0.1,0.8,0.2,1.9,0.3,2.1c-0.1-2.5-0.2-3.1-0.5-5.4
							c0.1,0.5-0.1-5-0.2-7.8c-0.4-3.5-0.5-2.3-0.7-2.6c0.2-3.2-1-9.8-0.9-13.8c0.1,1.2,0.6,5.1,0.5,2.2c0.2-3.2-0.8-6.4-1-11.5
							l-0.3,1.3c0.1-2.3-0.8-7.5-0.4-7c-0.3-1.7-0.3-6.1-0.6-5.5c-0.3-8.4-1.7-20.5-1.4-25.7c-0.1-1.2-0.3-4.2-0.4-3.6
							c-0.1,2,0.3,2.8,0.3,3.5c-0.1-1.1-0.2-1.3-0.3-1.4c-0.1-2.6-0.2-4.7,0.2-2.2c-0.2-5.8-1-6-1.4-13.4c0.2,0.3,0.2-0.2,0-2.4
							l-0.6-4.1c-0.3-4.8,0.1-2.7,0.4-2.9c-0.2-2.6-0.4-5.7-0.7-6.8l0.1-3.1c-0.1,2.3-0.3-2.1-0.5-3.3l0.1,1.2
							c0.1-0.5-0.2-3.4-0.4-4.9c-0.1,0.4,0,3.4,0.1,5c-0.2-1.3-0.3-3.3-0.6-5.1c0.3,0.6-0.1-4.2-0.3-6.2c-0.1-2.3-0.4-2.6-0.5-3.3
							c0.1-0.1-0.3-3.8,0.1-2c0.1,0.8,0,1.8,0.2,3.1c0-1.5,0.2-1.4-0.2-4.6c-0.3-2.4-0.4,0.7-0.6-3.9c0.1,1.2,0.3,1.4,0.4,2.3
							l-0.2-4.3l0.3-0.1c0-0.6,0.1-0.2,0.1-0.5c-0.3-1.3-0.5-6.5-0.9-7.5c-0.2-2.2-0.2-4.6-0.3-6.6v0.4c-0.1-2.5-0.4-5.9-0.7-8
							l0.1,0.1c-0.1-1.4-0.4-4.6-0.6-6.3c-0.1-3.5,0.8-1.2,0.2-5c-0.3-3.5-0.8-5.5-0.8-4.1c-0.3-6.3-1.2-13.5-1.3-19.4
							c-0.2-0.9-0.2-0.3-0.4-2.2c-0.6-9.3-1.7-19.6-1.8-27c0.3,2.7,0.2,0.2,0.4,0.1c-0.4-2.2,0-2.7-0.4-3.5c-0.2,0.2-0.3,0-0.2,2.6
							c-0.5-5.5-1.1-14-1.2-17.1c0,1.5-0.1,0.4-0.3-0.8c0.3,0.4,0.1-3.7-0.2-6.8l-0.2-0.4l0.1-2c-0.1-1.2-0.5-1.3-0.5-4.4
							c0.1-0.2,0.1-0.3,0.1-0.9c-0.4-3.2-1-7.7-1.1-11.2l0.1-2.9c-0.1-1.5-0.5-4-0.4-1.3c-0.3-5.9-0.5-9.8-0.4-11.7
							c-1.3-10.2-2.5-25-3.3-36.9l0.2,0.3c-0.1-3.2-0.4-1.6-0.4-3.9c0.2,1,0.1-2.5,0.5,0c-0.1-2.3-0.3-3.8-0.4-5
							c-0.1-0.6-0.2-1.2-0.3-1.8c-0.1-0.2-0.1-0.4-0.1-0.6c-0.1,0-0.1,0.2,0,0.3c0,0.2,0.1,0.3-0.1,0.3c0,0,0-0.3,0-0.6
							c-0.1,0-0.2,0-0.4,0.1s-0.5,0.1-0.7,0.2c-0.9,0.2-1.6,0.4-1.8,0.5c-1.1,0.1-0.3-0.3,0.3-0.5l-2.7,0.7
							c-3.4,0.4,7.5-2.2,3.9-1.9l-2.5,0.6c-2.5,0.2,6.6-1.7,0.3-0.5c-2.7,0.7-5,1.6-2.5,1.2c-5.7,1.3-2.5,1.2-8.7,2.5
							c-1.7,0.2,4.9-1.1,3.7-1.1c-2.9,0.4-5.8,1.3-8.4,1.8c2.9-0.5,0.5,0.3-1.3,0.7c-3.2,0.5,2-0.7-2.5,0.2
							c-0.7,0.3-4.7,1.3-1.2,0.7c-1.5,0.7-4.6,0.9-7,1.6c-1.5,0,4.4-1.6-0.5-0.7c0.8,0.1-5.9,1.6-3.3,1.4c-1.9,0.3-2.2,0.2-0.8-0.3
							c-2.8,0.4-6.5,1.8-7.5,1.5l-0.9,0.5c-0.9,0.1-2.1,0.3-3.5,0.4c-2.4,0.5-7.7,2-7.5,1.5c-0.8,0.2-6.2,1.3-4.1,1.2
							c3.4-0.5,3.9-1,5.8-1c-2.5,0.2-4.9,1.1-6.9,1.6l-0.4-0.1c-1.2,0.3-3.9,0.8-4.6,1.1c0.9-0.3,0.4-0.3-0.6-0.1L479,58
							c-4.7,1.1-1.2-0.2-5.8,0.9l3.5-0.9c-0.8,0.2-2.4,0.3-4.6,0.8c-0.8,0.4-2.4,1-3.1,1.3c-2.6,0.6-1.2,0-3.7,0.8l3.3-1
							c0.5-0.2-2.3,0.1-5.8,0.9c-2.2,0.5-5.6,1.6-2.1,0.9c-1.8,0.4-4.2,0.7-2.9,0.3c-4,0.9,0.6,0.1-2.8,1c-1.4,0.2-5.8,0.9-8.5,1.2
							l3.5-1.1l-2.4,0.5c3-0.9-1.6,0.1,0.1-0.5c-1.6,0.3-3.6,0.8-5.1,1.2c4.8-0.5-5.2,1.8-3.7,1.9c-6.5,1.5-4.3-0.2-10.9,1.9
							c1.1-0.1-2,0.9,2.1-0.1c-4.1,0.8-2.7,1-7.5,1.8c3.5-0.9-3.9,0.3,1.2-1c-0.3,0.2,2.9-0.5,3.6-0.7c-1.7,0.2,0.3-0.5-3.9,0.4
							c-2.5,0.6-6,1.3-5.4,1.4c0.2,0.2,3.9-0.8,2.3-0.2c-5,1.1-5.9,0.9-7.9,1.8c3.2-0.7,4-0.6,4-0.4l-3.7,0.9l0.7-0.3
							c-5.9,1.1-1.7,0.7-7.4,1.8l-2.8,0.2c1.3-0.6,8.4-1.6,7.3-1.9c-3.7,0.8-4.9,1.2-8.5,1.9c0.8-0.2,1.8-0.4,2.6-0.6
							c-1.3,0.3-2.8-0.1-8,1.4c-2.7,0.7-0.7,0.3-0.7,0.5c-6,1.3-7.7,1.8-11.6,2.7c0.7-0.5-6.8,1.4-2.6,0.2c2-0.2,10.7-2,12.7-2.8
							c-2.3,0.1,4.7-0.9,5.9-1.6c-4.8,1-4.7,0.6-5.5,0.5c-1.3,0.3-2.6,0.6-3.4,0.8c-0.5,0.4,1.2,0,1.4,0.2c-5.4,1-10.5,2.3-13.4,3.1
							c-1.8,0.3-1.3-0.1,0.8-0.6c-6.4,1.4-13.2,2.8-19.3,4c4-0.4-6.7,1.5-4,1.3c3.3-0.6,6.1-0.9,4.4-0.3c-2,0.4,0-0.2-0.8-0.1
							c-2.5,0.8-4.1,0.5-6.6,1.4c5.8-1.3,1-0.7,2-1.2c-4.2,1,0.1-0.3-4,0.6c-4.2,1-9.3,2.2-13.9,3.3c-5.9,0.9-14.8,3.1-20,4.2
							c-2.8,0.4-1-0.3-4,0.2c-3.5,0.7,2.7-0.2-2.5,0.7l0.5-0.2c-1.5,0.4-9.5,1.7-10.9,2.5l1.5-0.7c-1,0.2-1.8,0.4-2.6,0.6
							c-0.1-0.1-1.2,0,0.3-0.4c-3.2,0.4-6.7,1.4-10.1,2.2l2.3-0.2c-5.9,1.4-9.9,2-15.6,3.3l0.1-0.3l-3.4,0.8
							c0.8-0.4-2.4,0.1-4.1,0.7l8.7-2.4c2.5-0.4-2.6,0.8-1,0.7c1.3-0.1,6.6-1.2,7.4-1.6c-2,0.4-2.1,0.5-3.7,0.9
							c-0.7-0.2,2.3-0.8,3.8-1.3c-1.1,0.2-2.6,0.5-2.8,0.6c2.1-0.6,4.2-1,7.6-1.8c-2.3,0.6,1.3-0.1,0.4,0.2c0.2-0.3,3.5-1.1,7.8-1.9
							c3.1-0.3,8-1.9,13-2.8c-2,0.7-4.5,1.4-7.5,2.2c3.2-0.5,3.5-0.7,6.6-1.2c1.5-0.5,2.5-1,6.5-2l0.3,0.2c3.7-0.9,3.6-1.2,8.3-2.1
							c8.1-1.6,16.4-3.3,22.5-4.5l0.3,0.1c3.3-1.1,11.4-2.5,15.9-3.7c7.9-1.4,17-3.7,21.1-4.2c13.8-3,25.9-5.7,40.2-8.6l-2.3,0.8
							c2.5-0.7,1.7-0.2,4.2-0.7c-2.9,0.4,3.4-1,5.2-1.6c6.4-1.1,14.6-3,20.2-4.4l0.3,0.2c5.6-1.6,12.5-2.7,19.7-4.1
							c0.8-0.1,2.2-0.2,4.3-0.6c3.8-1.1,5.8-1.5,11.4-2.9c4.1-0.9,10.9-2.2,15.1-2.9c7.2-1.7,14.6-3.3,22-4.9
							c3.7-0.8,7.4-1.6,11.2-2.4c4.3-0.9,8.5-1.8,12.8-2.7c0.1,1.5,0.3,3.1,0.4,4.7l-0.2,1.2c1.7,15.9,2.6,35.6,3.9,49.2l-0.5-1.3
							c0.2,4.3,0.8,9.7,1,8.6c0.2,4.3,1,10.7,0.8,13.4c0.2,4.4,0.6,5.3,0.9,9c0.5,8.8,0.8,12,1.4,20.3l-0.1-2
							c-0.2-0.9-0.3-1-0.2,1.1c0.3,3.1,0.7,11.4,1,8.2c0.4,8.8,1.7,20.6,2,29.2c0.1-0.7,0.3,1.4,0.4,2.3c0.6,7.7,0.9,15.9,1.6,22.1
							c0,1.2-0.4-1.9-0.2,1.2c0.2,1.9,0.2,0,0.4,2.3c1.2,12.5,1.6,25.4,2.5,36.8c1.7,20.3,3.2,41.4,4.6,60.9l-0.1-0.2
							c0.8,6.5,0.7,15.3,1.7,20.4c0,1.5,0.4,5.9,0.1,4.7c0.6,5.2,0.8,14.5,1.7,22c0-0.7-0.1-1.1-0.2-1.9c0.3,7.6,1.1,14.2,1.5,22.2
							c-0.1-0.8-0.2-2.3-0.4-2.5c0,3.1,0.9,7.3,0.6,9c0.1,1.8,0.3,1.2,0.2,0.2c0.3,4.4,0.6,8.8,0.9,13.3c0.4,5,0.8,10,1.2,15
							c-9.6,1-19.2,1.9-28.8,2.9c-13,0.9-0.9-0.7-11.1,0.6c-0.8,0-0.6,0.2-0.7,0.2c-4,0.5-6.2,0.1-9,0.6c1.2,0.2-1.8,0.3-1.9,0.5
							c-8,0.6-9.6,0.4-15.9,1.2l0.5-0.2c-7.3,1.1-15.9,1.7-22,2.7c-40.6,3.9-79.5,7.7-119.1,11.5c-29.8,2.8-59.1,5.5-89.1,8.3
							c-0.7-10.6-1.5-21.5-2.2-32.5c-0.3-9.4-0.3-10.1-1.2-20.3c0.1,0.4,0.2,1.1,0.2,0.4c-0.4-0.5-0.6-7.2-0.9-8.2
							c-1-14.7-2.1-28.3-3.2-43.4c0.2,2.4,0.6,3.6,0.3,0.7l-0.4-3l0.1-0.5c-0.2-1.9-0.5-4.1-0.5-2c-3-38-5.1-75.5-7.9-112.8
							c-0.5-8.9-1.5-21.4-2.3-31.1c-1.6-28.5-3.1-54.2-5.5-83.2C255.4,102.6,256.5,106.3,257.5,118.2z"/>
						<path class="st1" d="M265.3,100.1c1,0,4.3-0.6,1.8,0.1C266.7,100.2,265,100.3,265.3,100.1z"/>
						<path class="st1" d="M352.5,83.7c0.1-0.1,1.2-0.2,1.5-0.2c-1.1,0.2-2,0.6-2.9,0.7C352.2,84,352,83.9,352.5,83.7z"/>
						<path class="st1" d="M374.7,79.2c-0.3,0.2-5,1.3-7.8,1.9L374.7,79.2z"/>
						<path class="st1" d="M395.5,75.5c1.8-0.3,1.3-0.1-1.1,0.4C394.3,75.9,395.1,75.7,395.5,75.5z"/>
						<path class="st1" d="M396.9,74.9c1.7-0.4,2.6-0.5,3.4-0.5C400.3,74.2,396.4,75.2,396.9,74.9z"/>
						<path class="st1" d="M442,66c1.1-0.2,3.4-0.8,4.4-0.9C445.2,65.2,441.2,66.4,442,66z"/>
						<path class="st1" d="M462.8,61.4c0.7-0.1,1-0.2,1.7-0.4c1.2-0.2,0,0.2-1.1,0.4H462.8z"/>
						<polygon class="st1" points="568.6,342.4 568.3,340.1 568.5,340.4 						"/>
						<path class="st1" d="M471.3,417.2c-2.3,0.3-1.6,0-2,0C471.4,417,468.6,417.5,471.3,417.2z"/>
						<polygon class="st1" points="380.1,426.4 380.8,426.3 380.6,426.7 						"/>
					</g>
				</g>
			</g>
		</g>
	</g>
</g>
<path class="st0" d="M256.7,103.2"/>
</svg>
