<?xml version="1.0" encoding="utf-8"?>
<!-- Generator: Adobe Illustrator 22.0.1, SVG Export Plug-In . SVG Version: 6.00 Build 0)  -->
<svg version="1.1" id="圖層_1" xmlns="http://www.w3.org/2000/svg" xmlns:xlink="http://www.w3.org/1999/xlink" x="0px" y="0px"
	 viewBox="0 0 600 650" style="enable-background:new 0 0 600 650;" xml:space="preserve">
<style type="text/css">
	.st0{fill:#E9D7BE;}
	.st1{fill:#3A302E;}
</style>
<g>
	<g>
		<path class="st0" id="flagArea" d="M254.7,105.5c0,0,56.2,26.7,93.5-25.4c0,0,55.8,33.1,105.9-20c0,0,68.3,19.6,102.1-19.4
			c0,0-42.3,291.3,8.3,373.9c0,0-231.3-32.1-289.5,17.4C275.1,432,240.1,219.7,254.7,105.5z"/>
		<g>
			<g>
				<g>
					<g>
						<path class="st1" d="M255.4,105.6c0-0.7-0.3-0.3-0.4,1.6l0.2,1.4L255.4,105.6z"/>
						<path class="st1" d="M253.4,118.4c0,2.3,0,4.9,0.5,3.5c-0.1-2.3,0-2.8-0.1-5.2c0.2-1.9,0.5-3.3,0.6-3c0-0.7,0.4-3,0.3-4
							c-0.5,2.5-1,5.6-1,9C253.5,119.3,253.5,118.6,253.4,118.4z"/>
						<path class="st1" d="M258.5,307l-0.1-1.2C258.4,306.1,258.5,306.5,258.5,307z"/>
						<path class="st1" d="M273,423.2c-0.1-0.9-0.2-1.2-0.3-1.3C272.9,422.7,273,423.4,273,423.2z"/>
						<path class="st1" d="M284.5,426.6c-0.4,0.2-0.7,0.4-1,0.6C283.9,427,284.3,426.8,284.5,426.6z"/>
						<path class="st1" d="M258.5,307l0.2,3.1C258.8,310.3,258.6,308.5,258.5,307z"/>
						<path class="st1" d="M252.6,144.5c0-0.7,0-1.2,0-1.7c0,0.5,0,1.1,0,1.6C252.5,144.4,252.5,144.4,252.6,144.5z"/>
						<path class="st1" d="M253.8,255.6l-0.1-0.9c-0.1-0.3-0.1-0.5-0.2-0.8L253.8,255.6z"/>
						<path class="st1" d="M251.4,216.1c0,0.9,0.3,1.2,0.5,1.5c-0.1-0.5-0.2-1.2-0.3-1.9C251.6,215.7,251.5,215.8,251.4,216.1z"/>
						<path class="st1" d="M251.1,153.3l0-1.1C251.1,152.5,251.1,152.9,251.1,153.3z"/>
						<path class="st1" d="M256,283.9c0,0.1-0.1,0.2-0.1,0.4C256,284.3,256,284.1,256,283.9z"/>
						<path class="st1" d="M299.9,112.8C299.9,112.8,299.9,112.7,299.9,112.8C299.6,112.8,299.6,112.8,299.9,112.8z"/>
						<path class="st1" d="M254.8,105.4l0.6,0.2c0.1,0,0.2,0,0.2-0.1L254.8,105.4z"/>
						<path class="st1" d="M318.6,414.5c-0.1,0-0.1,0-0.2,0C317.5,414.8,318,414.7,318.6,414.5z"/>
						<path class="st1" d="M543.9,329.6c0.1,1.9-0.2,0.4-0.4-0.9c-0.2-1.3-0.4-2.3-0.3,0.5C543.3,328.7,544.2,334.4,543.9,329.6z"/>
						<path class="st1" d="M252.5,145.5c0,0.5,0,1.1-0.1,1.6C252.5,146.4,252.5,145.9,252.5,145.5z"/>
						<path class="st1" d="M543.2,329.2L543.2,329.2l0,0.6C543.2,329.6,543.2,329.4,543.2,329.2z"/>
						<path class="st1" d="M401.9,405.7c-0.2,0-0.5-0.1-0.9-0.1C401.1,405.7,401.3,405.7,401.9,405.7z"/>
						<path class="st1" d="M339.5,410l1.5-0.2C340.4,409.9,339.9,409.9,339.5,410z"/>
						<path class="st1" d="M434.5,405.4c0.8,0,1.1,0.1,2.3,0.1c-0.1,0-0.2,0-0.3,0C436,405.5,435.4,405.5,434.5,405.4z"/>
						<path class="st1" d="M468.3,406.7c-0.2,0-0.4-0.1-0.6-0.1c-0.3,0-0.7,0-1.1,0L468.3,406.7z"/>
						<path class="st1" d="M390.2,91.5c-0.8-0.1-1.2-0.2-1.6-0.3C389.2,91.4,384.1,91.5,390.2,91.5z"/>
						<path class="st1" d="M252.4,144.5c0.1,0.2,0.1,0.5,0.1,1c0-0.4,0-0.8,0-1.1C252.5,144.3,252.4,144.2,252.4,144.5z"/>
						<path class="st1" d="M435.9,403.2l5.4,0.2C439.8,403.3,437.8,403.3,435.9,403.2z"/>
						<path class="st1" d="M547.8,101.6l0.1-1.2C547.8,100.9,547.8,101.3,547.8,101.6z"/>
						<path class="st1" d="M457.3,403.9c1,0.1,2,0.2,3,0.3c0.2,0,0.5,0,0.6,0L457.3,403.9z"/>
						<path class="st1" d="M388.6,91.2C388.7,91.2,388.7,91.2,388.6,91.2C388.7,91.2,388.7,91.2,388.6,91.2z"/>
						<path class="st1" d="M353.5,84.5c4.8,2,2.4,0.6,3.5,0.8c2.9,1,3.6,1.3,3.8,1.5c0.2,0.2-0.2,0.2,0.8,0.6
							c3.7,1.1,6.7,1.5,9.5,2.1c0.2,0.1,0.7,0.3,0.1,0.2c1,0.1,2.3,0.3,3.7,0.6c1.4,0.2,2.9,0.4,4.5,0.6c1.6,0.1,3.1,0.3,4.6,0.4
							c0.7,0,1.5,0,2.2,0.1c0.7,0,1.3,0,1.9-0.1c0.4,0,0.5,0.1,0.6,0.1c-0.8-0.2-0.9-0.4-0.7-0.5c2.3,0.1,4.3-0.3,5.2-0.1
							c-1.4,0-1.5,0.1-2.2,0.2l2.4-0.2c2.2,0.3-3.3,0.3-3.3,0.5c4.8-0.1,10.2-1,13.8-1.6c0.8,0.3-8.4,1.3-3.5,1
							c-1.9,0.3-3.8,0.3-5.6,0.4c2.2,0.1,1.3,0.1,0.4,0.2c-0.4,0-0.9,0.1-1,0.1c-0.1,0,0.2,0.1,1.2,0.2c3.7-0.2,5.8-0.6,7.8-1
							c2-0.5,4.1-0.8,7.7-1.7c1.6-0.6-0.6-0.1,1-0.7c2.5-0.8,4.2-1.4,5.6-1.8c1.3-0.5,2.2-0.7,3.1-0.9c0.4-0.1,0.8-0.2,1.2-0.3
							c0.4-0.1,0.8-0.3,1.3-0.5c1-0.4,2.2-0.9,3.9-1.9c0.8-0.6,1.4-1.1,2.3-1.7c0.5-0.3,1-0.7,1.8-1.1c0.7-0.5,1.7-1,2.9-1.7
							l-1.4,1.3c1.5-0.9,2.5-1.6,3.2-2.1c0.7-0.5,1.1-0.9,1.5-1.2c0.4-0.4,0.8-0.7,1.5-1.2c0.7-0.5,1.7-1.2,3.2-2.3
							c-0.9,1-4.5,3.4-3.6,2.8c2.1-1.3,2.8-1.8,3.3-2.4c0.5-0.5,0.9-1,2.3-2.2l0.8-0.2c0.9-0.7,1.7-1.5,2.6-2.3
							c0.9-0.8,1.7-1.6,2.6-2.4c0.9-0.8,1.7-1.7,2.5-2.6c0.4-0.4,0.8-0.9,1.3-1.3l0.6-0.7l0.2-0.3c0.6,0.1,1.3,0.3,1.9,0.4
							c0.8,0.2,1.7,0.4,2.5,0.5c1.7,0.3,3.3,0.7,5,1c-0.5,0-1.9-0.1,0,0.3c10.5,1.8,22.5,3,32.8,2.9l3.9-0.5c0.9-0.1,1.7,0,0.7,0.1
							c4-0.2,0.2-0.2,2.1-0.5c2.3-0.2,3-0.1,1.6,0.1c3.5-0.5,8.5-1.3,13.4-2.5c5-1.1,9.8-2.8,13.3-4.1l-1.3,0.6
							c2.7-1.1,4.2-1.8,5.5-2.7c0.7-0.4,1.4-0.8,2.2-1.2c0.8-0.4,1.7-1,2.9-1.6l-0.9,0.6c0.8-0.4,1.5-0.9,2.3-1.3
							c0.7-0.5,1.5-1,2.3-1.5c1.5-1,2.9-2.1,4.4-3.3c0.7-0.5,1.4-1.2,2.1-1.8c0.7-0.6,1.3-1.2,2-1.8c0.2-0.2,0.2-0.2,0.3-0.3
							l0.2-0.2l0.4-0.4c0.3-0.3,0.5-0.6,0.8-0.9c-0.3,1.7-0.5,3.4-0.7,4.9c-0.4,2.4-0.7,4.7-1.1,6.7c0.2,1.8-1.7,12.2-1.2,13.1
							c-1.1,7-1,5-2.3,15c-0.3,2.7-0.1,4-0.4,7.3l-0.3,0l-0.2,4.5l-0.6,2.3l-0.2,3.1c0.1-1.2,0.4-2.6,0.5-2.4
							c-0.2,2.4-0.5,5.4-0.9,7.7c-0.3,2.3-0.6,4.1-0.7,4.2l-0.8,11.5c-0.1-0.3,0-2.2,0.1-3.7c-0.3,6.1-0.4,1.1-0.7,6.7
							c0.1-0.7,0.1,0.4,0.2,0.6c-0.4,2.8-1,9.1-1.3,13.8l-0.1-0.9c-0.8,8.5-1.4,17.9-2,27.5c0.3-3.4,0.7-2.6,0.5,0.2l-0.4,1.1
							c0.1,1.8,0.3-2.9,0.3,0.8c-0.3,3.6-0.5,2.4-0.5,0.3l-0.2,4.3c-0.1,0.2-0.1-0.8-0.2-1c0.1,1.8-0.8,7.5-0.6,10.1l-0.1,0.2
							c-0.6,9.6-0.7,13.9-1,21.7c0.3,0.2,0.1,3.2,0.2,5.5c-0.3,5.7-0.8,12.1-1,19c0,4.9,0.2,1.4,0.3,3.6c-0.3,0.3-0.4,7.2-0.5,3.7
							c-0.1,8.3-0.2,10.6,0,21.1c0.1-1.1,0.2-2.4,0.2-1.8c0,1.9-0.1,4.3-0.2,4.1l0-0.5c0.3,11.8-0.5,27.2,0.4,36.5l0-0.5
							c0.2,3.2,0.4,6.5,0.7,9.7c0.2,4.5-0.3-2.7-0.3,0.6c1,10.4,1,16.5,2,25.1c0,1.7,0.1,4,0.4,6.7c0.3,2.7,0.6,5.7,1.1,8.8
							c0.8,6.2,2,12.6,2.5,17.1l0.1-0.5c0.6,2.3,0.4,2.8,0.7,4.5c0.1-0.3-0.3-2.5,0-1.1c1.7,8.5,3.7,17.3,6.4,25.9
							c0.6,2.2,1.4,4.3,2.1,6.5c0.4,1.1,0.8,2.1,1.2,3.2c0.4,1.1,0.8,2.1,1.3,3.2l1.3,3.1c0.4,1,1,2.1,1.5,3.1c0.5,1,1,2.1,1.6,3
							c0.1,0.2,0.1,0.2,0.1,0.2l-0.1,0l0,0l0,0l-0.5-0.1c-1.2-0.2-2.4-0.3-3.7-0.5c-7.3-0.9-4.3,0.4-13.5-1.1l2.7,0
							c-14.9-1.3-30.4-3.2-45-4c0.9,0,0.9-0.1,2.3,0c-1.5-0.2-4.4-0.5-6.8-0.6c-2.5-0.1-4.6-0.2-4.6-0.1c-2.3-0.2-0.5-0.2-1.9-0.4
							c-3.1-0.4-7.8-0.2-9.4-0.6c-0.3-0.1,0.9,0,1.4,0c-2,0-9.4-0.6-7.5-0.2c-5.5-0.5-10.5-0.4-14.9-0.8c-2.9,0.2-9.4-0.5-10.3-0.1
							c0.4-0.5-9.6-0.7-13.1-0.5c1.2-0.1-3-0.2-1.6-0.4c-4-0.1-7.6,0-6.9,0.2c-7.3-0.7-14.7,0.3-18.8-0.3
							c-11.8,0.3-22.6,0.9-33.2,1.6c0.4-0.5,11.7-0.7,11.2-1.1c-10,0.6-15.8,1.3-25.7,2.1c-2.6,0.2,1.4-0.3,2.3-0.5
							c-10,1-19.3,1.9-28.1,3.5c0,0,1-0.2,1.9-0.4c-1.7,0.3-4.1,0.6-3.8,0.7l1.7-0.3c1.4-0.1-0.3,0.3-2.4,0.8
							c-2.1,0.5-4.5,1.1-4.7,1.2c2.8-1.2-8.7,1.6-4.2-0.1c-1.1,0.3-2.5,0.7-2.2,0.7c-1.7,0.3-2.2,0.4-0.6-0.2c-3.1,0.7-4,1-4.9,1.3
							c-0.9,0.3-1.7,0.5-4.5,1.3c0-0.1,1.1-0.5,1.6-0.7c-2.8,0.9-5.5,1.9-10.2,3.3c0.3-0.1-0.3-0.1,1.1-0.5c-2,0.6-3.8,1.3-5.5,2
							c-1.7,0.7-3.4,1.4-5,2.1c-0.8,0.4-1.7,0.8-2.5,1.1c-0.8,0.4-1.7,0.8-2.6,1.3c-0.9,0.4-1.8,0.9-2.7,1.4c-0.9,0.5-1.9,1-2.9,1.5
							c2.1-1.8-2.7,1.5-3.3,1.5l-2,1.5l-0.5,0.4c-0.1,0.1-0.4,0.3-0.4,0.3l-0.5,0.5l1.2-0.7c-0.5,0.3-0.7,0.5-1,0.7
							c-0.3,0.2-0.5,0.4-0.8,0.7l-0.4,0.3c-0.1,0-0.1,0.1-0.2,0.1l0-0.2c-0.1-0.3-0.1-0.5-0.2-0.8l-0.1-0.4l-0.1-0.6
							c-0.1-0.5-0.2-0.9-0.2-1.4c-0.2-0.9-0.3-1.8-0.4-2.8l0.6,3.1l-1.3-7.9l0.5,4.5c-0.9-4.2-0.4,0.5-1.2-5.1
							c0.2,1.1-0.6-4.2-0.7-6.5l0,0c-0.4-2.1-0.9-4.2-1.2-7.4c0-0.8,0.5,0.6,0.5,0.1c-0.6-2-1.5-9.9-2.2-12.5
							c0.2,0.9,0.4,0.9,0.4,0.6l-0.5-1.7c-0.2-2-0.2-2.3,0-2c-0.8-5.9-0.2,1.9-1-5.1c0.1,0.5,0.1,0.3,0.3,1.4
							c-0.8-7-2-13.6-2.7-20.1c0.1-2,0.8,5.6,0.8,3.4c-1.3-9.3-2.9-19.3-3.8-28.3l0.2,1.7c-0.7-1.2-0.5-6.8-1.3-11.3
							c0.2,1.1,0.5,1.4,0.4,1.1c-0.6-6.2-1.5-12.7-2.7-22l0.3,1.2c-0.2-3.7-0.9-9.6-1.2-13.6c-0.2-1.2-0.4-3.4-0.5-2
							c-0.4-12.2-2.5-23.2-2.7-34.1c0.1,1.3,0.4,3.1,0.3,2c-0.3-3.1-0.6-6.1-0.8-9.2c-0.2,0.7-0.1,1.2-0.1,3.2
							c-0.2-1.2-0.5-3.8-0.7-6c0.4,4.1,0.4-0.1,0.4-1.9c0,0.3-0.2-0.3-0.2-0.1c0.1-4.8-0.5-0.8-0.7-7.4l0.1,0.3
							c-0.2-2.5-0.5-4.7-0.6-7.4c0.2-1.1,0.3,2.6,0.5,2.8c-0.2-3.7-1-7.3-0.9-10.7c0.2,1.6,0.3,3.9,0.4,5.4c0.1-3.7,0-4.1-0.1-6.9
							l0,0.3l-0.2-6.3l0,1.6c-1-4.6-0.5-9.5-1.3-15.8c0.7,6.1,0.3,1,0.6,1.5c0-1.6,0-4.1,0.1-3.4c-0.3-3,0.1-5-0.4-9.2
							c0.1-0.2-0.1-3.2,0.2-2.5c-0.2-3.9-0.1,0.9-0.3,0.6c-0.4-6,0.1-14-0.3-22.6c-0.2-7.4-0.4-8.8-0.5-15.6
							c0.2-2.3,0.3,1.9,0.3,1.9c0.2-3.7,0.3-6.5,0.3-10.1c0.1,0.7,0.2,0,0.3-1.1c0.1-2.8-0.3-1.9,0-5.6c0.1,0.6,0.2,1.5,0.3,2.8
							c0-3.3,0.1-6.6,0.2-10.1c0.2-0.9,0.1,2.1,0.2,3.3c0.1-1.9,0.2-4.4,0.2-6.6c0.1-2.2,0.2-4,0.1-4.6l-0.3,2.5
							c0.1-1.4,0.3-0.7,0.3,0.3c0,3.3-0.4,4.8-0.5,5l0.1-2.5c-0.7,2.5-0.5,9.9-0.7,14.8l-0.3-2.1l0.2,5.1c-0.1,1.1-0.4,1.8-0.4-0.6
							c-0.3,3.5,0,3.1-0.3,6.2c0,0.3-0.1,0.2-0.1-0.1l0.1,3.5c-0.1-0.7-0.3,0.6-0.2-1.6c-0.3,6.2,0.1,10-0.2,12.4l0-0.5
							c0.1,8.6,0.3,0.8,0.7,7.3l-0.7,4.4l0.3,0.8c0,0.9,0,2.7-0.1,2.3c0.3,3.3,0.1-0.6,0.3,1.4c-0.1,2.1,0,5.1,0,7.6
							c0.1,2.5,0.1,4.7-0.1,5.2c0.3,1.5,0.1-4.1,0.4,0.5c-0.5,1.3,0.2,5.3,0.1,9.2c-0.3-1.2-0.3-4.9-0.4-1c0.6,2.3,0.2,7.6,0.4,10.9
							c0.3,0.1,0.5,7.2,0.9,12.7c-0.2-0.3,0.4,10.4,0.6,15.6l-0.1-0.1c0.4,1,0.7,6.3,1.1,10.1c-0.2-0.1-0.4-0.8-0.6-2.9l0.3,3.6
							c0.2,0.8,0.3,2,0.5,4.3l-0.3-0.9c0.4,4.8,1.1,9.7,1.4,15.9c0.3,0.3,0.3-5,1,1.6c-0.1,0.3-0.3,0.5-0.5-1.2
							c0.1,0.6,0.3,2,0.3,3.1l-0.5-2.6c0.1,2.8,0.3,1.5,0.5,3.7c-0.2,0,0,1.7-0.2,1.4c-0.1-0.6-0.1-2-0.2-2.8
							c0.2,2.6,0.3,5.6,0.3,6.7c0.1-0.2,0.3,0,0.5,1.8c0.5,4.8-0.1,1.7,0.1,4.5c0.2,1.2,0.4,4.2,0.7,4.3c0.1,1.4,0,1.7,0,2.2
							c0.4,2.5,1.2,11.7,1.2,8.8l0-0.6c0,0.1,0,0.3,0.1,0.4c0,0,0,0,0,0l0,0c0.5,4.1,0.9,8.3,1.3,12.6c0.4,4.2,0.8,8.5,1.3,12.5
							l-0.1,0c0.6,4.8,1.3,10.8,1.9,14.2c0.2,1.4,0.2,3.4,0,2.8c0.5,3.7,0.7,4.1,1.2,9.4c-0.6-3.7,0,1.3-0.6-3.8
							c0.5,4.8,0.5,5.9,1.4,11c-0.5-1.7,0.1,3.7,0.5,5.9l-0.2-3.4c0.4,2.6,0.6,4.8,0.9,7.1l-0.5-1.2c0.9,9.9,3,17.6,3.4,25.2
							c0.6,2.6-0.6-5.3,0-3.1c0.6,4.5,0.8,9.3,1,10.7c0.7,6.2,1.3,5.7,2.2,12.2c0-0.8,0.2-1.7,1,3.1c0.6,4.5,0.4,5.6-0.2,2.8
							c-0.2-1.1-0.2-1.6-0.2-1.6c-0.3-1.4-0.6-3.4-0.5-1.5l0.2,0.6c0.2,2.3,1.2,8.4,0.8,7c0.2,0.9,0.3,1.3,0.3,1.7
							c0.1,0.4,0.1,0.4,0.1,0.1c0-0.2-0.1-0.6-0.1-1.1c-0.1-0.5-0.1-1.1-0.2-1.7c0.1,0.7,0.2,1.4,0.3,2.1c0.1,0.9,0.3,1.8,0.4,2.7
							c0.1,0.5,0.2,1,0.2,1.4l0.1,0.7l0,0.1c0,0,0,0,0.1,0l0.1-0.1l0.2-0.2c0.7-0.5,1.3-1,2-1.5l1-0.8l0.5-0.4l0.2-0.2l0.2-0.1
							c0.5-0.3,1-0.7,1.5-1c0.5-0.3,1-0.7,1.6-1.1c0.6-0.3,1.2-0.7,1.8-1.1c-0.8,0.4-1.7,0.8-0.9,0.3c0.9-0.5,1.7-1,2.3-1.4
							c0.6-0.3,1.1-0.6,1.5-0.8c0.8-0.4,1.1-0.6,1.3-0.8c0.5-0.4,0.7-0.6,3.4-1.9c3.2-1.2-0.9,0.9,4.5-1.6c3.5-1.2,0.8,0-0.5,0.6
							c4.9-2.3,9.6-3.4,12.5-4.2l-2.7,0.9c1.6-0.6,3-1,4.3-1.4l-1.6,0.2c1.6-0.5,3-0.8,3-0.7c1.6-0.6-1.4,0,1.9-1.1
							c2.2-0.5,6.6-1.8,7.5-1.6c-6.9,1.5,0.8,0.1-5,1.6c1.1-0.3,2.5-0.7,4.1-1c0.3,0-0.2,0.1-0.7,0.2c6.7-1.2,2.9-1.1,9.8-2.4
							c-0.8,0.3,1.7,0,2.8-0.2c-2.8,0.5-1.4-0.1,1.1-0.6c4.5-0.6,4.8-0.9,7.2-1.3l-2.7,0.4c0.9-0.3,3.1-0.7,6.2-1.1
							c0.3,0.1-2.8,0.5-1.7,0.4c3.4-0.8,7.9-0.8,12.7-1.5c2.3-0.1,0.3,0.3,2.2,0.2c5.4-0.8,5.9-0.3,11.6-1c-1.7-0.1-2,0,2.1-0.6
							c-3.1,0.3-6.3,0.6-9.4,0.9c2-0.3,4-0.6,6-0.9c-2.8,0.2-6,0.6-7.7,0.8c2.9-0.5,2.6-0.4,1.2-0.4c3.9,0,7.7-0.9,12.2-0.9
							l-0.1,0.6c6.8-0.2,12-1,20.8-1.2l-2.8,0c1.2-0.3,5.4-0.2,8.3-0.4c-0.3,0.2,1.5,0.2,2.7,0.3c-0.2-0.2,6.4-0.1,7.2-0.5l3.9,0.2
							c7.1,0.1,8.1-0.6,14.9-0.4c-2.1,0.2,1,0.4-3.5,0.5c2.3,0,4.3,0.1,4.4,0c1.3,0.1,6.3-0.2,8.4,0.1c1-0.1,1.3-0.3,3.8-0.2
							c0.3,0,0,0.1,0,0.1c0-0.1,4,0,1.8-0.3c7,0.8,19.6,0.7,25.7,1.5c5,0.2,11,0.5,15.5,0.8c-0.3,0,0,0.1-0.9,0
							c6.2,0.6,3.9-0.3,10.9,0.4c3.6,0.6-3.8-0.1-1.5,0.2c0.9,0.7,8.5,0.5,13.3,1.3l-1.2-0.1c3.6,0.5,8.9,0.5,14.8,1.1
							c0,0-0.3,0,0,0.1c4.1,0,11.8,0.7,17.5,1.2c-1.8,0.1-2.6-0.1-1.5,0.2c2.6,0.2-0.7-0.5,4.4,0c1.6,0.3,5.3,0.8,5.8,1.2l-4.8-0.5
							c2.4,0.6,6.2,0.7,8.8,1l-0.3,0.1c3.7,0.4,5.6,0.5,7.5,0.7c1,0.1,2,0.1,3.2,0.3c0.6,0.1,1.3,0.1,2.1,0.2c1,0.1,2.2,0.3,3.5,0.5
							l-1.2-0.3c0.7,0,1.3,0.1,1.8,0.1c-0.9-1.4-1.2-2-1.6-2.9c-0.2-0.5-0.4-0.8-0.7-1.3c-0.3-0.5-0.6-1.1-1.1-1.9l-0.2-1.3
							c-0.7-1.2-1.8-3.5-3-6c-0.6-1.3-1.1-2.6-1.7-4c-0.6-1.3-1-2.7-1.5-3.9c1.2,2.7,3.5,8.2,5.2,11.5c-1.2-2.6-3.8-8.8-4.4-10.2
							c0.4,1.1,1,2.4,1.4,3.5c-1.6-3.1-3.2-7.4-4.8-12.9c0.3,0.2,0.1-0.6-0.2-2c-0.3-1.4-0.8-3.3-1.3-5.4c-0.3-1.1-0.5-2.1-0.8-3.2
							c-0.2-1.1-0.5-2.2-0.7-3.2c-0.4-2-0.7-3.7-0.7-4.8c-2.2-9.8-3.3-19.6-4.7-31.2c-0.1,2.1-0.2,1.2-0.3,0c-0.1-1.3-0.3-3-0.6-2.6
							c-0.3-2.7-0.4-3.7-0.4-4l-0.4-8.3c0-2,0.3,2.6,0.5,2.3c-0.4-5.9,0.1-2.5-0.1-6.5c-0.1,0.8-0.5-2-0.6-5.4c0,1.6,0,3.2,0,4.8
							c-0.9-8.3,0-7.2-0.7-15.6l0.3,2.6c-0.4-4.3-0.7-15.9-1.3-20.1c0.1-0.8,0.2-1.8,0.3,0.1c-0.2-10.3-0.8-22.9-0.5-30.9l0.1,0.8
							c0-1.9-0.2-3.3-0.1-5.8c0.1,0.1,0.1,0.8,0.2-0.1c0-1-0.2-5.1-0.1-7.7l0.1,2.2c0.4-10-0.1-15.4,0.1-23.9
							c0.4,0,0.9-7.9,1.1-11.8l0.1,0.1c0.6-11.7,0.6-19.9,1.1-30.7c0.9-6.7,1.8-22.7,2.9-33.5c-0.2,1.6-0.3-0.3-0.2-2.2
							c0.3-2.5,0.3-7,0.7-6.6l-0.1,0.9c0.6-1.9,0.9-7.1,1.3-11.1l-0.5-0.7c1.7-10.5,2.5-27.8,3.8-33.5c0.2-2.6,0.5-5.7,0.7-8.3
							l0.3,0.2c0.9-7.1,1.3-10.6,2.4-19.3l0,1.8c0.6-4.9,0-6.3,0.5-10.9L556,51c0.2-1.7,0.5-3.4,0.7-5.1l1.3-8.8l-4.8,5
							c-0.4,0.4-0.8,0.8-1.2,1.3l-0.7,0.7l-1.4,1.3c-0.9,0.9-1.9,1.7-2.9,2.5l-1.5,1.2c-0.5,0.4-1,0.8-1.5,1.1
							c0.1-0.1,0.2-0.4,1.3-1.2c-0.8,0.6-2.1,1.4-3.4,2.3c-1.4,0.8-2.9,1.7-4.3,2.5c-1.4,0.7-2.7,1.4-3.5,1.8
							c-0.8,0.4-1.2,0.7-0.8,0.7c-0.1-0.1-0.6,0.1-1.4,0.4c-0.8,0.3-2,0.9-3.3,1.3c-2.6,1-5.7,2.1-8,2.8l0.6-0.4
							c-3.7,1.3-3.8,1.5-9.2,2.5c-1.3,0.2-1.2,0,0.6-0.2c-4.3,0.5-3.3,0.8-8.5,1.2c0.6-0.1,1.3-0.2,1.9-0.4c-2.2,0.2-3.2,0.3-4,0.4
							c-0.8,0.1-1.3,0.2-2.5,0.4c-2.8,0.3-8.5,0.1-9.1-0.2c-0.6,0.2-3.1,0.3-5.7,0.1c-0.3-0.1,0.6-0.1,1.1-0.1
							c-3.7-0.3-6.5-0.5-9-0.6c-2.5-0.2-4.7-0.4-7.2-0.9c-0.1-0.1-0.4-0.2-0.8-0.3c5.9,0.9,10.6,1.3,10.2,1.3c0-0.2-4.7-0.8-0.9-0.7
							c-3.8-0.2-10.4-0.7-14.9-1.7c-0.2-0.1-0.4-0.1-0.6-0.2l0.5,0.1c-1-0.2-2-0.4-2.9-0.6c-1.4-0.4-2.4-0.6-3.7-0.9
							c-0.2-0.1-0.5-0.2-2.5-0.8c-0.8,0.8-1.8,1.8-2.7,2.7c-0.8,0.8-1.5,1.5-2,2.1c0.4,0.1-2,2.2,0.3,0.3c-0.3,0.3,0.3-0.3,1.4-1.5
							c0.2-0.3,0.5-0.6,0.7-0.7c0,0-0.1,0.1-0.1,0.1l2.5-2.6c1.6,0.4,2.2,0.6,3.2,0.8c-0.4-0.1-0.9-0.2-1.4-0.2l-0.3-0.1l-0.4-0.1
							c-0.3-0.1-0.7-0.2-1-0.3c-0.5,0.5-1,1-1.5,1.5c-0.4,0.4-0.9,0.9-1.4,1.3c-0.7,1-1.5,2.1-2.1,2.7c-1.4,0.9-3.2,2.4-4.9,3.7
							c-1.7,1.2-3.2,2.2-3.6,2.4c-2.8,2.3-6.3,4.7-9.7,6.8c-1.7,1.1-3.3,1.9-4.8,2.8c-1.4,0.8-2.8,1.5-3.8,2.1c-1.8,1-2.2,0.8-3,1
							c0.5-0.2,1.2-0.5,1.7-0.7c0.5-0.3,1-0.5,1.3-0.7c-0.5,0.2-1,0.5-1.5,0.8c-0.6,0.2-1.2,0.5-1.8,0.7c-1.3,0.5-2.6,1.1-3.8,1.5
							c-1.3,0.4-2.4,0.8-3.3,1.2c-0.9,0.3-1.6,0.5-1.8,0.7c-2.5,0.6-1.9,0.3-1.4,0.1c0.2-0.1,0.4-0.2,0.1-0.1
							c-0.3,0.1-1.1,0.3-2.9,0.7l0.9-0.3c-6.9,1.2-12.6,1.9-18.5,2c-5.9,0.1-12.1-0.3-19.6-2.5c1,0.3,1.6,0.4,1.8,0.5
							c-3.7-0.9-7.4-2-11.1-3.3c-1.8-0.6-3.7-1.4-5.5-2.2c-0.9-0.4-1.8-0.8-2.7-1.2l-1.3-0.7c-0.5-0.3-1.2-0.6-1.7-0.9l-2.7,3.5
							l-1.2,1.6L343,86c-0.9,1-1.7,2-2.6,2.9c-0.9,0.9-1.8,1.8-2.7,2.8c-3.7,3.6-7.8,6.8-12.1,9.3c-2.2,1.2-3.3,1.9-4.3,2.6
							c-1,0.6-1.8,1-3.1,1.8c-0.4,0.1-0.7,0.1-1.1,0.2c-1.6,0.7-3.1,1.6-4.7,2.3c-0.9,0.3-1.7,0.6-2.5,0.9c-0.8,0.2-1.7,0.5-2.5,0.7
							c-1.6,0.5-3.3,0.6-5,1c-3.4,0.5-7.1,0.9-11.7,1.3c0.4,0.1,0.8,0.1,1.2,0.1c-0.8,0.1-1.9,0.1-3.1,0.1c-1.1,0-2.4,0-3.4,0
							c-2.2,0-3.8-0.3-3.6-0.3c-0.3,0-1.1,0.1-2.4-0.1l-0.1-0.2c-2.7-0.2-5.5-0.6-8.2-1c-3.1-0.7-2.8-0.9-2.9-1
							c-0.1-0.2-0.5-0.3-5-1.7c-1.7-0.5-4-1.1-5.8-1.7c-1.8-0.6-3-1-2.4-0.7c1.3,0.6,3.3,1.4,3.3,1.6c-1-0.3-2-0.7-3-1.1
							c-0.4,0.1-1.2,0-1,0.3c0.2,0.3,1.3,1.1,5,2.6c1.8,0.5,3.6,1,5.4,1.4c0.6,0.2,1.1,0.5,1.7,0.7c-1.5-0.4-3-0.8-4.5-1.3
							c2.5,1,4.2,1.2,6,1.5c0.4,0.2,1.1,0.5,2.2,0.7c0.9,0.1,1.8,0.2,2.7,0.3c0.9,0.1,1.8,0.2,2.7,0.2c0.6,0.3-2.5,0,1.1,0.6
							c2.5,0.1-2.4-0.7,1.8-0.3c2.6,0.5,1.8,0.6,4.9,0.6c0.4,0.2-0.2,0.2-1.5,0.1c1.4,0.1,3.2,0.1,4.9,0.1c1.7,0,3.2-0.1,3.9-0.2
							c0.7,0.1,1.6,0,2.6,0c1,0,2.1-0.1,3-0.3c2-0.2,3.5-0.4,3.4-0.2c0.4-0.1,1.6-0.4,3-0.7c1.4-0.4,3-0.8,4.2-1.1
							c-2.2,0.9,0.1,0.3,2.8-0.5c2.7-0.8,5.7-2,5.3-1.5c0.8-0.4,1.8-1,3.1-1.6c1.3-0.7,2.7-1.4,4.3-2.2c1.5-0.9,3.1-1.8,4.5-2.7
							c0.7-0.5,1.4-1,2.1-1.5c0.7-0.5,1.3-1,1.9-1.5c-0.3,0.2-0.7,0.7-1.2,1c1.4-1,2.3-1.6,3.1-2.2c0.8-0.5,1.5-1,2.3-1.7
							c0-0.3,1-1.3,2.3-2.6c1.2-1.3,2.5-2.8,3.5-3.9c1.6-1.4,1.2-0.9,0.6,0c-0.6,0.8-1.5,1.8-0.9,1.5c-0.2-0.1,1.1-1.4,2.1-2.7
							c1-1.3,2-2.5,1.4-2c1.2-1.1,1.6-1.7,1.9-2c0.3-0.4,0.6-0.6,1.2-1.1c0-0.3,0.2-0.6,0.5-1.1c0.1-0.2,0.3-0.4,0.4-0.6
							c0.1-0.1,0.1-0.2,0.2-0.3c0.1,0.1,0.2,0.1,0.3,0.2c0,0,0.3,0.1,0.5,0.2c0.2,0.1,0.4,0.2,0.6,0.2c2,1.1,2.3,1.3,2.6,1.6
							c0.3,0.2,0.7,0.4,3.1,1.3c1.1,0.5,0.6,0.4-0.2,0.1C354.6,84.9,353.5,84.5,353.5,84.5z M463.9,63.1L463.9,63.1
							c-1-0.2-1.9-0.3-2.4-0.5C462,62.7,462.7,62.9,463.9,63.1z M473.9,64.6c-1.2-0.2-2.7-0.4-4.3-0.6c-0.3-0.1,0.1-0.2,1.1,0
							C470.1,64,472.4,64.3,473.9,64.6z M452.5,60.1c0.5-0.5,1-1,1.3-1.3c0.6,0.2,1.1,0.3,1.4,0.4c0.3,0.1,0.3,0.1,0.4,0.2
							c-0.5-0.1-1-0.3-1.8-0.5c-0.4,0.4-0.9,0.9-1.6,1.6c0,0-0.1,0.1-0.1,0.2C452.3,60.5,452.3,60.3,452.5,60.1z"/>
						<path class="st1" d="M450.8,62.4c-0.2,0.2-0.2,0.3-0.4,0.5c0.2-0.2,0.5-0.4,0.7-0.6c0.1-0.2,0.2-0.3,0.3-0.5
							C451.2,62,451,62.2,450.8,62.4z"/>
						<path class="st1" d="M258.4,305.6l0,0.2c0-0.2,0-0.3,0-0.4C258.4,305.5,258.4,305.5,258.4,305.6z"/>
						<polygon class="st1" points="548.9,90.5 548.9,90.5 549,89.6 						"/>
						<path class="st1" d="M254.7,250.2c0-0.1,0-0.3,0-0.7C254.7,249.5,254.7,249.8,254.7,250.2z"/>
						<path class="st1" d="M253.3,226.3l-0.1-3.4C253.3,224.3,253.3,225.4,253.3,226.3z"/>
						<path class="st1" d="M252.6,207.8c-0.1-0.2-0.1-0.3-0.1-0.4c0,0,0,0,0,0L252.6,207.8z"/>
						<path class="st1" d="M337.9,408.3c0.2,0,0.5-0.1,0.7-0.1C340.3,407.9,339.2,408.1,337.9,408.3z"/>
						<path class="st1" d="M272.5,412.6c0.2,0.9,0.4,1.8,0.5,2.8C272.9,413.9,272.7,412.7,272.5,412.6z"/>
						<path class="st1" d="M435.3,403.2C435.3,403.2,435.3,403.2,435.3,403.2c0.2,0,0.4,0,0.6,0L435.3,403.2z"/>
						<path class="st1" d="M273.7,419.4c-0.2-1.5-0.4-2.8-0.6-4C273.2,416.7,273.4,418.1,273.7,419.4z"/>
						<path class="st1" d="M253.4,128.1l0.1-0.9c0,0,0,0,0-0.1L253.4,128.1z"/>
						<path class="st1" d="M253.5,127.1l0-1C253.5,126.5,253.5,126.9,253.5,127.1z"/>
						<path class="st1" d="M253.6,124l-0.1,2.1C253.6,125.4,253.7,124.5,253.6,124z"/>
						<path class="st1" d="M252.2,152.4l0.1,0.3C252.2,152.5,252.2,152.4,252.2,152.4z"/>
						<path class="st1" d="M252.1,159.8c0.1-1.8,0.3-4.4,0.3-6.9l-0.1-0.2C252.4,153.8,251.9,158.1,252.1,159.8z"/>
						<path class="st1" d="M250.9,190.8l0-6.2c-0.1,1.1-0.2,2.5-0.3-0.3C250.4,192.1,250.8,182.6,250.9,190.8z"/>
						<path class="st1" d="M251.3,210c-0.2-3.3-0.2,0-0.2-0.1C251.3,212,251.3,212.5,251.3,210z"/>
						<path class="st1" d="M262.9,348.8l-0.3-0.3C263,351.1,262.7,348.6,262.9,348.8z"/>
						<polygon class="st1" points="267.6,375.1 267.4,372.6 267,371.4 						"/>
						<polygon class="st1" points="267.8,390.9 267.7,389.8 268.3,394.1 						"/>
						<path class="st1" d="M462.3,406.6l-0.8-0.4C459.8,406.2,459.4,406.6,462.3,406.6z"/>
						<path class="st1" d="M563.5,415.2c0.6,0.1,1.5,0.3,2.7,0.5c-0.4-0.8-1-1.8-1.5-2.7c-0.3-0.5-0.6-0.9-0.8-1.4
							c-0.1-0.2-0.2-0.3-0.3-0.5c-0.1-0.1-0.2-0.3-0.3-0.4c1,1.7,1.9,3.5,2.6,4.8C564.9,415.4,564.1,415.3,563.5,415.2z"/>
						<polygon class="st1" points="548.6,117.4 548.5,119.4 548.8,115.6 						"/>
					</g>
				</g>
			</g>
		</g>
	</g>
	<g>
		<g>
			<g>
				<g>
					<g>
						<path class="st1" d="M266.6,429.8c-0.2,0.1-0.1,0.3,0.3,0.3l0.3-0.3L266.6,429.8z"/>
						<path class="st1" d="M269.4,430.7c0.5-0.1,1.1-0.3,0.8-0.7c-0.5,0.3-0.6,0.1-1.2,0.5c-0.4,0-0.7-0.2-0.7-0.3
							c-0.2,0.1-0.7-0.1-0.9,0c0.5,0.3,1.3,0.4,2,0.2C269.6,430.5,269.5,430.6,269.4,430.7z"/>
						<path class="st1" d="M312.2,430.9l-0.3,0C312,430.9,312.1,430.9,312.2,430.9z"/>
						<path class="st1" d="M338.5,427.8c-0.2,0-0.3,0.1-0.3,0.1C338.4,427.8,338.5,427.8,338.5,427.8z"/>
						<path class="st1" d="M343,427.4c-0.1,0-0.2,0-0.3,0C342.9,427.5,343,427.5,343,427.4z"/>
						<path class="st1" d="M312.2,430.9l0.7,0C312.9,430.8,312.5,430.9,312.2,430.9z"/>
						<path class="st1" d="M275.4,430.4c-0.1,0-0.3,0-0.4,0.1L275.4,430.4C275.3,430.5,275.3,430.4,275.4,430.4z"/>
						<path class="st1" d="M300.5,432l-0.2,0c-0.1,0-0.1,0.1-0.2,0.1L300.5,432z"/>
						<path class="st1" d="M291.5,432.4c0.2,0,0.3-0.3,0.3-0.4c-0.1,0.1-0.3,0.2-0.4,0.2C291.4,432.3,291.5,432.3,291.5,432.4z"/>
						<path class="st1" d="M277.3,431.7l-0.3,0C277.1,431.7,277.2,431.7,277.3,431.7z"/>
						<path class="st1" d="M306.9,431.7C307,431.7,307,431.7,306.9,431.7C307,431.7,307,431.7,306.9,431.7z"/>
						<path class="st1" d="M555.4,415.8C555.4,415.9,555.4,415.9,555.4,415.8C555.5,415.8,555.5,415.8,555.4,415.8z"/>
						<path class="st1" d="M565.5,413.4l-0.1,0.1c0,0.1,0,0.1,0,0.2L565.5,413.4z"/>
						<path class="st1" d="M351.3,426.5C351.3,426.5,351.2,426.5,351.3,426.5C351,426.6,351.1,426.6,351.3,426.5z"/>
						<path class="st1" d="M426.6,420c-0.8-0.3,1.4-0.3,0.1-0.6C426.8,419.5,425.5,419.8,426.6,420z"/>
						<path class="st1" d="M275.6,430.5l0.4,0C275.8,430.5,275.7,430.5,275.6,430.5z"/>
						<path class="st1" d="M426.7,419.4L426.7,419.4l-0.1,0C426.7,419.4,426.7,419.4,426.7,419.4z"/>
						<path class="st1" d="M370.1,423.6c0,0-0.1-0.1-0.2-0.1C369.9,423.5,369.9,423.5,370.1,423.6z"/>
						<path class="st1" d="M356,425.2l0.4,0C356.2,425.2,356.1,425.2,356,425.2z"/>
						<path class="st1" d="M377.3,422.2c0.2,0,0.3,0,0.5,0c0,0-0.1,0-0.1,0C377.7,422.2,377.6,422.2,377.3,422.2z"/>
						<path class="st1" d="M384.9,421.3c0,0-0.1,0-0.1,0c-0.1,0-0.2,0-0.2,0L384.9,421.3z"/>
						<path class="st1" d="M533,421.3c0.2,0.1,0.3,0.1,0.4,0.2C533.2,421.3,534.3,421,533,421.3z"/>
						<path class="st1" d="M275.4,430.6c0-0.1,0.1-0.1,0.2-0.1c-0.1,0-0.2,0-0.3,0C275.3,430.5,275.3,430.6,275.4,430.6z"/>
						<path class="st1" d="M377.4,419.9l1.2-0.1C378.2,419.9,377.8,419.9,377.4,419.9z"/>
						<path class="st1" d="M478.3,421.9l0.3,0C478.5,421.9,478.4,421.9,478.3,421.9z"/>
						<path class="st1" d="M382.2,419.3c0.2,0.1,0.5,0.1,0.7,0.1c0,0,0.1-0.1,0.1-0.1L382.2,419.3z"/>
						<path class="st1" d="M533.4,421.5L533.4,421.5L533.4,421.5z"/>
						<path class="st1" d="M541.1,419.4c-1.1,0.2-0.5,0.5-0.7,0.7c-1.3,0.4-0.7-0.1-1.2-0.2c-0.8,0.3-1.4,0.7-2,0.8
							c-0.1-0.1-0.2-0.1-0.1-0.2c-0.8,0.4-2.7,0.4-3.6,1c-0.1,0-0.1,0-0.2-0.1c0.2,0.2,0.3,0.3,0.2,0.5c-0.5,0.1-0.9,0.4-1.1,0.2
							c0.3,0,0.3-0.1,0.5-0.2l-0.5,0.2c-0.5-0.3,0.7-0.2,0.7-0.5c-1,0.3-2.2,0.7-3,0.7c-0.2-0.3,1.9-0.4,0.8-0.5l1.3,0
							c-1-0.4,0.8-0.1-0.2-0.5c-1.6,0.1-1.8,0.4-3.4,0.5c-0.3,0.2,0.2,0.3-0.2,0.5c-2.3,0.6-1.9-0.7-3.6,0c-0.4,0.3-0.6,0.7-1.8,0.6
							l0.4-0.4c-1.6,0.1-0.9,0.6-2.6,0.5c0.3-0.2,1.2-0.2,1-0.2c-1.1-0.2-0.7,0.3-1.6,0.3l-0.2-0.3c-1.7,0.2-3.6,0.5-5.4,0.7
							c0.1-0.1,0.4-0.2,0-0.3c-2.4,0.3-5.1,0.1-7.4-0.1l-0.9,0.3c-0.2,0-0.4-0.1-0.2-0.2c-0.9-0.1,0,0.2-0.5,0.3
							c-0.5,0-0.7-0.2-0.3-0.3c-1.6,0.3-4.5,0.5-6.2,0.1l0.3-0.1c-1.3-0.1-1.5,0.6-2.7,0.2l0.2,0c-2.8-0.2-5.9-0.1-8.1-0.7
							c-0.4,0.4-2.8-0.4-3,0.2c-1.6-0.4-1.1-0.5-3.4-0.8c-0.6-0.1-0.9,0.3-1.7,0.3l0-0.3l-1,0.2l-0.5-0.4l-0.7,0
							c0.3,0,0.6,0.2,0.5,0.3c-1.1,0-2.6-0.4-2.7-0.6l-2.6,0c0.1-0.1,0.5-0.1,0.9-0.2c-1.4,0.2-0.2-0.3-1.5-0.2
							c0.2,0.1-0.1,0.2-0.1,0.2c-0.6-0.2-2.1-0.4-3.1-0.4l0.2-0.2c-1.9-0.2-4.1-0.3-6.2-0.5c0.8,0.2,0.6,0.5-0.1,0.5l-0.2-0.3
							c-0.4,0.2,0.6,0.2-0.2,0.4c-0.8-0.1-0.5-0.4,0-0.5l-1,0c0-0.1,0.2-0.1,0.3-0.2c-0.4,0.2-1.7-0.5-2.3-0.2l0-0.1
							c-2.2-0.2-3.1-0.2-4.9-0.3c-0.1,0.3-0.7,0.2-1.3,0.3c-1.3-0.2-2.7-0.6-4.3-0.7c-1.1,0-0.3,0.2-0.8,0.3
							c-0.1-0.3-1.6-0.4-0.8-0.5c-1.9-0.1-2.4-0.2-4.8-0.1c0.2,0.1,0.5,0.2,0.4,0.3c-0.4,0-1-0.2-0.9-0.3l0.1,0
							c-2.7,0.2-6.1-1.2-8.2-0.8l0.1,0l-2.2,0.1c-1-0.1,0.6-0.2-0.1-0.4c-2.4,0.3-3.7-0.3-5.7-0.1c-1.5-0.8-5.4-0.1-7.4-0.6l0.1,0.2
							c-0.5,0.2-0.6-0.1-1-0.2c0.1,0.1,0.6,0.2,0.2,0.3c-2.2,0.1-4.6,0-6.9-0.1c-2.3-0.1-4.7-0.1-7-0.1c-1.7,0-0.9,0.9-3,0.6
							c0.2-0.1,0.4-0.2,0.6-0.4c-3.4,0.6-6.9,0.5-10.2,1.1c0.2-0.1,0.2-0.2,0.5-0.2c-0.7-0.2-2.6,0.2-2.6,0.4
							c-0.5,0-0.1-0.2-0.5-0.2c-0.7-0.1-1.7,0.5-2.1,0.3c-0.1,0,0.2-0.1,0.3-0.1c-0.4,0.2-2.1,0.2-1.7,0.4c-1.3,0-2.4,0.4-3.4,0.3
							c-0.6,0.4-2.1,0.1-2.3,0.6c0-0.5-2.2-0.1-3,0.2c0.2-0.2-0.7-0.1-0.4-0.3c-0.9,0.1-1.7,0.3-1.5,0.5c-1.7-0.3-3.2,0.9-4.2,0.3
							c-2.6,0.6-5,1.1-7.4,1.6c0-0.5,2.6-0.4,2.4-0.9c-2.2,0.5-3.5,1.1-5.7,1.3c-0.6,0,0.3-0.2,0.5-0.3c-2.2,0.5-4.3,0.6-6.3,1.2
							c0,0,0.2-0.1,0.4-0.2c-0.4,0.1-0.9,0.1-0.8,0.3l0.4-0.1c0.7,0.2-1.5,0.9-1.5,1c0.6-0.7-2,0.2-1-0.7c-0.3,0.1-0.6,0.2-0.5,0.4
							c-0.4,0-0.5,0-0.2-0.3c-1.4,0.3-0.9,0.5-2.1,0.7c0-0.1,0.2-0.2,0.4-0.3c-0.6,0.3-1.2,0.6-2.3,0.7c0.1-0.1-0.1-0.1,0.2-0.2
							c-1.8,0.3-3.1,1-5.1,1.1c0.5-0.5-0.7,0-0.9-0.4l-1.1,0.3l0.5,0.1c-1,0.1-1.8,0.5-2.6,0.5l0.7-0.3l-1.8,0.3l1,0
							c-0.9,0.3,0.2,0.5-1.1,0.5c0.3-0.1-1,0.1-1.5,0l0,0c-0.5,0.2-0.9,0.4-1.6,0.4c-0.2-0.1,0.1-0.4,0-0.5
							c-0.4,0.4-2.2,0.4-2.8,0.8c0.2-0.1,0.2-0.3,0.1-0.3l-0.4,0.3c-0.5,0-0.5,0-0.5-0.2c-1.3,0.1,0.5,0.4-1.1,0.4
							c0.1,0,0.1-0.1,0.3-0.1c-1.6,0.1-3.1,0.6-4.5,0.6c-0.5-0.3,1.3-0.3,0.7-0.5c-2.1,0.3-4.3,1-6.4,1.2l0.4,0
							c-0.2,0.6-1.6-0.1-2.6,0.3c0.2-0.1,0.3-0.3,0.2-0.3c-1.4,0.1-2.8,0.4-5,0.8l0.2-0.2c-0.8,0-2.2,0.2-3.1,0.2
							c-0.3,0.2-0.8,0.2-0.4,0.3c-2.8-0.6-5.2,0.9-7.7,0.4c0.3,0,0.7-0.2,0.5-0.1l-2.1,0.2c0.2,0.2,0.3,0.1,0.7,0.3
							c-0.3,0.1-0.8,0.3-1.4,0.3c0.9-0.2,0-0.4-0.4-0.5c0.1,0.1-0.1,0.2,0,0.2c-1.1-0.4-0.2,0.5-1.7,0.3l0.1-0.1
							c-0.6,0.1-1.1,0.3-1.7,0.3c-0.3-0.3,0.6-0.2,0.6-0.4c-0.8,0.1-1.6,0.6-2.4,0.4c0.4-0.1,0.9-0.1,1.2-0.2
							c-0.8-0.3-0.9-0.2-1.6-0.2l0.1,0c-0.5,0-1-0.1-1.4-0.1l0.4,0.1c-1,0.7-2.1,0.1-3.6,0.6c1.4-0.4,0.2-0.3,0.3-0.6
							c-0.4-0.1-0.9-0.2-0.8-0.3c-0.7,0.2-1.1-0.2-2.1,0.2c0-0.1-0.7,0-0.6-0.3c-0.9,0.1,0.2,0.2,0.1,0.3c-1.4,0.4-3.2-0.4-5.1-0.1
							c-1.7,0.1-2,0.4-3.6,0.5c-0.5-0.2,0.4-0.3,0.4-0.3c-0.8-0.2-1.5-0.2-2.3-0.1c0.2-0.1,0-0.2-0.2-0.3c-0.6,0-0.4,0.3-1.3,0.1
							c0.2-0.1,0.3-0.3,0.7-0.3c-0.8,0-1.5,0.1-2.3,0.1c-0.2-0.2,0.5-0.2,0.8-0.3c-0.9,0-2.3-0.1-2.6,0.2l0.6,0.1
							c-0.3,0-0.1-0.2,0.1-0.3c0.8-0.1,1.1,0.2,1.1,0.3l-0.6,0c0.5,0.6,2.2,0.1,3.3,0.3l-0.5,0.4c0.4-0.1,0.8-0.2,1.2-0.3
							c0.2,0.1,0.4,0.4-0.2,0.4c0.8,0.2,0.7-0.1,1.4,0.1c0.1,0,0,0.1,0,0.1l0.8-0.1c-0.2,0.1,0.1,0.3-0.4,0.2
							c1.4,0.3,2.3-0.2,2.8,0.1l-0.1,0c2-0.1,0.2-0.3,1.7-0.6l1,0.8l0.2-0.3c0.2,0,0.6,0.1,0.5,0.2c0.8-0.2-0.1-0.1,0.3-0.3
							c1,0.3,2.7-0.1,2.9,0.4c0.3-0.2-0.9-0.2,0.1-0.3c0.3,0.5,1.2-0.1,2.1,0.1c-0.3,0.3-1.1,0.1-0.2,0.4c0.5-0.5,1.7,0.1,2.5,0
							c0-0.4,1.6-0.1,2.9-0.3c-0.1,0.1,2.4,0.1,3.5,0.2l0,0.1c0.2-0.4,1.4-0.4,2.3-0.5c0,0.2-0.2,0.3-0.6,0.4l0.8,0
							c0.2-0.1,0.4-0.2,1-0.3l-0.2,0.3c1.1-0.1,2.2-0.4,3.6-0.4c0.1-0.3-1.2-0.6,0.3-0.9c0.1,0.1,0.1,0.4-0.2,0.5
							c0.1,0,0.4-0.2,0.7-0.1l-0.6,0.3c0.6,0.1,0.3-0.2,0.8-0.2c0,0.2,0.4,0.1,0.3,0.3c-0.1,0-0.5,0-0.6,0c0.6,0,1.3,0.1,1.5,0.2
							c-0.1-0.1,0-0.3,0.4-0.3c1.1-0.1,0.4,0.2,1,0.3c0.3-0.2,1-0.1,1-0.4c0.3,0,0.4,0.1,0.5,0.2c0.6-0.2,2.6-0.3,2-0.5l-0.1,0
							c0,0,0.1,0,0.1,0l0,0l0,0c1.8-0.5,3.9-0.2,5.7-0.6l0,0.1c1.1-0.2,2.4-0.3,3.2-0.6c0.3,0,0.8,0.1,0.7,0.2
							c0.8-0.2,0.9-0.3,2.1-0.3c-0.8,0.3,0.3,0.1-0.8,0.2c1.1-0.1,1.4,0.1,2.5-0.3c-0.4,0.3,0.9,0.2,1.4,0.1l-0.8-0.1
							c0.6-0.1,1.1-0.2,1.6-0.2l-0.2,0.4c2.3,0.1,3.9-1.2,5.7-0.8c0.6-0.3-1.2,0-0.7-0.3c1-0.1,2.2,0.2,2.5,0.2
							c1.4,0,1.2-0.7,2.7-0.8c-0.2-0.1-0.4-0.4,0.7-0.6c1-0.1,1.3,0.3,0.7,0.5c-0.2,0-0.4,0-0.4,0c-0.3,0.1-0.7,0.2-0.3,0.3l0.1-0.1
							c0.5,0.1,1.9-0.2,1.6,0.1c0.8-0.2,0.3-0.2-0.3-0.2c1.3,0,2-0.3,3.4-0.4c-0.2,0-0.4-0.1-0.2-0.2c2-0.2,0.8-0.4,2.2-0.6
							c0.8,0.1-0.2,0.5,1.1,0.1c0.8,0,0.2,0.3-0.1,0.4c1.2-0.4,2.3-0.2,3-0.3l-0.6,0.2c0.4-0.1,0.7-0.2,1-0.2l-0.4-0.2
							c0.4,0,0.7-0.1,0.7,0c0.4-0.2-0.4-0.3,0.4-0.7c0.5,0,1.5-0.4,1.7-0.1c-1.6,0.1,0.2,0.3-1.1,0.5c0.3-0.1,0.6-0.1,1-0.1
							c0.1,0,0,0.1-0.1,0.1c1.6,0,0.6-0.5,2.2-0.7c-0.2,0.2,0.4,0.3,0.7,0.2c-0.6,0.1-0.3-0.2,0.2-0.5c1,0,1.1-0.3,1.6-0.3l-0.6,0
							c0.2-0.2,0.7-0.3,1.4-0.4c0.1,0.1-0.6,0.2-0.4,0.2c0.7-0.4,1.8,0.1,2.9-0.3c0.5,0,0.1,0.3,0.6,0.3c1.2-0.4,1.4,0,2.6-0.3
							c-0.4-0.2-0.5-0.1,0.4-0.5l-2.1,0.5l1.3-0.5c-0.6,0.1-1.3,0.4-1.7,0.4c0.6-0.3,0.6-0.2,0.2-0.4c0.9,0.2,1.7-0.5,2.7-0.4
							l0.1,0.6c1.6,0,2.7-0.7,4.6-0.8l-0.6,0c0.2-0.3,1.2-0.2,1.8-0.4c0,0.2,0.4,0.2,0.7,0.3c-0.1-0.1,1.4-0.2,1.6-0.6l0.9,0.1
							c1.6-0.1,1.7-0.8,3.3-1c-0.4,0.3,0.3,0.3-0.7,0.6c0.5-0.1,1-0.1,1-0.2c0.3,0.1,1.4-0.4,1.9-0.3c0.2-0.1,0.2-0.3,0.8-0.4
							c0.1,0,0,0.1,0,0.1c0-0.1,0.9-0.2,0.4-0.4c1.7,0.4,4.4-0.6,5.8-0.2c1.1-0.2,2.5-0.4,3.5-0.5c-0.1,0.1,0,0.1-0.2,0.1
							c1.4,0,0.8-0.7,2.4-0.6c0.8,0.2-0.8,0.3-0.3,0.3c0.3,0.6,1.9-0.3,3,0l-0.3,0.1c0.8,0.1,2-0.4,3.3-0.4c0,0-0.1,0.1,0,0.1
							c0.9-0.4,2.6-0.6,3.9-0.8c-0.4,0.3-0.6,0.2-0.3,0.4c0.6-0.1-0.2-0.4,1-0.6c0.4,0.1,1.2,0.2,1.4,0.4l-1.1,0.1
							c0.6,0.3,1.4-0.1,2-0.1l-0.1,0.2c1.7-0.1,1.7-0.5,3.5-0.5l-0.2-0.1c1-0.4,0.8,0.2,1.8-0.1l0.3,0.4c0.6-0.1,2.3-0.5,3.4-0.6
							c-0.7,0.3-2,0.5-2.9,0.7c0.6,0,2.2-0.1,2.5-0.3c-0.3,0-0.6,0.2-0.8,0.1c0.8-0.4,1.8-0.5,3.1-0.5c-0.2,0.8,3.3,0.2,4.3,0.8
							c2.3-0.3,4.5,0.2,7.1,0.2c-0.9-0.6,0.8,0,0.6-0.6c0.6,0,0.9,0,0.9,0.1l1.8,0.5c0.4,0.2-0.6,0.1-0.5,0.2
							c1.3,0.1,0.6,0.3,1.4,0.5c-0.2-0.2,0.5-0.3,1.2-0.2l-1.1-0.3c1.9-0.2,1.6,0.6,3.5,0.4l-0.6,0.2c1-0.1,3.6,0.2,4.6-0.2
							c0.2,0.1,0.4,0.3,0,0.3c2.3,0.2,5.2-0.1,7,0.3l-0.2,0.1c0.4,0,0.8-0.2,1.3,0c0,0.1-0.2,0.1,0,0.2c0.2,0,1.2-0.2,1.7,0
							l-0.5,0.1c2.2,0.4,3.5-0.1,5.4,0c0,0.4,1.7,0.7,2.6,0.9l0,0.1c2.6,0.3,4.5,0.1,7,0.1c1.5,0.6,5.1,0.7,7.5,1.2
							c-0.4-0.1,0.1-0.3,0.5-0.3c0.6,0.1,1.6-0.2,1.5,0.2l-0.2,0c0.4,0.4,1.6,0.4,2.5,0.5l0.2-0.5c2.3,1,6.3,0.3,7.6,1
							c0.6-0.1,1.3,0,1.9-0.1l-0.1,0.3c1.6,0.2,2.4,0.3,4.4,0.3l-0.4,0.2c1.1,0.1,1.5-0.7,2.5-0.7l0.3,0.4c2,0.1,3.9,0.6,5.9,0.3
							c0,0.1-0.1,0.2-0.4,0.2c0.9,0,3.6,0.4,3.3-0.2c0,0.4,2,0.1,3.1-0.1l-0.2,0.3c0.9-0.3,0.9-0.4,2.2-0.5c0.3,0,0.3,0.2-0.1,0.1
							c1,0.2,0.8-0.3,2-0.1l-0.4,0.2c1,0,0.9-0.1,1.5-0.3c0.6-0.1,1.9,0.1,2.1,0.3c0.1-0.2,0.7-0.4,1.3-0.3c0.1,0.1-0.1,0.2-0.2,0.2
							c1.7,0.2,2.5-0.4,3.7-0.1c0,0.1,0.1,0.1,0.2,0.2c-1.4,0-2.4,0-2.3,0c0,0.3,1.1,0.3,0.2,0.7c0.9-0.2,2.4-0.7,3.4-0.6
							c0.1,0,0.1,0,0.1,0.1l-0.1,0c0.2,0,0.5,0,0.7-0.1c0.3,0,0.6,0,0.9,0c0.1,0.2,1.3,0.1,1.8,0c-0.1-0.3,0.7-0.3,0-0.5
							c0.1,0-0.1,0-0.5,0.1c-0.1,0-0.2,0-0.2,0l0,0c-0.4,0-0.8,0-1.4,0.1c0.4-0.2,0.9-0.3,1.5-0.2c0.3-0.2,0.6-0.4,0.7-0.5
							c0.8,0.3,2.2,0.4,2.4,0.7c0.8-0.1,1.8-0.2,2.7-0.4c0.9-0.2,1.7-0.4,2.2-0.7c0.5-0.1,0.6,0.1,0.7,0.2c-0.3,0.1-0.6,0.1-0.7,0.2
							c0.9-0.2,2.8-0.3,3-0.7c1.2,0-0.6,0.4,1,0.2l-0.2,0.1c3.3,0.2,5.1-1.6,8.7-1.5c-0.3,0-0.4,0-0.4,0c4.1-0.4,8.2-1.9,12.2-2.6
							c1.1-0.2,1.2-0.5,1.8-0.8l0.3,0.2l1-0.7c1.5-0.8,3-0.1,4.9-1.4l-0.3-0.1c0.7-0.2,2.2-1,2.2-0.7c0.1-0.1,0.2-0.3,0.5-0.3
							l0.1,0.1c0.6-0.3,1.1-0.6,1.7-0.9c1.4-0.5,0,0.7,2-0.1c0.7-0.4,1.9-1.3,1.6-1.3c-0.3,0.1-0.8,0.2-0.9,0.1l0.6-0.4
							c-0.1-0.5,0.2-1.1-1.5-0.7l-1,0.7l-0.5-0.1l0.9-0.4c-0.6,0-0.9,0.3-1.2,0.6c-0.1-0.1-0.3-0.1-0.6,0l-0.9,0.9
							c-0.2-0.1,0.4-0.5-0.4-0.3c-0.5,0.4,0.7,0.2-0.2,0.6c-0.6,0-0.5-0.2-1.1,0.2c-0.1-0.1,0-0.2,0.2-0.3c-0.5,0.3-1.5,0.6-1.7,1
							c-0.7,0-1.9,0.8-2,0.3c-0.1,0.2-0.9,0.7-1.4,0.8c0.8-0.8-2,0.6-1.9,0c-0.6,0.7-2.6,0.9-3.8,1.6c0.1-0.1,0.2-0.2,0.3-0.2
							c-0.7,0.2-1,0.1-1.5,0.1c0,0.4-1.1,0.8-1.7,1.1c-1-0.2,0.4-0.6,0.1-0.9c0.1,0.3-1.5,0.7-1.1,0.9c-0.7-0.1-0.6,0-1.1-0.2
							c0,0.5-0.6,0.2-1.1,0.7c-1.1,0-0.4-0.4-1.4,0C540.1,419.8,541.1,419.4,541.1,419.4z M514.5,423.4L514.5,423.4
							c0.2,0,0.4,0,0.6,0C514.9,423.3,514.7,423.4,514.5,423.4z M512.2,423.5c0.3,0,0.6,0,1,0c0.1,0.1,0,0.2-0.2,0.2
							C513.1,423.6,512.5,423.5,512.2,423.5z M517.1,425.2c-0.4,0.1-0.5,0-0.5,0c0.2,0,0.4,0,0.6-0.1c0,0,0,0,0,0
							C517.2,425.1,517.2,425.2,517.1,425.2z"/>
						<path class="st1" d="M517.7,424.8c0.1,0,0.1,0,0.1,0C517.8,424.8,517.7,424.8,517.7,424.8c-0.1,0-0.2,0-0.2,0
							C517.6,424.8,517.7,424.8,517.7,424.8z"/>
						<path class="st1" d="M311.8,430.9L311.8,430.9C311.8,430.9,311.8,430.9,311.8,430.9C311.8,430.9,311.8,430.9,311.8,430.9z"/>
						<polygon class="st1" points="480.8,421.9 480.8,422 481,422 						"/>
						<path class="st1" d="M299.2,430.8c0,0-0.1,0-0.2-0.1C299.1,430.8,299.1,430.8,299.2,430.8z"/>
						<path class="st1" d="M293.8,431c-0.3,0-0.5-0.1-0.8-0.1C293.4,431,293.6,431,293.8,431z"/>
						<path class="st1" d="M289.7,430.9c-0.1,0-0.1,0.1-0.1,0.1l0,0L289.7,430.9z"/>
						<path class="st1" d="M355.4,423.4c0.1,0,0.1,0,0.2,0C355.9,423.3,355.7,423.3,355.4,423.4z"/>
						<path class="st1" d="M336,427c0.2-0.1,0.4-0.2,0.6-0.2C336.3,426.8,336,426.9,336,427z"/>
						<path class="st1" d="M377.2,420L377.2,420c0,0,0.1,0,0.1,0L377.2,420z"/>
						<path class="st1" d="M337.5,426.7c-0.4,0-0.6,0-0.9,0.1C336.9,426.8,337.2,426.8,337.5,426.7z"/>
						<path class="st1" d="M271.7,430.1l-0.2,0c0,0,0,0,0,0L271.7,430.1z"/>
						<path class="st1" d="M271.4,430.1l-0.2,0C271.3,430.1,271.4,430.1,271.4,430.1z"/>
						<path class="st1" d="M270.8,430.1l0.5,0C271.1,430.1,270.9,430,270.8,430.1z"/>
						<path class="st1" d="M277.1,430.6L277.1,430.6C277.2,430.5,277.2,430.6,277.1,430.6z"/>
						<path class="st1" d="M278.8,430.7c-0.4,0-1-0.3-1.5-0.2l-0.1,0.1C277.5,430.4,278.4,430.8,278.8,430.7z"/>
						<path class="st1" d="M285.8,432.1c-0.5,0-0.9,0-1.4-0.1c0.2,0.1,0.6,0.3-0.1,0.3C286.1,432.7,283.9,432.1,285.8,432.1z"/>
						<path class="st1" d="M290.2,432.3c-0.8,0.1,0,0.2,0,0.2C290.6,432.4,290.7,432.4,290.2,432.3z"/>
						<path class="st1" d="M321.7,430l0,0.3C322.2,430.2,321.6,430.2,321.7,430z"/>
						<polygon class="st1" points="327.5,428 326.9,427.9 326.7,428.1 						"/>
						<polygon class="st1" points="331.2,429.3 331,429.4 332,429.1 						"/>
						<path class="st1" d="M383.6,421.7l-0.2-0.3C383,421.5,383,421.8,383.6,421.7z"/>
						<path class="st1" d="M406.3,419.5c0.3,0.1,0.9,0.2,1.3,0.1C407.1,419.6,406.6,419.5,406.3,419.5z"/>
						<polygon class="st1" points="474.6,424 474.1,424 475,424 						"/>
					</g>
				</g>
			</g>
		</g>
	</g>
</g>
</svg>
