<?xml version="1.0" encoding="utf-8"?>
<!-- Generator: Adobe Illustrator 22.0.1, SVG Export Plug-In . SVG Version: 6.00 Build 0)  -->
<svg version="1.1" id="圖層_1" xmlns="http://www.w3.org/2000/svg" xmlns:xlink="http://www.w3.org/1999/xlink" x="0px" y="0px"
	 viewBox="0 0 108 107.9" style="enable-background:new 0 0 108 107.9;" xml:space="preserve">
<style type="text/css">
	.st0{fill:#C66F6B;}
	.st1{fill:#843025;}
	.st2{fill:#963731;}
	.st3{fill:#661410;}
	.st4{fill:#F9ED32;}
	.st5{fill:#FFFFFF;}
	.st6{fill:#E5EBEB;}
	.st7{fill:#91AFB0;}
	.st8{fill:#F15A29;}
	.st9{fill:#F7941E;}
	.st10{fill:#EFACAC;}
</style>
<g>
	<g>
		<g>
			<path class="st0" d="M79,17.5c-0.3,0-0.5,0.5-0.5,0.5c1,0.6,1.9,1.3,2.9,1.9l0.4-0.4C81.9,19.5,79.9,17.4,79,17.5z"/>
			<path class="st0" d="M88.2,12.4L86,10.4c-0.3-0.3-0.8-0.2-1,0.1L83.6,12c-0.3,0.3-0.2,0.7,0.1,1l2.2,2L88.2,12.4z"/>
			<path class="st0" d="M85,16l-2.1-2c-0.3-0.3-0.8-0.2-1,0.1l-1.4,1.6c-0.2,0.3-0.2,0.7,0.1,0.9l2.1,1.9L85,16z"/>
			<path class="st0" d="M98.5,1c-0.9-0.5-1.7-0.9-2.3-1c-2-0.3-4.6,2.5-5.4,3.5l0,0l-1,1.2c-0.3,0.4-0.3,0.9,0.1,1.2L92.2,8L98.5,1z
				"/>
			<path class="st0" d="M91.4,8.9L89,6.8c-0.3-0.3-0.8-0.2-1,0.1l-1.3,1.6c-0.3,0.3-0.2,0.7,0.1,1l2.3,2.1L91.4,8.9z"/>
			<polygon class="st1" points="85.9,15.1 83.7,13.1 82.9,14 85,16 			"/>
			<polygon class="st1" points="89,11.5 86.7,9.4 85.9,10.4 88.2,12.4 			"/>
			<polygon class="st1" points="92.2,8 89.8,5.8 89,6.7 91.4,8.9 			"/>
			<polygon class="st1" points="82.7,18.6 80.6,16.7 79.8,17.6 81.9,19.5 			"/>
			<path class="st2" d="M89,11.5l1.5,1.4c0.3,0.2,0.7,0.2,0.9-0.1l1-1.2c0.1-0.2,0.3-0.3,0.4-0.5c0.3-0.3,0.3-0.7,0-0.9l-1.5-1.4
				L89,11.5z"/>
			<path class="st2" d="M81.5,19.9c0.8,0.5,1.5,1,2.3,1.4l-2-1.8L81.5,19.9z"/>
			<path class="st2" d="M103.7,6.8c-0.3-1-1-2-1.7-2.9c-1-1.2-2.2-2.2-3.4-2.9l-6.3,7l1.9,1.7c0.3,0.2,0.6,0.3,1,0.2
				c0.7-0.2,1.5-0.4,2.3-0.3c1.6,0.1,3.5,0.3,4.9-0.1C103.5,9.2,104.3,8.4,103.7,6.8z"/>
			<path class="st2" d="M85.9,15.1l1.6,1.5c0.3,0.2,0.7,0.2,0.9-0.1l1.5-1.7c0.2-0.3,0.2-0.7-0.1-0.9l-1.6-1.4L85.9,15.1z"/>
			<path class="st2" d="M82.7,18.6l1.7,1.6c0.3,0.2,0.7,0.2,0.9-0.1l0.5-0.5l0,0l1-1.1c0.2-0.3,0.2-0.6-0.1-0.9L85,16L82.7,18.6z"/>
			<path class="st3" d="M81.9,19.5l2,1.8c0.1,0.1,0.8-0.9,0.8-0.9l-1.9-1.8L81.9,19.5z"/>
			<path class="st3" d="M91.4,8.9l1.7,1.5c0.3-0.3,0.7-0.5,1.1-0.6l-2-1.8L91.4,8.9z"/>
			<polygon class="st3" points="88.2,12.4 89.9,14 90.7,13 89,11.5 			"/>
			<polygon class="st3" points="85,16 86.8,17.6 87.6,16.7 85.9,15.1 			"/>
			<path class="st3" d="M91.4,8.9l1.6,1.4c0.3-0.3,0.7-0.5,1.1-0.6L92.2,8L91.4,8.9z"/>
			<polygon class="st3" points="88.2,12.4 89.8,13.9 90.6,12.9 89,11.5 			"/>
			<polygon class="st3" points="83.7,21.1 84.4,20.2 82.7,18.6 			"/>
			<polygon class="st3" points="85,16 86.7,17.5 87.5,16.6 85.9,15.1 			"/>
		</g>
		<g>
			<g>
				<polygon class="st4" points="84.8,18.7 84.8,18.7 84.8,18.7 				"/>
				<path class="st4" d="M98.5,1c0.8,0.9,2.4,4.8,2.8,7.7c0.3,1.9,0.3,3.8-0.1,5.6c-1,4.7-5.1,8-9.9,8.3c-3,0.2-5.7-0.7-8.2-2l0,0
					c-0.9-0.5-1.8-1-2.7-1.6c-1-0.6-1.9-1.3-2.9-1.9c0,0,0,0-0.1,0c-0.3-0.2-0.7-0.4-1-0.7c-4.6-2.9-8.5-5-14-5.8
					c5.2,2.2,8.6,5.1,13,8.6c0.4,0.3,0.8,0.7,1.2,1c0.2,0.2,0.5,0.4,0.7,0.6c0.1,0.1,0.3,0.2,0.4,0.3c0.1,0.1,0.3,0.2,0.4,0.3
					c0.8,0.6,1.7,1.3,2.5,1.9c4.5,3.1,9.6,5.4,15.3,3.7c5.4-1.6,9.5-6.4,9.9-12C106.3,11.2,104.8,4.6,98.5,1z"/>
			</g>
			<path class="st5" d="M79.3,22.4c-0.1-0.1-0.3-0.2-0.4-0.3c-0.1-0.1-0.3-0.2-0.4-0.3L6.3,102.1l71.4-80.9c-0.4-0.3-0.8-0.7-1.2-1
				L0,105.2c2.4,1.4,4.6,2.1,5.7,2.4c4.6,1.2,7.3-1.1,16.4-11.9l60.3-71.3C81.5,23.8,80.1,23,79.3,22.4z"/>
			<path class="st6" d="M78.9,22.1c-0.1-0.1-0.3-0.2-0.4-0.3L6.3,102.1l71.4-80.9c-0.4-0.3-0.8-0.7-1.2-1L0,105.2
				c1.4,0.5,2.5,0.9,3.5,1.3l75.7-84.1C79.1,22.3,79,22.2,78.9,22.1z"/>
			<path class="st7" d="M3.5,106.5c5,1.9,6.9,2.1,16-8.7l62.3-73.6c-0.9-0.6-1.7-1.2-2.5-1.9L3.5,106.5z"/>
			<path class="st5" d="M6.3,102.1l72.1-80.4c-0.2-0.2-0.5-0.4-0.7-0.6L6.3,102.1z"/>
			<g>
				<polygon class="st8" points="86.8,20.4 86.7,20.4 86.8,20.4 				"/>
				<path class="st8" d="M99.7,2c0.8,0.9,3.3,5.6,3.6,8.5c0.3,1.9,0.3,3.8-0.1,5.6c-1,4.7-5.1,8-9.9,8.3c-3,0.2-5.7-0.7-8.2-2l0,0
					c-0.9-0.5-1.8-1-2.7-1.6c-1-0.6-1.9-1.3-2.9-1.9c0,0,0,0-0.1,0c-0.3-0.2-0.7-0.4-1-0.7c-4.6-2.9-10.4-6.8-15.9-7.5
					c5.2,2.2,10.5,6.8,14.9,10.4c0.4,0.3,0.8,0.7,1.2,1c0.2,0.2,0.5,0.4,0.7,0.6c0.1,0.1,0.3,0.2,0.4,0.3c0.1,0.1,0.3,0.2,0.4,0.3
					c0.8,0.6,1.7,1.3,2.5,1.9c4.5,3.1,9.6,5.4,15.3,3.7c5.4-1.6,9.5-6.4,9.9-12C108.2,13,105.9,5.6,99.7,2z"/>
			</g>
			<g>
				<polygon class="st9" points="85.8,19.5 85.8,19.6 85.8,19.5 				"/>
				<path class="st9" d="M98.5,1c0.8,0.9,3.4,5.7,3.7,8.5c0.3,1.9,0.3,3.8-0.1,5.6c-1,4.7-5.1,8-9.9,8.3c-3,0.2-5.7-0.7-8.2-2
					c0,0,0,0,0,0c-0.9-0.5-1.8-1-2.7-1.6c-1-0.6-1.9-1.3-2.9-1.9c0,0,0,0-0.1,0c-0.3-0.2-0.7-0.4-1-0.7c-4.6-2.9-9.5-5.9-14.9-6.6
					c5.2,2.2,9.6,6,14,9.5c0.4,0.3,0.8,0.7,1.2,1c0.2,0.2,0.5,0.4,0.7,0.6c0.1,0.1,0.3,0.2,0.4,0.3c0.1,0.1,0.3,0.2,0.4,0.3
					c0.8,0.6,1.7,1.3,2.5,1.9c4.5,3.1,9.6,5.4,15.3,3.7c5.4-1.6,9.5-6.4,9.9-12C107.2,12.1,104.8,4.6,98.5,1z"/>
			</g>
		</g>
		<path class="st10" d="M97.6,1c0,0-0.2-0.8-2.2-0.4c-2,0.4-4.2,3.5-4.2,3.5s2.3-1,3.2-1.2c0.9-0.2,1.6-0.6,2.1-0.9
			C96.7,1.9,97.6,1,97.6,1z"/>
	</g>
</g>
</svg>
