<?xml version="1.0" encoding="utf-8"?>
<!-- Generator: Adobe Illustrator 22.0.1, SVG Export Plug-In . SVG Version: 6.00 Build 0)  -->
<svg version="1.1" id="圖層_1" xmlns="http://www.w3.org/2000/svg" xmlns:xlink="http://www.w3.org/1999/xlink" x="0px" y="0px"
	 viewBox="0 0 108 107.9" style="enable-background:new 0 0 108 107.9;" xml:space="preserve">
<style type="text/css">
	.st0{fill:#F1FDFD;}
	.st1{fill:#DDF2F1;}
	.st2{fill:#B7D7D5;}
	.st3{fill:#90B0B0;}
	.st4{fill:#B74100;}
	.st5{fill:#DB620F;}
	.st6{fill:#F7941E;}
	.st7{fill:#FBB040;}
</style>
<g>
	<g>
		<g>
			<path class="st0" d="M81.5,44.4c-5.2-6.6-11.2-12.7-17.9-17.9c-1.6-1.2-2.4-3.1-1.9-4.4c0.2-0.4,0.3-0.8,0.5-1.2
				c0.5-1.3,2.4-1.3,4.1,0c7.7,6,14.8,13.1,20.8,20.8c1.3,1.7,1.3,3.6,0,4.1c-0.4,0.2-0.8,0.3-1.2,0.5C84.6,46.8,82.7,46,81.5,44.4z
				"/>
			<path class="st0" d="M105.9,15.5C101,11.5,96.4,7,92.5,2c-1.2-1.5-3.1-2.3-4.3-1.9c0,0,0,0,0,0c-1.3,0.5-1.2,2.5,0.1,4.2
				c4.5,5.6,9.7,10.9,15.3,15.4c1.7,1.4,3.6,1.4,4.2,0.1c0,0,0,0,0,0C108.2,18.6,107.4,16.7,105.9,15.5z"/>
			<g>
				<polygon class="st1" points="77.5,41.5 80.2,38.4 69.3,27.4 67.3,29.2 63.2,44.8 				"/>
				<polygon class="st0" points="67.3,29.2 1.7,88.3 0,107.9 0.4,107.9 63.2,44.8 				"/>
				<polygon class="st2" points="77.5,41.5 63.2,44.8 0.4,107.9 19.6,106.2 				"/>
				<polygon class="st3" points="64.5,47 70.5,45.6 18.4,103.8 6.8,104.8 				"/>
			</g>
		</g>
		<g>
			<path class="st4" d="M77.4,30.8c1.1,1.1,2.2,2.3,3.3,3.5C87.3,28.6,93,22,98.2,15.1c-0.9-0.8-1.8-1.7-2.6-2.5L77.4,30.8z"/>
			<path class="st5" d="M77.4,30.8l18.2-18.2c-0.9-0.9-1.8-1.9-2.7-2.8c-6.9,5.2-13.5,11-19.1,17.6C75,28.4,76.2,29.6,77.4,30.8z"/>
			<path class="st6" d="M87.1,41.7c-2-2.6-4.1-5.1-6.3-7.5c-1.1-1.2-2.2-2.3-3.3-3.5L73.2,35c3,3,5.7,6.1,8.3,9.4
				c1.2,1.6,3.1,2.4,4.4,1.9l1.2-0.5C88.4,45.3,88.4,43.4,87.1,41.7z"/>
			<path class="st6" d="M105.9,15.5c-2.4-1.9-4.8-4-7-6.3l-3.3,3.3c0.9,0.9,1.7,1.7,2.6,2.5c1.7,1.6,3.5,3.2,5.4,4.6
				c1.7,1.4,3.6,1.4,4.2,0.1c0,0,0,0,0,0C108.2,18.6,107.4,16.7,105.9,15.5z"/>
			<g>
				<path class="st7" d="M66.3,20.9c-1.7-1.3-3.5-1.3-4.1,0l-0.5,1.2c-0.5,1.2,0.3,3.1,1.9,4.4c3.3,2.6,6.5,5.5,9.6,8.5l4.2-4.2
					c-1.2-1.2-2.4-2.4-3.7-3.5C71.4,25,68.9,22.9,66.3,20.9z"/>
				<path class="st7" d="M92.5,2c-1.2-1.5-3.1-2.3-4.3-1.9l0,0c-1.3,0.5-1.2,2.5,0.1,4.2c1.5,1.8,3,3.6,4.6,5.4
					c0.9,1,1.8,1.9,2.7,2.8l3.3-3.3C96.6,6.9,94.5,4.5,92.5,2z"/>
			</g>
		</g>
	</g>
</g>
</svg>
