<?xml version="1.0" encoding="utf-8"?>
<!-- Generator: Adobe Illustrator 22.0.1, SVG Export Plug-In . SVG Version: 6.00 Build 0)  -->
<svg version="1.1" id="圖層_1" xmlns="http://www.w3.org/2000/svg" xmlns:xlink="http://www.w3.org/1999/xlink" x="0px" y="0px"
	 viewBox="0 0 104.1 96.3" style="enable-background:new 0 0 104.1 96.3;" xml:space="preserve">
<style type="text/css">
	.st0{fill:#32313F;}
	.st1{fill:#565668;}
	.st2{fill:#272733;}
	.st3{fill:#8A5E3C;}
	.st4{fill:#F0E6D0;}
	.st5{fill:#C1B49A;}
	.st6{fill:#594A42;}
	.st7{opacity:0.5;fill:#8A5E3C;}
	.st8{opacity:0.5;fill:#FFFFFF;}
</style>
<g>
	<g>
		<path class="st0" d="M47.3,30.2c-3.1-1.5-6.9-0.3-8.4,2.8l-10,20.1l10.7,5.3l5.6-11.2c38.2,7.7,59.1,34.3,59.1,34.3
			C104.6,50.3,47.3,30.2,47.3,30.2z"/>
		<path class="st1" d="M104.3,81.5C90,53.5,48.2,41.2,48.2,41.2l-3,6C83.4,54.9,104.3,81.5,104.3,81.5z"/>
		
			<rect x="31.2" y="44.8" transform="matrix(0.445 -0.8955 0.8955 0.445 -25.1146 61.1063)" class="st2" width="11.1" height="11.9"/>
		<path class="st3" d="M39.5,54.4l-7.2-3.6c-1-0.5-2.1-0.1-2.6,0.9L12,87.2c-1.4,2.8-0.3,6.3,2.6,7.7l0.4,0.2
			c2.8,1.4,6.3,0.3,7.7-2.6L40.3,57C40.8,56,40.4,54.9,39.5,54.4z"/>
		<path class="st4" d="M39.5,54.4l-7.2-3.6c-1-0.5-2.1-0.1-2.6,0.9l-8,16.1L32.4,73l8-16.1C40.8,56,40.4,54.9,39.5,54.4z"/>
		<g>
			<path class="st5" d="M39.4,58.8l0.5-1c-3.1-2-5.8-4.7-7.8-7.1c-0.5-0.2-1.1-0.2-1.5,0C32.7,53.3,35.8,56.5,39.4,58.8z"/>
			<path class="st5" d="M37.1,63.5c-5.1-2.7-8.1-5.2-9.8-7.1l-0.6,1.1c1.9,2,4.9,4.4,9.9,7L37.1,63.5z"/>
			<path class="st5" d="M28,54.9l-0.5,1c4,2.3,8.2,3.5,11.3,4.1l0.5-1.1C36.4,58.4,32,57.2,28,54.9z"/>
			<path class="st5" d="M33.1,71.6c-4.3-2.2-7.5-5.2-9.6-7.6l-0.6,1.2c2.1,2.4,5.3,5.3,9.6,7.5L33.1,71.6z"/>
			<path class="st5" d="M35.7,66.3l0.6-1.2c-0.7,0-1.5,0.1-2.5,0c-2.2-0.2-5.5-0.9-9.4-2.9l-0.5,1C28.9,65.8,33,66.4,35.7,66.3z"/>
		</g>
		<path class="st6" d="M26.1,76.7c-0.4,0.9-1.5,1.2-2.4,0.8c-0.9-0.4-1.2-1.5-0.8-2.4c0.4-0.9,1.5-1.2,2.4-0.8
			C26.2,74.7,26.6,75.8,26.1,76.7z"/>
		<path class="st6" d="M20.3,88.5c-0.4,0.9-1.5,1.2-2.4,0.8c-0.9-0.4-1.2-1.5-0.8-2.4c0.4-0.9,1.5-1.2,2.4-0.8
			C20.3,86.5,20.7,87.6,20.3,88.5z"/>
		<path class="st7" d="M39.5,54.4l-0.6-0.3L21.6,88.9c-1.4,2.8-4.9,4-7.7,2.6l-0.4-0.2c-0.8-0.4-1.5-1-2.1-1.7
			c-0.1,2.2,1.1,4.4,3.2,5.4l0.4,0.2c2.8,1.4,6.3,0.3,7.7-2.6L40.3,57C40.8,56,40.4,54.9,39.5,54.4z"/>
		<path class="st8" d="M31.4,54.4c0.1-0.3,0-0.6-0.3-0.7l-0.5-0.3c-0.3-0.1-0.6,0-0.7,0.2L14.6,84.5c-1.2,2.4-0.5,2.6,0.5,2.7
			C16,87.3,29.5,58.5,31.4,54.4z"/>
		<path class="st8" d="M51.7,34.2c0,0-8.5-6.1-12,1.1c-2.1,4.3-2.1,4.3-2.1,4.3S41.8,30.3,51.7,34.2z"/>
	</g>
	<g>
		<path class="st0" d="M24.6,0.8c-3.3-0.9-6.8,1-7.7,4.3l-6.1,21.6l11.5,3.2l3.4-12.1c39,0.5,64.4,22.7,64.4,22.7
			C84.6,9.8,24.6,0.8,24.6,0.8z"/>
		<path class="st1" d="M90.1,40.6C70.8,15.7,27.5,11.4,27.5,11.4l-1.8,6.5C64.6,18.3,90.1,40.6,90.1,40.6z"/>
		
			<rect x="12.5" y="17" transform="matrix(0.2703 -0.9628 0.9628 0.2703 -8.9561 34.1222)" class="st2" width="11.1" height="11.9"/>
		<path class="st3" d="M21.4,26l-7.8-2.2c-1-0.3-2.1,0.3-2.4,1.3L0.5,63.4c-0.9,3.1,0.9,6.2,4,7.1l0.4,0.1c3.1,0.9,6.2-0.9,7.1-4
			l10.7-38.2C23,27.3,22.4,26.2,21.4,26z"/>
		<path class="st4" d="M21.4,26l-7.8-2.2c-1-0.3-2.1,0.3-2.4,1.3L6.4,42.4l11.5,3.2l4.8-17.3C23,27.3,22.4,26.2,21.4,26z"/>
		<g>
			<path class="st5" d="M22.2,30.3l0.3-1.1c-3.4-1.4-6.6-3.6-9-5.5c-0.5-0.1-1.1,0-1.5,0.3C14.5,26.2,18.2,28.8,22.2,30.3z"/>
			<path class="st5" d="M20.7,35.4c-5.5-1.7-8.9-3.6-11-5.1l-0.3,1.2c2.2,1.6,5.6,3.4,11,5L20.7,35.4z"/>
			<path class="st5" d="M10.3,28.6l-0.3,1.1c4.3,1.5,8.7,1.9,11.9,1.9l0.3-1.2C19.1,30.5,14.6,30.1,10.3,28.6z"/>
			<path class="st5" d="M18.3,44.1c-4.7-1.4-8.3-3.7-10.8-5.7l-0.4,1.3c2.5,2,6.2,4.2,10.8,5.6L18.3,44.1z"/>
			<path class="st5" d="M19.9,38.4l0.4-1.3c-0.7,0.2-1.5,0.3-2.4,0.4c-2.2,0.2-5.5,0.2-9.8-1.1l-0.3,1.1
				C13.2,39.2,17.2,39,19.9,38.4z"/>
		</g>
		<path class="st6" d="M12.4,50.4c-0.3,1-1.3,1.5-2.2,1.2c-1-0.3-1.5-1.3-1.2-2.2c0.3-1,1.3-1.5,2.2-1.2
			C12.1,48.4,12.7,49.4,12.4,50.4z"/>
		<path class="st6" d="M8.9,63.1c-0.3,1-1.3,1.5-2.2,1.2c-1-0.3-1.5-1.3-1.2-2.2c0.3-1,1.3-1.5,2.2-1.2C8.6,61.1,9.1,62.1,8.9,63.1z
			"/>
		<path class="st7" d="M21.4,26l-0.7-0.2L10.2,63.2c-0.9,3.1-4,4.8-7.1,4L2.7,67c-0.9-0.3-1.7-0.7-2.3-1.3c0.3,2.2,1.9,4.1,4.1,4.7
			l0.4,0.1c3.1,0.9,6.2-0.9,7.1-4l10.7-38.2C23,27.3,22.4,26.2,21.4,26z"/>
		<path class="st8" d="M13.5,27.4c0.1-0.3-0.1-0.6-0.4-0.7l-0.6-0.2c-0.3-0.1-0.6,0.1-0.7,0.4L2.6,60.1c-0.7,2.6,0,2.7,1,2.6
			C4.5,62.6,12.4,31.8,13.5,27.4z"/>
		<path class="st8" d="M29.6,3.8c0,0-9.5-4.4-11.6,3.3c-1.3,4.6-1.3,4.6-1.3,4.6S19.2,1.8,29.6,3.8z"/>
	</g>
</g>
</svg>
