<?xml version="1.0" encoding="utf-8"?>
<!-- Generator: Adobe Illustrator 22.0.1, SVG Export Plug-In . SVG Version: 6.00 Build 0)  -->
<svg version="1.1" id="圖層_1" xmlns="http://www.w3.org/2000/svg" xmlns:xlink="http://www.w3.org/1999/xlink" x="0px" y="0px"
	 viewBox="0 0 108 107.9" style="enable-background:new 0 0 108 107.9;" xml:space="preserve">
<style type="text/css">
	.st0{fill:#FFFFFF;}
	.st1{fill:#EAF5F4;}
	.st2{fill:#899496;}
	.st3{fill:#FBB040;}
	.st4{fill:#F7941E;}
	.st5{fill:#4B2D39;}
	.st6{fill:#5E4551;}
	.st7{fill:#681410;}
	.st8{fill:#963832;}
</style>
<g>
	<g>
		<g>
			<path class="st0" d="M79.8,18.5c0,0-58,47.9-61.8,67l-0.1,0.3c-3.2,8.8-9.8,17-17.7,22L0,107.9l17.9-2.6
				c11.2-2.3,23.5-12.8,29.4-24.9l0.2-0.4c5.2-10.8,11.6-21.3,18.9-31.2l20.1-23.6L79.8,18.5z"/>
			<path class="st1" d="M79.8,18.5c0,0-58,47.9-61.8,67l-0.1,0.3c-3.2,8.8-9.8,17-17.7,22L0,107.9l18-3.7
				c11.2-2.3,22.4-11.8,28.3-24l0.2-0.4c5.2-10.8,11.6-21.3,18.9-31.2l21.1-23.5L79.8,18.5z"/>
			<path class="st0" d="M84,22.7c-6,4.7-11.9,9.5-17.7,14.5c-5.8,4.9-11.5,10-17.1,15.2c-5.6,5.2-11,10.6-16.2,16.3
				c-2.6,2.9-5,5.8-7.3,9c-1.1,1.6-2.2,3.2-3.1,4.9c-0.9,1.7-1.7,3.5-2.1,5.4l0,0l0,0c-0.4,1-0.8,2-1.2,3c-0.4,1-0.9,1.9-1.4,2.9
				c-0.2,0.5-0.5,0.9-0.8,1.4c-0.3,0.5-0.6,0.9-0.9,1.3c-0.6,0.9-1.2,1.7-1.9,2.5c-0.7,0.8-1.4,1.6-2.2,2.3c-0.8,0.7-1.5,1.4-2.3,2
				c-1.6,1.3-3.3,2.5-5.1,3.5c1.7-1.1,3.4-2.3,5-3.6c0.8-0.7,1.6-1.4,2.3-2.1c0.7-0.7,1.4-1.5,2.1-2.3c0.7-0.8,1.3-1.7,1.8-2.5
				c0.3-0.4,0.6-0.9,0.8-1.3c0.3-0.5,0.5-0.9,0.8-1.4c0.5-0.9,0.9-1.9,1.3-2.9c0.4-1,0.8-2,1.1-3l0,0c0.4-2,1.2-3.8,2.1-5.5
				c0.9-1.7,2-3.4,3-5c2.2-3.2,4.6-6.2,7.2-9.2c5-5.9,10.4-11.3,16-16.7c5.5-5.3,11.2-10.5,16.9-15.6c5.7-5.1,11.6-10,17.5-14.9
				L84,22.7z"/>
			<path class="st2" d="M82.5,21.3c-5.9,4.8-11.6,9.8-17.3,14.9c-5.7,5.1-11.3,10.3-16.7,15.6c-2.7,2.7-5.4,5.4-8.1,8.2
				c-1.3,1.4-2.6,2.8-3.9,4.2c-1.3,1.4-2.6,2.8-3.8,4.3c-1.3,1.4-2.5,2.9-3.7,4.5c-1.2,1.5-2.3,3.1-3.4,4.6c-1.1,1.6-2.1,3.2-3,4.9
				c-0.9,1.7-1.6,3.5-2.1,5.4l0,0l0,0c-0.4,1-0.8,2-1.2,3c-0.2,0.5-0.4,1-0.7,1.4l-0.7,1.4c-0.2,0.5-0.5,0.9-0.8,1.4l-0.8,1.3
				c-0.3,0.5-0.6,0.8-0.9,1.3l-1,1.3l-1.1,1.1c-0.4,0.4-0.7,0.8-1.1,1.1l-1.2,1c-0.4,0.3-0.8,0.7-1.2,1l-1.2,0.9
				c-0.4,0.3-0.8,0.6-1.2,0.9l-2.6,1.7l2.6-1.7c0.4-0.3,0.8-0.6,1.2-0.9l1.2-0.9c0.4-0.3,0.8-0.7,1.2-1l1.1-1
				c0.4-0.4,0.7-0.8,1.1-1.1l1.1-1.2l0.9-1.3c0.3-0.4,0.6-0.8,0.9-1.3l0.8-1.4c0.3-0.5,0.6-0.9,0.8-1.4l0.7-1.4
				c0.2-0.5,0.5-0.9,0.7-1.4c0.4-1,0.8-2,1.2-3l0,0c0.4-1.9,1.2-3.8,2.1-5.5c0.9-1.7,1.9-3.4,3-5c1.1-1.6,2.2-3.2,3.4-4.7
				c1.2-1.5,2.4-3,3.6-4.5c1.2-1.5,2.5-2.9,3.8-4.4c1.3-1.4,2.6-2.9,3.9-4.2c2.6-2.8,5.3-5.5,8-8.2c5.4-5.4,11-10.6,16.6-15.8
				c5.7-5.1,11.4-10.2,17.2-15.1L82.5,21.3z"/>
		</g>
		<g>
			<path class="st3" d="M102.5,5.7l3.5-3.1l-1.4-1.7c-0.8-1-2.3-1.2-3.3-0.3l-1.7,1.5l0,0l0,0L102.5,5.7z"/>
			<path class="st4" d="M106,2.6l-3.5,3.1l2.9,3.6l0,0l0,0l1.7-1.5c1-0.9,1.1-2.4,0.3-3.5L106,2.6z"/>
			<polygon class="st5" points="89.5,17.3 94,19.4 97.6,16.2 93.1,14.1 			"/>
			<polygon class="st6" points="93.1,14.1 88.7,11.9 85.1,15.1 89.5,17.3 			"/>
			<polygon class="st6" points="84.4,21.8 85.9,20.5 81.6,18.4 			"/>
			<polygon class="st5" points="84.4,21.8 87.2,25.4 90.4,22.7 85.9,20.5 			"/>
			<polygon class="st7" points="93.1,14.1 97.6,16.2 101.2,13 96.7,10.9 			"/>
			<polygon class="st8" points="96.7,10.9 92.3,8.7 88.7,11.9 93.1,14.1 			"/>
			<polygon class="st7" points="100.4,7.6 104.8,9.8 105.4,9.3 102.5,5.7 			"/>
			<polygon class="st8" points="102.5,5.7 99.7,2.1 95.9,5.5 100.4,7.6 			"/>
			<polygon class="st6" points="100.4,7.6 95.9,5.5 92.3,8.7 96.7,10.9 			"/>
			<polygon class="st5" points="96.7,10.9 101.2,13 104.8,9.8 100.4,7.6 			"/>
			<polygon class="st7" points="85.9,20.5 90.4,22.7 94,19.4 89.5,17.3 			"/>
			<polygon class="st8" points="85.9,20.5 89.5,17.3 85.1,15.1 81.5,18.2 81.6,18.4 			"/>
			<path class="st4" d="M89.1,27.8l-1.9-2.4l-2.9-3.6l-2.2,2l4.7,6c0.5,0.7,1.4,0.7,2,0.2l0,0C89.5,29.4,89.6,28.5,89.1,27.8z"/>
			<path class="st3" d="M81.6,18.4l-2-2.5c-0.5-0.7-1.4-0.7-2-0.2l0,0c-0.6,0.5-0.7,1.5-0.2,2.2l4.7,6l2.2-2L81.6,18.4z"/>
		</g>
	</g>
</g>
</svg>
