<?xml version="1.0" encoding="utf-8"?>
<!-- Generator: Adobe Illustrator 22.0.1, SVG Export Plug-In . SVG Version: 6.00 Build 0)  -->
<svg version="1.1" id="圖層_1" xmlns="http://www.w3.org/2000/svg" xmlns:xlink="http://www.w3.org/1999/xlink" x="0px" y="0px"
	 viewBox="0 0 108 107.9" style="enable-background:new 0 0 108 107.9;" xml:space="preserve">
<style type="text/css">
	.st0{fill:#E7FAFD;}
	.st1{fill:#C3E2E3;}
	.st2{fill:#FFFFFF;}
	.st3{fill:#F15A29;}
	.st4{fill:#F7941E;}
	.st5{fill:#EF4136;}
	.st6{fill:#FBB040;}
	.st7{fill:#F6CC88;}
</style>
<g>
	<g>
		<g>
			<g>
				<g>
					<path class="st0" d="M7,100.2c1.4-1.4,1.9-0.9,3.2-2.3c1.4-1.4,0.9-1.9,2.3-3.2c1.4-1.4,1.9-0.9,3.2-2.3
						c1.4-1.4,0.9-1.9,2.3-3.2c1.4-1.4,1.9-0.9,3.2-2.3c1.4-1.4,0.9-1.9,2.3-3.2c1.4-1.4,1.9-0.9,3.2-2.3c1.4-1.4,0.9-1.9,2.3-3.2
						c1.4-1.4,1.9-0.9,3.2-2.3c1.4-1.4,0.9-1.9,2.3-3.2c1.4-1.4,1.9-0.9,3.2-2.3c1.4-1.4,0.9-1.9,2.3-3.2c1.4-1.4,1.9-0.9,3.2-2.3
						c1.4-1.4,0.9-1.9,2.3-3.2c1.4-1.4,1.9-0.9,3.2-2.3c1.4-1.4,0.9-1.9,2.3-3.2c1.4-1.4,1.9-0.9,3.2-2.3c1.4-1.4,0.9-1.9,2.3-3.2
						c1.4-1.4,1.9-0.9,3.2-2.3c1.4-1.4,0.9-1.9,2.3-3.2c1.4-1.4,1.9-0.9,3.2-2.3c1.4-1.4,0.9-1.9,2.3-3.2c1.4-1.4,1.9-0.9,3.2-2.3
						c1.4-1.4,0.9-1.9,2.3-3.2c0.9-0.9,2.8-2.2,4.4-3.4c-1.9-1.8-4-3.7-4.1-3.5c-0.7,0.6-1.1,0.9-1.5,1.1c-0.5,0.3-1,0.7-1.9,1.5
						c-0.8,0.8-1.1,1.3-1.4,1.8c-0.3,0.4-0.5,0.9-1.2,1.6c-0.7,0.7-1.1,1-1.6,1.2c-0.5,0.3-1,0.6-1.8,1.4c-0.8,0.8-1.1,1.3-1.4,1.8
						c-0.3,0.4-0.5,0.9-1.2,1.6c-0.7,0.7-1.1,1-1.6,1.2c-0.5,0.3-1,0.6-1.8,1.4c-0.8,0.8-1.1,1.3-1.4,1.8c-0.3,0.4-0.5,0.9-1.2,1.6
						c-0.7,0.7-1.1,1-1.6,1.2c-0.5,0.3-1,0.6-1.8,1.4c-0.8,0.8-1.1,1.3-1.4,1.8c-0.3,0.4-0.5,0.9-1.2,1.6c-0.7,0.7-1.1,1-1.6,1.2
						c-0.5,0.3-1,0.6-1.8,1.4c-0.8,0.8-1.1,1.3-1.4,1.8c-0.3,0.4-0.5,0.9-1.2,1.6c-0.7,0.7-1.1,1-1.6,1.2c-0.5,0.3-1,0.6-1.8,1.4
						c-0.8,0.8-1.1,1.3-1.4,1.8c-0.3,0.4-0.5,0.9-1.2,1.6c-0.7,0.7-1.1,1-1.6,1.2c-0.5,0.3-1,0.6-1.8,1.4c-0.8,0.8-1.1,1.3-1.4,1.8
						c-0.3,0.4-0.5,0.9-1.2,1.6c-0.7,0.7-1.1,1-1.6,1.2c-0.5,0.3-1,0.6-1.8,1.4c-0.8,0.8-1.1,1.3-1.4,1.8c-0.3,0.4-0.5,0.9-1.2,1.6
						c-0.7,0.7-1.1,1-1.6,1.2c-0.5,0.3-1,0.6-1.8,1.4c-0.8,0.8-1.1,1.3-1.4,1.8c-0.3,0.4-0.5,0.9-1.2,1.6c-0.7,0.7-1.1,1-1.6,1.2
						c-0.5,0.3-1,0.6-1.8,1.4c-0.8,0.8-1.1,1.3-1.4,1.8c-0.3,0.4-0.5,0.9-1.2,1.6c-0.7,0.7-1.1,1-1.6,1.2c-0.5,0.3-1,0.6-1.8,1.4
						c-0.8,0.8-1.1,1.3-1.4,1.8c-0.3,0.4-0.5,0.9-1.2,1.6c-0.7,0.7-1.1,1-1.6,1.2c-0.5,0.3-1,0.6-1.8,1.4c-0.8,0.8-1.1,1.3-1.4,1.8
						c-0.3,0.4-0.5,0.9-1.2,1.6c-0.8,0.8-1.4,5.5-1.7,7.5l-0.2,2c1.4-1.4,3.1-3,4.5-4.4C6.2,102.1,5.7,101.6,7,100.2z"/>
				</g>
				<g>
					<path class="st1" d="M77.6,30.7c-1.6,1.2-3.5,2.5-4.4,3.4c-1.4,1.4-0.9,1.9-2.3,3.2c-1.4,1.4-1.9,0.9-3.2,2.3
						c-1.4,1.4-0.9,1.9-2.3,3.2c-1.4,1.4-1.9,0.9-3.2,2.3c-1.4,1.4-0.9,1.9-2.3,3.2c-1.4,1.4-1.9,0.9-3.2,2.3
						c-1.4,1.4-0.9,1.9-2.3,3.2c-1.4,1.4-1.9,0.9-3.2,2.3c-1.4,1.4-0.9,1.9-2.3,3.2c-1.4,1.4-1.9,0.9-3.2,2.3
						c-1.4,1.4-0.9,1.9-2.3,3.2c-1.4,1.4-1.9,0.9-3.2,2.3c-1.4,1.4-0.9,1.9-2.3,3.2c-1.4,1.4-1.9,0.9-3.2,2.3
						c-1.4,1.4-0.9,1.9-2.3,3.2c-1.4,1.4-1.9,0.9-3.2,2.3c-1.4,1.4-0.9,1.9-2.3,3.2c-1.4,1.4-1.9,0.9-3.2,2.3
						c-1.4,1.4-0.9,1.9-2.3,3.2c-1.4,1.4-1.9,0.9-3.2,2.3c-1.4,1.4-0.9,1.9-2.3,3.2c-1.4,1.4-1.9,0.9-3.2,2.3
						c-1.4,1.4-0.9,1.9-2.3,3.2c-1.4,1.4-1.9,0.9-3.2,2.3c-1.4,1.4-0.9,1.9-2.3,3.2c-1.4,1.4-3.1,3-4.5,4.4l2-0.2
						c2-0.2,6.7-0.9,7.4-1.8c0.7-0.8,1-1.2,1.3-1.7c0.3-0.5,0.6-0.9,1.3-1.6c0.7-0.7,1.1-1,1.6-1.2c0.5-0.3,1-0.6,1.8-1.4
						c0.8-0.8,1.1-1.3,1.4-1.8c0.3-0.4,0.5-0.9,1.2-1.6c0.7-0.7,1.1-1,1.6-1.2c0.5-0.3,1-0.6,1.8-1.4c0.8-0.8,1.1-1.3,1.4-1.8
						c0.3-0.4,0.5-0.9,1.2-1.6c0.7-0.7,1.1-1,1.6-1.2c0.5-0.3,1-0.6,1.8-1.4c0.8-0.8,1.1-1.3,1.4-1.8c0.3-0.4,0.5-0.9,1.2-1.6
						c0.7-0.7,1.1-1,1.6-1.2c0.5-0.3,1-0.6,1.8-1.4c0.8-0.8,1.1-1.3,1.4-1.8c0.3-0.4,0.5-0.9,1.2-1.6c0.7-0.7,1.1-1,1.6-1.2
						c0.5-0.3,2.6-2.4,3.4-3.2c0.8-0.8,1.1-1.3,1.4-1.8c0.3-0.4,0.5-0.9,1.2-1.5c0.7-0.7,1.1-1,1.6-1.2c0.5-0.3,1-0.6,1.8-1.4
						c0.8-0.8,1.1-1.3,1.4-1.8c0.3-0.4,0.5-0.9,1.2-1.6c0.7-0.7,1.1-1,1.6-1.2c0.5-0.3,1-0.6,1.8-1.4c0.8-0.8,1.1-1.3,1.4-1.8
						c0.3-0.4,0.5-0.9,1.2-1.6c0.7-0.7,1.1-1,1.6-1.2c0.5-0.3,1-0.6,1.8-1.4c0.8-0.8,1.1-1.3,1.4-1.8c0.3-0.4,0.5-0.9,1.2-1.6
						c0.7-0.7,1.1-1,1.6-1.2c0.5-0.3,1-0.6,1.8-1.4c0.8-0.8,1.1-1.3,1.4-1.8c0.3-0.4,0.5-0.9,1.2-1.6c0.7-0.7,1.1-1,1.6-1.2
						c0.5-0.3,1-0.6,1.8-1.4c0.8-0.8,1.1-1.3,1.4-1.8c0.3-0.4,0.5-0.9,1.2-1.6c0.7-0.7,1.1-1,1.6-1.2c0.5-0.3,1-0.6,1.8-1.4
						c0.8-0.8,1.1-1.3,1.4-1.8c0.3-0.4,0.5-0.9,1.2-1.6c0.6-0.6,1.1-0.9,1.5-1.1C81,34.1,79.4,32.4,77.6,30.7z"/>
				</g>
				<g>
					<path class="st2" d="M1.2,107.1c0-1,0.2-1.1,1-1.8c0.8-0.7,1.5-1.5,2.2-2.2c0.6-0.6,0.8-1,1-1.5c0.2-0.5,0.5-1,1.2-1.8
						c0.7-0.7,1.3-1,1.8-1.2c0.4-0.2,0.9-0.4,1.5-1c0.6-0.6,0.8-1,1-1.5c0.2-0.5,0.5-1,1.2-1.8c0.7-0.7,1.3-1,1.8-1.2
						c0.4-0.2,0.9-0.4,1.5-1c0.6-0.6,0.8-1,1-1.5c0.2-0.5,0.5-1,1.2-1.8c0.7-0.7,1.3-1,1.8-1.2c0.4-0.2,0.9-0.4,1.5-1
						c0.6-0.6,0.8-1,1-1.5c0.2-0.5,0.5-1,1.2-1.8c0.7-0.7,1.3-1,1.8-1.2c0.4-0.2,0.9-0.4,1.5-1c0.6-0.6,0.8-1,1-1.5
						c0.2-0.5,0.5-1,1.2-1.8c0.7-0.7,1.3-1,1.8-1.2c0.4-0.2,0.9-0.4,1.5-1c0.6-0.6,0.8-1,1-1.5c0.2-0.5,0.5-1,1.2-1.8
						c0.7-0.7,1.3-1,1.8-1.2c0.4-0.2,0.9-0.4,1.5-1c0.6-0.6,0.8-1,1-1.5c0.2-0.5,0.5-1,1.2-1.8c0.7-0.7,1.3-1,1.8-1.2
						c0.4-0.2,0.9-0.4,1.5-1c0.6-0.6,0.8-1,1-1.5c0.2-0.5,0.5-1,1.2-1.8c0.7-0.7,1.3-1,1.8-1.2c0.4-0.2,0.9-0.4,1.5-1
						c0.6-0.6,0.8-1,1-1.5c0.2-0.5,0.5-1,1.2-1.8c0.7-0.7,1.3-1,1.8-1.2c0.4-0.2,0.9-0.4,1.5-1c0.6-0.6,0.8-1,1-1.5
						c0.2-0.5,0.5-1,1.2-1.8c0.7-0.7,1.3-1,1.8-1.2c0.4-0.2,0.9-0.4,1.5-1c0.6-0.6,0.8-1,1-1.5c0.2-0.5,0.5-1,1.2-1.8
						c0.7-0.7,1.3-1,1.8-1.2c0.4-0.2,0.9-0.4,1.5-1c0.6-0.6,0.8-1,1-1.5c0.2-0.5,0.5-1,1.2-1.8c0.7-0.7,1.3-1,1.8-1.2
						c0.4-0.2,0.9-0.4,1.5-1c0.6-0.6,0.8-1,1-1.5c0.2-0.5,0.5-1,1.2-1.8c0.7-0.7,2-1.7,3.2-2.6c1.2-0.9,2.5-1.8,3.1-2.5l0.7,0.7
						c-0.7,0.7-2,1.7-3.2,2.6c-1.2,0.9-2.5,1.8-3.1,2.5c-0.6,0.6-0.8,1-1,1.5c-0.2,0.5-0.5,1-1.2,1.8c-0.7,0.7-1.3,1-1.8,1.2
						c-0.4,0.2-0.9,0.4-1.5,1c-0.6,0.6-0.8,1-1,1.5c-0.2,0.5-0.5,1-1.2,1.8c-0.7,0.7-1.3,1-1.8,1.2c-0.4,0.2-0.9,0.4-1.5,1
						c-0.6,0.6-0.8,1-1,1.5c-0.2,0.5-0.5,1-1.2,1.8c-0.7,0.7-1.3,1-1.8,1.2c-0.4,0.2-0.9,0.4-1.5,1c-0.6,0.6-0.8,1-1,1.5
						c-0.2,0.5-0.5,1-1.2,1.8c-0.7,0.7-1.3,1-1.8,1.2c-0.4,0.2-0.9,0.4-1.5,1c-0.6,0.6-0.8,1-1,1.5c-0.2,0.5-0.5,1-1.2,1.8
						c-0.7,0.7-1.3,1-1.8,1.2c-0.4,0.2-0.9,0.4-1.5,1c-0.6,0.6-0.8,1-1,1.5c-0.2,0.5-0.5,1-1.2,1.8c-0.7,0.7-1.3,1-1.8,1.2
						c-0.4,0.2-0.9,0.4-1.5,1c-0.6,0.6-0.8,1-1,1.5c-0.2,0.5-0.5,1-1.2,1.8c-0.7,0.7-1.3,1-1.8,1.2c-0.4,0.2-0.9,0.4-1.5,1
						c-0.6,0.6-0.8,1-1,1.5c-0.2,0.5-0.5,1-1.2,1.8c-0.7,0.7-1.3,1-1.8,1.2c-0.4,0.2-0.9,0.4-1.5,1c-0.6,0.6-0.8,1-1,1.5
						c-0.2,0.5-0.5,1-1.2,1.8c-0.7,0.7-1.3,1-1.8,1.2c-0.4,0.2-0.9,0.4-1.5,1c-0.6,0.6-0.8,1-1,1.5c-0.2,0.5-0.5,1-1.2,1.8
						c-0.7,0.7-1.3,1-1.8,1.2c-0.4,0.2-0.9,0.4-1.5,1c-0.6,0.6-0.8,1-1,1.5c-0.2,0.5-0.5,1-1.2,1.8c-0.7,0.7-1.3,1-1.8,1.2
						c-0.4,0.2-0.9,0.4-1.5,1c-0.6,0.6-0.8,1-1,1.5c-0.2,0.5-0.5,1-1.2,1.8c-0.7,0.7-1.3,1-1.8,1.2c-0.4,0.2-0.9,0.4-1.5,1
						c-0.6,0.6-0.8,1-1,1.5c-0.2,0.5-0.5,1-1.2,1.8c-0.7,0.7-1.5,1.4-2.2,2.2C2.1,106.7,1.2,107.4,1.2,107.1z"/>
				</g>
			</g>
			<g>
				<g>
					<path class="st3" d="M102.4,5.3l-0.8,0.8l1.1,1.1c0,0,0,0,0.1,0c0.6-0.1,1.3-0.2,2-0.3c1-0.1,1.6-0.7,1.7-1.7
						c0-0.9-0.4-1.8-1.2-2.7c-0.9-0.9-1.9-1.3-2.8-1.3c-0.9,0-1.6,0.7-1.7,1.7c-0.1,0.7-0.2,1.4-0.3,2c0,0,0,0,0,0.1l1.1,1.1
						L102.4,5.3z"/>
				</g>
				<g>
					<path class="st3" d="M99.6,8.1c-0.4-0.4-0.5-1.1-0.4-2c-7.6,7.4-15.8,14.2-23.6,21.4c0.8,0.8,1.6,1.6,2.4,2.3L99.6,8.1z"/>
				</g>
				<g>
					<path class="st4" d="M76.3,27.7c2.5-2.2,5-4.4,7.5-6.6c5-4.4,10.1-8.9,14.9-13.5c0,0.1,0.1,0.2,0.2,0.4L77.7,29
						C77.3,28.6,76.8,28.1,76.3,27.7z"/>
				</g>
				<g>
					<path class="st5" d="M99.6,8.1C99.6,8.1,99.6,8.1,99.6,8.1L77.9,29.8c0,0,0,0,0,0c0.8,0.8,1.6,1.6,2.3,2.4
						c7.1-7.9,13.9-16.1,21.4-23.6C100.7,8.7,100.1,8.6,99.6,8.1z"/>
				</g>
				<g>
					<path class="st5" d="M105.9,1.9c-2.8-2.7-5.9-2.2-6.2,0.5c-0.2,1.5-0.4,2.7-0.5,3.7c-0.1,0.9,0,1.6,0.4,2c0,0,0,0,0,0
						c0.4,0.4,1.1,0.5,2,0.5c1-0.1,2.3-0.4,3.7-0.5C108,7.8,108.6,4.7,105.9,1.9z M104.8,6.9c-0.7,0.1-1.4,0.2-2,0.3c0,0,0,0-0.1,0
						L100.5,5c0,0,0,0,0-0.1c0.1-0.6,0.2-1.3,0.3-2c0.1-1,0.7-1.6,1.7-1.7c0.9,0,1.8,0.4,2.8,1.3c0.8,0.8,1.3,1.8,1.2,2.7
						C106.4,6.2,105.8,6.8,104.8,6.9z"/>
				</g>
				<g>
					<path class="st4" d="M80.3,32.2c-0.8-0.8-1.6-1.6-2.3-2.4c0,0,0,0,0,0l-1.8,1.8c0,0,0,0,0,0c6.5,6.7,13.3,13.2,15.1,20.5
						c1.8,0.5,3.7,1,5.7,1.3C95.1,45.7,87.4,39.4,80.3,32.2z"/>
				</g>
				<g>
					<path class="st6" d="M75.5,27.5C68.3,20.3,62,12.7,54.3,10.8c0.3,2,0.8,3.9,1.3,5.7c7.3,1.8,13.8,8.6,20.5,15.1l1.8-1.8
						C77.1,29,76.3,28.3,75.5,27.5z"/>
				</g>
				<g>
					<path class="st7" d="M56.5,15.7c-0.3-1.1-0.6-2.3-0.8-3.4c4.3,1.4,8.2,4.8,12.8,9.3c1,1,2,2,3,3c1,1.1,2.1,2.1,3.2,3.2l0.3,0.3
						c0.5,0.5,0.9,0.9,1.4,1.4L75.8,30c-0.3-0.3-0.6-0.6-0.9-0.8C69.1,23.5,63.1,17.7,56.5,15.7z"/>
				</g>
			</g>
		</g>
		<g>
			<g>
				<path class="st6" d="M105.1,4.4c0,0.9-0.7,1.7-1.7,1.7c-0.9,0-1.7-0.7-1.7-1.7s0.7-1.7,1.7-1.7C104.3,2.7,105.1,3.5,105.1,4.4z"
					/>
			</g>
			<g>
				<path class="st4" d="M104.7,4.4c0,0.7-0.6,1.3-1.3,1.3c-0.7,0-1.3-0.6-1.3-1.3c0-0.7,0.6-1.3,1.3-1.3
					C104.1,3.1,104.7,3.7,104.7,4.4z"/>
			</g>
			<g>
				<path class="st2" d="M103.1,3.7c0,0.2-0.2,0.3-0.3,0.3c-0.2,0-0.3-0.1-0.3-0.3c0-0.2,0.2-0.3,0.3-0.3
					C102.9,3.4,103.1,3.5,103.1,3.7z"/>
			</g>
		</g>
	</g>
</g>
</svg>
