<?xml version="1.0" encoding="utf-8"?>
<!-- Generator: Adobe Illustrator 22.0.1, SVG Export Plug-In . SVG Version: 6.00 Build 0)  -->
<svg version="1.1" id="圖層_1" xmlns="http://www.w3.org/2000/svg" xmlns:xlink="http://www.w3.org/1999/xlink" x="0px" y="0px"
	 viewBox="0 0 107.5 107.8" style="enable-background:new 0 0 107.5 107.8;" xml:space="preserve">
<style type="text/css">
	.st0{fill:#E6FAFB;}
	.st1{fill:#B7D7D5;}
	.st2{fill:#F15A29;}
	.st3{fill:#EF4136;}
	.st4{fill:#BE1E2D;}
	.st5{fill:#A6BEBF;}
	.st6{fill:#F6FEFE;}
	.st7{fill:#F7941E;}
	.st8{fill:#FFFFFF;}
</style>
<g>
	<g>
		<g>
			<path class="st0" d="M25,77.4l11.5,13.2c3.7-2.4,7.2-5,10.6-7.8l-10-11.4C32.4,74,28.3,76,25,77.4z"/>
			<path class="st1" d="M13.5,81.5c-0.1,0,1.3,3.7-1.8,11.8C8.6,101.4,0,107.8,0,107.8c12.9-3.7,25.2-9.6,36.6-17.2L25,77.4
				C17.1,80.8,13.4,81.1,13.5,81.5z"/>
			<path class="st1" d="M37.2,71.3l10,11.4c2.8-2.3,5.6-4.6,8.2-7.1l-8.8-10C43.2,67.8,40.1,69.7,37.2,71.3z"/>
			<path class="st0" d="M51.7,62.2c-0.5,0.4-1.1,0.8-1.6,1.2c-1.2,0.8-2.3,1.5-3.4,2.2l8.8,10c1.5-1.4,3-2.8,4.4-4.2L51.7,62.2z"/>
			<path class="st1" d="M90.7,29.1c-1.3-4.2-1.4-2.4-4.5-3.7c-0.3-0.7-10.4,18.4-34.4,36.8l8.1,9.3C72.6,58.8,83.2,44.2,90.7,29.1z"
				/>
		</g>
		<g>
			<g>
				<path class="st2" d="M90,18.2c-0.4,0.8-0.8,1.5-1.2,2.3l3-0.2L90,18.2z"/>
				<g>
					<polygon class="st3" points="88.5,21.5 89,20.7 94.8,20.2 93.5,23.1 90.2,23.3 					"/>
					<path class="st4" d="M94.4,20.5l-0.8,1.9l-0.2,0.5l-3.1,0.2l-1.5-1.6c0.1-0.2,0.2-0.4,0.3-0.6l2.8-0.2L94.4,20.5L94.4,20.5z
						 M95.2,20l-3.3,0.2l-3,0.2c-0.2,0.4-0.4,0.8-0.6,1.1l1.9,2l3.6-0.3l0.3-0.8L95.2,20L95.2,20z"/>
				</g>
				<g>
					<polygon class="st3" points="91.8,15.1 91.9,14.8 97.3,14.4 96.4,16.3 93.2,16.6 					"/>
					<path class="st4" d="M96.9,14.7l-0.4,1l-0.2,0.4l-3,0.2L92.1,15l0,0l3.4-0.2L96.9,14.7L96.9,14.7z M97.7,14.1l-2.3,0.2
						l-3.7,0.3c-0.1,0.2-0.2,0.4-0.3,0.6l1.6,1.7l3.6-0.3l0.3-0.7L97.7,14.1L97.7,14.1z"/>
				</g>
				<path class="st2" d="M91.5,15.1c-0.3,0.6-0.6,1.3-0.9,1.9l2.5-0.2L91.5,15.1z"/>
				<path class="st2" d="M88.2,21.6c-0.5,0.9-0.9,1.6-1.2,2.3l3.1-0.2L88.2,21.6z"/>
				<g>
					<path class="st3" d="M86.5,25.3c0.1-0.2,0.4-0.7,0.7-1.2l6.1-0.4l-1.7,3.9L86.5,25.3z"/>
					<path class="st4" d="M92.9,23.9L92,26l-0.5,1.2l-4.6-2.1c0.1-0.2,0.3-0.5,0.5-0.8l2.8-0.2L92.9,23.9L92.9,23.9z M93.7,23.3
						l-3.6,0.3L87,23.8c-0.5,1-0.9,1.6-0.9,1.6l5.6,2.5l0.7-1.7L93.7,23.3L93.7,23.3z"/>
				</g>
				<g>
					<polygon class="st3" points="90.3,18.1 90.7,17.3 96.2,16.9 95,19.7 92,19.9 					"/>
					<path class="st4" d="M95.8,17.2l-0.9,2.1l-0.1,0.3l-2.7,0.2l-1.5-1.6c0.1-0.2,0.2-0.4,0.3-0.5l2.2-0.2L95.8,17.2L95.8,17.2z
						 M96.6,16.6l-3.6,0.3L90.5,17c-0.2,0.4-0.4,0.7-0.6,1.1l1.9,2l3.3-0.2l0.2-0.5L96.6,16.6L96.6,16.6z"/>
				</g>
				<g>
					<path class="st3" d="M94.1,9.5c0.1-0.5,0.2-0.9,0.2-1.1l4.9,1.7l-0.4,1l-3,0.3L94.1,9.5z"/>
					<path class="st4" d="M94.5,8.7l4.3,1.5l-0.3,0.6l-2.7,0.3l-1.5-1.7C94.4,9.2,94.5,8.9,94.5,8.7L94.5,8.7z M93.9,8
						c0.2,0.2,0.1,0.8-0.1,1.6l1.8,2.1l3.2-0.4l0.6-1.4L93.9,8L93.9,8z"/>
				</g>
				<g>
					<polygon class="st3" points="93.8,12.1 98.5,11.6 97.5,13.9 95.5,14 					"/>
					<g>
						<path class="st4" d="M98.1,11.9l-0.7,1.7l-1.7,0.1l-1.3-1.4l1.3-0.2L98.1,11.9L98.1,11.9z M98.9,11.3l-3.2,0.4l-2.3,0.3
							l2.1,2.3l2.3-0.2l0-0.1L98.9,11.3L98.9,11.3z"/>
					</g>
				</g>
				<path class="st2" d="M93,11.6c0,0.1-0.1,0.2-0.1,0.3l0.4,0L93,11.6z"/>
				<path class="st2" d="M93.3,11.9l-0.4,0c-0.3,0.8-0.7,1.7-1.1,2.6l3.7-0.3L93.3,11.9z"/>
				<path class="st2" d="M95.6,11.7l-1.8-2.1c-0.2,0.6-0.4,1.3-0.8,2.1l0.3,0.3L95.6,11.7z"/>
			</g>
			<g>
				<path class="st5" d="M88,25.7l-0.3,0c-0.7-0.1-0.9,0.2-2.3,2.3C82,33.3,71.6,49.3,51.9,64.7c-11.4,7.9-21.6,13.6-30.3,16.8
					c-0.5,0.2-0.8,0.8-0.6,1.3c0,0.1,0.1,0.1,0.1,0.1c6-2.3,17.4-7.6,31.4-17.4C73.6,49.1,85,30.3,88,25.7z"/>
				<path class="st6" d="M88.4,25.7l-0.3,0c-3,4.7-14.4,23.4-35.5,39.9c-14,9.7-25.4,15.1-31.4,17.4c0.2,0.3,0.5,0.5,0.8,0.5
					c0.1,0,0.3,0,0.4-0.1c8.9-3.2,19.2-9,30.8-17c20-15.6,30.6-31.9,34-37.2c0.4-0.7,0.8-1.3,1-1.5c0.4-0.3,0.6-0.8,0.4-1.3
					L88.4,25.7z"/>
			</g>
			<g>
				<path class="st3" d="M101.7,1.3c-0.5-0.5-1.1-0.8-1.7-1.1l-1.2,2.8c0.3,0.1,0.6,0.3,0.8,0.5c0.5,0.5,0.8,1.1,0.8,1.8
					c0,0.7-0.2,1.3-0.7,1.9c-0.7,0.8-1.9,1-2.9,0.6l-1.2,2.9c0.6,0.2,1.2,0.4,1.8,0.4c1.7,0.1,3.4-0.5,4.6-1.8
					c1-1.1,1.5-2.6,1.5-4.1C103.5,3.8,102.9,2.4,101.7,1.3z"/>
				<path class="st2" d="M96.2,7.4c-0.5-0.5-0.8-1.1-0.8-1.8c0-0.7,0.2-1.3,0.7-1.9c0.5-0.6,1.3-0.9,2.1-0.8c0.3,0,0.5,0.1,0.8,0.2
					l1.2-2.8c-0.6-0.2-1.1-0.4-1.7-0.4c-1.7-0.1-3.4,0.5-4.6,1.8c-1,1.1-1.5,2.6-1.5,4.1c0.1,1.5,0.7,2.9,1.8,3.9
					c0.5,0.4,1.1,0.8,1.7,1l1.2-2.9C96.7,7.8,96.4,7.6,96.2,7.4z"/>
			</g>
			<g>
				<path class="st2" d="M81.1,18.2c-4.6-3.4-10.3,0.4-12.5,5.3c0,0,0,0.1,0,0.1c8.3-2.7,14.2,1.2,19.6,5.6l1.6-3.9
					C86.9,22.9,84.1,20.1,81.1,18.2z"/>
				<path class="st3" d="M89.8,25.4l-1.6,3.9c2.6,2.1,5.2,4.4,7.8,6.1c4.6,3.4,9.6,0.3,11.8-4.6l0-0.1
					C100.1,33.2,94.7,29.6,89.8,25.4z"/>
			</g>
		</g>
		<g>
			<path class="st2" d="M102.1,34c-0.1,1-0.9,1.7-1.9,1.7c-1-0.1-1.7-0.9-1.7-1.9c0.1-1,0.9-1.7,1.9-1.7
				C101.5,32.2,102.2,33.1,102.1,34z"/>
			<path class="st7" d="M101.8,34c-0.1,0.8-0.7,1.4-1.5,1.3c-0.8-0.1-1.4-0.7-1.3-1.5c0.1-0.8,0.7-1.4,1.5-1.3
				C101.2,32.6,101.8,33.2,101.8,34z"/>
			<path class="st8" d="M100,33.2c0,0.2-0.2,0.3-0.4,0.3c-0.2,0-0.3-0.2-0.3-0.4c0-0.2,0.2-0.3,0.4-0.3C99.9,32.8,100.1,33,100,33.2
				z"/>
		</g>
		<g>
			<path class="st2" d="M78.8,19.8c-0.1,1-0.9,1.7-1.9,1.7c-1-0.1-1.7-0.9-1.7-1.9c0.1-1,0.9-1.7,1.9-1.7
				C78.1,18,78.8,18.8,78.8,19.8z"/>
			<path class="st7" d="M78.4,19.8c-0.1,0.8-0.7,1.4-1.5,1.3c-0.8-0.1-1.4-0.7-1.3-1.5c0.1-0.8,0.7-1.4,1.5-1.3
				C77.8,18.3,78.4,19,78.4,19.8z"/>
			<path class="st8" d="M76.7,18.9c0,0.2-0.2,0.3-0.4,0.3c-0.2,0-0.3-0.2-0.3-0.4c0-0.2,0.2-0.3,0.4-0.3
				C76.5,18.6,76.7,18.8,76.7,18.9z"/>
		</g>
	</g>
</g>
</svg>
