<?xml version="1.0" encoding="utf-8"?>
<!-- Generator: Adobe Illustrator 22.0.1, SVG Export Plug-In . SVG Version: 6.00 Build 0)  -->
<svg version="1.1" id="圖層_1" xmlns="http://www.w3.org/2000/svg" xmlns:xlink="http://www.w3.org/1999/xlink" x="0px" y="0px"
	 viewBox="0 0 89.4 96.3" style="enable-background:new 0 0 89.4 96.3;" xml:space="preserve">
<style type="text/css">
	.st0{fill:#C1B49A;}
	.st1{fill:#9A8479;}
	.st2{fill:#32313F;}
	.st3{opacity:0.5;fill:#32313F;}
	.st4{opacity:0.5;fill:#FFFFFF;}
	.st5{fill:#F8EC32;}
	.st6{fill:#ED2924;}
</style>
<g>
	<g>
		<g>
			<g>
				<path class="st0" d="M75.8,44.4c-0.2-0.1-0.4-0.3-0.5-0.6c-0.2-0.6,0.1-1.2,0.6-1.4c4.2-1.6,4.2-5.8,4.2-10.3
					c0-0.9,0-1.9,0.1-2.8c0.2-4.3,3-7.6,7.3-8.9c0.6-0.2,1.2,0.2,1.4,0.7c0.2,0.6-0.2,1.2-0.7,1.4c-3.5,1-5.6,3.6-5.8,6.9
					c0,0.8,0,1.7-0.1,2.7c0,4.5,0,10.1-5.6,12.3C76.3,44.5,76,44.5,75.8,44.4z"/>
			</g>
		</g>
		<g>
			<path class="st1" d="M85.8,21c-0.1,0.7,0,1.5,0.2,2.4c0.2-0.1,0.4-0.2,0.7-0.4c-0.2-0.9-0.1-1.7-0.1-2.3
				C86.3,20.8,86.1,20.9,85.8,21z"/>
			<path class="st1" d="M84.1,24.9c0.2-0.2,0.4-0.4,0.6-0.6c-0.2-0.9-0.2-1.8-0.2-2.6c-0.3,0.2-0.5,0.4-0.8,0.6
				C83.7,23.1,83.8,24,84.1,24.9z"/>
			<path class="st1" d="M82.8,27c0.1-0.3,0.2-0.5,0.4-0.8c-0.5-0.8-0.8-1.7-1-2.4c-0.2,0.3-0.4,0.5-0.6,0.8
				C81.8,25.4,82.2,26.3,82.8,27z"/>
			<path class="st1" d="M82.3,29.4c0-0.1,0-0.3,0-0.4c-0.8-0.6-1.4-1.3-1.8-1.9c-0.1,0.3-0.2,0.6-0.2,0.9c0.5,0.6,1.2,1.3,2,1.8
				C82.3,29.7,82.3,29.6,82.3,29.4z"/>
			<path class="st1" d="M82.2,32.6c0-0.2,0-0.3,0-0.5c0-0.1,0-0.2,0-0.3c-0.9-0.4-1.6-0.9-2.2-1.4c0,0.3,0,0.6,0,0.9
				c0.4,0.3,0.9,0.6,1.4,0.9C81.7,32.4,82,32.5,82.2,32.6z"/>
			<path class="st1" d="M82.1,35.5c0-0.3,0-0.5,0-0.8c-0.9-0.3-1.6-0.8-2.1-1.3c0,0.3,0,0.6,0,0.9c0.4,0.3,0.8,0.6,1.4,0.8
				C81.6,35.3,81.9,35.4,82.1,35.5z"/>
			<path class="st1" d="M81.8,38.3c0.1-0.2,0.1-0.5,0.1-0.7c-0.8-0.3-1.5-0.8-2-1.3c0,0.3-0.1,0.6-0.1,0.9c0.4,0.3,0.9,0.7,1.5,1
				C81.4,38.1,81.6,38.2,81.8,38.3z"/>
			<path class="st1" d="M81.2,40.1c-0.7-0.3-1.4-0.7-1.9-1.1c-0.1,0.2-0.2,0.5-0.3,0.7c0.4,0.3,0.9,0.7,1.5,0.9
				c0.1,0.1,0.3,0.1,0.4,0.2C81,40.6,81.1,40.3,81.2,40.1z"/>
			<path class="st1" d="M78.1,40.9c-0.2,0.2-0.3,0.3-0.5,0.5c0.4,0.5,0.9,1.1,1.5,1.6c0.2-0.2,0.4-0.3,0.5-0.5
				C79,42,78.5,41.4,78.1,40.9z"/>
			<path class="st1" d="M76.7,44.4c0.2-0.1,0.5-0.2,0.7-0.3c-0.5-0.6-0.9-1.3-1.1-1.9c-0.2,0.1-0.3,0.1-0.5,0.2
				c-0.1,0-0.1,0.1-0.2,0.1C75.9,43.1,76.2,43.8,76.7,44.4z"/>
		</g>
		<g>
			<path class="st2" d="M76.9,42c0,0-6.5-3.1-12-3.1l-3,6.2l11,5.3l11,5.3l3-6.2C83.4,45.1,76.9,42,76.9,42z"/>
		</g>
		<path class="st3" d="M85.4,47.8c-0.8,1.6-2.8,2-4.1,0.9c-1.7-1.4-3.6-2.7-5.8-3.7c-4-1.9-8.2-2.8-12.2-2.7l-0.8,1.6L61.9,45
			l11,5.3l11,5.3l1.3-2.8l1.6-3.4C86.4,48.9,85.9,48.3,85.4,47.8z"/>
		
			<ellipse transform="matrix(0.9412 -0.3378 0.3378 0.9412 -19.6397 25.6272)" class="st2" cx="63.8" cy="69.3" rx="25.6" ry="25.6"/>
		
			<ellipse transform="matrix(0.9971 -7.597971e-02 7.597971e-02 0.9971 -4.1884 4.8751)" class="st4" cx="62" cy="57.5" rx="14.8" ry="11.1"/>
		<path class="st3" d="M88.6,62.8c-0.3,2.7-1.1,5.4-2.3,8c-6.1,12.8-21.4,18.1-34.2,12c-7.1-3.4-11.9-9.6-13.7-16.6
			c-1.3,10.6,4.2,21.3,14.3,26.2c12.8,6.1,28.1,0.7,34.2-12C89.7,74.6,90.1,68.4,88.6,62.8z"/>
	</g>
	<g>
		<g>
			<g>
				<path class="st0" d="M27.2,39.4c-0.3,0-0.6-0.1-0.8-0.3c-0.5-0.4-0.5-1.2-0.1-1.6c3.3-3.5,1.4-7.5-0.7-11.8
					c-0.4-0.9-0.9-1.8-1.2-2.7c-1.7-4.2-0.6-8.6,2.9-11.9c0.5-0.4,1.2-0.4,1.6,0.1c0.4,0.5,0.4,1.2-0.1,1.6c-2.9,2.6-3.7,6-2.3,9.3
					c0.3,0.8,0.8,1.7,1.2,2.6c2.1,4.3,4.6,9.7,0.3,14.4C27.9,39.2,27.6,39.4,27.2,39.4z"/>
			</g>
		</g>
		<g>
			<path class="st1" d="M26.2,12.4c0.3,0.7,0.7,1.5,1.2,2.2c0.1-0.2,0.3-0.4,0.5-0.6c-0.6-0.7-0.9-1.5-1.1-2.2
				C26.5,11.9,26.3,12.1,26.2,12.4z"/>
			<path class="st1" d="M26.3,16.9c0.1-0.3,0.2-0.6,0.3-0.8c-0.7-0.8-1.1-1.7-1.3-2.4c-0.2,0.3-0.3,0.6-0.5,0.9
				C25.1,15.3,25.6,16.1,26.3,16.9z"/>
			<path class="st1" d="M26,19.5c0-0.3,0-0.6,0-0.9c-0.9-0.5-1.6-1.2-2.1-1.8c-0.1,0.3-0.1,0.7-0.2,1C24.3,18.4,25.1,19.1,26,19.5z"
				/>
			<path class="st1" d="M26.6,22c-0.1-0.1-0.1-0.3-0.1-0.4c-1.1-0.2-2-0.6-2.6-1c0.1,0.3,0.1,0.7,0.2,1c0.8,0.4,1.7,0.7,2.7,0.8
				C26.8,22.3,26.7,22.2,26.6,22z"/>
			<path class="st1" d="M28,25.1c-0.1-0.1-0.1-0.3-0.2-0.4c0-0.1-0.1-0.2-0.1-0.3c-1,0.1-2-0.1-2.7-0.3c0.1,0.3,0.3,0.6,0.4,0.9
				c0.5,0.1,1.1,0.2,1.8,0.2C27.5,25.1,27.7,25.1,28,25.1z"/>
			<path class="st1" d="M29.3,27.9c-0.1-0.2-0.2-0.5-0.3-0.7c-1,0.1-1.9-0.1-2.7-0.3c0.1,0.3,0.3,0.6,0.4,0.9
				c0.5,0.1,1.1,0.2,1.7,0.2C28.7,28,29,27.9,29.3,27.9z"/>
			<path class="st1" d="M30.2,30.8C30.1,30.5,30,30.2,30,30c-0.9,0-1.8-0.1-2.5-0.3c0.1,0.3,0.2,0.6,0.3,0.9
				c0.6,0.1,1.2,0.2,1.9,0.2C29.8,30.8,30,30.8,30.2,30.8z"/>
			<path class="st1" d="M30.4,32.8c-0.8,0.1-1.6-0.1-2.3-0.2c0,0.3,0,0.5,0,0.8c0.6,0.1,1.2,0.2,1.9,0.2c0.1,0,0.3,0,0.4,0
				C30.5,33.3,30.5,33.1,30.4,32.8z"/>
			<path class="st1" d="M27.9,35c-0.1,0.2-0.2,0.5-0.3,0.7c0.6,0.3,1.3,0.6,2.2,0.8c0.1-0.2,0.2-0.5,0.3-0.7
				C29.2,35.6,28.5,35.3,27.9,35z"/>
			<path class="st1" d="M28.2,38.9c0.2-0.2,0.4-0.4,0.5-0.6c-0.8-0.3-1.4-0.8-1.9-1.3c-0.1,0.1-0.2,0.3-0.3,0.4
				c-0.1,0.1-0.1,0.1-0.1,0.2C26.8,38.1,27.4,38.6,28.2,38.9z"/>
		</g>
		<g>
			<g>
				<polygon class="st5" points="28.5,0.3 30,7.4 35.2,2.8 32.1,9 37.6,9.1 32.7,11.3 38.3,15.7 31.7,15.2 33,17.5 29.7,16.5 
					29.4,21.5 27.1,17.2 21.9,20 25,15 19.9,15.5 23.6,12.6 16.6,12.4 23.2,9.9 20.1,6.9 23.2,7.8 22.2,1.9 25.6,6.8 				"/>
			</g>
			<g>
				<polygon class="st6" points="28.9,8.1 29.2,10.3 31.4,10.2 29.9,11.5 32.3,13.1 29.8,13.1 30.3,15.7 28.3,13.6 25.8,14.7 
					26.8,12.6 24.1,12 26.7,11.1 25,8.7 27.6,9.9 				"/>
			</g>
		</g>
		<g>
			<path class="st2" d="M27.2,36.6c0,0-7.7,0-13,2.5v7.3h13h13v-7.3C34.9,36.6,27.2,36.6,27.2,36.6z"/>
		</g>
		<path class="st3" d="M38,38.2c0,1.8-1.7,3.2-3.5,2.8c-2.3-0.6-4.7-0.9-7.2-0.9c-4.7,0-9.1,1.1-13,3.1V45v1.4h13h13v-3.3v-4
			C39.5,38.8,38.8,38.5,38,38.2z"/>
		
			<ellipse transform="matrix(0.1523 -0.9883 0.9883 0.1523 -44.8151 85.1721)" class="st2" cx="27.2" cy="68.7" rx="27.2" ry="27.2"/>
		<ellipse transform="matrix(0.866 -0.5 0.5 0.866 -26.4528 17.8357)" class="st4" cx="20.1" cy="58.3" rx="15.7" ry="11.8"/>
		<path class="st3" d="M48,51.1c0.9,2.7,1.4,5.7,1.4,8.7c0,15-12.2,27.2-27.2,27.2c-8.3,0-15.8-3.7-20.8-9.6
			C5.1,88.2,15.2,96,27.2,96c15,0,27.2-12.2,27.2-27.2C54.5,62,52.1,55.9,48,51.1z"/>
	</g>
</g>
</svg>
