<?xml version="1.0" encoding="utf-8"?>
<!-- Generator: Adobe Illustrator 23.0.2, SVG Export Plug-In . SVG Version: 6.00 Build 0)  -->
<svg version="1.1" id="Layer_1" xmlns="http://www.w3.org/2000/svg" xmlns:xlink="http://www.w3.org/1999/xlink" x="0px" y="0px"
	 viewBox="0 0 40 40" style="enable-background:new 0 0 40 40;" xml:space="preserve">
<style type="text/css">
	.st0{fill:#B6A79A;}
</style>
<g>
	<path class="st0" d="M20,0C9,0,0,9,0,20s9,20,20,20s20-9,20-20S31,0,20,0z M30.7,31L30,28.9c0,0-1.2,3.7-4.8,5
		c-4.4,1.6-5.2,4-5.2,4s-0.8-2.4-5.2-4c-3.6-1.3-4.8-5-4.8-5L9.2,31c0,0-2.4-3.4,0-7.9c0,0,0.3,3.3,3.4,4.8l-1.9,0.3
		c0,0,3.3,4.2,6.1,2.7c2.6-1.3,1.8-15,1.7-17.4h-2c-1,0-1.8-0.8-1.8-1.8c0-1,0.8-1.8,1.8-1.8h2.1V9.5c-1.4-0.6-2.4-1.9-2.4-3.5
		c0-2.1,1.7-3.8,3.8-3.8c2.1,0,3.8,1.7,3.8,3.8c0,1.6-1,3-2.4,3.5v0.6h2.1c1,0,1.8,0.8,1.8,1.8c0,1-0.8,1.8-1.8,1.8h-2
		C21.3,16,20.6,29.6,23.1,31c2.8,1.5,6.1-2.7,6.1-2.7l-1.9-0.3c3.1-1.5,3.4-4.8,3.4-4.8C33.2,27.6,30.8,31,30.7,31z"/>
	<path class="st0" d="M22.2,5.9c0-1.2-1-2.2-2.2-2.2c-1.2,0-2.2,1-2.2,2.2s1,2.2,2.2,2.2C21.2,8.1,22.2,7.1,22.2,5.9z"/>
</g>
</svg>
