<?xml version="1.0" encoding="utf-8"?>
<!-- Generator: Adobe Illustrator 21.1.0, SVG Export Plug-In . SVG Version: 6.00 Build 0)  -->
<svg version="1.1" id="圖層_1" xmlns="http://www.w3.org/2000/svg" xmlns:xlink="http://www.w3.org/1999/xlink" x="0px" y="0px"
	 viewBox="0 0 841.9 261" style="enable-background:new 0 0 841.9 261;" xml:space="preserve">
<style type="text/css">
	.st0{fill:#534741;}
</style>
<g>
	<g>
		<path class="st0" d="M82,16.1c-1.3,3.2-1,6.9-0.6,10.5l1.1,10.9l2.3,21.7l0,0l-1.2-1.3c16,1.2,31.8,2.9,47.7,3.9
			c4,0.3,8,0.5,12,0.7c4,0.2,8,0.4,12,0.5c8,0.2,16,0.2,24-0.1c8-0.3,16-0.9,23.9-1.8l6-0.7l3-0.4l3-0.4l5.9-0.9
			c1-0.2,1.8-0.4,2.6-0.7c0.7-0.3,1.2-0.8,1.6-1.5c0.8-1.4,1-3.3,1.1-5.2c0.2-2,0.3-4,0.4-6c0.3-4,0.4-7.9,0.3-11.9
			c-0.1-3.9-0.4-7.8-1.2-11.6c-0.7-3.8-1.9-7.4-3.6-10.8l2.5,1.3c-11.5,2-23.4,2.3-35.1,0.7c-2.9-0.4-5.8-0.9-8.7-1.5
			c-2.9-0.6-5.7-1.4-8.5-2.1c-2.7-0.7-5.4-1.4-8.1-1.9c-2.7-0.4-5.3-0.6-8.1-0.4c-5.4,0.3-11.2,1.3-16.9,2
			c-5.7,0.6-11.5,1.2-17.3,1.5c-5.8,0.4-11.5,0.5-17.3,0.6c-5.8,0-11.5-0.1-17.3-0.5l0,0l0.1,0c-1.2,0.7-2.3,1.5-3.4,2.3
			C83.4,13.9,82.5,15,82,16.1z M80.9,15.6c0.7-1.4,1.8-2.5,2.9-3.4c1.2-0.9,2.4-1.6,3.7-2.2l0.1,0l0.1,0l0,0
			c11.5-0.6,22.9-1.6,34.3-2.9c5.7-0.7,11.3-1.4,17-2.4c2.8-0.4,5.6-0.9,8.5-1.4c2.9-0.5,5.8-1,8.8-1.2c3-0.2,6.1-0.1,9.1,0.3
			c3,0.4,5.9,1.1,8.7,1.8c2.8,0.7,5.5,1.5,8.3,2.1c2.7,0.6,5.5,1.1,8.3,1.5c11.1,1.6,22.5,1.7,33.6-0.1l1.7-0.3l0.7,1.5
			c1.8,3.8,3,7.9,3.7,12.1c0.7,4.1,0.9,8.3,0.8,12.4c-0.1,4.1-0.5,8.1-1,12.1c-0.2,2-0.5,4-0.8,6c-0.3,2-0.5,4.2-1.8,6.3
			c-0.7,1-1.7,1.9-2.8,2.4c-1.1,0.5-2.2,0.6-3.2,0.8l-6,0.6c-4,0.4-8,0.8-12,1.2c-4,0.3-8,0.7-12,1c-2,0.1-4,0.3-6,0.5l-6,0.4
			c-8,0.5-16,1-24.1,1.2c-8,0.2-16.1,0.4-24.1,0.1c-16.1-0.4-32.2-1.9-48-5.2L82,60.5l-0.1-1l0,0l-1.5-21.8l-0.7-10.9
			c-0.1-1.8-0.2-3.7-0.1-5.6C79.7,19.3,80.1,17.4,80.9,15.6z"/>
	</g>
	<g>
		<path class="st0" d="M388,57.8c1.2-0.5,2.4-1.1,3.5-1.8l-0.1,0.4c-1.7-3.4-2.1-7.3-1.3-11c0.5-3.7,4.1-6.9,2.3-9.9
			c-0.7-1.5-2-2.7-3.3-3.9c-1.3-1.2-2.7-2.4-4.2-3.4c-2.9-2.1-6-3.9-9.2-5.3c-3.2-1.4-6.6-2.3-10.1-2.6c-3.5-0.3-7-0.3-10.5,0
			c-3.6,0.3-7.2,0.8-10.8,1.2c-3.7,0.4-7.3,0.8-11,1.1c-7.4,0.6-14.7,0.9-22.1,1.1c-3.7,0.1-7.4,0.1-11,0.2l-5.5,0.1
			c-1.8,0-3.7,0-5.5,0c-7.4,0-14.7,0-22.1-0.1l-11-0.2c-3.7-0.1-7.4-0.2-11-0.4l1.5-1.5c0.9,7.5,1.9,14.9,2.8,22.4
			c0.5,3.7,0.9,7.5,1.3,11.2c0.2,1.9,0.4,3.7,0.9,4.8c0.3,0.6,0.6,1,1,1.3c0.4,0.3,1,0.6,1.7,0.7c1.4,0.3,3.1,0.3,4.9,0.2l5.6-0.2
			l11.3-0.4c7.5-0.3,15-0.5,22.5-0.7c7.5-0.1,15-0.3,22.5-0.4l5.6,0l5.6,0c3.8,0,7.5,0.1,11.3,0.2c7.5,0.1,15,0.3,22.5,0.3
			c3.7,0,7.5-0.1,11.2-0.5C380.9,60.1,384.6,59.2,388,57.8z M388.2,58.3c-3.5,1.5-7.2,2.4-10.9,3c-3.7,0.6-7.5,0.9-11.3,1.1
			c-7.5,0.5-15,1.1-22.5,1.6c-3.7,0.3-7.5,0.6-11.2,0.8l-5.6,0.3l-5.6,0.3c-7.5,0.4-15,0.6-22.5,0.9c-7.5,0.2-15,0.4-22.5,0.6
			L264.7,67l-5.6,0.1c-1.9,0-4,0.1-6.3-0.5c-1.1-0.3-2.3-0.8-3.4-1.7c-1-0.8-1.9-2-2.3-3.1c-0.9-2.3-0.9-4.4-1.1-6.2
			c-0.3-3.7-0.6-7.5-0.9-11.2c-0.6-7.5-1-15-1.5-22.5l-0.1-1.6l1.6,0.2c3.6,0.4,7.3,0.7,10.9,1c3.7,0.3,7.3,0.5,11,0.7
			c7.3,0.3,14.7,0.4,22,0.2c3.7-0.1,7.3-0.3,11-0.5c3.7-0.3,7.3-0.5,11-0.9c7.3-0.7,14.6-1.5,21.8-2.4c7.3-0.8,14.4-2.1,21.9-2.7
			c3.8-0.2,7.6-0.3,11.4,0.4c1.9,0.3,3.8,0.8,5.6,1.4c1.8,0.6,3.6,1.4,5.3,2.3c3.4,1.7,6.5,4,9.3,6.5c1.4,1.3,2.7,2.6,4,3.9
			c1.2,1.4,2.6,2.8,3.3,4.7c0.4,0.9,0.6,2,0.4,3.1c-0.2,1-0.6,1.9-1.1,2.8c-0.5,0.8-0.9,1.6-1.3,2.4c-0.4,0.8-0.7,1.7-0.9,2.5
			c-0.9,3.5-0.6,7.3,1,10.5l0.1,0.2l-0.2,0.1C390.6,57.2,389.4,57.8,388.2,58.3z"/>
	</g>
	<g>
		<path class="st0" d="M560.5,60.4c1-0.3,1.9-0.6,2.6-1.1c0.8-0.5,1.4-1.1,2-1.9c0.5-0.8,1-1.7,1.4-2.6c0.4-0.9,0.9-1.9,1.2-2.9
			c1.3-3.9,2.1-8,2-12.1c-0.1-4.1-0.7-8.2-2.1-12.1c-1.4-3.8-3.4-7.5-6-10.6l0,0l1.2,0.6c-11.3,0-22.5,0.2-33.7,0.6
			c-11.3,0.5-22.6,1.1-33.9,1.7c-11.3,0.6-22.7,1.1-34,1.3c-11.4,0.2-22.7-0.2-34.1-1.6l1-0.3l-5,4.8l-2.5,2.4
			c-0.4,0.4-0.7,0.8-1.1,1.2c-0.3,0.4-0.6,0.8-0.9,1.3c-1.1,1.8-1.7,3.8-2,5.9c-0.3,2.1-0.2,4.3,0,6.5c0.5,4.4,2,8.6,3.3,13.2
			c0.6,2.3,1.2,4.7,1.5,7.1c0.3,2.5,0.3,5-0.1,7.6l0,0l-1.7-2.7c5.6,1.3,11.3,1.9,17.1,1.9c5.8,0,11.6-0.4,17.5-1.1
			c5.9-0.7,11.7-1.5,17.7-2.2c5.9-0.7,12-1.3,18-1.4c6.1-0.1,12.1,0.2,18,0.5c5.9,0.4,11.8,0.7,17.7,0.7c5.9,0,11.7-0.5,17.6-1.5
			c2.9-0.5,5.8-1,8.7-1.6l4.4-0.9l2.2-0.5L560.5,60.4z M561,62.5c-1.5,0.4-3,0.7-4.4,1.1l-4.4,1c-2.9,0.6-5.8,1.3-8.8,1.9
			c-2.9,0.6-5.9,1.1-8.9,1.5c-3,0.4-6,0.6-9,0.8c-6,0.3-12,0.2-18,0.1c-5.9-0.1-11.9-0.2-17.7,0c-5.8,0.3-11.7,0.9-17.5,1.7
			c-5.9,0.8-11.8,1.7-17.7,2.3c-6,0.6-12,1.1-18.1,1c-6.1-0.1-12.3-0.8-18.2-2.4l-2.1-0.6l0.3-2.1l0,0c0.3-2,0.4-4.1,0.2-6.3
			c-0.2-2.2-0.6-4.3-1.1-6.6l-1.6-6.8c-0.5-2.3-1-4.7-1.1-7.2c-0.2-2.4-0.1-4.9,0.3-7.4c0.4-2.5,1.3-4.9,2.8-7
			c0.3-0.5,0.8-1,1.2-1.5c0.4-0.5,0.9-0.9,1.4-1.3l2.6-2.3l5.3-4.6l0.4-0.4l0.5,0.1c11.1,1.9,22.4,2.6,33.7,2.4
			c11.3-0.1,22.6-1.2,33.8-2.4c11.3-1.2,22.5-2.6,33.9-3.4c11.3-0.8,22.8-1.1,34.2,0.4l0.9,0.1l0.3,0.5l0,0
			c2.6,3.6,4.6,7.6,5.9,11.8c1.3,4.2,1.9,8.6,1.8,12.9c-0.1,4.4-0.8,8.7-2.3,12.8c-0.3,1-0.8,2-1.2,3c-0.4,1-0.9,2-1.6,3
			c-0.7,1-1.5,1.9-2.6,2.5C563.2,61.8,562.1,62.2,561,62.5z"/>
	</g>
	<g>
		<path class="st0" d="M713.2,56.5c0.8-0.1,1.6-0.4,2.2-1c0.6-0.6,1.1-1.3,1.4-2.1c0.3-0.8,0.6-1.6,0.8-2.5c0.2-0.8,0.4-1.7,0.6-2.5
			c0.7-3.4,1-6.9,0.9-10.4c-0.1-3.5-0.5-6.9-1.3-10.3c-0.4-1.7-0.9-3.3-1.5-4.9c-0.3-0.8-0.6-1.6-0.9-2.4c-0.3-0.8-0.7-1.6-1-2
			c-0.2-0.2-0.2-0.2-0.4-0.3c-0.2-0.1-0.5-0.1-0.9-0.2l-2.6-0.3c-1.7-0.2-3.5-0.5-5.2-0.7l-5.2-0.6l-2.6-0.3l-2.6-0.3
			c-6.9-0.9-13.9-1.5-20.8-2.1c-13.9-1.1-27.9-1.9-41.9-1c-7,0.4-14,1.2-20.9,2.2l-5.2,0.8l-5.2,1c-3.4,0.6-6.8,1.5-10.3,2.2
			l1.1-1.4c0.2,7.3,0.5,14.5,0.7,21.8c0.2,7.3,0.3,14.5,0.4,21.8l-2.5-2.4l15.3-0.7c5.1-0.2,10.2-0.4,15.3-0.6l7.7-0.3l7.7-0.2
			c5.1-0.1,10.2-0.3,15.3-0.3c10.2-0.1,20.5,0.1,30.7,0.2c5.1,0.1,10.2,0.1,15.4,0.1C703,56.8,708.2,56.8,713.2,56.5z M713.3,57
			l-1.9,0.2l-1.9,0.1l-3.8,0.2c-2.6,0.1-5.1,0.3-7.7,0.4c-5.1,0.3-10.2,0.7-15.3,1.1c-10.2,0.8-20.4,1.8-30.6,2.3
			c-5.1,0.3-10.2,0.5-15.3,0.7l-7.7,0.3l-7.7,0.3c-5.1,0.2-10.2,0.3-15.3,0.4l-15.3,0.3l-2.5,0.1l0-2.5c0.1-7.3,0.2-14.5,0.3-21.8
			c0.2-7.3,0.4-14.5,0.6-21.8l0-1.2l1.1-0.2c7-1.2,13.9-2.2,20.9-3c1.7-0.2,3.5-0.4,5.2-0.6c1.7-0.2,3.5-0.4,5.2-0.6
			c3.5-0.3,7-0.7,10.5-0.9c14-1.1,28.1-2,42.3-1.5c7.1,0.3,14.1,0.8,21.1,1.8c3.5,0.4,7,1.1,10.5,1.7c1.7,0.4,3.5,0.7,5.2,1.1
			l2.6,0.6c0.5,0.1,1,0.3,1.6,0.6c0.6,0.3,1.2,0.9,1.6,1.4c0.4,0.5,0.6,1.1,0.7,1.5c0.2,0.5,0.3,0.9,0.4,1.3
			c0.3,0.9,0.5,1.7,0.7,2.6c0.4,1.8,0.8,3.5,1,5.3c0.5,3.6,0.7,7.1,0.5,10.7c-0.2,3.6-0.7,7.1-1.5,10.5c-0.2,0.9-0.4,1.7-0.7,2.6
			c-0.2,0.8-0.5,1.7-0.9,2.5c-0.4,0.8-0.9,1.6-1.6,2.2C715.1,56.5,714.2,56.9,713.3,57z"/>
	</g>
	<g>
		<path class="st0" d="M307.1,116.5c1-3.1,1.8-6.3,2.2-9.6c0.4-3.3,0.5-6.6,0.5-10c-0.1-6.7-1.1-13.4-2-20.1l0,0l1.9,1
			c-1.5,0.9-3.4,1.2-5.1,1c-1.7-0.2-3.3-0.7-4.7-1.3c-2.9-1.2-5.4-2.7-7.8-3.4c-2.5-0.7-5.2-0.8-7.9-0.5c-2.8,0.2-5.6,0.8-8.5,1.3
			c-5.8,1-11.6,2-17.5,2.8c-5.9,0.8-11.7,1.4-17.6,2c-11.7,1.2-23.5,1.9-35.3,2.6c-11.8,0.7-23.5,1.1-35.3,1.8l0,0l1-0.5
			c-4.4,6.3-6.3,14-5.9,21.5c0.2,3.8,1,7.5,2.4,10.9c0.3,0.9,0.7,1.7,1.1,2.6c0.4,0.9,0.9,1.6,1.3,2.4c0.4,0.8,1,1.5,1.5,2.3
			c0.5,0.8,1.1,1.5,1.6,2c0.6,0.5,1,0.8,1.6,1c0.6,0.2,1.3,0.2,2.1,0.2c0.8-0.1,1.7-0.2,2.6-0.4l2.9-0.7c3.9-0.9,7.8-1.7,11.8-2.4
			c7.9-1.5,15.9-2.4,23.9-3.1c16-1.3,32.1-1,48.1,0.9l6,0.8l5.9,0.9l5.9,1.1c2,0.4,3.9,0.7,5.8,1c3.8,0.5,7.6,0.7,10.9-0.6
			c1.6-0.6,3-1.6,4.2-2.8C305.6,119.9,306.4,118.3,307.1,116.5z M310,117.6c-0.7,2-1.6,4-3,5.8c-1.5,1.7-3.4,3.1-5.5,4
			c-2.1,0.9-4.3,1.2-6.4,1.3c-2.1,0.1-4.2,0-6.3-0.2c-2-0.2-4.1-0.5-6-0.9l-5.8-0.9l-5.9-0.7l-5.9-0.6c-15.7-1.4-31.5-1.6-47.2-0.3
			c-7.8,0.6-15.7,1.7-23.4,2.9c-3.9,0.7-7.8,1.4-11.6,2.2l-2.9,0.6c-1,0.2-2.1,0.4-3.3,0.5c-1.2,0.1-2.5,0-3.8-0.4
			c-1.3-0.4-2.5-1.3-3.4-2.1c-0.9-0.9-1.5-1.7-2.1-2.6c-0.6-0.9-1.2-1.7-1.7-2.7c-0.5-0.9-1.1-1.8-1.5-2.8c-0.4-1-0.9-1.9-1.2-2.9
			c-1.4-4-2.2-8.1-2.3-12.3c-0.1-4.2,0.6-8.4,1.8-12.3c1.3-4,3.3-7.7,6-10.9l0.4-0.5l0.6,0l0,0c5.9,0.2,11.8,0.3,17.6,0.1
			c2.9-0.1,5.9-0.2,8.8-0.3c2.9-0.2,5.9-0.3,8.8-0.6c5.9-0.4,11.7-1,17.5-1.7c5.8-0.7,11.7-1.5,17.5-2.4c11.6-1.8,23.1-3.9,34.7-6.1
			c2.9-0.6,5.8-1.1,8.9-1.4c3.1-0.2,6.4-0.1,9.6,0.9c3.2,1.1,5.7,2.8,8.1,4.1c2.5,1.3,4.9,2.1,7.1,1.3l1.7-0.7l0.2,1.7l0,0
			c1,6.7,2,13.5,2.2,20.5c0.1,3.5,0.1,6.9-0.3,10.4C311.8,110.7,311.1,114.2,310,117.6z"/>
	</g>
	<g>
		<path class="st0" d="M498.7,126.7c-0.6,1.1-1.7,2.2-2.9,2.7c-1.2,0.5-2.4,0.6-3.6,0.7l-6.5,0.2l-12.9,0.5l-25.8,1
			c-17.2,0.7-34.4,1.1-51.7,1.2l-25.9-0.1c-8.6,0-17.2-0.1-25.9,0c-1.1,0-2.5-0.1-3.6-1c-1.1-0.9-1.5-2.2-1.7-3.3
			c-0.2-1.1-0.3-2.2-0.4-3.3l-0.4-3.2c-0.5-4.3-1-8.6-1.5-12.8c-1.1-8.5-2.2-17.1-3.6-25.6l0,0l-0.2-1.4l1.6-0.1
			c13.7-0.7,27.3-1,41.1-0.6c6.9,0.2,13.7,0.6,20.6,1.2c3.4,0.3,6.9,0.7,10.3,1.1c3.4,0.4,6.8,0.9,10.1,1.2
			c13.3,1.5,26.5-1,39.9-3.4c6.7-1.2,13.6-2.3,20.6-2.7c7-0.4,14.1,0.1,20.8,2l0,0l0.6,0.1l0.3,0.5c1.9,3.4,3.2,7.2,3.9,11
			c0.7,3.8,0.8,7.7,0.7,11.5c-0.2,3.8-0.6,7.6-1.3,11.3c-0.3,1.9-0.6,3.7-1,5.6l-0.5,2.8C499.5,124.7,499.3,125.7,498.7,126.7z
			 M496.7,125.6c0.7-1.3,0.9-3.3,1.3-5.1c0.4-1.8,0.7-3.7,1-5.5c0.6-3.7,1.1-7.4,1.2-11.1c0.1-3.7-0.1-7.4-0.8-10.9
			c-0.7-3.6-2-7-3.9-10l0.9,0.6l0,0c-6.6-1.1-13.3-1-19.9-0.3c-6.6,0.7-13.3,1.9-20,3.2c-6.7,1.3-13.4,2.6-20.4,3.4
			c-6.9,0.8-14.1,1-21,0.1c-3.5-0.4-6.9-0.9-10.2-1.3c-3.4-0.5-6.7-0.9-10.1-1.2c-6.7-0.7-13.5-1.2-20.3-1.5
			c-13.6-0.7-27.2-0.8-40.9-1.2l1.3-1.5l0,0c0.6,8.6,1.5,17.2,2.4,25.7c0.5,4.3,1,8.6,1.5,12.8l0.4,3.2c0.1,1.1,0.3,2.2,0.4,3.1
			c0.2,1,0.6,1.9,1.2,2.3c0.6,0.5,1.5,0.6,2.5,0.6c8.6-0.3,17.2-0.7,25.8-1.1l25.8-1.1c17.2-0.6,34.4-1,51.7-1l25.8-0.1l12.9-0.1
			l6.4-0.1c1,0,2-0.1,2.8-0.4C495.8,126.9,496.3,126.4,496.7,125.6z"/>
	</g>
	<g>
		<path class="st0" d="M650.7,117.5c2.3-2.6,4.1-5.7,5.1-9c1-3.4,1.5-6.9,1.5-10.5c0-3.6-0.5-7.2-1.1-10.7c-0.3-1.8-0.7-3.4-1.5-4.4
			c-0.7-1-2-1.5-3.6-1.9c-1.6-0.3-3.4-0.4-5.3-0.6c-1.8-0.2-3.7-0.4-5.5-0.5c-3.7-0.3-7.3-0.6-11-0.9c-7.3-0.5-14.7-1-22.1-1.3
			c-7.4-0.4-14.8-0.7-22.1-0.8c-7.4-0.2-14.8-0.3-22.2-0.3c-7.4,0.1-14.8,0.2-22.2,0.4c-7.4,0.2-14.8,0.6-22.2,1.2l0,0l1.3-1.2
			c-0.2,7.5-0.1,15,0.4,22.5c0.2,3.7,0.6,7.5,1,11.2c0.2,1.9,0.5,3.7,0.7,5.6l0.4,2.8c0.1,0.9,0.3,1.7,0.5,2.4
			c0.2,0.7,0.5,1.2,0.9,1.6c0.3,0.4,0.8,0.6,1.4,0.8c1.2,0.4,2.9,0.3,4.8,0.2l11.3-0.7c7.5-0.5,15.1-0.9,22.6-1.3
			c15.1-0.8,30.2-1.5,45.2-2l22.6-0.8c1,0,2-0.1,3.1,0.1c1.1,0.1,2.3,0.5,3.3,1.1c1,0.6,1.7,1.3,2.4,1.7c0.7,0.5,1.2,0.7,1.8,0.7
			c1.3,0.1,3-0.8,4.4-1.7C648.2,120,649.5,118.8,650.7,117.5z M652.9,119.5c-1.3,1.5-2.9,2.8-4.6,3.9c-0.9,0.5-1.7,1-2.7,1.4
			c-1,0.4-2.1,0.7-3.3,0.7c-0.6,0-1.3-0.1-1.9-0.4c-0.6-0.2-1.1-0.5-1.6-0.8c-0.9-0.6-1.6-1.2-2.2-1.6c-1.2-0.7-2.8-0.7-4.6-0.6
			l-22.6,1.7c-15.1,1.1-30.1,2.1-45.2,2.9c-7.5,0.4-15.1,0.9-22.6,1.2l-11.3,0.5c-1.9,0.1-4,0.3-6.5-0.5c-1.2-0.4-2.5-1.1-3.4-2.1
			c-0.9-1-1.5-2.2-1.9-3.3c-0.4-1.1-0.5-2.2-0.7-3.1l-0.4-2.9c-0.2-1.9-0.4-3.8-0.6-5.7c-0.3-3.8-0.5-7.6-0.6-11.4
			c-0.2-7.6,0.1-15.3,1-22.8l0.1-1.3l1.1,0l0,0c14.8,0.3,29.6-0.2,44.4-0.7c14.8-0.6,29.6-1.3,44.5-1.2c7.4,0.1,14.9,0.3,22.3,0.9
			l5.6,0.4l5.6,0.6c1.9,0.2,3.7,0.4,5.5,0.7c1.8,0.3,3.7,0.4,5.7,0.9c1,0.2,2.1,0.6,3.1,1.2c1,0.6,2,1.4,2.7,2.4
			c1.4,2.1,1.7,4.3,2,6.1c0.5,3.7,0.9,7.5,0.7,11.4c-0.1,3.8-0.6,7.7-1.9,11.4C657.5,113.1,655.5,116.6,652.9,119.5z"/>
	</g>
	<g>
		<path class="st0" d="M6.7,117.6c-0.9,3.1-1.6,6.3-1.7,9.5c0,3.2,0.5,6.5,2.5,8.9c1,1.2,2.2,2.1,3.6,2.7c1.4,0.6,2.9,0.8,4.5,0.9
			c3.1,0.2,6.3-0.4,9.5-0.7c12.9-1.6,25.8-3,38.8-3.8c13-0.9,26-1.2,38.9-1.8c3.2-0.1,6.5-0.4,9.7-0.5l9.7-0.7l4.9-0.4
			c1.6-0.1,3.2-0.3,4.6-0.8c1.4-0.5,2.5-1.4,2.9-2.7c0.4-1.3,0.2-2.9,0.2-4.5l-1-19.5c-0.2-3.3-0.3-6.4-1-9.4
			c-0.7-2.9-2-5.6-4.1-6.7c-2.1-1.2-4.9-0.9-8.2-0.4c-3.2,0.4-6.5,0.9-9.7,1.3c-6.5,0.8-13,1.4-19.5,1.9c-26,2-52.3,1.2-78.1-3
			l1.2-0.9l-3.8,15.4l-1.9,7.7C8.1,112.5,7.4,115,6.7,117.6z M6.2,117.4c0.7-2.5,1.3-5.1,1.9-7.7c0.6-2.6,1.1-5.2,1.6-7.8
			c0.5-2.6,0.9-5.2,1.4-7.8c0.4-2.6,0.8-5.2,1.2-7.8l0.1-1l1.1,0.1C39.4,86.7,65.2,87,91,85.5c6.4-0.4,12.9-0.8,19.3-1.5
			c3.2-0.3,6.4-0.7,9.6-1c1.6-0.2,3.3-0.4,5.2-0.3c1.8,0.1,3.9,0.5,5.7,1.6c1.7,1.1,3,2.7,3.9,4.4c0.9,1.7,1.3,3.4,1.6,5.1
			c0.6,3.4,0.5,6.8,0.5,10l0,19.5c0,1.6,0.2,3.3-0.4,5.1c-0.3,0.9-0.9,1.7-1.6,2.4c-0.7,0.6-1.6,1-2.4,1.3c-1.7,0.6-3.4,0.7-5,0.8
			l-4.9,0.4l-9.7,0.8c-3.2,0.3-6.5,0.6-9.7,1c-12.9,1.4-25.8,3-38.7,4.1c-12.9,1.2-25.9,1.8-38.9,2.2c-3.2,0.1-6.6,0.3-9.9-0.2
			c-1.7-0.2-3.4-0.7-4.9-1.5c-1.6-0.8-2.9-1.9-3.9-3.3c-1-1.4-1.7-3-2-4.6c-0.3-1.6-0.4-3.3-0.3-4.9C4.6,123.8,5.3,120.6,6.2,117.4z
			"/>
	</g>
	<g>
		<path class="st0" d="M818.4,125.3c1.1-1.6,1.8-3.4,2.2-5.3c0.4-1.9,0.7-3.8,0.7-5.7c0.1-1.9,0-3.9,0-5.8c0-2,0-3.9-0.1-5.9
			c-0.1-3.9,0.1-7.9-1-11.3c-0.6-1.7-1.6-3.1-3-3.9c-1.4-0.8-3.2-1.1-5-1.2l-11.6-0.5c-3.9-0.2-7.8-0.3-11.7-0.5
			c-3.9-0.2-7.8-0.4-11.7-0.6l-11.7-0.6C750.1,83,734.6,82,719,82c-15.6-0.1-31.2,0.8-46.7,2.1l1.3-1.3l0.9,23.8l0.2,5.9
			c0.1,2,0.1,4,0.2,5.9c0.1,1.9,0.4,3.6,1.1,4.9c0.7,1.3,1.7,2.4,3.2,3.1c1.4,0.8,3.1,1.3,4.9,1.6c0.9,0.2,1.8,0.3,2.8,0.4l2.9,0.2
			c1.9,0.1,3.9,0.4,5.8,0.4l5.9,0.2c7.8,0,15.7-0.2,23.5-0.7c15.7-0.9,31.6-2.7,47.6-2.5c8,0.1,16,0.5,23.9,1.4l5.9,0.9
			c2,0.2,3.9,0.7,5.9,0.8c1.9,0.2,3.9,0.1,5.8-0.5C815.7,128,817.3,126.8,818.4,125.3z M818.8,125.6c-1.2,1.7-2.8,3-4.8,3.7
			c-1.9,0.7-4,0.7-6,0.6c-2-0.1-4-0.4-5.9-0.6c-2-0.2-3.9-0.4-5.9-0.5c-7.9-0.4-15.8-0.1-23.7,0.5c-2,0.2-3.9,0.3-5.9,0.5
			c-2,0.2-3.9,0.4-5.9,0.6l-11.8,1.2c-3.9,0.4-7.9,0.8-11.8,1.2c-4,0.4-7.9,0.7-11.9,1c-8,0.5-16,0.9-24,0.6l-6-0.3
			c-2-0.1-4-0.4-6-0.5c-1-0.1-2-0.2-3-0.3c-1-0.1-2.1-0.3-3.1-0.5c-2.1-0.4-4.2-1.1-6.3-2.2c-1-0.6-2-1.3-2.9-2.2
			c-0.9-0.9-1.6-1.9-2.1-3.1c-1-2.2-1.3-4.5-1.4-6.6c-0.1-2.1,0-4,0-6l0.1-6l0.4-23.8l0-1.3l1.2,0c7.8-0.2,15.6-0.4,23.4-0.6
			l23.4-0.5c15.6-0.4,31.3-0.9,46.9-0.7c15.7,0.3,31.2,1.4,46.8,3.3c2,0.3,4.2,0.8,6.1,2.1c1.9,1.3,3.1,3.5,3.6,5.5
			c0.5,2.1,0.5,4.1,0.5,6.1l-0.3,5.9c-0.2,3.9-0.3,7.8-0.5,11.7c-0.2,2-0.4,3.9-0.8,5.8C820.7,122,820,123.9,818.8,125.6z"/>
	</g>
	<g>
		<path class="st0" d="M383.3,180.7c1.4-0.7,2.6-1.7,3.3-3.1c0.7-1.4,1.1-3,1.3-4.7c0.4-3.4,0.5-6.8,0.2-10.2
			c-0.3-3.4-0.9-6.7-1.9-9.9c-0.5-1.6-1-3.2-1.6-4.8c-0.6-1.6-1.3-3.1-2.1-4.2c-0.4-0.5-0.9-0.9-1.4-1.2c-0.5-0.3-1.2-0.5-1.9-0.7
			c-1.4-0.3-3.1-0.3-4.7-0.3c-3.3,0-6.6,0.5-10,1c-3.4,0.5-6.8,1.1-10.4,1.4c-3.5,0.3-7.3,0.2-10.9-0.4c-3.5-0.7-6.8-1.7-10.1-2.4
			c-3.2-0.6-6.6-0.8-10-0.7c-3.4,0.1-6.8,0.4-10.3,0.7c-3.4,0.3-6.9,0.6-10.3,1c-13.8,1.4-27.5,3-41.1,5.4l0,0l1.2-0.9
			c-1.9,5.8-2.6,11.9-2.7,18.1c-0.1,6.1,0.4,12.3,0.9,18.5l0,0l-2.3-2.1c5.2-0.2,10.4-0.2,15.7-0.4l15.7-0.2
			c10.4-0.1,20.9-0.1,31.3,0c10.4,0.1,20.9,0.5,31.3,0.8c5.2,0.2,10.4,0.3,15.7,0.4c2.6,0,5.2,0.1,7.8,0.1
			C378.6,181.9,381.1,181.7,383.3,180.7z M384,182.2c-2.6,1.2-5.3,1.4-8,1.5l-7.8,0.2c-5.2,0.1-10.4,0.4-15.7,0.6
			c-10.4,0.4-20.9,0.9-31.3,1.1c-10.4,0.2-20.9,0.3-31.3,0.4l-15.7,0c-5.2-0.1-10.4-0.1-15.7-0.2l-2.2,0l-0.1-2.1l0,0
			c-0.5-6.3-0.6-12.7-0.1-19c0.5-6.4,1.6-12.8,3.9-18.8l0.3-0.9l0.8-0.1l0,0c13.8-0.8,27.6-2.4,41.3-4.2c3.4-0.4,6.8-1,10.3-1.4
			c3.4-0.5,6.8-1.1,10.4-1.4c3.5-0.3,7.1-0.4,10.7,0.1c3.6,0.5,6.9,1.3,10.2,1.8c3.2,0.5,6.5,0.4,9.8,0.1c3.3-0.3,6.7-1,10.1-1.4
			c1.7-0.3,3.5-0.5,5.3-0.6c1.8-0.1,3.6-0.2,5.4-0.1c1.8,0.1,3.6,0.2,5.6,0.7c1,0.3,2,0.7,2.9,1.3c0.9,0.6,1.8,1.4,2.4,2.3
			c1.2,1.8,1.7,3.5,2.2,5.2c0.5,1.7,1,3.4,1.4,5.2c0.7,3.5,1.2,7,1.3,10.5c0.1,3.5-0.1,7-0.6,10.5c-0.3,1.7-0.6,3.6-1.6,5.2
			C387.3,180.1,385.7,181.4,384,182.2z"/>
	</g>
	<g>
		<path class="st0" d="M212.5,179c-7.8,0.7-15.6,0.8-23.4,1c-7.8,0.2-15.5,0.4-23.1,1.1c-7.6,0.8-15.2,2-22.4,4.3
			c-3.6,1.1-7.3,2.5-11.3,3.4c-3.9,0.9-8.2,1.3-12.3,0.8c-4.1-0.5-8-1.6-11.7-3c-3.7-1.3-7.3-2.8-10.9-4.5c-3.5-1.7-7-3.8-10.1-6.4
			c-1.5-1.3-2.9-2.8-4.1-4.4c-1.2-1.6-2.2-3.4-2.8-5.4c-1.3-3.9-1.2-8.2,0.3-11.9c1.4-3.8,3.9-7.2,7.2-9.5c3.3-2.4,7.3-3.7,11.3-4
			c4.1-0.4,8.2,0.3,12.1,1.9l0,0l-0.7-0.2c12.9-0.8,25.6-2.2,38.5-4c12.8-1.7,25.7-3.7,38.7-4.8c3.3-0.2,6.5-0.5,9.8-0.5
			c1.6,0,3.3-0.1,4.9-0.1l4.9,0c1.6,0,3.3,0.1,4.9,0.2c1.6,0.1,3.3,0.1,4.9,0.3l4.9,0.5c0.8,0.1,1.6,0.1,2.6,0.3
			c0.5,0.1,1.1,0.3,1.7,0.6c0.6,0.3,1.2,0.7,1.7,1.3c1,1.1,1.2,2.4,1.3,3.4c0.1,1,0.1,1.8,0.1,2.6l0,4.9c0,3.2,0,6.5,0,9.7
			c0,3.2,0,6.5-0.1,9.7c-0.1,3.2-0.1,6.5-0.2,9.7l0,0l0,0.4l-0.4,0.1C223.6,177.8,218,178.6,212.5,179z M212.4,177.6
			c5.5-0.3,11-0.8,16.4-2l-0.4,0.5l0,0c-0.4-3.2-0.6-6.5-0.9-9.7c-0.3-3.2-0.6-6.5-0.8-9.7c-0.3-3.2-0.5-6.5-0.7-9.7l-0.3-4.9
			c-0.1-0.8-0.1-1.6-0.2-2.2c-0.1-0.6-0.3-1-0.4-1.1c-0.1-0.1-0.3-0.2-0.9-0.3c-0.5-0.1-1.4-0.1-2.2-0.2l-4.8-0.3
			c-1.6-0.1-3.2-0.1-4.8-0.1c-1.6,0-3.2-0.1-4.8,0c-6.4,0-12.8,0.5-19.2,0.9c-12.8,1.1-25.6,2.6-38.6,4.1c-12.9,1.5-25.9,2.8-39,2.5
			l-0.4,0l-0.3-0.1l0,0c-3.1-1.8-6.9-2.6-10.6-2.6c-3.7,0.1-7.4,1.1-10.5,3.2c-3.1,2.1-5.5,5.2-6.8,8.7c-1.3,3.5-1.4,7.4-0.1,10.9
			c0.6,1.7,1.6,3.4,2.7,4.8c1.1,1.5,2.5,2.7,4,3.9c3,2.3,6.4,4.1,9.9,5.5c3.5,1.4,7.2,2.7,10.9,3.8c3.7,1.1,7.4,1.9,11,2.1
			c7.3,0.7,14.3-2.2,21.8-4.6c1.9-0.6,3.8-1,5.8-1.6c1.9-0.4,3.9-0.9,5.9-1.1c3.9-0.7,7.9-1,11.8-1.2c3.9-0.2,7.9-0.2,11.8-0.2
			c3.9,0.1,7.8,0.2,11.7,0.3C196.9,177.7,204.7,177.9,212.4,177.6z"/>
	</g>
	<g>
		<path class="st0" d="M585.5,175.4c-3.1,3.4-7.1,5.7-11.2,7.2c-4.2,1.5-8.6,2-12.9,2.1c-8.6,0.2-16.9-1.4-24.9-1.5
			c-8.1-0.1-16.3,0.7-24.6,1.5c-8.3,0.9-16.5,1.6-24.8,2.3l-24.8,2c-4.1,0.3-8.3,0.7-12.5,0.8c-4.2,0-8.5-0.2-12.6-1.7
			c-2-0.7-4-1.7-5.7-3.1c-1.7-1.3-3.2-3-4.4-4.8c-1.2-1.8-2.1-3.8-2.7-5.8c-0.7-2-1.2-4.1-1.5-6.2c-0.7-4.2-0.8-8.4-0.9-12.5
			c0-2.1-0.1-4.2-0.2-6.2c-0.1-2.1-0.1-4.2-0.2-6.2l0,0l-0.1-1.2l1.3-0.2c16.8-2,33.6-3.6,50.5-5.1c16.9-1.5,33.7-3.2,50.6-4.1
			c16.9-1,34.1-1.1,51.1,0.8c2.1,0.3,4.2,0.5,6.4,0.8c2.2,0.4,4.7,0.9,6.9,2.5c1.1,0.8,2,1.8,2.7,3c0.7,1.1,1.1,2.3,1.4,3.5
			c0.6,2.4,0.6,4.7,0.5,6.9c-0.1,2.2-0.3,4.3-0.5,6.5c-0.2,2.1-0.5,4.3-1,6.5C590.4,167.4,588.6,171.9,585.5,175.4z M582.5,172.7
			c2.5-2.8,4-6.5,4.8-10.5c0.4-2,0.7-4,0.9-6.1c0.2-2.1,0.4-4.2,0.4-6.2c0.1-2,0-4-0.5-5.7c-0.4-1.7-1.3-3.1-2.5-4
			c-1.2-0.9-3-1.3-5-1.6c-2-0.3-4.1-0.5-6.2-0.7c-16.7-1.6-33.5-1.3-50.3-0.4c-8.4,0.5-16.8,1.2-25.2,1.8l-25.3,1.9
			c-16.9,1.3-33.7,2.4-50.6,3.2l1.2-1.3l0,0c-0.1,2.1-0.2,4.2-0.2,6.2c-0.1,2.1-0.1,4.2-0.2,6.2c-0.1,4.1,0,8.3,0.6,12.3
			c0.6,4,1.8,8,4,11.4c1.1,1.7,2.5,3.1,4.1,4.3c1.6,1.2,3.4,2.1,5.3,2.7c3.8,1.2,7.9,1.4,12,1.2c4.1-0.2,8.2-0.9,12.3-1.4l24.7-3.2
			c8.2-1,16.5-2,24.7-2.8c8.2-0.9,16.6-1.8,25.1-1.5c8.6,0.2,16.7,2,24.8,1.9c4,0,7.9-0.6,11.6-1.8
			C576.6,177.5,580,175.5,582.5,172.7z"/>
	</g>
	<g>
		<path class="st0" d="M750.1,182c-0.4,0.9-0.8,1.7-1.4,2.5c-0.6,0.8-1.4,1.3-2.2,1.8c-1.7,1-3.7,1.2-5.6,1.1
			c-3.8-0.2-7.4-1.7-11-2.4c-1.8-0.4-3.6-0.7-5.4-0.7c-1.8,0-3.5,0.4-5.3,0.9c-1.7,0.5-3.5,1.1-5.2,1.7c-1.8,0.6-3.6,1.2-5.4,1.7
			c-3.7,1-7.4,1.8-11.1,2.4c-1.9,0.3-3.7,0.6-5.6,0.8c-1.9,0.2-3.8,0.4-5.6,0.5c-3.7,0.3-7.5,0.5-11.2,0.7
			c-3.7,0.2-7.5,0.2-11.2,0.4c-7.5,0.2-14.9,0.2-22.4,0.4l-11.2,0.2l-5.6,0.2c-1.9,0.1-3.8,0.1-5.7-0.2c-1-0.2-2-0.4-2.9-0.9
			c-0.9-0.4-1.8-1.1-2.5-1.9c-0.7-0.8-1.1-1.9-1.2-2.9c-0.2-1-0.2-2-0.3-2.9c0-3.7,0-7.5-0.1-11.2c-0.1-7.5-0.3-14.9-0.5-22.4l0-1.4
			l1.5,0c14.7-0.2,29.4-0.7,44.1-1.5c7.3-0.5,14.7-1,22-1.7l11-1.1l10.9-1.2c3.7-0.4,7.3-0.9,10.9-1.3l10.9-1.5l10.9-1.5l2.8-0.4
			c1-0.1,1.9-0.2,2.9-0.2c2-0.1,3.9,0,5.9,0.4c2,0.4,4.1,1.2,5.6,2.8c0.8,0.8,1.4,1.7,1.8,2.7c0.4,1,0.6,2.1,0.7,3.1
			c0.1,2-0.2,3.9-0.3,5.7l-0.5,5.5c-0.4,3.7-0.6,7.4-0.9,11c-0.2,1.8-0.2,3.7-0.4,5.5C751.1,178.4,750.8,180.3,750.1,182z
			 M749.6,181.8c0.7-1.7,0.9-3.5,1.1-5.3c0.1-1.8,0.2-3.7,0.3-5.5c0.1-3.7,0.3-7.4,0.3-11.1l0.1-5.5c0-1.9,0.1-3.7-0.2-5.3
			c-0.1-0.8-0.4-1.6-0.7-2.3c-0.4-0.7-0.8-1.3-1.4-1.7c-1.1-1-2.7-1.4-4.3-1.6c-1.6-0.2-3.4-0.1-5.1,0.1c-1.7,0.2-3.4,0.6-5.3,1
			l-5.4,1.1l-5.5,1c-7.3,1.4-14.6,2.4-22,3.4c-14.7,1.9-29.5,2.9-44.3,3.5c-7.4,0.3-14.8,0.4-22.2,0.4c-7.4-0.1-14.8-0.4-22.2-0.8
			l1.4-1.4c-0.2,7.5-0.5,14.9-0.6,22.4c-0.1,3.7-0.1,7.5-0.1,11.2c0,1.8,0.2,3.6,1.2,4.9c1,1.3,2.7,1.9,4.4,2.1
			c1.7,0.3,3.6,0.2,5.4,0l5.6-0.4l11.2-0.9c7.4-0.6,14.9-1.2,22.3-1.8c7.4-0.5,14.9-0.9,22.3-1.3c7.4-0.5,14.7-1.1,21.9-2.5
			c1.8-0.4,3.6-0.7,5.4-1.2c1.8-0.5,3.6-0.9,5.5-1.3c1.9-0.4,3.9-0.6,5.8-0.4c2,0.2,3.8,0.6,5.6,1.2c3.6,1.1,7,2.6,10.7,3
			c1.8,0.2,3.7,0,5.2-0.9c0.8-0.5,1.5-1,2.1-1.7C748.8,183.5,749.3,182.7,749.6,181.8z"/>
	</g>
	<g>
		<path class="st0" d="M165.4,205.8c-1.6,0.7-3.2,1.4-4.2,2.5c-1,1-1.4,2.5-1.6,4.1c-0.1,1.6,0,3.5,0,5.3l0.1,5.5
			c0.1,3.7,0.2,7.3,0.4,11l0.4,11l0,0l-1.1-1.3c6.2,1,12.5,0.8,19,0.4c6.4-0.4,13-1,19.6-0.8c3.3,0.1,6.7,0.5,10,1.1
			c3.3,0.6,6.5,1.4,9.6,2.2c3.2,0.8,6.3,1.6,9.4,2.3c1.6,0.4,3.2,0.6,4.7,0.9c1.6,0.2,3.2,0.5,4.8,0.7c6.4,0.9,12.9,1.2,19.4,1
			c6.5-0.1,13-0.6,19.4-1.2c3.2-0.3,6.5-0.7,9.7-1.1c3.2-0.4,6.5-0.7,9.4-1.6c1.5-0.4,2.8-1.1,4-1.9c1.1-0.9,2.1-1.9,2.9-3.2
			c1.5-2.5,2.1-5.5,2.4-8.6c0.2-3.1,0.2-6.3,0.1-9.5c-0.1-3.2-0.3-6.3-0.9-9.3c-0.6-3-1.6-5.8-3.3-8.1c-1.7-2.3-3.9-4.2-6.5-5.4
			c-2.6-1.3-5.6-1.9-8.6-2.3c-3-0.4-6.2-0.4-9.3-0.2c-3.2,0.1-6.3,0.4-9.6,0.6c-3.3,0.3-6.5,0.5-9.8,0.7c-13,0.7-26.1,1-39.1,0.8
			c-13-0.1-26.1-0.7-39.1-1.5l0,0l0.2,0c-1,0.6-2,1.1-3,1.7c-1,0.5-2.1,1-3.1,1.5C169.6,204,167.5,204.9,165.4,205.8z M164.4,203.3
			c2.1-0.8,4.3-1.6,6.5-2.3c1.1-0.4,2.2-0.7,3.3-1c1.1-0.3,2.2-0.7,3.4-0.9l0.2,0l0,0l0,0c13-0.8,26-1.3,39-1.8
			c6.5-0.3,13-0.5,19.5-0.9c6.5-0.3,13-0.6,19.4-1.1l9.7-0.7c3.2-0.2,6.5-0.5,9.9-0.6c3.3-0.1,6.7,0,10.2,0.5
			c3.4,0.5,6.9,1.3,10.1,3c3.2,1.6,6.1,4.1,8.2,7.2c2,3.1,3.2,6.5,3.8,9.9c0.6,3.4,0.7,6.8,0.7,10.1c-0.1,3.3-0.1,6.6-0.6,10
			c-0.5,3.3-1.3,6.8-3.4,9.9c-1,1.5-2.4,2.8-3.9,3.8c-1.5,1-3.2,1.6-4.9,2c-3.4,0.8-6.7,0.9-9.9,1.2l-9.7,0.7
			c-13,1-26.1,1.7-39.2,0.7c-13.2-0.8-25.8-5.3-38.4-5.1c-6.3,0-12.8,0.7-19.3,1c-6.6,0.3-13.4,0-19.9-1.9l-1.1-0.3l0-1l0,0
			c-0.3-3.7-0.5-7.3-0.7-11c-0.2-3.7-0.3-7.4-0.4-11c0-1.8-0.1-3.7-0.1-5.5c0-1.8-0.1-3.6,0.1-5.7c0.1-1,0.3-2,0.7-3.1
			c0.4-1,1-2,1.8-2.8C160.7,204.7,162.6,203.9,164.4,203.3z"/>
	</g>
	<g>
		<path class="st0" d="M131.8,248.1c0.9-0.2,1.8-0.5,2.5-1.1c0.7-0.5,1.2-1.3,1.4-2.2c0.5-1.8,0.7-3.7,0.9-5.5
			c0.1-0.9,0.1-1.9,0.2-2.8c0-0.9,0.1-1.9,0-2.8c-0.1-1.9-0.2-3.7-0.4-5.6c-0.5-3.7-1.3-7.3-2.5-10.8c-1.2-3.5-2.7-6.8-4.6-10l1.7,1
			c-4.6,0.3-9.1,0.6-13.7,0.8c-4.6,0.2-9.1,0.2-13.7,0.3c-9.1,0.1-18.3-0.3-27.4-0.7c-9.1-0.4-18.2-0.7-27.4-0.9
			c-4.6-0.1-9.1-0.2-13.7-0.3l-13.7-0.2l0.7-0.2c-2.6,1.7-4.7,4-5.7,6.8c-1.1,2.7-1.3,5.8-1,8.9c0.6,6.2,2.9,12.3,5.4,18.2
			c0.6,1.4,1.3,2.8,2.1,3.9c0.8,1.2,1.7,2.1,2.9,2.9c2.2,1.6,5.1,2.4,8,2.6c2.9,0.2,6-0.2,9.1-0.8c3.1-0.7,6.2-1.6,9.5-2.3
			c6.6-1.5,13.2-2.5,20-2.8c6.7-0.4,13.5-0.1,20.1,0.8c6.6,0.9,13.1,2.3,19.6,3.1c3.3,0.4,6.5,0.6,9.8,0.7
			C125.3,249.1,128.6,248.8,131.8,248.1z M131.9,248.6c-3.2,0.7-6.5,1.1-9.9,1.3c-3.3,0.2-6.6,0.1-9.9,0c-6.6-0.3-13.2-0.9-19.7-1.1
			c-6.5-0.2-13,0.1-19.4,0.7c-6.4,0.6-12.8,1.6-19.1,3.2c-3.1,0.7-6.3,1.6-9.7,2.3c-3.4,0.7-6.9,1.2-10.6,0.8
			c-3.6-0.4-7.3-1.4-10.5-3.7c-1.6-1.1-2.9-2.6-4-4.2c-1-1.6-1.8-3.2-2.4-4.8c-1.2-3.1-2.4-6.3-3.3-9.6c-0.9-3.3-1.6-6.7-1.7-10.2
			c-0.1-3.5,0.4-7.2,2-10.5c0.2-0.4,0.4-0.8,0.7-1.2l0.7-1.2c0.5-0.7,1.2-1.4,1.7-2.1c0.7-0.6,1.3-1.2,2-1.8l2.2-1.5l0.3-0.2l0.4,0
			c4.5,0.3,9.1,0.7,13.6,0.9l6.8,0.3l6.8,0.2c9.1,0.2,18.2,0.2,27.3-0.2c9.1-0.3,18.2-0.8,27.3-1.1c2.3-0.1,4.5-0.1,6.8-0.2
			c2.3-0.1,4.5-0.1,6.8-0.2c4.5-0.1,9.1-0.1,13.7-0.1l1.3,0l0.5,1c1.7,3.5,3,7.2,3.8,11c0.9,3.8,1.4,7.6,1.5,11.4
			c0.1,1.9,0,3.8-0.1,5.7c0,0.9-0.1,1.9-0.2,2.8c-0.1,0.9-0.2,1.9-0.4,2.8c-0.2,0.9-0.3,1.9-0.5,2.8c-0.2,0.9-0.3,1.9-0.6,2.8
			c-0.3,0.9-0.8,1.9-1.6,2.4C133.8,248.1,132.8,248.4,131.9,248.6z"/>
	</g>
	<g>
		<path class="st0" d="M502.3,248.4c2,0.3,4,0.4,5.7-0.1c1.8-0.5,3.4-1.6,4.6-3c1.2-1.4,1.9-3.2,2.1-5.1c0.2-1.9,0-3.9-0.4-5.8
			c-0.4-2-1-4-1.6-6.1l-1.7-6.1c-1.2-4.1-2.2-8.2-3.5-12.1c-0.7-1.9-1.5-3.8-2.4-5.5c-0.5-0.8-1-1.6-1.6-2.3
			c-0.6-0.7-1.2-1.3-1.9-1.8c-1.3-0.9-2.9-1.3-4.8-1.3c-1.9,0-4,0.2-6.2,0.3c-4.2,0.3-8.5,0.5-12.7,0.7c-4.2,0.2-8.5,0.4-12.7,0.6
			l-50.8,1.7c-16.9,0.7-33.9,1.6-50.7,3.2l0,0l-0.4,0l-0.4-0.3c-1.6-1.1-3.4-1.4-5.1-0.9c-1.7,0.4-3.3,1.7-4.6,3.2
			c-1.3,1.5-2.3,3.3-3.1,5.1c-0.8,1.9-1.3,3.8-1.6,5.9c-0.6,4.1-0.6,8.4-0.2,12.6c0.2,2.1,0.5,4.3,0.8,6.4c0.3,2.1,0.6,4.4,1,6.3
			c0.2,0.9,0.5,1.8,0.9,2.3c0.4,0.5,0.8,0.8,1.5,1.1c0.4,0.1,0.8,0.3,1.2,0.4l1.5,0.3c1,0.2,2,0.4,3.1,0.5c4.1,0.5,8.3,0.3,12.6-0.3
			c8.5-1.1,17-3.4,26.1-4.3c4.5-0.4,9.1-0.4,13.5-0.2c4.5,0.3,8.9,0.7,13.3,1.3c8.8,1.1,17.4,2.7,26,3.4c2.2,0.2,4.3,0.3,6.5,0.3
			c2.1,0,4.3,0,6.4-0.2c4.3-0.2,8.6-1,12.9-1.6c4.4-0.6,8.8-1.2,13.4-1.1c2.3,0.1,4.6,0.3,6.8,0.8
			C498.1,247.4,500.2,248,502.3,248.4z M501.8,251c-2.3-0.4-4.4-1-6.5-1.4c-2.1-0.4-4.2-0.7-6.3-0.7c-4.3,0-8.5,0.6-12.8,1.4
			c-4.3,0.8-8.7,1.7-13.2,2.1c-2.2,0.3-4.5,0.3-6.7,0.4c-2.2,0-4.5,0-6.7-0.1c-8.9-0.3-17.7-1.6-26.4-2.6c-4.3-0.5-8.6-0.9-12.9-1.1
			c-4.3-0.2-8.6-0.1-12.8,0.3c-8.5,0.8-17,3.2-26,4.1c-4.5,0.5-9.1,0.7-13.7,0.1c-1.2-0.2-2.3-0.3-3.4-0.6l-1.7-0.4
			c-0.6-0.2-1.2-0.3-1.9-0.6c-1.3-0.5-2.7-1.6-3.6-2.9c-0.8-1.3-1.2-2.6-1.5-3.8c-0.3-1.2-0.4-2.4-0.6-3.4l-0.4-3.3
			c-0.3-2.2-0.5-4.4-0.7-6.7c-0.3-4.5-0.3-9.1,0.6-13.7c0.9-4.6,2.8-9.1,6.1-12.6c0.8-0.9,1.8-1.7,2.8-2.4c0.5-0.4,1.1-0.6,1.7-0.9
			c0.6-0.2,1.2-0.5,1.9-0.6c0.7-0.1,1.3-0.2,2-0.2c0.3,0,0.7,0,1,0.1l1,0.2c0.3,0.1,0.6,0.2,0.9,0.3l0.9,0.4c0.6,0.3,1.1,0.7,1.6,1
			l-0.8-0.2l0,0c17-0.2,33.9-1.3,50.8-2.5l50.7-4c4.2-0.3,8.5-0.6,12.7-0.9c4.2-0.3,8.5-0.5,12.7-0.8c2.1-0.1,4.2-0.3,6.5-0.2
			c1.2,0.1,2.4,0.2,3.7,0.5c1.2,0.3,2.5,0.9,3.5,1.7c2.1,1.5,3.6,3.6,4.6,5.6c1.1,2,1.9,4.1,2.5,6.2c0.6,2.1,1.2,4.2,1.7,6.3
			l1.5,6.2l1.5,6.2c0.5,2.1,1,4.1,1.4,6.3c0.4,2.2,0.6,4.5,0.3,6.8c-0.3,2.3-1.3,4.6-2.9,6.4c-1.6,1.8-3.6,3.2-5.9,3.8
			C506.3,251.5,504,251.3,501.8,251z"/>
	</g>
	<g>
		<path class="st0" d="M670.1,238c1.7-2.3,3-4.8,3.8-7.5c0.8-2.7,1.1-5.6,1.1-8.4c0-2.9-0.4-5.7-0.9-8.6c-0.6-2.8-1.2-5.6-2-8.4l0,0
			l0.8,0.9c-5.3-1.2-10.6,0.6-15.9,2.6c-2.7,1-5.4,2-8.3,2.9c-2.9,0.8-6,1.3-9,1.5c-3,0.2-6,0.1-9-0.1c-3-0.3-5.9-0.7-8.8-1.2
			c-5.8-1-11.4-2.4-17-3.4c-5.6-1-11.3-1.7-17.1-1.9c-5.7-0.2-11.5,0-17.2,0.4c-11.5,1-22.9,2.9-34.2,5.4l0,0l1.2-1.5
			c0.9,7.2,1.6,14.4,2.3,21.5c0.3,3.6,0.6,7.2,1.5,10.3c0.9,3.1,2.5,5.7,5.1,7.4c2.5,1.6,5.8,2.3,9.1,2.6c3.4,0.2,6.9-0.1,10.5-0.3
			c7.2-0.5,14.4-0.8,21.6-1.2c14.4-0.7,28.8-1.3,43.3-1.5c7.2-0.2,14.5,0,21.4-1.3c3.5-0.7,6.8-1.8,9.9-3.5
			C665.2,243.1,668,240.8,670.1,238z M671.3,238.9c-2.2,3-5,5.5-8.2,7.5c-3.2,2-6.7,3.3-10.3,4.3c-3.6,0.9-7.3,1.4-10.9,1.8
			c-3.6,0.4-7.2,0.6-10.8,0.9c-14.4,1.3-28.8,2.1-43.2,3c-7.2,0.4-14.4,0.8-21.6,1.1c-3.6,0.1-7.3,0.4-11.1,0.1
			c-3.8-0.3-7.9-1.2-11.4-3.6c-3.5-2.4-5.9-6.3-6.7-10.1c-1-3.8-1-7.6-1.3-11.1c-0.4-7.2-0.7-14.4-0.9-21.6l0-1.3l1.2-0.1l0,0
			c11.5-1.2,23-3.1,34.5-4.2c11.5-1.1,23.3-1.6,34.9-0.1c5.8,0.7,11.5,1.7,17.2,2.4c5.7,0.7,11.3,1.2,16.8,0.8
			c2.8-0.2,5.5-0.6,8.1-1.3c2.7-0.7,5.4-1.6,8.2-2.5c2.8-0.9,5.7-1.7,8.8-2c3-0.4,6.3-0.1,9.2,1.1l0.7,0.3l0.1,0.6l0,0
			c0.4,2.9,1,5.8,1.3,8.7c0.4,2.9,0.6,5.9,0.6,8.8c-0.1,3-0.4,5.9-1.2,8.8C674.4,233.7,673.1,236.5,671.3,238.9z"/>
	</g>
	<g>
		<path class="st0" d="M839.8,239.8c0.7-1.7,0.7-3.7,0.7-5.5c-0.1-1.9-0.1-3.8-0.2-5.7c-0.2-3.8-0.5-7.6-0.9-11.4l-0.6-5.7
			c-0.2-1.9-0.4-3.8-1.3-5c-0.9-1.2-2.4-1.7-4.1-1.8c-1.7-0.1-3.5,0.2-5.4,0.6c-15.1,2.4-30.4,4.2-45.6,5.4
			c-15.3,1.1-30.6,1.6-45.9,2.4c-15.3,0.8-30.6,1.9-45.8,2.9l1.3-1.2c-0.5,7.7,0,15.4,1.4,23c0.7,3.7,1.6,7.5,2.7,11.1
			c0.6,1.7,1.3,3.2,2.3,4c0.9,0.8,2.3,1.2,4.1,1.3c1.7,0.1,3.7-0.1,5.6-0.2l5.9-0.3l11.7-0.6c7.8-0.4,15.6-0.7,23.5-1.1
			c7.8-0.2,15.5-0.6,23.1-1.8c3.8-0.6,7.4-1.5,11.2-2.5c3.8-1,7.8-1.9,11.9-2.2c8.1-0.6,15.9,0.7,23.6,0.9c3.9,0.1,7.8-0.1,11.6-1
			c0.9-0.2,1.9-0.4,2.8-0.8c0.9-0.3,1.8-0.6,2.7-1C837.5,242.8,839.1,241.6,839.8,239.8z M840.3,240c-0.8,1.9-2.5,3.3-4.3,4.1
			c-0.9,0.5-1.8,0.8-2.8,1.1c-0.9,0.4-1.9,0.6-2.8,0.9c-3.8,1.1-7.8,1.4-11.7,1.6c-7.9,0.3-15.8-0.1-23.3,1c-3.7,0.6-7.3,1.7-11,2.9
			c-1.9,0.6-3.7,1.2-5.7,1.8c-1.9,0.5-3.9,1-5.9,1.4c-7.9,1.6-15.9,1.9-23.7,2.3c-7.8,0.3-15.6,0.7-23.5,0.9l-11.7,0.4l-5.9,0.2
			l-2.9,0.1c-1,0-2.1,0-3.2,0c-1.1-0.1-2.3-0.2-3.4-0.6c-1.2-0.4-2.4-1-3.3-1.9c-2-1.8-2.8-4.1-3.4-6.1c-1.1-3.9-1.9-7.8-2.4-11.8
			c-1.1-7.9-1.1-16-0.1-23.8l0.1-1.2l1.1,0c15.3-0.2,30.6-0.7,45.8-2c15.2-1.2,30.4-3.2,45.6-4.9c15.2-1.7,30.4-3.1,45.6-4.3
			c1.9-0.1,3.9-0.3,6-0.1c1,0.1,2.1,0.4,3.2,0.9c1,0.5,2,1.3,2.6,2.3c0.6,1,0.9,2.1,1,3.1c0.1,1,0.1,2,0.2,2.9l0.2,5.7
			c0.1,3.8,0.3,7.7,0.3,11.5l0.1,5.7C841.1,236.2,841.1,238.2,840.3,240z"/>
	</g>
</g>
</svg>
