<?xml version="1.0" encoding="utf-8"?>
<!-- Generator: Adobe Illustrator 23.0.2, SVG Export Plug-In . SVG Version: 6.00 Build 0)  -->
<svg version="1.1" id="圖層_1" xmlns="http://www.w3.org/2000/svg" xmlns:xlink="http://www.w3.org/1999/xlink" x="0px" y="0px"
	 viewBox="0 0 514.2 85.2" style="enable-background:new 0 0 514.2 85.2;" xml:space="preserve">
<style type="text/css">
	.st0{opacity:0.2;}
	.st1{fill:#E6E6E6;}
</style>
<title>資產 1</title>
<g class="st0">
	<g id="圖層_1-2">
		<path class="st1" d="M41.6,50.1c10-1.3,17.6,0.5,19.3,7.1C62,61.5,59.5,66.5,55,70c-4,3.2-9.5,5.7-16,7.6
			c-9.9,2.9-14.8,4.4-24.6,7.6l-0.8-2.5c6.6-2.7,7.2-3.3,5.4-9l-8.2-26.2c-1.8-5.8-3.2-6-9.9-4.2L0,40.6c9.4-3.1,18.9-6,28.3-8.6
			c7.1-2,11.9-2.6,16-1.8c3.9,0.7,6.8,2.8,7.7,6.2C53.6,42.2,47.3,47.5,41.6,50.1z M29.8,52.5c8.7-2.5,11.1-6.2,9.7-11.3
			c-1.7-6-7.6-6.9-12.7-5.4c-1.5,0.3-2.9,1-4.2,1.8c-0.9,0.8-0.6,1.4-0.2,2.8c1.6,5.2,2.3,7.9,3.9,13.1L29.8,52.5z M31,69.7
			c1.5,5,4.8,5.6,9.6,4.2s8.8-6.1,7-12.6c-1.8-6.7-7.2-8.8-17.4-5.8l-3.2,0.9L31,69.7z"/>
		<path class="st1" d="M131.1,12.2c-6,1.4-7.4,3-7.4,5.6c0.1,3.2,0.5,6.4,1.1,9.6c0.6,3.7,0.9,5.6,1.5,9.3c1,6.1,0.7,12.5-3.7,17.6
			c-3.6,4.1-9.7,6.8-16,8c-5.9,1.2-12.1,1.3-16.8-0.3c-5.8-2-9.4-5.7-11.2-13.5c-1.7-7.1-2.5-10.7-4.1-17.8
			c-1.5-6.5-2.4-6.8-9.7-5.6c-0.2-1-0.4-1.6-0.6-2.6c9.7-2.3,19.5-4.5,29.3-6.4c0.2,1,0.3,1.6,0.5,2.6c-7,1.9-7.7,2.6-6.4,9.1
			c1.6,7.5,2.4,11.3,3.9,18.7c1.7,7.9,7.7,12,17.4,10.2c10.7-2,14.4-9,12.6-19.7c-0.6-3.5-0.9-5.3-1.5-8.9c-0.5-3.2-1.2-6.4-2.1-9.5
			c-0.9-3.2-3.7-3.5-10.4-2.5c-0.2-1-0.3-1.6-0.5-2.6c9.4-1.7,14.2-2.5,23.7-4C130.9,10.6,131,11.1,131.1,12.2z"/>
		<path class="st1" d="M196.3,36.4c-0.5,3.2-2.5,11-3.1,13c-15.1,1.3-30.1,3-45,5l-0.4-2.6c7.9-1.5,8.6-2.1,7.8-8.1l-3.5-27.3
			c-0.8-6-1.8-6.5-9-5.9l-0.4-2.6c10-1.4,20-2.6,29.9-3.6c0.1,1.1,0.2,1.6,0.3,2.7c-7.5,1.3-8.3,1.9-7.6,7.9
			c1.2,11.1,1.9,16.7,3.1,27.8c0.4,3.9,0.8,5.7,5.8,5.2c0.2,0,4.4-0.4,4.8-0.4c5.2-0.5,6.5-1.6,8.5-3.6c2.1-2.4,3.9-5.1,5.2-8
			L196.3,36.4z"/>
		<path class="st1" d="M256.9,34c-0.8,3.1-3.3,10.7-4.1,12.7c-15.1,0.2-30.2,0.7-45.4,1.6c-0.1-1.1-0.1-1.6-0.2-2.7
			c8-0.9,8.8-1.4,8.4-7.5c-0.6-11-0.9-16.4-1.4-27.4c-0.3-6-1.3-6.6-8.6-6.6c-0.1-1.1-0.1-1.6-0.2-2.7c10.1-0.6,20.1-1.1,30.2-1.3
			c0,1.1,0,1.6,0.1,2.7c-7.5,0.7-8.5,1.3-8.2,7.3c0.4,11.2,0.6,16.8,1,27.9c0.1,4,0.4,5.7,5.4,5.7c0.2,0.1,4.4,0,4.8,0
			c5.2-0.1,6.6-1.1,8.8-3c2.3-2.2,4.2-4.8,5.8-7.5L256.9,34z"/>
		<path class="st1" d="M319.1,36.9c-0.6,1.9-3.8,10-4.8,11.9c-15.8-1.2-31.6-1.8-47.4-2c0-1,0-1.6,0-2.6c8.4-0.5,8.9-0.8,9.1-6.9
			c0.3-11,0.4-16.5,0.7-27.5c0.1-6.1-1-6.6-7.6-7.1c0-1.1,0-1.6,0-2.7c10.5,0.1,21,0.5,31.5,1c10.2,0.5,13.6,0.8,14.9,0.8
			c0,1.3,0.1,7.2,0.1,11.7l-3.8,0.1c-0.7-2.5-2.2-5.6-3.7-6.9s-2.8-2-7.7-2.3c-2.5-0.1-3.8-0.2-6.3-0.3c-3.7-0.2-4.1,0-4.2,2.4
			l-0.6,15c3.7,0.1,5.6,0.2,9.3,0.4c5.3,0.3,6.3-0.7,8-5.8l3.7,0.2l-1,16l-3.6-0.2c-1.2-5.4-1.9-6.3-7.3-6.6
			c-3.6-0.2-5.4-0.2-9.1-0.4l-0.5,12.4c-0.2,5-0.1,6.5,5.6,6.8c2.6,0.1,3.9,0.2,6.5,0.3c5.1,0.3,6.5-0.2,8.7-1.9
			c2.3-2,4.4-4.3,6.1-6.8L319.1,36.9z"/>
		<path class="st1" d="M384.7,22.4c-0.5-2.7-1.5-5.3-3-7.6c-1.5-1.8-2.2-2.5-7.8-3.3c-2.5-0.4-3.7-0.5-6.1-0.9
			c-1.5,11.1-3,22.3-4.5,33.5c-0.8,6,0,6.5,8.1,8.2c-0.1,1-0.2,1.6-0.4,2.6c-10-1.5-20.1-2.8-30.1-3.8l0.3-2.7c7.8,0.3,8.7,0,9.4-6
			c1.3-11.2,2.7-22.4,4-33.6c-2.3-0.3-3.5-0.4-5.8-0.7c-5.4-0.6-7-0.1-9,1.4c-1.5,1.2-3.1,3.7-4.6,6.4l-3.6-0.3
			c1.1-5.2,2.3-10.7,2.9-14.1l2.9,0.3c1.3,1.8,2.4,2,5.3,2.3c12.9,1.3,25.7,3,38.4,4.9c2.6,0.4,4,0.2,5.8-0.9l2.8,0.4
			c-0.4,3-1,9.3-1.3,14L384.7,22.4z"/>
		<path class="st1" d="M395.9,59.1c0.2-1,0.3-1.6,0.5-2.6c7,0.7,7.9,0.5,9-5.4c2-10.8,3.1-16.2,5.1-27c1.1-6,0.3-6.7-6.8-8.4
			l0.5-2.6c9.9,1.8,19.7,3.7,29.5,5.8c-0.2,1-0.3,1.6-0.6,2.6c-7.2-1-8.3-0.7-9.5,5.2L418,53.5c-1.2,5.8-0.5,6.4,6.2,8.5
			c-0.2,1-0.3,1.6-0.6,2.6C414.4,62.6,405.2,60.7,395.9,59.1z"/>
		<path class="st1" d="M513.4,43.2c-5.8-1.3-7.9-0.9-9.1,2.1c-1.6,3.5-2.9,7.1-4,10.8c-2.9,9.1-5.7,18.2-8.6,27.3
			c-2-0.6-3-0.9-4.9-1.5c-9-15.4-18.3-30.4-28.1-45.2c-1.6,6.3-2.4,9.5-4,15.8c-1,3.6-1.8,7.3-2.3,11c-0.4,3.1,1.1,5.2,7.6,7.3
			c-0.3,1-0.4,1.5-0.7,2.6c-8.8-2.3-13.2-3.5-22.1-5.6c0.2-1,0.4-1.6,0.6-2.6c5.2,0.9,7.7,0.3,9-2.8c1.4-3.6,2.5-7.3,3.3-11
			l4.1-16.6c0.6-2.3,0.8-3.9-0.6-6.2s-3.5-2.9-7.4-4.1c0.2-1,0.4-1.6,0.6-2.6c7.4,1.7,11.1,2.6,18.4,4.5
			c9.2,13.3,18.1,26.8,26.4,40.6l3.8-12.4c1.2-3.6,2.2-7.2,2.9-10.9c0.6-3-0.4-5-8.1-7.6l0.8-2.6c9.3,2.7,13.9,4.1,23.1,7.1
			L513.4,43.2z"/>
	</g>
</g>
</svg>
