<?xml version="1.0" encoding="utf-8"?>
<!-- Generator: Adobe Illustrator 23.0.2, SVG Export Plug-In . SVG Version: 6.00 Build 0)  -->
<svg version="1.1" id="Capa_1" xmlns="http://www.w3.org/2000/svg" xmlns:xlink="http://www.w3.org/1999/xlink" x="0px" y="0px"
	 viewBox="0 0 25 25" style="enable-background:new 0 0 25 25;" xml:space="preserve">
<style type="text/css">
	.st0{fill:#362E2B;}
</style>
<g>
	<path class="st0" d="M24.4,11.8h-2.2c-0.1-2.1-1-4.1-2.3-5.7l1.5-1.5c0.3-0.3,0.3-0.7,0-0.9s-0.7-0.3-0.9,0L19,5.2
		c-1.5-1.4-3.5-2.2-5.7-2.4V0.7C13.3,0.3,13,0,12.6,0s-0.7,0.3-0.7,0.7v2.1c-2.2,0.2-4.1,1-5.7,2.4L4.7,3.7c-0.3-0.3-0.7-0.3-0.9,0
		c-0.3,0.3-0.3,0.7,0,0.9l1.5,1.5C4,7.7,3.1,9.6,3,11.8H0.8c-0.4,0-0.7,0.3-0.7,0.7s0.3,0.7,0.7,0.7H3c0.2,2.2,1,4.1,2.4,5.7
		l-1.6,1.6c-0.3,0.3-0.3,0.7,0,0.9c0.1,0.1,0.3,0.2,0.5,0.2c0.2,0,0.3-0.1,0.5-0.2l1.6-1.6c1.5,1.3,3.5,2.2,5.6,2.3v2.3
		c0,0.4,0.3,0.7,0.7,0.7c0.4,0,0.7-0.3,0.7-0.7V22c2.2-0.2,4.1-1,5.6-2.3l1.6,1.6c0.1,0.1,0.3,0.2,0.5,0.2c0.2,0,0.3-0.1,0.5-0.2
		c0.3-0.3,0.3-0.7,0-0.9l-1.6-1.6c1.4-1.5,2.2-3.5,2.4-5.7h2.2c0.4,0,0.7-0.3,0.7-0.7S24.8,11.8,24.4,11.8z M19.6,11.8h-5.3L18,8
		C18.9,9.1,19.4,10.4,19.6,11.8z M17.1,7.1l-3.8,3.8V5.5C14.8,5.6,16,6.2,17.1,7.1z M11.9,5.5v5.4L8.1,7.1
		C9.2,6.2,10.5,5.6,11.9,5.5z M7.2,8l3.8,3.8H5.7C5.8,10.4,6.4,9.1,7.2,8z M5.7,13.1h5.4l-3.8,3.8C6.4,15.9,5.8,14.5,5.7,13.1z
		 M8.2,17.8l3.7-3.7v5.2C10.6,19.2,9.3,18.7,8.2,17.8z M13.3,19.3v-5.2l3.7,3.7C16,18.7,14.7,19.2,13.3,19.3z M18,16.9l-3.8-3.8h5.4
		C19.4,14.5,18.8,15.9,18,16.9z"/>
</g>
</svg>
