<svg xmlns="http://www.w3.org/2000/svg" viewBox="0 0 901.13 550"><title>take_4</title><g id="圖層_2" data-name="圖層 2"><g id="圖層_1-2" data-name="圖層 1"><path d="M83.47,0a100.38,100.38,0,0,0-.35,17c1.76,26.08,12.63,26.75,15,51,1.78,18.15-2.89,32.35-10,54-8.49,25.85-14.93,29.74-19,52-2.65,14.49-2.33,26-2,36,.73,22.15,4.28,25,8,57,3.5,30.09,1.91,40.89-1,50-2.26,7.09-5.2,12.15-11,22-22.57,38.34-38.75,46.7-46,74-.61,2.31,0,.22-3,22C7.7,481,5,488.68,2.13,514-.29,535.24-.05,544.35.07,550H901.13V0Z"/></g></g></svg>