<svg xmlns="http://www.w3.org/2000/svg" viewBox="0 0 1075.5 550"><title>tak2_3</title><g id="圖層_2" data-name="圖層 2"><g id="圖層_1-2" data-name="圖層 1"><path d="M130,0a180.66,180.66,0,0,0-1.46,22c0,4.42,1.32,15.62,4,38,6.43,53.77,9.65,80.66,14,96a43.46,43.46,0,0,1,2,11c.72,18-11.2,29.61-20,43-13.46,20.49-4.07,21.51-20,58-14.25,32.65-23.21,35.16-24,54-.59,14.2,4.43,14.47,9,41a234.24,234.24,0,0,1,3.13,50.31c0,1.6-.11,2.69-.13,2.69s0-.95.13-2.69c.13-4.52.12-13.16-1.13-13.31-2.35-.28-3.4,30-15,58-5.77,14-11.48,20.9-59,70C13.36,536.41,6.31,543.66,0,550H1075.5V0Z"/></g></g></svg>