<svg xmlns="http://www.w3.org/2000/svg" viewBox="0 0 377.51 550"><title>資產 9</title><g id="圖層_2" data-name="圖層 2"><g id="圖層_1-2" data-name="圖層 1"><path d="M0,0C2.63,6,5.18,11.38,7.51,16a203.54,203.54,0,0,0,13,23C36,62.32,42.65,60.51,51.51,76c4.43,7.76,7,23.5,12,55,2,12.19,2.9,20.54,1,31-1.57,8.64-4,12.93-9,24-5.9,13.17-18,41.84-22,73-1.07,8.31-.85,11.14,0,14,4.22,14.26,19.31,13.94,30,30,7.14,10.72,1.42,12.38,9,24,9.76,15,20.53,14.19,25,28,1.51,4.66,2.17,10.58,3,18,.89,7.93.44,9,1,14,1.52,13.66,6.19,17.27,10,32,1.86,7.18,2.32,12.43,3,20,.92,10.36,2.33,27.69-3,48-2.63,10-3.57,8.08-5,15-3.43,16.54,1.15,31.35,8,48h263V0Z"/></g></g></svg>