<?xml version="1.0" encoding="utf-8"?>
<!-- Generator: Adobe Illustrator 21.1.0, SVG Export Plug-In . SVG Version: 6.00 Build 0)  -->
<svg version="1.1" id="圖層_1" xmlns="http://www.w3.org/2000/svg" xmlns:xlink="http://www.w3.org/1999/xlink" x="0px" y="0px"
	 viewBox="0 0 272.1 448.2" style="enable-background:new 0 0 272.1 448.2;" xml:space="preserve">
<title>資產 11</title>
<g id="圖層_2">
	<g id="圖層_1-2">
		<path d="M192.1,25.2c-1.6,5.8,2.6,6.2,5,19c2.3,12.1-0.3,18.5-12,59c-8.7,29.9-9.8,34.9-16,42s-10.3,8.1-14,16
			c-5.5,11.6-3.9,25-3,32c1.4,11.6,4.3,15.5,2,23c-2.1,6.9-6.9,11.1-9,13c-25.3,22.9-39.7,57.4-48,54c-6.7-2.7-1.9-27-2-27
			s-9.9,33.7,7,56c7.5,9.8,14.5,10.1,16,18c2.8,15.4-20.4,31.7-28,37c-22.3,15.6-41.7,19.2-53,23c-13.9,4.6-26.3,13-37.1,23.2
			c0.4,11.5,4.1,22.7,9.1,34.8h263V0C240.9,1.7,197.1,6.9,192.1,25.2z"/>
	</g>
</g>
</svg>
