<?xml version="1.0" encoding="utf-8"?>
<!-- Generator: Adobe Illustrator 21.1.0, SVG Export Plug-In . SVG Version: 6.00 Build 0)  -->
<svg version="1.1" id="圖層_1" xmlns="http://www.w3.org/2000/svg" xmlns:xlink="http://www.w3.org/1999/xlink" x="0px" y="0px"
	 viewBox="0 0 272.1 448.2" style="enable-background:new 0 0 272.1 448.2;" xml:space="preserve">
<title>資產 11</title>
<path d="M240,18c-2.2,9.4-0.5,12.3-1,32c-0.7,26.5-4.4,48-5,48c-0.4,0,0.6-11.9,0-12c-0.7-0.1-3.8,13.6-4,29
	c-0.2,17.3,3.7,15.9,4,33c0.3,16.8-3.3,22.5-2,44c0.4,7.1,0.9,7.4,1,11c1.1,30.7-29.7,39.3-38,73c-4.5,18.2,3.7,19.2-1,53
	c-2.4,16.9-3.5,25.3-9,35c-7,12.4-14.8,16.4-23,34c-3.8,8.1-2.2,7.4-6,15c-7.6,15.2-13.3,16.8-19,31c-0.6,1.5-1.1,2.9-1.6,4.2h136.7
	V0c-8.1,0.4-17.1,1.1-26,2.2C243.5,6.9,241.4,12.1,240,18z"/>
</svg>
