<svg xmlns="http://www.w3.org/2000/svg" viewBox="0 0 1200 550"><title>take_2</title><g id="圖層_2" data-name="圖層 2"><g id="圖層_1-2" data-name="圖層 1"><path d="M129.56,0A205.26,205.26,0,0,0,131,27c2,16.68,4.86,22.72,3,36-2.47,17.58-10.92,31.66-13,35-9.35,15-16.16,16.31-18,27-1.6,9.28,3.08,10.94,6,26,1.06,5.48,4.93,28.43-5,50-.41.9-4.61,7.93-13,22-8.85,14.83-10.19,16.82-11,18-8.36,12.12-14.67,16.22-22,24-16.78,17.8-34,49.62-25,70,1.85,4.22,3.83,5.68,5,11,2.27,10.35-2.18,18.64-8,31-14.69,31.18-10.88,30.38-18,40A121.91,121.91,0,0,1,0,430.72V550H1200V0Z"/></g></g></svg>