<?xml version="1.0" encoding="utf-8"?>
<!-- Generator: Adobe Illustrator 22.0.1, SVG Export Plug-In . SVG Version: 6.00 Build 0)  -->
<svg version="1.1" id="圖層_1" xmlns="http://www.w3.org/2000/svg" xmlns:xlink="http://www.w3.org/1999/xlink" x="0px" y="0px"
	 viewBox="0 0 194.1 212.4" style="enable-background:new 0 0 194.1 212.4;" xml:space="preserve">
<style type="text/css">
	.st0{fill:none;stroke:#534741;stroke-width:2;stroke-miterlimit:10;}
	.st1{fill:#FFFFFF;stroke:#534741;stroke-miterlimit:10;}
	.st2{fill:#534741;}
</style>
<g>
	<line class="st0" x1="9.2" y1="2.6" x2="11.8" y2="52.9"/>
	<g>
		<path class="st1" d="M133.6,61.8c-0.9,9.4,37.2,13.6,42.7,23.3c0.1,0.1,0.3,0.1,0.3-0.1l-1-22.2c0,0,0-0.2,0-0.5
			c-0.4-0.5-1.1-1-2-1.5c-6.3-3.1-18.7-6.5-29-12L133.6,61.8z"/>
		<path class="st1" d="M139.6,157c0,0.2,0,0.5,0,0.7c0,10,29-1,29,9c0,26-32,14-32,25c0,8,13.8,6,8.1,18.8
			c10.5-8.8-0.1-8.3,0.9-13.8c1.8-9.8,28-2,28-26c0-18.9-20-21.7-30-19C142,152.2,139.7,154.3,139.6,157z"/>
		<path class="st1" d="M11.1,26"/>
		<path class="st1" d="M193.4,46.3c0.1-0.2,0.2-0.3,0.2-0.5l-1.9-27.7c0-0.4-0.5-0.5-0.8-0.3c-4.9,4.2-31.3-2.3-46.3-7
			c-16-5-42-3-51-1s-10,11-22,17c-15.2,7.6-54,0-62-1c-2.3-0.3-4-1.8-4.7-2.5c-0.1-0.1-0.3,0-0.2,0.1C5,26.8,6.3,47.6,6.6,51.2
			c0.1,0.5,0.2,1.1,0.2,1.1c0.3,1.2,1.7,2.2,4.8,2.6c8,1,57.8,8.6,73,1c12-6,9-12,18-14s32-3,48,2C166.1,48.6,190.1,51.6,193.4,46.3
			z"/>
		<path class="st1" d="M131.7,41.5l1.9,21.3c0,0.3,0.4,0.4,0.5,0.1c1.7-3.3,9-14.1,15.6-18.4c0.4-0.2,0.2-0.8-0.2-0.8l-17.2-2.8
			C131.9,40.8,131.6,41.1,131.7,41.5z"/>
		<path class="st1" d="M162.6,76.8c-3.5,0-8.7,2.8-11,4c-10,5-28,12-27,31s21,14,21,24c0,7-8,5-8,11c0,0.5,0.1,0.9,0.2,1.2
			c0.4,2.1,1.1,6.7,1.5,8.5c0.1,0.3,0.4,0.3,0.5,0c2.8-8.1,22.7-9.4,22.7-16.8c0-11-23-13-23-21c0-11,1-15,11-20s26-1,26-12
			C176.6,82.8,167.2,76.9,162.6,76.8z"/>
		<path class="st1" d="M191.7,16.2c0.4-5.5-23.4-6.4-34.1-5.5c-2.3,0.2-4.6,0.8-7,1.8c16.3,4.7,39.2,9.5,41,4.2
			C191.7,16.6,191.7,16.4,191.7,16.2z"/>
		<path class="st1" d="M7.1,19.5c1-0.7,2.1-1.3,3.5-1.7v8v0.1c-0.4-0.1-0.7-0.1-1-0.1C3.4,25,3.8,21.8,7.1,19.5z"/>
	</g>
	<g>
		<path class="st2" d="M46.3,42.8l-2.1-0.2c0.6-1.8,0.9-3.4,1-5.4l1.9,0.1C46.8,39.2,46.6,41,46.3,42.8z M49.8,34.2l-0.4,15.3
			c0,1.1,0,2.6,0.1,3.9l-2.2-0.1c0.2-1.3,0.2-2.8,0.3-3.9L48,35.3c0-1.5,0-2.4-0.1-3.2c0.7,0.1,1.6,0.3,2.2,0.3
			c0.7,0,0.8,0.2,0.2,0.6C50,33.1,49.9,33.7,49.8,34.2z M51.2,39.8c-0.2-1-0.6-1.7-1.2-2.7l1.4-0.8c0.6,1,0.9,1.5,1.3,2.6L51.2,39.8
			z M64.6,37.3l-0.1,1.8c-1.1-0.2-2.9-0.3-4.9-0.4v1.5c2.3,0.1,5.5,0.1,6.7-0.1L66.2,42c-1.3-0.2-4.7-0.4-7-0.4
			c-2.4-0.1-5.7-0.1-7,0l0.1-1.9c1,0.2,3.4,0.3,5.5,0.4v-1.5c-1.8,0-3.4,0-4.4,0.1l0.1-1.8c1,0.2,2.5,0.3,4.4,0.4v-1.5
			c-2,0-4,0-5,0.1L53,34c1,0.2,3,0.3,5,0.4c0-1.4,0-1.8,0-2.3c0.5,0.1,1.4,0.2,2,0.1c0.3,0,0.3,0.2,0.1,0.4
			c-0.1,0.1-0.2,0.5-0.2,0.8v1c2.2,0.1,4.7,0.1,5.9-0.1l-0.1,1.9c-1.1-0.2-3.6-0.3-5.9-0.4v1.5C61.7,37.4,63.4,37.4,64.6,37.3z
			 M54.8,53.6l-2-0.1c0.1-1.4,0.2-2.5,0.2-3.4l0.1-5.1c0-0.8,0-1.7,0-2c0.9,0.1,3.4,0.2,5.7,0.2c2.2,0.1,4.4,0.1,5.3,0.1
			c0,0.4-0.1,1.2-0.1,2l-0.2,5.9c-0.1,2.5-0.2,2.6-3.6,2.7c0-0.6-0.1-1.1-0.6-1.9c2.1,0.2,2.2,0.1,2.3-1.3V50l-7.1-0.2L54.8,53.6z
			 M55,48.5l7.1,0.2v-1.3L55,47.1V48.5z M62.1,44.6L55,44.4v1.4l7.1,0.2V44.6z"/>
		<path class="st2" d="M75.4,33.4l0.8,1.6c-0.9,0.3-1.9,0.7-3.3,1.4l1.1,2.3c1.7-0.9,2.9-1.5,3.9-2.1l0.8,1.6
			c-1.2,0.4-2.6,1-4.8,2.1c-2.1,1-3.7,1.8-4.8,2.5l-0.8-1.6c1.1-0.4,2.4-1,4.1-1.7l-1.1-2.3c-1.4,0.7-2.5,1.3-3.2,1.7l-0.8-1.6
			c0.9-0.3,2-0.8,3.4-1.4c-0.8-1.7-1.1-2.2-1.4-2.6c0.7-0.2,1.2-0.4,2-0.8c0.3-0.2,0.5,0,0.3,0.4c-0.2,0.3-0.2,0.5,0,0.9l0.6,1.3
			C73.7,34.4,74.6,33.9,75.4,33.4z M71.7,46.8L71,45.3c0.7-0.2,1.3-0.4,2-0.8c-0.6-0.5-1.4-1-2.3-1.4l1.1-1.4
			c0.9,0.5,1.6,0.9,2.6,1.5l-0.8,0.9l2.3-1.1c-0.1-1.3-0.2-2.4-0.4-3.3c0.7,0,1.4,0,2-0.1c0.4-0.1,0.5,0.1,0.2,0.5
			c-0.3,0.3-0.4,0.8-0.3,2.3c0.7-0.3,1.2-0.6,1.9-1.1l0.7,1.6c-0.9,0.3-2,0.8-3.5,1.4l1,2.2c1.8-0.9,3-1.5,4-2.1l0.8,1.7
			c-1.1,0.4-2.4,0.9-4.2,1.8c1.1,2.3,1.5,3.2,2.3,4.4l-1.8,0.9c-0.5-1.3-0.9-2.3-2-4.5c-1.8,0.9-3.1,1.6-4.1,2.2L71.8,49
			c1.1-0.4,2.5-1,4.3-1.8l-1-2.2C73.6,45.7,72.5,46.3,71.7,46.8z M93.7,43.6c-0.4,0.9-0.5,1.4-0.6,2.3c-1.6-0.2-2.9-0.5-4.2-1.1
			c-0.3,1.4-0.8,2.7-1.5,4.2c-0.4-0.2-0.8-0.3-1.2-0.4l0.3,0.7l-1.8,0.9c-0.7-1.8-1.1-2.6-2.2-5.1L77,33.4c-0.6-1.3-0.7-1.5-1-1.9
			c1-0.4,1.7-0.7,4.1-1.9c2.6-1.2,3.2-1.6,3.9-2c0.1,0.5,0.3,0.9,0.6,1.6l0.9,1.9c1.1,2.3,0.8,2.9-2,4.6c-0.5-0.8-0.9-1.2-1.7-1.7
			c2.1-0.4,2.6-0.9,2.1-1.9l-1-2l-4.5,2.2l2.7,5.7l4.3-2.1c1.6-0.8,1.9-1,2.5-1.3c1.1,4.8,1.3,6.8,1.2,8.5
			C90.5,43.5,92,43.7,93.7,43.6z M85.8,47.7c0.7-1.3,1.2-2.5,1.4-3.7c-1.7-0.9-3.7-2.6-5.4-4.7L85.8,47.7z M87.5,42.3
			c0.1-1.5-0.2-3.2-0.7-5.3l-3.4,1.6C84.8,40.3,86.4,41.7,87.5,42.3z"/>
		<path class="st2" d="M95,20.6c-1-0.6-2.2-1.1-3.5-1.5l0.9-1.8c1.2,0.4,2.4,0.8,3.5,1.3L95,20.6z M95.6,26.3
			c-1.1-0.5-2.6-1.1-3.9-1.3l0.6-1.9c1.2,0.3,2.8,0.8,4,1.3L95.6,26.3z M97.1,33c-0.1,1.8-0.2,3.1-0.2,4.6c-0.9-0.5-1.8-0.8-2.6-1.1
			c0.4-1.2,0.7-2.6,0.8-3.9c0.2-1.3,0.2-2.7,0.2-4.1c0.7,0.4,1.4,0.6,2.2,0.7C97.3,30.3,97.2,30.9,97.1,33z M110.4,18.8
			c0.1,0.6,0.2,1.3,0.4,2.2l1.7,8.5c0.3,1.4,0.5,2.3,1,4.2l-2,0.4l-0.3-1.3l-9.2,1.8l0.3,1.7l-1.9,0.4c-0.3-1.8-0.5-2.8-0.8-4.2
			l-1.8-9c-0.2-0.8-0.3-1.5-0.5-2.1c0.8-0.1,2.4-0.4,3.9-0.7l-0.5-2.7c-1.6,0.4-3.4,0.7-4.4,1l-0.4-2c1.5-0.2,3.6-0.6,7.4-1.3
			c3.8-0.8,5.7-1.2,7.1-1.6l0.4,2c-1.4,0.2-3.1,0.5-5.1,0.8l0.5,2.7C108.3,19.3,109.6,19,110.4,18.8z M103.4,21.9
			c0.4,2.8,0.4,4.6-0.4,6.3c-0.5-0.3-1.1-0.5-1.9-0.6c0.9-1.6,1-2.8,0.6-5.4l-2,0.4l1.4,6.9l9.2-1.8l-0.4-2.1
			c-3.5,0.8-3.9,0.6-4.1-0.4l-0.7-3.6L103.4,21.9z M101.7,33.1l9.2-1.8l-0.4-2.1l-9.2,1.8L101.7,33.1z M104.6,20.1l-0.5-2.7
			l-1.5,0.3l0.5,2.7L104.6,20.1z M108.8,20.8l-2.2,0.4l0.5,2.6c0.1,0.5,0.2,0.6,2.3,0.1L108.8,20.8z"/>
		<path class="st2" d="M126.1,17.6l0.1-1.4c1.7,0.2,3,0.2,6.4,0.4c2.8,0.1,4.1,0.2,5.6,0.1l-0.1,3.5l-1.8-0.1l0.1-1.9l-8.4-0.4
			l-0.1,1.9l-1.8-0.1l0.1-1.8l-1.4,1.3c-0.7-1-1.3-1.6-3.2-3.1c-0.8,1.3-1.8,2.7-3.1,4.4c1.3,0.1,2.3,0.2,3.5,0.3
			c1.2,0.1,2.4,0.1,3.7,0c-0.1,0.8-0.1,1.5-0.2,2.4l-0.1,2.5c0,0.8,0,1.5,0,2.5c-0.8-0.1-2.4-0.2-3.8-0.2l-1.8-0.1l-0.2,3.5l3.5-1
			c-0.2-0.4-0.5-0.7-0.8-1.1l1.6-0.7c1.1,1.4,1.7,2.2,2.6,3.6l-1.7,1c-0.3-0.6-0.5-1.1-0.8-1.6l-4,1.4c-0.9,0.3-1.3,0.5-1.8,1.1
			c-0.3-1-0.6-1.4-1.2-2.1c0.9-0.3,1.1-0.5,1.1-1.4l0.3-7.7c0-0.8,0-1.4,0-2.1c-0.3,0.4-0.6,0.8-0.9,1.2c-0.3-0.8-0.6-1.1-1.2-1.6
			c1.9-1.7,3.9-4.6,4.9-7.2c0.7,0.3,1.6,0.7,2,0.8c0.3,0.1,0.3,0.3-0.1,0.4c-0.1,0-0.3,0.2-0.5,0.5
			C123.9,15.9,125.2,16.9,126.1,17.6z M123.6,25.1l-3.9-0.2l-0.1,1.7l3.9,0.2L123.6,25.1z M123.7,22.3l-3.9-0.2l-0.1,1.5l3.9,0.2
			L123.7,22.3z M121.2,20.5c-0.1-0.7-0.3-1.4-0.7-2.1l1.7-0.6c0.3,0.7,0.6,1.5,0.9,2.2L121.2,20.5z M133.9,27.8
			c1.4,0.1,1.9,0.1,2.5,0c-0.1,0.4-0.1,0.9-0.2,1.8l-0.1,2.4c0,1.1,0,2,0.1,3l-2-0.1l0.1-1.4l-5.7-0.2l-0.1,1.7l-1.9-0.1
			c0.2-1.6,0.3-2.8,0.4-4.5l0.4-8.2c0-0.8,0-1.5,0-2.1c0.7,0.1,2.7,0.2,4.3,0.3c1.6,0.1,3.5,0.1,4.2,0.1c-0.1,0.6-0.2,1.3-0.2,2.1
			l-0.1,1.3c0,0.8,0,1.6,0,2.1c-0.7-0.1-1.4-0.1-2.1-0.2l-4.6-0.2l-0.1,2L133.9,27.8z M134.5,29.3l-5.7-0.2l-0.1,2.7l5.7,0.2
			L134.5,29.3z M134,21.9l-4.8-0.2l-0.1,2.4l4.8,0.2L134,21.9z M133.1,15.9l-1.8,0.6c-0.2-0.8-0.6-1.5-1-2.2l1.9-0.8
			C132.6,14.5,132.8,14.9,133.1,15.9z"/>
	</g>
	<g>
		<g>
			<g>
				<path class="st2" d="M6.5,19.8c-0.1,1.4-0.1,2.8,0.1,4.2c0.1,0.5,0.8,0.3,0.7-0.2c-0.2-1.3-0.2-2.6-0.1-4
					C7.3,19.3,6.5,19.3,6.5,19.8L6.5,19.8z"/>
			</g>
		</g>
		<g>
			<g>
				<path class="st2" d="M8.3,19.1c-0.1,2,0,4,0.1,6.1c0,0.5,0.8,0.5,0.8,0c-0.1-2-0.1-4-0.1-6.1C9.1,18.6,8.4,18.6,8.3,19.1
					L8.3,19.1z"/>
			</g>
		</g>
		<g>
			<g>
				<path class="st2" d="M154,11.8c0,0.5,0,1.1,0,1.6s0.8,0.5,0.8,0s0-1.1,0-1.6S154,11.3,154,11.8L154,11.8z"/>
			</g>
		</g>
		<g>
			<g>
				<path class="st2" d="M155.2,11.5c0.1,0.9,0.2,1.7,0.1,2.6c0,0.5,0.7,0.5,0.8,0c0-0.9,0-1.9-0.2-2.8
					C155.9,10.8,155.2,11,155.2,11.5L155.2,11.5z"/>
			</g>
		</g>
		<g>
			<g>
				<path class="st2" d="M157.4,11.5c0.1,0.9,0.2,1.7,0.1,2.6c0,0.5,0.7,0.5,0.8,0c0.1-0.9,0-1.9-0.1-2.8
					C158.1,10.8,157.3,11,157.4,11.5L157.4,11.5z"/>
			</g>
		</g>
		<g>
			<g>
				<path class="st2" d="M159.7,11.4c0,1.3,0,2.6,0,3.9c0,0.5,0.8,0.5,0.8,0c0-1.3,0-2.6,0-3.9C160.4,10.9,159.7,10.9,159.7,11.4
					L159.7,11.4z"/>
			</g>
		</g>
		<g>
			<g>
				<path class="st2" d="M162.5,12.1c0,1.4,0,2.7,0,4.1c0,0.5,0.8,0.5,0.8,0c-0.1-1.4-0.1-2.7,0-4.1
					C163.3,11.6,162.5,11.6,162.5,12.1L162.5,12.1z"/>
			</g>
		</g>
		<g>
			<g>
				<path class="st2" d="M164.4,12.4c0.2,1.3,0.3,2.5,0.2,3.8c0,0.5,0.7,0.5,0.8,0c0.1-1.4,0-2.7-0.3-4
					C165.1,11.8,164.3,12,164.4,12.4L164.4,12.4z"/>
			</g>
		</g>
		<g>
			<g>
				<path class="st2" d="M168,12.1c0.1,1.6,0,3.1-0.2,4.6c-0.1,0.5,0.6,0.7,0.7,0.2c0.3-1.6,0.4-3.2,0.2-4.8
					C168.8,11.6,168,11.6,168,12.1L168,12.1z"/>
			</g>
		</g>
		<g>
			<g>
				<path class="st2" d="M170.9,13c-0.2,1.7-0.3,3.3-0.3,5c0,0.5,0.7,0.5,0.8,0c0-1.7,0.1-3.3,0.3-5C171.7,12.5,170.9,12.5,170.9,13
					L170.9,13z"/>
			</g>
		</g>
		<g>
			<g>
				<path class="st2" d="M172.9,12.7c0.3,1.9,0.4,3.7,0.1,5.6c-0.1,0.5,0.7,0.7,0.7,0.2c0.3-2,0.3-4-0.1-6
					C173.6,12,172.8,12.2,172.9,12.7L172.9,12.7z"/>
			</g>
		</g>
		<g>
			<g>
				<path class="st2" d="M176.1,12.2c0.5,0.7,0.2,2.3,0.1,3.1c-0.1,1.1-0.2,2.2-0.4,3.2c-0.1,0.5,0.6,0.7,0.7,0.2
					c0.2-1.3,0.4-2.6,0.4-3.9c0.1-0.9,0.3-2.1-0.3-3C176.4,11.5,175.8,11.8,176.1,12.2L176.1,12.2z"/>
			</g>
		</g>
		<g>
			<g>
				<path class="st2" d="M180,12.9c-0.1,1.8-0.2,3.6-0.3,5.4c0,0.5,0.7,0.5,0.8,0c0.1-1.8,0.2-3.6,0.3-5.4
					C180.7,12.4,180,12.4,180,12.9L180,12.9z"/>
			</g>
		</g>
		<g>
			<g>
				<path class="st2" d="M183,13.1c-0.3,0-0.1,2.1-0.1,2.4c-0.1,0.9-0.2,1.8-0.4,2.7c-0.1,0.5,0.6,0.7,0.7,0.2
					c0.2-0.9,1.4-6.3-0.4-6C182.3,12.5,182.5,13.2,183,13.1L183,13.1z"/>
			</g>
		</g>
		<g>
			<g>
				<path class="st2" d="M184.9,13.7c0,1.8,0,3.5,0,5.3c0,0.5,0.8,0.5,0.8,0c0-1.8,0-3.5,0-5.3C185.7,13.2,184.9,13.2,184.9,13.7
					L184.9,13.7z"/>
			</g>
		</g>
		<g>
			<g>
				<path class="st2" d="M187.2,15.7c0.2,1,0.3,2.1,0.2,3.1c0,0.5,0.7,0.5,0.8,0c0.1-1.1,0-2.2-0.2-3.3
					C187.8,15,187.1,15.2,187.2,15.7L187.2,15.7z"/>
			</g>
		</g>
		<g>
			<g>
				<path class="st2" d="M188.7,16c0,0.6,0.1,1.2,0.1,1.8c0,0.5,0.8,0.5,0.8,0c0-0.6-0.1-1.2-0.1-1.8
					C189.4,15.5,188.7,15.5,188.7,16L188.7,16z"/>
			</g>
		</g>
		<g>
			<g>
				<path class="st2" d="M132.5,41.5c0.1,2,0.1,4,0.2,6.1c0.1,1.6,0,3.2,0.5,4.7c0.2,0.5,0.9,0.3,0.7-0.2c-0.6-1.7-0.5-3.6-0.5-5.3
					c-0.1-1.8-0.1-3.5-0.2-5.3C133.2,41,132.5,41,132.5,41.5L132.5,41.5z"/>
			</g>
		</g>
		<g>
			<g>
				<path class="st2" d="M134.6,41.4c0.2,3.3,0.4,6.6,0.7,9.9c0,0.5,0.8,0.5,0.8,0c-0.3-3.3-0.5-6.6-0.7-9.9
					C135.4,40.9,134.6,40.9,134.6,41.4L134.6,41.4z"/>
			</g>
		</g>
		<g>
			<g>
				<path class="st2" d="M136.8,41.4c0.3,2.4,0.4,4.8,0.2,7.3c0,0.5,0.7,0.5,0.8,0c0.1-2.4,0.1-4.9-0.2-7.3
					C137.5,40.9,136.8,40.9,136.8,41.4L136.8,41.4z"/>
			</g>
		</g>
		<g>
			<g>
				<path class="st2" d="M138.8,42.5c0,1.7,0,3.4,0,5.1c0,0.5,0.8,0.5,0.8,0c0-1.7,0-3.4,0-5.1C139.5,42,138.8,42,138.8,42.5
					L138.8,42.5z"/>
			</g>
		</g>
		<g>
			<g>
				<path class="st2" d="M141.1,43.5c0,0.7,0.1,1.4,0.1,2.2c0,0.5,0.8,0.5,0.8,0c0-0.7-0.1-1.4-0.1-2.2
					C141.8,43.1,141,43.1,141.1,43.5L141.1,43.5z"/>
			</g>
		</g>
		<g>
			<g>
				<path class="st2" d="M143.5,43.7c0,0.4,0.1,0.9,0.1,1.3c0.1,0.5,0.8,0.5,0.8,0c0-0.4-0.1-0.9-0.1-1.3
					C144.2,43.2,143.4,43.2,143.5,43.7L143.5,43.7z"/>
			</g>
		</g>
		<g>
			<g>
				<path class="st2" d="M145.4,43.1c0.1,0.4,0.2,0.7,0.3,1.1c0.1,0.5,0.8,0.3,0.7-0.2c-0.1-0.4-0.2-0.7-0.3-1.1
					C146,42.4,145.3,42.6,145.4,43.1L145.4,43.1z"/>
			</g>
		</g>
		<g>
			<g>
				<path class="st2" d="M136.3,59.1c-0.1,0.7,0,1.4,0.1,2.1c0.1,0.5,0.8,0.3,0.7-0.2c-0.1-0.6-0.2-1.2-0.1-1.9
					C137.1,58.6,136.4,58.6,136.3,59.1L136.3,59.1z"/>
			</g>
		</g>
		<g>
			<g>
				<path class="st2" d="M137.9,56.6c0,1.2,0.1,2.3,0.3,3.5c0.1,0.5,0.8,0.3,0.7-0.2c-0.2-1.1-0.3-2.2-0.3-3.3
					C138.7,56.1,137.9,56.1,137.9,56.6L137.9,56.6z"/>
			</g>
		</g>
		<g>
			<g>
				<path class="st2" d="M139.7,54.2c0.4,1.5,0.5,3.1,0.1,4.6c-0.1,0.5,0.6,0.7,0.7,0.2c0.3-1.7,0.3-3.3-0.1-5
					C140.3,53.6,139.6,53.8,139.7,54.2L139.7,54.2z"/>
			</g>
		</g>
		<g>
			<g>
				<path class="st2" d="M142.5,51.5c-0.2,2.1-0.2,4.2-0.1,6.2c0,0.5,0.8,0.5,0.8,0c-0.1-2.1,0-4.2,0.1-6.2
					C143.3,51,142.5,51,142.5,51.5L142.5,51.5z"/>
			</g>
		</g>
		<g>
			<g>
				<path class="st2" d="M144.1,49.5c0.1,2.7,0.2,5.3,0.3,8c0,0.5,0.8,0.5,0.8,0c-0.1-2.7-0.2-5.3-0.3-8
					C144.8,49,144.1,49,144.1,49.5L144.1,49.5z"/>
			</g>
		</g>
		<g>
			<g>
				<path class="st2" d="M145.8,50.7c0.4,1.8,0.6,3.6,0.6,5.4c0,0.5,0.8,0.5,0.8,0c0-1.9-0.2-3.8-0.6-5.6
					C146.4,50,145.7,50.2,145.8,50.7L145.8,50.7z"/>
			</g>
		</g>
		<g>
			<g>
				<path class="st2" d="M147.7,51.7c0.2,0.8,0.4,1.6,0.4,2.4c0,0.5,0.7,0.5,0.8,0c0-0.9-0.1-1.7-0.4-2.6
					C148.3,51.1,147.6,51.3,147.7,51.7L147.7,51.7z"/>
			</g>
		</g>
		<g>
			<g>
				<path class="st2" d="M160.6,76.4c0.1,1.4,0.3,2.8,0.4,4.3c0,0.5,0.8,0.5,0.8,0c-0.1-1.4-0.3-2.8-0.4-4.3
					C161.3,75.9,160.6,75.9,160.6,76.4L160.6,76.4z"/>
			</g>
		</g>
		<g>
			<g>
				<path class="st2" d="M162.9,76.8c0.4,2,0.7,4.1,1.1,6.1c0.1,0.5,0.8,0.3,0.7-0.2c-0.4-2-0.7-4.1-1.1-6.1
					C163.6,76.1,162.9,76.4,162.9,76.8L162.9,76.8z"/>
			</g>
		</g>
		<g>
			<g>
				<path class="st2" d="M165.7,78.6c0.7,1.9,1,3.9,1,6c0,0.5,0.7,0.5,0.8,0c0-2.1-0.3-4.2-1-6.2C166.3,78,165.6,78.1,165.7,78.6
					L165.7,78.6z"/>
			</g>
		</g>
		<g>
			<g>
				<path class="st2" d="M168.6,79.6c0.7,1.9,0.9,3.9,0.5,5.9c-0.1,0.5,0.6,0.7,0.7,0.2c0.3-2.1,0.2-4.2-0.5-6.3
					C169.2,79,168.5,79.2,168.6,79.6L168.6,79.6z"/>
			</g>
		</g>
		<g>
			<g>
				<path class="st2" d="M171.4,82.1c0,1.9,0,3.8,0,5.7c0,0.5,0.8,0.5,0.8,0c0-1.9,0-3.8,0-5.7C172.1,81.6,171.4,81.6,171.4,82.1
					L171.4,82.1z"/>
			</g>
		</g>
		<g>
			<g>
				<path class="st2" d="M173.2,83.1c0.1,1.2,0.2,2.4,0.3,3.6c0,0.5,0.8,0.5,0.8,0c-0.1-1.2-0.2-2.4-0.3-3.6
					C173.9,82.7,173.2,82.7,173.2,83.1L173.2,83.1z"/>
			</g>
		</g>
		<g>
			<g>
				<path class="st2" d="M128.2,111.1c-0.9,4.4,0.3,8.8,3.4,12.2c0.3,0.4,0.9-0.2,0.5-0.5c-2.9-3.1-4-7.3-3.2-11.5
					C129,110.9,128.3,110.7,128.2,111.1L128.2,111.1z"/>
			</g>
		</g>
		<g>
			<g>
				<path class="st2" d="M132.6,110.9c-0.1,3.8,0.4,7.5,1.6,11.2c0.2,0.5,0.9,0.3,0.7-0.2c-1.2-3.6-1.7-7.2-1.6-11
					C133.4,110.4,132.6,110.4,132.6,110.9L132.6,110.9z"/>
			</g>
		</g>
		<g>
			<g>
				<path class="st2" d="M135.7,112.9c-0.6,3.2-0.1,6.4,1.4,9.3c0.2,0.4,0.9,0.1,0.6-0.4c-1.4-2.7-1.8-5.7-1.3-8.7
					C136.5,112.7,135.8,112.5,135.7,112.9L135.7,112.9z"/>
			</g>
		</g>
		<g>
			<g>
				<path class="st2" d="M137.2,113.1c0.1,2.7,0.3,5.3,0.9,7.9c0.1,0.5,0.8,0.3,0.7-0.2c-0.5-2.6-0.8-5.1-0.8-7.7
					C137.9,112.6,137.1,112.6,137.2,113.1L137.2,113.1z"/>
			</g>
		</g>
		<g>
			<g>
				<path class="st2" d="M140.4,153.9c-0.3,1.7,0,3.4,0.7,4.9c0.2,0.4,0.9,0.1,0.6-0.4c-0.6-1.4-0.9-2.8-0.6-4.3
					C141.2,153.6,140.5,153.4,140.4,153.9L140.4,153.9z"/>
			</g>
		</g>
		<g>
			<g>
				<path class="st2" d="M142.3,153.3c0.1,2.3,0.2,4.5,0.3,6.8c0,0.5,0.8,0.5,0.8,0c-0.1-2.3-0.2-4.5-0.3-6.8
					C143,152.8,142.3,152.8,142.3,153.3L142.3,153.3z"/>
			</g>
		</g>
		<g>
			<g>
				<path class="st2" d="M145.6,152.2c0.2,2.9,0.3,5.7,0.2,8.6c0,0.5,0.7,0.5,0.8,0c0.1-2.9,0.1-5.7-0.2-8.6
					C146.3,151.7,145.5,151.7,145.6,152.2L145.6,152.2z"/>
			</g>
		</g>
		<g>
			<g>
				<path class="st2" d="M147.5,150.4c0.4,3.2,0.5,6.4,0.4,9.6c0,0.5,0.7,0.5,0.8,0c0.1-3.2-0.1-6.4-0.4-9.6
					C148.2,150,147.4,150,147.5,150.4L147.5,150.4z"/>
			</g>
		</g>
		<g>
			<g>
				<path class="st2" d="M148.7,152.3c0.9,2.3,1.1,4.6,0.9,7.1c-0.1,0.5,0.7,0.5,0.8,0c0.3-2.5,0-4.9-0.9-7.3
					C149.3,151.6,148.6,151.8,148.7,152.3L148.7,152.3z"/>
			</g>
		</g>
		<g>
			<g>
				<path class="st2" d="M151.1,151.5c0,1.8,0,3.6,0,5.3c0,0.5,0.8,0.5,0.8,0c0-1.8,0-3.6,0-5.3C151.8,151,151.1,151,151.1,151.5
					L151.1,151.5z"/>
			</g>
		</g>
		<g>
			<g>
				<path class="st2" d="M152.2,150.9c0.3,1.6,0.4,3.2,0.2,4.9c0,0.5,0.7,0.5,0.8,0c0.2-1.7,0.1-3.4-0.2-5.1
					C152.9,150.2,152.1,150.4,152.2,150.9L152.2,150.9z"/>
			</g>
		</g>
		<g>
			<g>
				<path class="st2" d="M169.6,165c0,4.7,0,9.8-2.9,13.8s-7.7,4.9-12.4,4.7c-0.5,0-0.5,0.7,0,0.8c4.7,0.2,9.5-0.6,12.6-4.4
					c3.4-4.2,3.4-9.7,3.4-14.8C170.3,164.6,169.6,164.6,169.6,165L169.6,165z"/>
			</g>
		</g>
		<g>
			<g>
				<path class="st2" d="M171.8,171.5c1.3,3.7-2.3,6.7-4.7,9.1c-2.4,2.3-5,4.3-8.2,5.1c-0.5,0.1-0.3,0.9,0.2,0.7
					c4-1.1,7-3.7,9.9-6.6c2.3-2.3,4.8-5,3.6-8.5C172.4,170.9,171.6,171.1,171.8,171.5L171.8,171.5z"/>
			</g>
		</g>
		<g>
			<g>
				<path class="st2" d="M170.2,179.1c-2.3,2.8-5.3,4.7-8.9,5.4c-0.5,0.1-0.3,0.8,0.2,0.7c3.7-0.8,6.8-2.7,9.2-5.6
					C171,179.2,170.5,178.7,170.2,179.1L170.2,179.1z"/>
			</g>
		</g>
		<g>
			<g>
				<path class="st2" d="M147.3,188.9c-4.5-0.7-3.5,6.3-2.9,8.7c0.1,0.5,0.8,0.3,0.7-0.2c-0.4-1.7-1.6-8.3,2-7.8
					C147.5,189.7,147.7,189,147.3,188.9L147.3,188.9z"/>
			</g>
		</g>
		<g>
			<g>
				<path class="st2" d="M141.4,193.9c0.2,1.8,1,3.3,2.3,4.5c0.4,0.3,0.9-0.2,0.5-0.5c-1.2-1-1.9-2.4-2.1-4
					C142.1,193.4,141.3,193.4,141.4,193.9L141.4,193.9z"/>
			</g>
		</g>
		<g>
			<g>
				<path class="st2" d="M139.6,193.6c0.7,2.1,2.4,3.8,4.6,4.3c0.5,0.1,0.7-0.6,0.2-0.7c-1.9-0.4-3.5-1.8-4.1-3.7
					C140.2,193,139.5,193.2,139.6,193.6L139.6,193.6z"/>
			</g>
		</g>
		<g>
			<g>
				<path class="st2" d="M132.5,104.7c-3.2,5.1-3.3,11.3-0.4,16.5c0.2,0.4,0.9,0,0.6-0.4c-2.8-5-2.6-10.9,0.4-15.8
					C133.4,104.6,132.7,104.3,132.5,104.7L132.5,104.7z"/>
			</g>
		</g>
	</g>
	<g>
		<path class="st2" d="M19.1,8.9c0,0.2-0.1,0.4-0.3,0.4c-0.2,0-0.3-0.1-0.4-0.2l-6.6,1.8c-0.2,0.3-0.4,0.6-0.7,0.8l-0.9,7
			c0.1,0,0.3,0.2,0.3,0.3c0,0.2-0.1,0.4-0.3,0.4s-0.4-0.1-0.4-0.3c0-0.2,0.1-0.3,0.2-0.4l-1.8-6.8C8.1,11.8,8,11.8,8,11.7
			c-0.2-0.1-0.3-0.3-0.5-0.5l-6.8-0.9c0,0.1-0.2,0.3-0.3,0.3c-0.2,0-0.4-0.1-0.4-0.3C0,10,0.1,9.8,0.3,9.8S0.6,9.9,0.7,10l6.8-1.8
			c0-0.1,0.1-0.2,0.2-0.3s0.1-0.1,0.2-0.2l0.9-7c-0.1,0-0.3-0.2-0.3-0.3C8.5,0.2,8.6,0,8.8,0s0.4,0.1,0.4,0.3S9.1,0.6,9,0.7l1.8,6.7
			c0.2,0.1,0.5,0.3,0.7,0.5l6.9,0.9c0-0.1,0.2-0.3,0.3-0.3C18.9,8.5,19,8.7,19.1,8.9z"/>
	</g>
</g>
</svg>
