<?xml version="1.0" encoding="utf-8"?>
<!-- Generator: Adobe Illustrator 22.0.1, SVG Export Plug-In . SVG Version: 6.00 Build 0)  -->
<svg version="1.1" id="圖層_1" xmlns="http://www.w3.org/2000/svg" xmlns:xlink="http://www.w3.org/1999/xlink" x="0px" y="0px"
	 viewBox="0 0 120.1 66.7" style="enable-background:new 0 0 120.1 66.7;" xml:space="preserve">
<style type="text/css">
	.st0{fill:#D4C5A7;}
	.st1{fill:#754C24;}
	.st2{fill:none;}
</style>
<g>
	<g>
		<g>
			<g>
				<path class="st0" d="M14.9,48.3c-0.1-6.8-0.4-13.6-0.8-20.4c-1,0.1-2,0.3-2.9,0.4c1,6.2,2,12.4,2.9,18.6
					c0.3,1.7,2.9,1.3,2.9-0.4c0-5.7,0-11.3,0-17c-1,0.1-2,0.3-2.9,0.4c1,4.3,2,8.7,3,13c0.4,1.7,2.9,1.2,2.9-0.4
					c0.2-4.9,0.4-9.9,0.6-14.8c-0.5,0.5-1,1-1.5,1.5c2.5,0.2,4.9,0.2,7.3-0.1c1.9-0.2,1.9-3.2,0-3c-2.5,0.3-4.8,0.3-7.3,0.1
					c-0.8-0.1-1.5,0.7-1.5,1.5c-0.2,4.9-0.4,9.9-0.6,14.8c1-0.1,2-0.3,2.9-0.4c-1-4.3-2-8.7-3-13c-0.4-1.7-2.9-1.3-2.9,0.4
					c0,5.7,0,11.3,0,17c1-0.1,2-0.3,2.9-0.4c-1-6.2-2-12.4-2.9-18.6c-0.3-1.7-3.1-1.3-2.9,0.4c0.5,6.8,0.7,13.6,0.8,20.4
					C11.9,50.3,14.9,50.3,14.9,48.3L14.9,48.3z"/>
			</g>
		</g>
		<g>
			<g>
				<path class="st0" d="M15.6,15.5c-0.9,2.9-1.8,5.7-2.9,8.5c-0.6,1.6,1.9,2.6,2.7,1.2c0.6-1.1,1.3-1.8,2.4-2.5
					c-0.7-0.6-1.5-1.1-2.2-1.7c-0.2,1.1-0.3,2.2-0.5,3.4c-0.3,1.9,2.6,2.7,2.9,0.8c0.2-1.1,0.3-2.2,0.5-3.4c0.2-1.2-1-2.4-2.2-1.7
					c-1.5,0.9-2.6,2.1-3.4,3.6c0.9,0.4,1.8,0.8,2.7,1.2c1-2.8,2-5.6,2.9-8.5C19,14.4,16.1,13.7,15.6,15.5L15.6,15.5z"/>
			</g>
		</g>
		<g>
			<g>
				<path class="st0" d="M52,34.5c0.9,8.3,1.2,16.5,0.6,24.8c-0.1,1.9,2.9,1.9,3,0C56.2,51,56,42.7,55,34.5
					C54.8,32.6,51.8,32.5,52,34.5L52,34.5z"/>
			</g>
		</g>
		<g>
			<g>
				<path class="st0" d="M28,41c-0.1,5.8,0,11.6,0.4,17.3c0.1,1.9,3.1,1.9,3,0C31,52.5,30.9,46.8,31,41C31.1,39,28.1,39,28,41L28,41
					z"/>
			</g>
		</g>
		<g>
			<g>
				<path class="st0" d="M33.4,37.5c1.9,0.2,3.9,0.2,5.8,0c1.9-0.2,1.9-3.2,0-3c-1.9,0.2-3.9,0.2-5.8,0
					C31.5,34.3,31.5,37.3,33.4,37.5L33.4,37.5z"/>
			</g>
		</g>
		<g>
			<g>
				<path class="st0" d="M88.4,29.7c0.9-1.6,1.9-3.2,2.7-4.8c0.7-1.5,1.3-3,2.2-4.4c-0.9-0.4-1.8-0.8-2.7-1.2
					c-0.7,2.2-1.2,4.4-1.6,6.6c-0.2,1.3-0.2,2.7,1.3,3.1c0.6,0.2,1.4-0.1,1.7-0.7c0.5-0.8,1-1.4,1.8-1.9c-0.7-0.3-1.5-0.6-2.2-0.9
					c0.2,0.6,0.2,1.1-0.1,1.7c-0.6,1.8,2.3,2.6,2.9,0.8c0.4-1.1,0.4-2.1,0.1-3.3c-0.2-0.9-1.4-1.4-2.2-0.9c-1.2,0.8-2.2,1.7-2.9,3
					c0.6-0.2,1.1-0.5,1.7-0.7c-0.1,0-0.1,0-0.2-0.1c0.3,0.2,0.6,0.5,0.9,0.7c-0.1-0.3,0.6-2.6,0.7-3.1c0.3-1.2,0.6-2.4,1-3.6
					c0.5-1.7-1.8-2.5-2.7-1.2c-0.9,1.4-1.5,2.9-2.2,4.4c-0.8,1.7-1.7,3.2-2.7,4.8C84.8,29.9,87.4,31.4,88.4,29.7L88.4,29.7z"/>
			</g>
		</g>
		<g>
			<g>
				<path class="st0" d="M87.3,33.3c-0.1,2.9-0.3,5.7-0.6,8.6c-0.2,1.9,2.8,1.9,3,0c0.3-2.9,0.5-5.7,0.6-8.6
					C90.3,31.4,87.3,31.4,87.3,33.3L87.3,33.3z"/>
			</g>
		</g>
		<g>
			<g>
				<path class="st0" d="M17.5,49.8c0.1,1.2,0,2.4-0.2,3.7c-0.2,1.2-0.6,2.3-0.5,3.6c0.2,1.9,3.2,1.9,3,0c-0.1-1.2,0.3-2.5,0.5-3.7
					c0.1-1.2,0.2-2.4,0.1-3.6C20.4,47.9,17.4,47.9,17.5,49.8L17.5,49.8z"/>
			</g>
		</g>
		<g>
			<g>
				<path class="st0" d="M53.8,32.7c1-1.9,1.8-3.8,2.6-5.8c0.3-0.8-0.3-1.6-1-1.8c-0.9-0.2-1.5,0.3-1.8,1c-0.7,1.7-1.5,3.4-2.3,5
					C50.3,32.9,52.9,34.4,53.8,32.7L53.8,32.7z"/>
			</g>
		</g>
		<g>
			<g>
				<path class="st0" d="M34.4,33.8c1.5-0.2,3.1-0.1,4.6,0.1c0.8,0.1,1.5-0.8,1.5-1.5c0-0.9-0.7-1.4-1.5-1.5c-1.5-0.2-3-0.2-4.6-0.1
					c-0.8,0.1-1.5,0.6-1.5,1.5C32.9,33.1,33.5,33.9,34.4,33.8L34.4,33.8z"/>
			</g>
		</g>
		<g>
			<g>
				<path class="st0" d="M21.1,55.2c0,1.4,0,2.8,0,4.2c0,1.1,1.3,1.9,2.3,1.3c1-0.7,1.2-1.6,1.6-2.6c0.4-1.3,0.8-2.5,1.2-3.8
					c-1-0.1-2-0.3-2.9-0.4c0.1,1.2,0.1,2.3,0.2,3.5c0.1,0.9,0,2,0.5,2.8c0.6,0.9,2,1.1,2.6,0c0.7-1.3,1.3-2.6,2-3.8
					c-0.9-0.1-1.8-0.2-2.7-0.4c0.4,1.2,0.4,2.4,0.3,3.7c-0.1,1.9,2.9,1.9,3,0c0.1-1.5,0.1-3-0.4-4.5c-0.4-1.1-2.1-1.6-2.7-0.4
					c-0.7,1.3-1.3,2.6-2,3.8c0.9,0,1.7,0,2.6,0c-0.3-0.4-0.1-1.6-0.2-2.2c-0.1-0.9-0.1-1.8-0.2-2.6c-0.1-1.7-2.4-2-2.9-0.4
					c-0.3,0.8-0.6,1.7-0.8,2.5c-0.1,0.4-0.3,0.8-0.4,1.3c0,0.1-0.3,0.9-0.2,0.9c0.8,0.4,1.5,0.9,2.3,1.3c0-1.4,0-2.8,0-4.2
					C24.1,53.3,21.1,53.3,21.1,55.2L21.1,55.2z"/>
			</g>
		</g>
		<g>
			<g>
				<path class="st0" d="M12,50.8c-0.2,1.4-0.4,2.8-0.7,4.1c-0.2,1.2,1,2.5,2.2,1.7c1-0.6,1.9-1.3,2.8-2c-0.8-0.5-1.7-1-2.5-1.5
					c-0.5,2.2-0.6,4.3-0.3,6.5c0.2,1.2,1.8,1.3,2.5,0.7c0.5-0.4,1-0.9,1.5-1.3c-0.8-0.5-1.7-1-2.5-1.5c-0.1,1-0.3,1.9-0.4,2.9
					c-0.3,1.9,2.6,2.7,2.9,0.8c0.1-1,0.3-1.9,0.4-2.9c0.2-1.5-1.3-2.5-2.5-1.5c-0.5,0.4-1,0.9-1.5,1.3c0.8,0.2,1.7,0.4,2.5,0.7
					c-0.3-1.7-0.1-3.3,0.3-4.9c0.4-1.6-1.4-2.3-2.5-1.5C13.5,53,12.8,53.5,12,54c0.7,0.6,1.5,1.1,2.2,1.7c0.2-1.4,0.4-2.8,0.7-4.1
					C15.2,49.7,12.3,48.8,12,50.8L12,50.8z"/>
			</g>
		</g>
		<g>
			<g>
				<path class="st0" d="M40.2,7.1c-0.2,2.6,1.1,4.9,2.6,7.1c1.1,1.6,3.7,0.1,2.6-1.5C44.2,11,43,9.2,43.2,7.1
					C43.3,5.2,40.3,5.2,40.2,7.1L40.2,7.1z"/>
			</g>
		</g>
		<g>
			<g>
				<path class="st0" d="M74,56.6c-0.2,1.2-0.5,2.4-0.7,3.5c-0.4,1.7,1.7,2.5,2.7,1.2c0.9-1.2,1.7-2.5,2.4-3.9
					c-0.9-0.3-1.9-0.5-2.8-0.8c-0.1,0.8-0.1,1.6-0.1,2.4c0.1,1.9,3.1,1.9,3,0c0-0.8,0-1.6,0.1-2.4c0.2-1.5-2.2-2.1-2.8-0.8
					c-0.7,1.4-1.5,2.7-2.4,3.9c0.9,0.4,1.8,0.8,2.7,1.2c0.2-1.2,0.5-2.4,0.7-3.5C77.3,55.6,74.4,54.7,74,56.6L74,56.6z"/>
			</g>
		</g>
		<g>
			<g>
				<path class="st0" d="M83.6,49.9c-0.7,1.6-1.4,3.2-2,4.8c-0.4,1.1,0.8,2.2,1.8,1.8c1.4-0.4,1.6-1.7,2.2-2.9
					c0.6-1.3,1.4-2.5,2.4-3.6c-0.8-0.2-1.7-0.4-2.5-0.7c0.3,1.3,0.3,2.6-0.1,3.9c-0.5,1.9,2.4,2.7,2.9,0.8c0.5-1.8,0.5-3.6,0.1-5.5
					c-0.3-1.1-1.7-1.5-2.5-0.7c-0.8,0.9-1.6,1.9-2.2,2.9c-0.3,0.5-0.5,1-0.8,1.5c-0.1,0.3-0.3,0.6-0.4,0.9c-0.2,0.4-0.4,0.6,0.1,0.4
					c0.6,0.6,1.2,1.2,1.8,1.8c0.5-1.4,1.1-2.7,1.7-4C87,49.7,84.4,48.2,83.6,49.9L83.6,49.9z"/>
			</g>
		</g>
		<g>
			<g>
				<path class="st0" d="M98.5,53.7c-0.6,1-1,2.1-1.3,3.2c-0.1,0.7,0.1,1.3,0.7,1.7c0.5,0.3,1.4,0.3,1.8-0.2
					c0.4-0.5,0.8-0.9,1.2-1.3c0.2-0.2,0.4-0.4,0.6-0.6c0.1-0.1,0.2-0.2,0.3-0.3c0.2-0.2,0.3-0.2,0.2-0.1c-0.3,0-0.5,0-0.8,0
					c0,0,0.1,0,0.1,0c-0.2-0.1-0.4-0.3-0.7-0.4c-0.2-0.5-0.2-0.7-0.2-0.4c0,0.1,0,0.2,0,0.4c0,0.3,0,0.6-0.1,0.8
					c0,0.6-0.1,1.1-0.1,1.7c-0.1,0.8,0.7,1.5,1.5,1.5c0.9,0,1.4-0.7,1.5-1.5c0.1-1.5,0.8-4.4-1.1-5c-1-0.3-1.8,0.3-2.5,1
					c-0.7,0.6-1.4,1.3-2.1,2.1c0.8,0.5,1.7,1,2.5,1.5c0.2-0.9,0.5-1.7,1-2.5C102.1,53.6,99.5,52.1,98.5,53.7L98.5,53.7z"/>
			</g>
		</g>
		<g>
			<g>
				<path class="st0" d="M64.4,20.7c-0.6,0.9-0.7,2-0.5,3c0.2,0.9,1.4,1.5,2.2,0.9c0.7-0.5,1.4-1.1,1.8-1.9
					c-0.9-0.3-1.9-0.5-2.8-0.8c0,0.8,0.2,1.4,0.5,2.1c0.4,0.7,1.4,0.9,2.1,0.5c0.7-0.4,0.9-1.3,0.5-2.1c-0.1-0.1-0.1-0.5-0.1-0.6
					c0-1.5-2-2.1-2.8-0.8c-0.1,0.1-0.1,0.2-0.2,0.3c-0.1,0.2,0.2-0.2-0.1,0.1c-0.1,0.1-0.1,0.2-0.2,0.2c0,0-0.3,0.3-0.2,0.2
					c0.7,0.3,1.5,0.6,2.2,0.9c-0.1-0.3,0,0,0-0.1c0-0.1,0-0.4,0-0.1c0-0.1,0-0.2,0.1-0.3c-0.1,0.2,0.1-0.2,0.1-0.2
					c0.4-0.7,0.1-1.7-0.5-2.1C65.8,19.7,64.9,20,64.4,20.7L64.4,20.7z"/>
			</g>
		</g>
		<g>
			<g>
				<path class="st0" d="M97.7,29.6c0.8,0.3,1.5,0.7,2.1,1.4c0.5,0.6,1.6,0.5,2.1,0c0.6-0.6,0.5-1.5,0-2.1c-0.9-1-2.1-1.8-3.4-2.2
					c-0.8-0.3-1.6,0.3-1.8,1C96.5,28.5,97,29.3,97.7,29.6L97.7,29.6z"/>
			</g>
		</g>
		<g>
			<g>
				<path class="st0" d="M70.3,35.1c0.9,0,1.9,0,2.8,0c1.9,0,1.9-3,0-3c-0.9,0-1.9,0-2.8,0C68.3,32.1,68.3,35.1,70.3,35.1L70.3,35.1
					z"/>
			</g>
		</g>
		<g>
			<g>
				<path class="st0" d="M56.9,20.7c1.5,3.3,2.6,7.6,5.3,10c1.4,1.3,3.6-0.8,2.1-2.1c-1.3-1.2-1.9-2.7-2.6-4.2
					c-0.8-1.7-1.5-3.5-2.3-5.2C58.7,17.4,56.1,19,56.9,20.7L56.9,20.7z"/>
			</g>
		</g>
		<g>
			<g>
				<path class="st0" d="M33.8,55.3c-0.3,1.2-0.4,2.4-0.3,3.6c0.1,1.6,1.9,1.9,2.8,0.8c0.8-1.1,1.7-2.9,2.9-3.4
					c-0.8-0.4-1.5-0.9-2.3-1.3c0.1,1.3,0.1,2.6,0.2,3.9c0.1,1.5,2,2,2.8,0.8c0.8-1.2,1.6-2.4,2.6-3.6c-0.9-0.4-1.7-0.7-2.6-1.1
					c0.1,1.6,0.1,3.2-0.1,4.8c-0.2,1.4,2.2,2.1,2.8,0.8c0.5-1.1,1.1-2.1,1.8-3.1c-0.9-0.3-1.9-0.5-2.8-0.8c0,0.5,0,0.9-0.1,1.4
					c-0.3,1.9,2.6,2.7,2.9,0.8c0.1-0.7,0.2-1.4,0.2-2.2c0-1.6-2-1.9-2.8-0.8c-0.7,1-1.3,2-1.8,3.1c0.9,0.3,1.9,0.5,2.8,0.8
					c0.2-1.6,0.2-3.2,0.1-4.8c-0.1-1.2-1.7-2.1-2.6-1.1c-1.1,1.3-2.1,2.7-3,4.2c0.9,0.3,1.9,0.5,2.8,0.8c-0.1-1.3-0.1-2.6-0.2-3.9
					c0-1.2-1.2-1.7-2.3-1.3c-1.8,0.8-2.9,3-4,4.5c0.9,0.3,1.9,0.5,2.8,0.8c0-1,0-1.9,0.2-2.8C37.1,54.2,34.2,53.4,33.8,55.3
					L33.8,55.3z"/>
			</g>
		</g>
		<g>
			<g>
				<path class="st0" d="M44.9,16.8c-1.8-0.3-3.8-1.1-5.6-0.2c-0.4,0.2-0.8,0.8-0.7,1.3c0.7,6.6,0.4,13.2,0.1,19.8
					c-0.1,2,2.8,1.9,3,0c0.1-1.5,0.4-2.8,1.1-4.1c-0.7,0.2-1.4,0.4-2.1,0.5c0,0.9,0.1,1.8,0.2,2.7c0.1,1.5,1.9,2.1,2.8,0.8
					c0.5-0.8,1.1-1.6,1.6-2.5c-0.9-0.1-1.8-0.2-2.7-0.4c0.2,1.3,0.1,2.7,0.8,3.8c0.4,0.6,1,0.8,1.7,0.7c0.1,0,0.2,0,0.3-0.1
					c1.9-0.4,1.1-3.2-0.8-2.9c-0.1,0-0.2,0-0.3,0.1c0.6,0.2,1.1,0.5,1.7,0.7c-0.3-1-0.4-2.1-0.5-3.1c-0.2-1.4-2.1-1.3-2.7-0.4
					c-0.5,0.8-1.1,1.6-1.6,2.5c0.9,0.3,1.9,0.5,2.8,0.8c-0.2-1.8,0.2-4.3-1.7-5.3c-0.8-0.4-1.5-0.2-2.1,0.5
					c-1.2,1.6-1.2,3.8-1.5,5.6c1,0,2,0,3,0c0.2-3.8,0.4-7.6,0.4-11.4c0-1.8-0.1-3.5-0.2-5.3c-0.1-2.3,0.1-1.6,2.2-1.2
					C46,20,46.8,17.1,44.9,16.8L44.9,16.8z"/>
			</g>
		</g>
	</g>
	<g>
		<g>
			<path class="st1" d="M19.8,0c0.3,0.8,0.4,1.5,0.4,2.3c0,0.8-0.1,1.5-0.4,2.3c-0.3-0.8-0.4-1.5-0.4-2.3C19.4,1.5,19.5,0.8,19.8,0z
				"/>
		</g>
		<g>
			<path class="st1" d="M14.7,17.2c-0.3-1.3-0.4-2.7-0.4-4c0-0.7-0.1-1.4,0.3-2.1c0.2-0.4,0.5-0.7,0.9-0.7c0.4-0.1,0.7,0,1.1,0.1
				c-0.7,0-1.3,0.3-1.4,0.8c-0.1,0.5,0,1.2-0.1,1.9C15,14.5,14.9,15.9,14.7,17.2z"/>
		</g>
		<g>
			<path class="st1" d="M11.5,54.7C11.1,54.2,11,53.6,11,53c0-0.6,0-1.2,0.1-1.8c0.1-1.2,0.2-2.4,0.1-3.6c0-2.4-0.1-4.8-0.2-7.2
				c-0.2-4.8-0.3-9.6-0.4-14.4l0-0.4l0.4,0c5.5-0.1,11.1,0,16.6,0l0.4,0l0,0.4c-0.3,3.6-0.6,7.2-0.6,10.8c0,3.6,0,7.2,0.3,10.8
				c-0.4-3.6-0.7-7.2-0.7-10.8c0-3.6,0.1-7.2,0.4-10.9l0.3,0.4c-5.5,0-11.1,0.1-16.6,0.1l0.4-0.4c0.1,4.8,0.2,9.6,0.3,14.4
				c0,2.4,0.1,4.8,0,7.2c0,1.2-0.1,2.4-0.3,3.6c-0.1,0.6-0.2,1.2-0.2,1.8C11.1,53.6,11.1,54.2,11.5,54.7z"/>
		</g>
		<g>
			<path class="st1" d="M11.5,65.5c-0.1-1.4-0.2-2.9-0.2-4.3c0-1.4,0-2.9,0-4.3c0.1-1.4,0.1-2.9,0.4-4.4c0.2-0.7,0.4-1.5,0.9-2.1
				c0.2-0.3,0.6-0.6,1-0.6c0.4-0.1,0.8,0.1,1,0.4C14.4,50,14,49.9,13.7,50c-0.3,0.1-0.5,0.4-0.7,0.6c-0.3,0.6-0.5,1.3-0.6,1.9
				c-0.2,1.4-0.3,2.8-0.4,4.3C11.9,59.7,11.7,62.6,11.5,65.5z"/>
		</g>
		<g>
			<path class="st1" d="M15.4,54.8c-0.2-0.9-0.4-1.9-0.5-2.8c-0.1-0.5-0.1-0.9-0.1-1.4c0-0.5,0-1,0.4-1.6c0.2-0.3,0.5-0.5,0.8-0.6
				c0.3-0.1,0.6-0.1,0.8-0.1c0.5,0,0.9,0,1.4,0c0.9,0,1.9,0.1,2.8,0.3c-0.9,0.2-1.9,0.3-2.8,0.3c-0.5,0-0.9,0.1-1.4,0.1
				c-0.5,0-0.8,0.1-0.9,0.3c-0.2,0.3-0.3,0.7-0.3,1.2c0,0.4,0,0.9,0,1.4C15.5,52.9,15.4,53.8,15.4,54.8z"/>
		</g>
		<g>
			<path class="st1" d="M31.5,47.5c-1.7-0.2-3.4-0.4-5-0.5c-0.8,0-1.7-0.1-2.5,0c-0.8,0-1.5,0.6-2,1.1c-0.5,0.6-1,1.2-1.3,2
				c-0.1,0.3-0.2,0.8-0.2,1.2l-0.2,1.2L19.8,55c-0.1,0.8-0.3,1.7-0.3,2.5c-0.2-1.7,0-3.4,0.1-5.1c0-0.4,0.1-0.8,0.1-1.3l0.1-0.6
				c0-0.2,0-0.4,0.1-0.7c0.3-0.8,0.8-1.6,1.5-2.2c0.7-0.6,1.6-1,2.5-1c0.9,0,1.7,0.1,2.6,0.1C28.2,47,29.8,47.2,31.5,47.5z"/>
		</g>
		<g>
			<path class="st1" d="M11,30.9c1.4-0.5,2.8-0.8,4.2-1c1.4-0.3,2.9-0.4,4.3-0.4c1.4,0,2.9,0,4.3,0.1c0.7,0.1,1.4,0.2,2.2,0.3
				c0.4,0.1,0.7,0.3,1,0.6c0.3,0.3,0.4,0.6,0.4,1c-0.1-0.3-0.3-0.7-0.6-0.9c-0.3-0.2-0.6-0.3-0.9-0.3c-0.7-0.1-1.4-0.1-2.1-0.1
				c-1.4,0-2.8,0-4.3,0c-1.4,0-2.8,0.1-4.3,0.3C13.9,30.6,12.5,30.7,11,30.9z"/>
		</g>
		<g>
			<path class="st0" d="M15.2,28.8C15.2,28.8,15.2,28.8,15.2,28.8c0-0.8,0-1.6,0-2.4c-0.4,0-0.8,0-1.1,0c-0.2,0.9-0.1,1.9,0.1,2.8
				C14.5,29,14.9,28.9,15.2,28.8z"/>
			<g>
				<path class="st1" d="M15.2,28.8L15.2,28.8L15.2,28.8c0-0.8-0.1-1.6-0.2-2.4l0.3,0.3c-0.4,0-0.8,0.1-1.2,0.1l0.4-0.3l-0.2,1.4
					c-0.1,0.5-0.1,0.9,0,1.4l-0.1,0C14.5,29,14.8,28.9,15.2,28.8z M15.2,28.8c-0.4,0.1-0.7,0.3-1,0.5l-0.1,0.1l0-0.1
					c-0.3-0.9-0.6-1.9-0.4-2.9l0.1-0.3l0.3,0c0.4,0,0.8,0.1,1.1,0.1l0.3,0.1l0,0.2C15.4,27.2,15.3,28,15.2,28.8L15.2,28.8L15.2,28.8
					z"/>
			</g>
		</g>
		<g>
			<path class="st0" d="M19.1,28.5C19.1,28.5,19.2,28.5,19.1,28.5c0.4-0.5,0.5-1.4,0.2-1.8c-0.4,0-0.9-0.1-1.3-0.1
				c0,0.6,0,1.3,0,1.9C18.3,28.7,18.8,28.8,19.1,28.5z"/>
			<g>
				<path class="st1" d="M19.1,28.5c0.2-0.2,0.3-0.6,0.3-0.9c0-0.3-0.1-0.6-0.3-0.7l0.2,0.1c-0.5,0-0.9,0-1.4,0l0.4-0.4
					c0,0.6-0.1,1.3-0.2,1.9L18,28.4C18.3,28.7,18.8,28.8,19.1,28.5z M19.1,28.5c-0.3,0.3-0.8,0.3-1.2,0.1l-0.1,0l0-0.1
					c-0.1-0.6-0.3-1.3-0.3-1.9l0-0.4l0.4,0c0.4,0,0.9,0.1,1.3,0.3l0.1,0l0,0c0.2,0.4,0.2,0.8,0.1,1.1C19.5,28,19.3,28.3,19.1,28.5z"
					/>
			</g>
		</g>
		<g>
			<path class="st0" d="M23.4,28.3c-0.2,0.6-0.6,1-1,0.7c-0.6-0.4-0.6-2-0.2-2.8c0.2,0,0.4,0,0.6,0.1c0.4,0.3,0.8,1,0.7,1.7
				C23.4,28.2,23.4,28.2,23.4,28.3z"/>
			<g>
				<path class="st1" d="M23.4,28.3c-0.1,0.3-0.3,0.7-0.7,0.9c-0.2,0.1-0.5,0-0.6-0.2c-0.2-0.2-0.3-0.3-0.4-0.5
					c-0.2-0.4-0.2-0.8-0.2-1.2c0-0.4,0.1-0.8,0.3-1.2l0.1-0.2l0.2,0c0.3,0,0.6,0.1,0.8,0.3c0.2,0.2,0.3,0.4,0.4,0.7
					C23.5,27.4,23.5,27.9,23.4,28.3z M23.4,28.3c0.1-0.5,0-0.9-0.3-1.3c-0.1-0.2-0.3-0.3-0.5-0.4c-0.2-0.1-0.3-0.1-0.5,0l0.3-0.2
					c-0.2,0.6-0.2,1.3-0.2,2c0,0.3,0.1,0.7,0.5,0.7C23.1,29,23.3,28.6,23.4,28.3z"/>
			</g>
		</g>
		<g>
			<path class="st0" d="M26,28.3c-0.2,0.6-0.7,0.9-1,0.5c0-0.8,0-1.6,0-2.5c0.3,0.2,0.7,0.1,1-0.1C26.1,26.9,26.2,27.6,26,28.3
				C26,28.2,26,28.2,26,28.3z"/>
			<g>
				<path class="st1" d="M26,28.3c-0.1,0.2-0.2,0.4-0.4,0.6C25.5,29,25.4,29,25.3,29c-0.1,0-0.3-0.1-0.4-0.1l0,0l0-0.1
					c-0.1-0.8-0.3-1.6-0.3-2.5l0-0.6l0.5,0.3c0.2,0.1,0.5,0.2,0.7,0l0.4-0.2l0,0.3c0,0.3,0,0.7-0.1,1C26.1,27.6,26.1,27.9,26,28.3z
					 M26,28.3c0.1-0.3,0.1-0.7,0-1c-0.1-0.3-0.2-0.7-0.3-1l0.4,0.2c-0.3,0.3-0.9,0.5-1.3,0.2l0.5-0.3c0.1,0.8-0.1,1.6-0.2,2.5l0-0.1
					c0.1,0.2,0.3,0.2,0.5,0.1C25.8,28.7,25.9,28.5,26,28.3z"/>
			</g>
		</g>
		<g>
			<path class="st0" d="M16,38.1c-0.4,0.1-0.8,0.1-1.2,0.2c-0.1,0-0.2,0-0.3-0.1c0-0.1,0-0.2,0-0.3c0-0.5,0-1,0-1.5
				c0.3-1,1.1-0.9,1.5-0.3c0.3,0.5,0.5,1.3,0.4,2C16.3,38,16.1,38,16,38.1z"/>
			<g>
				<path class="st1" d="M16,38.1c-0.3,0-0.6,0.1-0.8,0.2c-0.1,0-0.3,0.1-0.4,0.1c-0.1,0-0.2,0-0.3-0.1c-0.1-0.1-0.1-0.2-0.1-0.3
					l-0.1-0.9c0-0.3-0.1-0.6-0.1-0.9l0,0l0-0.1c0.1-0.4,0.3-0.9,0.9-1c0.6-0.1,1,0.3,1.2,0.7c0.3,0.7,0.3,1.5,0.2,2.2l0,0l0,0
					L16,38.1z M16,38.1l0.4-0.1l0,0c0-0.7-0.2-1.4-0.6-1.9c-0.2-0.2-0.5-0.3-0.6-0.3c-0.1,0-0.3,0.2-0.4,0.5l0-0.1
					c0,0.3-0.1,0.6-0.1,0.9l-0.1,0.8c0,0.1,0,0.2,0.1,0.2c0.1,0,0.3,0,0.4,0C15.4,38.1,15.7,38.1,16,38.1z"/>
			</g>
		</g>
		<g>
			<path class="st0" d="M16.3,44.7c0.1,0,0.2-0.1,0.3-0.1c-0.1-1-0.2-1.9-0.3-2.9c-0.3,0-0.5,0-0.8,0c0,1,0,2.1,0,3.1
				C15.8,44.8,16.1,44.7,16.3,44.7z"/>
			<g>
				<path class="st1" d="M16.3,44.7l0.3-0.1l0,0c-0.1-0.9-0.3-1.9-0.5-2.8l0.2,0.2c-0.3,0-0.5,0.1-0.8,0.1l0.4-0.4
					c-0.2,1-0.3,2.1-0.3,3.1l0,0L16.3,44.7z M16.3,44.7l-0.7,0.2l0,0l0,0c0-1-0.1-2.1-0.4-3.1l-0.1-0.5l0.5,0.2
					c0.3,0.1,0.5,0.1,0.8,0.2l0.2,0l0,0.2c-0.1,1,0,1.9,0.1,2.9l0,0l0,0L16.3,44.7z"/>
			</g>
		</g>
		<g>
			<path class="st1" d="M31.9,39.5c0.1,2,0.2,3.9,0.2,5.9l0.1,5.9c0,2,0,3.9,0,5.9c0,2,0,3.9-0.1,5.9c-0.2-2-0.4-3.9-0.5-5.9
				c-0.1-2-0.2-3.9-0.2-5.9c0-2,0-3.9,0.1-5.9C31.6,43.4,31.7,41.5,31.9,39.5z"/>
		</g>
		<g>
			<path class="st1" d="M46.5,61.5c-0.6-0.7-1.3-1.4-1.9-2.1c-0.6-0.8-1.1-1.6-1.5-2.5c-0.2-0.4-0.4-0.9-0.6-1.3
				c-0.2-0.4-0.3-1-0.5-1.3c-0.5-0.8-1.1-1.5-1.7-2.3c-1.2-1.5-2.4-2.9-3.7-4.3c-0.3-0.3-0.6-0.7-1-1c-0.1-0.1-0.2-0.1-0.2-0.2
				c-0.1-0.1-0.1-0.1-0.2-0.1c-0.2-0.1-0.4-0.1-0.6-0.2c-0.9-0.2-1.8-0.2-2.8-0.1c0.8-0.5,1.9-0.7,2.9-0.5c0.3,0,0.5,0.1,0.7,0.1
				c0.1,0,0.3,0.1,0.4,0.2c0.1,0.1,0.2,0.2,0.3,0.3c0.4,0.3,0.7,0.7,1,1c1.3,1.4,2.5,2.9,3.7,4.4c0.6,0.8,1.2,1.5,1.7,2.4
				c0.3,0.5,0.3,1,0.5,1.4c0.1,0.4,0.3,0.9,0.5,1.3C44.2,58.4,45.4,59.9,46.5,61.5z"/>
		</g>
		<g>
			<path class="st1" d="M36.7,46.9c2.3-0.6,4.7-0.7,7.1-0.6c2.4,0.1,4.7,0.5,7,1.1c-2.4,0-4.7-0.2-7-0.3
				C41.4,46.9,39,46.9,36.7,46.9z"/>
		</g>
		<g>
			<path class="st1" d="M31.5,38.2c0.8-0.4,1.7-0.5,2.6-0.5c0.9,0.1,1.8,0.2,2.6,0.3c1.7,0.2,3.5,0.4,5.2,0.5
				c3.5,0.2,7,0.2,10.5-0.2l0.2,0l0.1,0.2c0.6,1.2,1,2.5,1.1,3.8l0.1,0.4l-0.4,0c-1.9,0.2-3.7,0-5.5-0.2c-1.8-0.3-3.6-0.5-5.4-0.7
				c-3.6-0.4-7.2-0.5-10.8-0.4c3.6-0.4,7.2-0.4,10.9-0.1c1.8,0.1,3.6,0.3,5.4,0.6c1.8,0.2,3.6,0.4,5.3,0.1l-0.3,0.4
				c-0.2-1.2-0.5-2.5-1.1-3.6l0.4,0.2c-3.5,0.3-7.1,0.3-10.6,0c-1.8-0.2-3.5-0.4-5.3-0.7C35,38.1,33.2,37.6,31.5,38.2z"/>
		</g>
		<g>
			<path class="st1" d="M53.1,42.2c0.3,2.3,0.4,4.6,0.4,6.9c0,2.3-0.1,4.6-0.4,6.9c-0.3-2.3-0.4-4.6-0.4-6.9
				C52.7,46.8,52.8,44.5,53.1,42.2z"/>
		</g>
		<g>
			<path class="st1" d="M40.1,43.2c0.3,0.3,0.3,0.5,0.3,0.7c0,0.2,0,0.4-0.3,0.8c-0.3-0.2-0.5-0.5-0.5-0.7
				C39.7,43.7,39.8,43.4,40.1,43.2z"/>
		</g>
		<g>
			<path class="st1" d="M45.6,43.4c0.3,0.3,0.4,0.6,0.4,1c0,0.3-0.1,0.6-0.4,1c-0.3-0.3-0.4-0.6-0.4-1C45.2,44,45.3,43.7,45.6,43.4z
				"/>
		</g>
		<g>
			<path class="st1" d="M38.1,23.5c-1.2,1.6-2,3.4-2.8,5.1c-0.4,0.9-0.9,1.8-1.4,2.6c-0.5,0.8-1.2,1.7-1.9,2.3L31.6,33
				c1.2,0,2.4,0.1,3.5,0.2c1.2,0.1,2.4,0.2,3.5,0.3c-1.2,0.1-2.4,0.1-3.5,0.1c-1.2,0-2.4,0-3.5,0l-0.9,0l0.7-0.6
				c1.4-1.3,2.3-3,3.3-4.7c0.5-0.9,1-1.7,1.5-2.5C36.7,25,37.4,24.2,38.1,23.5z"/>
		</g>
		<g>
			<path class="st1" d="M31.7,34.2c0.4,1.4,0.5,2.8,0.6,4.1l0,0.3l-0.3,0.1c-1.4,0.3-2.8,0.5-4.3,0.5c1.3-0.6,2.7-0.9,4.1-1.2
				l-0.3,0.4C31.5,37,31.5,35.6,31.7,34.2z"/>
		</g>
		<g>
			<path class="st1" d="M38.7,14.8l-1.2-0.2l0,0l0,0c0.6-2,1.2-4,2-6c0.8-2,1.6-3.9,2.6-5.8L42.5,2l0.2,0.8c0.5,2,1,4,1.7,6
				c0.7,2,1.5,3.9,2.3,5.8l-0.4-0.2c1.5-0.1,3-0.1,4.5,0.1L50.5,15l-1.7-5.6l-0.8-2.8l-0.4-1.4c-0.1-0.4-0.4-0.9-0.7-1l0.2-0.3
				c0.1,0.5,0.2,1.1,0.1,1.6l0,0.3l-0.2-0.2c-0.3-0.2-0.7-0.4-1-0.5C45.4,5,45,5,44.6,5.1c-0.4,0-0.9-0.2-1.1-0.6
				c-0.2-0.4-0.2-0.9,0-1.2l0,0.1l-1.1-0.1l1.1,0l0.1,0l0,0.1c-0.2,0.4-0.1,0.8,0.1,1.1c0.2,0.4,0.6,0.5,0.9,0.5
				c0.4,0,0.8-0.1,1.3,0c0.4,0.1,0.8,0.3,1.2,0.5l-0.3,0.1c0-0.5,0-1-0.1-1.4l-0.1-0.3l0.3,0.1c0.4,0.1,0.6,0.3,0.7,0.6
				c0.1,0.2,0.2,0.5,0.3,0.7l0.5,1.4l0.9,2.8l1.8,5.6l0.2,0.5l-0.5-0.1c-1.5-0.2-2.9-0.2-4.4-0.1l-0.3,0L46,15
				c-0.9-1.9-1.7-3.9-2.3-5.9c-0.7-2-1.2-4-1.6-6.1l0.6,0.1c-1,1.8-1.9,3.7-2.7,5.7c-0.8,1.9-1.6,3.9-2.3,5.9l0-0.1L38.7,14.8z"/>
		</g>
		<g>
			<path class="st1" d="M38.5,15.3c0.2,1.9,0.2,3.7,0.3,5.6c0.1,1.9,0.1,3.7,0.1,5.6c0,1.9,0,3.7-0.1,5.6c-0.1,1.9-0.1,3.7-0.3,5.6
				c-0.2-1.9-0.2-3.7-0.3-5.6c-0.1-1.9-0.1-3.7-0.1-5.6c0-1.9,0-3.7,0.1-5.6C38.3,19,38.4,17.1,38.5,15.3z"/>
		</g>
		<g>
			<path class="st1" d="M46,14.5c0.2,2,0.2,4.1,0.3,6.1c0.1,2,0.1,4.1,0.1,6.1c0,2,0,4.1-0.1,6.1C46.3,35,46.2,37,46,39
				c-0.2-2-0.2-4.1-0.3-6.1c-0.1-2-0.1-4.1-0.1-6.1c0-2,0-4.1,0.1-6.1C45.8,18.6,45.9,16.6,46,14.5z"/>
		</g>
		<g>
			<path class="st1" d="M50.9,15.8c0.2,1.9,0.2,3.8,0.3,5.6c0.1,1.9,0.1,3.8,0.1,5.6c0,1.9,0,3.8-0.1,5.6c-0.1,1.9-0.1,3.8-0.3,5.6
				c-0.2-1.9-0.2-3.8-0.3-5.6c-0.1-1.9-0.1-3.8-0.1-5.6c0-1.9,0-3.8,0.1-5.6C50.7,19.5,50.8,17.6,50.9,15.8z"/>
		</g>
		<g>
			<path class="st1" d="M40.7,11.4c0.3,0.5,0.4,1.1,0.4,1.6c0,0.5-0.1,1.1-0.4,1.6c-0.3-0.5-0.4-1.1-0.4-1.6
				C40.4,12.4,40.4,11.9,40.7,11.4z"/>
		</g>
		<g>
			<path class="st1" d="M42.3,11.9c0.4,0.4,0.5,0.9,0.5,1.3c0,0.5-0.1,0.9-0.4,1.4c-0.3-0.5-0.3-0.9-0.3-1.3
				C42.1,12.8,42.1,12.4,42.3,11.9z"/>
		</g>
		<g>
			<path class="st1" d="M43.8,12.6c0.3,0.6,0.4,1.1,0.5,1.7c0.1,0.6,0.1,1.1-0.1,1.7c-0.4-0.5-0.6-1.1-0.6-1.6
				C43.5,13.8,43.6,13.2,43.8,12.6z"/>
		</g>
		<g>
			<path class="st1" d="M38.8,16.5c1-0.6,2.2-0.8,3.4-0.7c1.2,0.1,2.4,0.4,3.3,1.1c-1.2-0.1-2.3-0.3-3.4-0.3
				C41.1,16.5,40,16.5,38.8,16.5z"/>
		</g>
		<g>
			<path class="st1" d="M42.5,18.2c0.3,0.3,0.3,0.5,0.3,0.8c0,0.2-0.1,0.5-0.5,0.7C42,19.4,42,19.1,42,18.9
				C42.1,18.6,42.2,18.4,42.5,18.2z"/>
		</g>
		<g>
			<path class="st1" d="M42.3,24.5c0.2,0.5,0.2,1,0.2,1.5c0,0.5-0.1,0.9-0.4,1.4c-0.3-0.5-0.4-1-0.3-1.5
				C41.8,25.4,42,24.9,42.3,24.5z"/>
		</g>
		<g>
			<path class="st1" d="M42.3,32c0.3,0.3,0.4,0.6,0.4,1c0,0.3-0.1,0.6-0.4,1c-0.3-0.3-0.4-0.6-0.4-1C41.9,32.6,42,32.3,42.3,32z"/>
		</g>
		<g>
			<path class="st1" d="M48.4,18.4c0.3,0.5,0.4,1.1,0.4,1.6c0,0.5-0.1,1.1-0.4,1.6C48.1,21.1,48,20.5,48,20
				C48,19.5,48.1,19,48.4,18.4z"/>
		</g>
		<g>
			<path class="st1" d="M49.8,18.4c0.3,0.6,0.4,1.3,0.4,1.9c0,0.6-0.1,1.3-0.4,1.9c-0.3-0.6-0.4-1.3-0.4-1.9
				C49.4,19.7,49.5,19.1,49.8,18.4z"/>
		</g>
		<g>
			<path class="st1" d="M48.7,27.2c0.3,0.8,0.4,1.7,0.4,2.5c0,0.8-0.1,1.7-0.4,2.5c-0.3-0.8-0.4-1.7-0.4-2.5
				C48.3,28.8,48.4,28,48.7,27.2z"/>
		</g>
		<g>
			<path class="st1" d="M51,30.1l-0.2,0.6l-0.1,0c1-2,2-3.9,3-5.9c1-1.9,2-3.9,3.1-5.8l0-0.1l0.1,0c0.8-0.6,1.6-1,2.6-1.2l0.7-0.1
				L60,18.2c-0.7,1.4-1.3,2.9-1.8,4.4l-1.7,4.5c-0.6,1.5-1.2,3-1.9,4.4c-0.2,0.4-0.4,0.7-0.6,1.1c-0.1,0.2-0.2,0.4-0.5,0.5
				c-0.3,0-0.5-0.2-0.6-0.3c-0.6-0.5-1.6-0.3-2.1,0.3c0.3-0.3,0.6-0.6,1-0.6c0.4-0.1,0.9,0,1.2,0.2c0.2,0.1,0.4,0.2,0.5,0.2
				c0.1,0,0.2-0.2,0.3-0.4l0.5-1.1c0.6-1.5,1.2-3,1.7-4.5l1.6-4.5c0.5-1.5,1.1-3,1.8-4.5l0.4,0.5c-0.8,0.1-1.6,0.5-2.3,1l0.1-0.1
				c-1.1,1.9-2.1,3.8-3.3,5.7c-1.1,1.9-2.2,3.8-3.4,5.7l-0.1,0L51,30.1z"/>
		</g>
		<g>
			<path class="st1" d="M59.2,19.2l0.4-0.3l0,0l0,0.1c0.6,1,1.2,2.1,1.8,3.2c0.6,1.1,1.1,2.2,1.7,3.2c0.5,1.1,1.1,2.2,1.6,3.3
				c0.5,1.1,1,2.2,2,2.9l-0.1,0.1c0-0.2-0.1-0.5-0.2-0.7c0.2,0.2,0.3,0.4,0.4,0.7l0,0.1l-0.1-0.1c-1.2-0.5-1.9-1.7-2.5-2.7
				c-0.6-1.1-1.1-2.2-1.7-3.2c-0.5-1.1-1.1-2.2-1.6-3.3c-0.5-1.1-1-2.2-1.4-3.4l0.1,0L59.2,19.2z"/>
		</g>
		<g>
			<path class="st1" d="M54.4,32.3c0-0.1,0-0.2,0-0.3c0-0.1,0.1-0.2,0.2-0.3l0,0c2-0.1,4.1-0.2,6.1-0.3c2-0.1,4.1-0.2,6.1-0.2l0.3,0
				l0,0.3c0,1.6,0,3.3,0,4.9L67,36.1l0.3,0.2l0.6,0.4L67.2,37c-1.1,0.5-2.2,0.1-3.1,0c-1-0.1-1.9-0.3-2.9-0.3c-1-0.1-1.9-0.1-2.9,0
				c-0.5,0-1,0-1.5,0.1c-0.2,0-0.5,0-0.7,0.1c-0.2,0.1-0.4,0.2-0.5,0.5l0,0l0,0.1l0-0.1c-0.3-0.8-0.4-1.7-0.6-2.5
				C54.8,33.9,54.6,33.1,54.4,32.3z M55,32.1c0.5,1.7,0.8,3.4,0.7,5.1l-0.1,0l0,0c0-0.3,0.2-0.5,0.5-0.6c0.2-0.1,0.5-0.1,0.7-0.2
				c0.5-0.1,1-0.2,1.5-0.2c1-0.1,2-0.2,3-0.1c1,0,2,0.1,3,0.2c1,0.1,1.9,0.4,2.7,0l0,0.6l-0.3-0.2l-0.2-0.1l0-0.2c0-1.6,0-3.3,0-4.9
				l0.3,0.3c-2,0-4.1,0-6.1,0c-2,0-4.1-0.1-6.1-0.1l0,0c0.1,0,0.3,0.1,0.3,0.2C55,32,55,32,55,32.1z"/>
		</g>
		<g>
			<path class="st1" d="M59.9,19.7c1.1-0.2,2.2-0.2,3.3-0.1c1.1,0.1,2.2,0.4,3.2,0.7l-0.3,0.2c0-0.7,0-1.4-0.2-2l-0.1-0.4l0.4,0
				l1.2,0l0.5,0l-0.2,0.4c-0.2,0.5,0,1.2,0.2,1.8c0.3,0.6,0.7,1.2,1,1.8l2.3,3.5c1.6,2.3,3.2,4.6,4.9,6.9l0.5,0.7l-0.7-0.3
				c-0.2-0.1-0.5,0.2-0.7,0.5c-0.2,0.3-0.3,0.7-0.3,1.1c-0.1,0.8,0.1,1.6,0.2,2.4c-0.2-0.8-0.5-1.6-0.4-2.4c0-0.4,0.1-0.9,0.3-1.3
				c0.1-0.2,0.2-0.4,0.4-0.6c0.2-0.2,0.5-0.3,0.8-0.2l-0.2,0.3c-0.9-1.1-1.8-2.2-2.7-3.3c-0.8-1.1-1.7-2.3-2.5-3.5
				c-0.8-1.2-1.6-2.3-2.3-3.6c-0.4-0.6-0.8-1.2-1.1-1.9c-0.3-0.7-0.5-1.5-0.2-2.3l0.3,0.4l-1.2,0l0.3-0.4c0.1,0.7,0.1,1.5,0.1,2.2
				l0,0.3l-0.3-0.1C64.3,20,62.1,19.6,59.9,19.7z"/>
		</g>
		<g>
			<path class="st1" d="M67,32.5c1.3-0.4,2.5-0.5,3.8-0.5c1.3,0,2.6,0,3.8,0.2c-1.3,0.4-2.5,0.5-3.8,0.5
				C69.5,32.8,68.3,32.8,67,32.5z"/>
		</g>
		<g>
			<path class="st1" d="M55.2,37.1c0.2,2,0.3,4,0.3,6c0.1,2,0.1,4,0.1,6c0,2,0,4,0,6c0,2-0.1,4-0.2,6c-0.2-2-0.3-4-0.3-6
				c-0.1-2-0.1-4-0.1-6c0-2,0-4,0-6C55,41.1,55.1,39.1,55.2,37.1z"/>
		</g>
		<g>
			<path class="st1" d="M66.9,36.9c0.2,2.1,0.3,4.2,0.3,6.2c0.1,2.1,0.1,4.2,0.1,6.2c0,2.1,0,4.2,0,6.2c0,2.1-0.1,4.2-0.2,6.2
				c-0.2-2.1-0.3-4.2-0.3-6.2c-0.1-2.1-0.1-4.2-0.1-6.2c0-2.1,0-4.2,0-6.2C66.7,41,66.8,38.9,66.9,36.9z"/>
		</g>
		<g>
			<path class="st1" d="M57.6,33.5c0.3,0.2,0.4,0.4,0.4,0.6c0,0.2-0.1,0.4-0.4,0.6c-0.3-0.2-0.4-0.4-0.4-0.6
				C57.2,33.9,57.3,33.7,57.6,33.5z"/>
		</g>
		<g>
			<path class="st1" d="M61.3,33c0.3,0.2,0.4,0.5,0.4,0.7c0,0.2-0.1,0.5-0.4,0.7C61,34.2,61,33.9,61,33.7C61,33.5,61.1,33.2,61.3,33
				z"/>
		</g>
		<g>
			<path class="st1" d="M64.6,33.5c0.3,0.2,0.4,0.4,0.4,0.6c0,0.2-0.1,0.4-0.4,0.6c-0.3-0.2-0.4-0.4-0.4-0.6
				C64.3,33.9,64.3,33.7,64.6,33.5z"/>
		</g>
		<g>
			<path class="st0" d="M60.5,42.2c0,0.1,0,0.3,0,0.4c1.2-0.7,1.6-3.3,0.9-4.8c-0.4-0.1-0.8-0.2-1.2-0.3
				C60.4,39,60.5,40.6,60.5,42.2z"/>
			<g>
				<path class="st1" d="M60.5,42.2l0,0.4l0,0c0.4-0.2,0.6-0.6,0.8-1c0.1-0.4,0.2-0.8,0.2-1.3c0-0.4,0-0.8-0.1-1.3
					c-0.1-0.4-0.2-0.8-0.4-1.1l0.2,0.2c-0.4-0.1-0.8-0.2-1.2-0.3l0.4-0.4C60.7,39,60.5,40.6,60.5,42.2z M60.5,42.2
					c0-1.6-0.4-3.1-0.6-4.7L59.8,37l0.5,0.1c0.4,0.1,0.8,0.2,1.2,0.3l0.2,0l0.1,0.2c0.4,0.9,0.4,1.9,0.2,2.8
					c-0.2,0.9-0.6,1.8-1.4,2.2l0,0l0,0L60.5,42.2z"/>
			</g>
		</g>
		<g>
			<path class="st2" d="M59.5,43.2"/>
		</g>
		<g>
			<path class="st1" d="M59.6,42.2c0.1,1.5,0.1,3,0.1,4.4c0,1.5,0,3,0,4.4c0,1.5-0.1,2.9-0.1,4.4c-0.1,1.5-0.1,2.9-0.3,4.4
				c-0.2-1.5-0.2-3-0.3-4.4c-0.1-1.5-0.1-3,0-4.4c0-1.5,0.1-3,0.2-4.4C59.2,45.1,59.3,43.6,59.6,42.2z"/>
		</g>
		<g>
			<path class="st1" d="M63.1,43.2c0.2,1.6,0.2,3.2,0.3,4.7l0.3,4.7c0.1,1.6,0.2,3.2,0.2,4.7l0.1,2.4l0,1.2l0,0.6l0,0.3
				c0,0,0,0.1-0.1,0.1c-0.1,0-0.1-0.1-0.1-0.1c0,0,0.1,0.1,0.1,0.1c0,0,0-0.1,0-0.1l0-0.3l-0.1-0.6l-0.2-1.2l-0.3-2.4
				c-0.2-1.6-0.3-3.1-0.4-4.7c-0.1-1.6-0.1-3.2-0.1-4.8C62.8,46.3,62.9,44.7,63.1,43.2z"/>
		</g>
		<g>
			<path class="st1" d="M59.5,50.4c0.5-0.3,1.1-0.4,1.6-0.4c0.5,0,1.1,0.1,1.6,0.4c-0.5,0.3-1.1,0.4-1.6,0.4
				C60.6,50.8,60,50.7,59.5,50.4z"/>
		</g>
		<g>
			<path class="st0" d="M61.8,53.1c0.3,0.7,0.4,1.6,0.4,2.4c0.1,1.8,0.3,3.7,0.4,5.5c-0.9-0.6-1.9-1.1-2.8-1.6
				c-0.1-1.4-0.1-2.8-0.2-4.2c0-1.2,0-2.6,0.7-3C60.9,51.9,61.5,52.3,61.8,53.1C61.8,53.1,61.8,53.1,61.8,53.1z"/>
			<g>
				<path class="st1" d="M62,53c0.3,0.7,0.4,1.3,0.4,2l0.2,2c0.1,1.3,0.2,2.6,0.4,4l0.1,0.6l-0.5-0.3l0,0c-0.9-0.5-1.9-1-2.9-1.5
					l-0.2-0.1v-0.2v0l0-2.3l-0.1-2.3c0-0.8,0-1.6,0.5-2.4c0.1-0.2,0.3-0.4,0.6-0.5c0.3-0.1,0.6,0,0.8,0.1C61.6,52.2,61.8,52.6,62,53
					z M61.6,53.2c-0.1-0.3-0.4-0.6-0.6-0.8c-0.3-0.2-0.5-0.1-0.7,0.2c-0.3,0.6-0.4,1.4-0.4,2.1c0,1.5,0.2,3.1,0.2,4.6v0l-0.2-0.3
					c1,0.5,1.9,1.1,2.8,1.6l0,0L62.3,61c-0.1-1.3-0.2-2.6-0.3-4l-0.1-2C61.9,54.4,61.8,53.7,61.6,53.2z"/>
			</g>
		</g>
		<g>
			<path class="st0" d="M71.2,36.6c0.1,0,0.2,0,0.3,0c-0.2-0.8-0.3-1.5-0.5-2.3c0,0.8-0.1,1.6-0.3,2.3C70.9,36.6,71,36.6,71.2,36.6z
				"/>
			<g>
				<path class="st1" d="M71.2,36.3c0.1,0,0.2,0.1,0.3,0.2l0,0l-0.9-2.2l0.7-0.1c-0.1,0.4-0.1,0.8-0.2,1.2c-0.1,0.4-0.2,0.8-0.4,1.1
					l0,0l-0.1-0.1C70.9,36.4,71,36.3,71.2,36.3z M71.2,36.8c-0.2,0-0.3,0-0.5-0.2l-0.1-0.1l0,0l0,0c0-0.4,0.1-0.8,0.1-1.1
					c0-0.4,0-0.8-0.1-1.1l0.7-0.1l0.2,2.4l0,0C71.4,36.7,71.3,36.8,71.2,36.8z"/>
			</g>
		</g>
		<g>
			<path class="st1" d="M67.4,38.3c1.5-0.5,3.1-0.6,4.6-0.6c1.6,0,3.1,0.1,4.7,0.3c1.5,0.2,3.1,0.4,4.6,0.5c1.5,0.1,3.1,0.2,4.6,0.2
				c-1.5,0.4-3.1,0.4-4.6,0.4c-1.6,0-3.1-0.2-4.6-0.4c-1.5-0.2-3.1-0.3-4.6-0.5C70.5,38.2,69,38.2,67.4,38.3z"/>
		</g>
		<g>
			<path class="st1" d="M67,42.5c1.5-0.3,3-0.5,4.5-0.6c1.5-0.1,3-0.1,4.5,0c1.5,0.1,3,0.2,4.5,0.5c1.5,0.2,2.9,0.6,4.4,1
				c-1.5-0.1-3-0.3-4.4-0.4c-1.5-0.1-3-0.2-4.4-0.3c-1.5-0.1-3-0.1-4.4-0.1C70,42.5,68.5,42.5,67,42.5z"/>
		</g>
		<g>
			<path class="st1" d="M73.1,43.6c0.3,0.3,0.4,0.6,0.4,1c0,0.3-0.1,0.6-0.4,1c-0.3-0.3-0.4-0.6-0.4-1C72.7,44.3,72.8,44,73.1,43.6z
				"/>
		</g>
		<g>
			<path class="st1" d="M76.4,43.4c0.4,0.2,0.6,0.6,0.7,1c0,0.4,0,0.8-0.4,1.2c-0.2-0.4-0.3-0.7-0.3-1.1
				C76.3,44.1,76.3,43.8,76.4,43.4z"/>
		</g>
		<g>
			<path class="st1" d="M79.9,43.6c0.3,0.2,0.4,0.5,0.4,0.7c0,0.2-0.1,0.5-0.4,0.7c-0.3-0.2-0.4-0.5-0.4-0.7
				C79.6,44.1,79.6,43.9,79.9,43.6z"/>
		</g>
		<g>
			<path class="st1" d="M83.1,44.6c0.3,0.2,0.4,0.4,0.4,0.6c0,0.2-0.1,0.4-0.4,0.6c-0.3-0.2-0.4-0.4-0.4-0.6
				C82.7,45,82.8,44.8,83.1,44.6z"/>
		</g>
		<g>
			<path class="st1" d="M94.4,5.7c0,0.2,0.1,0.4,0.1,0.4c0,0.1,0,0.2,0,0.3c0,0.3,0,0.5,0,0.8c0,0.5,0.1,1,0.3,1.5
				c0.2,1,0.6,2,1,2.9c0.8,1.9,1.7,3.8,2.6,5.6l2.7,5.6l1.3,2.8l0.3,0.7l0.2,0.3c0,0,0.1,0.1,0.1,0.2c0,0.1,0,0.2,0,0.2
				c0,0.6,0,1.1,0,1.6l0,0.6l-0.5-0.3c-1.2-0.8-2.6-1.3-4.1-1.6C97,27,95.5,27,94,27c-1.5,0.1-3,0.2-4.5,0.4
				c-0.8,0.1-1.5,0.2-2.2,0.4C86.6,28,86,28.4,85.5,29l0,0l-0.3,0.4l0.2-0.5l5-11.5c0.8-1.9,1.6-3.8,2.4-5.8c0.4-1,0.7-1.9,1-2.9
				C94.1,7.7,94.3,6.7,94.4,5.7z M94.4,5.7c0.1,1-0.1,2.1-0.3,3.1c-0.2,1-0.5,2-0.8,3c-0.6,2-1.4,4-2.2,5.9
				c-1.6,3.9-3.5,7.6-5.6,11.2l-0.1-0.1l0,0c0.5-0.6,1.2-1.1,1.9-1.3c0.7-0.3,1.5-0.4,2.2-0.5c1.5-0.3,3-0.5,4.5-0.6
				c1.5-0.1,3.1,0,4.6,0.3c1.5,0.3,3,0.9,4.3,1.8l-0.5,0.3c0-0.5,0-1,0-1.5c0-0.1,0-0.1,0-0.2c0,0,0,0,0-0.1l-0.2-0.4l-0.3-0.7
				l-1.3-2.8l-2.5-5.7c-0.8-1.9-1.7-3.8-2.6-5.6c-0.4-0.9-0.8-1.9-1-2.9c-0.1-0.5-0.2-1-0.3-1.5c0-0.3,0-0.5,0-0.8
				c0-0.1,0-0.2,0-0.4C94.3,5.8,94.4,5.7,94.4,5.7z"/>
		</g>
		<g>
			<path class="st1" d="M86.2,29.1c0.5,0.6,0.8,1.3,0.9,2c0.2,0.7,0.2,1.5,0.1,2.2l-0.4-0.2c0.4-0.6,1-1,1.7-1.3
				c0.7-0.3,1.3-0.4,2-0.5c1.3-0.2,2.7-0.3,4-0.4c1.3,0,2.7,0.2,4,0.5c1.3,0.3,2.6,0.9,3.7,1.6l-0.4,0.2c-0.1-1.7,0.1-3.3,0.7-4.9
				c-0.3,1.6-0.4,3.3-0.2,4.9l0.1,0.5l-0.4-0.2c-1.1-0.6-2.4-1.1-3.6-1.4c-1.3-0.3-2.6-0.4-3.9-0.4c-1.3,0-2.6,0.1-3.9,0.3
				c-0.7,0.1-1.3,0.2-1.9,0.4c-0.6,0.2-1.1,0.5-1.5,1l-0.6,0.7l0.2-0.8c0.1-0.7,0.1-1.4,0.1-2.1C86.7,30.4,86.5,29.7,86.2,29.1z"/>
		</g>
		<g>
			<path class="st1" d="M90.9,29c0.3,0.2,0.4,0.3,0.4,0.5c0,0.2-0.1,0.3-0.4,0.5c-0.3-0.2-0.4-0.3-0.4-0.5
				C90.5,29.3,90.6,29.2,90.9,29z"/>
		</g>
		<g>
			<path class="st1" d="M95.1,29.1c0.3,0.1,0.4,0.2,0.4,0.3c0,0.1,0,0.3-0.3,0.4c-0.3-0.1-0.4-0.2-0.4-0.3
				C94.8,29.4,94.8,29.2,95.1,29.1z"/>
		</g>
		<g>
			<path class="st1" d="M99.6,29.4c0.3,0.2,0.4,0.4,0.4,0.6c0,0.2-0.1,0.4-0.4,0.6c-0.3-0.2-0.4-0.4-0.4-0.6
				C99.3,29.8,99.3,29.6,99.6,29.4z"/>
		</g>
		<g>
			<path class="st1" d="M87,32.5c0.2,1.4,0.2,2.8,0.2,4.2c0,1.4-0.1,2.8-0.2,4.2c0,0.3-0.1,0.7-0.2,1.1c-0.1,0.4-0.2,0.8-0.7,1.1
				c-0.6,0.2-0.5,0.1-0.6,0.4c-0.1,0.3-0.1,0.6-0.1,0.9c0,1.4,0.1,2.8,0,4.2c-0.3-1.4-0.4-2.8-0.6-4.2c0-0.4-0.1-0.7,0-1.2
				c0.1-0.2,0.2-0.5,0.4-0.6c0.3-0.2,0.5-0.1,0.5-0.2c0.1,0,0.2-0.3,0.3-0.7c0.1-0.3,0.1-0.7,0.1-1c0.1-1.4,0.3-2.8,0.4-4.2L87,32.5
				z"/>
		</g>
		<g>
			<path class="st1" d="M102,33.7c0.3,1.3,0.4,2.5,0.4,3.8c0,1.2-0.1,2.5-0.3,3.8c-0.3-1.2-0.4-2.5-0.4-3.8
				C101.6,36.2,101.7,34.9,102,33.7z"/>
		</g>
		<g>
			<path class="st1" d="M90.4,41.3c1-0.2,2-0.3,3-0.3c1,0,2-0.1,3,0c2,0.1,4,0.4,5.9,0.9l0.3,0.1l0,0.3c-0.1,0.9-0.1,1.8,0,2.8
				c0,0.9,0.1,1.8,0.3,2.8c-0.3-0.9-0.5-1.8-0.7-2.7c-0.1-0.9-0.2-1.9-0.2-2.8l0.3,0.3c-1.9-0.4-3.9-0.7-5.9-0.8c-1-0.1-2-0.2-3-0.2
				L90.4,41.3z"/>
		</g>
		<g>
			<path class="st0" d="M92.4,39.1c0.3-0.7,0.4-1.6,0.4-2.4c0-0.2,0-0.5-0.1-0.7c-0.2-0.2-0.5,0-0.3,0.4c0-0.4-0.4-0.3-0.5,0
				c-0.1,0.3,0,0.6,0,0.9c0.1,0.6,0.3,1.3,0.4,1.9C92.4,39.2,92.4,39.2,92.4,39.1z"/>
			<g>
				<path class="st1" d="M92.4,39.1c0.1-0.3,0.2-0.6,0.2-1c0-0.3,0-0.7,0-1c0-0.3-0.1-0.7-0.2-0.9c0,0-0.1-0.1,0,0
					c0.1,0.1,0.2,0,0.2,0c0.1-0.1,0-0.1,0.1,0l-0.7,0.2c0,0,0,0,0,0c0,0.1,0.2,0.1,0.2,0c0,0,0,0,0,0.1c-0.1,0.2-0.1,0.5,0,0.8
					c0,0.6,0.1,1.2,0.2,1.8l0,0L92.4,39.1z M92.4,39.1l0,0.1l0,0l0,0c-0.1-0.6-0.4-1.2-0.6-1.7c-0.1-0.3-0.2-0.6-0.2-1
					c0-0.2,0.1-0.5,0.4-0.6c0.2-0.1,0.5,0,0.6,0.1c0.1,0.2,0.2,0.3,0.2,0.4L93,38l-0.9-1.4c-0.1-0.2-0.3-0.6,0.1-0.9
					c0.2-0.2,0.5-0.2,0.7,0c0.2,0.2,0.2,0.3,0.2,0.4c0.1,0.5,0,0.8-0.1,1.1c-0.1,0.3-0.2,0.7-0.3,1C92.7,38.5,92.6,38.8,92.4,39.1z"
					/>
			</g>
		</g>
		<g>
			<path class="st0" d="M98.1,39.5c-0.1-0.9-0.1-1.8,0-2.7c0-0.5,0.2-1.2,0.5-0.9c0.1,0.1,0.2,0.3,0.2,0.5c0.1,0.9,0.1,1.9,0,2.9
				c-0.1-0.3-0.1-0.7-0.2-1"/>
			<path class="st1" d="M98.1,39.5c-0.1-0.6-0.2-1.2-0.3-1.8c0-0.3-0.1-0.6-0.1-0.9c0-0.4,0-0.7,0.4-1.1c0.1-0.1,0.2-0.1,0.3-0.1
				c0.1,0,0.3,0,0.4,0.1c0.2,0.1,0.2,0.3,0.3,0.4c0.1,0.2,0.1,0.4,0.1,0.5c0,0.3,0.1,0.6,0,0.9c0,0.6-0.1,1.3-0.3,1.9l-0.3,1.1
				l0-1.1c0-0.3,0-0.7,0-1c0.2,0.3,0.3,0.6,0.4,0.9l-0.3,0c0-0.6,0-1.2-0.1-1.8c0-0.3-0.1-0.6-0.1-0.9c0-0.1,0-0.3-0.1-0.4
				c0,0,0,0,0,0c0,0.1,0.3,0,0.2,0c0,0-0.2,0.4-0.2,0.6l-0.1,0.9C98.3,38.3,98.2,38.9,98.1,39.5z"/>
		</g>
		<g>
			<path class="st0" d="M88.6,46.3c0.3,0.2,0.6,0,0.8-0.4c0.2-0.5,0.1-1.1,0.1-1.6c0-0.2,0-0.4,0-0.7c-0.3-0.5-0.9-0.1-1.1,0.6
				c-0.1,0.6,0,1.3,0.1,2C88.5,46.2,88.6,46.2,88.6,46.3z"/>
			<g>
				<path class="st1" d="M88.6,46.3c0.3,0.2,0.6,0,0.7-0.3c0.1-0.2,0.1-0.5,0.1-0.8c0-0.5-0.2-1.1-0.3-1.6l0.1,0.2
					c-0.1-0.1-0.1,0,0-0.1c0,0-0.1,0-0.1,0.1c-0.2,0.1-0.3,0.3-0.4,0.6c-0.2,0.5-0.2,1.2-0.1,1.8l0,0L88.6,46.3z M88.6,46.3
					l-0.1-0.2l0,0c-0.1-0.6-0.4-1.2-0.4-1.8c0-0.3,0.1-0.7,0.3-1c0.1-0.2,0.3-0.3,0.6-0.3c0.3,0,0.6,0.2,0.7,0.4l0.1,0.1l0,0.1
					c0,0.6,0,1.1-0.1,1.7c-0.1,0.3-0.2,0.6-0.3,0.8C89.2,46.2,88.9,46.5,88.6,46.3z"/>
			</g>
		</g>
		<g>
			<path class="st0" d="M94.4,46.4c0,0.3,0.1,0.5,0.2,0.6c0.3,0.3,0.6-0.5,0.6-1c0-0.6-0.1-1.1-0.2-1.6c0.3-1-0.4-1.5-0.7-1
				c0,1,0.1,2,0.1,2.9C94.4,46.3,94.4,46.3,94.4,46.4z"/>
			<g>
				<path class="st1" d="M94.4,46.4c0,0.2,0,0.3,0.1,0.5c0,0.1,0.2,0.3,0.3,0.2c0.2-0.2,0.2-0.6,0.2-0.8c0-0.3-0.1-0.6-0.2-0.9
					c-0.1-0.3-0.2-0.6-0.2-0.9l0-0.1l0-0.1c0.1-0.2,0.1-0.5,0-0.6c0-0.1-0.1-0.1-0.1-0.1c0,0,0,0-0.1,0l0.1-0.2l-0.1,1.5
					C94.4,45.3,94.4,45.9,94.4,46.4z M94.4,46.4c0-0.5-0.1-1-0.2-1.5L94,43.3l0-0.1l0.1-0.1c0.1-0.2,0.4-0.4,0.7-0.3
					c0.3,0.1,0.5,0.3,0.6,0.5c0.2,0.4,0.1,0.8,0,1.1l0-0.2c0.1,0.3,0.1,0.7,0.1,1c0,0.3,0,0.6-0.1,1c-0.1,0.3-0.2,0.6-0.5,0.9
					c-0.2,0.1-0.3-0.1-0.4-0.2C94.4,46.7,94.4,46.5,94.4,46.4z"/>
			</g>
		</g>
		<g>
			<path class="st0" d="M99.1,46.4c0.3,0.2,0.7-0.2,0.8-0.7c0.1-0.5,0-1-0.1-1.5c-0.1-0.2-0.2-0.3-0.2-0.3c-0.3-0.4-0.7,0.2-0.7,0.8
				C98.9,45.2,99.1,45.8,99.1,46.4C99,46.4,99,46.4,99.1,46.4z"/>
			<g>
				<path class="st1" d="M99.1,46.4c0.2,0.1,0.5,0,0.6-0.2c0.1-0.2,0.1-0.4,0.1-0.6c0-0.4-0.2-0.9-0.3-1.3l0.1,0.1l-0.2-0.3
					c0,0,0.1,0,0.1,0c0.1,0,0,0,0,0c-0.1,0.1-0.3,0.3-0.3,0.5C99,45.2,99.1,45.8,99.1,46.4L99.1,46.4L99.1,46.4z M99.1,46.4
					L99.1,46.4L99.1,46.4c0-0.7-0.3-1.2-0.4-1.8c0-0.3,0-0.7,0.3-1c0.1-0.1,0.2-0.2,0.4-0.2c0.2,0,0.4,0.1,0.5,0.2
					c0.2,0.2,0.2,0.3,0.3,0.4l0,0.1l0,0.1c0.1,0.5,0,1-0.1,1.5c-0.1,0.2-0.2,0.5-0.4,0.6C99.6,46.4,99.3,46.6,99.1,46.4z"/>
			</g>
		</g>
		<g>
			<path class="st1" d="M103.9,60.4c-0.2-3.9-0.7-7.9-1.4-11.7l0.2,0.2l-2.6-0.3c-0.2,0-0.4,0-0.7-0.1c-0.3-0.1-0.5-0.2-0.7-0.3
				c-0.2-0.2-0.4-0.4-0.5-0.6c-0.1-0.3-0.1-0.6,0-0.9l0.4,0.4c-1,0.2-2-0.1-2.8-0.7l0.5-0.3l0,2.2l0,0.3l-0.3,0l-3.2,0.5l-1.6,0.3
				l-0.8,0.1c-0.3,0-0.5,0.1-0.9,0.1c-0.3,0-0.8-0.2-1-0.5c-0.2-0.3-0.3-0.5-0.4-0.8c-0.2-0.5-0.5-0.8-0.9-1.1
				c-0.4-0.3-0.8-0.4-1.3-0.4c-0.5,0-0.9,0.3-1.2,0.7l-0.1,0.1l-0.1,0c-2.9,0.2-5.8,0.2-8.7,0c-2.9-0.2-5.8-0.5-8.7-1
				c2.9,0.3,5.8,0.5,8.7,0.6c2.9,0.1,5.8,0,8.7-0.2l-0.2,0.1c0.4-0.5,0.9-0.9,1.6-0.9c0.6-0.1,1.3,0.1,1.8,0.5
				c0.5,0.4,0.9,0.9,1.1,1.4c0.1,0.3,0.2,0.5,0.4,0.7c0.1,0.2,0.2,0.2,0.4,0.2c0.2,0,0.5-0.1,0.7-0.1l0.8-0.1l1.6-0.2l3.2-0.5
				l-0.3,0.3l0-2.2l0-0.7l0.5,0.4c0.7,0.5,1.5,0.7,2.3,0.6l0.6-0.1l-0.2,0.5c-0.1,0.3,0,0.6,0.3,0.8c0.1,0.1,0.3,0.2,0.4,0.2
				l0.6,0.1l2.6,0.3l0.2,0l0,0.2C103.6,52.5,103.9,56.4,103.9,60.4z"/>
		</g>
		<g>
			<path class="st1" d="M85.5,56.5c0-0.6,0.4-1.2,1-1.6c0.5-0.4,1.1-0.6,1.6-0.9c0.4-0.3,0.6-0.8,0.7-1.4c0-0.6,0-1.2,0-1.8
				c0-0.3,0.1-0.7,0.3-1.1c0.2-0.4,0.7-0.6,1-0.6c0.7,0,1.3,0,1.9,0.1l0.9,0.1c0.1,0,0.3,0,0.5,0.1c0.2,0.1,0.3,0.3,0.4,0.4
				c0.1,0.3,0.2,0.6,0.3,0.9c0,0.1,0.1,0.3,0.1,0.4c0.1,0.1,0.1,0.3,0.3,0.3c-0.2,0.1-0.3-0.1-0.4-0.2c-0.1-0.1-0.2-0.3-0.2-0.4
				c-0.1-0.3-0.2-0.6-0.4-0.8c-0.2-0.3-0.3-0.3-0.6-0.2l-0.9,0c-0.6,0-1.3,0-1.8,0.1c-0.2,0-0.4,0.1-0.5,0.3
				c-0.1,0.2-0.2,0.4-0.2,0.7c0,0.6,0,1.2,0,1.9c-0.1,0.7-0.4,1.4-1,1.8c-0.6,0.4-1.2,0.5-1.7,0.8C86.1,55.5,85.7,55.9,85.5,56.5z"
				/>
		</g>
		<g>
			<path class="st1" d="M71.8,56.5c-0.2-1.8,0.1-3.6,0.6-5.3c0.1-0.2,0.2-0.4,0.2-0.6c0.1-0.2,0.2-0.4,0.4-0.7
				c0.1-0.1,0.3-0.2,0.5-0.2c0.2,0,0.4,0.1,0.5,0.1c0.3,0.1,0.4,0.2,0.6,0.3c0.7,0.3,1.6,0.4,2.3,0.2l0.5-0.1l0,0.5
				c0,0.6,0,1.2,0,1.9c0,0.6,0.1,1.3,0.2,1.8c0,0.1,0.1,0.3,0.1,0.3c0.1,0.1,0.1,0.1,0.2,0.1c0.1,0,0.5,0,0.6,0.2
				c0.1,0.2,0.2,0.3,0.2,0.5c0.2,0.7-0.1,1.3-0.4,1.9c0.2-0.6,0.3-1.3,0.1-1.8c0-0.1-0.1-0.3-0.2-0.3c-0.1-0.1-0.1-0.1-0.3,0
				c-0.2,0.1-0.5,0-0.6-0.2c-0.1-0.2-0.2-0.3-0.3-0.5c-0.2-0.7-0.3-1.3-0.4-1.9c-0.1-0.6-0.1-1.3-0.1-1.9l0.5,0.4
				c-0.9,0.3-2,0.1-2.8-0.3c-0.2-0.1-0.4-0.2-0.6-0.3c-0.2-0.1-0.2-0.1-0.2,0c-0.1,0.1-0.2,0.3-0.3,0.5c-0.1,0.2-0.2,0.4-0.3,0.6
				C72.4,53,72,54.8,71.8,56.5z"/>
		</g>
		<g>
			<path class="st1" d="M77.4,61.1c0-1.2,0.2-2.5,0.6-3.7c0.2-0.6,0.4-1.2,0.7-1.7c0.3-0.6,0.7-1.1,1-1.6c0.3-0.4,0.2-1,0.2-1.6
				c0-0.3,0-0.6,0-1c0-0.3,0.1-0.7,0.4-1c0.1-0.2,0.4-0.2,0.6-0.3l0.5,0l0.9,0c0.6,0,1.2,0,1.9,0c-0.6,0.1-1.2,0.2-1.8,0.4l-0.9,0.2
				L81,50.7c-0.1,0-0.2,0.1-0.2,0.1c-0.2,0.3-0.2,1-0.1,1.6c0,0.6,0.1,1.3-0.3,2c-0.4,0.6-0.7,1-1,1.5c-0.3,0.5-0.6,1.1-0.8,1.6
				C78,58.7,77.7,59.9,77.4,61.1z"/>
		</g>
		<g>
			<path class="st1" d="M-0.5,66.5c2.5-0.9,5.2-1.2,7.8-1.7c2.6-0.4,5.2-0.8,7.8-1.3c1.3-0.3,2.6-0.5,3.8-1c0.6-0.3,1.2-0.5,1.9-0.6
				c0.7-0.1,1.4,0,2,0.3c0.6,0.2,1.2,0.5,1.8,0.6c0.6,0.1,1.2-0.1,1.7-0.5c0.6-0.3,1.1-0.7,1.7-1.1c0.6-0.4,1.3-0.6,1.9-0.7
				c1.4-0.2,2.8,0.3,4,0.7c1.3,0.5,2.5,1,3.7,1.2c2.5,0.4,5.1-0.7,7.8-1c1.3-0.2,2.8,0.1,4,0.6c0.6,0.2,1.2,0.3,1.6,0.1
				c0.5-0.3,0.9-0.8,1.3-1.3c0.2-0.2,0.5-0.5,0.9-0.7c0.4-0.2,0.7-0.3,1.1-0.3c0.7,0,1.4,0.1,2,0.2l3.9,0.6c2.6,0.4,5.3,0.7,7.9,1.1
				c2.6,0.4,5.3,1,7.8,2c0.6,0.2,1.2,0.4,1.8,0.4c0.6,0,1.3-0.1,2-0.1l4-0.2l4-0.2l2-0.1c0.7-0.1,1.4,0,1.8-0.3c0.5-0.3,0.7-1,1-1.6
				c0.2-0.3,0.4-0.6,0.6-0.8c0.3-0.2,0.5-0.4,0.8-0.6c1.2-0.7,2.5-1,3.9-1.1c1.3-0.1,2.7,0,4,0.2c1.4,0.2,2.6,0.8,3.8,1.4
				c2.4,1.2,4.7,2.5,7.1,3.6c1.2,0.6,2.4,1.1,3.6,1.6c0.6,0.2,1.3,0.4,1.9,0.6c0.6,0.1,1.3,0.2,2,0c-0.6,0.2-1.3,0.1-2,0
				c-0.7-0.1-1.3-0.3-1.9-0.5c-1.3-0.4-2.5-1-3.7-1.5c-2.4-1.1-4.8-2.4-7.1-3.5c-1.2-0.5-2.4-1.1-3.7-1.3c-1.3-0.2-2.6-0.3-3.9-0.1
				c-1.3,0.1-2.6,0.4-3.7,1.1c-0.6,0.3-1,0.7-1.3,1.3c-0.3,0.6-0.5,1.2-1.1,1.7c-0.3,0.2-0.7,0.3-1,0.4L90,64l-2,0.1l-4,0.3l-4,0.3
				c-0.7,0-1.3,0.1-2,0.1c-0.7,0-1.4-0.2-2-0.5c-4.9-1.9-10.3-2.2-15.5-3l-3.9-0.5c-0.7-0.1-1.3-0.2-1.9-0.2c-0.6,0-1.1,0.2-1.5,0.7
				c-0.4,0.4-0.8,1-1.5,1.4C51.3,63,50.8,63,50.5,63c-0.4,0-0.7-0.1-1.1-0.3c-1.2-0.5-2.4-0.8-3.7-0.6c-2.6,0.2-5.1,1.3-7.9,0.9
				c-1.4-0.2-2.6-0.8-3.8-1.3c-1.2-0.5-2.5-0.9-3.7-0.7c-1.3,0.1-2.3,1-3.4,1.7c-0.6,0.3-1.3,0.6-2,0.5c-0.7-0.1-1.3-0.4-1.9-0.7
				c-0.6-0.3-1.2-0.4-1.8-0.3c-0.6,0.1-1.3,0.3-1.9,0.5c-1.3,0.5-2.6,0.7-3.9,1c-2.6,0.5-5.2,0.8-7.9,1.2C4.7,65.4,2,65.7-0.5,66.5z
				"/>
		</g>
		<g>
			<path class="st1" d="M19.4,25.4l2.3,0.2c0.7,0,1.5,0,2.3,0c1.5-0.1,3-0.2,4.6-0.3l0,0l-0.1,0.1c-1.8-3.5-3.5-7.1-4.9-10.7
				c-0.7-1.8-1.4-3.7-2-5.6c-0.3-0.9-0.6-1.9-0.9-2.8c-0.2-0.4-0.4-0.8-0.7-1.2c-0.3-0.3-0.7-0.5-0.9-0.4l0.2-0.3
				c-0.5,2-1.1,3.9-1.7,5.9c-0.6,2-1.2,3.9-2,5.8c-0.7,1.9-1.6,3.8-2.6,5.6c-1,1.8-2.2,3.4-2.7,5.4l0,0L10,27.2
				c0.6-0.5,1.3-1,2.1-1.3c0.8-0.3,1.6-0.5,2.4-0.6C16.2,25.1,17.8,25.3,19.4,25.4z M19.4,26.2c-1.6-0.2-3.2-0.4-4.8-0.3
				c-1.6,0.1-3.1,0.6-4.4,1.5l-0.2,0.2l0.1-0.3l0,0c0.4-2,1.5-3.8,2.5-5.6c1-1.8,1.8-3.7,2.4-5.6c1.4-3.8,2.5-7.7,3.5-11.7l0.1-0.2
				l0.2-0.1c0.7-0.2,1.3,0.2,1.7,0.6c0.4,0.4,0.6,0.9,0.8,1.4c0.4,1,0.6,1.9,0.9,2.8c0.6,1.9,1.3,3.7,1.9,5.6
				c1.4,3.7,2.9,7.3,4.5,10.9l0.1,0.1l-0.1,0l0,0c-1.5,0.3-3,0.6-4.5,0.7c-0.8,0.1-1.5,0.1-2.3,0.1L19.4,26.2z"/>
		</g>
		<g>
			<path class="st1" d="M68.5,55.5c0.6,0,1.1,0.1,1.7,0.1c0.3,0,0.6,0.1,0.8,0.1l0.4,0.1c0.1,0,0.3,0,0.5,0.1
				c0.2,0.1,0.4,0.3,0.5,0.5c0.1,0.2,0.1,0.3,0.1,0.5l0.1,0.8c0.1,0.6,0.1,1.1,0.2,1.6c0,0.3,0.1,0.5,0.2,0.8c0,0.2,0.2,0.4,0.4,0.6
				c0.3,0.4,0.8,0.8,1.2,1.1c0.4,0.4,0.9,0.7,1.3,1c0.2,0.2,0.5,0.3,0.7,0.4c0.3,0.1,0.5,0.2,0.8,0.2c-0.3,0.1-0.6,0-0.8,0
				c-0.3-0.1-0.5-0.2-0.8-0.3c-0.5-0.3-1-0.5-1.5-0.9c-0.5-0.3-0.9-0.7-1.3-1.1c-0.2-0.2-0.4-0.5-0.5-0.8c-0.1-0.3-0.2-0.6-0.3-0.8
				c-0.1-0.6-0.2-1.1-0.3-1.7L71.8,57c0-0.3-0.1-0.5-0.1-0.5c0,0-0.2-0.1-0.3-0.1L71,56.3c-0.3-0.1-0.5-0.2-0.8-0.2
				C69.6,55.9,69.1,55.7,68.5,55.5z"/>
		</g>
	</g>
	<g>
		<g>
			<path class="st1" d="M12.7,30.9c-0.2,0.6-0.4,1.2-0.6,1.9c-0.1,0.3-0.2,0.6-0.3,0.9c-0.2,0.3-0.3,0.6-0.6,0.8l0,0
				c0-0.4,0.1-0.7,0.2-1c0.1-0.3,0.3-0.6,0.4-0.9C12.1,32,12.4,31.5,12.7,30.9L12.7,30.9z"/>
		</g>
		<g>
			<path class="st1" d="M13.9,31.6c-0.3,0.8-0.7,1.7-1,2.5c-0.2,0.4-0.3,0.8-0.5,1.2c-0.2,0.4-0.5,0.8-0.8,1.1l0,0
				c0.1-0.5,0.2-0.9,0.4-1.3c0.2-0.4,0.4-0.8,0.6-1.2C13,33.1,13.4,32.3,13.9,31.6L13.9,31.6z"/>
		</g>
		<g>
			<path class="st1" d="M14.1,33.6c0,0-0.1,0-0.1,0c0,0-0.1,0.1-0.1,0.1l-0.1,0.4l-0.3,0.7L13,36.3c-0.2,0.5-0.3,1-0.5,1.5
				c-0.2,0.5-0.4,0.9-0.7,1.4l0,0c0-0.5,0.2-1,0.3-1.6c0.2-0.5,0.4-1,0.6-1.4l0.7-1.4l0.4-0.7l0.2-0.3
				C13.8,33.6,14.1,33.4,14.1,33.6L14.1,33.6z"/>
		</g>
		<g>
			<path class="st1" d="M13.6,38.2c-0.2,0.8-0.5,1.6-0.8,2.3c-0.2,0.4-0.3,0.8-0.5,1.1c-0.2,0.3-0.5,0.7-0.8,1l0,0
				c0.1-0.4,0.3-0.8,0.4-1.2c0.2-0.4,0.4-0.7,0.6-1.1C12.8,39.6,13.2,38.9,13.6,38.2L13.6,38.2z"/>
		</g>
		<g>
			<path class="st1" d="M14.2,40.2c-0.4,1-0.9,2-1.4,3c-0.2,0.5-0.4,1-0.7,1.5c-0.3,0.5-0.6,1-1,1.4l0,0c0.1-0.6,0.4-1.1,0.6-1.6
				c0.2-0.5,0.5-1,0.8-1.5C13,42.1,13.6,41.2,14.2,40.2L14.2,40.2z"/>
		</g>
		<g>
			<path class="st1" d="M14,43c-0.3,1-0.6,1.9-0.9,2.9c-0.2,0.5-0.3,1-0.6,1.4c-0.2,0.4-0.5,0.9-0.8,1.3l0,0c0.1-0.5,0.3-1,0.4-1.5
				c0.2-0.5,0.4-0.9,0.6-1.4C13.2,44.8,13.6,43.9,14,43L14,43z"/>
		</g>
		<g>
			<path class="st1" d="M14.2,45.5c-0.2,0.9-0.5,1.8-0.9,2.7c-0.2,0.4-0.3,0.9-0.6,1.3c-0.3,0.4-0.5,0.8-0.9,1.1l0,0
				c0.1-0.5,0.3-0.9,0.5-1.3c0.2-0.4,0.5-0.8,0.7-1.2C13.3,47.2,13.8,46.3,14.2,45.5L14.2,45.5z"/>
		</g>
		<g>
			<path class="st1" d="M14.3,46.7c-0.3,1-0.7,2-1.1,3c-0.2,0.5-0.4,1-0.7,1.5c-0.3,0.4-0.6,0.9-1,1.3l0,0c0.2-0.5,0.4-1,0.6-1.5
				c0.2-0.5,0.5-0.9,0.8-1.4C13.4,48.7,13.9,47.7,14.3,46.7L14.3,46.7z"/>
		</g>
		<g>
			<path class="st1" d="M14,50c-0.1,0.7-0.3,1.3-0.5,2c-0.1,0.3-0.1,0.7-0.3,1c-0.2,0.3-0.3,0.6-0.5,0.9l0,0c0-0.4,0-0.7,0.1-1
				c0.1-0.3,0.2-0.6,0.4-0.9C13.4,51.3,13.7,50.6,14,50L14,50z"/>
		</g>
		<g>
			<path class="st1" d="M14.6,51.2c-0.2,0.7-0.4,1.4-0.6,2c-0.1,0.3-0.2,0.7-0.3,1c-0.2,0.3-0.3,0.6-0.6,0.9l0,0
				c0-0.4,0.1-0.7,0.1-1.1c0.1-0.3,0.3-0.7,0.4-1C14,52.5,14.3,51.8,14.6,51.2L14.6,51.2z"/>
		</g>
		<g>
			<path class="st1" d="M15,53c-0.1,0.6-0.3,1.1-0.4,1.7c-0.1,0.3-0.1,0.6-0.2,0.8c-0.1,0.3-0.3,0.5-0.5,0.7l0,0
				c0-0.3,0-0.6,0.1-0.9c0.1-0.3,0.2-0.5,0.3-0.8C14.4,54,14.7,53.5,15,53L15,53z"/>
		</g>
		<g>
			<path class="st1" d="M15.5,54.5c0,0.4,0,0.9-0.1,1.3c0,0.2,0,0.4-0.1,0.6c-0.1,0.2-0.2,0.4-0.4,0.5l0,0c-0.1-0.2,0-0.5,0-0.7
				c0-0.2,0.1-0.4,0.2-0.6C15.1,55.3,15.3,54.9,15.5,54.5L15.5,54.5z"/>
		</g>
		<g>
			<path class="st1" d="M19.2,48.9c-0.2,0.7-0.4,1.4-0.7,2.1c-0.1,0.4-0.2,0.7-0.4,1c-0.2,0.3-0.4,0.7-0.6,0.9l0,0
				c0-0.4,0.1-0.8,0.2-1.1c0.1-0.4,0.3-0.7,0.5-1C18.5,50.2,18.8,49.5,19.2,48.9L19.2,48.9z"/>
		</g>
		<g>
			<path class="st1" d="M19.9,49.6c-0.3,0.8-0.7,1.6-1,2.5c-0.2,0.4-0.3,0.8-0.5,1.2c-0.2,0.4-0.5,0.8-0.8,1.1l0,0
				c0.1-0.5,0.2-0.9,0.4-1.3c0.2-0.4,0.4-0.8,0.6-1.2C19,51.1,19.4,50.3,19.9,49.6L19.9,49.6z"/>
		</g>
		<g>
			<path class="st1" d="M19.6,51.6c-0.2,0.8-0.5,1.6-0.7,2.4c-0.1,0.4-0.2,0.8-0.4,1.2c-0.2,0.4-0.4,0.7-0.7,1.1l0,0
				c0-0.4,0.1-0.8,0.2-1.2c0.1-0.4,0.3-0.8,0.5-1.1C18.9,53,19.2,52.3,19.6,51.6L19.6,51.6z"/>
		</g>
		<g>
			<path class="st1" d="M19.3,54.6c-0.1,0.6-0.3,1.2-0.5,1.9c-0.1,0.3-0.2,0.6-0.3,0.9c-0.2,0.3-0.3,0.6-0.6,0.8l0,0
				c0-0.3,0.1-0.6,0.2-1c0.1-0.3,0.3-0.6,0.4-0.9L19.3,54.6L19.3,54.6z"/>
		</g>
		<g>
			<path class="st1" d="M19.2,57.1c0,0.3,0,0.5-0.1,0.8c0,0.1,0,0.3-0.1,0.4c-0.1,0.1-0.2,0.2-0.3,0.3l0,0c-0.1-0.2-0.1-0.3-0.1-0.4
				c0-0.1,0.1-0.2,0.2-0.3C18.9,57.5,19,57.3,19.2,57.1L19.2,57.1z"/>
		</g>
		<g>
			<path class="st1" d="M28.8,40.2c-0.2,0.6-0.4,1.3-0.7,1.9c-0.1,0.3-0.2,0.6-0.4,0.9c-0.2,0.3-0.3,0.6-0.6,0.8l0,0
				c0-0.4,0.1-0.7,0.2-1c0.1-0.3,0.3-0.6,0.4-0.9C28.1,41.3,28.4,40.7,28.8,40.2L28.8,40.2z"/>
		</g>
		<g>
			<path class="st1" d="M30.3,39.7c-0.3,0.9-0.7,1.9-1,2.8c-0.2,0.5-0.4,0.9-0.6,1.4c-0.3,0.4-0.5,0.8-0.9,1.2l0,0
				c0.1-0.5,0.3-1,0.5-1.4c0.2-0.5,0.5-0.9,0.7-1.3C29.4,41.4,29.8,40.6,30.3,39.7L30.3,39.7z"/>
		</g>
		<g>
			<path class="st1" d="M30.9,40.2c-0.3,1.1-0.6,2.2-1.1,3.2c-0.2,0.5-0.4,1.1-0.7,1.5c-0.3,0.5-0.6,1-1.1,1.4l0,0
				c0.2-0.6,0.4-1.1,0.7-1.6c0.2-0.5,0.5-1,0.8-1.5C30,42.3,30.5,41.3,30.9,40.2L30.9,40.2z"/>
		</g>
		<g>
			<path class="st1" d="M31,42.3c-0.3,1-0.6,2-0.9,2.9c-0.2,0.5-0.3,1-0.5,1.5c-0.2,0.5-0.4,0.9-0.8,1.3l0,0c0.1-0.5,0.2-1,0.3-1.5
				c0.2-0.5,0.4-0.9,0.6-1.4C30,44.2,30.5,43.3,31,42.3L31,42.3z"/>
		</g>
		<g>
			<path class="st1" d="M31.1,45.3c-0.3,1.1-0.7,2.3-1,3.4c-0.2,0.6-0.3,1.2-0.6,1.7C29.2,51,29,51.5,28.7,52l0,0
				c0.1-0.6,0.2-1.2,0.4-1.8c0.2-0.6,0.4-1.1,0.6-1.7C30.1,47.5,30.5,46.4,31.1,45.3L31.1,45.3z"/>
		</g>
		<g>
			<path class="st1" d="M30.9,48.6c-0.3,1.1-0.7,2.1-1.1,3.1c-0.2,0.5-0.4,1-0.7,1.5c-0.3,0.5-0.6,0.9-1,1.3l0,0
				c0.2-0.5,0.4-1,0.6-1.5c0.2-0.5,0.5-1,0.8-1.4C30,50.6,30.5,49.6,30.9,48.6L30.9,48.6z"/>
		</g>
		<g>
			<path class="st1" d="M30.9,51.3c-0.3,0.9-0.6,1.8-1,2.7c-0.2,0.5-0.3,0.9-0.5,1.3c-0.2,0.4-0.5,0.8-0.8,1.2l0,0
				c0.1-0.5,0.2-1,0.4-1.4c0.2-0.5,0.4-0.9,0.6-1.3C30,53,30.4,52.2,30.9,51.3L30.9,51.3z"/>
		</g>
		<g>
			<path class="st1" d="M30.8,53.7c-0.3,0.9-0.6,1.9-0.9,2.8c-0.2,0.5-0.3,0.9-0.6,1.4c-0.3,0.4-0.5,0.9-0.9,1.2l0,0
				c0.1-0.5,0.3-1,0.5-1.4c0.2-0.5,0.4-0.9,0.7-1.3C29.9,55.5,30.3,54.6,30.8,53.7L30.8,53.7z"/>
		</g>
		<g>
			<path class="st1" d="M30.6,56.2c-0.2,0.7-0.4,1.4-0.6,2.1c-0.1,0.3-0.2,0.7-0.3,1c-0.2,0.3-0.3,0.6-0.6,0.9l0,0
				c0-0.4,0.1-0.7,0.2-1.1c0.1-0.3,0.3-0.7,0.4-1C29.9,57.4,30.2,56.8,30.6,56.2L30.6,56.2z"/>
		</g>
		<g>
			<path class="st1" d="M30.7,58.7c0,0.3,0,0.6-0.1,0.9c0,0.2,0,0.3-0.1,0.5c-0.1,0.1-0.2,0.3-0.3,0.4l0,0c-0.1-0.2-0.1-0.3-0.1-0.5
				c0-0.2,0.1-0.3,0.2-0.4C30.4,59.2,30.5,59,30.7,58.7L30.7,58.7z"/>
		</g>
		<g>
			<path class="st1" d="M17.8,11.6c-0.7,2.4-1.5,4.7-2.3,7c-0.4,1.2-0.8,2.3-1.4,3.4c-0.5,1.1-1.1,2.2-1.7,3.3l0,0
				c0.4-1.2,0.9-2.3,1.3-3.4c0.5-1.1,1-2.2,1.5-3.4C16,16.2,16.9,13.9,17.8,11.6L17.8,11.6z"/>
		</g>
		<g>
			<path class="st1" d="M17.9,15c-0.6,1.6-1.3,3.1-2,4.7c-0.3,0.8-0.6,1.6-1,2.3c-0.4,0.8-0.8,1.5-1.3,2.2l0,0
				c0.2-0.8,0.5-1.6,0.9-2.4c0.3-0.8,0.7-1.5,1.1-2.3C16.3,18,17.1,16.5,17.9,15L17.9,15z"/>
		</g>
		<g>
			<path class="st1" d="M17.6,19.3c-0.5,1.2-1,2.4-1.5,3.5c-0.2,0.6-0.5,1.2-0.8,1.8c-0.3,0.6-0.6,1.1-1,1.6l0,0
				c0.1-0.6,0.4-1.2,0.6-1.8c0.2-0.6,0.6-1.1,0.9-1.7C16.3,21.5,16.9,20.4,17.6,19.3L17.6,19.3z"/>
		</g>
		<g>
			<path class="st1" d="M17.7,21.4c-0.2,0.8-0.5,1.6-0.8,2.4c-0.2,0.4-0.3,0.8-0.5,1.2c-0.2,0.4-0.5,0.7-0.8,1l0,0
				c0.1-0.4,0.3-0.8,0.4-1.2c0.2-0.4,0.4-0.7,0.6-1.1C17,23,17.3,22.2,17.7,21.4L17.7,21.4z"/>
		</g>
		<g>
			<path class="st1" d="M18.1,23.2c-0.1,0.5-0.3,1-0.4,1.5c-0.1,0.3-0.1,0.5-0.3,0.8c-0.1,0.2-0.3,0.5-0.5,0.7l0,0
				c0-0.3,0-0.6,0.1-0.8c0.1-0.3,0.2-0.5,0.3-0.7C17.5,24.1,17.8,23.6,18.1,23.2L18.1,23.2z"/>
		</g>
		<g>
			<path class="st1" d="M12.6,26.4c-0.1,0.4-0.2,0.8-0.3,1.2c-0.1,0.2-0.1,0.4-0.2,0.6c-0.1,0.2-0.2,0.3-0.5,0.5l0,0
				c0-0.2,0-0.4,0-0.6c0.1-0.2,0.2-0.4,0.3-0.5C12.1,27.1,12.3,26.7,12.6,26.4L12.6,26.4z"/>
		</g>
		<g>
			<path class="st1" d="M14.3,26.2c-0.3,0.6-0.5,1.2-0.8,1.7c-0.1,0.3-0.3,0.6-0.4,0.8c-0.2,0.2-0.4,0.5-0.7,0.7l0,0
				c0-0.3,0.2-0.6,0.3-0.9c0.1-0.3,0.3-0.5,0.5-0.8C13.4,27.2,13.8,26.6,14.3,26.2L14.3,26.2z"/>
		</g>
		<g>
			<path class="st1" d="M16.2,26.3c-0.2,0.5-0.4,1-0.6,1.5c-0.1,0.3-0.2,0.5-0.3,0.7c-0.2,0.2-0.3,0.4-0.6,0.6l0,0
				c0-0.3,0.1-0.6,0.2-0.8c0.1-0.3,0.3-0.5,0.4-0.7C15.5,27.2,15.9,26.8,16.2,26.3L16.2,26.3z"/>
		</g>
		<g>
			<path class="st1" d="M17.7,26.6c-0.1,0.3-0.2,0.6-0.3,0.9c0,0.2,0,0.3-0.1,0.4c-0.1,0.1-0.2,0.3-0.4,0.4l0,0
				c-0.1-0.2-0.1-0.4-0.1-0.5c0-0.2,0.1-0.3,0.2-0.4C17.2,27,17.4,26.8,17.7,26.6L17.7,26.6z"/>
		</g>
		<g>
			<path class="st1" d="M19.4,26.5c-0.1,0.3-0.1,0.6-0.2,0.8c0,0.1-0.1,0.3-0.1,0.4c-0.1,0.1-0.2,0.2-0.4,0.3l0,0
				c-0.1-0.2,0-0.3,0-0.5c0-0.1,0.1-0.2,0.2-0.4C19,26.9,19.2,26.7,19.4,26.5L19.4,26.5z"/>
		</g>
		<g>
			<path class="st1" d="M20.6,26.6c-0.2,0.3-0.3,0.6-0.4,0.9c0,0.2-0.1,0.3-0.2,0.5c-0.1,0.1-0.2,0.3-0.4,0.4l0,0
				c-0.1-0.2-0.1-0.4,0-0.6c0-0.2,0.2-0.3,0.3-0.5C20.1,27,20.3,26.8,20.6,26.6L20.6,26.6z"/>
		</g>
		<g>
			<path class="st1" d="M22.6,26.1c-0.1,0.3-0.2,0.6-0.3,0.8c0,0.1,0,0.3-0.1,0.4c-0.1,0.1-0.2,0.2-0.3,0.3l0,0
				c-0.1-0.2-0.1-0.3-0.1-0.5c0-0.2,0.1-0.3,0.2-0.4C22.2,26.5,22.4,26.2,22.6,26.1L22.6,26.1z"/>
		</g>
		<g>
			<path class="st1" d="M52.2,33.4c-0.3,0.5-0.5,1-0.8,1.5c-0.1,0.2-0.2,0.5-0.4,0.7c-0.2,0.2-0.4,0.4-0.7,0.6l0,0
				c0-0.3,0.2-0.6,0.3-0.8c0.1-0.2,0.3-0.4,0.5-0.7C51.4,34.3,51.8,33.8,52.2,33.4L52.2,33.4z"/>
		</g>
		<g>
			<path class="st1" d="M53.8,33.4c-0.4,0.7-0.7,1.4-1.1,2.1c-0.2,0.4-0.4,0.7-0.6,1c-0.3,0.3-0.5,0.6-0.8,0.9l0,0
				c0.1-0.4,0.3-0.8,0.4-1.1c0.2-0.4,0.4-0.7,0.7-1C52.8,34.6,53.2,34,53.8,33.4L53.8,33.4z"/>
		</g>
		<g>
			<path class="st1" d="M54.7,34.3c-0.4,0.8-0.8,1.6-1.3,2.3c-0.2,0.4-0.4,0.8-0.7,1.1c-0.3,0.3-0.5,0.7-0.9,1l0,0
				c0.1-0.4,0.3-0.8,0.5-1.2c0.2-0.4,0.5-0.7,0.7-1.1C53.6,35.6,54.1,34.9,54.7,34.3L54.7,34.3z"/>
		</g>
		<g>
			<path class="st1" d="M54.8,35.7c-0.2,0.6-0.4,1.1-0.6,1.7c-0.1,0.3-0.2,0.6-0.4,0.8c-0.2,0.2-0.3,0.5-0.6,0.7l0,0
				c0-0.3,0.1-0.6,0.2-0.9c0.1-0.3,0.3-0.5,0.4-0.8C54.1,36.7,54.4,36.2,54.8,35.7L54.8,35.7z"/>
		</g>
		<g>
			<path class="st1" d="M54.7,38.4c-0.2,0.6-0.4,1.2-0.6,1.8c-0.1,0.3-0.2,0.6-0.3,0.9c-0.2,0.3-0.3,0.5-0.6,0.8l0,0
				c0-0.3,0.1-0.6,0.2-1c0.1-0.3,0.3-0.6,0.4-0.8C54,39.5,54.3,38.9,54.7,38.4L54.7,38.4z"/>
		</g>
		<g>
			<path class="st1" d="M54.6,41.4c-0.2,0.5-0.5,1-0.7,1.6c-0.1,0.3-0.2,0.5-0.4,0.8c-0.2,0.2-0.4,0.5-0.6,0.6l0,0
				c0-0.3,0.1-0.6,0.3-0.9c0.1-0.3,0.3-0.5,0.5-0.7C53.8,42.3,54.2,41.9,54.6,41.4L54.6,41.4z"/>
		</g>
		<g>
			<path class="st1" d="M54.2,44c-0.1,0.4-0.3,0.8-0.4,1.1c-0.1,0.2-0.1,0.4-0.2,0.6c-0.1,0.2-0.3,0.3-0.5,0.4l0,0
				c0-0.2,0-0.4,0.1-0.6c0.1-0.2,0.2-0.3,0.3-0.5C53.6,44.6,53.9,44.3,54.2,44L54.2,44z"/>
		</g>
		<g>
			<path class="st1" d="M54.1,46.1c-0.2,0.5-0.4,1.1-0.6,1.6c-0.1,0.3-0.2,0.6-0.3,0.8c-0.2,0.2-0.3,0.5-0.6,0.7l0,0
				c0-0.3,0.1-0.6,0.2-0.9c0.1-0.3,0.3-0.5,0.4-0.8C53.5,47,53.8,46.5,54.1,46.1L54.1,46.1z"/>
		</g>
		<g>
			<path class="st1" d="M54.3,48.3c-0.1,0.5-0.3,1-0.4,1.5c-0.1,0.2-0.2,0.5-0.3,0.7c-0.2,0.2-0.3,0.4-0.6,0.6l0,0
				c0-0.3,0.1-0.5,0.2-0.8c0.1-0.2,0.3-0.4,0.4-0.7C53.8,49.2,54,48.7,54.3,48.3L54.3,48.3z"/>
		</g>
		<g>
			<path class="st1" d="M54.6,50.1c-0.1,0.5-0.3,1-0.4,1.5c-0.1,0.2-0.1,0.5-0.2,0.7c-0.1,0.2-0.3,0.4-0.5,0.6l0,0
				c0-0.3,0-0.5,0.1-0.8c0.1-0.2,0.2-0.5,0.3-0.7C54,50.9,54.2,50.5,54.6,50.1L54.6,50.1z"/>
		</g>
		<g>
			<path class="st1" d="M55,51.9c-0.1,0.4-0.2,0.8-0.3,1.2c-0.1,0.2-0.1,0.4-0.3,0.6c-0.2,0.2-0.3,0.3-0.5,0.4l0,0
				c0-0.3,0.1-0.4,0.2-0.6c0.1-0.2,0.2-0.3,0.3-0.5C54.5,52.6,54.7,52.2,55,51.9L55,51.9z"/>
		</g>
		<g>
			<path class="st1" d="M55,53.4c-0.2,0.3-0.4,0.7-0.6,1c-0.1,0.2-0.1,0.4-0.3,0.5c-0.1,0.1-0.3,0.3-0.5,0.4l0,0
				c0-0.2,0-0.4,0.1-0.6c0.1-0.2,0.2-0.3,0.4-0.5C54.4,53.9,54.7,53.6,55,53.4L55,53.4z"/>
		</g>
		<g>
			<path class="st1" d="M55.2,54.5c-0.3,0.7-0.6,1.4-0.9,2c-0.2,0.3-0.3,0.7-0.5,1c-0.2,0.3-0.5,0.6-0.8,0.8l0,0
				c0.1-0.4,0.3-0.7,0.4-1c0.2-0.3,0.4-0.6,0.6-0.9C54.3,55.7,54.7,55.1,55.2,54.5L55.2,54.5z"/>
		</g>
		<g>
			<path class="st1" d="M55.1,56.5c-0.2,0.6-0.4,1.1-0.7,1.6c-0.1,0.3-0.2,0.5-0.4,0.8c-0.2,0.2-0.4,0.4-0.7,0.6l0,0
				c0.1-0.3,0.2-0.6,0.3-0.8c0.1-0.3,0.3-0.5,0.5-0.7C54.4,57.5,54.7,57,55.1,56.5L55.1,56.5z"/>
		</g>
		<g>
			<path class="st1" d="M54.7,58.6c-0.1,0.4-0.3,0.8-0.4,1.2c-0.1,0.2-0.1,0.4-0.2,0.6c-0.1,0.2-0.3,0.3-0.5,0.5l0,0
				c0-0.2,0-0.5,0.1-0.7c0.1-0.2,0.2-0.4,0.3-0.5C54.2,59.3,54.4,59,54.7,58.6L54.7,58.6z"/>
		</g>
		<g>
			<path class="st1" d="M33.6,34.5c-0.2,0-0.3,0.2-0.4,0.4c-0.1,0.2-0.2,0.4-0.3,0.6c-0.1,0.2-0.1,0.5-0.3,0.7
				c-0.1,0.2-0.2,0.4-0.5,0.6l0,0c-0.1-0.3,0-0.5,0-0.8c0.1-0.2,0.2-0.4,0.4-0.7c0.1-0.2,0.3-0.4,0.4-0.6
				C33.1,34.7,33.3,34.3,33.6,34.5L33.6,34.5z"/>
		</g>
		<g>
			<path class="st1" d="M35.1,34.7c-0.3,0.5-0.6,1-0.9,1.4c-0.1,0.2-0.2,0.5-0.4,0.7c-0.2,0.2-0.3,0.4-0.6,0.6l0,0
				c0-0.3,0.1-0.6,0.2-0.8c0.1-0.3,0.3-0.5,0.5-0.7C34.2,35.4,34.6,35,35.1,34.7L35.1,34.7z"/>
		</g>
		<g>
			<path class="st1" d="M36.7,34.4c-0.4,0-0.5,0.5-0.7,0.8l-0.6,1c-0.2,0.3-0.4,0.7-0.6,1c-0.3,0.3-0.5,0.6-0.8,0.8l0,0
				c0.1-0.4,0.3-0.7,0.5-1.1c0.2-0.3,0.5-0.6,0.7-0.9l0.7-0.9l0.4-0.4C36.3,34.5,36.5,34.3,36.7,34.4L36.7,34.4z"/>
		</g>
		<g>
			<path class="st1" d="M37.4,34.9c-0.2,0.5-0.5,1-0.7,1.5c-0.1,0.2-0.2,0.5-0.4,0.7c-0.2,0.2-0.4,0.4-0.6,0.6l0,0
				c0-0.3,0.1-0.5,0.2-0.8c0.1-0.2,0.3-0.4,0.5-0.7C36.7,35.7,37,35.3,37.4,34.9L37.4,34.9z"/>
		</g>
		<g>
			<path class="st1" d="M38.4,35c-0.3,0.4-0.6,0.9-0.9,1.4c-0.1,0.2-0.2,0.5-0.3,0.7c-0.1,0.2-0.3,0.5-0.5,0.7l0,0
				c-0.1-0.3,0-0.6,0.1-0.9c0.1-0.3,0.3-0.5,0.4-0.7C37.5,35.7,37.9,35.3,38.4,35L38.4,35z"/>
		</g>
		<g>
			<path class="st1" d="M38.6,36.1c0,0.3-0.1,0.6-0.2,0.9c0,0.2,0,0.3-0.1,0.4c-0.1,0.1-0.2,0.3-0.4,0.3l0,0c-0.1-0.2-0.1-0.3,0-0.5
				c0-0.2,0.1-0.3,0.2-0.4C38.2,36.6,38.4,36.4,38.6,36.1L38.6,36.1z"/>
		</g>
		<g>
			<path class="st1" d="M45.3,42.5c-0.3,0.3-0.6,0.5-0.8,0.8c-0.1,0.2-0.2,0.3-0.3,0.4c-0.2,0.1-0.3,0.2-0.5,0.3l0,0
				c0-0.2,0.1-0.4,0.2-0.6c0.1-0.2,0.3-0.3,0.5-0.4C44.5,42.8,44.9,42.6,45.3,42.5L45.3,42.5z"/>
		</g>
		<g>
			<path class="st1" d="M46.6,42.6c-0.2,0.4-0.3,0.7-0.5,1.1c-0.1,0.2-0.1,0.4-0.3,0.5c-0.1,0.1-0.3,0.3-0.5,0.4l0,0
				c0-0.2,0.1-0.4,0.1-0.6c0.1-0.2,0.2-0.3,0.4-0.5C46,43.1,46.3,42.8,46.6,42.6L46.6,42.6z"/>
		</g>
		<g>
			<path class="st1" d="M48.1,43.3c-0.1,0.3-0.3,0.6-0.5,0.9c-0.1,0.2-0.1,0.3-0.3,0.5c-0.1,0.1-0.3,0.2-0.5,0.3l0,0
				c0-0.2,0.1-0.4,0.1-0.6c0.1-0.2,0.2-0.3,0.3-0.4C47.5,43.7,47.8,43.5,48.1,43.3L48.1,43.3z"/>
		</g>
		<g>
			<path class="st1" d="M49.7,43.2c-0.3,0.3-0.5,0.7-0.7,1c-0.1,0.2-0.2,0.4-0.3,0.5c-0.2,0.1-0.3,0.3-0.5,0.4l0,0
				c0-0.3,0.1-0.5,0.1-0.7c0.1-0.2,0.3-0.3,0.4-0.5C48.9,43.7,49.3,43.4,49.7,43.2L49.7,43.2z"/>
		</g>
		<g>
			<path class="st1" d="M51.5,43.1c-0.2,0.4-0.4,0.7-0.6,1.1c-0.1,0.2-0.2,0.4-0.3,0.5c-0.2,0.1-0.3,0.3-0.6,0.3l0,0
				c0-0.3,0.1-0.4,0.2-0.6c0.1-0.2,0.3-0.3,0.4-0.4C50.8,43.6,51.1,43.3,51.5,43.1L51.5,43.1z"/>
		</g>
		<g>
			<path class="st1" d="M51.9,43.7c0,0.3,0,0.5-0.1,0.8c0,0.1-0.1,0.3-0.2,0.4c-0.1,0.1-0.2,0.2-0.4,0.2l0,0c0-0.2,0-0.3,0-0.4
				c0-0.1,0.1-0.2,0.2-0.3C51.6,44.1,51.7,43.9,51.9,43.7L51.9,43.7z"/>
		</g>
		<g>
			<path class="st1" d="M88.1,50.1c-0.2,0.7-0.4,1.4-0.7,2.1c-0.1,0.3-0.3,0.7-0.5,1c-0.2,0.3-0.4,0.6-0.7,0.9l0,0
				c0.1-0.4,0.2-0.7,0.3-1.1c0.1-0.3,0.4-0.6,0.5-1C87.4,51.4,87.7,50.7,88.1,50.1L88.1,50.1z"/>
		</g>
		<g>
			<path class="st1" d="M87.3,48.2c-0.7,1.6-1.4,3.1-2.1,4.7c-0.4,0.8-0.7,1.6-1.1,2.3c-0.4,0.7-0.8,1.5-1.3,2.2l0,0
				c0.2-0.8,0.6-1.6,0.9-2.4c0.3-0.8,0.8-1.5,1.2-2.3C85.6,51.2,86.4,49.7,87.3,48.2L87.3,48.2z"/>
		</g>
		<g>
			<path class="st1" d="M86.6,47.3c-0.9,1.5-1.7,3-2.5,4.6c-0.4,0.8-0.7,1.6-1.1,2.4c-0.4,0.8-0.8,1.6-1.2,2.3l0,0
				c0.2-0.9,0.5-1.7,0.8-2.5c0.3-0.8,0.8-1.6,1.2-2.3C84.6,50.2,85.5,48.7,86.6,47.3L86.6,47.3z"/>
		</g>
		<g>
			<path class="st1" d="M88.6,32.2c-0.2,0.6-0.3,1.2-0.5,1.7c-0.1,0.3-0.2,0.6-0.3,0.9c-0.2,0.3-0.3,0.5-0.6,0.7l0,0
				c0-0.3,0.1-0.6,0.1-0.9c0.1-0.3,0.3-0.5,0.4-0.8C87.9,33.2,88.2,32.7,88.6,32.2L88.6,32.2z"/>
		</g>
		<g>
			<path class="st1" d="M89.7,33.3c-0.4,0.9-0.8,1.7-1.2,2.5c-0.2,0.4-0.4,0.9-0.6,1.3c-0.3,0.4-0.5,0.8-0.9,1.1l0,0
				c0.1-0.5,0.3-0.9,0.5-1.3c0.2-0.4,0.5-0.8,0.7-1.2C88.6,34.9,89.2,34.1,89.7,33.3L89.7,33.3z"/>
		</g>
		<g>
			<path class="st1" d="M89.9,35.5c-0.5,0.9-0.9,1.9-1.4,2.8c-0.2,0.5-0.4,1-0.7,1.4c-0.3,0.4-0.6,0.9-1,1.3l0,0
				c0.1-0.5,0.4-1,0.6-1.5c0.2-0.5,0.5-0.9,0.8-1.3C88.7,37.2,89.2,36.3,89.9,35.5L89.9,35.5z"/>
		</g>
		<g>
			<path class="st1" d="M90.3,37.4c-0.3,0.6-0.5,1.2-0.8,1.8c-0.1,0.3-0.2,0.6-0.4,0.9c-0.2,0.3-0.4,0.5-0.7,0.8l0,0
				c0-0.4,0.2-0.7,0.3-1c0.1-0.3,0.3-0.6,0.5-0.9C89.5,38.5,89.9,38,90.3,37.4L90.3,37.4z"/>
		</g>
		<g>
			<path class="st1" d="M90.4,39.7c-0.1,0.3-0.1,0.5-0.2,0.8c0,0.1-0.1,0.3-0.2,0.4c-0.1,0.1-0.2,0.2-0.4,0.2l0,0
				c-0.1-0.2,0-0.3,0-0.5c0-0.1,0.2-0.2,0.2-0.3C90,40,90.2,39.8,90.4,39.7L90.4,39.7z"/>
		</g>
		<g>
			<path class="st1" d="M91.1,26.5c-0.4,0.4-0.7,0.9-0.9,1.4c-0.1,0.2-0.2,0.5-0.3,0.7c-0.2,0.2-0.3,0.5-0.5,0.7l0,0
				c-0.1-0.3,0-0.6,0.1-0.9c0.1-0.3,0.3-0.5,0.5-0.7C90.2,27.2,90.6,26.8,91.1,26.5L91.1,26.5z"/>
		</g>
		<g>
			<path class="st1" d="M92.6,26.9c-0.2,0.4-0.4,0.8-0.6,1.2c-0.1,0.2-0.2,0.4-0.3,0.6c-0.2,0.2-0.3,0.3-0.6,0.4l0,0
				c0-0.3,0.1-0.5,0.2-0.7c0.1-0.2,0.3-0.4,0.4-0.5C91.9,27.5,92.2,27.2,92.6,26.9L92.6,26.9z"/>
		</g>
		<g>
			<path class="st1" d="M93.7,27.1c-0.1,0.2-0.1,0.4-0.2,0.6c0,0.1-0.1,0.2-0.1,0.3c-0.1,0.1-0.2,0.1-0.4,0.1l0,0
				c-0.1-0.2,0-0.3,0-0.4c0-0.1,0.1-0.2,0.2-0.2C93.3,27.3,93.5,27.2,93.7,27.1L93.7,27.1z"/>
		</g>
		<g>
			<path class="st1" d="M95,27.3c0,0.2,0,0.3,0,0.4c0,0.1,0,0.2,0,0.2c-0.1,0-0.1,0.1-0.3,0.1l0,0c-0.1-0.1-0.1-0.2-0.1-0.3
				c0-0.1,0.1-0.1,0.1-0.2C94.7,27.4,94.8,27.3,95,27.3L95,27.3z"/>
		</g>
		<g>
			<path class="st1" d="M96.1,27.6c0,0.1,0,0.3,0,0.4c0,0.1,0,0.1,0,0.2c-0.1,0-0.1,0-0.3,0l0,0c-0.1-0.1-0.1-0.2-0.1-0.3
				c0-0.1,0.1-0.1,0.1-0.1C95.8,27.7,95.9,27.7,96.1,27.6L96.1,27.6z"/>
		</g>
		<g>
			<path class="st1" d="M97.9,28c0,0.2-0.1,0.4-0.1,0.6c0,0.1,0,0.2-0.1,0.3c-0.1,0.1-0.2,0.1-0.3,0.2l0,0c-0.1-0.2-0.1-0.3-0.1-0.4
				c0-0.1,0.1-0.2,0.2-0.3C97.6,28.3,97.7,28.1,97.9,28L97.9,28z"/>
		</g>
		<g>
			<path class="st1" d="M93.2,14.9l-3.1,6.4c-0.5,1.1-1,2.2-1.6,3.2c-0.6,1-1.2,2.1-1.8,3.1l0,0c0.4-1.1,0.9-2.2,1.4-3.3
				c0.5-1.1,1.1-2.1,1.7-3.2L93.2,14.9L93.2,14.9z"/>
		</g>
		<g>
			<path class="st1" d="M92.7,19.1c-0.7,1.3-1.3,2.6-2,3.9c-0.3,0.6-0.6,1.3-1,1.9c-0.4,0.6-0.8,1.2-1.3,1.8l0,0
				c0.2-0.7,0.6-1.4,0.9-2c0.3-0.6,0.7-1.3,1.1-1.9C91.1,21.5,91.8,20.3,92.7,19.1L92.7,19.1z"/>
		</g>
		<g>
			<path class="st1" d="M92.8,21.2c-0.5,1-1,1.9-1.5,2.8c-0.2,0.5-0.5,1-0.8,1.4c-0.3,0.4-0.6,0.9-1,1.3l0,0c0.1-0.5,0.4-1,0.6-1.5
				c0.2-0.5,0.6-0.9,0.9-1.3C91.5,23,92.1,22.1,92.8,21.2L92.8,21.2z"/>
		</g>
		<g>
			<path class="st1" d="M93.5,22.9c-0.3,0.5-0.5,1-0.7,1.6c-0.1,0.3-0.1,0.5-0.3,0.8c-0.1,0.3-0.2,0.5-0.5,0.8l0,0
				c-0.1-0.3,0-0.6,0-0.9c0.1-0.3,0.2-0.5,0.4-0.8C92.7,23.8,93.1,23.3,93.5,22.9L93.5,22.9z"/>
		</g>
		<g>
			<path class="st1" d="M94.8,24.3c-0.2,0.4-0.4,0.8-0.5,1.2c-0.1,0.2-0.1,0.4-0.2,0.6c-0.1,0.2-0.2,0.4-0.4,0.5l0,0
				c-0.1-0.3,0-0.5,0-0.7c0.1-0.2,0.2-0.4,0.3-0.6C94.2,25,94.4,24.6,94.8,24.3L94.8,24.3z"/>
		</g>
		<g>
			<path class="st1" d="M69.2,33.1c-0.2,0.2-0.3,0.4-0.4,0.7c-0.1,0.1-0.1,0.2-0.2,0.3c-0.1,0.1-0.2,0.2-0.4,0.3l0,0
				c-0.1-0.2-0.1-0.3,0-0.5c0-0.1,0.2-0.2,0.3-0.3C68.7,33.3,69,33.2,69.2,33.1L69.2,33.1z"/>
		</g>
		<g>
			<path class="st1" d="M71.1,32.5c-0.1,0.3-0.2,0.6-0.4,0.8c-0.1,0.1-0.1,0.3-0.2,0.4C70.3,33.9,70.2,34,70,34l0,0
				c0-0.2,0-0.4,0.1-0.5c0.1-0.1,0.2-0.2,0.3-0.3C70.6,32.9,70.8,32.7,71.1,32.5L71.1,32.5z"/>
		</g>
		<g>
			<path class="st1" d="M73.1,32.9c-0.2,0.4-0.5,0.7-0.7,1.1c-0.1,0.2-0.2,0.4-0.3,0.6c-0.1,0.2-0.3,0.3-0.5,0.5l0,0
				c0-0.3,0-0.5,0.1-0.7c0.1-0.2,0.3-0.4,0.4-0.6C72.4,33.5,72.7,33.2,73.1,32.9L73.1,32.9z"/>
		</g>
		<g>
			<path class="st1" d="M74.9,33.1c-0.2,0.3-0.4,0.7-0.6,1c-0.1,0.2-0.2,0.4-0.3,0.5c-0.1,0.1-0.3,0.3-0.5,0.4l0,0
				c0-0.2,0-0.4,0.1-0.6c0.1-0.2,0.2-0.3,0.4-0.5C74.2,33.5,74.5,33.3,74.9,33.1L74.9,33.1z"/>
		</g>
		<g>
			<path class="st1" d="M69.4,43.3c-0.3,0.2-0.6,0.5-0.8,0.8c-0.1,0.1-0.2,0.3-0.3,0.4c-0.1,0.1-0.3,0.2-0.5,0.3l0,0
				c0-0.2,0.1-0.4,0.1-0.6c0.1-0.2,0.3-0.3,0.4-0.4C68.7,43.5,69,43.3,69.4,43.3L69.4,43.3z"/>
		</g>
		<g>
			<path class="st1" d="M71.8,42.8c-0.3,0.2-0.5,0.5-0.7,0.7c-0.1,0.1-0.1,0.3-0.2,0.4c-0.1,0.1-0.2,0.2-0.4,0.3l0,0
				c-0.1-0.2,0-0.4,0-0.6c0.1-0.2,0.2-0.3,0.4-0.4C71.1,43,71.4,42.8,71.8,42.8L71.8,42.8z"/>
		</g>
		<g>
			<path class="st1" d="M73.8,42.4c-0.2,0.3-0.4,0.6-0.6,0.9c-0.1,0.1-0.2,0.3-0.3,0.4c-0.2,0.1-0.3,0.2-0.5,0.2l0,0
				c0-0.2,0.1-0.4,0.2-0.5c0.1-0.1,0.3-0.2,0.4-0.3C73.2,42.8,73.5,42.6,73.8,42.4L73.8,42.4z"/>
		</g>
		<g>
			<path class="st1" d="M74.9,42.7c-0.1,0.2-0.1,0.4-0.2,0.6c0,0.1,0,0.2-0.1,0.3c-0.1,0.1-0.2,0.1-0.4,0.2l0,0
				c-0.1-0.2,0-0.3,0-0.4c0-0.1,0.1-0.2,0.2-0.2C74.5,43,74.7,42.9,74.9,42.7L74.9,42.7z"/>
		</g>
		<g>
			<path class="st1" d="M76.4,43c-0.1,0.2-0.2,0.3-0.2,0.5c0,0.1-0.1,0.2-0.1,0.2c-0.1,0-0.2,0.1-0.3,0l0,0c0-0.2,0-0.2,0-0.3
				c0-0.1,0.1-0.1,0.2-0.1C76,43.1,76.2,43,76.4,43L76.4,43z"/>
		</g>
		<g>
			<path class="st1" d="M40.8,23.9c-0.3,1.3-0.5,2.6-0.8,3.9c-0.1,0.6-0.2,1.3-0.4,1.9c-0.2,0.6-0.4,1.3-0.7,1.9l0,0
				c0-0.7,0.2-1.3,0.3-2c0.1-0.6,0.4-1.3,0.5-1.9C40,26.4,40.4,25.2,40.8,23.9L40.8,23.9z"/>
		</g>
		<g>
			<path class="st1" d="M42.1,27.7c-0.6,1.5-1.2,3.1-1.8,4.6c-0.3,0.8-0.5,1.6-0.8,2.3c-0.3,0.8-0.6,1.5-1.1,2.2l0,0
				c0.1-0.8,0.4-1.6,0.6-2.4c0.3-0.8,0.6-1.5,0.9-2.3C40.6,30.7,41.3,29.2,42.1,27.7L42.1,27.7z"/>
		</g>
		<g>
			<path class="st1" d="M41.4,33.5c-0.3,0.8-0.6,1.7-0.9,2.5c-0.1,0.4-0.3,0.8-0.5,1.2c-0.2,0.4-0.4,0.8-0.7,1.1l0,0
				c0-0.5,0.2-0.9,0.3-1.3c0.1-0.4,0.4-0.8,0.6-1.2C40.5,35,40.9,34.2,41.4,33.5L41.4,33.5z"/>
		</g>
		<g>
			<path class="st1" d="M43.1,35.6c-0.2,0.4-0.4,0.8-0.5,1.2c0,0.2,0,0.4-0.1,0.6c-0.1,0.2-0.1,0.4-0.3,0.6l0,0
				C42,37.8,42,37.6,42,37.3c0-0.2,0.1-0.5,0.2-0.7C42.4,36.2,42.7,35.9,43.1,35.6L43.1,35.6z"/>
		</g>
		<g>
			<path class="st1" d="M45.5,35.1c-0.2,0.6-0.4,1.2-0.6,1.7c-0.1,0.3-0.1,0.6-0.3,0.9c-0.1,0.3-0.3,0.5-0.5,0.8l0,0
				c-0.1-0.3,0-0.6,0.1-0.9c0.1-0.3,0.2-0.6,0.4-0.9C44.8,36.2,45.1,35.6,45.5,35.1L45.5,35.1z"/>
		</g>
		<g>
			<path class="st1" d="M52.9,28c-0.3,0.7-0.5,1.4-0.7,2.1c-0.1,0.3-0.2,0.7-0.3,1c-0.2,0.3-0.3,0.7-0.5,1l0,0c0-0.4,0-0.8,0.1-1.1
				c0.1-0.4,0.3-0.7,0.4-1C52.1,29.2,52.4,28.6,52.9,28L52.9,28z"/>
		</g>
		<g>
			<path class="st1" d="M54.1,28.7c-0.3,0.7-0.6,1.5-0.8,2.3c-0.1,0.4-0.2,0.8-0.3,1.2c-0.2,0.4-0.3,0.8-0.5,1.1l0,0
				c-0.1-0.4,0-0.8,0.1-1.2c0.1-0.4,0.3-0.8,0.4-1.2C53.2,30.1,53.6,29.3,54.1,28.7L54.1,28.7z"/>
		</g>
		<g>
			<path class="st1" d="M56.1,26.8c-0.2,0.8-0.4,1.5-0.6,2.3c-0.1,0.4-0.2,0.8-0.3,1.1c-0.2,0.4-0.3,0.7-0.6,1.1l0,0
				c0-0.4,0.1-0.8,0.2-1.2c0.1-0.4,0.3-0.7,0.4-1.1C55.4,28.3,55.7,27.5,56.1,26.8L56.1,26.8z"/>
		</g>
		<g>
			<path class="st1" d="M59.6,21.1c-0.1,0.7-0.2,1.3-0.3,2c0,0.3-0.1,0.7-0.2,1c-0.1,0.3-0.2,0.6-0.4,0.9l0,0c-0.1-0.4,0-0.7,0-1
				c0-0.3,0.2-0.6,0.3-0.9C59.1,22.3,59.4,21.7,59.6,21.1L59.6,21.1z"/>
		</g>
		<g>
			<path class="st1" d="M60.6,23.5c-0.1,0.6-0.1,1.1-0.2,1.7c0,0.3-0.1,0.6-0.2,0.8c-0.1,0.3-0.2,0.5-0.4,0.8l0,0
				c-0.1-0.3,0-0.6,0-0.9c0-0.3,0.2-0.5,0.3-0.8C60.2,24.5,60.4,24,60.6,23.5L60.6,23.5z"/>
		</g>
		<g>
			<path class="st1" d="M61.6,25.1c0,0.4,0,0.7,0,1.1c0,0.2,0,0.4,0,0.5c-0.1,0.2-0.1,0.3-0.3,0.5l0,0c-0.1-0.2-0.1-0.4-0.2-0.6
				c0-0.2,0.1-0.4,0.1-0.5C61.3,25.8,61.4,25.5,61.6,25.1L61.6,25.1z"/>
		</g>
		<g>
			<path class="st1" d="M62.5,27.5c0,0.3,0,0.7-0.1,1c0,0.2,0,0.3-0.1,0.5c-0.1,0.1-0.2,0.3-0.3,0.4l0,0c-0.1-0.2-0.1-0.4-0.1-0.5
				c0-0.2,0.1-0.3,0.2-0.5C62.2,28.1,62.3,27.8,62.5,27.5L62.5,27.5z"/>
		</g>
		<g>
			<path class="st1" d="M63.5,28.5c0,0.3,0,0.5,0,0.7c0,0.1,0,0.3,0,0.4c-0.1,0.1-0.1,0.2-0.3,0.3l0,0c-0.1-0.1-0.1-0.3-0.2-0.4
				c0-0.1,0.1-0.2,0.1-0.3C63.2,28.9,63.3,28.7,63.5,28.5L63.5,28.5z"/>
		</g>
		<g>
			<path class="st1" d="M65.3,55.6c-0.1,0.8-0.2,1.5-0.4,2.3c-0.1,0.4-0.2,0.8-0.4,1.1c-0.2,0.3-0.4,0.7-0.7,1l0,0
				c0-0.4,0.2-0.8,0.3-1.1c0.1-0.4,0.3-0.7,0.4-1C64.7,57,65,56.3,65.3,55.6L65.3,55.6z"/>
		</g>
		<g>
			<path class="st1" d="M66.4,56.4c-0.2,0.8-0.4,1.5-0.6,2.3c-0.1,0.4-0.2,0.8-0.3,1.1c-0.2,0.4-0.3,0.7-0.6,1l0,0
				c0-0.4,0.1-0.8,0.2-1.2c0.1-0.4,0.3-0.7,0.4-1.1C65.8,57.8,66.1,57.1,66.4,56.4L66.4,56.4z"/>
		</g>
		<g>
			<path class="st1" d="M67.8,57.1c-0.1,0.5-0.2,0.9-0.3,1.4c0,0.2-0.1,0.5-0.2,0.7c-0.1,0.2-0.2,0.4-0.4,0.6l0,0
				c-0.1-0.3,0-0.5,0-0.7c0-0.2,0.2-0.4,0.3-0.6C67.3,57.9,67.5,57.5,67.8,57.1L67.8,57.1z"/>
		</g>
		<g>
			<path class="st1" d="M68.9,58.4c-0.1,0.2-0.1,0.4,0,0.5c0,0.1,0.1,0.2,0,0.2c0,0.1-0.1,0.2-0.2,0.3l0,0c-0.2-0.1-0.2-0.2-0.3-0.3
				c0-0.1,0-0.2,0.1-0.3C68.5,58.7,68.7,58.5,68.9,58.4L68.9,58.4z"/>
		</g>
		<g>
			<path class="st1" d="M70.2,59.1c0,0.3,0,0.6,0,0.9c0,0.1,0,0.3,0,0.4c-0.1,0.1-0.1,0.3-0.3,0.4l0,0c-0.1-0.2-0.1-0.3-0.2-0.5
				c0-0.2,0.1-0.3,0.1-0.4C70,59.6,70.1,59.3,70.2,59.1L70.2,59.1z"/>
		</g>
		<g>
			<path class="st1" d="M71.8,60.6c0.1,0.4,0.1,0.8,0.2,1.2c0,0.2,0.1,0.4,0,0.6c0,0.2-0.1,0.4-0.2,0.6h0c-0.1-0.2-0.2-0.4-0.2-0.6
				c0-0.2,0-0.4,0-0.6C71.6,61.4,71.6,61,71.8,60.6L71.8,60.6z"/>
		</g>
		<g>
			<path class="st1" d="M89,58.6c-0.1,0.6-0.3,1.2-0.5,1.8c-0.1,0.3-0.1,0.6-0.3,0.9c-0.1,0.3-0.3,0.6-0.5,0.8l0,0
				c0-0.3,0-0.6,0.1-1c0.1-0.3,0.2-0.6,0.4-0.9C88.4,59.7,88.7,59.2,89,58.6L89,58.6z"/>
		</g>
		<g>
			<path class="st1" d="M90.6,59.5c-0.2,0.7-0.4,1.3-0.5,2c-0.1,0.3-0.1,0.7-0.2,1c-0.1,0.3-0.2,0.6-0.4,0.9l0,0
				c-0.1-0.4,0-0.7,0-1.1c0.1-0.3,0.2-0.7,0.3-1C90,60.7,90.2,60.1,90.6,59.5L90.6,59.5z"/>
		</g>
		<g>
			<path class="st1" d="M92.6,59.1c-0.1,0.6-0.2,1.1-0.4,1.7c-0.1,0.3-0.1,0.6-0.2,0.8c-0.1,0.3-0.3,0.5-0.5,0.8l0,0
				c0-0.3,0-0.6,0.1-0.9c0.1-0.3,0.2-0.5,0.3-0.8C92,60.1,92.3,59.6,92.6,59.1L92.6,59.1z"/>
		</g>
		<g>
			<path class="st1" d="M93.9,59.1c0,0.5-0.1,0.9-0.2,1.4c0,0.2,0,0.5-0.1,0.7c-0.1,0.2-0.2,0.4-0.4,0.6l0,0
				c-0.1-0.3-0.1-0.5-0.1-0.7c0-0.2,0.1-0.4,0.2-0.6C93.5,59.9,93.7,59.5,93.9,59.1L93.9,59.1z"/>
		</g>
		<g>
			<path class="st1" d="M37.7,56c-0.1,0.5-0.2,1.1-0.3,1.6c0,0.3-0.1,0.5-0.2,0.8c-0.1,0.2-0.2,0.5-0.4,0.7l0,0
				c-0.1-0.3,0-0.6,0-0.8c0-0.3,0.2-0.5,0.3-0.8C37.3,57,37.5,56.5,37.7,56L37.7,56z"/>
		</g>
		<g>
			<path class="st1" d="M39.3,56.4c0,0.5-0.1,1-0.2,1.5c0,0.2,0,0.5-0.1,0.7c-0.1,0.2-0.2,0.5-0.4,0.7l0,0c-0.1-0.3-0.1-0.5,0-0.8
				c0-0.2,0.1-0.5,0.2-0.7C38.9,57.4,39.1,56.9,39.3,56.4L39.3,56.4z"/>
		</g>
		<g>
			<path class="st1" d="M40.7,57.5c0,0.4,0,0.8-0.1,1.1c0,0.2,0,0.4-0.1,0.6c-0.1,0.2-0.2,0.3-0.3,0.5l0,0c-0.1-0.2-0.1-0.4-0.1-0.6
				c0-0.2,0.1-0.4,0.2-0.5C40.3,58.2,40.5,57.9,40.7,57.5L40.7,57.5z"/>
		</g>
		<g>
			<path class="st1" d="M45.9,50.5c-0.1,0.5-0.3,0.9-0.3,1.4c0,0.2,0,0.5-0.1,0.7c-0.1,0.2-0.1,0.5-0.3,0.7l0,0
				C45,53.1,45,52.9,45,52.6c0-0.3,0.1-0.5,0.2-0.7C45.4,51.4,45.6,50.9,45.9,50.5L45.9,50.5z"/>
		</g>
		<g>
			<path class="st1" d="M47,50.5c-0.1,0.5-0.1,1-0.2,1.6c0,0.3,0,0.5-0.1,0.8c-0.1,0.2-0.2,0.5-0.4,0.7l0,0c-0.1-0.3-0.1-0.6,0-0.8
				c0-0.3,0.1-0.5,0.2-0.7C46.6,51.5,46.8,51,47,50.5L47,50.5z"/>
		</g>
		<g>
			<path class="st1" d="M48.7,51.2c0,0.4-0.1,0.8-0.2,1.1c0,0.2,0,0.4-0.1,0.6c-0.1,0.2-0.2,0.3-0.4,0.5l0,0
				c-0.1-0.2-0.1-0.4-0.1-0.6c0-0.2,0.1-0.4,0.2-0.5C48.3,51.9,48.5,51.5,48.7,51.2L48.7,51.2z"/>
		</g>
		<g>
			<path class="st1" d="M48.6,58.2c0,0.4-0.1,0.8-0.2,1.2c0,0.2,0,0.4-0.1,0.6c-0.1,0.2-0.2,0.4-0.4,0.5l0,0c-0.1-0.2-0.1-0.4,0-0.7
				c0-0.2,0.1-0.4,0.2-0.6C48.2,59,48.3,58.6,48.6,58.2L48.6,58.2z"/>
		</g>
		<g>
			<path class="st1" d="M49.6,58.6c0,0.6-0.1,1.3-0.2,1.9c0,0.3,0,0.6-0.1,0.9c-0.1,0.3-0.2,0.6-0.4,0.9l0,0c-0.1-0.3-0.1-0.7,0-1
				c0-0.3,0.1-0.6,0.2-0.9C49.2,59.8,49.4,59.2,49.6,58.6L49.6,58.6z"/>
		</g>
		<g>
			<path class="st1" d="M50.9,59.3c0,0.3,0,0.5,0,0.8c0,0.1,0,0.3,0,0.4c-0.1,0.1-0.1,0.2-0.3,0.3l0,0c-0.1-0.2-0.1-0.3-0.1-0.4
				c0-0.1,0.1-0.3,0.1-0.4C50.6,59.8,50.7,59.5,50.9,59.3L50.9,59.3z"/>
		</g>
		<g>
			<path class="st1" d="M52.3,59.3c0,0.3,0,0.7,0,1c0,0.2,0,0.3-0.1,0.5c-0.1,0.2-0.2,0.3-0.3,0.4l0,0c-0.1-0.2-0.1-0.4-0.1-0.5
				c0-0.2,0.1-0.3,0.2-0.5C51.9,59.9,52.1,59.6,52.3,59.3L52.3,59.3z"/>
		</g>
		<g>
			<path class="st1" d="M24.6,52.5c-0.2,0.7-0.5,1.4-0.7,2.1c-0.1,0.3-0.2,0.7-0.4,1c-0.2,0.3-0.4,0.6-0.6,0.9l0,0
				c0-0.4,0.1-0.7,0.2-1.1c0.1-0.3,0.3-0.7,0.5-1C23.9,53.7,24.2,53.1,24.6,52.5L24.6,52.5z"/>
		</g>
		<g>
			<path class="st1" d="M26.4,53c-0.3,0.8-0.6,1.6-1,2.4c-0.2,0.4-0.3,0.8-0.5,1.2c-0.2,0.4-0.5,0.7-0.8,1l0,0
				c0.1-0.4,0.2-0.8,0.4-1.2c0.2-0.4,0.4-0.7,0.6-1.1C25.5,54.4,25.9,53.7,26.4,53L26.4,53z"/>
		</g>
		<g>
			<path class="st1" d="M15.4,59.5c-0.3,0.3-0.5,0.6-0.7,0.9c-0.1,0.2-0.1,0.4-0.2,0.5c-0.1,0.2-0.2,0.3-0.3,0.5l0,0
				C14,61.3,14,61,14,60.8c0-0.2,0.2-0.4,0.3-0.6C14.6,59.8,15,59.6,15.4,59.5L15.4,59.5z"/>
		</g>
		<g>
			<path class="st1" d="M16.7,58.8c-0.3,0.5-0.5,1-0.7,1.5c-0.1,0.3-0.2,0.5-0.3,0.8c-0.1,0.2-0.3,0.5-0.5,0.7l0,0
				c-0.1-0.3,0-0.6,0.1-0.9c0.1-0.3,0.2-0.5,0.4-0.8C15.9,59.7,16.3,59.2,16.7,58.8L16.7,58.8z"/>
		</g>
		<g>
			<path class="st1" d="M95.5,50.1c-0.2,0.2-0.4,0.4-0.5,0.6c0,0.1,0,0.2-0.1,0.3c-0.1,0.1-0.1,0.2-0.3,0.3l0,0
				c-0.1-0.1-0.1-0.3-0.1-0.5c0-0.2,0.2-0.3,0.3-0.4C94.9,50.3,95.2,50.1,95.5,50.1L95.5,50.1z"/>
		</g>
		<g>
			<path class="st1" d="M96,49.7c-0.1-0.1,0-0.2,0-0.2c0.1,0,0.1-0.1,0.2,0c0.2,0.1,0.2,0.3,0.1,0.5c-0.1,0.3-0.2,0.5-0.3,0.7
				c-0.1,0.2-0.1,0.5-0.3,0.7c-0.1,0.2-0.3,0.4-0.5,0.6l0,0c0-0.3,0.1-0.5,0.1-0.8c0.1-0.2,0.2-0.5,0.4-0.7c0.1-0.2,0.3-0.5,0.4-0.7
				c0.1-0.1,0.1-0.2,0-0.3C96.2,49.5,96,49.6,96,49.7L96,49.7z"/>
		</g>
		<g>
			<path class="st1" d="M97.6,49.9c-0.1,0.3-0.2,0.5-0.3,0.8c-0.1,0.1-0.1,0.3-0.2,0.4c-0.1,0.1-0.2,0.2-0.4,0.2l0,0
				c0-0.2,0-0.3,0-0.5c0.1-0.1,0.2-0.2,0.3-0.3C97.1,50.3,97.3,50.1,97.6,49.9L97.6,49.9z"/>
		</g>
		<g>
			<path class="st1" d="M102.2,56.9c-0.1,0.4-0.3,0.8-0.4,1.1c-0.1,0.2-0.1,0.4-0.2,0.6c-0.1,0.2-0.3,0.3-0.5,0.4l0,0
				c0-0.2,0-0.4,0.1-0.6c0.1-0.2,0.2-0.3,0.3-0.5C101.6,57.5,101.9,57.2,102.2,56.9L102.2,56.9z"/>
		</g>
		<g>
			<path class="st1" d="M102.9,57.3c0,0.3,0,0.6,0,0.9c0,0.1,0,0.3-0.1,0.4c-0.1,0.1-0.1,0.3-0.3,0.4l0,0c-0.1-0.2-0.1-0.3-0.1-0.5
				c0-0.1,0.1-0.3,0.2-0.4C102.6,57.8,102.7,57.6,102.9,57.3L102.9,57.3z"/>
		</g>
		<g>
			<path class="st1" d="M103.8,57.8c0,0.2,0,0.4-0.1,0.5c0,0.1,0,0.2-0.1,0.3c-0.1,0.1-0.1,0.1-0.3,0.1l0,0
				c-0.1-0.1-0.1-0.2-0.1-0.3c0-0.1,0.1-0.1,0.2-0.2C103.5,58,103.7,57.9,103.8,57.8L103.8,57.8z"/>
		</g>
		<g>
			<path class="st1" d="M41,16.8c0,0.4-0.1,0.7-0.1,1.1c0,0.2,0,0.4-0.1,0.5c-0.1,0.2-0.2,0.3-0.4,0.5l0,0c-0.1-0.2-0.1-0.4-0.1-0.6
				c0-0.2,0.1-0.3,0.2-0.5C40.7,17.5,40.8,17.1,41,16.8L41,16.8z"/>
		</g>
		<g>
			<path class="st1" d="M42.7,16.2c-0.2,0.5-0.4,1-0.5,1.5c-0.1,0.3-0.1,0.5-0.2,0.7c-0.1,0.2-0.2,0.5-0.4,0.7l0,0
				c-0.1-0.3-0.1-0.6-0.1-0.8c0-0.3,0.2-0.5,0.3-0.8C42,17,42.3,16.5,42.7,16.2L42.7,16.2z"/>
		</g>
		<g>
			<path class="st1" d="M43.5,16.8c-0.1,0.4-0.2,0.9-0.3,1.3c0,0.2-0.1,0.4-0.2,0.6c-0.1,0.2-0.2,0.4-0.4,0.6l0,0
				c-0.1-0.3,0-0.5,0-0.7c0-0.2,0.2-0.4,0.3-0.6C43,17.6,43.2,17.2,43.5,16.8L43.5,16.8z"/>
		</g>
		<g>
			<path class="st1" d="M45,17.2c-0.1,0.4-0.3,0.8-0.4,1.2c0,0.2-0.1,0.4-0.2,0.6c-0.1,0.2-0.2,0.4-0.4,0.5l0,0
				C44,19.3,44,19.1,44,18.8c0-0.2,0.2-0.4,0.3-0.6C44.5,17.9,44.7,17.5,45,17.2L45,17.2z"/>
		</g>
		<g>
			<path class="st1" d="M61.1,53.5c-0.1,0.6-0.1,1.2-0.2,1.8c0,0.3-0.1,0.6-0.1,0.9c-0.1,0.3-0.2,0.6-0.4,0.8l0,0
				c-0.1-0.3,0-0.6,0-0.9c0-0.3,0.2-0.6,0.2-0.9C60.7,54.7,60.9,54.1,61.1,53.5L61.1,53.5z"/>
		</g>
		<g>
			<path class="st1" d="M61.7,54.3c-0.1,0.8-0.3,1.7-0.4,2.5c-0.1,0.4-0.1,0.8-0.3,1.2c-0.1,0.4-0.3,0.8-0.5,1.2l0,0
				c0-0.4,0-0.9,0.1-1.3c0.1-0.4,0.2-0.8,0.4-1.2C61.1,55.9,61.4,55.1,61.7,54.3L61.7,54.3z"/>
		</g>
		<g>
			<path class="st1" d="M62.1,57c0,0.4-0.1,0.8-0.1,1.3c0,0.2,0,0.4-0.1,0.6c-0.1,0.2-0.2,0.4-0.4,0.6l0,0c-0.1-0.2-0.1-0.5-0.1-0.7
				c0-0.2,0.1-0.4,0.2-0.6C61.7,57.8,61.9,57.4,62.1,57L62.1,57z"/>
		</g>
		<g>
			<path class="st1" d="M87.8,27.8c0,0.3-0.1,0.6-0.2,0.9c0,0.2,0,0.3-0.1,0.4c-0.1,0.1-0.2,0.3-0.4,0.3l0,0C87,29.4,87,29.2,87,29
				c0-0.2,0.1-0.3,0.2-0.4C87.4,28.4,87.6,28.1,87.8,27.8L87.8,27.8z"/>
		</g>
		<g>
			<path class="st1" d="M88.9,27.7c-0.2,0.7-0.4,1.5-0.6,2.2c-0.1,0.4-0.2,0.7-0.3,1.1c-0.2,0.3-0.3,0.7-0.6,1l0,0
				c0-0.4,0.1-0.8,0.2-1.2c0.1-0.4,0.3-0.7,0.4-1.1C88.3,29,88.6,28.3,88.9,27.7L88.9,27.7z"/>
		</g>
		<g>
			<path class="st1" d="M64.5,21c0.2,0.2,0.4,0.3,0.7,0.4c0.1,0,0.2,0,0.4,0c0.1,0.1,0.2,0.1,0.4,0.2l0,0c-0.1,0.2-0.3,0.2-0.5,0.3
				c-0.2,0-0.3-0.1-0.5-0.2C64.7,21.6,64.5,21.3,64.5,21L64.5,21z"/>
		</g>
		<g>
			<path class="st1" d="M66.3,22.8c0.3,0.1,0.5,0.1,0.8,0.2c0.1,0,0.2,0,0.4,0c0.1,0,0.2,0.1,0.4,0.2l0,0c-0.1,0.2-0.3,0.2-0.4,0.3
				c-0.2,0-0.3,0-0.4-0.1C66.7,23.3,66.4,23.1,66.3,22.8L66.3,22.8z"/>
		</g>
		<g>
			<path class="st1" d="M64.4,24.6c0.4,0.2,0.7,0.2,1.1,0.2c0.2,0,0.4-0.1,0.5-0.1c0.2,0,0.4,0,0.6,0l0,0c-0.1,0.2-0.3,0.3-0.5,0.4
				c-0.2,0.1-0.4,0-0.6,0C65,25.1,64.6,24.9,64.4,24.6L64.4,24.6z"/>
		</g>
		<g>
			<path class="st1" d="M94.6,14.4c0.2,0.1,0.3,0.1,0.5,0.1c0.1,0,0.2-0.1,0.2,0c0.1,0,0.1,0.1,0.3,0.2l0,0c0,0.2-0.2,0.2-0.3,0.3
				c-0.1,0-0.2,0-0.4-0.1C94.8,14.8,94.7,14.7,94.6,14.4L94.6,14.4z"/>
		</g>
		<g>
			<path class="st1" d="M95.9,17.7c0.3,0.1,0.5,0.1,0.8,0c0.1,0,0.2-0.1,0.3-0.1c0.1,0,0.2,0,0.4,0.1l0,0c-0.1,0.2-0.2,0.3-0.3,0.4
				c-0.1,0.1-0.3,0-0.5,0C96.3,18,96,17.9,95.9,17.7L95.9,17.7z"/>
		</g>
		<g>
			<path class="st1" d="M94.8,19.1c0.2,0.2,0.4,0.2,0.6,0.2c0.1,0,0.2-0.1,0.3-0.1c0.1,0,0.2,0,0.4,0l0,0c0,0.2-0.1,0.3-0.2,0.4
				c-0.1,0.1-0.3,0-0.5,0C95,19.6,94.8,19.4,94.8,19.1L94.8,19.1z"/>
		</g>
		<g>
			<path class="st1" d="M98.6,22.8c0.1,0.2,0.2,0.3,0.4,0.3c0.1,0,0.1,0,0.2,0c0.1,0,0.1,0.1,0.3,0.2l0,0c0,0.2-0.2,0.3-0.3,0.3
				c-0.1,0-0.3-0.1-0.4-0.2C98.6,23.3,98.5,23.1,98.6,22.8L98.6,22.8z"/>
		</g>
		<g>
			<path class="st1" d="M46.1,7.4c0.2-0.1,0.4-0.2,0.6-0.2c0.1,0,0.2,0,0.3,0c0.1,0.1,0.2,0.2,0.2,0.3l0,0C47,7.6,47,7.6,46.9,7.6
				c-0.1,0-0.1-0.1-0.2-0.1C46.5,7.5,46.3,7.4,46.1,7.4L46.1,7.4z"/>
		</g>
		<g>
			<path class="st1" d="M45.5,8.7c0.1-0.1,0.3-0.1,0.4-0.2c0.1,0,0.1-0.1,0.2,0c0.1,0,0.1,0.1,0.2,0.2v0c-0.1,0.1-0.1,0.2-0.2,0.2
				c-0.1,0-0.1,0-0.2,0C45.7,8.9,45.6,8.8,45.5,8.7L45.5,8.7z"/>
		</g>
		<g>
			<path class="st1" d="M48,10.4c0.1-0.1,0.3-0.1,0.4-0.2c0.1,0,0.1-0.1,0.2,0c0.1,0,0.1,0.1,0.2,0.2v0c-0.1,0.1-0.1,0.2-0.2,0.2
				c-0.1,0-0.1,0-0.2,0C48.3,10.6,48.2,10.6,48,10.4L48,10.4z"/>
		</g>
		<g>
			<path class="st1" d="M46.6,12.3c0.1-0.2,0.2-0.3,0.4-0.3c0.1,0,0.2-0.1,0.3-0.1c0.1,0.1,0.2,0.1,0.2,0.3l0,0
				c-0.1,0.1-0.2,0.1-0.2,0.2c-0.1,0-0.1,0-0.2,0C47,12.3,46.8,12.3,46.6,12.3L46.6,12.3z"/>
		</g>
		<g>
			<path class="st1" d="M19.9,9.9c0,0.3,0.3,0.5,0.5,0.5c0.1,0,0.2-0.1,0.4-0.1c0.1,0,0.3,0,0.5,0.1l0,0c-0.1,0.2-0.2,0.3-0.4,0.4
				c-0.2,0.1-0.4,0-0.5,0c-0.2-0.1-0.3-0.2-0.4-0.4C19.8,10.2,19.8,10,19.9,9.9L19.9,9.9z"/>
		</g>
		<g>
			<path class="st1" d="M19.2,13.7c0.2,0.2,0.5,0.2,0.7,0.2c0.1,0,0.2-0.1,0.3-0.1c0.1,0,0.2,0,0.4,0.1l0,0c0,0.2-0.2,0.3-0.4,0.4
				c-0.2,0.1-0.3,0-0.5,0C19.6,14.2,19.3,14,19.2,13.7L19.2,13.7z"/>
		</g>
		<g>
			<path class="st1" d="M21.4,16.5c0.2,0.3,0.4,0.3,0.7,0.3c0.1,0,0.2-0.1,0.3-0.1c0.1,0,0.2,0,0.4-0.1l0,0c0,0.2-0.1,0.4-0.3,0.5
				c-0.2,0.1-0.4,0.1-0.5,0C21.6,17.1,21.3,16.8,21.4,16.5L21.4,16.5z"/>
		</g>
		<g>
			<path class="st1" d="M24.7,22.7c0.2,0.2,0.5,0.3,0.7,0.3c0.1,0,0.2-0.1,0.4-0.1c0.1,0,0.2,0,0.4-0.1l0,0c0,0.2-0.1,0.4-0.3,0.5
				c-0.2,0.1-0.4,0.1-0.6,0C25,23.3,24.7,23,24.7,22.7L24.7,22.7z"/>
		</g>
		<g>
			<path class="st1" d="M18.6,20.4c0.2,0.4,0.5,0.5,0.9,0.5c0.2,0,0.3-0.1,0.5-0.1c0.2,0,0.3-0.1,0.5-0.1l0,0c0,0.3-0.2,0.5-0.4,0.6
				c-0.2,0.1-0.5,0.1-0.7,0C19,21.3,18.6,20.9,18.6,20.4L18.6,20.4z"/>
		</g>
		<g>
			<path class="st1" d="M82.6,40.2c0.3-0.1,0.5-0.1,0.8-0.2c0.1,0,0.3-0.1,0.4-0.1c0.1,0,0.3,0.1,0.4,0.2v0
				c-0.1,0.1-0.3,0.2-0.4,0.2c-0.1,0-0.3,0-0.4,0C83.1,40.4,82.9,40.3,82.6,40.2L82.6,40.2z"/>
		</g>
		<g>
			<path class="st1" d="M81.6,41.6c0.3-0.1,0.5-0.1,0.8-0.2c0.1,0,0.3-0.1,0.4,0c0.1,0,0.3,0.1,0.4,0.2v0c-0.1,0.1-0.3,0.2-0.4,0.2
				c-0.1,0-0.3,0-0.4,0C82.1,41.7,81.8,41.7,81.6,41.6L81.6,41.6z"/>
		</g>
		<g>
			<path class="st1" d="M74.3,40.5c0.3,0,0.6-0.1,0.8-0.2c0.1,0,0.3-0.1,0.4-0.1c0.1,0,0.3,0,0.5,0.1l0,0c-0.1,0.2-0.2,0.3-0.4,0.3
				c-0.1,0.1-0.3,0-0.5,0C74.9,40.7,74.6,40.7,74.3,40.5L74.3,40.5z"/>
		</g>
		<g>
			<path class="st1" d="M72.6,39.3c0.3-0.1,0.6-0.1,0.9-0.2c0.1,0,0.3-0.1,0.4,0c0.1,0,0.3,0.1,0.4,0.2v0c-0.1,0.1-0.3,0.2-0.4,0.2
				c-0.1,0-0.3,0-0.4,0C73.2,39.5,72.9,39.4,72.6,39.3L72.6,39.3z"/>
		</g>
		<g>
			<path class="st1" d="M48.7,39.7c-0.4,0.2-0.8,0.4-1.1,0.7c-0.2,0.1-0.3,0.3-0.4,0.5c-0.2,0.1-0.3,0.3-0.6,0.4l0,0
				c0-0.3,0.1-0.5,0.2-0.7c0.1-0.2,0.4-0.3,0.6-0.4C47.8,39.9,48.3,39.7,48.7,39.7L48.7,39.7z"/>
		</g>
		<g>
			<path class="st1" d="M50.6,40c-0.3,0.2-0.6,0.4-0.9,0.6c-0.1,0.1-0.2,0.3-0.4,0.3c-0.2,0.1-0.3,0.1-0.6,0.2l0,0
				c0-0.2,0.2-0.4,0.3-0.5c0.1-0.1,0.3-0.2,0.5-0.3C49.9,40.1,50.2,40,50.6,40L50.6,40z"/>
		</g>
		<g>
			<path class="st1" d="M52,40.2c-0.3,0.3-0.6,0.6-0.8,0.8c-0.1,0.1-0.2,0.3-0.4,0.4c-0.2,0.1-0.3,0.2-0.5,0.3l0,0
				c0-0.2,0.1-0.4,0.2-0.6c0.1-0.2,0.3-0.3,0.5-0.4C51.2,40.5,51.6,40.3,52,40.2L52,40.2z"/>
		</g>
		<g>
			<path class="st1" d="M53,40.7c-0.2,0.3-0.4,0.6-0.6,0.9c-0.1,0.2-0.1,0.3-0.3,0.5c-0.1,0.1-0.3,0.3-0.5,0.4l0,0
				c0-0.2,0-0.4,0.1-0.6c0.1-0.2,0.2-0.3,0.4-0.4C52.4,41.1,52.6,40.9,53,40.7L53,40.7z"/>
		</g>
		<g>
			<path class="st1" d="M36.2,39.2c0.3-0.1,0.5-0.1,0.8-0.2c0.1,0,0.3-0.1,0.4,0c0.1,0,0.3,0.1,0.4,0.2v0c-0.1,0.1-0.3,0.2-0.4,0.2
				c-0.1,0-0.3,0-0.4,0C36.7,39.3,36.4,39.3,36.2,39.2L36.2,39.2z"/>
		</g>
		<g>
			<path class="st1" d="M39.8,39.8c0.4-0.1,0.8-0.1,1.2-0.2c0.2,0,0.4-0.1,0.6,0c0.2,0,0.4,0.1,0.6,0.2v0c-0.2,0.1-0.4,0.2-0.6,0.2
				c-0.2,0-0.4,0-0.6,0C40.6,40,40.2,40,39.8,39.8L39.8,39.8z"/>
		</g>
		<g>
			<path class="st1" d="M33.6,40.2c0.3-0.1,0.5-0.1,0.8-0.2c0.1,0,0.3-0.1,0.4-0.1c0.1,0,0.3,0.1,0.4,0.2v0
				c-0.1,0.1-0.3,0.2-0.4,0.2c-0.1,0-0.3,0-0.4,0C34.1,40.4,33.9,40.3,33.6,40.2L33.6,40.2z"/>
		</g>
		<g>
			<path class="st1" d="M36.5,26.9c0.2-0.1,0.4-0.1,0.6-0.2c0.1,0,0.2-0.1,0.3,0c0.1,0,0.2,0.1,0.3,0.2v0c-0.1,0.1-0.2,0.2-0.3,0.2
				c-0.1,0-0.2,0-0.3,0C36.9,27.1,36.7,27.1,36.5,26.9L36.5,26.9z"/>
		</g>
		<g>
			<path class="st1" d="M36.3,28.5c0.2-0.1,0.5-0.1,0.7-0.2c0.1,0,0.2-0.1,0.3,0c0.1,0,0.2,0.1,0.3,0.2v0c-0.1,0.1-0.2,0.2-0.3,0.2
				c-0.1,0-0.2,0-0.3,0C36.8,28.7,36.6,28.6,36.3,28.5L36.3,28.5z"/>
		</g>
		<g>
			<path class="st1" d="M35.7,30c0.4-0.1,0.7-0.1,1.1-0.2c0.2,0,0.4-0.1,0.6,0c0.2,0,0.4,0.1,0.6,0.2v0c-0.2,0.1-0.4,0.2-0.6,0.2
				c-0.2,0-0.4,0-0.6,0C36.4,30.2,36,30.2,35.7,30L35.7,30z"/>
		</g>
		<g>
			<path class="st1" d="M35.3,31.1c0.5-0.2,0.9-0.4,1.5-0.4c0.3,0,0.5-0.1,0.8,0c0.2,0.1,0.5,0.2,0.7,0.4l0,0
				c-0.3,0.1-0.5,0.1-0.7,0.1c-0.2,0-0.5-0.1-0.7-0.1C36.3,31.1,35.8,31.1,35.3,31.1L35.3,31.1z"/>
		</g>
		<g>
			<path class="st1" d="M34.1,32.3c0.7-0.1,1.3-0.2,2-0.1c0.3,0,0.7,0,1,0.1c0.3,0.1,0.6,0.2,0.9,0.5l0,0c-0.4,0-0.7,0-1,0
				c-0.3,0-0.6-0.1-1-0.2C35.4,32.4,34.8,32.4,34.1,32.3L34.1,32.3z"/>
		</g>
		<g>
			<path class="st1" d="M29.5,36.1c0.2-0.1,0.4-0.3,0.5-0.4c0.1-0.1,0.2-0.1,0.3-0.1c0.1,0,0.2,0,0.4,0.1l0,0
				c-0.1,0.2-0.1,0.2-0.2,0.3c-0.1,0.1-0.2,0-0.3,0.1C29.9,36.2,29.7,36.2,29.5,36.1L29.5,36.1z"/>
		</g>
		<g>
			<path class="st1" d="M27.2,37.9c0.3-0.2,0.7-0.3,1-0.3c0.2,0,0.4-0.1,0.5-0.1c0.2,0.1,0.4,0.1,0.5,0.3l0,0
				C29.1,38,28.9,38,28.8,38c-0.2,0-0.3,0-0.5,0C27.9,38,27.6,38,27.2,37.9L27.2,37.9z"/>
		</g>
		<g>
			<path class="st1" d="M34.9,54.5c-0.1,0.7-0.2,1.5-0.3,2.2c-0.1,0.4-0.1,0.7-0.2,1.1c-0.1,0.3-0.2,0.7-0.5,1l0,0
				c-0.1-0.4,0-0.8,0-1.1c0.1-0.4,0.2-0.7,0.3-1.1C34.4,55.9,34.6,55.2,34.9,54.5L34.9,54.5z"/>
		</g>
		<g>
			<path class="st1" d="M35.9,55.9c0,0.4-0.1,0.8-0.2,1.2c0,0.2,0,0.4-0.1,0.6c-0.1,0.2-0.2,0.4-0.4,0.5l0,0c-0.1-0.2-0.1-0.5,0-0.7
				c0-0.2,0.1-0.4,0.2-0.6C35.5,56.6,35.6,56.2,35.9,55.9L35.9,55.9z"/>
		</g>
		<g>
			<path class="st1" d="M36.8,55.5c0,0.5-0.1,1-0.1,1.5c0,0.2,0,0.5-0.1,0.7c-0.1,0.2-0.2,0.5-0.4,0.7l0,0c-0.1-0.3-0.1-0.5-0.1-0.8
				c0-0.3,0.1-0.5,0.2-0.7C36.4,56.4,36.6,56,36.8,55.5L36.8,55.5z"/>
		</g>
		<g>
			<path class="st1" d="M45.6,57.4c-0.2,0.4-0.3,0.7-0.3,1.1c0,0.2,0,0.4-0.1,0.6c-0.1,0.2-0.1,0.4-0.2,0.6l0,0
				c-0.2-0.2-0.2-0.4-0.2-0.6c0-0.2,0.1-0.4,0.2-0.6C45,58,45.3,57.6,45.6,57.4L45.6,57.4z"/>
		</g>
		<g>
			<path class="st1" d="M46.8,58.1c-0.1,0.3-0.2,0.6-0.2,0.9c0,0.1,0,0.3,0,0.4c-0.1,0.1-0.1,0.3-0.2,0.4l0,0
				c-0.2-0.1-0.2-0.3-0.2-0.5c0-0.2,0.1-0.3,0.1-0.5C46.4,58.5,46.5,58.3,46.8,58.1L46.8,58.1z"/>
		</g>
		<g>
			<path class="st1" d="M47.7,58.1c0,0.4-0.1,0.9-0.1,1.3c0,0.2,0,0.4,0,0.6c-0.1,0.2-0.1,0.4-0.3,0.6l0,0c-0.1-0.2-0.1-0.5-0.2-0.7
				c0-0.2,0.1-0.4,0.1-0.7C47.3,58.9,47.4,58.5,47.7,58.1L47.7,58.1z"/>
		</g>
		<g>
			<path class="st1" d="M23,57.9c-0.3,0.6-0.6,1.2-0.8,1.8c-0.1,0.3-0.1,0.6-0.3,0.9c-0.1,0.3-0.2,0.6-0.4,0.9l0,0
				c-0.1-0.4,0-0.7,0-1c0.1-0.3,0.2-0.6,0.4-1C22.2,58.9,22.5,58.3,23,57.9L23,57.9z"/>
		</g>
		<g>
			<path class="st1" d="M25.8,57.2c-0.3,0.6-0.5,1.1-0.7,1.7c-0.1,0.3-0.1,0.6-0.2,0.9c-0.1,0.3-0.2,0.6-0.4,0.9l0,0
				c-0.1-0.3-0.1-0.7,0-1c0-0.3,0.2-0.6,0.3-0.9C25,58.2,25.4,57.7,25.8,57.2L25.8,57.2z"/>
		</g>
		<g>
			<path class="st1" d="M27.5,54.5c-0.1,1.1-0.3,2.1-0.4,3.2c-0.1,0.5-0.1,1.1-0.2,1.6c-0.1,0.5-0.3,1-0.5,1.6l0,0
				c0-0.6,0-1.1,0.1-1.6c0.1-0.5,0.2-1.1,0.3-1.6C26.9,56.6,27.2,55.5,27.5,54.5L27.5,54.5z"/>
		</g>
		<g>
			<path class="st1" d="M20.7,55c0.5,0.5,1,1,1.5,1.6c0.2,0.3,0.5,0.5,0.7,0.9c0.2,0.3,0.3,0.6,0.4,1l0,0c-0.3-0.2-0.5-0.5-0.8-0.8
				c-0.2-0.3-0.4-0.6-0.6-0.9C21.5,56.2,21.1,55.6,20.7,55L20.7,55z"/>
		</g>
		<g>
			<path class="st1" d="M23.2,55.2c0.3,0.5,0.7,1,1.1,1.5c0.2,0.2,0.4,0.4,0.6,0.7c0.2,0.3,0.3,0.5,0.4,0.8l0,0
				c-0.3-0.1-0.6-0.3-0.8-0.6c-0.2-0.2-0.4-0.5-0.5-0.8C23.7,56.4,23.4,55.8,23.2,55.2L23.2,55.2z"/>
		</g>
		<g>
			<path class="st1" d="M25.6,55.1c0.3,0.5,0.6,1,0.9,1.5c0.2,0.3,0.3,0.5,0.4,0.8c0.1,0.3,0.2,0.6,0.2,0.9l0,0
				c-0.3-0.2-0.4-0.5-0.6-0.7c-0.2-0.3-0.2-0.6-0.3-0.8C25.9,56.3,25.7,55.7,25.6,55.1L25.6,55.1z"/>
		</g>
		<g>
			<path class="st1" d="M16.4,53.1c0.3,0.3,0.5,0.7,0.8,1c0.1,0.2,0.3,0.3,0.3,0.5c0.1,0.2,0.1,0.4,0.1,0.7l0,0
				c-0.2-0.1-0.4-0.3-0.5-0.4c-0.1-0.2-0.2-0.4-0.3-0.6C16.7,53.9,16.5,53.5,16.4,53.1L16.4,53.1z"/>
		</g>
		<g>
			<path class="st1" d="M17.4,52.1c0.3,0.4,0.6,0.9,0.9,1.3c0.1,0.2,0.3,0.4,0.4,0.7c0.1,0.2,0.2,0.5,0.1,0.8l0,0
				c-0.2-0.2-0.4-0.4-0.5-0.6c-0.1-0.2-0.2-0.5-0.3-0.7C17.7,53.1,17.5,52.6,17.4,52.1L17.4,52.1z"/>
		</g>
		<g>
			<path class="st1" d="M18.7,51.9c0.2,0.2,0.4,0.4,0.5,0.6c0.1,0.1,0.2,0.2,0.2,0.3c0,0.1,0,0.3,0,0.4l0,0c-0.2,0-0.3-0.1-0.4-0.2
				c-0.1-0.1-0.1-0.2-0.1-0.4C18.7,52.4,18.7,52.2,18.7,51.9L18.7,51.9z"/>
		</g>
		<g>
			<path class="st1" d="M12.8,56.4c0.1,0.6,0.3,1.1,0.6,1.6c0.1,0.3,0.3,0.5,0.4,0.7c0.1,0.3,0.2,0.5,0.3,0.8l0,0
				c-0.3-0.1-0.5-0.4-0.7-0.6c-0.2-0.2-0.3-0.6-0.4-0.8C12.8,57.6,12.7,57,12.8,56.4L12.8,56.4z"/>
		</g>
		<g>
			<path class="st1" d="M14,55.7c0.2,0.7,0.5,1.3,0.8,2c0.1,0.3,0.3,0.6,0.4,0.9c0.1,0.3,0.2,0.7,0.2,1l0,0
				c-0.3-0.3-0.5-0.6-0.6-0.9c-0.2-0.3-0.2-0.7-0.3-1C14.1,57.1,14,56.4,14,55.7L14,55.7z"/>
		</g>
		<g>
			<path class="st1" d="M15.4,56.5c0.2,0.5,0.4,1,0.7,1.4c0.1,0.2,0.3,0.4,0.4,0.7c0.1,0.3,0.2,0.5,0.2,0.8l0,0
				c-0.3-0.2-0.4-0.4-0.6-0.6c-0.2-0.2-0.2-0.5-0.3-0.8C15.5,57.6,15.4,57.1,15.4,56.5L15.4,56.5z"/>
		</g>
		<g>
			<path class="st1" d="M75.4,56c-0.2,0.8-0.5,1.5-0.7,2.3c-0.1,0.4-0.2,0.8-0.4,1.1c-0.2,0.4-0.4,0.7-0.7,1l0,0
				c0-0.4,0.1-0.8,0.2-1.2c0.1-0.4,0.3-0.7,0.5-1.1C74.6,57.4,75,56.7,75.4,56L75.4,56z"/>
		</g>
		<g>
			<path class="st1" d="M76.8,56c-0.2,0.8-0.5,1.6-0.7,2.3c-0.1,0.4-0.2,0.8-0.4,1.1c-0.2,0.4-0.4,0.7-0.7,1.1l0,0
				c0-0.4,0.1-0.8,0.2-1.2c0.1-0.4,0.3-0.7,0.5-1.1C76.1,57.4,76.4,56.7,76.8,56L76.8,56z"/>
		</g>
		<g>
			<path class="st1" d="M77.3,56c0,0.8-0.1,1.6-0.3,2.4c-0.1,0.4-0.1,0.8-0.3,1.2c-0.2,0.4-0.3,0.7-0.6,1.1l0,0
				c0-0.4,0.1-0.8,0.2-1.2c0.1-0.4,0.3-0.7,0.4-1.1C76.9,57.6,77.1,56.8,77.3,56L77.3,56z"/>
		</g>
		<g>
			<path class="st1" d="M78.3,57c-0.1,0.8-0.3,1.5-0.5,2.3c-0.1,0.4-0.1,0.8-0.3,1.1c-0.2,0.4-0.3,0.7-0.5,1.1l0,0
				c0-0.4,0-0.8,0.1-1.2c0.1-0.4,0.2-0.7,0.4-1.1C77.7,58.5,77.9,57.8,78.3,57L78.3,57z"/>
		</g>
		<g>
			<path class="st1" d="M78.6,51.4c-0.1,0.5-0.2,0.9-0.2,1.4c0,0.2,0,0.5-0.1,0.7c-0.1,0.2-0.2,0.4-0.3,0.7l0,0
				c-0.1-0.3-0.1-0.5-0.1-0.7c0-0.2,0.1-0.5,0.2-0.7C78.2,52.2,78.4,51.8,78.6,51.4L78.6,51.4z"/>
		</g>
		<g>
			<path class="st1" d="M79.8,52.2c0,0.3-0.1,0.6-0.2,0.9c0,0.2,0,0.3-0.1,0.4c-0.1,0.1-0.2,0.3-0.4,0.4l0,0c-0.1-0.2-0.1-0.4,0-0.5
				c0-0.2,0.1-0.3,0.2-0.4C79.5,52.8,79.6,52.5,79.8,52.2L79.8,52.2z"/>
		</g>
		<g>
			<path class="st1" d="M70.4,52.4c0,0.5,0,1-0.1,1.4c0,0.2,0,0.5-0.2,0.7c-0.1,0.2-0.2,0.4-0.4,0.6l0,0c-0.1-0.3,0-0.5,0-0.7
				c0-0.2,0.2-0.4,0.2-0.7C70.1,53.3,70.2,52.9,70.4,52.4L70.4,52.4z"/>
		</g>
		<g>
			<path class="st1" d="M71.8,52.2c0,0.4-0.1,0.8-0.1,1.2c0,0.2,0,0.4-0.1,0.6c-0.1,0.2-0.2,0.4-0.4,0.5l0,0
				c-0.1-0.2-0.1-0.4-0.1-0.7c0-0.2,0.1-0.4,0.2-0.6C71.4,53,71.6,52.6,71.8,52.2L71.8,52.2z"/>
		</g>
		<g>
			<path class="st1" d="M88.2,60.3c0.5,0.3,1,0.7,1.4,1.1c0.2,0.2,0.5,0.4,0.7,0.6c0.2,0.3,0.3,0.5,0.4,0.8l0,0
				c-0.3-0.1-0.5-0.4-0.8-0.5c-0.2-0.2-0.4-0.5-0.6-0.7C88.9,61.2,88.5,60.8,88.2,60.3L88.2,60.3z"/>
		</g>
		<g>
			<path class="st1" d="M90,59.3c0.4,0.4,0.8,0.7,1.2,1.1c0.2,0.2,0.4,0.3,0.6,0.6c0.1,0.2,0.3,0.5,0.3,0.7l0,0
				c-0.3-0.1-0.5-0.3-0.7-0.5c-0.2-0.2-0.3-0.4-0.5-0.6C90.6,60.2,90.3,59.8,90,59.3L90,59.3z"/>
		</g>
		<g>
			<path class="st1" d="M91.4,58.9c0.5,0.2,1,0.4,1.4,0.7c0.2,0.1,0.5,0.3,0.7,0.5c0.2,0.2,0.3,0.4,0.4,0.7l0,0
				c-0.3-0.1-0.5-0.2-0.7-0.4c-0.2-0.1-0.4-0.3-0.6-0.5C92.2,59.6,91.8,59.2,91.4,58.9L91.4,58.9z"/>
		</g>
		<g>
			<path class="st1" d="M90.1,51.1c-0.1,0.5-0.3,1.1-0.4,1.6c-0.1,0.3-0.1,0.5-0.2,0.8c-0.1,0.2-0.3,0.5-0.5,0.7l0,0
				c0-0.3,0-0.6,0.1-0.8c0.1-0.3,0.2-0.5,0.3-0.7C89.5,52,89.8,51.5,90.1,51.1L90.1,51.1z"/>
		</g>
		<g>
			<path class="st1" d="M90.7,52.9c-0.1,0.4-0.2,0.9-0.4,1.3c-0.1,0.2-0.1,0.4-0.2,0.6c-0.1,0.2-0.3,0.4-0.5,0.5l0,0
				c0-0.3,0-0.5,0.1-0.7c0.1-0.2,0.2-0.4,0.3-0.6C90.1,53.7,90.4,53.3,90.7,52.9L90.7,52.9z"/>
		</g>
		<g>
			<path class="st1" d="M91.4,53.8c-0.2,0.3-0.4,0.7-0.5,1c-0.1,0.2-0.1,0.4-0.2,0.5c-0.1,0.2-0.2,0.3-0.4,0.5l0,0
				c-0.1-0.2-0.1-0.4-0.1-0.6c0-0.2,0.2-0.4,0.3-0.5C90.8,54.3,91,54,91.4,53.8L91.4,53.8z"/>
		</g>
		<g>
			<path class="st1" d="M21.2,34.2c0.4,0,0.9-0.1,1.3-0.2c0.2,0,0.4-0.1,0.6-0.1c0.2,0,0.4,0,0.7,0.1l0,0c-0.2,0.2-0.4,0.3-0.6,0.3
				c-0.2,0.1-0.4,0-0.7,0C22.1,34.4,21.6,34.3,21.2,34.2L21.2,34.2z"/>
		</g>
		<g>
			<path class="st1" d="M19.5,38.2c0.3-0.1,0.6-0.2,0.9-0.3c0.2,0,0.3-0.1,0.5-0.1c0.2,0,0.3,0,0.5,0.2l0,0
				c-0.1,0.2-0.3,0.2-0.4,0.3c-0.2,0-0.3,0-0.5,0C20.1,38.3,19.8,38.2,19.5,38.2L19.5,38.2z"/>
		</g>
		<g>
			<path class="st1" d="M24.7,40.5c0.3-0.1,0.5-0.1,0.8-0.2c0.1,0,0.3-0.1,0.4,0c0.1,0,0.3,0.1,0.4,0.2v0c-0.1,0.1-0.3,0.2-0.4,0.2
				c-0.1,0-0.3,0-0.4-0.1C25.2,40.7,24.9,40.7,24.7,40.5L24.7,40.5z"/>
		</g>
		<g>
			<path class="st1" d="M21.7,42.8c0.4-0.1,0.7-0.1,1.1-0.2c0.2,0,0.4-0.1,0.6,0c0.2,0,0.4,0.1,0.6,0.2v0.1C23.8,43,23.6,43,23.4,43
				c-0.2,0-0.4,0-0.6,0C22.5,42.9,22.1,42.9,21.7,42.8L21.7,42.8z"/>
		</g>
		<g>
			<path class="st1" d="M24.3,44.7c0.3-0.1,0.6-0.1,0.9-0.2c0.2,0,0.3-0.1,0.5,0c0.2,0,0.3,0.1,0.5,0.2v0.1
				c-0.2,0.1-0.3,0.2-0.5,0.2c-0.2,0-0.3,0-0.5,0C24.9,44.8,24.6,44.8,24.3,44.7L24.3,44.7z"/>
		</g>
		<g>
			<path class="st1" d="M95,34c0.3-0.1,0.6-0.1,0.9-0.2c0.1,0,0.3-0.1,0.4,0c0.1,0,0.3,0.1,0.4,0.2v0c-0.1,0.1-0.3,0.2-0.4,0.2
				c-0.1,0-0.3,0-0.4-0.1C95.6,34.2,95.3,34.1,95,34L95,34z"/>
		</g>
		<g>
			<path class="st1" d="M98.9,33.8c0.2-0.1,0.5-0.2,0.7-0.2c0.1,0,0.3,0,0.4,0c0.1,0.1,0.2,0.2,0.3,0.3l0,0
				c-0.2,0.1-0.3,0.1-0.4,0.1c-0.1,0-0.2-0.1-0.3-0.1C99.4,34,99.2,33.9,98.9,33.8L98.9,33.8z"/>
		</g>
		<g>
			<path class="st1" d="M100.1,36.9c0.2,0,0.4,0,0.6,0c0.1,0,0.2,0,0.3,0c0.1,0.1,0.2,0.1,0.2,0.3l0,0c-0.1,0.1-0.3,0.1-0.4,0.1
				c-0.1,0-0.2-0.1-0.3-0.1C100.5,37.2,100.3,37.1,100.1,36.9L100.1,36.9z"/>
		</g>
		<g>
			<path class="st1" d="M95.7,39.7c0.3-0.1,0.6-0.2,1-0.2c0.2,0,0.3,0,0.5,0c0.2,0.1,0.3,0.1,0.4,0.3l0,0C97.3,40,97.2,40,97,40.1
				c-0.2,0-0.3-0.1-0.4-0.1C96.3,39.9,96,39.8,95.7,39.7L95.7,39.7z"/>
		</g>
		<g>
			<path class="st1" d="M41.9,6c-0.3,1-0.5,2-0.8,3.1c-0.1,0.5-0.2,1-0.4,1.5c-0.2,0.5-0.4,1-0.7,1.4l0,0c0-0.5,0.2-1.1,0.3-1.6
				c0.1-0.5,0.3-1,0.5-1.5C41.1,8,41.5,7,41.9,6L41.9,6z"/>
		</g>
		<g>
			<path class="st1" d="M42.5,7.9c-0.2,0.8-0.3,1.6-0.5,2.5c-0.1,0.4-0.2,0.8-0.3,1.2c-0.2,0.4-0.3,0.8-0.6,1.1l0,0
				c0-0.4,0.1-0.9,0.1-1.3c0.1-0.4,0.3-0.8,0.4-1.2C41.9,9.4,42.2,8.6,42.5,7.9L42.5,7.9z"/>
		</g>
		<g>
			<path class="st1" d="M43.4,9.4c0.1,0.5,0,1,0,1.5c0,0.3-0.1,0.5-0.2,0.8c-0.1,0.2-0.3,0.5-0.5,0.6l0,0c0-0.3,0-0.5,0.1-0.8
				c0.1-0.2,0.2-0.5,0.3-0.7C43.2,10.4,43.3,9.9,43.4,9.4L43.4,9.4z"/>
		</g>
		<g>
			<path class="st1" d="M44.3,11.3c0,0.3,0,0.7,0,1c0,0.2,0,0.3,0,0.5c-0.1,0.1-0.1,0.3-0.3,0.4l0,0c-0.1-0.2-0.1-0.3-0.1-0.5
				c0-0.2,0.1-0.3,0.1-0.5C44,11.9,44.1,11.6,44.3,11.3L44.3,11.3z"/>
		</g>
		<g>
			<path class="st1" d="M45.2,12.7c0,0.3,0.1,0.6,0.1,1c0,0.2,0,0.3,0,0.5c-0.1,0.2-0.1,0.3-0.3,0.4l0,0c-0.1-0.2-0.1-0.3-0.2-0.5
				c0-0.2,0.1-0.3,0.1-0.5C44.9,13.3,45,13,45.2,12.7L45.2,12.7z"/>
		</g>
		<g>
			<path class="st1" d="M27.7,45.6c0.3,0.8,0.7,1.6,1,2.4c0.2,0.4,0.3,0.8,0.4,1.2c0.1,0.4,0.2,0.8,0.2,1.3l0,0
				c-0.3-0.4-0.4-0.8-0.6-1.2c-0.2-0.4-0.2-0.8-0.4-1.2C28,47.3,27.8,46.5,27.7,45.6L27.7,45.6z"/>
		</g>
		<g>
			<path class="st1" d="M28,43c0.6,0.9,1,1.9,1.4,3c0.2,0.5,0.4,1,0.5,1.6c0.1,0.5,0.2,1.1,0.1,1.7l0,0c-0.2-0.5-0.4-1-0.6-1.5
				c-0.2-0.5-0.3-1-0.4-1.6C28.8,45,28.4,44,28,43L28,43z"/>
		</g>
		<g>
			<path class="st1" d="M28.5,40.4c0.5,1,0.9,2.1,1.3,3.2c0.2,0.5,0.4,1.1,0.5,1.6c0.1,0.6,0.2,1.1,0.2,1.7l0,0
				c-0.3-0.5-0.4-1.1-0.6-1.6c-0.2-0.5-0.3-1.1-0.4-1.6C29.1,42.6,28.8,41.5,28.5,40.4L28.5,40.4z"/>
		</g>
		<g>
			<path class="st1" d="M28.9,39.5c0.5,0.7,0.9,1.4,1.2,2.2c0.2,0.4,0.3,0.8,0.4,1.2c0.1,0.4,0.1,0.8,0,1.3l0,0
				c-0.2-0.4-0.3-0.8-0.5-1.1c-0.1-0.4-0.2-0.8-0.3-1.2C29.5,41,29.2,40.2,28.9,39.5L28.9,39.5z"/>
		</g>
		<g>
			<path class="st1" d="M30.1,39.8c0.1,0.3,0.2,0.6,0.4,0.8c0.1,0.1,0.2,0.2,0.2,0.4c0,0.1,0.1,0.3,0,0.5l0,0
				c-0.2,0-0.3-0.2-0.4-0.3c-0.1-0.1-0.1-0.3-0.2-0.5C30.1,40.4,30.1,40.1,30.1,39.8L30.1,39.8z"/>
		</g>
		<g>
			<path class="st1" d="M51.4,36.2c0.4,0.7,0.7,1.4,1.1,2.1c0.2,0.4,0.3,0.7,0.4,1.1c0.1,0.4,0.2,0.8,0.1,1.2l0,0
				c-0.2-0.3-0.4-0.7-0.5-1.1c-0.1-0.4-0.2-0.7-0.3-1.1C51.8,37.8,51.6,37,51.4,36.2L51.4,36.2z"/>
		</g>
		<g>
			<path class="st1" d="M52,34.7c0.5,0.8,1,1.7,1.3,2.6c0.2,0.4,0.4,0.9,0.5,1.4c0.1,0.5,0.2,1,0.1,1.5l0,0
				c-0.2-0.4-0.4-0.9-0.6-1.3c-0.2-0.4-0.3-0.9-0.4-1.4C52.7,36.5,52.3,35.6,52,34.7L52,34.7z"/>
		</g>
		<g>
			<path class="st1" d="M52.9,34.4c0.4,0.6,0.8,1.3,1.2,2c0.2,0.4,0.4,0.7,0.5,1.1c0.1,0.4,0.2,0.8,0.1,1.2l0,0
				c-0.2-0.3-0.4-0.7-0.6-1c-0.2-0.4-0.2-0.7-0.4-1.1C53.5,35.8,53.2,35.1,52.9,34.4L52.9,34.4z"/>
		</g>
		<g>
			<path class="st1" d="M53.7,33.5c0.3,0.2,0.6,0.4,0.8,0.7c0.1,0.1,0.3,0.3,0.3,0.4c0,0.2,0.1,0.4,0,0.6l0,0
				c-0.2-0.1-0.3-0.2-0.4-0.4c-0.1-0.1-0.1-0.3-0.2-0.4C54,34.1,53.8,33.8,53.7,33.5L53.7,33.5z"/>
		</g>
		<g>
			<path class="st1" d="M34.7,35.4c0.4,0.3,0.7,0.6,1.1,1c0.2,0.2,0.4,0.3,0.5,0.5c0.1,0.2,0.3,0.4,0.3,0.7l0,0
				c-0.3-0.1-0.5-0.3-0.7-0.4c-0.2-0.2-0.3-0.4-0.4-0.6C35.2,36.3,34.9,35.9,34.7,35.4L34.7,35.4z"/>
		</g>
		<g>
			<path class="st1" d="M36,34.9c0.5,0.3,0.9,0.7,1.2,1.2c0.2,0.2,0.4,0.4,0.5,0.7c0.1,0.3,0.2,0.5,0.2,0.9l0,0
				c-0.2-0.2-0.4-0.4-0.6-0.6c-0.2-0.2-0.3-0.5-0.4-0.7C36.6,35.8,36.3,35.3,36,34.9L36,34.9z"/>
		</g>
		<g>
			<path class="st1" d="M37.1,34.8c0.3,0.3,0.6,0.6,0.9,0.9c0.2,0.1,0.3,0.2,0.5,0.4c0.1,0.2,0.2,0.3,0.3,0.6l0,0
				c-0.3,0-0.4-0.1-0.6-0.2c-0.2-0.1-0.3-0.3-0.4-0.5C37.4,35.6,37.2,35.2,37.1,34.8L37.1,34.8z"/>
		</g>
		<g>
			<path class="st1" d="M10.9,27.4c0.3,0.4,0.6,0.9,0.9,1.3c0.1,0.2,0.3,0.4,0.4,0.7c0.1,0.3,0.2,0.5,0.2,0.8l0,0
				c-0.3-0.2-0.4-0.4-0.6-0.6c-0.2-0.2-0.2-0.5-0.3-0.7C11.3,28.5,11.1,28,10.9,27.4L10.9,27.4z"/>
		</g>
		<g>
			<path class="st1" d="M12.8,27.3c0.2,0.3,0.3,0.7,0.5,1c0.1,0.2,0.2,0.3,0.3,0.5c0,0.2,0.1,0.4,0.1,0.6l0,0
				c-0.2-0.1-0.3-0.2-0.5-0.4c-0.1-0.2-0.1-0.4-0.2-0.5C12.8,28.1,12.8,27.7,12.8,27.3L12.8,27.3z"/>
		</g>
		<g>
			<path class="st1" d="M14,26.7c0.2,0.4,0.3,0.8,0.5,1.1c0.1,0.2,0.2,0.3,0.3,0.5c0.1,0.2,0.1,0.4,0.1,0.6l0,0
				c-0.2-0.1-0.4-0.3-0.5-0.4c-0.1-0.2-0.2-0.4-0.2-0.6C14,27.6,13.9,27.1,14,26.7L14,26.7z"/>
		</g>
		<g>
			<path class="st1" d="M15.2,26.8c0.2,0.2,0.4,0.4,0.6,0.6c0.1,0.1,0.2,0.2,0.3,0.3c0,0.1,0.1,0.3,0,0.5l0,0
				c-0.2,0-0.3-0.1-0.4-0.2c-0.1-0.1-0.1-0.2-0.2-0.4C15.4,27.4,15.3,27.1,15.2,26.8L15.2,26.8z"/>
		</g>
		<g>
			<path class="st1" d="M75.9,57c0.3,0.3,0.6,0.6,0.8,1c0.1,0.2,0.3,0.3,0.3,0.5c0,0.2,0.1,0.4,0,0.7l0,0c-0.2-0.1-0.3-0.3-0.5-0.5
				c-0.1-0.2-0.2-0.4-0.2-0.6C76.2,57.8,76,57.4,75.9,57L75.9,57z"/>
		</g>
		<g>
			<path class="st1" d="M76.9,55.6c0.3,0.3,0.5,0.6,0.8,0.9c0.1,0.2,0.3,0.3,0.4,0.5c0.1,0.2,0.2,0.4,0.1,0.6l0,0
				c-0.2-0.1-0.4-0.2-0.5-0.4c-0.1-0.2-0.2-0.3-0.3-0.5C77.2,56.4,77.1,56,76.9,55.6L76.9,55.6z"/>
		</g>
		<g>
			<path class="st1" d="M78.2,54.2c0.2,0.1,0.4,0.2,0.6,0.4c0.1,0.1,0.2,0.1,0.3,0.2c0,0.1,0.1,0.2,0.1,0.4l0,0
				c-0.2,0-0.3,0-0.4-0.1c-0.1-0.1-0.1-0.2-0.2-0.3C78.4,54.6,78.3,54.4,78.2,54.2L78.2,54.2z"/>
		</g>
		<g>
			<path class="st1" d="M78.8,51.9c0.2,0.3,0.4,0.5,0.6,0.8c0.1,0.1,0.2,0.3,0.3,0.4c0,0.2,0.1,0.3,0,0.6l0,0
				c-0.2-0.1-0.3-0.2-0.4-0.4c-0.1-0.1-0.1-0.3-0.2-0.5C78.9,52.6,78.8,52.3,78.8,51.9L78.8,51.9z"/>
		</g>
		<g>
			<path class="st1" d="M52.9,57c0.3,0.5,0.6,1.1,0.9,1.6c0.2,0.3,0.3,0.5,0.4,0.8c0.1,0.3,0.2,0.6,0.2,0.9l0,0
				c-0.3-0.2-0.4-0.5-0.6-0.8c-0.2-0.3-0.2-0.6-0.3-0.9C53.3,58.2,53.1,57.6,52.9,57L52.9,57z"/>
		</g>
		<g>
			<path class="st1" d="M53.2,54.7c0.3,0.3,0.5,0.7,0.7,1.1c0.1,0.2,0.3,0.3,0.3,0.5c0.1,0.2,0.1,0.4,0.1,0.7l0,0
				c-0.2-0.1-0.3-0.3-0.5-0.5c-0.1-0.2-0.2-0.4-0.2-0.6C53.4,55.5,53.3,55.1,53.2,54.7L53.2,54.7z"/>
		</g>
		<g>
			<path class="st1" d="M53.4,51.3c0.3,0.7,0.7,1.3,1,2c0.2,0.3,0.4,0.7,0.5,1c0.1,0.4,0.2,0.7,0.2,1.1l0,0c-0.3-0.3-0.4-0.6-0.6-1
				c-0.2-0.3-0.3-0.7-0.4-1.1C53.8,52.8,53.6,52,53.4,51.3L53.4,51.3z"/>
		</g>
		<g>
			<path class="st1" d="M53.4,49.1c0.4,0.4,0.7,0.8,0.9,1.3c0.1,0.2,0.3,0.4,0.4,0.7c0.1,0.3,0.1,0.5,0.1,0.8l0,0
				c-0.2-0.2-0.3-0.4-0.5-0.6c-0.1-0.2-0.2-0.5-0.3-0.7C53.8,50.1,53.6,49.6,53.4,49.1L53.4,49.1z"/>
		</g>
		<g>
			<path class="st1" d="M53.7,27.4c0.2-0.1,0.5-0.1,0.7-0.2c0.1,0,0.2-0.1,0.3,0c0.1,0,0.2,0.1,0.3,0.2v0c-0.1,0.1-0.2,0.2-0.3,0.2
				c-0.1,0-0.2,0-0.3,0C54.1,27.6,53.9,27.6,53.7,27.4L53.7,27.4z"/>
		</g>
		<g>
			<path class="st1" d="M52,28.8c0.3,0,0.6,0,0.9,0c0.2,0,0.3-0.1,0.4,0c0.1,0,0.3,0.1,0.5,0.2l0,0c-0.1,0.2-0.3,0.2-0.5,0.2
				c-0.2,0-0.3,0-0.5-0.1C52.6,29.1,52.3,29,52,28.8L52,28.8z"/>
		</g>
		<g>
			<path class="st1" d="M51.4,30.5c0.3,0,0.6-0.1,0.9-0.1c0.2,0,0.3-0.1,0.5,0c0.1,0.1,0.3,0.1,0.4,0.3l0,0
				c-0.2,0.1-0.3,0.2-0.5,0.2c-0.2,0-0.3-0.1-0.5-0.1C52,30.7,51.7,30.6,51.4,30.5L51.4,30.5z"/>
		</g>
		<g>
			<path class="st1" d="M54.3,26.2c0.3-0.1,0.5-0.1,0.8-0.2c0.1,0,0.3-0.1,0.4,0c0.1,0,0.3,0.1,0.4,0.2v0c-0.1,0.1-0.3,0.2-0.4,0.2
				c-0.1,0-0.3,0-0.4-0.1C54.8,26.4,54.5,26.3,54.3,26.2L54.3,26.2z"/>
		</g>
		<g>
			<path class="st1" d="M55.2,24.5c0.2-0.1,0.5-0.1,0.7-0.2c0.1,0,0.2-0.1,0.3-0.1c0.1,0,0.2,0.1,0.3,0.2v0
				c-0.1,0.1-0.2,0.2-0.3,0.2c-0.1,0-0.2,0-0.3,0C55.7,24.7,55.4,24.6,55.2,24.5L55.2,24.5z"/>
		</g>
		<g>
			<path class="st1" d="M56.4,22.7c0.2-0.1,0.3-0.1,0.5-0.2c0.1,0,0.2-0.1,0.2,0c0.1,0,0.2,0.1,0.2,0.2v0c-0.1,0.1-0.2,0.2-0.2,0.2
				c-0.1,0-0.2,0-0.2,0C56.8,22.9,56.6,22.8,56.4,22.7L56.4,22.7z"/>
		</g>
		<g>
			<path class="st1" d="M48.2,33.4c-0.1,0.8-0.3,1.7-0.4,2.5c-0.1,0.4-0.1,0.8-0.3,1.2c-0.1,0.4-0.3,0.8-0.5,1.2l0,0
				c0-0.4,0-0.9,0.1-1.3c0.1-0.4,0.2-0.8,0.4-1.2C47.6,35,47.9,34.2,48.2,33.4L48.2,33.4z"/>
		</g>
		<g>
			<path class="st1" d="M49.8,34c-0.2,0.6-0.3,1.2-0.5,1.7c-0.1,0.3-0.1,0.6-0.2,0.9c-0.1,0.3-0.2,0.6-0.4,0.8l0,0
				c-0.1-0.3-0.1-0.6,0-0.9c0-0.3,0.2-0.6,0.3-0.9C49.1,35.1,49.4,34.5,49.8,34L49.8,34z"/>
		</g>
		<g>
			<path class="st1" d="M51,35.7c-0.2,0.4-0.3,0.8-0.4,1.3c0,0.2,0,0.4-0.1,0.6c-0.1,0.2-0.1,0.4-0.3,0.6l0,0
				c-0.1-0.2-0.2-0.5-0.2-0.7c0-0.2,0.1-0.5,0.2-0.7C50.4,36.4,50.7,36,51,35.7L51,35.7z"/>
		</g>
	</g>
</g>
</svg>
