<?xml version="1.0" encoding="utf-8"?>
<!-- Generator: Adobe Illustrator 22.0.1, SVG Export Plug-In . SVG Version: 6.00 Build 0)  -->
<svg version="1.1" id="圖層_1" xmlns="http://www.w3.org/2000/svg" xmlns:xlink="http://www.w3.org/1999/xlink" x="0px" y="0px"
	 viewBox="0 0 194.1 211.8" style="enable-background:new 0 0 194.1 211.8;" xml:space="preserve">
<style type="text/css">
	.st0{fill:none;stroke:#534741;stroke-width:2;stroke-miterlimit:10;}
	.st1{fill:#FFFFFF;stroke:#534741;stroke-miterlimit:10;}
	.st2{fill:#534741;}
</style>
<g>
	<line class="st0" x1="8.6" y1="-7.3" x2="11.6" y2="51.8"/>
	<g>
		<path class="st1" d="M133.5,61.5c-0.9,9.4,37.2,13.6,42.7,23.3c0.1,0.1,0.3,0.1,0.3-0.1l-1-22.2c0,0,0-0.2,0-0.5
			c-0.4-0.5-1.1-1-2-1.5c-6.3-3.1-18.7-6.5-29-12L133.5,61.5z"/>
		<path class="st1" d="M139.5,156.8c0,0.2,0,0.5,0,0.7c0,10,29-1,29,9c0,26-32,14-32,25c0,8,13.8,6,8.1,18.8
			c10.5-8.8-0.1-8.3,0.9-13.8c1.8-9.8,28-2,28-26c0-18.9-20-21.7-30-19C141.9,151.9,139.6,154,139.5,156.8z"/>
		<path class="st1" d="M11,25.7"/>
		<path class="st1" d="M193.3,46c0.1-0.2,0.2-0.3,0.2-0.5l-1.9-27.7c0-0.4-0.5-0.5-0.8-0.3c-4.9,4.2-31.3-2.3-46.3-7
			c-16-5-42-3-51-1s-10,11-22,17c-15.2,7.6-54,0-62-1c-2.3-0.3-4-1.8-4.7-2.5c-0.1-0.1-0.3,0-0.2,0.1c0.3,3.4,1.6,24.2,1.9,27.8
			C6.6,51.4,6.7,52,6.7,52c0.3,1.2,1.7,2.2,4.8,2.6c8,1,57.8,8.6,73,1c12-6,9-12,18-14s32-3,48,2C166,48.3,190,51.3,193.3,46z"/>
		<path class="st1" d="M131.6,41.2l1.9,21.3c0,0.3,0.4,0.4,0.5,0.1c1.7-3.3,9-14.1,15.6-18.4c0.4-0.2,0.2-0.8-0.2-0.8l-17.2-2.8
			C131.8,40.6,131.5,40.8,131.6,41.2z"/>
		<path class="st1" d="M162.5,76.5c-3.5,0-8.7,2.8-11,4c-10,5-28,12-27,31s21,14,21,24c0,7-8,5-8,11c0,0.5,0.1,0.9,0.2,1.2
			c0.4,2.1,1.1,6.7,1.5,8.5c0.1,0.3,0.4,0.3,0.5,0c2.8-8.1,22.7-9.4,22.7-16.8c0-11-23-13-23-21c0-11,1-15,11-20s26-1,26-12
			C176.5,82.5,167.1,76.6,162.5,76.5z"/>
		<path class="st1" d="M191.6,16c0.4-5.5-23.4-6.4-34.1-5.5c-2.3,0.2-4.6,0.8-7,1.8c16.3,4.7,39.2,9.5,41,4.2
			C191.6,16.3,191.6,16.1,191.6,16z"/>
		<path class="st1" d="M7,19.2c1-0.7,2.1-1.3,3.5-1.7v8v0.1c-0.4-0.1-0.7-0.1-1-0.1C3.3,24.7,3.7,21.5,7,19.2z"/>
	</g>
	<g>
		<path class="st2" d="M48,48.6c-0.6,1.6-1,2.9-1.4,4.4c-0.7-0.7-1.5-1.3-2.3-1.7c0.7-1,1-1.6,1.9-3.8c0.8-1.9,1-2.5,1.4-3.8
			c0.4,0.6,1.1,1.2,1.8,1.5C49,46,48.7,46.9,48,48.6z M48.5,41.9c-0.8-0.8-2.5-1.9-3.7-2.4l1.2-1.7c1,0.7,2.7,1.7,3.8,2.4L48.5,41.9
			z M49.7,36.2c-0.7-0.9-2.3-2.3-3.4-3l1.5-1.4c1.1,0.9,2.5,2.1,3.5,3L49.7,36.2z M51.6,39.6c-0.4-0.4-1.1-0.7-1.8-0.8
			c1.7-1.6,4.1-5,4.9-7.4c0.5,0.3,1.9,0.7,2.4,0.9c0.3,0.1,0.3,0.4-0.1,0.4c-0.3,0.1-0.6,0.2-1.4,1.4l6.6,0.2c1.6,0,2.6,0,3.5-0.2
			l-0.1,2c-0.8-0.1-2.1-0.2-3.5-0.2l-7.6-0.2c-0.5,0.7-1,1.4-1.5,2.1l5.7,0.2c2,0.1,4,0,5.3,0l-0.6,5.6c1,0,1.8,0,2.5-0.1l-0.1,1.8
			c-0.7-0.1-1.6-0.2-2.6-0.2L63,49c0.9,0,1.5,0,2-0.1l-0.1,2c-0.5-0.1-1.1-0.2-2.1-0.2C62.6,53,62.4,53.5,59,54
			c-0.1-0.7-0.5-1.5-1-2.1c2.3,0.1,2.8-0.3,3-1.4l-5.8-0.2c-1.8-0.1-2.5,0-3.9,0.1l0.8-5.8c-0.8,0-1.6,0-2.2,0.1l0.1-1.8
			c0.6,0.1,1.5,0.2,2.4,0.2l0.7-5.2C52.6,38.5,52.1,39.1,51.6,39.6z M54,44.6l-0.6,4.1l7.7,0.2l0.4-4.1L54,44.6z M61.7,43.4l0.4-3.9
			l-7.4-0.2l-0.6,3.9L61.7,43.4z M57,48.4c0-0.6-0.5-2.2-0.8-2.7l1.8-0.4c0.3,0.8,0.7,2.1,0.9,2.7L57,48.4z M57.6,42.7
			c-0.1-0.7-0.5-1.7-0.8-2.3l1.8-0.4c0.4,0.7,0.8,1.7,0.9,2.4L57.6,42.7z"/>
		<path class="st2" d="M76.4,47.4c-2,1-2.5,1.2-3.1,1.6c-0.2-0.4-0.6-1.4-1-2.2l-4.3-9c-0.4-0.8-0.9-1.8-1.1-2.2
			c0.7-0.2,1.2-0.4,3.2-1.4s2.5-1.2,3.2-1.6c0.1,0.4,0.6,1.4,1,2.2l4.3,9c0.4,0.8,0.9,1.8,1.1,2.2C79,46.2,78.4,46.5,76.4,47.4z
			 M72.4,34.9l-3.2,1.5l1.2,2.5l3.2-1.5L72.4,34.9z M74.2,38.7L71,40.3l1.2,2.4l3.2-1.5L74.2,38.7z M76.1,42.6l-3.2,1.5l1.2,2.6
			l3.2-1.5L76.1,42.6z M76.4,50c-0.2,1.6-0.4,2.5-0.7,3.6c-0.7-0.2-1.2-0.3-1.9-0.2c0.7-1.8,1-3.1,1-5.2c0.6,0.1,1.4,0.2,1.8,0.1
			c0.4-0.1,0.5,0.1,0.2,0.3C76.7,48.9,76.5,49.4,76.4,50z M76.5,37.2l-0.8-1.7c1-0.3,3.3-1.4,5.4-2.4c-0.2-0.5-0.4-0.8-0.5-1
			c-1.1-2.3-1.4-2.8-1.9-3.4c0.7-0.2,1.5-0.5,2.1-0.8c0.5-0.2,0.6-0.2,0.4,0.4c-0.1,0.6,0.2,1.3,1.5,4c1.8-0.9,3.6-1.8,4.3-2.2
			l0.8,1.7c-0.8,0.2-2.6,1-4.4,1.9c1.6,3.2,2.7,5.1,3.7,6.5c0.1-1.9-0.2-3.9-0.9-6.4c0.8,0,1.5,0,2.1-0.2c0.3-0.1,0.4,0,0.2,0.3
			c-0.1,0.2-0.1,0.4,0,2c0.2,2.6,0.2,4.4,0,5.9c0.4,0.4,0.8,0.7,1.2,0.9c1.6,1,1.7,0.8,0.8-0.9c0.9,0.3,1.3,0.3,2.3,0.1
			c0.8,2.7,0.8,3.7,0.2,4c-0.5,0.3-1.3,0-3.6-1.2c-0.5-0.3-0.9-0.5-1.3-0.8c-0.3,1.2-0.8,2.3-1.4,3.6c-0.7-0.4-1.2-0.5-2.1-0.4
			c1-1.6,1.7-3.1,2.1-4.5c-1.2-1.4-2.9-4.3-4.9-8.2C79.6,35.4,77.3,36.6,76.5,37.2z M78.6,42.5l-0.9-1.9c0.6-0.2,1.2-0.4,2.1-0.8
			l-0.2-0.5c-0.4-0.9-0.8-1.5-1.3-2.2c1-0.4,1.6-0.6,2-0.9c0.3-0.2,0.6,0,0.4,0.3c-0.2,0.4-0.3,0.7,0,1.3l0.6,1.3
			c0.8-0.4,1.3-0.7,1.7-1l0.9,1.9c-0.5,0.1-1.1,0.3-1.9,0.7c1.6,3.4,2,6,1.2,9c-0.4-0.2-0.8-0.4-1.2-0.4l-0.9,1.4
			c-0.7-0.8-2.7-1.9-3.9-2.2l1-1.6c1.4,0.6,2.5,1.1,3.3,1.6c0.8-2.4,0.4-4.1-1-7.2C79.7,41.8,79.1,42.1,78.6,42.5z M84.8,31
			c-1-0.8-2-1.3-3-1.6l0.9-1.6c1.2,0.4,2.3,0.9,3.2,1.5L84.8,31z"/>
		<path class="st2" d="M94.8,21c-1.9,0.4-3.1,0.6-4.1,0.9l-0.4-1.8c1.1-0.1,2.2-0.3,4.2-0.7c1.9-0.4,3.1-0.7,4.2-1l0.4,1.8
			C98,20.4,96.7,20.6,94.8,21z M95.5,23.9c-1.7,0.3-2.8,0.6-3.7,0.9l-0.3-1.7c0.9-0.1,2.1-0.3,3.8-0.6c1.7-0.3,2.6-0.5,3.5-0.8
			l0.3,1.7C98.2,23.4,97.2,23.5,95.5,23.9z M96.1,26.8c-1.7,0.3-2.9,0.6-3.7,0.9L92,26c0.9-0.1,2.1-0.3,3.8-0.6
			c1.7-0.3,2.6-0.6,3.5-0.8l0.3,1.7C98.8,26.3,97.8,26.5,96.1,26.8z M94.1,18.9c-0.3-0.9-0.9-1.8-1.6-2.5l1.9-1
			c0.5,0.7,1.2,1.7,1.7,2.5L94.1,18.9z M96,35.2l0.4,1.9l-1.9,0.4c-0.1-1.2-0.2-1.9-0.4-3l-0.7-3.7C93.2,30,93.1,29.5,93,29
			c0.6-0.1,1.2-0.2,3.5-0.6c2.4-0.5,2.9-0.6,3.5-0.8c0,0.4,0.1,0.9,0.3,1.8l0.6,3.2c0.2,1.1,0.4,1.9,0.8,2.9l-1.9,0.4l-0.3-1.4
			L96,35.2z M99.2,32.9l-0.7-3.4L95,30.3l0.7,3.4L99.2,32.9z M108.9,25.9c1,3.1,1.9,4.5,2.7,5.2c0.6,0.6,0.9,0.2,0.7-1.5
			c0.7,0.4,1.2,0.5,2.1,0.6c0,3.7-1.1,4.5-2.8,3.4c-1.7-1.1-3.1-3.4-4.3-7.3c-0.4-1.3-1-3.8-1.5-5.9l-1.7,0.3c-1.7,0.3-3,0.6-4.2,1
			l-0.4-1.8c1.3-0.2,2.6-0.4,4.2-0.7l1.7-0.3c-0.4-1.9-0.9-3.8-1.3-5.3c0.5,0.1,1.7,0.1,2.4,0.1c0.4,0,0.5,0.1,0.1,0.5
			c-0.3,0.3-0.3,0.5,0.5,4.4c1.6-0.3,2.7-0.6,4-0.9l0.4,1.8c-1.4,0.2-2.5,0.4-4.1,0.7C108.1,23.1,108.5,24.6,108.9,25.9z
			 M107.4,28.7c0.1,0.7,0.3,1.3,0.5,1.7c-1.6,0.7-4.3,2.2-5.6,3c-0.4-0.6-0.8-1.2-1.3-1.7c0.7-0.2,1.3-0.4,2.5-0.9l-1-5.2
			c-0.9,0.2-1.5,0.3-2,0.5l-0.4-1.8c0.7,0,1.6-0.2,2.8-0.4s2.1-0.5,2.8-0.7l0.4,1.8c-0.5,0-1.1,0.1-1.9,0.3l1,4.8
			C106.3,29.4,106.9,29.1,107.4,28.7z M109.2,17.5c-0.6-0.9-1.2-1.6-2.1-2.2l1.5-1.3c0.8,0.7,1.4,1.3,2.2,2.1L109.2,17.5z"/>
		<path class="st2" d="M122.9,17c0.5,0.4,1,0.9,1.6,1.2c0.2,0.1,0.2,0.3-0.2,0.4c-0.4,0.1-0.8,0.5-2.8,2.6c-0.1,1.5-0.3,2.8-0.5,4
			c1.4,1.4,3,3.1,3.5,3.8l-1.7,1.3c-0.5-1-1.2-2.3-2.1-3.4c-0.6,2.6-1.6,4.5-3.1,6.4c-0.5-0.5-1-0.9-1.9-1.1
			c1.7-1.3,3.6-5.1,3.9-8.9c0.4-3.7,0.4-7.3,0.2-10.7c0.8,0.2,1.7,0.3,2.3,0.3c0.4,0,0.4,0.2,0.1,0.5c-0.3,0.2-0.6,1-0.6,3.2
			c0,0.8,0,1.6-0.1,2.4C122.2,18.5,122.6,17.9,122.9,17z M118.2,23.8l-1.9-0.4c0.6-2,0.8-3.5,0.8-4.9l1.8,0.4
			C118.7,20.7,118.5,21.9,118.2,23.8z M136.8,19.4c-0.1,0.5-0.2,1.2-0.2,1.6l-0.2,4.5c0,0.5,0,1.2,0.1,1.7c-0.7-0.1-2.5-0.2-4.3-0.3
			c1.3,2.6,3.2,4.2,5.7,5.3c-0.8,0.4-1.3,1.2-1.6,1.9c-2.2-1.6-4-3.7-5.2-6.4l-0.1,3.4c0,1,0,2.7,0,3.9l-2.1-0.1
			c0.2-1.2,0.3-2.9,0.4-3.9l0.2-3.8c-1.2,2.4-3,4.4-6.1,6.4c-0.4-0.7-0.7-0.9-1.7-1.5c2.8-1.1,5.3-3.2,6.6-5.5
			c-1.7-0.1-3.2-0.1-3.8-0.1c0.1-0.5,0.2-1.2,0.2-1.6l0.2-4.5c0-1.1,0-1.3-0.1-1.6c0.9,0.1,2.5,0.2,5.1,0.3l0.1-1.9
			c-2.7-0.1-4.6-0.1-5.9-0.1l0.1-1.9c1.3,0.2,3.3,0.3,5.9,0.4c0.1-1.3,0-2.2-0.1-2.7c0.8,0.2,1.2,0.2,2.1,0.2c0.4,0,0.5,0.2,0.1,0.4
			c-0.1,0.1-0.2,0.7-0.3,2.1c3.3,0.1,5,0.2,6.4,0.1l-0.1,1.9c-1.3-0.2-3.4-0.3-6.4-0.4l-0.1,1.9C134.6,19.4,135.8,19.4,136.8,19.4z
			 M129.6,20.7l-3.2-0.1l-0.2,4.6l3.2,0.1L129.6,20.7z M127.7,24.7c-0.2-1-0.7-2.2-1.1-2.9l1.5-0.5c0.2,0.7,0.7,1.9,1.2,2.8
			L127.7,24.7z M132.7,21.4l1.7,0.9c-0.6,0.6-1.3,1.9-1.7,2.8l-1.5-0.6v0.9l3.5,0.1l0.2-4.6l-3.5-0.1l-0.2,3.5
			C131.8,23.5,132.4,22.4,132.7,21.4z"/>
		<path class="st2" d="M147.3,29.9c1.6-0.5,2.8-1,4.2-2.2c-1.3-0.4-2.5-0.6-3.4-0.8l0.5-1.8c1.6,0.6,4.1,1.3,7,2.2
			c2.9,0.8,5.5,1.5,7.1,1.9l-0.5,1.7c-0.9-0.3-2.3-0.7-3.7-1.2l-5.3-1.5c-0.4,0.4-0.8,0.7-1.2,1l4.4,1.3c2.6,0.7,3.2,0.9,4.3,1.1
			c-0.3,0.4-0.5,0.8-0.7,1.4l-1.7,4.3c-0.9,2.2-1.5,2.7-4.6,2.3c0.3-0.8,0.2-1.7-0.1-2.4c2.1,0.9,2.5,0.8,3.1-0.7l1.6-4l-1.5-0.4
			c-1.6,2.9-4.3,5.1-7.9,6.2c-0.2-0.6-0.6-1.1-1.2-1.7c3.7-0.7,5.6-1.9,7.5-4.9l-1.5-0.4c-1.6,1.8-3.4,2.8-6.6,3.9
			c-0.2-0.6-0.4-1.2-1-1.8c2.6-0.2,4.4-0.8,6-2.5l-1.6-0.5c-0.8,0.5-1.6,0.9-2.6,1.2c-0.1-0.4-0.2-0.8-0.5-1.2
			c-0.2,0.4-0.3,0.9-0.3,1.5c-1.3-0.1-5.5,0.1-6.9,0.2c0-0.8,0-1.6-0.2-2.2c1.1,0.2,2.1,0.3,3.1,0.3l2.1-7.2
			c-1.3-0.3-1.8-0.5-2.7-0.6l0.6-2c0.8,0.4,1.4,0.6,2.6,1l0.7-2.5c0.5-1.6,0.6-2.6,0.7-3.5c0.6,0.3,1.4,0.5,2.1,0.7
			c0.4,0.1,0.4,0.4,0,0.5c-0.1,0.1-0.4,0.4-0.6,0.8l-1.3,4.4c1.3,0.4,2,0.5,2.9,0.6l-0.6,2c-0.8-0.4-1.4-0.6-2.8-1l-1.9,6.7
			C145.7,30.1,146.5,30,147.3,29.9z M155.8,26.2c-3.2-0.9-4-1.1-5.1-1.4c0.2-0.4,0.4-1,0.6-1.6l1.2-4c0.3-0.9,0.4-1.3,0.4-1.6
			c1,0.4,1.8,0.6,5,1.5s4,1.1,5.1,1.4c-0.2,0.4-0.4,1-0.6,1.6l-1.1,4c-0.2,0.7-0.4,1.3-0.4,1.7C159.8,27.3,159,27.1,155.8,26.2z
			 M159.9,24.2l-6.6-1.9l-0.4,1.4l6.6,1.9L159.9,24.2z M160.6,21.5l-6.6-1.9l-0.4,1.3l6.6,1.9L160.6,21.5z"/>
	</g>
	<g>
		<g>
			<g>
				<path class="st2" d="M6.4,19.5c-0.1,1.4-0.1,2.8,0.1,4.2c0.1,0.5,0.8,0.3,0.7-0.2c-0.2-1.3-0.2-2.6-0.1-4
					C7.2,19,6.4,19,6.4,19.5L6.4,19.5z"/>
			</g>
		</g>
		<g>
			<g>
				<path class="st2" d="M8.2,18.8c-0.1,2,0,4,0.1,6.1c0,0.5,0.8,0.5,0.8,0c-0.1-2-0.1-4-0.1-6.1C9,18.3,8.3,18.3,8.2,18.8L8.2,18.8
					z"/>
			</g>
		</g>
		<g>
			<g>
				<path class="st2" d="M153.9,11.5c0,0.5,0,1.1,0,1.6s0.8,0.5,0.8,0s0-1.1,0-1.6S153.9,11,153.9,11.5L153.9,11.5z"/>
			</g>
		</g>
		<g>
			<g>
				<path class="st2" d="M155.1,11.2c0.1,0.9,0.2,1.7,0.1,2.6c0,0.5,0.7,0.5,0.8,0c0-0.9,0-1.9-0.2-2.8
					C155.8,10.5,155.1,10.7,155.1,11.2L155.1,11.2z"/>
			</g>
		</g>
		<g>
			<g>
				<path class="st2" d="M157.3,11.2c0.1,0.9,0.2,1.7,0.1,2.6c0,0.5,0.7,0.5,0.8,0c0.1-0.9,0-1.9-0.1-2.8
					C158,10.5,157.3,10.7,157.3,11.2L157.3,11.2z"/>
			</g>
		</g>
		<g>
			<g>
				<path class="st2" d="M159.6,11.1c0,1.3,0,2.6,0,3.9c0,0.5,0.8,0.5,0.8,0c0-1.3,0-2.6,0-3.9C160.3,10.6,159.6,10.6,159.6,11.1
					L159.6,11.1z"/>
			</g>
		</g>
		<g>
			<g>
				<path class="st2" d="M162.4,11.8c0,1.4,0,2.7,0,4.1c0,0.5,0.8,0.5,0.8,0c-0.1-1.4-0.1-2.7,0-4.1
					C163.2,11.3,162.5,11.3,162.4,11.8L162.4,11.8z"/>
			</g>
		</g>
		<g>
			<g>
				<path class="st2" d="M164.3,12.2c0.2,1.3,0.3,2.5,0.2,3.8c0,0.5,0.7,0.5,0.8,0c0.1-1.4,0-2.7-0.3-4
					C165,11.5,164.2,11.7,164.3,12.2L164.3,12.2z"/>
			</g>
		</g>
		<g>
			<g>
				<path class="st2" d="M167.9,11.8c0.1,1.6,0,3.1-0.2,4.6c-0.1,0.5,0.6,0.7,0.7,0.2c0.3-1.6,0.4-3.2,0.2-4.8
					C168.7,11.3,167.9,11.3,167.9,11.8L167.9,11.8z"/>
			</g>
		</g>
		<g>
			<g>
				<path class="st2" d="M170.8,12.7c-0.2,1.7-0.3,3.3-0.3,5c0,0.5,0.7,0.5,0.8,0c0-1.7,0.1-3.3,0.3-5
					C171.6,12.2,170.8,12.3,170.8,12.7L170.8,12.7z"/>
			</g>
		</g>
		<g>
			<g>
				<path class="st2" d="M172.8,12.4c0.3,1.9,0.4,3.7,0.1,5.6c-0.1,0.5,0.7,0.7,0.7,0.2c0.3-2,0.3-4-0.1-6
					C173.5,11.7,172.7,11.9,172.8,12.4L172.8,12.4z"/>
			</g>
		</g>
		<g>
			<g>
				<path class="st2" d="M176,12c0.5,0.7,0.2,2.3,0.1,3.1c-0.1,1.1-0.2,2.2-0.4,3.2c-0.1,0.5,0.6,0.7,0.7,0.2
					c0.2-1.3,0.4-2.6,0.4-3.9c0.1-0.9,0.3-2.1-0.3-3C176.3,11.2,175.7,11.6,176,12L176,12z"/>
			</g>
		</g>
		<g>
			<g>
				<path class="st2" d="M179.9,12.6c-0.1,1.8-0.2,3.6-0.3,5.4c0,0.5,0.7,0.5,0.8,0c0.1-1.8,0.2-3.6,0.3-5.4
					C180.6,12.1,179.9,12.1,179.9,12.6L179.9,12.6z"/>
			</g>
		</g>
		<g>
			<g>
				<path class="st2" d="M182.9,12.8c-0.3,0-0.1,2.1-0.1,2.4c-0.1,0.9-0.2,1.8-0.4,2.7c-0.1,0.5,0.6,0.7,0.7,0.2
					c0.2-0.9,1.4-6.3-0.4-6C182.2,12.2,182.4,12.9,182.9,12.8L182.9,12.8z"/>
			</g>
		</g>
		<g>
			<g>
				<path class="st2" d="M184.8,13.4c0,1.8,0,3.5,0,5.3c0,0.5,0.8,0.5,0.8,0c0-1.8,0-3.5,0-5.3C185.6,12.9,184.8,12.9,184.8,13.4
					L184.8,13.4z"/>
			</g>
		</g>
		<g>
			<g>
				<path class="st2" d="M187.1,15.4c0.2,1,0.3,2.1,0.2,3.1c0,0.5,0.7,0.5,0.8,0c0.1-1.1,0-2.2-0.2-3.3
					C187.7,14.7,187,14.9,187.1,15.4L187.1,15.4z"/>
			</g>
		</g>
		<g>
			<g>
				<path class="st2" d="M188.6,15.7c0,0.6,0.1,1.2,0.1,1.8c0,0.5,0.8,0.5,0.8,0c0-0.6-0.1-1.2-0.1-1.8
					C189.3,15.2,188.6,15.2,188.6,15.7L188.6,15.7z"/>
			</g>
		</g>
		<g>
			<g>
				<path class="st2" d="M132.4,41.2c0.1,2,0.1,4,0.2,6.1c0.1,1.6,0,3.2,0.5,4.7c0.2,0.5,0.9,0.3,0.7-0.2c-0.6-1.7-0.5-3.6-0.5-5.3
					c-0.1-1.8-0.1-3.5-0.2-5.3C133.1,40.7,132.4,40.7,132.4,41.2L132.4,41.2z"/>
			</g>
		</g>
		<g>
			<g>
				<path class="st2" d="M134.5,41.1c0.2,3.3,0.4,6.6,0.7,9.9c0,0.5,0.8,0.5,0.8,0c-0.3-3.3-0.5-6.6-0.7-9.9
					C135.3,40.6,134.5,40.6,134.5,41.1L134.5,41.1z"/>
			</g>
		</g>
		<g>
			<g>
				<path class="st2" d="M136.7,41.1c0.3,2.4,0.4,4.8,0.2,7.3c0,0.5,0.7,0.5,0.8,0c0.1-2.4,0.1-4.9-0.2-7.3
					C137.4,40.6,136.7,40.6,136.7,41.1L136.7,41.1z"/>
			</g>
		</g>
		<g>
			<g>
				<path class="st2" d="M138.7,42.2c0,1.7,0,3.4,0,5.1c0,0.5,0.8,0.5,0.8,0c0-1.7,0-3.4,0-5.1C139.4,41.7,138.7,41.7,138.7,42.2
					L138.7,42.2z"/>
			</g>
		</g>
		<g>
			<g>
				<path class="st2" d="M141,43.2c0,0.7,0.1,1.4,0.1,2.2c0,0.5,0.8,0.5,0.8,0c0-0.7-0.1-1.4-0.1-2.2
					C141.7,42.8,140.9,42.8,141,43.2L141,43.2z"/>
			</g>
		</g>
		<g>
			<g>
				<path class="st2" d="M143.4,43.4c0,0.4,0.1,0.9,0.1,1.3c0.1,0.5,0.8,0.5,0.8,0c0-0.4-0.1-0.9-0.1-1.3
					C144.1,42.9,143.3,42.9,143.4,43.4L143.4,43.4z"/>
			</g>
		</g>
		<g>
			<g>
				<path class="st2" d="M145.3,42.8c0.1,0.4,0.2,0.7,0.3,1.1c0.1,0.5,0.8,0.3,0.7-0.2c-0.1-0.4-0.2-0.7-0.3-1.1
					C145.9,42.1,145.2,42.3,145.3,42.8L145.3,42.8z"/>
			</g>
		</g>
		<g>
			<g>
				<path class="st2" d="M136.2,58.8c-0.1,0.7,0,1.4,0.1,2.1c0.1,0.5,0.8,0.3,0.7-0.2c-0.1-0.6-0.2-1.2-0.1-1.9
					C137,58.4,136.3,58.4,136.2,58.8L136.2,58.8z"/>
			</g>
		</g>
		<g>
			<g>
				<path class="st2" d="M137.8,56.3c0,1.2,0.1,2.3,0.3,3.5c0.1,0.5,0.8,0.3,0.7-0.2c-0.2-1.1-0.3-2.2-0.3-3.3
					C138.6,55.9,137.8,55.9,137.8,56.3L137.8,56.3z"/>
			</g>
		</g>
		<g>
			<g>
				<path class="st2" d="M139.6,53.9c0.4,1.5,0.5,3.1,0.1,4.6c-0.1,0.5,0.6,0.7,0.7,0.2c0.3-1.7,0.3-3.3-0.1-5
					C140.2,53.3,139.5,53.5,139.6,53.9L139.6,53.9z"/>
			</g>
		</g>
		<g>
			<g>
				<path class="st2" d="M142.4,51.2c-0.2,2.1-0.2,4.2-0.1,6.2c0,0.5,0.8,0.5,0.8,0c-0.1-2.1,0-4.2,0.1-6.2
					C143.2,50.7,142.4,50.7,142.4,51.2L142.4,51.2z"/>
			</g>
		</g>
		<g>
			<g>
				<path class="st2" d="M144,49.2c0.1,2.7,0.2,5.3,0.3,8c0,0.5,0.8,0.5,0.8,0c-0.1-2.7-0.2-5.3-0.3-8C144.7,48.7,144,48.7,144,49.2
					L144,49.2z"/>
			</g>
		</g>
		<g>
			<g>
				<path class="st2" d="M145.7,50.4c0.4,1.8,0.6,3.6,0.6,5.4c0,0.5,0.8,0.5,0.8,0c0-1.9-0.2-3.8-0.6-5.6
					C146.3,49.7,145.6,49.9,145.7,50.4L145.7,50.4z"/>
			</g>
		</g>
		<g>
			<g>
				<path class="st2" d="M147.6,51.5c0.2,0.8,0.4,1.6,0.4,2.4c0,0.5,0.7,0.5,0.8,0c0-0.9-0.1-1.7-0.4-2.6
					C148.2,50.8,147.5,51,147.6,51.5L147.6,51.5z"/>
			</g>
		</g>
		<g>
			<g>
				<path class="st2" d="M160.5,76.1c0.1,1.4,0.3,2.8,0.4,4.3c0,0.5,0.8,0.5,0.8,0c-0.1-1.4-0.3-2.8-0.4-4.3
					C161.2,75.6,160.5,75.6,160.5,76.1L160.5,76.1z"/>
			</g>
		</g>
		<g>
			<g>
				<path class="st2" d="M162.8,76.5c0.4,2,0.7,4.1,1.1,6.1c0.1,0.5,0.8,0.3,0.7-0.2c-0.4-2-0.7-4.1-1.1-6.1
					C163.5,75.9,162.8,76.1,162.8,76.5L162.8,76.5z"/>
			</g>
		</g>
		<g>
			<g>
				<path class="st2" d="M165.6,78.3c0.7,1.9,1,3.9,1,6c0,0.5,0.7,0.5,0.8,0c0-2.1-0.3-4.2-1-6.2C166.2,77.7,165.5,77.9,165.6,78.3
					L165.6,78.3z"/>
			</g>
		</g>
		<g>
			<g>
				<path class="st2" d="M168.5,79.4c0.7,1.9,0.9,3.9,0.5,5.9c-0.1,0.5,0.6,0.7,0.7,0.2c0.3-2.1,0.2-4.2-0.5-6.3
					C169.1,78.7,168.4,78.9,168.5,79.4L168.5,79.4z"/>
			</g>
		</g>
		<g>
			<g>
				<path class="st2" d="M171.3,81.8c0,1.9,0,3.8,0,5.7c0,0.5,0.8,0.5,0.8,0c0-1.9,0-3.8,0-5.7C172,81.3,171.3,81.3,171.3,81.8
					L171.3,81.8z"/>
			</g>
		</g>
		<g>
			<g>
				<path class="st2" d="M173.1,82.9c0.1,1.2,0.2,2.4,0.3,3.6c0,0.5,0.8,0.5,0.8,0c-0.1-1.2-0.2-2.4-0.3-3.6
					C173.9,82.4,173.1,82.4,173.1,82.9L173.1,82.9z"/>
			</g>
		</g>
		<g>
			<g>
				<path class="st2" d="M128.1,110.9c-0.9,4.4,0.3,8.8,3.4,12.2c0.3,0.4,0.9-0.2,0.5-0.5c-2.9-3.1-4-7.3-3.2-11.5
					C128.9,110.6,128.2,110.4,128.1,110.9L128.1,110.9z"/>
			</g>
		</g>
		<g>
			<g>
				<path class="st2" d="M132.5,110.6c-0.1,3.8,0.4,7.5,1.6,11.2c0.2,0.5,0.9,0.3,0.7-0.2c-1.2-3.6-1.7-7.2-1.6-11
					C133.3,110.2,132.5,110.2,132.5,110.6L132.5,110.6z"/>
			</g>
		</g>
		<g>
			<g>
				<path class="st2" d="M135.6,112.6c-0.6,3.2-0.1,6.4,1.4,9.3c0.2,0.4,0.9,0.1,0.6-0.4c-1.4-2.7-1.8-5.7-1.3-8.7
					C136.4,112.4,135.7,112.2,135.6,112.6L135.6,112.6z"/>
			</g>
		</g>
		<g>
			<g>
				<path class="st2" d="M137.1,112.8c0.1,2.7,0.3,5.3,0.9,7.9c0.1,0.5,0.8,0.3,0.7-0.2c-0.5-2.6-0.8-5.1-0.8-7.7
					C137.8,112.3,137,112.3,137.1,112.8L137.1,112.8z"/>
			</g>
		</g>
		<g>
			<g>
				<path class="st2" d="M140.3,153.6c-0.3,1.7,0,3.4,0.7,4.9c0.2,0.4,0.9,0.1,0.6-0.4c-0.6-1.4-0.9-2.8-0.6-4.3
					C141.1,153.3,140.4,153.1,140.3,153.6L140.3,153.6z"/>
			</g>
		</g>
		<g>
			<g>
				<path class="st2" d="M142.2,153c0.1,2.3,0.2,4.5,0.3,6.8c0,0.5,0.8,0.5,0.8,0c-0.1-2.3-0.2-4.5-0.3-6.8
					C142.9,152.5,142.2,152.5,142.2,153L142.2,153z"/>
			</g>
		</g>
		<g>
			<g>
				<path class="st2" d="M145.5,151.9c0.2,2.9,0.3,5.7,0.2,8.6c0,0.5,0.7,0.5,0.8,0c0.1-2.9,0.1-5.7-0.2-8.6
					C146.2,151.4,145.4,151.4,145.5,151.9L145.5,151.9z"/>
			</g>
		</g>
		<g>
			<g>
				<path class="st2" d="M147.4,150.2c0.4,3.2,0.5,6.4,0.4,9.6c0,0.5,0.7,0.5,0.8,0c0.1-3.2-0.1-6.4-0.4-9.6
					C148.1,149.7,147.3,149.7,147.4,150.2L147.4,150.2z"/>
			</g>
		</g>
		<g>
			<g>
				<path class="st2" d="M148.6,152c0.9,2.3,1.1,4.6,0.9,7.1c-0.1,0.5,0.7,0.5,0.8,0c0.3-2.5,0-4.9-0.9-7.3
					C149.2,151.3,148.5,151.5,148.6,152L148.6,152z"/>
			</g>
		</g>
		<g>
			<g>
				<path class="st2" d="M151,151.2c0,1.8,0,3.6,0,5.3c0,0.5,0.8,0.5,0.8,0c0-1.8,0-3.6,0-5.3C151.7,150.7,151,150.7,151,151.2
					L151,151.2z"/>
			</g>
		</g>
		<g>
			<g>
				<path class="st2" d="M152.1,150.6c0.3,1.6,0.4,3.2,0.2,4.9c0,0.5,0.7,0.5,0.8,0c0.2-1.7,0.1-3.4-0.2-5.1
					C152.8,149.9,152.1,150.1,152.1,150.6L152.1,150.6z"/>
			</g>
		</g>
		<g>
			<g>
				<path class="st2" d="M169.5,164.8c0,4.7,0,9.8-2.9,13.8s-7.7,4.9-12.4,4.7c-0.5,0-0.5,0.7,0,0.8c4.7,0.2,9.5-0.6,12.6-4.4
					c3.4-4.2,3.4-9.7,3.4-14.8C170.2,164.3,169.5,164.3,169.5,164.8L169.5,164.8z"/>
			</g>
		</g>
		<g>
			<g>
				<path class="st2" d="M171.7,171.2c1.3,3.7-2.3,6.7-4.7,9.1c-2.4,2.3-5,4.3-8.2,5.1c-0.5,0.1-0.3,0.9,0.2,0.7
					c4-1.1,7-3.7,9.9-6.6c2.3-2.3,4.8-5,3.6-8.5C172.3,170.6,171.5,170.8,171.7,171.2L171.7,171.2z"/>
			</g>
		</g>
		<g>
			<g>
				<path class="st2" d="M170.1,178.8c-2.3,2.8-5.3,4.7-8.9,5.4c-0.5,0.1-0.3,0.8,0.2,0.7c3.7-0.8,6.8-2.7,9.2-5.6
					C170.9,179,170.4,178.4,170.1,178.8L170.1,178.8z"/>
			</g>
		</g>
		<g>
			<g>
				<path class="st2" d="M147.2,188.6c-4.5-0.7-3.5,6.3-2.9,8.7c0.1,0.5,0.8,0.3,0.7-0.2c-0.4-1.7-1.6-8.3,2-7.8
					C147.4,189.4,147.7,188.7,147.2,188.6L147.2,188.6z"/>
			</g>
		</g>
		<g>
			<g>
				<path class="st2" d="M141.3,193.6c0.2,1.8,1,3.3,2.3,4.5c0.4,0.3,0.9-0.2,0.5-0.5c-1.2-1-1.9-2.4-2.1-4
					C142,193.1,141.2,193.1,141.3,193.6L141.3,193.6z"/>
			</g>
		</g>
		<g>
			<g>
				<path class="st2" d="M139.5,193.3c0.7,2.1,2.4,3.8,4.6,4.3c0.5,0.1,0.7-0.6,0.2-0.7c-1.9-0.4-3.5-1.8-4.1-3.7
					C140.1,192.7,139.4,192.9,139.5,193.3L139.5,193.3z"/>
			</g>
		</g>
		<g>
			<g>
				<path class="st2" d="M132.4,104.4c-3.2,5.1-3.3,11.3-0.4,16.5c0.2,0.4,0.9,0,0.6-0.4c-2.8-5-2.6-10.9,0.4-15.8
					C133.3,104.4,132.6,104,132.4,104.4L132.4,104.4z"/>
			</g>
		</g>
	</g>
	<g>
		<path class="st2" d="M19,8.6C19,8.8,18.9,9,18.7,9c-0.2,0-0.3-0.1-0.4-0.2l-6.6,1.8c-0.2,0.3-0.4,0.6-0.7,0.8l-0.9,7
			c0.1,0,0.3,0.2,0.3,0.3c0,0.2-0.1,0.4-0.3,0.4S9.7,19,9.7,18.8s0.1-0.3,0.2-0.4l-1.8-6.8C8,11.4,8,11.4,7.9,11.3
			c-0.2-0.1-0.3-0.3-0.5-0.5L0.6,10c0,0.1-0.2,0.3-0.3,0.3c-0.2,0-0.4-0.1-0.4-0.3S0,9.6,0.2,9.6s0.3,0.1,0.4,0.2L7.3,8
			c0.1-0.1,0.2-0.2,0.3-0.3c0.1-0.1,0.1-0.1,0.2-0.2l0.9-7c-0.1,0-0.3-0.2-0.3-0.3c0-0.2,0.1-0.4,0.3-0.4s0.4,0.1,0.4,0.3
			S9,0.4,8.9,0.5l1.8,6.7c0.2,0.1,0.5,0.3,0.7,0.5l6.9,0.9c0-0.1,0.2-0.3,0.3-0.3C18.8,8.2,19,8.4,19,8.6z"/>
	</g>
</g>
</svg>
