<?xml version="1.0" encoding="utf-8"?>
<!-- Generator: Adobe Illustrator 22.0.1, SVG Export Plug-In . SVG Version: 6.00 Build 0)  -->
<svg version="1.1" id="圖層_1" xmlns="http://www.w3.org/2000/svg" xmlns:xlink="http://www.w3.org/1999/xlink" x="0px" y="0px"
	 viewBox="0 0 194.1 211.8" style="enable-background:new 0 0 194.1 211.8;" xml:space="preserve">
<style type="text/css">
	.st0{fill:none;stroke:#534741;stroke-width:2;stroke-miterlimit:10;}
	.st1{fill:#FFFFFF;stroke:#534741;stroke-miterlimit:10;}
	.st2{fill:#534741;}
</style>
<g>
	<line class="st0" x1="9.5" y1="11.5" x2="11.6" y2="52.7"/>
	<g>
		<path class="st1" d="M133.5,62.5c-0.9,9.4,37.2,13.6,42.7,23.3c0.1,0.1,0.3,0.1,0.3-0.1l-1-22.2c0,0,0-0.2,0-0.5
			c-0.4-0.5-1.1-1-2-1.5c-6.3-3.1-18.7-6.5-29-12L133.5,62.5z"/>
		<path class="st1" d="M139.5,157.8c0,0.2,0,0.5,0,0.7c0,10,29-1,29,9c0,26-32,14-32,25c0,8,13.8,6,8.1,18.8
			c10.5-8.8-0.1-8.3,0.9-13.8c1.8-9.8,28-2,28-26c0-18.9-20-21.7-30-19C141.9,152.9,139.6,155,139.5,157.8z"/>
		<path class="st1" d="M11,26.7"/>
		<path class="st1" d="M193.3,47c0.1-0.2,0.2-0.3,0.2-0.5l-1.9-27.7c0-0.4-0.5-0.5-0.8-0.3c-4.9,4.2-31.3-2.3-46.3-7
			c-16-5-42-3-51-1s-10,11-22,17c-15.2,7.6-54,0-62-1c-2.3-0.3-4-1.8-4.7-2.5c-0.1-0.1-0.3,0-0.2,0.1c0.3,3.4,1.6,24.2,1.9,27.8
			C6.6,52.4,6.7,53,6.7,53c0.3,1.2,1.7,2.2,4.8,2.6c8,1,57.8,8.6,73,1c12-6,9-12,18-14s32-3,48,2C166,49.3,190,52.3,193.3,47z"/>
		<path class="st1" d="M131.6,42.2l1.9,21.3c0,0.3,0.4,0.4,0.5,0.1c1.7-3.3,9-14.1,15.6-18.4c0.4-0.2,0.2-0.8-0.2-0.8l-17.2-2.8
			C131.8,41.6,131.5,41.8,131.6,42.2z"/>
		<path class="st1" d="M162.5,77.5c-3.5,0-8.7,2.8-11,4c-10,5-28,12-27,31s21,14,21,24c0,7-8,5-8,11c0,0.5,0.1,0.9,0.2,1.2
			c0.4,2.1,1.1,6.7,1.5,8.5c0.1,0.3,0.4,0.3,0.5,0c2.8-8.1,22.7-9.4,22.7-16.8c0-11-23-13-23-21c0-11,1-15,11-20s26-1,26-12
			C176.5,83.5,167.1,77.6,162.5,77.5z"/>
		<path class="st1" d="M191.6,17c0.4-5.5-23.4-6.4-34.1-5.5c-2.3,0.2-4.6,0.8-7,1.8c16.3,4.7,39.2,9.5,41,4.2
			C191.6,17.3,191.6,17.1,191.6,17z"/>
		<path class="st1" d="M7,20.2c1-0.7,2.1-1.3,3.5-1.7v8v0.1c-0.4-0.1-0.7-0.1-1-0.1C3.3,25.7,3.7,22.5,7,20.2z"/>
	</g>
	<g>
		<path class="st2" d="M48.6,53.9l-2.1-0.1c0.2-1.4,0.3-3,0.4-5l0.2-7.8c-0.5,0.9-1,1.7-1.6,2.8c-0.3-0.6-0.8-1.3-1.3-1.9
			c1.1-1,2-2.5,2.9-4.6c0.6-1.4,1.1-3.2,1.5-4.8c0.8,0.3,1.3,0.5,2.2,0.7c0.5,0.1,0.5,0.3,0,0.7c-0.2,0.2-0.5,0.7-1.7,3.1L48.6,53.9
			z M50.8,36.8l0.1-1.8c1.3,0.1,3,0.2,5.1,0.3c0.3-0.8,0.6-1.9,0.7-2.6c0.8,0.3,1.6,0.5,2.2,0.5c0.2,0,0.3,0.2,0.1,0.4
			c-0.3,0.2-0.8,1.1-1.1,1.8c2.9,0.1,6.2,0.1,7.8,0.1l-0.1,1.8c-1.1-0.1-3-0.2-5-0.3c1.1,2.1,3.1,3.6,5.8,4.3
			c-0.8,0.6-1.2,1.1-1.6,2.1c-0.6-0.4-1.1-0.7-1.6-1.1c-0.1,0.5-0.1,1.2-0.2,1.9l-0.1,2.6c0,1.1,0,1.7,0.1,2.7l-4.9-0.1V51
			c0,1.4,0.3,1.8,2.3,1.8c2.6,0.1,3.1-0.2,3.6-2.4c0.6,0.8,1.2,1.1,1.9,1.1c-1,2.7-1.4,2.9-5.5,2.8c-3.8-0.1-4-0.5-4-2.9l0.1-2.1
			l-3-0.1l-0.1,2l-1.9-0.1c0.2-1.1,0.3-2,0.3-3.1l0.2-5.7c-0.5,0.4-1,0.9-1.6,1.3c-0.5-0.9-0.8-1.3-1.3-1.8c2.8-1.5,4.8-3,6.1-5.2
			C53.4,36.7,51.9,36.7,50.8,36.8z M57.1,36.8c-0.9,1.6-2.2,3-4.2,4.8l3.7,0.1c0-1,0-2.2-0.1-2.6c0.8,0.2,1.2,0.3,2,0.3
			c0.4,0,0.4,0.3,0.1,0.5c-0.3,0.2-0.3,0.4-0.3,0.8v1.1l4.4,0.1c-1.9-1.5-2.6-2.7-3.4-5L57.1,36.8z M56.5,46.1l-3-0.1l-0.1,1.8
			l3,0.1L56.5,46.1z M56.6,43l-3-0.1v1.8l3,0.1V43z M58.1,48l3.1,0.1l0.1-1.8l-3.1-0.1L58.1,48z M58.2,44.8l3.1,0.1v-1.8L58.2,43
			V44.8z"/>
		<path class="st2" d="M78.7,34.8c0,0.2-0.1,0.5-0.4,0.6c2.6,7.5,2.8,13.6-0.9,15.3c-2.1,1-4.7-0.1-6.4-3.7
			c-2.6-5.4-0.4-11.6,5.3-14.3c6.2-3,11-0.6,13.1,3.9c2.5,5.1,0.9,9-3.8,12.9c-0.6-0.3-1.4-0.9-2.2-1.2c4.5-3.3,5.6-6.8,3.8-10.6
			c-1.7-3.5-5.4-5.2-9.9-3c-0.3,0.1-0.6,0.3-0.9,0.5L78.7,34.8z M75.7,35.8c-3.5,2.5-4.3,6.8-2.7,10.3c1,2.1,2.4,3,3.4,2.6
			C78.8,47.5,77.9,41.5,75.7,35.8z"/>
		<path class="st2" d="M95.1,21.1c-0.9-0.7-2.7-1.7-4-2.2l1.2-1.7c1.3,0.7,2.9,1.5,4.1,2.2L95.1,21.1z M95.2,26.9
			c-1-0.6-2.8-1.3-4.1-1.5l0.8-1.9c1.2,0.4,3,1.1,4.2,1.5L95.2,26.9z M96.3,33.6c-0.3,1.7-0.4,3.1-0.4,4.6c-0.9-0.6-1.9-1-2.6-1.2
			c0.4-1.1,0.6-1.8,1-4.1c0.3-2,0.4-2.7,0.5-4c0.5,0.5,1.3,0.9,2.1,1.1C96.6,30.8,96.5,31.8,96.3,33.6z M97.8,24
			c-0.5-0.3-1.3-0.5-1.9-0.4c1.3-2,2.8-5.8,3.2-8.3c0.5,0.1,2,0.3,2.6,0.3c0.3,0,0.4,0.3,0,0.4c-0.3,0.1-0.5,0.3-1.1,1.7l6.5-1.3
			c1.6-0.3,2.5-0.6,3.4-0.9l0.4,1.9c-0.8,0.1-2.1,0.3-3.5,0.6l-7.5,1.5c-0.3,0.7-0.7,1.6-1,2.4l5.6-1.1c2-0.4,3.9-0.9,5.1-1.2
			l0.7,5.5c0.9-0.2,1.8-0.4,2.4-0.6l0.4,1.8c-0.7,0-1.6,0.2-2.6,0.3l0.5,4.1c0.8-0.2,1.4-0.4,1.9-0.5l0.4,1.9
			c-0.5,0-1.1,0.1-2.1,0.2c0.3,2.3,0.2,2.9-3,4.2c-0.2-0.7-0.8-1.3-1.5-1.8c2.3-0.4,2.6-0.9,2.6-2.1l-5.7,1.1
			c-1.8,0.4-2.5,0.5-3.8,0.9l-0.5-5.8c-0.8,0.2-1.6,0.4-2.1,0.6l-0.4-1.8c0.6-0.1,1.5-0.2,2.4-0.3L98.7,22
			C98.4,22.7,98.1,23.4,97.8,24z M108.4,25.4l-0.5-3.9l-7.2,1.4l0.3,4L108.4,25.4z M101.2,28.3l0.3,4.1l7.6-1.5l-0.5-4.1L101.2,28.3
			z M104.3,25.7c-0.2-0.6-0.8-1.6-1.3-2l1.7-0.8c0.5,0.6,1.1,1.4,1.5,2.1L104.3,25.7z M105,31.4c-0.1-0.6-1-2-1.4-2.5l1.7-0.8
			c0.5,0.7,1.2,1.9,1.5,2.5L105,31.4z"/>
		<path class="st2" d="M119.4,32c-1,1.3-1.5,2-2.3,2.9c-0.5-0.5-0.9-0.8-1.6-1.1c1.5-1.3,2.3-2.3,3.3-4.1c0.4,0.4,1.2,0.8,1.5,1
			c0.4,0.1,0.4,0.3,0.1,0.4C120.2,31.1,119.8,31.5,119.4,32z M120.7,29.7c-2.2-0.1-2.8-0.1-3.5-0.1c0.1-0.5,0.1-1.5,0.2-2.4l0.4-10
			c0-0.9,0.1-2,0-2.4c0.7,0.1,1.3,0.2,3.5,0.3s2.8,0.1,3.6,0c-0.1,0.4-0.1,1.5-0.2,2.4l-0.4,10c0,0.9,0,2,0,2.4
			C123.5,29.9,122.9,29.8,120.7,29.7z M122.6,25.3l-3.5-0.2L119,28l3.5,0.2L122.6,25.3z M122.8,21l-3.5-0.2l-0.1,2.7l3.5,0.2
			L122.8,21z M123,16.7l-3.5-0.1l-0.1,2.8l3.5,0.2L123,16.7z M125,26.4l0.1-2.1c0.6,0.1,1.3,0.2,2.2,0.3V24c0-1,0-1.7-0.1-2.6
			c1.1,0.2,1.7,0.2,2.2,0.2c0.4,0,0.5,0.2,0.2,0.4c-0.4,0.2-0.6,0.5-0.6,1.2l-0.1,1.5c0.9,0,1.5,0,2-0.1l-0.1,2.1
			c-0.5-0.1-1.1-0.2-2-0.3c-0.2,3.8-1.1,6.3-3.2,8.5c-0.2-0.4-0.5-0.7-0.9-0.9l-1.4,0.8c-0.2-1-1.5-2.9-2.4-3.8l1.6-0.9
			c0.9,1.2,1.7,2.2,2.2,3c1.8-1.7,2.3-3.5,2.5-6.8C126.2,26.3,125.6,26.3,125,26.4z M125.5,20.7l0.1-1.9c1,0.1,3.5,0.3,5.9,0.4
			c0-0.5,0-0.9,0-1.1c0.1-2.5,0.1-3.1-0.1-3.9c0.7,0.2,1.5,0.3,2.2,0.3c0.6,0,0.6,0.1,0.2,0.6c-0.4,0.4-0.5,1.3-0.5,4.3
			c2,0.1,4,0.1,4.8,0l-0.1,1.9c-0.8-0.2-2.8-0.3-4.8-0.4c-0.1,3.6,0,5.7,0.2,7.5c1-1.6,1.6-3.6,2.2-6.1c0.7,0.4,1.3,0.7,1.9,0.8
			c0.3,0.1,0.3,0.2,0,0.4c-0.1,0.1-0.3,0.3-0.9,1.7c-1.1,2.4-1.9,4-2.7,5.2c0.2,0.5,0.4,1,0.6,1.4c0.9,1.6,1.1,1.5,1.1-0.4
			c0.6,0.7,1,0.9,2,1.2c-0.6,2.8-1,3.6-1.7,3.6c-0.6,0-1.2-0.6-2.6-2.8c-0.3-0.5-0.6-0.9-0.8-1.4c-0.8,0.9-1.8,1.7-2.9,2.6
			c-0.4-0.7-0.8-1-1.6-1.4c1.6-1,2.9-1.9,3.9-3c-0.4-1.8-0.5-5.2-0.5-9.5C129.1,20.6,126.6,20.6,125.5,20.7z M135.8,19.2
			c-0.5-1.1-1.1-2.1-1.9-2.8l1.6-1c0.9,0.9,1.6,1.8,2.1,2.8L135.8,19.2z"/>
		<path class="st2" d="M148.3,16c0.7,0.4,1.4,0.6,2.1,0.9c0.3,0.1,0.4,0.3,0,0.4c-0.3,0.2-0.7,0.4-1.6,1.8c2.4,0.7,3.2,0.8,3.8,0.9
			c-0.4,0.7-0.6,1.5-1,2.9l-3.9,13.4c-0.3,1-0.5,1.3-3.5,1.1c0.2-0.7,0.1-1.7-0.4-2.4c2,0.7,2.2,0.7,2.5-0.3l1.9-6.6l-3.8-1.1
			c-1.7,5.9-2.2,6.9-4.6,9.3c-0.1-0.8-0.6-1.5-1-2c1.9-1.6,2.3-1.9,3.9-7.8c-0.6-0.1-1.2-0.3-1.6-0.3l0.5-1.8c0.4,0.2,1,0.4,1.5,0.6
			l1.2-4.2c0.4-1.5,0.6-2.3,0.7-3c0.5,0.2,1.1,0.4,1.9,0.7C147.6,17.6,148,16.8,148.3,16z M144.1,32.5c0.4-1.1,0.8-2.6,1.1-3.8
			l1.4,0.4c-0.3,1.1-0.7,2.6-1,3.8L144.1,32.5z M148.6,26.7l1.6-5.6l-3.8-1.1l-1.6,5.6L148.6,26.7z M146.2,24.9
			c0.4-1.1,0.8-2.5,0.9-3.6l1.5,0.4c-0.3,1-0.6,2.3-0.9,3.6L146.2,24.9z M150.6,39.8l-1.9-0.5c0.5-1.2,0.7-1.9,1.1-3l1.4-5
			c0.2-0.9,0.4-1.7,0.5-2.4c0.8,0.4,1.8,0.7,4.6,1.5c2.9,0.8,3.5,0.9,4.2,1c-0.3,0.6-0.6,1.4-0.9,2.3l-1.3,4.6
			c-0.3,1.1-0.5,2-0.7,3.1l-2-0.6l0.6-2l-4.9-1.4L150.6,39.8z M162.1,30.4c-3.9-1-4-1.2-3.6-2.7l1.4-4.8l-3.2-0.9
			c-1,3.6-2,5-4.5,6.5c-0.2-0.8-0.6-1.4-1.3-1.9c2.2-0.4,3.6-2.4,4.5-7c0.8,0.4,1.9,0.8,3.5,1.2c1.6,0.5,2.8,0.7,3.7,0.8
			c-0.4,0.5-0.9,2-1.9,5.3c-0.3,1.1,0.1,1.5,2.5,1.5C162.5,29.1,162.1,29.8,162.1,30.4z M157.9,32.7l-4.9-1.4l-1.3,4.6l4.9,1.4
			L157.9,32.7z"/>
	</g>
	<g>
		<g>
			<g>
				<path class="st2" d="M6.4,20.5c-0.1,1.4-0.1,2.8,0.1,4.2c0.1,0.5,0.8,0.3,0.7-0.2c-0.2-1.3-0.2-2.6-0.1-4
					C7.2,20,6.4,20,6.4,20.5L6.4,20.5z"/>
			</g>
		</g>
		<g>
			<g>
				<path class="st2" d="M8.2,19.8c-0.1,2,0,4,0.1,6.1c0,0.5,0.8,0.5,0.8,0c-0.1-2-0.1-4-0.1-6.1C9,19.3,8.3,19.3,8.2,19.8L8.2,19.8
					z"/>
			</g>
		</g>
		<g>
			<g>
				<path class="st2" d="M153.9,12.5c0,0.5,0,1.1,0,1.6s0.8,0.5,0.8,0s0-1.1,0-1.6S153.9,12,153.9,12.5L153.9,12.5z"/>
			</g>
		</g>
		<g>
			<g>
				<path class="st2" d="M155.1,12.2c0.1,0.9,0.2,1.7,0.1,2.6c0,0.5,0.7,0.5,0.8,0c0-0.9,0-1.9-0.2-2.8
					C155.8,11.5,155.1,11.7,155.1,12.2L155.1,12.2z"/>
			</g>
		</g>
		<g>
			<g>
				<path class="st2" d="M157.3,12.2c0.1,0.9,0.2,1.7,0.1,2.6c0,0.5,0.7,0.5,0.8,0c0.1-0.9,0-1.9-0.1-2.8
					C158,11.5,157.3,11.7,157.3,12.2L157.3,12.2z"/>
			</g>
		</g>
		<g>
			<g>
				<path class="st2" d="M159.6,12.1c0,1.3,0,2.6,0,3.9c0,0.5,0.8,0.5,0.8,0c0-1.3,0-2.6,0-3.9C160.3,11.6,159.6,11.6,159.6,12.1
					L159.6,12.1z"/>
			</g>
		</g>
		<g>
			<g>
				<path class="st2" d="M162.4,12.8c0,1.4,0,2.7,0,4.1c0,0.5,0.8,0.5,0.8,0c-0.1-1.4-0.1-2.7,0-4.1
					C163.2,12.3,162.5,12.3,162.4,12.8L162.4,12.8z"/>
			</g>
		</g>
		<g>
			<g>
				<path class="st2" d="M164.3,13.2c0.2,1.3,0.3,2.5,0.2,3.8c0,0.5,0.7,0.5,0.8,0c0.1-1.4,0-2.7-0.3-4
					C165,12.5,164.2,12.7,164.3,13.2L164.3,13.2z"/>
			</g>
		</g>
		<g>
			<g>
				<path class="st2" d="M167.9,12.8c0.1,1.6,0,3.1-0.2,4.6c-0.1,0.5,0.6,0.7,0.7,0.2c0.3-1.6,0.4-3.2,0.2-4.8
					C168.7,12.3,167.9,12.3,167.9,12.8L167.9,12.8z"/>
			</g>
		</g>
		<g>
			<g>
				<path class="st2" d="M170.8,13.7c-0.2,1.7-0.3,3.3-0.3,5c0,0.5,0.7,0.5,0.8,0c0-1.7,0.1-3.3,0.3-5
					C171.6,13.2,170.8,13.3,170.8,13.7L170.8,13.7z"/>
			</g>
		</g>
		<g>
			<g>
				<path class="st2" d="M172.8,13.4c0.3,1.9,0.4,3.7,0.1,5.6c-0.1,0.5,0.7,0.7,0.7,0.2c0.3-2,0.3-4-0.1-6
					C173.5,12.7,172.7,12.9,172.8,13.4L172.8,13.4z"/>
			</g>
		</g>
		<g>
			<g>
				<path class="st2" d="M176,13c0.5,0.7,0.2,2.3,0.1,3.1c-0.1,1.1-0.2,2.2-0.4,3.2c-0.1,0.5,0.6,0.7,0.7,0.2
					c0.2-1.3,0.4-2.6,0.4-3.9c0.1-0.9,0.3-2.1-0.3-3C176.3,12.2,175.7,12.6,176,13L176,13z"/>
			</g>
		</g>
		<g>
			<g>
				<path class="st2" d="M179.9,13.6c-0.1,1.8-0.2,3.6-0.3,5.4c0,0.5,0.7,0.5,0.8,0c0.1-1.8,0.2-3.6,0.3-5.4
					C180.6,13.1,179.9,13.1,179.9,13.6L179.9,13.6z"/>
			</g>
		</g>
		<g>
			<g>
				<path class="st2" d="M182.9,13.8c-0.3,0-0.1,2.1-0.1,2.4c-0.1,0.9-0.2,1.8-0.4,2.7c-0.1,0.5,0.6,0.7,0.7,0.2
					c0.2-0.9,1.4-6.3-0.4-6C182.2,13.2,182.4,13.9,182.9,13.8L182.9,13.8z"/>
			</g>
		</g>
		<g>
			<g>
				<path class="st2" d="M184.8,14.4c0,1.8,0,3.5,0,5.3c0,0.5,0.8,0.5,0.8,0c0-1.8,0-3.5,0-5.3C185.6,13.9,184.8,13.9,184.8,14.4
					L184.8,14.4z"/>
			</g>
		</g>
		<g>
			<g>
				<path class="st2" d="M187.1,16.4c0.2,1,0.3,2.1,0.2,3.1c0,0.5,0.7,0.5,0.8,0c0.1-1.1,0-2.2-0.2-3.3
					C187.7,15.7,187,15.9,187.1,16.4L187.1,16.4z"/>
			</g>
		</g>
		<g>
			<g>
				<path class="st2" d="M188.6,16.7c0,0.6,0.1,1.2,0.1,1.8c0,0.5,0.8,0.5,0.8,0c0-0.6-0.1-1.2-0.1-1.8
					C189.3,16.2,188.6,16.2,188.6,16.7L188.6,16.7z"/>
			</g>
		</g>
		<g>
			<g>
				<path class="st2" d="M132.4,42.2c0.1,2,0.1,4,0.2,6.1c0.1,1.6,0,3.2,0.5,4.7c0.2,0.5,0.9,0.3,0.7-0.2c-0.6-1.7-0.5-3.6-0.5-5.3
					c-0.1-1.8-0.1-3.5-0.2-5.3C133.1,41.7,132.4,41.7,132.4,42.2L132.4,42.2z"/>
			</g>
		</g>
		<g>
			<g>
				<path class="st2" d="M134.5,42.1c0.2,3.3,0.4,6.6,0.7,9.9c0,0.5,0.8,0.5,0.8,0c-0.3-3.3-0.5-6.6-0.7-9.9
					C135.3,41.6,134.5,41.6,134.5,42.1L134.5,42.1z"/>
			</g>
		</g>
		<g>
			<g>
				<path class="st2" d="M136.7,42.1c0.3,2.4,0.4,4.8,0.2,7.3c0,0.5,0.7,0.5,0.8,0c0.1-2.4,0.1-4.9-0.2-7.3
					C137.4,41.6,136.7,41.6,136.7,42.1L136.7,42.1z"/>
			</g>
		</g>
		<g>
			<g>
				<path class="st2" d="M138.7,43.2c0,1.7,0,3.4,0,5.1c0,0.5,0.8,0.5,0.8,0c0-1.7,0-3.4,0-5.1C139.4,42.7,138.7,42.7,138.7,43.2
					L138.7,43.2z"/>
			</g>
		</g>
		<g>
			<g>
				<path class="st2" d="M141,44.2c0,0.7,0.1,1.4,0.1,2.2c0,0.5,0.8,0.5,0.8,0c0-0.7-0.1-1.4-0.1-2.2
					C141.7,43.8,140.9,43.8,141,44.2L141,44.2z"/>
			</g>
		</g>
		<g>
			<g>
				<path class="st2" d="M143.4,44.4c0,0.4,0.1,0.9,0.1,1.3c0.1,0.5,0.8,0.5,0.8,0c0-0.4-0.1-0.9-0.1-1.3
					C144.1,43.9,143.3,43.9,143.4,44.4L143.4,44.4z"/>
			</g>
		</g>
		<g>
			<g>
				<path class="st2" d="M145.3,43.8c0.1,0.4,0.2,0.7,0.3,1.1c0.1,0.5,0.8,0.3,0.7-0.2c-0.1-0.4-0.2-0.7-0.3-1.1
					C145.9,43.1,145.2,43.3,145.3,43.8L145.3,43.8z"/>
			</g>
		</g>
		<g>
			<g>
				<path class="st2" d="M136.2,59.8c-0.1,0.7,0,1.4,0.1,2.1c0.1,0.5,0.8,0.3,0.7-0.2c-0.1-0.6-0.2-1.2-0.1-1.9
					C137,59.4,136.3,59.4,136.2,59.8L136.2,59.8z"/>
			</g>
		</g>
		<g>
			<g>
				<path class="st2" d="M137.8,57.3c0,1.2,0.1,2.3,0.3,3.5c0.1,0.5,0.8,0.3,0.7-0.2c-0.2-1.1-0.3-2.2-0.3-3.3
					C138.6,56.9,137.8,56.9,137.8,57.3L137.8,57.3z"/>
			</g>
		</g>
		<g>
			<g>
				<path class="st2" d="M139.6,54.9c0.4,1.5,0.5,3.1,0.1,4.6c-0.1,0.5,0.6,0.7,0.7,0.2c0.3-1.7,0.3-3.3-0.1-5
					C140.2,54.3,139.5,54.5,139.6,54.9L139.6,54.9z"/>
			</g>
		</g>
		<g>
			<g>
				<path class="st2" d="M142.4,52.2c-0.2,2.1-0.2,4.2-0.1,6.2c0,0.5,0.8,0.5,0.8,0c-0.1-2.1,0-4.2,0.1-6.2
					C143.2,51.7,142.4,51.7,142.4,52.2L142.4,52.2z"/>
			</g>
		</g>
		<g>
			<g>
				<path class="st2" d="M144,50.2c0.1,2.7,0.2,5.3,0.3,8c0,0.5,0.8,0.5,0.8,0c-0.1-2.7-0.2-5.3-0.3-8C144.7,49.7,144,49.7,144,50.2
					L144,50.2z"/>
			</g>
		</g>
		<g>
			<g>
				<path class="st2" d="M145.7,51.4c0.4,1.8,0.6,3.6,0.6,5.4c0,0.5,0.8,0.5,0.8,0c0-1.9-0.2-3.8-0.6-5.6
					C146.3,50.7,145.6,50.9,145.7,51.4L145.7,51.4z"/>
			</g>
		</g>
		<g>
			<g>
				<path class="st2" d="M147.6,52.5c0.2,0.8,0.4,1.6,0.4,2.4c0,0.5,0.7,0.5,0.8,0c0-0.9-0.1-1.7-0.4-2.6
					C148.2,51.8,147.5,52,147.6,52.5L147.6,52.5z"/>
			</g>
		</g>
		<g>
			<g>
				<path class="st2" d="M160.5,77.1c0.1,1.4,0.3,2.8,0.4,4.3c0,0.5,0.8,0.5,0.8,0c-0.1-1.4-0.3-2.8-0.4-4.3
					C161.2,76.6,160.5,76.6,160.5,77.1L160.5,77.1z"/>
			</g>
		</g>
		<g>
			<g>
				<path class="st2" d="M162.8,77.5c0.4,2,0.7,4.1,1.1,6.1c0.1,0.5,0.8,0.3,0.7-0.2c-0.4-2-0.7-4.1-1.1-6.1
					C163.5,76.9,162.8,77.1,162.8,77.5L162.8,77.5z"/>
			</g>
		</g>
		<g>
			<g>
				<path class="st2" d="M165.6,79.3c0.7,1.9,1,3.9,1,6c0,0.5,0.7,0.5,0.8,0c0-2.1-0.3-4.2-1-6.2C166.2,78.7,165.5,78.9,165.6,79.3
					L165.6,79.3z"/>
			</g>
		</g>
		<g>
			<g>
				<path class="st2" d="M168.5,80.4c0.7,1.9,0.9,3.9,0.5,5.9c-0.1,0.5,0.6,0.7,0.7,0.2c0.3-2.1,0.2-4.2-0.5-6.3
					C169.1,79.7,168.4,79.9,168.5,80.4L168.5,80.4z"/>
			</g>
		</g>
		<g>
			<g>
				<path class="st2" d="M171.3,82.8c0,1.9,0,3.8,0,5.7c0,0.5,0.8,0.5,0.8,0c0-1.9,0-3.8,0-5.7C172,82.3,171.3,82.3,171.3,82.8
					L171.3,82.8z"/>
			</g>
		</g>
		<g>
			<g>
				<path class="st2" d="M173.1,83.9c0.1,1.2,0.2,2.4,0.3,3.6c0,0.5,0.8,0.5,0.8,0c-0.1-1.2-0.2-2.4-0.3-3.6
					C173.9,83.4,173.1,83.4,173.1,83.9L173.1,83.9z"/>
			</g>
		</g>
		<g>
			<g>
				<path class="st2" d="M128.1,111.9c-0.9,4.4,0.3,8.8,3.4,12.2c0.3,0.4,0.9-0.2,0.5-0.5c-2.9-3.1-4-7.3-3.2-11.5
					C128.9,111.6,128.2,111.4,128.1,111.9L128.1,111.9z"/>
			</g>
		</g>
		<g>
			<g>
				<path class="st2" d="M132.5,111.6c-0.1,3.8,0.4,7.5,1.6,11.2c0.2,0.5,0.9,0.3,0.7-0.2c-1.2-3.6-1.7-7.2-1.6-11
					C133.3,111.2,132.5,111.2,132.5,111.6L132.5,111.6z"/>
			</g>
		</g>
		<g>
			<g>
				<path class="st2" d="M135.6,113.6c-0.6,3.2-0.1,6.4,1.4,9.3c0.2,0.4,0.9,0.1,0.6-0.4c-1.4-2.7-1.8-5.7-1.3-8.7
					C136.4,113.4,135.7,113.2,135.6,113.6L135.6,113.6z"/>
			</g>
		</g>
		<g>
			<g>
				<path class="st2" d="M137.1,113.8c0.1,2.7,0.3,5.3,0.9,7.9c0.1,0.5,0.8,0.3,0.7-0.2c-0.5-2.6-0.8-5.1-0.8-7.7
					C137.8,113.3,137,113.3,137.1,113.8L137.1,113.8z"/>
			</g>
		</g>
		<g>
			<g>
				<path class="st2" d="M140.3,154.6c-0.3,1.7,0,3.4,0.7,4.9c0.2,0.4,0.9,0.1,0.6-0.4c-0.6-1.4-0.9-2.8-0.6-4.3
					C141.1,154.3,140.4,154.1,140.3,154.6L140.3,154.6z"/>
			</g>
		</g>
		<g>
			<g>
				<path class="st2" d="M142.2,154c0.1,2.3,0.2,4.5,0.3,6.8c0,0.5,0.8,0.5,0.8,0c-0.1-2.3-0.2-4.5-0.3-6.8
					C142.9,153.5,142.2,153.5,142.2,154L142.2,154z"/>
			</g>
		</g>
		<g>
			<g>
				<path class="st2" d="M145.5,152.9c0.2,2.9,0.3,5.7,0.2,8.6c0,0.5,0.7,0.5,0.8,0c0.1-2.9,0.1-5.7-0.2-8.6
					C146.2,152.4,145.4,152.4,145.5,152.9L145.5,152.9z"/>
			</g>
		</g>
		<g>
			<g>
				<path class="st2" d="M147.4,151.2c0.4,3.2,0.5,6.4,0.4,9.6c0,0.5,0.7,0.5,0.8,0c0.1-3.2-0.1-6.4-0.4-9.6
					C148.1,150.7,147.3,150.7,147.4,151.2L147.4,151.2z"/>
			</g>
		</g>
		<g>
			<g>
				<path class="st2" d="M148.6,153c0.9,2.3,1.1,4.6,0.9,7.1c-0.1,0.5,0.7,0.5,0.8,0c0.3-2.5,0-4.9-0.9-7.3
					C149.2,152.3,148.5,152.5,148.6,153L148.6,153z"/>
			</g>
		</g>
		<g>
			<g>
				<path class="st2" d="M151,152.2c0,1.8,0,3.6,0,5.3c0,0.5,0.8,0.5,0.8,0c0-1.8,0-3.6,0-5.3C151.7,151.7,151,151.7,151,152.2
					L151,152.2z"/>
			</g>
		</g>
		<g>
			<g>
				<path class="st2" d="M152.1,151.6c0.3,1.6,0.4,3.2,0.2,4.9c0,0.5,0.7,0.5,0.8,0c0.2-1.7,0.1-3.4-0.2-5.1
					C152.8,150.9,152.1,151.1,152.1,151.6L152.1,151.6z"/>
			</g>
		</g>
		<g>
			<g>
				<path class="st2" d="M169.5,165.8c0,4.7,0,9.8-2.9,13.8s-7.7,4.9-12.4,4.7c-0.5,0-0.5,0.7,0,0.8c4.7,0.2,9.5-0.6,12.6-4.4
					c3.4-4.2,3.4-9.7,3.4-14.8C170.2,165.3,169.5,165.3,169.5,165.8L169.5,165.8z"/>
			</g>
		</g>
		<g>
			<g>
				<path class="st2" d="M171.7,172.2c1.3,3.7-2.3,6.7-4.7,9.1c-2.4,2.3-5,4.3-8.2,5.1c-0.5,0.1-0.3,0.9,0.2,0.7
					c4-1.1,7-3.7,9.9-6.6c2.3-2.3,4.8-5,3.6-8.5C172.3,171.6,171.5,171.8,171.7,172.2L171.7,172.2z"/>
			</g>
		</g>
		<g>
			<g>
				<path class="st2" d="M170.1,179.8c-2.3,2.8-5.3,4.7-8.9,5.4c-0.5,0.1-0.3,0.8,0.2,0.7c3.7-0.8,6.8-2.7,9.2-5.6
					C170.9,180,170.4,179.4,170.1,179.8L170.1,179.8z"/>
			</g>
		</g>
		<g>
			<g>
				<path class="st2" d="M147.2,189.6c-4.5-0.7-3.5,6.3-2.9,8.7c0.1,0.5,0.8,0.3,0.7-0.2c-0.4-1.7-1.6-8.3,2-7.8
					C147.4,190.4,147.7,189.7,147.2,189.6L147.2,189.6z"/>
			</g>
		</g>
		<g>
			<g>
				<path class="st2" d="M141.3,194.6c0.2,1.8,1,3.3,2.3,4.5c0.4,0.3,0.9-0.2,0.5-0.5c-1.2-1-1.9-2.4-2.1-4
					C142,194.1,141.2,194.1,141.3,194.6L141.3,194.6z"/>
			</g>
		</g>
		<g>
			<g>
				<path class="st2" d="M139.5,194.3c0.7,2.1,2.4,3.8,4.6,4.3c0.5,0.1,0.7-0.6,0.2-0.7c-1.9-0.4-3.5-1.8-4.1-3.7
					C140.1,193.7,139.4,193.9,139.5,194.3L139.5,194.3z"/>
			</g>
		</g>
		<g>
			<g>
				<path class="st2" d="M132.4,105.4c-3.2,5.1-3.3,11.3-0.4,16.5c0.2,0.4,0.9,0,0.6-0.4c-2.8-5-2.6-10.9,0.4-15.8
					C133.3,105.4,132.6,105,132.4,105.4L132.4,105.4z"/>
			</g>
		</g>
	</g>
	<g>
		<path class="st2" d="M19,9.6c0,0.2-0.1,0.4-0.3,0.4c-0.2,0-0.3-0.1-0.4-0.2l-6.6,1.8c-0.2,0.3-0.4,0.6-0.7,0.8l-0.9,7
			c0.1,0,0.3,0.2,0.3,0.3c0,0.2-0.1,0.4-0.3,0.4S9.7,20,9.7,19.8c0-0.2,0.1-0.3,0.2-0.4l-1.8-6.8C8,12.4,8,12.4,7.9,12.3
			c-0.2-0.1-0.3-0.3-0.5-0.5L0.6,11c0,0.1-0.2,0.3-0.3,0.3c-0.2,0-0.4-0.1-0.4-0.3s0.1-0.4,0.3-0.4s0.3,0.1,0.4,0.2L7.3,9
			c0.1-0.1,0.2-0.2,0.3-0.3c0.1-0.1,0.1-0.1,0.2-0.2l0.9-7c-0.1,0-0.3-0.2-0.3-0.3c0-0.2,0.1-0.4,0.3-0.4s0.4,0,0.4,0.2
			S9,1.3,8.9,1.4l1.8,6.7c0.2,0.1,0.5,0.3,0.7,0.5l6.9,0.9c0-0.1,0.2-0.3,0.3-0.3C18.8,9.2,19,9.4,19,9.6z"/>
	</g>
</g>
</svg>
