<?xml version="1.0" encoding="utf-8"?>
<!-- Generator: Adobe Illustrator 22.0.1, SVG Export Plug-In . SVG Version: 6.00 Build 0)  -->
<svg version="1.1" id="圖層_1" xmlns="http://www.w3.org/2000/svg" xmlns:xlink="http://www.w3.org/1999/xlink" x="0px" y="0px"
	 viewBox="0 0 71.7 63.7" style="enable-background:new 0 0 71.7 63.7;" xml:space="preserve">
<style type="text/css">
	.st0{fill:#D4C5A7;}
	.st1{fill:#754C24;}
	.st2{fill:none;}
	.st3{fill:none;stroke:#754C24;stroke-width:0.5;stroke-miterlimit:10;}
</style>
<g>
	<g>
		<g>
			<g>
				<path class="st0" d="M13.5,21.9c2.1,0,4.3,0.1,6.4,0.3c1.9,0.2,1.9-2.8,0-3c-2.1-0.2-4.3-0.4-6.4-0.3
					C11.6,18.9,11.6,21.9,13.5,21.9L13.5,21.9z"/>
			</g>
		</g>
		<g>
			<g>
				<path class="st0" d="M8.8,37.7c4.4-0.9,8.8-0.4,13,1.3c1.8,0.7,2.6-2.2,0.8-2.9c-4.7-1.8-9.6-2.2-14.6-1.3
					C6.1,35.2,6.9,38.1,8.8,37.7L8.8,37.7z"/>
			</g>
		</g>
		<g>
			<g>
				<path class="st0" d="M24.8,33.6c0.4,1.4,2.3,5.2,4.2,3.2c0.7-0.7,0.7-2.1,0.7-3c0.1-1.1-0.1-2.6,0.6-3.5
					c-0.4,0.2-0.9,0.5-1.3,0.7c0.1,0,0.1,0,0.2,0c-0.4-0.2-0.9-0.5-1.3-0.7c0.5,0.6,0.8,1.4,1.2,2.1c0.4,0.7,0.9,1.4,1.4,2.1
					c1.1,1.5,3.8,0,2.6-1.5c-0.9-1.1-1.6-2.3-2.2-3.6c-0.5-1-1.6-1.9-2.8-1c-0.9,0.7-1.1,2.2-1.2,3.2c-0.1,1.2,0.1,2.7-0.4,3.8
					c0.2-0.3,0.5-0.6,0.7-0.9c0,0-0.1,0-0.1,0.1c0.5,0,1,0,1.5,0c-0.5-0.3-0.8-1.2-0.9-1.7C27.2,30.9,24.3,31.7,24.8,33.6L24.8,33.6
					z"/>
			</g>
		</g>
		<g>
			<g>
				<path class="st0" d="M37.3,14.9c2.2-1,4.6-0.9,6.7,0.1c1.7,0.8,3.3-1.7,1.5-2.6c-3.2-1.6-6.6-1.6-9.8-0.1
					C34,13.1,35.6,15.7,37.3,14.9L37.3,14.9z"/>
			</g>
		</g>
		<g>
			<g>
				<path class="st0" d="M0.9,45.7c2,2.9,4.2,5.6,6.7,8.2c0.7,0.7,1.9,0.5,2.4-0.3c1.6-2.5-0.5-5.9-1.4-8.4c-0.8,0.5-1.7,1-2.5,1.5
					c2.4,2.1,4.5,4.4,6.6,6.9c0.8,1,2.7,0.2,2.6-1.1c-0.4-2.9-1.2-5.4-2.8-7.8c-0.6,0.7-1.1,1.5-1.7,2.2c3.7,1.4,7.4,1.9,11.4,1.7
					c1.9-0.1,1.9-3.1,0-3c-3.7,0.2-7.1-0.4-10.6-1.6c-1.2-0.4-2.4,1.1-1.7,2.2c1.3,2,2.1,3.9,2.3,6.3c0.9-0.4,1.7-0.7,2.6-1.1
					c-2-2.5-4.2-4.7-6.6-6.9c-1-0.9-3,0-2.5,1.5C6,47.1,8,51,7.3,52.1c0.8-0.1,1.6-0.2,2.4-0.3c-2.3-2.4-4.3-4.9-6.2-7.6
					C2.4,42.6-0.2,44.1,0.9,45.7L0.9,45.7z"/>
			</g>
		</g>
		<g>
			<g>
				<path class="st0" d="M54.8,44.7c-0.5,2.7-0.7,5.3-0.8,8c0.9-0.3,1.9-0.5,2.8-0.8c-1-1.3-1.5-2.3-2-4c-0.4-1.2-2.1-1.5-2.7-0.4
					c-0.5,0.8-1,1.6-1.5,2.4c-1,1.2-1.1,1.5-0.1,0.9c-0.2,0.1-1.9-0.4-2.3-0.5c-4.2-0.3-8.8,0.4-13.1,0.6c-1.9,0.1-1.9,3.1,0,3
					c2.7-0.1,5.4-0.3,8.2-0.4c1.3-0.1,2.7-0.3,4.1-0.2c0.9,0.1,1.8,0.5,2.6,0.5c2.6,0.1,3.5-3.1,4.6-4.9c-0.9-0.1-1.8-0.2-2.7-0.4
					c0.5,1.7,1.2,3.2,2.3,4.7c0.9,1.1,2.7,0.8,2.8-0.8c0.1-2.4,0.3-4.8,0.7-7.2C58.1,43.6,55.2,42.8,54.8,44.7L54.8,44.7z"/>
			</g>
		</g>
	</g>
	<g>
		<g>
			<g>
				<path class="st1" d="M13.9,37.5l-0.4,5.4c-0.1,0.9-0.1,1.8-0.2,2.7c-0.1,0.9-0.2,1.8-0.2,2.7l0,0c-0.3-0.9-0.2-1.8-0.3-2.7
					c0-0.9,0.2-1.8,0.3-2.7C13.3,41,13.5,39.3,13.9,37.5L13.9,37.5z"/>
			</g>
			<g>
				<path class="st1" d="M16,21.6c0,0.8-0.1,1.6-0.2,2.4c0,0.4,0,0.8-0.1,1.2c-0.1,0.4-0.2,0.8-0.4,1.2l0,0
					c-0.1-0.4-0.1-0.8-0.1-1.2c0-0.4,0.1-0.8,0.2-1.2C15.6,23.1,15.8,22.3,16,21.6L16,21.6z"/>
			</g>
			<g>
				<path class="st1" d="M17.8,9.4c0,0.7-0.1,1.4-0.2,2.1c0,0.4,0,0.7-0.1,1.1c-0.1,0.3-0.2,0.7-0.4,1l0,0c-0.1-0.4-0.1-0.7-0.1-1.1
					c0-0.4,0.1-0.7,0.2-1.1C17.5,10.8,17.6,10.1,17.8,9.4L17.8,9.4z"/>
			</g>
			<g>
				<path class="st1" d="M18.6,13.5c-0.2-0.7-0.3-1.3-0.5-2c-0.1-0.3-0.2-0.7-0.2-1c0-0.3,0-0.7,0.1-1l0,0c0.2,0.3,0.3,0.6,0.4,1
					c0.1,0.3,0.1,0.7,0.1,1C18.6,12.1,18.6,12.8,18.6,13.5L18.6,13.5z"/>
			</g>
			<g>
				<path class="st1" d="M20.8,27.2c-0.2-0.8-0.4-1.7-0.6-2.5c-0.1-0.4-0.2-0.8-0.3-1.3c0-0.4-0.1-0.9,0-1.3l0,0
					c0.2,0.4,0.3,0.8,0.4,1.2c0.1,0.4,0.1,0.8,0.2,1.3C20.7,25.5,20.8,26.3,20.8,27.2L20.8,27.2z"/>
			</g>
			<g>
				<path class="st1" d="M25.8,48c-0.7-1.2-1.1-2.5-1.6-3.9c-0.2-0.7-0.5-1.3-0.6-2c-0.1-0.7-0.3-1.4-0.3-2.1l0,0
					c0.3,0.6,0.5,1.3,0.7,2c0.2,0.7,0.3,1.3,0.5,2C25,45.4,25.3,46.7,25.8,48L25.8,48z"/>
			</g>
			<g>
				<path class="st0" d="M17.9,21.8c-0.2,0-0.4,0-0.6,0c0,1.5,0,3,0,4.6c0.2,0,0.4,0.1,0.6,0.1C17.9,24.9,17.9,23.3,17.9,21.8z"/>
				<path class="st1" d="M17.9,21.8C17.7,22,17.7,22,17.7,22l-0.1,0c-0.1,0-0.1,0-0.2,0l0.3-0.3c0,0.8-0.1,1.5-0.2,2.3
					c0,0.8,0,1.5,0,2.3l-0.1-0.1l0.6,0.1l-0.1,0.1l0-2.3l0-1.2l0-0.6l0-0.3l0-0.1C17.9,22,17.8,22,17.9,21.8z M18,21.8
					C18.1,21.7,18,21.8,18,21.8l0.1,0.2l0,0.3l0,0.6l0,1.2l0,2.4l0,0.1l-0.1,0l-0.6-0.2l-0.1,0l0-0.1c0-0.8,0-1.5,0-2.3
					c0-0.8-0.1-1.5-0.1-2.3l0-0.2l0.3,0c0.1,0,0.3,0,0.4,0l0.2,0C18,21.6,18.1,21.6,18,21.8z"/>
			</g>
			<g>
				<path class="st0" d="M17.3,38c0,5.2,0,9.1,0,9.3c0,0.7,0.6,0.3,0.6,0.3c0-3.3,0-6.5,0-9.5C17.7,38.1,17.5,38.1,17.3,38z"/>
				<path class="st1" d="M17.3,38c0.2,0.4,0.1,0.4,0.1,0.5l0,0.3l0,0.6c0,0.4,0,0.8,0,1.2l-0.1,2.5l0,2.5l0,1.3c0,0.2,0,0.4,0,0.6
					c0.1,0.2,0.3,0.1,0.4,0l0,0.1l0-4.7c0-1.6-0.1-3.2,0-4.7l0.1,0.1c-0.1,0-0.2-0.1-0.2-0.1C17.6,38.2,17.5,38.2,17.3,38z M17.3,38
					c0-0.1,0.2,0,0.3,0L18,38l0.1,0l0,0.1c0,1.6,0,3.2,0,4.7l0,4.7l0,0.1l0,0c-0.1,0.1-0.2,0.1-0.3,0.1c-0.1,0-0.3-0.1-0.3-0.2
					c-0.1-0.3,0-0.5-0.1-0.7l0-1.3l0-2.6l-0.1-2.7l0-1.3l0-0.6l0-0.3C17.2,38,17.2,37.8,17.3,38z"/>
			</g>
			<g>
				<path class="st0" d="M17.4,8.2c0,0.1,0,2.2,0,5.3c0.2,0,0.4,0.1,0.6,0.1c0-3.6,0-5.6,0-5.6S17.5,7.7,17.4,8.2z"/>
				<path class="st1" d="M17.4,8.2c0,0,0.1,0.1,0.2,0.1c0.1,0,0,0.1,0,0.1l0,0.2l0,0.3c0,0.2,0,0.4,0,0.7c0,0.4-0.1,0.9-0.1,1.3
					c0,0.9-0.1,1.8-0.1,2.6l-0.1-0.1c0.2,0,0.4,0.1,0.6,0.1l-0.1,0.1L17.8,8l0.1,0.1c-0.1,0-0.2-0.1-0.2-0.1c0,0,0,0,0,0
					c0,0,0,0,0,0C17.6,8.2,17.4,8.2,17.4,8.2z M17.4,8.2c0,0-0.1-0.1-0.1-0.1c0,0,0-0.1,0.1-0.1c0-0.1,0.1-0.1,0.2-0.1
					c0.2,0,0.3,0,0.4,0.1l0.1,0l0,0.1L18,13.6l0,0.1l-0.1,0c-0.2,0-0.4-0.1-0.6-0.1l-0.1,0l0-0.1c0-0.9,0-1.8,0-2.7
					c0-0.4-0.1-0.9-0.1-1.3c0-0.2,0-0.5,0-0.7l0-0.3l0-0.2c0,0,0-0.1,0-0.1C17.3,8.2,17.4,8.2,17.4,8.2z"/>
			</g>
			<g>
				<path class="st0" d="M45.3,0.9c0,0-0.5-0.1-0.5,0.5c0,0.1,0,2-0.1,4.9c0.2,0.1,0.3,0.1,0.5,0.2C45.3,2.8,45.3,0.9,45.3,0.9z"/>
				<path class="st1" d="M45.3,0.9c-0.1,0.3-0.1,0.2-0.1,0.2c0,0,0,0,0,0c0,0,0,0.1-0.1,0.2L45,2C45,2.5,44.9,3,44.9,3.4
					c0,0.5,0,0.9,0,1.4c0,0.5,0,0.9,0,1.4l-0.1-0.1l0.1,0c0,0.1,0.1,0.1,0.1,0.1l0.3,0.1l-0.1,0.1l-0.1-2.7l0-1.3l0-0.7l0-0.3
					C45.2,1.2,45.1,1.1,45.3,0.9z M45.3,0.9c0.2,0,0.1,0.2,0.1,0.3l0,0.3l0,0.7l0,1.4l-0.1,2.8l0,0.1l-0.1,0L45,6.4c0,0-0.1,0-0.1,0
					l-0.1,0l-0.1,0l0-0.1c0-0.5,0-0.9,0-1.4c0-0.5,0.1-0.9,0.1-1.4c0-0.5-0.1-0.9-0.1-1.4c0-0.2,0-0.5,0-0.7c0-0.1,0-0.3,0.2-0.5
					c0.1-0.1,0.2-0.1,0.3-0.1C45.2,0.6,45.3,0.6,45.3,0.9z"/>
			</g>
			<g>
				<path class="st0" d="M44.7,14.9c0,0.8,0,1.6,0,2.5c0.2,0,0.4,0.1,0.6,0.1c0-0.8,0-1.6,0-2.4C45.1,15,44.9,14.9,44.7,14.9z"/>
				<path class="st1" d="M44.7,14.9c0.1,0.2,0.2,0.2,0.1,0.3l0,0.1l0,0.1c0,0.1,0,0.2,0,0.3c0,0.2-0.1,0.3-0.1,0.5
					c0,0.2-0.1,0.4,0,0.6c0,0.2,0,0.4,0,0.6l-0.1-0.1l0.3,0l0.2,0l0.1,0c0,0.1,0.1,0,0.1,0l-0.1,0.1c0-0.8-0.1-1.6-0.1-2.4l0.1,0.2
					c-0.1,0-0.2,0-0.2-0.1L44.9,15C44.9,15,44.9,15,44.7,14.9z M44.7,14.8c-0.1-0.1,0.1-0.1,0.1-0.1l0.2,0c0.1,0,0.3,0,0.4,0.1
					l0.1,0l0,0.1c0,0.8-0.1,1.6-0.1,2.4l0,0.1l-0.1,0c0,0-0.1,0-0.1,0l-0.1,0l-0.2,0l-0.3,0l-0.1,0l0-0.1c0-0.2,0-0.4,0-0.6
					c0-0.2,0-0.4,0-0.6c0-0.2-0.1-0.5-0.1-0.7c0-0.1,0-0.2,0-0.4l0-0.2l0-0.1C44.5,14.7,44.6,14.7,44.7,14.8z"/>
			</g>
			<g>
				<path class="st0" d="M44.5,37.8c0,5.6,0,9.6,0,9.7c0.2,0.5,0.8,0.3,0.8,0.3c0-3.5,0-6.8,0-9.9C45.1,37.9,44.8,37.8,44.5,37.8z"
					/>
				<path class="st1" d="M44.5,37.8c0.2,0.3,0.2,0.4,0.2,0.5l0,0.3c0,0.2,0,0.4,0,0.6c0,0.4,0,0.9-0.1,1.3c-0.1,0.9-0.1,1.8-0.1,2.7
					c0,0.9,0.1,1.8,0,2.7l0,1.3l0,0.3c0,0.1,0.1,0.2,0.1,0.2c0.1,0.1,0.3,0.1,0.5,0.1l0,0.1c0-3.3-0.1-6.6-0.1-9.9l0.1,0.1
					c-0.1,0-0.2-0.1-0.4-0.1C44.8,38,44.6,38,44.5,37.8z M44.5,37.8c0.2-0.2,0.3-0.1,0.5-0.1c0.1,0,0.3,0.1,0.4,0.1l0.1,0l0,0.1
					c0,3.3-0.1,6.6-0.1,9.9l0,0l0,0c-0.2,0.1-0.5,0.1-0.7-0.1c-0.1-0.1-0.2-0.2-0.2-0.3c0-0.1,0-0.2,0-0.3l0-1.3c0-0.9,0-1.8,0-2.7
					c0-0.9-0.1-1.8-0.1-2.7c0-0.4,0-0.9,0-1.3c0-0.2,0-0.5,0-0.7l0-0.4C44.3,37.9,44.3,37.7,44.5,37.8z"/>
			</g>
			<g>
				<path class="st1" d="M53.3,21.3c-0.5,3.4-0.8,6.8-0.7,10.2c0.1,3.4,0.6,6.9,1.8,10l0,0l0.2,0.6l-0.5-0.3c-2.2-1.3-4.6-2.3-7-3.1
					c-2.4-0.8-5-1.3-7.5-1.6c-2.5-0.3-5.1-0.3-7.7,0.1c-2.6,0.3-5,1.2-7.3,2.2l-0.2,0.1l0-0.2c-0.5-4,0.2-8.1,1.2-12
					c0.5-2,1.1-3.9,1.8-5.8c0.7-1.9,1.4-3.8,2.3-5.6l0.1-0.2l0.2,0c4,0.3,8,0.7,12,1.1l12,1.2l0,0l0,0L53.3,21.3z M53.2,21.3
					l0.6-3.2l0,0.1l-12-0.9c-4-0.3-8-0.6-12-1l0.3-0.1c-0.8,1.8-1.6,3.7-2.3,5.5c-0.7,1.9-1.3,3.8-1.8,5.7c-1,3.9-1.8,7.9-1.4,11.8
					l-0.2-0.1c2.4-0.9,4.9-1.8,7.4-2.1c2.6-0.3,5.1-0.4,7.7-0.1c2.6,0.3,5.1,0.8,7.6,1.6c2.5,0.8,4.9,1.7,7.1,3L54,41.7l0,0
					c-1.1-3.3-1.5-6.7-1.6-10.2C52.4,28.1,52.7,24.7,53.2,21.3z"/>
			</g>
			<g>
				<path class="st1" d="M50.6,8.5c-0.9,1.2-1.4,2.8-1.2,4.3c0.1,1.5,0.7,2.9,1.6,4.2l0.2,0.2l-0.3-0.1c-1.3-0.6-2.6-1.1-3.9-1.5
					c-1.3-0.4-2.7-0.7-4.1-0.9c-1.4-0.2-2.8-0.3-4.2-0.3c-1.4,0-2.8,0.2-4.2,0.4l0,0l-0.2,0l0-0.2l-0.2-1.4c0-0.5,0-0.9,0-1.4
					c0.1-0.9,0.2-1.9,0.6-2.7c0.7-1.8,2-3.3,3.8-4.1l0.1,0l0.1,0c2.2,0.3,4.4,0.7,6.6,1.1c2.2,0.4,4.4,0.8,6.6,1.1l0.1,0l-0.1,0.1
					C51.3,7.6,51,8,50.6,8.5z M50.6,8.4c0.3-0.4,0.7-0.9,1.1-1.2l0,0.1c-2.2-0.3-4.4-0.6-6.7-0.9c-2.2-0.3-4.4-0.6-6.6-0.9l0.1,0
					C37.8,5.8,37,6.4,36.5,7c-0.6,0.7-1,1.4-1.4,2.2c-0.3,0.8-0.5,1.7-0.5,2.6c0,0.4,0,0.9,0,1.3l0.1,1.3l-0.2-0.2l0,0
					c1.4-0.2,2.8-0.4,4.2-0.4c1.4,0,2.8,0.1,4.2,0.4c2.8,0.5,5.5,1.3,8.1,2.5L50.8,17c-0.4-0.7-0.8-1.3-1-2.1
					c-0.3-0.7-0.4-1.5-0.5-2.2C49.2,11.2,49.7,9.7,50.6,8.4z"/>
			</g>
			<g>
				<path class="st2" d="M27.7,36.3"/>
			</g>
			<g>
				<path class="st2" d="M17.1,37.3"/>
			</g>
			<g>
				<path class="st2" d="M24.6,28.5"/>
			</g>
			<g>
				<path class="st1" d="M12.4,12.1c0.2-0.1,0.3-0.1,0.5,0l0.5,0.1l1,0.2l1.9,0.4l3.8,0.6c1.3,0.2,2.5,0.4,3.8,0.6l1.9,0.4l0.9,0.2
					l0.5,0.1c0.2,0,0.3,0,0.5,0.2l0,0c-0.2,0.1-0.3,0.1-0.5,0l-0.5-0.1l-1-0.1l-1.9-0.3c-1.3-0.2-2.5-0.5-3.8-0.7l-3.8-0.7l-1.9-0.3
					l-1-0.2l-0.5-0.1C12.7,12.3,12.6,12.3,12.4,12.1L12.4,12.1z"/>
			</g>
			<g>
				<path class="st1" d="M7.2,24.3c0.2-0.1,0.4,0,0.6,0l0.6,0.1l1.2,0.2l2.3,0.4l4.7,0.7c1.6,0.2,3.1,0.5,4.7,0.7l2.3,0.4l1.2,0.2
					c0.4,0.1,0.8,0.1,1.1,0.3l0,0c-0.4,0.1-0.8,0-1.2,0l-1.2-0.1l-2.3-0.3c-1.5-0.3-3.1-0.5-4.6-0.8l-4.6-0.8l-2.3-0.4l-1.2-0.2
					l-0.6-0.1C7.6,24.5,7.4,24.5,7.2,24.3L7.2,24.3z"/>
			</g>
			<g>
				<path class="st1" d="M37.2,4.2c0.2-0.3,0.4-0.2,0.6-0.1l0.5,0.1c0.3,0.1,0.7,0.2,1,0.2c0.7,0.2,1.4,0.3,2.1,0.5
					c1.4,0.2,2.8,0.5,4.2,0.7l4.2,0.7l2.1,0.4c0.3,0.1,0.7,0.1,1,0.2c0.3,0.1,0.7,0.1,1,0.4l0,0c-0.4,0.1-0.7,0-1.1,0
					c-0.3-0.1-0.7-0.1-1-0.2l-2.1-0.4l-4.2-0.8c-1.4-0.3-2.8-0.6-4.2-0.8c-0.7-0.1-1.4-0.2-2.1-0.3c-0.3,0-0.7-0.1-1-0.1l-0.5-0.1
					C37.5,4.5,37.3,4.6,37.2,4.2L37.2,4.2z"/>
			</g>
			<g>
				<path class="st1" d="M28.8,15.2c0.3-0.3,0.6-0.1,0.9-0.1l0.9,0.1c0.6,0,1.2,0.1,1.7,0.2c1.2,0.1,2.3,0.3,3.5,0.4l7,0.5l7,0.5
					l3.5,0.3c0.6,0,1.2,0.1,1.7,0.2c0.6,0.1,1.2,0.1,1.7,0.4l0,0c-0.6,0.2-1.2,0.1-1.8,0.1c-0.6,0-1.2-0.1-1.7-0.1l-3.5-0.3l-7-0.6
					l-7-0.7c-1.2-0.1-2.3-0.2-3.5-0.2c-0.6,0-1.2-0.1-1.7-0.1l-0.9-0.1C29.4,15.4,29.1,15.6,28.8,15.2L28.8,15.2z"/>
			</g>
			<g>
				<path class="st1" d="M3.3,38c0.3-0.2,0.5-0.1,0.7-0.1L4.6,38c0.4,0.1,0.9,0.1,1.3,0.2c0.9,0.2,1.8,0.3,2.7,0.4l5.3,0.7l5.3,0.7
					l2.7,0.3c0.4,0.1,0.9,0.1,1.3,0.2l0.7,0.1c0.2,0,0.4,0.1,0.6,0.3l0,0c-0.3,0.2-0.5,0.2-0.7,0.1l-0.7-0.1c-0.4,0-0.9-0.1-1.3-0.2
					l-2.7-0.4l-5.3-0.8l-5.3-0.8c-0.9-0.1-1.8-0.2-2.7-0.3c-0.4-0.1-0.9-0.1-1.3-0.2l-0.7-0.1C3.7,38.3,3.5,38.3,3.3,38L3.3,38z"/>
			</g>
			<g>
				<path class="st1" d="M54.7,41.7c-0.1,0.2-0.2,0.1-0.2,0.1l-0.2,0l-0.5,0l-0.9-0.1L51,41.5l-3.7-0.3l-7.4-0.5l-7.4-0.5l-3.7-0.3
					l-1.8-0.2l-0.9-0.1l-0.5,0c-0.2,0-0.3,0-0.4-0.2l0,0c0.2-0.2,0.3-0.1,0.5-0.1l0.5,0l0.9,0l1.8,0.1l3.7,0.3l7.3,0.6l7.3,0.6
					l3.7,0.2l1.8,0.1l0.9,0.1l0.5,0l0.2,0C54.5,41.5,54.6,41.5,54.7,41.7L54.7,41.7z"/>
			</g>
			<g>
				<path class="st1" d="M33.5,14.8c0.4-0.1,0.7-0.1,1.1,0c0.4,0,0.7,0.1,1.1,0.1l2.2,0.2l4.4,0.3l4.4,0.4l2.2,0.1
					c0.4,0,0.7,0.1,1.1,0.1c0.4,0.1,0.7,0,1.1,0.3l0,0c-0.4,0.3-0.7,0.1-1.1,0.1c-0.4,0-0.7-0.1-1.1-0.1l-2.2-0.3l-4.3-0.4l-4.3-0.5
					l-2.2-0.2c-0.4,0-0.7-0.1-1.1-0.1C34.2,15,33.8,15,33.5,14.8L33.5,14.8z"/>
			</g>
			<g>
				<path class="st1" d="M54.2,41.6l-1-17.3c-0.2-2.9-0.3-5.8-0.5-8.7c-0.1-2.9-0.2-5.8-0.2-8.7l0,0c0.3,2.9,0.5,5.8,0.6,8.7
					c0.1,2.9,0.3,5.8,0.4,8.7L54.2,41.6L54.2,41.6z"/>
			</g>
			<g>
				<path class="st1" d="M52.2,47.8c-0.7-1.4-1.4-2.9-2.1-4.3c-0.3-0.7-0.7-1.4-1-2.2c-0.3-0.8-0.6-1.5-0.7-2.3l0,0
					c0.4,0.7,0.8,1.4,1.2,2.1c0.3,0.7,0.6,1.5,0.9,2.2C51.1,44.8,51.7,46.3,52.2,47.8L52.2,47.8z"/>
			</g>
			<g>
				<path class="st1" d="M9.9,22c0.2-0.2,0.4-0.2,0.5-0.1l0.5,0.1c0.3,0,0.6,0.1,0.9,0.2c0.6,0.1,1.3,0.3,1.9,0.4
					c1.3,0.2,2.5,0.4,3.8,0.5l3.8,0.5l1.9,0.3c0.3,0.1,0.6,0.1,0.9,0.2l0.5,0.1c0.2,0.1,0.3,0,0.4,0.3l0,0c-0.2,0.3-0.3,0.1-0.5,0.1
					L24,24.4c-0.3,0-0.6-0.1-1-0.1L21.2,24l-3.8-0.6c-1.3-0.2-2.5-0.5-3.8-0.7c-0.6-0.1-1.3-0.2-1.9-0.2c-0.3,0-0.6-0.1-1-0.1
					l-0.5-0.1C10.1,22.3,10,22.3,9.9,22L9.9,22z"/>
			</g>
			<g>
				<path class="st1" d="M11.9,14.8c0.5-0.8,1.2-1.5,2-2l0,0l0,0l12,2.1l0.2,0l-0.1,0.2c-0.4,0.6-0.8,1.4-1,2.1
					c-0.2,0.8-0.1,1.6,0,2.4c0.2,1.6,0.7,3.1,1.3,4.7l0.2,0.5l-0.4-0.2c-1.2-0.6-2.5-1-3.8-1.4c-1.3-0.4-2.6-0.7-4-0.9
					c-1.3-0.2-2.7-0.3-4.1-0.3c-1.4,0-2.7,0.1-4.1,0.3l-0.2,0l0-0.2C9.8,19.4,10.4,16.8,11.9,14.8z M11.9,14.8
					c-0.7,1-1.2,2.2-1.5,3.4c-0.3,1.2-0.4,2.5-0.3,3.7l-0.2-0.2c1.4-0.3,2.7-0.4,4.1-0.4c1.4,0,2.8,0.1,4.1,0.3c1.4,0.2,2.7,0.5,4,1
					c1.3,0.4,2.6,0.9,3.9,1.5l-0.3,0.2c-0.5-1.5-1-3.1-1.2-4.7c-0.1-0.8-0.1-1.7,0-2.5c0.2-0.8,0.6-1.6,1-2.3l0.1,0.2l-11.9-2.3l0,0
					C13.1,13.3,12.4,14,11.9,14.8z"/>
			</g>
			<g>
				<path class="st1" d="M24.8,40.7c-1.5-0.8-3.2-1.5-4.8-2c-1.7-0.5-3.4-0.9-5.1-1.2c-1.7-0.3-3.5-0.3-5.2-0.2
					c-1.8,0-3.5,0.4-5.2,0.8l-0.2,0l0-0.2l0.1-1.7l0.2-1.7c0.2-1.1,0.4-2.2,0.7-3.3C5.6,30.1,6,29,6.5,28c0.5-1,1.1-2,2-2.8l0.1-0.1
					l0.1,0l8.7,1.3c2.9,0.4,5.8,0.9,8.7,1.3l0.4,0.1l-0.3,0.3c-0.7,0.8-1.3,1.8-1.7,2.8c-0.4,1-0.6,2.1-0.7,3.2
					c-0.1,1.1,0,2.2,0.2,3.3c0.1,0.6,0.3,1.1,0.4,1.6C24.5,39.6,24.7,40.1,24.8,40.7L24.8,40.7c-0.2-0.5-0.4-1.1-0.6-1.6
					c-0.1-0.5-0.4-1.1-0.5-1.6c-0.3-1.1-0.3-2.2-0.3-3.4c0.1-1.1,0.3-2.3,0.7-3.3c0.4-1.1,0.9-2.1,1.7-3l0.1,0.4
					c-2.9-0.4-5.8-0.8-8.7-1.3l-8.7-1.3l0.2,0c-0.8,0.7-1.4,1.7-1.9,2.6c-0.5,1-0.9,2-1.2,3.1c-0.3,1.1-0.5,2.2-0.7,3.3l-0.2,1.7
					l-0.1,1.7l-0.2-0.1C6.1,37.4,7.9,37,9.6,37c1.8-0.1,3.5,0,5.3,0.3c1.7,0.3,3.5,0.7,5.1,1.2C21.7,39.1,23.3,39.8,24.8,40.7
					L24.8,40.7z"/>
			</g>
		</g>
		<g>
			<g>
				<path class="st1" d="M7,36c0.3,0.1,0.5,0.2,0.6,0.4c0.1,0.2,0.2,0.4,0.2,0.7c-0.3-0.1-0.5-0.2-0.6-0.4C7.1,36.5,7,36.3,7,36z"/>
			</g>
			<g>
				<path class="st1" d="M8.3,35c0.4,0.2,0.6,0.5,0.8,0.8c0.2,0.3,0.4,0.7,0.4,1.1c-0.4-0.2-0.6-0.5-0.8-0.8
					C8.5,35.8,8.3,35.5,8.3,35z"/>
			</g>
			<g>
				<path class="st1" d="M9.9,34.4c0.5,0.3,0.9,0.7,1.2,1.2c0.3,0.5,0.5,1,0.4,1.6c-0.3-0.5-0.6-0.9-0.9-1.4
					C10.4,35.4,10.1,34.9,9.9,34.4z"/>
			</g>
			<g>
				<path class="st1" d="M12.2,34.1c0.5,0.3,0.8,0.8,1.1,1.3c0.3,0.5,0.5,1,0.5,1.6c-0.4-0.4-0.7-0.9-0.9-1.4
					C12.6,35.2,12.3,34.7,12.2,34.1z"/>
			</g>
			<g>
				<path class="st1" d="M14.9,34.7c0.5,0.3,0.9,0.7,1.2,1.2c0.3,0.5,0.5,1,0.6,1.6c-0.4-0.4-0.7-0.9-1-1.3
					C15.4,35.7,15.1,35.2,14.9,34.7z"/>
			</g>
			<g>
				<path class="st1" d="M18.1,36.1c0.3,0.2,0.6,0.5,0.7,0.8c0.2,0.3,0.3,0.6,0.3,1c-0.3-0.2-0.6-0.5-0.7-0.8
					C18.3,36.8,18.1,36.5,18.1,36.1z"/>
			</g>
			<g>
				<path class="st1" d="M20.3,37.2c0.4,0.1,0.6,0.4,0.8,0.7c0.2,0.3,0.3,0.7,0.2,1c-0.3-0.3-0.4-0.5-0.6-0.8
					C20.5,37.9,20.4,37.6,20.3,37.2z"/>
			</g>
			<g>
				<path class="st1" d="M22.4,38.6c0.2,0.1,0.3,0.1,0.4,0.2c0,0.1,0.1,0.2,0,0.4c-0.2,0-0.4-0.1-0.4-0.2
					C22.3,39,22.3,38.8,22.4,38.6z"/>
			</g>
			<g>
				<path class="st1" d="M12.2,20.5c0.3,0,0.4,0.2,0.5,0.3c0.1,0.1,0.1,0.3,0.1,0.6c-0.3,0-0.4-0.2-0.5-0.3
					C12.2,20.9,12.1,20.8,12.2,20.5z"/>
			</g>
			<g>
				<path class="st1" d="M13.5,19.6c0.4,0.2,0.7,0.4,0.9,0.7c0.2,0.3,0.4,0.6,0.5,1.1c-0.4-0.2-0.7-0.5-0.9-0.7
					C13.8,20.3,13.6,20,13.5,19.6z"/>
			</g>
			<g>
				<path class="st1" d="M15.5,19.1c0.4,0.3,0.7,0.6,1,1c0.3,0.4,0.5,0.8,0.6,1.3c-0.4-0.3-0.7-0.6-1-1C15.8,20,15.6,19.6,15.5,19.1
					z"/>
			</g>
			<g>
				<path class="st1" d="M18.7,20c0.4,0.2,0.8,0.6,1,0.9c0.2,0.4,0.4,0.8,0.4,1.3c-0.4-0.3-0.6-0.7-0.8-1.1
					C19.1,20.8,18.9,20.4,18.7,20z"/>
			</g>
			<g>
				<path class="st1" d="M21.4,20.9c0.4,0.2,0.6,0.5,0.8,0.8c0.2,0.3,0.3,0.7,0.3,1.1c-0.3-0.2-0.6-0.5-0.8-0.8
					C21.7,21.6,21.5,21.3,21.4,20.9z"/>
			</g>
			<g>
				<path class="st1" d="M23.6,22.1c0.3,0,0.4,0.1,0.5,0.3c0.1,0.2,0.2,0.3,0.1,0.6c-0.3,0-0.4-0.2-0.5-0.3
					C23.6,22.6,23.6,22.4,23.6,22.1z"/>
			</g>
			<g>
				<path class="st1" d="M35.4,13.7c0.2-0.1,0.4-0.1,0.5,0c0.1,0.1,0.2,0.2,0.1,0.5c-0.2,0-0.3,0-0.4-0.1
					C35.4,14,35.4,13.9,35.4,13.7z"/>
			</g>
			<g>
				<path class="st1" d="M36.8,12.9c0.3,0,0.6,0.2,0.8,0.4c0.2,0.2,0.4,0.4,0.5,0.8c-0.4-0.1-0.6-0.2-0.8-0.4
					C37.1,13.5,36.9,13.3,36.8,12.9z"/>
			</g>
			<g>
				<path class="st1" d="M38.2,11.5c0.6,0.3,1,0.6,1.4,1.1c0.4,0.4,0.7,0.9,1,1.5c-0.5-0.3-0.9-0.7-1.3-1.2
					C38.9,12.5,38.5,12,38.2,11.5z"/>
			</g>
			<g>
				<path class="st1" d="M40.9,11c0.6,0.5,1,1,1.5,1.5c0.4,0.6,0.8,1.2,1.1,1.8c-0.6-0.4-1-1-1.5-1.5C41.5,12.3,41.1,11.7,40.9,11z"
					/>
			</g>
			<g>
				<path class="st1" d="M43,11.9c0.6,0.3,1.1,0.7,1.5,1.2c0.4,0.5,0.7,1.1,0.9,1.7c-0.5-0.5-0.9-0.9-1.3-1.4
					C43.7,12.9,43.4,12.4,43,11.9z"/>
			</g>
			<g>
				<path class="st1" d="M46.8,14c0.3,0.1,0.5,0.3,0.7,0.6c0.2,0.2,0.3,0.5,0.3,0.9c-0.3-0.1-0.5-0.3-0.7-0.6
					C46.9,14.6,46.8,14.4,46.8,14z"/>
			</g>
			<g>
				<path class="st1" d="M48.9,15c0.3,0,0.4,0.1,0.5,0.2c0.1,0.1,0.2,0.3,0.2,0.6c-0.3,0-0.4-0.1-0.5-0.2C49,15.4,48.9,15.3,48.9,15
					z"/>
			</g>
			<g>
				<path class="st1" d="M24.9,35.8c0.3,0.5,0.5,0.9,0.7,1.3c0.2,0.4,0.4,0.8,0.6,1.3c-0.5-0.2-0.8-0.7-1.1-1.1
					C24.9,36.8,24.8,36.3,24.9,35.8z"/>
			</g>
			<g>
				<path class="st1" d="M25.5,31.6c0,0.5,0.1,1,0.3,1.4c0.2,0.5,0.3,0.9,0.5,1.4c0.2,0.5,0.4,0.9,0.6,1.4c0.2,0.5,0.4,0.9,0.7,1.3
					c-0.8-0.6-1.4-1.6-1.7-2.5c-0.2-0.5-0.3-1-0.4-1.5C25.3,32.7,25.3,32.1,25.5,31.6z"/>
			</g>
			<g>
				<path class="st1" d="M26.6,26.6c0.1,1.8,0.2,3.6,0.6,5.3c0.2,0.8,0.5,1.7,0.9,2.5c0.4,0.8,0.8,1.6,1.3,2.3
					c-1.3-1.3-2.2-2.9-2.6-4.7C26.2,30.2,26.3,28.4,26.6,26.6z"/>
			</g>
			<g>
				<path class="st1" d="M28.5,24.6c0.2,2,0.5,4,1,6c0.5,1.9,1.2,3.8,2,5.7c-1.2-1.7-2-3.6-2.5-5.6C28.5,28.7,28.3,26.6,28.5,24.6z"
					/>
			</g>
			<g>
				<path class="st1" d="M30.8,26.3c0.5,1.5,0.9,3.1,1.4,4.6c0.5,1.5,1.1,3,1.8,4.4c-1.1-1.2-1.8-2.7-2.3-4.3
					C31.2,29.5,30.9,27.9,30.8,26.3z"/>
			</g>
			<g>
				<path class="st1" d="M34.6,31.5c0.4,0.8,0.8,1.6,1,2.4L36,35c0.1,0.4,0.3,0.8,0.6,1.1c-0.4-0.2-0.7-0.5-0.9-0.9
					c-0.2-0.4-0.4-0.8-0.5-1.2C34.9,33.2,34.7,32.3,34.6,31.5z"/>
			</g>
			<g>
				<path class="st1" d="M46.8,35.5c0.2,0.5,0.3,1,0.5,1.5c0.2,0.5,0.4,0.9,0.6,1.4c-0.5-0.3-0.9-0.7-1.1-1.3
					C46.7,36.6,46.6,36,46.8,35.5z"/>
			</g>
			<g>
				<path class="st1" d="M50,37.2c0.5,0.6,1,1.2,1.5,1.8c0.5,0.6,1,1.2,1.5,1.8c-0.8-0.3-1.4-0.9-1.9-1.5C50.6,38.7,50.1,38,50,37.2
					z"/>
			</g>
		</g>
	</g>
	<g>
		<g>
			<path class="st3" d="M58,41.8l-1,12.3c0,0-49.6-0.5-51.1-0.9c0,0-4.8-8-5.2-9.4s34.5,5.5,54.2,1.8l1.5-3.8H58z"/>
			<g>
				<path class="st1" d="M4.7,51.4c0.3-0.3,0.6-0.2,0.8-0.2l0.8,0.1L8,51.4l3.3,0.2c2.2,0.2,4.4,0.3,6.5,0.5
					c4.4,0.2,8.7,0.4,13.1,0.6c4.4,0.2,8.7,0.3,13.1,0.3c2.2,0,4.4,0,6.6-0.1c1.1-0.1,2.2-0.1,3.3-0.2l1.6-0.1
					c0.3,0,0.5-0.1,0.8-0.1c0.3,0,0.5-0.1,0.9,0.1l0,0c-0.2,0.3-0.5,0.3-0.8,0.4c-0.3,0-0.6,0.1-0.8,0.1l-1.6,0.1
					c-1.1,0.1-2.2,0.1-3.3,0.1c-2.2,0-4.4,0-6.6-0.1c-4.4-0.1-8.7-0.2-13.1-0.4l-13.1-0.6L11.3,52L8,51.8l-1.6-0.1l-0.8,0
					C5.3,51.7,5,51.7,4.7,51.4L4.7,51.4z"/>
			</g>
			<g>
				<path class="st1" d="M2.1,46.7c0.3-0.1,0.6-0.1,0.9,0l0.8,0.1l1.7,0.1L8.8,47l6.7,0.4c4.5,0.2,9,0.5,13.5,0.6
					c4.5,0.2,9,0.3,13.5,0.4c2.3,0,4.5,0,6.8,0c1.1,0,2.3,0,3.4-0.1l1.7-0.1c0.6,0,1-0.3,1.7-0.1l0,0c-0.5,0.4-1.1,0.4-1.6,0.5
					l-1.7,0.1C51.6,49,50.5,49,49.4,49c-2.3,0-4.5,0-6.8-0.1c-4.5-0.1-9-0.3-13.5-0.5c-4.5-0.2-9-0.5-13.5-0.8l-6.8-0.4L5.4,47
					l-1.7-0.1l-0.8-0.1C2.6,46.9,2.3,46.8,2.1,46.7L2.1,46.7z"/>
			</g>
			<g>
				<path class="st1" d="M36.4,46.7l-0.1-4.9l0.1,0.1L18.3,42l0.2-0.2l-0.6,3.6l-0.2-0.3c3.1,0.2,6.2,0.4,9.3,0.7L36.4,46.7z
					 M36.4,46.7l-9.3-0.5c-3.1-0.2-6.3-0.4-9.5-0.6l-0.3,0l0-0.3l0.7-3.5l0-0.2l0.2,0l18.1,0.1l0.1,0l0,0.1L36.4,46.7z"/>
			</g>
		</g>
		<g>
			<g>
				<path class="st1" d="M1.1,43.9c0.4,0.4,0.7,0.9,1,1.4c0.2,0.5,0.4,1,0.5,1.6c-0.4-0.4-0.7-0.9-1-1.4C1.4,45,1.2,44.5,1.1,43.9z"
					/>
			</g>
			<g>
				<path class="st1" d="M2,43.9c0.4,0.5,0.6,1,0.8,1.6C3,46,3.2,46.6,3.3,47.2c-0.4-0.4-0.7-1-1-1.5C2.2,45.1,2,44.5,2,43.9z"/>
			</g>
			<g>
				<path class="st1" d="M3.4,43.9C3.7,44.4,3.9,45,4,45.5c0.1,0.6,0.3,1.1,0.3,1.7c-0.4-0.5-0.6-1-0.8-1.6
					C3.4,45.1,3.3,44.5,3.4,43.9z"/>
			</g>
			<g>
				<path class="st1" d="M6,44.4c0.3,0.4,0.5,0.9,0.7,1.3c0.1,0.5,0.3,0.9,0.2,1.5c-0.3-0.4-0.5-0.9-0.7-1.3C6.1,45.4,5.9,45,6,44.4
					z"/>
			</g>
			<g>
				<path class="st1" d="M7.4,44.7c0.3,0.2,0.5,0.6,0.6,0.9c0.1,0.4,0.1,0.7,0,1.1c-0.2-0.3-0.4-0.7-0.5-1
					C7.5,45.5,7.4,45.1,7.4,44.7z"/>
			</g>
			<g>
				<path class="st1" d="M8.7,44.6C9,45,9.2,45.3,9.5,45.7c0.1,0.2,0.2,0.4,0.2,0.7c0,0.3,0,0.5-0.2,0.7C9.5,46.7,9.2,46.4,9,46
					C8.8,45.6,8.6,45.1,8.7,44.6z"/>
			</g>
			<g>
				<path class="st1" d="M10.8,45c0.3,0.3,0.5,0.7,0.6,1.1c0.1,0.4,0.2,0.8,0.1,1.2c-0.3-0.3-0.5-0.7-0.6-1.1
					C10.8,45.8,10.7,45.4,10.8,45z"/>
			</g>
			<g>
				<path class="st1" d="M13.5,45.4c0.3,0.2,0.5,0.5,0.6,0.9c0.1,0.3,0.1,0.7-0.1,1c-0.2-0.3-0.3-0.6-0.4-0.9
					C13.5,46.1,13.5,45.8,13.5,45.4z"/>
			</g>
			<g>
				<path class="st1" d="M15.9,45.4c0.3,0.3,0.4,0.6,0.5,0.9c0.1,0.3,0.1,0.6,0,1c-0.3-0.3-0.4-0.6-0.5-0.9
					C15.8,46.1,15.7,45.8,15.9,45.4z"/>
			</g>
			<g>
				<path class="st1" d="M18,45.7c0.2,0.2,0.3,0.5,0.4,0.8c0,0.3,0.1,0.6-0.1,0.9c-0.2-0.2-0.3-0.5-0.4-0.8
					C17.9,46.3,17.9,46,18,45.7z"/>
			</g>
			<g>
				<path class="st1" d="M20.5,45.8c0.3,0.3,0.4,0.7,0.6,1.1c0.1,0.4,0.2,0.8,0.2,1.2c-0.3-0.3-0.5-0.7-0.7-1
					C20.4,46.6,20.4,46.2,20.5,45.8z"/>
			</g>
			<g>
				<path class="st1" d="M21.9,46.1c0.2,0.2,0.4,0.4,0.5,0.7c0.1,0.2,0.1,0.5,0.1,0.8c-0.3-0.2-0.4-0.4-0.5-0.6
					C21.8,46.6,21.8,46.4,21.9,46.1z"/>
			</g>
			<g>
				<path class="st1" d="M23.8,46.3c0.2,0.1,0.3,0.3,0.4,0.4c0,0.2,0.1,0.3-0.1,0.6c-0.2-0.1-0.3-0.3-0.4-0.4
					C23.6,46.7,23.6,46.6,23.8,46.3z"/>
			</g>
			<g>
				<path class="st1" d="M26.1,46.1c0.3,0.3,0.5,0.6,0.6,0.9c0.1,0.3,0.2,0.7,0.1,1.1c-0.3-0.3-0.5-0.6-0.6-0.9
					C26.1,46.8,26,46.5,26.1,46.1z"/>
			</g>
			<g>
				<path class="st1" d="M2.8,47c0.6,0.6,1.1,1.3,1.6,2c0.5,0.7,0.9,1.5,1.2,2.3C5,50.7,4.5,50,4,49.3C3.6,48.5,3.1,47.8,2.8,47z"/>
			</g>
			<g>
				<path class="st1" d="M7.6,47.5c0.5,0.5,0.8,1.1,1.1,1.8c0.3,0.6,0.5,1.3,0.6,2c-0.5-0.6-0.8-1.2-1.1-1.8
					C7.9,48.9,7.7,48.3,7.6,47.5z"/>
			</g>
			<g>
				<path class="st1" d="M9.4,46.9c0.4,0.2,0.6,0.6,0.8,1c0.2,0.4,0.3,0.8,0.5,1.2c0.3,0.8,0.5,1.6,0.6,2.5c-0.5-0.7-0.8-1.5-1-2.3
					C9.9,48.4,9.8,47.6,9.4,46.9z"/>
			</g>
			<g>
				<path class="st1" d="M11.6,48.4c0.5,0.5,0.8,1,1.1,1.6c0.3,0.6,0.6,1.2,0.7,1.8c-0.5-0.5-0.8-1-1.1-1.6
					C12,49.6,11.7,49,11.6,48.4z"/>
			</g>
			<g>
				<path class="st1" d="M13.5,49.4c0.4,0.2,0.7,0.5,0.8,0.9c0.2,0.4,0.3,0.8,0.2,1.2c-0.3-0.3-0.5-0.6-0.7-1
					C13.8,50.2,13.6,49.8,13.5,49.4z"/>
			</g>
			<g>
				<path class="st1" d="M5.6,51.7c0.3,0.2,0.4,0.4,0.5,0.6c0.1,0.2,0.1,0.5,0,0.8c-0.3-0.2-0.4-0.4-0.5-0.6
					C5.6,52.3,5.5,52,5.6,51.7z"/>
			</g>
			<g>
				<path class="st1" d="M6.3,51.7c0.3,0.2,0.4,0.4,0.5,0.6c0.1,0.3,0.1,0.5-0.1,0.8c-0.2-0.2-0.3-0.4-0.4-0.7
					C6.3,52.3,6.2,52,6.3,51.7z"/>
			</g>
			<g>
				<path class="st1" d="M7.3,51.9c0.2,0.2,0.3,0.4,0.4,0.6c0,0.2,0.1,0.5-0.1,0.7c-0.2-0.2-0.3-0.4-0.4-0.6
					C7.2,52.4,7.2,52.2,7.3,51.9z"/>
			</g>
			<g>
				<path class="st1" d="M8.4,52c0.2,0.2,0.3,0.4,0.4,0.6c0,0.2,0,0.4-0.1,0.7c-0.2-0.2-0.3-0.4-0.4-0.6C8.2,52.5,8.2,52.2,8.4,52z"
					/>
			</g>
			<g>
				<path class="st1" d="M9.8,52c0.2,0.1,0.3,0.3,0.3,0.5c0,0.2,0,0.4-0.1,0.6c-0.2-0.1-0.3-0.3-0.3-0.5C9.6,52.4,9.7,52.2,9.8,52z"
					/>
			</g>
			<g>
				<path class="st1" d="M11.1,51.8c0.3,0.2,0.4,0.5,0.5,0.8c0.1,0.3,0.1,0.6,0,0.9c-0.3-0.3-0.4-0.5-0.5-0.8
					C11,52.5,11,52.2,11.1,51.8z"/>
			</g>
			<g>
				<path class="st1" d="M12.2,52c0.3,0,0.5,0.3,0.7,0.5c0.1,0.3,0.1,0.6-0.1,0.8c-0.2-0.3-0.3-0.4-0.4-0.6
					C12.3,52.5,12.2,52.3,12.2,52z"/>
			</g>
			<g>
				<path class="st1" d="M13.6,52.1c0.2,0.2,0.3,0.3,0.4,0.5c0,0.2,0,0.4-0.1,0.6c-0.2-0.2-0.3-0.3-0.4-0.5
					C13.4,52.5,13.4,52.3,13.6,52.1z"/>
			</g>
			<g>
				<path class="st1" d="M14.5,52.2c0.3,0.1,0.4,0.2,0.4,0.4c0,0.2,0,0.4-0.1,0.6c-0.2-0.1-0.3-0.3-0.4-0.4
					C14.4,52.6,14.4,52.5,14.5,52.2z"/>
			</g>
			<g>
				<path class="st1" d="M17.6,52.3c0.3,0.1,0.4,0.3,0.5,0.4c0.1,0.2,0.1,0.4,0,0.6c-0.3-0.1-0.4-0.3-0.5-0.4
					C17.5,52.7,17.5,52.5,17.6,52.3z"/>
			</g>
			<g>
				<path class="st1" d="M21.9,52.5c0.2,0.1,0.3,0.3,0.4,0.5c0,0.2,0.1,0.4-0.1,0.6c-0.2-0.1-0.3-0.3-0.4-0.5
					C21.8,52.9,21.8,52.7,21.9,52.5z"/>
			</g>
			<g>
				<path class="st1" d="M1.1,44.7c0.5,0,0.9,0.3,1.3,0.5c0.4,0.2,0.8,0.4,1.1,0.6c0.7,0.5,1.4,1,2.1,1.6c-0.8-0.3-1.6-0.7-2.3-1.2
					c-0.4-0.2-0.7-0.5-1.1-0.7C1.8,45.2,1.5,44.9,1.1,44.7z"/>
			</g>
			<g>
				<path class="st1" d="M2.1,46.9c0.4,0,0.8,0.2,1.1,0.4c0.4,0.2,0.7,0.4,1,0.5c0.7,0.4,1.4,0.7,2,1.2c-0.8-0.1-1.6-0.4-2.3-0.7
					c-0.4-0.2-0.7-0.4-1-0.6C2.7,47.3,2.5,47.1,2.1,46.9z"/>
			</g>
			<g>
				<path class="st1" d="M3.5,49.1c0.8,0,1.6,0.3,2.3,0.6c0.7,0.4,1.4,0.8,2,1.4c-0.8-0.3-1.5-0.6-2.2-1C5,49.9,4.3,49.5,3.5,49.1z"
					/>
			</g>
			<g>
				<path class="st1" d="M4.4,50.8c0.2-0.2,0.5-0.1,0.7-0.1l0.6,0.2c0.4,0.1,0.8,0.3,1.2,0.5c0.8,0.4,1.6,0.8,2.3,1.3
					c-0.9-0.2-1.7-0.5-2.5-0.8c-0.4-0.2-0.8-0.4-1.2-0.6l-0.6-0.3C4.8,50.8,4.6,50.7,4.4,50.8z"/>
			</g>
			<g>
				<path class="st1" d="M5.2,52.3c0.6,0,1.1,0.1,1.6,0.3c0.5,0.2,1,0.4,1.5,0.8c-0.6,0-1.1-0.1-1.6-0.3C6.2,52.9,5.7,52.6,5.2,52.3
					z"/>
			</g>
			<g>
				<path class="st1" d="M8.9,51.8c0.7,0,1.4,0.2,2.1,0.5c0.6,0.3,1.3,0.6,1.8,1.1c-0.7-0.2-1.3-0.4-2-0.7
					C10.1,52.5,9.5,52.2,8.9,51.8z"/>
			</g>
			<g>
				<path class="st1" d="M10.7,51.8c0.7,0.1,1.3,0.3,1.9,0.6c0.6,0.3,1.2,0.6,1.7,1c-0.7-0.1-1.3-0.3-1.9-0.6
					C11.8,52.5,11.2,52.2,10.7,51.8z"/>
			</g>
			<g>
				<path class="st1" d="M4.1,44c1.1,0.3,2.1,0.7,3,1.2c0.9,0.5,1.8,1.2,2.6,1.9c-1-0.5-1.9-1-2.9-1.5C5.9,45.1,5,44.6,4.1,44z"/>
			</g>
			<g>
				<path class="st1" d="M5.4,47.1C6,47.3,6.5,47.6,7,47.9C7.5,48.3,8,48.6,8.4,49c-0.6,0-1.2-0.4-1.7-0.7C6.2,48,5.8,47.6,5.4,47.1
					z"/>
			</g>
			<g>
				<path class="st1" d="M8.1,47.3c0.4,0,0.8,0.2,1.2,0.4c0.3,0.2,0.6,0.5,0.9,0.8c-0.4,0-0.8-0.2-1.2-0.4
					C8.6,47.9,8.3,47.6,8.1,47.3z"/>
			</g>
			<g>
				<path class="st1" d="M56.9,52.9c0.1,0.2,0,0.4,0,0.5c-0.1,0.1-0.2,0.2-0.4,0.3c-0.1-0.2-0.1-0.4,0-0.6
					C56.5,53.1,56.7,52.9,56.9,52.9z"/>
			</g>
			<g>
				<path class="st1" d="M55.8,53.1c-0.1,0.3-0.1,0.4-0.2,0.5c-0.1,0.1-0.2,0.2-0.5,0.3c-0.1-0.2-0.1-0.5,0.1-0.6
					C55.3,53.1,55.5,53,55.8,53.1z"/>
			</g>
			<g>
				<path class="st1" d="M54.4,53.3c-0.1,0.3-0.2,0.4-0.3,0.5c-0.1,0.1-0.2,0.2-0.5,0.3c-0.1-0.2,0-0.5,0.1-0.6
					C53.9,53.3,54.2,53.2,54.4,53.3z"/>
			</g>
			<g>
				<path class="st1" d="M52.8,53.3c0,0.3-0.1,0.4-0.2,0.5c-0.1,0.1-0.2,0.2-0.4,0.3c-0.1-0.2-0.1-0.4,0.1-0.6
					C52.3,53.4,52.5,53.3,52.8,53.3z"/>
			</g>
			<g>
				<path class="st1" d="M51.4,53.4c-0.1,0.3-0.1,0.4-0.2,0.5c-0.1,0.1-0.2,0.2-0.5,0.2c-0.1-0.2,0-0.4,0.1-0.6
					C50.9,53.4,51.1,53.3,51.4,53.4z"/>
			</g>
			<g>
				<path class="st1" d="M47.4,53.4c-0.1,0.2-0.2,0.3-0.2,0.4c-0.1,0.1-0.2,0.1-0.4,0.1c-0.1-0.2,0-0.4,0.1-0.5
					C47,53.3,47.2,53.2,47.4,53.4z"/>
			</g>
			<g>
				<path class="st1" d="M45.7,53.3c-0.1,0.2-0.1,0.3-0.2,0.3c-0.1,0.1-0.1,0.1-0.3,0.2c-0.2-0.2-0.1-0.4,0-0.5
					C45.4,53.2,45.6,53.2,45.7,53.3z"/>
			</g>
			<g>
				<path class="st1" d="M57.2,48.8c0.1,0.6,0,1.2-0.1,1.8c-0.1,0.6-0.3,1.2-0.6,1.7c-0.1-0.6,0-1.2,0.1-1.8
					C56.7,49.9,56.9,49.3,57.2,48.8z"/>
			</g>
			<g>
				<path class="st1" d="M54.8,49c-0.1,0.1,0,0.3,0,0.5l0,0.5c0,0.3,0,0.7-0.1,1c-0.1,0.7-0.2,1.4-0.5,2c-0.1-0.7-0.1-1.4,0-2.1
					c0.1-0.3,0.1-0.7,0.2-1C54.6,49.6,54.6,49.3,54.8,49z"/>
			</g>
			<g>
				<path class="st1" d="M53.6,48.7c-0.1,0.1,0,0.3,0,0.5l0,0.5c0,0.3-0.1,0.7-0.2,1c-0.2,0.7-0.4,1.3-0.8,1.9
					c0-0.7,0.1-1.4,0.3-2.1c0.1-0.3,0.2-0.7,0.3-1C53.3,49.3,53.4,48.9,53.6,48.7z"/>
			</g>
			<g>
				<path class="st1" d="M52,48.8c0.1,0.7,0,1.4-0.1,2c-0.1,0.7-0.3,1.3-0.6,2c-0.1-0.7,0-1.4,0.1-2C51.5,50,51.7,49.4,52,48.8z"/>
			</g>
			<g>
				<path class="st1" d="M49.2,48.9c0.1,0.8,0,1.6-0.2,2.3c-0.1,0.4-0.2,0.8-0.4,1.1c-0.2,0.4-0.3,0.7-0.4,1.1c-0.2-0.4,0-0.8,0-1.2
					c0.1-0.4,0.2-0.7,0.3-1.1C48.7,50.4,48.9,49.7,49.2,48.9z"/>
			</g>
			<g>
				<path class="st1" d="M57.2,42.1c-0.1,1.1-0.4,2.1-0.7,3.1c-0.3,1-0.7,2-1.2,3c0.1-1.1,0.4-2.1,0.7-3.1
					C56.3,44.1,56.7,43.1,57.2,42.1z"/>
			</g>
			<g>
				<path class="st1" d="M54.7,45.8c0,0.6-0.1,1-0.3,1.5c-0.2,0.5-0.4,0.9-0.8,1.3c0-0.5,0.1-1,0.3-1.5
					C54.1,46.6,54.3,46.2,54.7,45.8z"/>
			</g>
			<g>
				<path class="st1" d="M52.9,46.5c0,0.4-0.1,0.8-0.2,1.2c-0.1,0.4-0.3,0.7-0.5,1.1c-0.1-0.4,0-0.8,0.1-1.2
					C52.3,47.1,52.5,46.7,52.9,46.5z"/>
			</g>
			<g>
				<path class="st1" d="M51.8,46.2c0,0.4,0,0.8-0.2,1.2c-0.1,0.4-0.3,0.7-0.6,1c-0.1-0.4,0-0.8,0.2-1.2
					C51.3,46.8,51.5,46.5,51.8,46.2z"/>
			</g>
			<g>
				<path class="st1" d="M50.2,46.7c0,0.4-0.1,0.8-0.3,1.2c-0.1,0.4-0.3,0.7-0.5,1.1c-0.1-0.4-0.1-0.9,0.1-1.3
					C49.7,47.3,49.9,46.9,50.2,46.7z"/>
			</g>
			<g>
				<path class="st1" d="M49.1,46.7c0,0.5-0.2,0.9-0.4,1.4c-0.2,0.4-0.5,0.8-0.8,1.2c0-0.5,0.2-0.9,0.4-1.4
					C48.5,47.4,48.7,47,49.1,46.7z"/>
			</g>
			<g>
				<path class="st1" d="M47.2,46.9c-0.1,0,0,0.1,0,0.2l0,0.2c0,0.2,0,0.3,0,0.5c-0.1,0.3-0.1,0.6-0.4,0.9c-0.2-0.3-0.2-0.7-0.1-1
					c0-0.2,0.1-0.3,0.1-0.5l0.1-0.2L47,47C47,46.9,47.1,46.9,47.2,46.9z"/>
			</g>
			<g>
				<path class="st1" d="M45.8,46.9c-0.1,0.1,0,0.1,0,0.2l0.1,0.2c0,0.2,0,0.3,0,0.5c0,0.3-0.1,0.6-0.3,0.9c-0.2-0.3-0.2-0.6-0.2-1
					c0-0.2,0-0.3,0.1-0.5l0.1-0.2C45.6,47,45.7,46.9,45.8,46.9z"/>
			</g>
			<g>
				<path class="st1" d="M44.6,47c0.1,0.3,0.1,0.6,0.1,0.9c-0.1,0.3-0.1,0.6-0.4,0.9c-0.1-0.3-0.1-0.6-0.1-0.9
					C44.2,47.6,44.3,47.3,44.6,47z"/>
			</g>
			<g>
				<path class="st1" d="M43.2,47.1c0.2,0.4,0.2,0.7,0.1,1c-0.1,0.3-0.1,0.7-0.4,1c-0.2-0.4-0.2-0.7-0.1-1
					C42.9,47.7,43,47.4,43.2,47.1z"/>
			</g>
			<g>
				<path class="st1" d="M56.8,42c0.4,0.5,0.7,1,0.8,1.6c0.2,0.6,0.2,1.2,0.1,1.8c-0.3-0.6-0.4-1.1-0.6-1.7
					C57,43.2,56.9,42.7,56.8,42z"/>
			</g>
			<g>
				<path class="st1" d="M56.4,45.1c0.1,0.3,0.3,0.5,0.4,0.8c0.2,0.3,0.3,0.6,0.3,0.8c0.2,0.6,0.2,1.2,0.1,1.8
					c-0.1-0.3-0.2-0.6-0.3-0.8c-0.1-0.3-0.2-0.6-0.2-0.8c-0.1-0.3-0.2-0.6-0.2-0.8C56.4,45.7,56.3,45.4,56.4,45.1z"/>
			</g>
			<g>
				<path class="st1" d="M55.6,49.2c0.5,0.5,0.7,1.1,0.9,1.7c0.2,0.6,0.3,1.3,0.2,1.9c-0.3-0.6-0.4-1.2-0.6-1.8
					C55.9,50.4,55.7,49.8,55.6,49.2z"/>
			</g>
			<g>
				<path class="st1" d="M54.8,51.7c0.5,0.2,0.8,0.5,1.1,0.9c0.3,0.4,0.4,0.8,0.4,1.3c-0.3-0.3-0.6-0.7-0.8-1
					C55.3,52.4,55,52.1,54.8,51.7z"/>
			</g>
			<g>
				<path class="st1" d="M52.8,51.8c0.5,0.2,0.9,0.5,1.2,0.9c0.3,0.4,0.6,0.8,0.7,1.4c-0.4-0.3-0.7-0.7-1.1-1
					C53.3,52.7,53,52.3,52.8,51.8z"/>
			</g>
			<g>
				<path class="st1" d="M51.2,52.8c0.3,0,0.6,0.1,0.8,0.3c0.2,0.2,0.4,0.4,0.4,0.7c-0.3-0.1-0.5-0.2-0.7-0.4
					C51.4,53.3,51.3,53.1,51.2,52.8z"/>
			</g>
			<g>
				<path class="st1" d="M50.8,48.8c0.3,0.1,0.6,0.3,0.8,0.5c0.2,0.2,0.4,0.5,0.4,0.8c-0.3-0.1-0.6-0.3-0.8-0.5
					C51,49.3,50.9,49.1,50.8,48.8z"/>
			</g>
			<g>
				<path class="st1" d="M52.8,48.8c0.4,0,0.7,0.2,1,0.3c0.1,0.1,0.3,0.2,0.4,0.3c0.1,0.1,0.1,0.1,0.2,0.2c0,0.1,0.1,0.2,0,0.3
					c-0.1-0.2-0.2-0.2-0.4-0.2c-0.2-0.1-0.3-0.1-0.5-0.2C53.2,49.4,52.9,49.2,52.8,48.8z"/>
			</g>
			<g>
				<path class="st1" d="M54.9,48.4c0.4,0,0.6,0.2,0.8,0.4c0.2,0.2,0.4,0.5,0.4,0.9c-0.3-0.1-0.6-0.3-0.8-0.5
					C55.2,49,55,48.7,54.9,48.4z"/>
			</g>
			<g>
				<path class="st1" d="M25.9,52.7c0.3,0,0.4,0.1,0.6,0.3c0.1,0.2,0.2,0.3,0.2,0.6c-0.3,0-0.4-0.1-0.6-0.3
					C26,53.2,25.9,53,25.9,52.7z"/>
			</g>
			<g>
				<path class="st1" d="M19,41.9c0.1,0.6,0.1,1.1,0,1.7c-0.1,0.6-0.2,1.1-0.5,1.6c-0.1-0.6-0.1-1.1,0-1.7
					C18.6,43,18.8,42.4,19,41.9z"/>
			</g>
			<g>
				<path class="st1" d="M20,41.9c0.1,0.6,0.1,1.3,0.1,1.9C20,44.4,20,45,19.7,45.6c-0.1-0.6-0.1-1.3-0.1-1.9
					C19.7,43.1,19.8,42.5,20,41.9z"/>
			</g>
			<g>
				<path class="st1" d="M22.2,42c0.1,0.6,0.1,1.2,0.1,1.8c0,0.3,0,0.6-0.1,0.9l-0.1,0.5l0,0.2c0,0.1,0,0.2,0,0.1
					c0.1,0-0.1,0.1-0.1,0c0-0.1,0-0.1,0-0.1L22,45.2l-0.1-0.5c-0.1-0.3-0.1-0.6-0.1-0.9C21.9,43.2,22,42.5,22.2,42z"/>
			</g>
			<g>
				<path class="st1" d="M26.6,42c0.2,0.6,0.3,1.3,0.4,1.9c0,0.7,0,1.3-0.1,2c-0.2-0.6-0.3-1.3-0.4-1.9C26.4,43.3,26.4,42.6,26.6,42
					z"/>
			</g>
			<g>
				<path class="st1" d="M30.2,42.1c0.3,0.7,0.4,1.3,0.5,2c0.1,0.7,0.1,1.4,0.1,2.1l-0.1,0c0-0.1,0.1-0.1,0.1-0.2c0,0.1,0,0.1,0,0.2
					l0,0.2l-0.1-0.2c-0.2-0.7-0.4-1.3-0.5-2C30.2,43.4,30.1,42.8,30.2,42.1z"/>
			</g>
			<g>
				<path class="st1" d="M33.6,42c0,0.4,0.2,0.7,0.2,1c0.1,0.3,0.1,0.7,0.2,1c0.1,0.7,0.1,1.4,0,2.1c-0.3-0.7-0.4-1.4-0.5-2.1
					c0-0.4-0.1-0.7-0.1-1.1C33.5,42.8,33.4,42.4,33.6,42z"/>
			</g>
			<g>
				<path class="st1" d="M35.7,42c0.2,0.7,0.2,1.4,0.2,2.2c0,0.7-0.1,1.4-0.2,2.2c-0.2-0.7-0.2-1.4-0.2-2.2
					C35.5,43.4,35.5,42.7,35.7,42z"/>
			</g>
			<g>
				<path class="st1" d="M18.1,44.6c0.3,0,0.5,0.1,0.7,0.2c0.2,0.2,0.3,0.4,0.3,0.7c-0.3-0.1-0.5-0.2-0.6-0.3
					C18.3,45.1,18.1,44.9,18.1,44.6z"/>
			</g>
			<g>
				<path class="st1" d="M20.2,44.7c0.4,0,0.6,0.2,0.9,0.4c0.2,0.2,0.4,0.5,0.5,0.8c-0.3-0.1-0.6-0.3-0.8-0.5
					C20.5,45.2,20.3,45,20.2,44.7z"/>
			</g>
			<g>
				<path class="st1" d="M26.5,45.2c0.3,0,0.5,0.1,0.6,0.3c0.2,0.2,0.3,0.4,0.3,0.6c-0.3,0-0.5-0.1-0.6-0.3
					C26.6,45.7,26.5,45.5,26.5,45.2z"/>
			</g>
			<g>
				<path class="st1" d="M33.6,45.5c0.3,0,0.6,0.1,0.8,0.3c0.2,0.2,0.4,0.4,0.5,0.7c-0.4,0-0.6-0.1-0.8-0.3
					C34,46,33.8,45.8,33.6,45.5z"/>
			</g>
			<g>
				<path class="st1" d="M35.6,45.7c0.2,0,0.4,0,0.5,0.1c0.1,0.1,0.2,0.2,0.1,0.5c-0.2,0.1-0.4,0-0.5-0.1
					C35.6,46.1,35.5,46,35.6,45.7z"/>
			</g>
		</g>
	</g>
	<g>
		<path class="st1" d="M0.1,57.9c-0.1-0.6,0.2-1.2,0.5-1.8c0.3-0.6,0.6-1.1,1-1.6c0.8-1,2.1-1.6,3.4-1.6l-0.1,0.5
			c-0.1,0-0.3,0.1-0.4,0.3c-0.1,0.2-0.2,0.4-0.3,0.7c-0.2,0.5-0.3,1-0.3,1.5c0,0.5,0.3,0.9,0.6,1c0.2,0.1,0.5,0,0.8,0.1
			c0.2,0.1,0.4,0,0.6,0c0.4-0.2,0.5-0.5,0.6-1.1c0.1-0.5,0.2-1.2,0.6-1.7c0.8-1,2-1.5,3.2-1.6l2.4-0.4l-2.1,1.2
			c-0.5,0.3-0.8,0.8-1,1.3c-0.1,0.6-0.1,1.2,0.1,1.6c0.1,0.2,0.3,0.3,0.6,0.4l0.9,0.3c0.3,0.1,0.5,0.1,0.8,0
			c0.2-0.1,0.3-0.2,0.5-0.4c0.1-0.2,0.2-0.6,0.4-0.9c0.2-0.3,0.4-0.7,0.6-1c0.5-0.6,1.1-1.1,1.8-1.4c0.7-0.3,1.4-0.5,2.1-0.6
			c0.7-0.1,1.6,0,2.3,0.3l2.3,1.2L19.4,54c-0.5-0.1-1.1,0.2-1.7,0.5c-0.5,0.3-0.9,0.8-0.8,1.3c0,0.5,0.5,0.9,1.1,1.1
			c0.6,0.2,1.3,0.1,2,0l-0.1,0c0.5-0.2,0.9-0.6,1.1-1.2c0.2-0.5,0.4-1.3,0.9-1.8c0.5-0.5,1.2-0.9,1.9-0.9c0.7-0.1,1.4,0.1,2,0.5
			l0.3,0.3L25.6,54c-0.9,0.3-1.3,1.5-0.9,2.3c0.4,0.9,1.5,1.4,2.5,1.1c-1,0.3-2.2-0.1-2.7-1c-0.3-0.5-0.3-1.1-0.1-1.6
			c0.2-0.5,0.5-1,1.1-1.2l-0.1,0.4c-0.5-0.3-1.1-0.4-1.7-0.4c-0.6,0.1-1.1,0.4-1.5,0.8c-0.4,0.4-0.5,1-0.7,1.6
			c-0.2,0.7-0.7,1.3-1.4,1.6l0,0l-0.1,0c-0.7,0.1-1.5,0.2-2.3,0c-0.8-0.2-1.6-0.8-1.7-1.7c-0.1-1,0.5-1.8,1.2-2.2
			c0.6-0.3,1.3-0.8,2.3-0.7L19.2,54c-1-0.5-2.4-0.2-3.6,0.3c-0.6,0.3-1,0.7-1.4,1.2c-0.2,0.2-0.3,0.5-0.5,0.8
			c-0.1,0.3-0.2,0.6-0.4,1c-0.2,0.4-0.6,0.8-1.1,0.9c-0.5,0.1-0.9,0.1-1.3-0.1l-1-0.4c-0.3-0.1-0.8-0.3-1.1-0.8
			c-0.5-0.8-0.4-1.6-0.2-2.4c0.2-0.8,0.7-1.5,1.4-1.9l0.3,0.8c-1,0.1-2,0.5-2.6,1.3c-0.3,0.4-0.4,0.8-0.5,1.4
			c-0.1,0.3-0.2,0.6-0.3,0.9c-0.2,0.3-0.5,0.6-0.8,0.7c-0.3,0.1-0.7,0.1-1,0c-0.2-0.1-0.5-0.1-0.8-0.2c-0.8-0.3-1-1-1-1.6
			c0-0.6,0.2-1.2,0.4-1.7c0.1-0.3,0.2-0.5,0.4-0.8c0.1-0.1,0.2-0.3,0.4-0.4c0.2-0.1,0.4-0.2,0.6-0.1l1.7,0.5l-1.7,0
			c-1.2,0-2.3,0.5-3.2,1.3c-0.4,0.4-0.7,0.9-1.1,1.5C0.4,56.7,0.1,57.3,0.1,57.9z"/>
	</g>
	<g>
		<path class="st1" d="M51.1,53.4c0.6-0.4,1-0.9,1.4-1.5c0.4-0.6,0.5-1.3,0.9-1.9c0.4-0.6,1.1-1.1,1.8-1.3c0.7-0.3,1.4-0.4,2.1-0.5
			l0.1,0.7c-0.5,0.1-1,0.5-1.2,1c-0.2,0.5-0.2,1.1,0,1.5c0.2,0.5,0.7,0.8,1.2,0.9c0.5,0.1,1,0,1.4-0.4l0,0l0,0
			c0.3-0.2,0.5-0.6,0.7-1c0.2-0.4,0.5-0.9,0.9-1.3c0.8-0.8,1.9-1.3,3-1.3l3.5,0.1l-3.3,0.9c-0.3,0.1-0.5,0.5-0.6,0.9
			c-0.1,0.4,0,1,0.2,1.4c0.1,0.2,0.2,0.4,0.4,0.5c0.1,0.1,0.3,0.2,0.5,0.3c0.2,0.1,0.4,0.1,0.7,0.1c0.2,0,0.4-0.1,0.6-0.2
			c0.4-0.2,0.7-0.6,0.9-1.1c0.2-0.5,0.5-1,0.8-1.5c0.5-1,1.7-2,3-1.7l0.6,0.1l-0.5,0.4c-0.3,0.3-0.6,0.7-0.6,1.2
			c-0.1,0.5,0,1,0.3,1.4c0.2,0.5,0.5,0.9,0.8,1.3c0.3,0.4,0.7,0.8,1.1,1c-0.5-0.2-0.9-0.5-1.3-0.9c-0.4-0.4-0.7-0.8-1-1.3
			c-0.3-0.4-0.5-1-0.5-1.6c0-0.6,0.2-1.2,0.7-1.6l0.1,0.5c-0.5-0.1-0.9,0.1-1.3,0.4c-0.4,0.3-0.7,0.7-0.9,1.2
			c-0.2,0.5-0.4,1-0.7,1.5c-0.2,0.5-0.6,1.1-1.2,1.5c-0.3,0.2-0.7,0.3-1,0.3c-0.3,0-0.6,0-1-0.1c-0.3-0.1-0.7-0.2-0.9-0.5
			c-0.2-0.2-0.4-0.5-0.6-0.8c-0.3-0.6-0.3-1.2-0.3-1.9c0-0.3,0.1-0.6,0.3-1c0.2-0.3,0.5-0.6,0.9-0.7l0.2,1c-0.8,0-1.7,0.4-2.3,1
			c-0.3,0.3-0.5,0.7-0.7,1.1c-0.2,0.4-0.5,1-1,1.3l0.1,0c-0.6,0.6-1.5,0.8-2.3,0.6c-0.8-0.2-1.4-0.7-1.8-1.4
			c-0.4-0.7-0.3-1.6,0.1-2.3c0.4-0.7,1-1.2,1.8-1.3l0.1,0.7c-0.7,0.1-1.4,0.2-2,0.4c-0.6,0.2-1.2,0.5-1.6,1.1
			c-0.4,0.5-0.6,1.2-1.1,1.8C52.3,52.6,51.7,53.1,51.1,53.4z"/>
	</g>
	<g>
		<path class="st1" d="M37,63.1c-0.5,0.1-1,0.1-1.5-0.1c-0.5-0.2-1-0.6-1.2-1.1c-0.2-0.6-0.1-1.2,0.2-1.7c0.1-0.3,0.3-0.5,0.4-0.7
			c0.1-0.1,0.2-0.2,0.2-0.3l0.1-0.1c0.1-0.1,0.1-0.2,0.2-0.2l0.4,0.7c-0.2,0.1-0.3,0.1-0.5,0.2c-0.1,0.1-0.3,0.3-0.5,0.4
			c-0.4,0.2-0.7,0.4-0.9,0.7c-0.3,0.3-0.5,0.6-0.7,1c-0.2,0.4-0.4,0.9-1,1.2c-0.3,0.1-0.6,0.2-0.9,0.2c-0.1,0-0.2,0-0.2-0.1l-0.1,0
			L30.5,63c-0.2-0.1-0.6-0.2-0.8-0.5c-0.2-0.2-0.3-0.5-0.4-0.8c-0.1-0.6,0.1-1.1,0.3-1.5c0.1-0.2,0.2-0.4,0.3-0.7
			c0.1-0.2,0.4-0.5,0.7-0.6l0.1,0.8c-1-0.1-2,0.1-2.6,0.9c-0.3,0.4-0.6,0.9-0.8,1.3c-0.3,0.5-0.6,0.9-1.1,1.1
			c0.4-0.3,0.7-0.8,0.9-1.3c0.2-0.5,0.4-1,0.7-1.5c0.3-0.5,0.8-0.9,1.3-1.1c0.6-0.2,1.1-0.3,1.7-0.3l2.8,0.1l-2.7,0.7
			c-0.1,0-0.3,0.4-0.4,0.8c-0.1,0.4-0.2,0.8-0.2,1c0,0.1,0.1,0.3,0.2,0.3c0.1,0.1,0.1,0.1,0.3,0.2l0.3,0.1l0.2,0c0,0,0.1,0,0.1,0
			c0.1,0,0.2,0,0.3-0.1c0.4-0.2,0.7-1.3,1.4-2c0.3-0.3,0.8-0.6,1.2-0.8c0.2-0.1,0.3-0.2,0.6-0.3c0.2-0.1,0.5-0.2,0.7-0.3l1.8-0.4
			l-1.4,1.1c0,0-0.1,0-0.1,0.1l-0.1,0.2l-0.3,0.3c-0.2,0.2-0.3,0.4-0.4,0.5c-0.2,0.4-0.4,0.8-0.3,1.3c0.1,0.4,0.4,0.8,0.8,1
			C36,63,36.5,63.1,37,63.1z"/>
	</g>
</g>
</svg>
