<?xml version="1.0" encoding="utf-8"?>
<!-- Generator: Adobe Illustrator 22.0.1, SVG Export Plug-In . SVG Version: 6.00 Build 0)  -->
<svg version="1.1" id="圖層_1" xmlns="http://www.w3.org/2000/svg" xmlns:xlink="http://www.w3.org/1999/xlink" x="0px" y="0px"
	 viewBox="0 0 240 320" style="enable-background:new 0 0 240 320;" xml:space="preserve">
<style type="text/css">
	.st0{fill:#DCBC9C;}
	.st1{fill:#534741;}
	.st2{fill:#736357;}
</style>
<g>
	<rect y="0" class="st0" width="240" height="320"/>
	<g>
		<g>
			<path class="st1" d="M64.5,5c-2.2,2.4-3.8,4.8-4.9,7.1s-2.4,6.3-3.9,11.8l-4.1,14.8l0.5,1.8l2.9,2.6H44.3l3.1-2.6l-4.1-15
				l-4,14.7l4,4.8h-12l-0.5-0.6H42l-3.5-4.1l4.4-16l-0.8-2.8l-4.8,17.6l0.4,1.5l2.7,2.6H29.7l3.2-2.6L26.1,16l-3.5-3H34l-3.2,3
				l5.4,19.3l0.8-2.8l-4.5-16.1l2.1-1.9l0.5,0.4l-1.9,1.7l4.1,14.7l5-18.3h2.2l6.1,22.1l0.8-2.6L46,13.1h0.7l5,18.3l2.2-7.9
				c1.4-5,2.1-8.2,2.1-9.7c0-1.7-0.8-3-2.3-3.9c1.8-0.6,3.8-1.4,5.9-2.4s3.7-1.9,4.7-2.7L64.5,5z M65.9,6.8c-1.9,2.1-3.4,4.4-4.6,7
				s-2.4,6.2-3.7,10.9l-4.1,15.1l4.5,5.3h-12l-0.5-0.6h11.1L52.7,40L57,24.3c1.3-4.7,2.5-8.2,3.7-10.7s2.7-4.9,4.7-7.2L65.9,6.8z"/>
			<path class="st1" d="M87,13.1l-2.4,2.8L88.4,26l0.9-0.5l-3.5-9.2l2.5-2.9l0.6,0.3l-2.4,2.7l3.3,8.7c0.2-0.1,0.3-0.2,0.3-0.3
				l0.8-0.7c0.5-0.4,0.8-0.6,0.9-0.8c0.4,1.8,1,3.4,1.9,4.8c-0.5,0-0.8,0-1,0c-1.5,0-2.6,0.2-3.3,0.7l4.2,11.5l3.5,2.7H85.4l3.2-2.7
				L86,33.6c-1.7,1.7-3,3.4-4,4.9l-0.5-0.1c0.9-1.5,2.3-3.2,4.1-5.1l0.2-0.2l-0.4-1c-1.9,1.5-3.4,3.3-4.6,5.4l-0.4-0.7
				c-0.8-1.3-1.9-2.8-3.1-4.4L77,32c-1.2,2.7-1.8,4.8-1.8,6.5c0,1,0.2,1.8,0.5,2.5s1.1,1.8,2.4,3.4c0.1,0.1,0.3,0.4,0.5,0.7H66
				l-0.5-0.6h11.9L77,43.9c-1-1.3-1.7-2.2-2-2.9s-0.5-1.5-0.5-2.4c0-1.6,0.6-4,1.9-7.1l-1-1.1c-0.2,0.5-0.5,1.2-0.8,2.2l-0.8,2.4
				c-0.4,1.3-0.6,2.3-0.6,3.2c0,0.9,0.1,1.6,0.4,2.2s0.9,1.4,1.9,2.4c0.1,0.1,0.2,0.2,0.4,0.4H64.3c2.2-1.2,4-2.7,5.3-4.7
				s2.6-5,3.9-9l0.1-0.3c-0.8-0.7-2-1.1-3.6-1.3c0.9-1.3,1.5-2.6,2-4c0.2,0.2,0.4,0.3,0.4,0.4l1.1,1c0.4,0.3,0.8,0.7,1.3,1.1l0.4-1
				l-0.3-0.2c-0.8-0.7-1.4-1.2-2-1.7l-0.2-0.2l0.4-0.5c0.8,0.5,1.6,1.2,2.4,1.9l3.2-8.8l-2.5-2.7H87z M80.1,17.9l-3.7,9.8
				c1.2,1.2,2.2,2.4,3.1,3.6l1.1,1.5c0,0,0.1,0.1,0.2,0.3c0.1-0.1,0.2-0.2,0.2-0.3l0.3-0.4c0-0.1,0.1-0.2,0.3-0.3
				c-1.1-1.7-2.4-3.2-3.8-4.6l3-7.9L80.1,17.9z M81.2,20.6l-2.6,6.8c0.1,0.2,0.2,0.3,0.2,0.3l1,1.1c0.5,0.6,1.2,1.4,2,2.6l0.2,0.4
				c0.7-0.8,1.5-1.7,2.4-2.5L81.2,20.6z M93.9,24.6c0.3,1.4,1.2,3.3,2.6,5.8c-0.3,0-0.5-0.1-0.6-0.1L94,30.1
				c-0.9-0.1-1.5-0.1-1.9-0.1c-0.1,0-0.2,0-0.5,0l3.9,10.4l5.2,4.6H87.2l-0.4-0.6h12.4L95,40.7l-4.2-11c0.5-0.1,1.1-0.2,1.8-0.2
				c0.8,0,1.8,0.1,2.8,0.2l-0.3-0.5c-1-1.8-1.7-3.5-2-5L93.9,24.6z"/>
			<path class="st1" d="M130.7,13.1c-1.8,0.9-2.9,1.8-3.4,2.5c-0.8,1.2-1.2,3-1.2,5.4v1.5v20.6h-4l-11.1-21.5v12.7l0,1.1l0.3,3.4
				c0.3,1.6,1,2.7,2.1,3.5l0.2,0.2c-2.2-0.7-3.2-3-3.2-6.9l0-2.2V20.5l-1.3-2.5v13.5c0,4.3,0.3,7.1,0.8,8.4s1.9,2.3,4,2.9l2,2.2
				h-12.7l-0.4-0.6h11.7l-1.2-1.3h-10.9c1.9-0.7,3.2-1.6,3.8-2.8s0.9-3.1,0.9-6V15.7l-3.1-2.6H116l-3.3,2.2L124,37.4v-2.8l-9.7-18.9
				l3.3-2.2l0.4,0.4l-2.9,2l8.9,17.5V22.4v-1.2c0-2.7-0.2-4.5-0.7-5.4s-1.5-1.8-3.3-2.6H130.7z M131.5,14.8l-0.4,0.7
				c-1.2,0.3-2,0.8-2.4,1.6s-0.6,2-0.6,3.8V45h-5l-0.3-0.6h4.7V21.1c0-2.2,0.3-3.7,0.9-4.6S129.9,15.1,131.5,14.8z"/>
			<path class="st1" d="M161.3,13.1c-0.1,0.3-0.2,0.4-0.3,0.5l-1.6,2.8c-0.5,1-1.1,2.3-1.5,3.8l0,0.1l-0.2-0.2l-0.1-0.3
				c-0.5-1.8-1.1-3-1.9-3.7s-2.1-1-3.8-1c-0.7,0-1.4,0-2.1,0.1h-0.3v25.4l2.8,2.6h-10.7l3.3-2.7V17.1l-1.7,0c-1.6,0-2.8,0.3-3.4,0.9
				s-1.1,1.7-1.2,3.3h-0.6c0.2-1.8,0.6-3.1,1.4-3.8s2.1-1.1,3.8-1.1l1.4,0h0.3v-1.1c-0.8-0.1-1.6-0.1-2.3-0.1c-2,0-3.5,0.4-4.4,1.2
				s-1.4,2.2-1.5,4.2h-0.3c-0.7-2.2-1.7-4.6-3.1-7.3l-0.1-0.2H161.3z M156.6,18.2c-1.2-0.8-2.6-1.2-4.2-1.2c-0.4,0-0.7,0-1.1,0.1
				l0.1,23.6L155,45h-12l-0.5-0.6h11.2l-3.1-3.6V16.4l1.3,0c1.5,0,2.6,0.1,3.2,0.4S156.2,17.5,156.6,18.2z M162.8,14.5
				c-1.1,1.4-2.2,3.7-3.4,6.8l-0.1,0.2l-0.5-0.4l0.1-0.2c1.2-3.2,2.3-5.5,3.4-6.8l0.1-0.1L162.8,14.5z"/>
			<path class="st1" d="M190.8,13.1l-0.4,0.4c-1.6,2-2.9,4.2-3.8,6.7c-0.2-0.4-0.3-0.6-0.4-0.8c-0.9-1.9-1.8-3.1-2.8-3.6
				s-2.8-0.8-5.3-0.8c-1.2,0-2.6,0-4.2,0.1v10.8h1.5v-9.5c1.2-0.1,2.3-0.2,3.4-0.2c2,0,3.4,0.2,4.4,0.6s1.8,1.2,2.5,2.5
				c-0.2-0.2-0.4-0.3-0.5-0.4c-1.3-1-2.2-1.6-2.7-1.8s-1.7-0.3-3.3-0.3c-0.5,0-1.4,0-2.7,0.1l-0.5,0v8.9h4.3l3-4.1v10.1l-3-3.9H174
				v13.1h1.5V29h5.1l0.6,0.6h-5.1v11.4c3.2,0,5.5-0.2,6.8-0.7s2.4-1.3,3.2-2.7l1.2-2.1c0-0.1,0.1-0.3,0.3-0.5
				c0.4,1.7,0.9,3.1,1.5,4.1s1.6,2.2,3,3.6h-26.3l3.6-2.7V29.6c-1.3,0.2-2.5,0.6-3.6,1.2l-0.3-0.5c1-0.7,2.3-1.1,3.9-1.3v-1.1
				c-0.3,0-0.5,0-0.6,0c-1.6,0-3,0.6-4.4,1.8c0.7-2.5,2.4-3.8,4.9-3.8v-10l-3.6-2.8H190.8z M194.7,42.9l-1.2,2.1h-25.6l-0.4-0.6
				h25.7l0.8-1.5c-2.3-2.1-3.8-4.3-4.8-6.7l0.8,0.3c0.9,2,2.3,4,4.4,6L194.7,42.9z M185,22.5v10.4l-0.6-0.3V22.2L185,22.5z
				 M191.9,14.7l-0.2,0.2c-1.9,2.6-3.2,4.7-3.8,6.4l-0.4-0.5c1-2.4,2.4-4.6,4.1-6.7L191.9,14.7z"/>
			<path class="st1" d="M198.3,13.1h9.2c4.5,0,7.9,0.9,10,2.6c3.2,2.6,4.9,6.6,4.9,12c0,5.7-1.4,9.8-4.2,12.3
				c-1.3,1.1-2.7,1.9-4.3,2.4s-3.7,0.7-6.3,0.7h-10l3.2-2.5V15.7L198.3,13.1z M199.1,45l-0.4-0.6h8.6c4.2,0,7.4-0.6,9.6-1.8
				c4.7-2.5,7.1-7.3,7.1-14.5c0-4.8-1.1-8.4-3.2-10.7l-0.9-1c0,0-0.1-0.1-0.3-0.3c3.3,2.1,5,6.1,5,11.9c0,6.2-1.6,10.7-4.9,13.6
				c-2.5,2.3-6.6,3.4-12.3,3.4H199.1z M205.4,15v26.3h1.3V16.6c0.8-0.1,1.6-0.2,2.2-0.2c1.3,0,2.3,0.1,3,0.4s1.5,0.7,2.2,1.4
				c-1.7-0.8-3.4-1.2-5.3-1.2c-0.4,0-0.9,0-1.6,0.1v24.2c1.8,0,3.1-0.1,4-0.4s1.8-0.8,2.6-1.7c2.3-2.3,3.4-6.2,3.4-11.6
				c0-5.3-1.2-8.9-3.7-10.9c-1.5-1.2-3.8-1.8-7.1-1.8H205.4z"/>
		</g>
		<g>
			<path class="st1" d="M221.2,204.2l-99.9,0.3c-16.7,0-33.4,0.1-50.1,0.1l-50.1-0.1l-0.3,0l0-0.3l0.2-75l-0.1-75l0-0.3l0.3,0
				l100-0.2l100,0l0.5,0l0,0.5l-0.2,75.1L221.2,204.2z M221.1,204.2l-0.3-75.1l-0.2-74.9l0.5,0.5l-100,0l-100-0.2l0.3-0.3l-0.1,75
				l0.2,75l-0.3-0.3l49.9-0.1c16.6,0,33.3,0.1,49.9,0.1L221.1,204.2z"/>
		</g>
		<g>
			<path class="st1" d="M36.8,215.3H44c1.3,0,2.5,0.2,3.4,0.6c0.9,0.4,1.7,0.9,2.2,1.5s0.9,1.3,1.2,2c0.2,0.7,0.4,1.5,0.4,2.3
				c0,0.9-0.2,1.8-0.5,2.6c-0.3,0.8-0.8,1.5-1.3,2.1c-0.6,0.6-1.3,1-2,1.3c-0.8,0.3-1.6,0.5-2.6,0.5h-8.1v-0.1l2.1-0.3
				c0.1-0.5,0.2-1.3,0.2-2.5s0.1-2.1,0.1-2.7v-2.3c0-1.7-0.1-3.2-0.2-4.6L36.8,215.3L36.8,215.3z M39.4,215.7v12.2h0.6v-12.2H39.4z
				 M40.9,219.7v5.1c0,0.8,0,1.5,0.1,2.3c0.4,0.2,0.8,0.3,1.3,0.4s0.9,0.1,1.4,0.1c0.7,0,1.3-0.1,1.9-0.4s1.2-0.6,1.7-1.1
				s0.9-1.1,1.2-1.9s0.5-1.6,0.5-2.6c0-1-0.2-1.9-0.5-2.6s-0.8-1.4-1.4-1.8c-0.6-0.5-1.2-0.8-2-1.1s-1.5-0.3-2.3-0.3
				c-0.7,0-1.3,0.1-1.8,0.2c0,0.2-0.1,0.5-0.1,1c0,0.4-0.1,0.9-0.1,1.5S40.9,219.5,40.9,219.7z M42.6,215.5L42.6,215.5
				c0.8,0.1,1.6,0.2,2.3,0.3c0.7,0.1,1.2,0.3,1.7,0.6s0.9,0.5,1.2,0.9c0.3,0.3,0.6,0.7,0.9,1.2c0.2,0.5,0.4,1,0.6,1.5
				s0.2,1.1,0.2,1.7c0,1.4-0.3,2.5-0.9,3.4s-1.3,1.6-2.2,2s-1.7,0.6-2.4,0.6h-0.7v0.1H44c1.3,0,2.4-0.3,3.3-0.8
				c0.9-0.6,1.6-1.3,2.1-2.3s0.7-2,0.7-3.1c0-1-0.2-1.9-0.5-2.6c-0.3-0.8-0.8-1.4-1.3-1.9c-1.1-1.1-2.9-1.7-5.2-1.7H42.6z"/>
			<path class="st1" d="M53.1,215.4L53.1,215.4l9.4-0.1l0.2,2.7h-0.1l-0.6-2.1c-0.5,0-1.1-0.1-1.7-0.1c-1.1,0-2,0.1-2.7,0.2
				c-0.1,0.9-0.2,2-0.2,3.3c0,0.8,0,1.4,0.1,1.9c0.9,0.1,1.5,0.1,1.8,0.1c0.7,0,1.3,0,2-0.1l0.4-1.5h0.1v3.7h-0.1l-0.4-1.6
				c-0.5-0.1-1.1-0.1-1.7-0.1c-0.8,0-1.5,0-2.1,0.1c-0.1,0.7-0.1,1.3-0.1,2c0,0.8,0,1.5,0,2.1s0,1,0.1,1.4c0.7,0.2,1.7,0.3,2.8,0.3
				c0.7,0,1.2,0,1.7-0.1l0.7-2.1h0.1l-0.2,2.8h-9.5v-0.1l2.1-0.3c0-0.2,0.1-0.6,0.1-1.1s0.1-1,0.1-1.7s0-1.1,0.1-1.5s0-0.8,0-1.1
				v-2.2c0-0.3,0-0.7,0-1.2s0-1.1-0.1-1.6s-0.1-1.1-0.1-1.7L53.1,215.4z M55.8,215.7v12.2h0.6v-12.2H55.8z"/>
			<path class="st1" d="M71.8,215.2l3.8,9.1c0.5,1.2,1.1,2.4,1.7,3.5l1.5,0.3v0.1h-6.2v-0.1l2.4-0.3c-0.1-0.6-0.3-1.2-0.5-1.9
				c-0.2-0.7-0.5-1.3-0.8-1.8h-5.5c-0.2,0.6-0.4,1.1-0.6,1.5s-0.3,0.8-0.4,1.2c-0.1,0.4-0.2,0.8-0.3,1l2.3,0.3v0.1h-4.9v-0.1
				l1.6-0.3c0.4-0.7,0.8-1.4,1.1-2.3l4.1-10.4H71.8z M70.9,217.7c-0.2,0.3-0.4,0.8-0.6,1.4s-0.5,1.2-0.7,1.7s-0.4,1.1-0.7,1.7
				s-0.4,1-0.5,1.2c0.3,0,0.7,0.1,1.2,0.1s0.9,0,1.3,0c1,0,1.9,0,2.5-0.1c-0.2-0.7-0.6-1.6-1.1-2.8S71.3,218.5,70.9,217.7z
				 M71,216.9l4.6,10.9h0.6l-4.9-11.7L71,216.9z"/>
			<path class="st1" d="M80,215.3h7.2c1.3,0,2.5,0.2,3.4,0.6c0.9,0.4,1.7,0.9,2.2,1.5s0.9,1.3,1.2,2c0.2,0.7,0.4,1.5,0.4,2.3
				c0,0.9-0.2,1.8-0.5,2.6c-0.3,0.8-0.8,1.5-1.3,2.1c-0.6,0.6-1.3,1-2,1.3c-0.8,0.3-1.6,0.5-2.6,0.5h-8.1v-0.1l2.1-0.3
				c0.1-0.5,0.2-1.3,0.2-2.5s0.1-2.1,0.1-2.7v-2.3c0-1.7-0.1-3.2-0.2-4.6L80,215.3L80,215.3z M82.7,215.7v12.2h0.6v-12.2H82.7z
				 M84.2,219.7v5.1c0,0.8,0,1.5,0.1,2.3c0.4,0.2,0.8,0.3,1.3,0.4s0.9,0.1,1.4,0.1c0.7,0,1.3-0.1,1.9-0.4s1.2-0.6,1.7-1.1
				s0.9-1.1,1.2-1.9s0.5-1.6,0.5-2.6c0-1-0.2-1.9-0.5-2.6s-0.8-1.4-1.4-1.8c-0.6-0.5-1.2-0.8-2-1.1s-1.5-0.3-2.3-0.3
				c-0.7,0-1.3,0.1-1.8,0.2c0,0.2-0.1,0.5-0.1,1c0,0.4-0.1,0.9-0.1,1.5S84.2,219.5,84.2,219.7z M85.8,215.5L85.8,215.5
				c0.8,0.1,1.6,0.2,2.3,0.3c0.7,0.1,1.2,0.3,1.7,0.6s0.9,0.5,1.2,0.9c0.3,0.3,0.6,0.7,0.9,1.2c0.2,0.5,0.4,1,0.6,1.5
				s0.2,1.1,0.2,1.7c0,1.4-0.3,2.5-0.9,3.4s-1.3,1.6-2.2,2s-1.7,0.6-2.4,0.6h-0.7v0.1h0.7c1.3,0,2.4-0.3,3.3-0.8
				c0.9-0.6,1.6-1.3,2.1-2.3s0.7-2,0.7-3.1c0-1-0.2-1.9-0.5-2.6c-0.3-0.8-0.8-1.4-1.3-1.9c-1.1-1.1-2.9-1.7-5.2-1.7H85.8z"/>
			<path class="st1" d="M111.4,215.1c1.2,0,2.3,0.2,3.2,0.6s1.7,1,2.2,1.6c0.6,0.7,1,1.4,1.3,2.1c0.3,0.8,0.4,1.5,0.4,2.2
				c0,0.8-0.2,1.6-0.5,2.3c-0.3,0.8-0.8,1.5-1.4,2.1s-1.3,1.1-2.2,1.5c-0.9,0.4-1.9,0.6-3,0.6c-1.6,0-2.9-0.3-4-1s-1.9-1.5-2.4-2.5
				s-0.8-2-0.8-3c0-0.8,0.2-1.7,0.5-2.5s0.8-1.5,1.4-2.1s1.4-1.1,2.3-1.5S110.4,215.1,111.4,215.1z M111,215.5L111,215.5
				c-0.8-0.1-1.6,0.1-2.4,0.4s-1.5,0.8-2.1,1.4s-1.1,1.3-1.4,2c-0.3,0.8-0.5,1.5-0.5,2.4c0,1,0.3,2,0.8,3c0.6,1,1.3,1.7,2.3,2.4
				s2.1,0.9,3.2,1v-0.1c-1.1-0.1-2.1-0.5-3-1.1s-1.5-1.4-2-2.3s-0.7-1.8-0.7-2.8c0-0.8,0.1-1.6,0.4-2.3s0.6-1.4,1.1-2s1.1-1,1.8-1.4
				C109.4,215.8,110.2,215.6,111,215.5z M111.4,215.8c-0.9,0-1.7,0.2-2.5,0.7s-1.4,1.2-1.8,2.1c-0.5,0.9-0.7,2-0.7,3.2
				c0,1.3,0.2,2.4,0.7,3.3s1.1,1.6,1.9,2c0.8,0.4,1.6,0.7,2.4,0.7c0.7,0,1.3-0.1,1.9-0.4s1.1-0.6,1.6-1.1s0.8-1.1,1.1-1.8
				c0.3-0.7,0.4-1.5,0.4-2.4c0-1.2-0.1-2.2-0.4-2.9s-0.7-1.4-1.2-1.9c-0.5-0.5-1-0.8-1.6-1C112.7,215.9,112.1,215.8,111.4,215.8z
				 M111.9,215.4L111.9,215.4c0.6,0.1,1.1,0.3,1.7,0.5s1.1,0.6,1.6,1.1c0.5,0.5,0.9,1.1,1.2,1.9s0.5,1.8,0.5,2.9
				c0,0.7-0.1,1.5-0.3,2.1c-0.2,0.7-0.5,1.3-0.9,1.9c-0.4,0.6-0.9,1-1.6,1.4s-1.4,0.6-2.3,0.7v0.1c0.8,0,1.5-0.2,2.1-0.5
				s1.3-0.7,1.8-1.2c0.5-0.5,0.9-1.2,1.2-2s0.5-1.6,0.5-2.6c0-1-0.2-2-0.5-2.7s-0.7-1.5-1.3-2s-1.2-0.9-1.8-1.2
				C113.3,215.6,112.6,215.4,111.9,215.4z"/>
			<path class="st1" d="M122.7,223v-2.7c0-0.7,0-1.5-0.1-2.4s-0.1-1.6-0.2-2.1l-2.1-0.3v-0.1h5.8c1.1,0,2,0.2,2.6,0.7
				s1.1,0.9,1.4,1.5s0.4,1,0.4,1.4c0,0.6-0.1,1.1-0.4,1.5s-0.6,0.8-1,1s-0.8,0.4-1.2,0.5v0c0.4,0.2,0.7,0.4,1,0.6
				c0.2,0.2,0.4,0.5,0.7,0.9s0.6,0.9,1,1.5s0.8,1.1,1,1.5s0.5,0.7,0.7,0.9c0.5,0.5,1,0.7,1.5,0.7v0.1h-1.5c-0.9,0-1.5-0.3-2-0.8
				c-0.2-0.2-0.4-0.4-0.6-0.7c-0.2-0.3-0.5-0.7-0.9-1.3c-0.4-0.6-0.8-1.1-1.1-1.5c-0.3-0.4-0.5-0.7-0.7-0.9
				c-0.3-0.3-0.5-0.4-0.7-0.5s-0.5-0.1-0.9-0.1c-0.4,0-0.7,0-0.9,0.1c0,0.3-0.1,0.7-0.1,1.1v1.6c0,0.7,0.1,1.6,0.2,2.7l2.2,0.3v0.1
				h-6.5v-0.1l2.1-0.3c0.1-0.6,0.2-1.4,0.2-2.5S122.7,223.5,122.7,223z M123,215.7v12.2h0.6v-12.2H123z M124.5,218.9v1.4
				c0,0.5,0,1,0.1,1.4c0.2,0,0.6,0.1,1,0.1c0.8,0,1.4-0.1,1.8-0.4c0.5-0.3,0.8-0.6,1-1c0.2-0.4,0.3-0.9,0.3-1.4
				c0-0.5-0.1-0.9-0.3-1.3s-0.4-0.8-0.7-1s-0.6-0.5-1-0.7c-0.4-0.2-0.7-0.2-1.1-0.2c-0.3,0-0.6,0-0.8,0.1c-0.1,0.3-0.1,0.8-0.1,1.5
				C124.5,218,124.5,218.5,124.5,218.9z M125.4,215.5L125.4,215.5c0.8,0.1,1.5,0.3,2,0.7c0.5,0.4,0.9,0.8,1.2,1.4s0.4,1.1,0.4,1.6
				c0,1.2-0.5,2-1.5,2.5l0.1,0c0.6-0.2,1.1-0.5,1.5-1s0.6-1.1,0.6-1.8c0-0.5-0.1-1-0.3-1.5s-0.5-0.8-0.9-1.1
				c-0.4-0.3-0.8-0.5-1.2-0.7s-0.9-0.2-1.3-0.2H125.4z M127.6,223.3l1.9,2.8c0.5,0.7,0.9,1.1,1.2,1.4s0.8,0.4,1.3,0.4v-0.1
				c-0.5-0.1-1.1-0.7-1.8-1.8l-1.5-2.2c-0.3-0.5-0.6-0.8-0.9-1.1s-0.6-0.4-1.1-0.5l0,0.1C127,222.5,127.4,222.9,127.6,223.3z"/>
			<path class="st1" d="M149.9,215.2l3.8,9.1c0.5,1.2,1.1,2.4,1.7,3.5l1.5,0.3v0.1h-6.2v-0.1l2.4-0.3c-0.1-0.6-0.3-1.2-0.5-1.9
				c-0.2-0.7-0.5-1.3-0.8-1.8h-5.5c-0.2,0.6-0.4,1.1-0.6,1.5s-0.3,0.8-0.4,1.2c-0.1,0.4-0.2,0.8-0.3,1l2.3,0.3v0.1h-4.9v-0.1
				l1.6-0.3c0.4-0.7,0.8-1.4,1.1-2.3l4.1-10.4H149.9z M148.9,217.7c-0.2,0.3-0.4,0.8-0.6,1.4s-0.5,1.2-0.7,1.7s-0.4,1.1-0.7,1.7
				s-0.4,1-0.5,1.2c0.3,0,0.7,0.1,1.2,0.1s0.9,0,1.3,0c1,0,1.9,0,2.5-0.1c-0.2-0.7-0.6-1.6-1.1-2.8S149.4,218.5,148.9,217.7z
				 M149.1,216.9l4.6,10.9h0.6l-4.9-11.7L149.1,216.9z"/>
			<path class="st1" d="M158,215.4L158,215.4l6.6-0.1v0.1l-2.2,0.3c-0.1,0.6-0.1,1.3-0.2,2.3s-0.1,1.8-0.1,2.5v3.8
				c0,0.9,0,1.9,0.1,2.8c1,0.3,2,0.5,3.1,0.5c0.5,0,1,0,1.4-0.1s0.7-0.1,0.9-0.2l0.9-2.4h0.1l-0.4,3.2H158v-0.1l2.1-0.3
				c0.1-0.3,0.1-0.8,0.2-1.5s0.1-1.5,0.1-2.2s0-1.3,0-1.6v-2.2c0-0.5,0-1,0-1.7s-0.1-1.2-0.1-1.7c0-0.5-0.1-0.9-0.1-1.2L158,215.4z
				 M160.7,215.7v12.2h0.6v-12.2H160.7z"/>
			<path class="st1" d="M176.8,228.2h-6.6v-0.1l2.1-0.3c0.1-0.7,0.2-1.6,0.2-2.6s0.1-2,0.1-3v-1.5c0-2-0.1-3.6-0.3-4.9l-2.2-0.3
				v-0.1h6.6v0.1l-2.2,0.3c-0.1,0.6-0.1,1.1-0.1,1.5s-0.1,1-0.1,1.7s0,1.3,0,1.8v1.9c0,0.4,0,0.9,0,1.8c0,0.8,0.1,1.5,0.1,2.1
				c0,0.6,0.1,1,0.1,1.3L176.8,228.2L176.8,228.2z M172.8,215.7v12.2h0.6v-12.2H172.8z"/>
			<path class="st1" d="M184,215.4l-2.3,0.3c0.3,1.2,0.8,2.6,1.5,4.2l1.2,2.8c0.3,0.7,0.7,1.5,1.2,2.5c0.2-0.4,0.5-0.9,0.8-1.5
				c0.3-0.6,0.5-1.2,0.8-1.7l1.4-3.3c0.5-1.3,0.9-2.3,1.1-3.1l-2.7-0.3v-0.1h5.2v0.1l-1.6,0.3c-0.3,0.5-0.8,1.6-1.5,3.2l-3,7.1
				c-0.4,1-0.7,1.8-1,2.6h-0.1c-0.3-1-0.7-1.9-1.1-2.8l-2.8-6.5c-0.5-1.2-1.1-2.4-1.8-3.6l-1.5-0.3v-0.1L184,215.4L184,215.4z
				 M179.9,215.7l5,11.8l0.3-0.7l-4.7-11H179.9z"/>
			<path class="st1" d="M193.4,215.4L193.4,215.4l9.4-0.1l0.2,2.7h-0.1l-0.6-2.1c-0.5,0-1.1-0.1-1.7-0.1c-1.1,0-2,0.1-2.7,0.2
				c-0.1,0.9-0.2,2-0.2,3.3c0,0.8,0,1.4,0.1,1.9c0.9,0.1,1.5,0.1,1.8,0.1c0.7,0,1.3,0,2-0.1l0.4-1.5h0.1v3.7h-0.1l-0.4-1.6
				c-0.5-0.1-1.1-0.1-1.7-0.1c-0.8,0-1.5,0-2.1,0.1c-0.1,0.7-0.1,1.3-0.1,2c0,0.8,0,1.5,0,2.1s0,1,0.1,1.4c0.7,0.2,1.7,0.3,2.8,0.3
				c0.7,0,1.2,0,1.7-0.1l0.7-2.1h0.1l-0.2,2.8h-9.5v-0.1l2.1-0.3c0-0.2,0.1-0.6,0.1-1.1s0.1-1,0.1-1.7s0-1.1,0.1-1.5s0-0.8,0-1.1
				v-2.2c0-0.3,0-0.7,0-1.2s0-1.1-0.1-1.6s-0.1-1.1-0.1-1.7L193.4,215.4z M196.1,215.7v12.2h0.6v-12.2H196.1z"/>
		</g>
		<g>
			<path class="st2" d="M17.6,304.2c0.2,0,0.4,0,0.6-0.1c0.2-0.1,0.4-0.2,0.5-0.3c0.1-0.1,0.1-0.1,0.2-0.2c0,0,0,0,0,0
				c0.2-0.2,0.3-0.4,0.3-0.6c0-0.1,0-0.3,0-0.4c0.1-0.1,0.1-0.4,0.1-0.6c0,0,0-0.1,0-0.1c0,0,0-0.1,0-0.1c0-0.1,0-0.2-0.1-0.2
				c0-0.1-0.1-0.3-0.1-0.5c-0.1-0.2-0.1-0.4,0-0.6c0-0.1,0.1-0.3,0.3-0.4c0.1-0.1,0.2-0.2,0.3-0.2c0.1-0.1,0.1-0.1,0.1-0.1s0,0,0,0
				c0,0-0.1,0-0.1,0c-0.1,0-0.2,0-0.4,0.1c-0.1,0-0.2,0.1-0.3,0.2c0,0-0.4,0.2-0.5,0.2c-0.1,0-0.3,0.1-0.5,0.1
				c-0.1,0-0.2,0.1-0.3,0.2c-0.1,0.1-0.3,0.3-0.3,0.6c0,0.4,0.1,0.7,0.2,0.7c0.1,0.2,0.3,0.4,0.5,0.5c0.1,0.1,0.3,0.2,0.4,0.2
				c0.1,0.1,0.2,0.1,0.3,0.2c0.1,0.1,0.1,0.1,0.1,0.2c0,0-0.1,0.3-0.2,0.4c-0.2,0.2-0.3,0.3-0.6,0.4c-0.2,0.1-0.6,0.1-1-0.1
				c-0.3-0.1-0.4-0.2-0.5-0.3c-0.1,0-0.1-0.1-0.1-0.1s0,0,0.1,0.1c0.1,0.1,0.1,0.2,0.3,0.3c0.1,0.1,0.1,0.1,0.2,0.2c0,0,0,0,0,0
				c-0.2-0.1-0.4-0.1-0.6-0.2c-0.2-0.1-0.4-0.3-0.5-0.4c-0.3-0.3-0.5-0.8-0.7-1.3c0,0,0-0.1,0-0.1c0,0,0.1,0.1,0.1,0.1
				c0,0,0.1,0.1,0.1,0.1c0.1,0.2,0.2,0.3,0.2,0.5c0.2,0.4,0.3,0.7,0.3,0.7s-0.1-0.3-0.2-0.7c-0.1-0.2-0.2-0.5-0.3-0.8
				c-0.1-0.3-0.3-0.7-0.4-1.1c0-0.1-0.1-0.2-0.1-0.3c-0.2-1.1-0.2-2.4,0-3.7c0.1-0.7,0.2-1.4,0.4-2.1c0.2-0.7,0.3-1.4,0.6-2.2
				c0.4-1.5,0.9-3,1.4-4.6c0.3-0.8,0.5-1.6,0.8-2.4c0.3-0.8,0.5-1.6,0.8-2.5c0.3-0.8,0.5-1.7,0.8-2.5c0.2-0.8,0.5-1.7,0.7-2.6
				c0.1-0.4,0.2-0.9,0.3-1.3c0.1-0.2,0.1-0.4,0.1-0.7c0-0.2,0.1-0.4,0.1-0.7c0.1-0.4,0.1-0.9,0.2-1.3c0-0.2,0.1-0.4,0.1-0.7
				c0-0.2,0-0.4,0.1-0.7c0-0.1,0-0.2,0-0.3l0-0.3c0-0.2,0-0.4,0-0.7c0-0.2,0-0.4,0-0.7c0-0.2,0-0.4,0-0.7c0-0.2,0-0.4,0-0.7
				c0-0.2,0-0.4,0-0.7l0-0.3l0-0.3c0-0.2,0-0.4,0-0.7c-0.1-0.9-0.2-1.7-0.4-2.6c0-0.1,0-0.2-0.1-0.3c0-0.1,0-0.2-0.1-0.3
				c-0.1-0.2-0.1-0.4-0.2-0.6c-0.1-0.2-0.1-0.4-0.2-0.6c0-0.1-0.1-0.2-0.1-0.3c0-0.1-0.1-0.2-0.1-0.3c0-0.1-0.1-0.2-0.1-0.3
				c0-0.1-0.1-0.2-0.1-0.3c-0.1-0.2-0.2-0.4-0.3-0.6c-0.1-0.2-0.2-0.4-0.3-0.5c-0.1-0.2-0.2-0.3-0.3-0.5c-0.1-0.1-0.1-0.2-0.2-0.3
				c-0.1-0.1-0.1-0.2-0.2-0.2c-0.1-0.1-0.1-0.2-0.2-0.2c-0.1-0.1-0.1-0.2-0.2-0.2c-0.1-0.2-0.2-0.3-0.4-0.5
				c-0.1-0.1-0.1-0.2-0.2-0.2c-0.1-0.1-0.1-0.2-0.2-0.2c-0.1-0.1-0.1-0.1-0.2-0.2c-0.1-0.1-0.1-0.1-0.2-0.2
				c-0.1-0.1-0.3-0.3-0.4-0.4c-0.3-0.3-0.6-0.5-0.9-0.7c-0.3-0.2-0.6-0.4-1-0.6c-0.3-0.2-0.7-0.3-1-0.4c-1.4-0.5-2.8-0.5-4-0.2
				c-0.6,0.1-1.2,0.4-1.6,0.6c-0.5,0.3-0.9,0.6-1.3,0.9c-0.4,0.3-0.7,0.7-0.9,1c-0.1,0.1-0.1,0.2-0.2,0.3c0,0-0.1,0.1-0.1,0.1
				l-0.1,0.2c-0.1,0.1-0.1,0.2-0.2,0.3l-0.1,0.2L5.1,259c-0.2,0.4-0.3,0.9-0.4,1.3c-0.1,0.4-0.2,0.9-0.2,1.3c-0.1,0.9,0,1.7,0.1,2.6
				c0.1,0.4,0.2,0.8,0.3,1.2c0.1,0.2,0.1,0.4,0.2,0.6c0,0.1,0.1,0.2,0.1,0.3c0,0.1,0.1,0.2,0.1,0.3c0,0.1,0.1,0.2,0.1,0.3
				c0,0.1,0.1,0.2,0.1,0.3l0.1,0.1l0.1,0.1c0,0.1,0.1,0.2,0.1,0.3c0.1,0.1,0.1,0.2,0.2,0.2L6,268l0.1,0.1c0.1,0.1,0.1,0.2,0.2,0.2
				c0.1,0.1,0.1,0.2,0.2,0.2c0.1,0.1,0.1,0.1,0.2,0.2c0.1,0.1,0.1,0.1,0.2,0.2c0.1,0.1,0.3,0.3,0.4,0.4c0.3,0.3,0.6,0.5,0.9,0.6
				c0.1,0,0.2,0.1,0.2,0.1l0.1,0.1l0.1,0.1c0.1,0,0.2,0.1,0.2,0.1c0.1,0,0.2,0.1,0.3,0.1l0.1,0c0,0,0.1,0,0.1,0c0.1,0,0.2,0,0.3,0.1
				c0.1,0,0.2,0,0.3,0l0.1,0c0,0,0.1,0,0.1,0c0.1,0,0.2,0,0.3,0c0.1,0,0.2,0,0.3,0l0.1,0l0.1,0c0.1,0,0.2,0,0.2,0c0.1,0,0.2,0,0.2,0
				c0,0,0.1,0,0.1,0l0.1,0c0.1,0,0.2,0,0.2-0.1c0.1,0,0.2,0,0.2-0.1c0,0,0.1,0,0.1,0l0.1,0c0.1,0,0.1-0.1,0.2-0.1
				c0.1,0,0.1-0.1,0.2-0.1l0.1-0.1c0,0,0.1,0,0.1-0.1c0.1,0,0.1-0.1,0.2-0.1c0.1,0,0.1-0.1,0.2-0.1c0.1-0.1,0.2-0.2,0.3-0.3
				c0.4-0.4,0.7-0.8,1-1.2c0.2-0.4,0.4-0.9,0.4-1.3c0.1-0.4,0-0.8,0-1.1c0,0,0-0.1,0-0.1c0,0,0-0.1,0-0.1c0-0.1,0-0.2-0.1-0.2
				c0-0.1-0.1-0.3-0.1-0.4c-0.1-0.1-0.1-0.2-0.2-0.3c0,0,0-0.1-0.1-0.1c-0.1-0.7-0.8-1.3-1.5-1.3c-0.9,0-1.6,0.7-1.6,1.6
				s0.7,1.6,1.6,1.6c0.7,0,1.2-0.4,1.5-1c0,0,0,0.1,0,0.1c0,0.1,0,0.1,0,0.2c0,0,0,0.1,0,0.1c0,0,0,0.1,0,0.1c0,0.3,0,0.6-0.1,1
				c-0.1,0.4-0.2,0.7-0.4,1.1c-0.2,0.4-0.5,0.7-0.9,1c-0.1,0.1-0.2,0.1-0.3,0.2c-0.1,0-0.1,0.1-0.2,0.1c-0.1,0-0.1,0.1-0.2,0.1
				c0,0-0.1,0-0.1,0l-0.1,0c-0.1,0-0.1,0.1-0.2,0.1c-0.1,0-0.1,0-0.2,0.1l-0.1,0c0,0-0.1,0-0.1,0c-0.1,0-0.1,0-0.2,0.1
				c-0.1,0-0.1,0-0.2,0l-0.1,0c0,0-0.1,0-0.1,0c-0.1,0-0.1,0-0.2,0c-0.1,0-0.1,0-0.2,0l-0.1,0l-0.1,0c-0.1,0-0.1,0-0.2,0
				c-0.1,0-0.1,0-0.2,0c0,0-0.1,0-0.1,0l-0.1,0c-0.1,0-0.1,0-0.2,0c-0.1,0-0.1,0-0.2-0.1c0,0-0.1,0-0.1,0l-0.1,0
				c-0.1,0-0.1-0.1-0.2-0.1c-0.1,0-0.1-0.1-0.2-0.1l-0.1,0l-0.1-0.1c-0.1,0-0.1-0.1-0.2-0.1c-1-0.6-1.9-1.7-2.4-3.1
				c0-0.1-0.1-0.2-0.1-0.2c0-0.1-0.1-0.2-0.1-0.3c-0.1-0.2-0.1-0.3-0.2-0.5c-0.1-0.4-0.2-0.7-0.2-1.1c-0.1-0.7-0.1-1.5-0.1-2.3
				c0-0.4,0.1-0.8,0.2-1.1c0.1-0.4,0.2-0.7,0.4-1.1l0.1-0.1l0.1-0.1c0-0.1,0.1-0.2,0.1-0.2l0.1-0.1c0,0,0-0.1,0.1-0.1
				c0.1-0.1,0.1-0.2,0.2-0.2c0.2-0.3,0.5-0.6,0.8-0.9c0.3-0.3,0.6-0.5,1-0.7c0.4-0.2,0.8-0.4,1.3-0.5c0.5-0.1,1-0.2,1.6-0.1
				c0.1,0,0.3,0,0.4,0c0.1,0,0.3,0,0.4,0.1c0.3,0.1,0.6,0.1,0.9,0.2c0.3,0.1,0.6,0.2,0.9,0.3c0.3,0.1,0.6,0.3,0.9,0.5
				c0.3,0.2,0.5,0.4,0.8,0.6c0.1,0.1,0.3,0.2,0.4,0.3c0.1,0.1,0.1,0.1,0.2,0.2c0.1,0.1,0.1,0.1,0.2,0.2c0.1,0.1,0.1,0.1,0.2,0.2
				c0.1,0.1,0.1,0.1,0.2,0.2c0.1,0.1,0.2,0.3,0.3,0.4c0.1,0.1,0.1,0.1,0.2,0.2c0.1,0.1,0.1,0.2,0.2,0.2c0.1,0.1,0.1,0.2,0.2,0.2
				c0.1,0.1,0.1,0.2,0.2,0.2c0.1,0.2,0.2,0.3,0.3,0.5c0.1,0.2,0.2,0.3,0.3,0.5c0.1,0.2,0.2,0.3,0.3,0.5c0,0.1,0.1,0.2,0.1,0.3
				c0,0.1,0.1,0.2,0.1,0.3c0,0.1,0.1,0.2,0.1,0.3c0,0.1,0.1,0.2,0.1,0.3c0.1,0.2,0.1,0.4,0.2,0.6c0.1,0.2,0.1,0.4,0.2,0.6
				c0,0.1,0.1,0.2,0.1,0.3c0,0.1,0,0.2,0.1,0.3c0.2,0.8,0.3,1.6,0.4,2.5c0,0.2,0,0.4,0,0.6l0,0.3l0,0.3c0,0.2,0,0.4,0,0.6
				c0,0.1,0,0.2,0,0.3c0,0.1-0.1,0.1-0.1,0.2c-0.1,0.2-0.1,0.5-0.2,0.9c0,0.3-0.1,0.7-0.2,1.1c-0.2,0.8-0.4,1.8-0.8,2.9
				c-0.4,1.1-0.8,2.2-1.3,3.4c-0.7,1.7-1.3,3.2-1.7,4.6c-0.2,0.7-0.4,1.3-0.6,1.9c-0.1,0.3-0.1,0.5-0.2,0.8
				c-0.1,0.2-0.1,0.5-0.1,0.7c-0.1,0.2-0.1,0.4-0.2,0.6c-0.1,0.2-0.1,0.5-0.2,0.8c-0.2,0.6-0.3,1.2-0.5,1.9
				c-0.3,1.4-0.7,3.1-0.8,4.9c0,0.7,0,1.3,0,2c0,0.3,0.1,0.6,0.1,0.9c0,0.2,0.1,0.3,0.1,0.4c0,0.1,0,0.3,0.1,0.4
				c0.2,1,0.6,1.9,0.9,2.6c0,0.2,0.1,0.3,0.1,0.5c-0.2-0.3-0.4-0.7-0.6-1.1c0-0.1-0.1-0.2-0.1-0.3c0-0.1-0.1-0.2-0.1-0.3
				c-0.1-0.2-0.2-0.4-0.3-0.7c-0.2-0.5-0.3-0.9-0.5-1.5c-0.2-0.5-0.3-1.1-0.4-1.7c0-0.3-0.1-0.6-0.1-0.9c0-0.2,0-0.3,0-0.5
				c0-0.2,0-0.3,0-0.5c0-1.7,0.1-3.3,0.3-4.7c0.2-1.4,0.4-2.5,0.6-3.3c0.1-0.4,0.3-0.8,0.5-1.4c0.2-0.5,0.4-1.1,0.7-1.8
				c0.3-0.6,0.5-1.3,0.8-2.1c0.3-0.7,0.6-1.5,1-2.3c0.3-0.6,0.5-1.1,0.7-1.7c0.2-0.5,0.5-1,0.8-1.5c0.3-0.5,0.5-0.9,0.7-1.4
				c0.2-0.4,0.4-0.9,0.6-1.2c0.3-0.8,0.5-1.4,0.6-1.9c0-0.1,0-0.2,0-0.3c0-0.1,0-0.2,0-0.2c0-0.1,0-0.2,0-0.2s0,0.1,0,0.2
				c0,0.1,0,0.1,0,0.2c0,0.1-0.1,0.2-0.1,0.3c-0.1,0.4-0.4,1.1-0.8,1.8c-0.2,0.4-0.4,0.8-0.7,1.2c-0.3,0.4-0.5,0.9-0.8,1.3
				c-0.3,0.5-0.6,1-0.8,1.5c-0.3,0.5-0.5,1.1-0.8,1.7c-0.3,0.8-0.7,1.6-1,2.3c-0.3,0.8-0.5,1.5-0.7,2.1c-0.2,0.7-0.4,1.3-0.5,1.8
				c-0.2,0.5-0.2,1-0.3,1.4c-0.3,0.8-0.6,1.9-0.9,3.2c-0.3,1.4-0.6,3-0.5,4.8c0,0.2,0,0.3,0,0.5c0,0.2,0,0.3,0,0.5
				c0,0.3,0.1,0.6,0.1,0.9c0.1,0.6,0.3,1.2,0.5,1.7c0.2,0.5,0.4,1,0.6,1.5c0.1,0.2,0.2,0.4,0.3,0.6c0.1,0.1,0.1,0.2,0.2,0.3
				c0.1,0.1,0.1,0.2,0.2,0.3c0.3,0.6,0.7,1.1,1,1.4c0.1,0.3,0.2,0.5,0.2,0.7c0.2,0.5,0.5,1,0.8,1.3c0.2,0.2,0.4,0.3,0.6,0.4
				c0.2,0.1,0.4,0.2,0.6,0.2c0.1,0,0.1,0,0.2,0c0.1,0,0.1,0,0.2,0C17.4,304.2,17.5,304.2,17.6,304.2
				C17.6,304.2,17.6,304.2,17.6,304.2z M14.1,297.7c0-0.1,0-0.3-0.1-0.4c0-0.1,0-0.3-0.1-0.4c0-0.3-0.1-0.6-0.1-0.9
				c0-0.6,0-1.2,0-1.9c0.1-1.8,0.4-3.4,0.6-4.8c0.1-0.7,0.3-1.3,0.4-1.9c0.1-0.3,0.1-0.5,0.2-0.8c0.1-0.2,0.1-0.5,0.1-0.7
				c0.1-0.2,0.1-0.4,0.2-0.6c0.1-0.2,0.2-0.5,0.3-0.8c0.2-0.5,0.4-1.1,0.7-1.8c0.5-1.3,1.2-2.9,1.9-4.5c0.5-1.2,0.9-2.4,1.3-3.5
				c0.3-1.1,0.5-2.1,0.6-3c0-0.4,0.1-0.8,0.1-1.2c0-0.3,0-0.6,0.1-0.9c0,0,0,0,0,0c0,0.1,0,0.1,0,0.2c0,0.2,0,0.4,0,0.7
				c0,0.2,0,0.4,0,0.7c0,0.2,0,0.4,0,0.6l0,0.3c0,0.1,0,0.2,0,0.3c0,0.2,0,0.4,0,0.6c0,0.2,0,0.4-0.1,0.6c0,0.4-0.1,0.9-0.2,1.3
				c0,0.2-0.1,0.4-0.1,0.6c0,0.2-0.1,0.4-0.1,0.6c-0.1,0.4-0.2,0.9-0.3,1.3c-0.2,0.9-0.4,1.7-0.6,2.6c-0.2,0.8-0.5,1.7-0.7,2.5
				c-0.2,0.8-0.5,1.7-0.8,2.5c-0.2,0.8-0.5,1.6-0.7,2.4c-0.5,1.6-1,3.1-1.4,4.6c-0.2,0.8-0.4,1.5-0.5,2.2c-0.1,0.7-0.2,1.4-0.3,2.1
				c-0.1,0.8-0.1,1.6-0.1,2.4C14.2,298.5,14.1,298.2,14.1,297.7z M15,301.6c0,0.1,0.1,0.1,0.1,0.2c0,0.1,0.1,0.2,0.1,0.3
				c0,0,0,0,0,0c0-0.1-0.1-0.1-0.2-0.2C15.1,301.7,15.1,301.6,15,301.6z M19.2,302.9c0-0.1,0-0.1,0-0.1c0,0,0,0,0,0
				c0,0.1,0,0.2,0,0.3c0,0,0,0.1,0,0.1c0,0,0,0,0,0C19.2,303,19.2,303,19.2,302.9z"/>
			<path class="st2" d="M17.6,210.9c-0.1,0-0.2,0-0.3,0c-0.1,0-0.1,0-0.2,0c-0.1,0-0.1,0-0.2,0c-0.2,0-0.4,0.1-0.6,0.2
				c-0.2,0.1-0.4,0.3-0.6,0.4c-0.3,0.4-0.6,0.8-0.8,1.3c-0.1,0.2-0.2,0.5-0.2,0.7c-0.3,0.4-0.6,0.8-1,1.4c-0.1,0.1-0.1,0.2-0.2,0.3
				c-0.1,0.1-0.1,0.2-0.2,0.3c-0.1,0.2-0.2,0.4-0.3,0.6c-0.2,0.5-0.4,0.9-0.6,1.5c-0.2,0.5-0.3,1.1-0.5,1.7
				c-0.1,0.3-0.1,0.6-0.1,0.9c0,0.2,0,0.3,0,0.5c0,0.2,0,0.3,0,0.5c0,1.8,0.2,3.4,0.5,4.8c0.3,1.4,0.6,2.5,0.9,3.2
				c0.1,0.4,0.2,0.9,0.3,1.4c0.1,0.5,0.3,1.2,0.5,1.8c0.2,0.7,0.5,1.4,0.7,2.1c0.3,0.7,0.6,1.5,1,2.3c0.3,0.6,0.5,1.2,0.8,1.7
				c0.3,0.6,0.6,1.1,0.8,1.5c0.3,0.5,0.6,0.9,0.8,1.3c0.3,0.4,0.5,0.8,0.7,1.2c0.4,0.7,0.6,1.4,0.8,1.8c0,0.1,0.1,0.2,0.1,0.3
				c0,0.1,0,0.2,0,0.2c0,0.1,0,0.2,0,0.2s0-0.1,0-0.2c0-0.1,0-0.1,0-0.2c0-0.1,0-0.2,0-0.3c-0.1-0.5-0.3-1.1-0.6-1.9
				c-0.2-0.4-0.4-0.8-0.6-1.2c-0.2-0.4-0.5-0.9-0.7-1.4c-0.3-0.5-0.5-1-0.8-1.5c-0.2-0.6-0.5-1.1-0.7-1.7c-0.3-0.8-0.7-1.6-1-2.3
				c-0.3-0.7-0.6-1.4-0.8-2.1c-0.2-0.6-0.5-1.2-0.7-1.8c-0.2-0.5-0.3-1-0.5-1.4c-0.2-0.8-0.4-1.9-0.6-3.3c-0.2-1.4-0.4-3-0.3-4.7
				c0-0.2,0-0.3,0-0.5c0-0.2,0-0.3,0-0.5c0-0.3,0.1-0.6,0.1-0.9c0.1-0.6,0.2-1.1,0.4-1.7c0.1-0.5,0.3-1,0.5-1.5
				c0.1-0.2,0.2-0.4,0.3-0.7c0-0.1,0.1-0.2,0.1-0.3c0-0.1,0.1-0.2,0.1-0.3c0.2-0.4,0.4-0.8,0.6-1.1c0,0.2-0.1,0.3-0.1,0.5
				c-0.3,0.7-0.7,1.6-0.9,2.6c0,0.1-0.1,0.3-0.1,0.4c0,0.1-0.1,0.3-0.1,0.4c0,0.3-0.1,0.6-0.1,0.9c-0.1,0.6-0.1,1.3,0,2
				c0.1,1.8,0.4,3.5,0.8,4.9c0.2,0.7,0.4,1.3,0.5,1.9c0.1,0.3,0.2,0.5,0.2,0.8c0.1,0.2,0.1,0.5,0.2,0.6c0,0.2,0.1,0.4,0.1,0.7
				c0.1,0.2,0.1,0.5,0.2,0.8c0.1,0.6,0.3,1.2,0.6,1.9c0.4,1.4,1,2.9,1.7,4.6c0.5,1.2,1,2.4,1.3,3.4c0.3,1.1,0.6,2.1,0.8,2.9
				c0.1,0.4,0.2,0.8,0.2,1.1c0,0.3,0.1,0.6,0.2,0.9c0,0.1,0.1,0.1,0.1,0.2c0,0.1,0,0.2,0,0.3c0,0.2,0,0.4,0,0.6l0,0.3l0,0.3
				c0,0.2,0,0.4,0,0.6c-0.1,0.8-0.2,1.7-0.4,2.5c0,0.1,0,0.2-0.1,0.3c0,0.1,0,0.2-0.1,0.3c-0.1,0.2-0.1,0.4-0.2,0.6
				c-0.1,0.2-0.1,0.4-0.2,0.6c0,0.1-0.1,0.2-0.1,0.3c0,0.1-0.1,0.2-0.1,0.3c0,0.1-0.1,0.2-0.1,0.3c0,0.1-0.1,0.2-0.1,0.3
				c-0.1,0.2-0.2,0.3-0.3,0.5c-0.1,0.2-0.2,0.3-0.3,0.5c-0.1,0.2-0.2,0.3-0.3,0.5c0,0.1-0.1,0.2-0.2,0.2c-0.1,0.1-0.1,0.2-0.2,0.2
				c-0.1,0.1-0.1,0.2-0.2,0.2c-0.1,0.1-0.1,0.1-0.2,0.2c-0.1,0.1-0.2,0.3-0.3,0.4c-0.1,0.1-0.1,0.1-0.2,0.2
				c-0.1,0.1-0.1,0.1-0.2,0.2c-0.1,0.1-0.1,0.1-0.2,0.2c-0.1,0.1-0.1,0.1-0.2,0.2c-0.1,0.1-0.3,0.2-0.4,0.3
				c-0.3,0.2-0.5,0.4-0.8,0.6c-0.3,0.2-0.6,0.3-0.9,0.5c-0.3,0.1-0.6,0.3-0.9,0.3c-0.3,0.1-0.6,0.2-0.9,0.2c-0.1,0-0.3,0-0.4,0.1
				c-0.1,0-0.3,0-0.4,0c-0.6,0-1.1,0-1.6-0.1c-0.5-0.1-0.9-0.3-1.3-0.5c-0.4-0.2-0.7-0.5-1-0.7c-0.3-0.3-0.6-0.6-0.8-0.9
				c-0.1-0.1-0.1-0.2-0.2-0.2c0,0-0.1-0.1-0.1-0.1l-0.1-0.1c-0.1-0.1-0.1-0.2-0.1-0.2l-0.1-0.1l-0.1-0.1c-0.2-0.3-0.3-0.7-0.4-1.1
				c-0.1-0.4-0.2-0.8-0.2-1.1c-0.1-0.8,0-1.5,0.1-2.3c0.1-0.4,0.1-0.7,0.2-1.1c0-0.2,0.1-0.3,0.2-0.5c0-0.1,0.1-0.2,0.1-0.3
				c0-0.1,0.1-0.2,0.1-0.2c0.5-1.3,1.4-2.4,2.4-3.1c0.1,0,0.1-0.1,0.2-0.1l0.1-0.1l0.1,0c0.1,0,0.1-0.1,0.2-0.1
				c0.1,0,0.1-0.1,0.2-0.1l0.1,0c0,0,0.1,0,0.1,0c0.1,0,0.1,0,0.2-0.1c0.1,0,0.1,0,0.2,0l0.1,0c0,0,0.1,0,0.1,0c0.1,0,0.1,0,0.2,0
				c0.1,0,0.1,0,0.2,0l0.1,0l0.1,0c0.1,0,0.1,0,0.2,0c0.1,0,0.1,0,0.2,0c0,0,0.1,0,0.1,0l0.1,0c0.1,0,0.1,0,0.2,0
				c0.1,0,0.1,0,0.2,0.1c0,0,0.1,0,0.1,0l0.1,0c0.1,0,0.1,0,0.2,0.1c0.1,0,0.1,0.1,0.2,0.1l0.1,0c0,0,0.1,0,0.1,0
				c0.1,0,0.1,0.1,0.2,0.1c0.1,0,0.1,0.1,0.2,0.1c0.1,0.1,0.2,0.1,0.3,0.2c0.4,0.3,0.7,0.6,0.9,1c0.2,0.4,0.4,0.7,0.4,1.1
				c0.1,0.4,0.1,0.7,0.1,1c0,0,0,0.1,0,0.1c0,0,0,0.1,0,0.1c0,0.1,0,0.1,0,0.2c0,0,0,0.1,0,0.1c-0.2-0.6-0.8-1-1.5-1
				c-0.9,0-1.6,0.7-1.6,1.6c0,0.9,0.7,1.6,1.6,1.6c0.8,0,1.4-0.6,1.5-1.3c0,0,0-0.1,0.1-0.1c0-0.1,0.1-0.2,0.2-0.3
				c0-0.1,0.1-0.3,0.1-0.4c0-0.1,0-0.1,0.1-0.2c0,0,0-0.1,0-0.1c0,0,0-0.1,0-0.1c0.1-0.3,0.1-0.7,0-1.1c-0.1-0.4-0.2-0.9-0.4-1.3
				c-0.2-0.4-0.5-0.9-1-1.2c-0.1-0.1-0.2-0.2-0.3-0.3c-0.1,0-0.1-0.1-0.2-0.1c-0.1,0-0.1-0.1-0.2-0.1c0,0-0.1,0-0.1-0.1l-0.1-0.1
				c-0.1,0-0.1-0.1-0.2-0.1c-0.1,0-0.1-0.1-0.2-0.1l-0.1,0c0,0-0.1,0-0.1,0c-0.1,0-0.2,0-0.2-0.1c-0.1,0-0.2,0-0.2-0.1l-0.1,0
				c0,0-0.1,0-0.1,0c-0.1,0-0.2,0-0.2,0c-0.1,0-0.2,0-0.2,0l-0.1,0l-0.1,0c-0.1,0-0.2,0-0.3,0c-0.1,0-0.2,0-0.3,0c0,0-0.1,0-0.1,0
				l-0.1,0c-0.1,0-0.2,0-0.3,0c-0.1,0-0.2,0-0.3,0.1c0,0-0.1,0-0.1,0l-0.1,0c-0.1,0-0.2,0.1-0.3,0.1c-0.1,0-0.2,0.1-0.2,0.1
				l-0.1,0.1L8.4,245c-0.1,0-0.2,0.1-0.2,0.1c-0.3,0.2-0.6,0.4-0.9,0.6c-0.1,0.1-0.3,0.3-0.4,0.4c-0.1,0.1-0.1,0.1-0.2,0.2
				c-0.1,0.1-0.1,0.1-0.2,0.2c-0.1,0.1-0.1,0.1-0.2,0.2c-0.1,0.1-0.1,0.2-0.2,0.2L6,247.1l-0.1,0.1c-0.1,0.1-0.1,0.2-0.2,0.2
				c0,0.1-0.1,0.2-0.1,0.3l-0.1,0.1L5.5,248c0,0.1-0.1,0.2-0.1,0.3c0,0.1-0.1,0.2-0.1,0.3c0,0.1-0.1,0.2-0.1,0.3
				c0,0.1-0.1,0.2-0.1,0.3c-0.1,0.2-0.1,0.4-0.2,0.6c-0.1,0.4-0.2,0.8-0.3,1.2c-0.1,0.8-0.2,1.7-0.1,2.6c0,0.4,0.1,0.9,0.2,1.3
				c0.1,0.4,0.3,0.9,0.4,1.3l0.1,0.2l0.1,0.2c0.1,0.1,0.1,0.2,0.2,0.3l0.1,0.2c0,0.1,0.1,0.1,0.1,0.1c0.1,0.1,0.1,0.2,0.2,0.3
				c0.3,0.4,0.6,0.7,0.9,1c0.4,0.3,0.8,0.6,1.3,0.9c0.5,0.3,1,0.5,1.6,0.6c1.2,0.3,2.6,0.2,4-0.2c0.3-0.1,0.7-0.3,1-0.4
				c0.3-0.2,0.7-0.3,1-0.6c0.3-0.2,0.6-0.4,0.9-0.7c0.1-0.1,0.3-0.3,0.4-0.4c0.1-0.1,0.1-0.1,0.2-0.2c0.1-0.1,0.1-0.1,0.2-0.2
				c0.1-0.1,0.1-0.1,0.2-0.2c0.1-0.1,0.1-0.2,0.2-0.2c0.1-0.2,0.2-0.3,0.4-0.5c0.1-0.1,0.1-0.2,0.2-0.2c0.1-0.1,0.1-0.2,0.2-0.2
				c0.1-0.1,0.1-0.2,0.2-0.2c0.1-0.1,0.1-0.2,0.2-0.3c0.1-0.2,0.2-0.3,0.3-0.5c0.1-0.2,0.2-0.4,0.3-0.5c0.1-0.2,0.2-0.4,0.3-0.6
				c0-0.1,0.1-0.2,0.1-0.3c0-0.1,0.1-0.2,0.1-0.3c0-0.1,0.1-0.2,0.1-0.3c0-0.1,0.1-0.2,0.1-0.3c0.1-0.2,0.1-0.4,0.2-0.6
				c0.1-0.2,0.1-0.4,0.2-0.6c0-0.1,0.1-0.2,0.1-0.3c0-0.1,0-0.2,0.1-0.3c0.2-0.8,0.3-1.7,0.4-2.6c0-0.2,0-0.4,0-0.7l0-0.3l0-0.3
				c0-0.2,0-0.4,0-0.7c0-0.2,0-0.4,0-0.7c0-0.2,0-0.4,0-0.7c0-0.2,0-0.4,0-0.7c0-0.2,0-0.4,0-0.7l0-0.3c0-0.1,0-0.2,0-0.3
				c0-0.2,0-0.4-0.1-0.7c0-0.2-0.1-0.4-0.1-0.7c0-0.4-0.1-0.9-0.2-1.3c0-0.2-0.1-0.4-0.1-0.7c0-0.2-0.1-0.4-0.1-0.7
				c-0.1-0.4-0.2-0.9-0.3-1.3c-0.2-0.9-0.4-1.7-0.7-2.6c-0.3-0.8-0.5-1.7-0.8-2.5c-0.3-0.8-0.5-1.6-0.8-2.5
				c-0.3-0.8-0.5-1.6-0.8-2.4c-0.5-1.6-1-3.1-1.4-4.6c-0.2-0.7-0.4-1.5-0.6-2.2c-0.2-0.7-0.3-1.4-0.4-2.1c-0.2-1.3-0.2-2.6,0-3.7
				c0-0.1,0.1-0.2,0.1-0.3c0.2-0.4,0.3-0.8,0.4-1.1c0.1-0.3,0.2-0.6,0.3-0.8c0.2-0.5,0.2-0.7,0.2-0.7s-0.1,0.2-0.3,0.7
				c-0.1,0.1-0.1,0.3-0.2,0.5c0,0,0,0-0.1,0.1c0,0-0.1,0.1-0.1,0.1c0,0,0-0.1,0-0.1c0.2-0.5,0.4-0.9,0.7-1.3
				c0.2-0.2,0.3-0.3,0.5-0.4c0.2-0.1,0.4-0.2,0.6-0.2c0,0,0,0,0,0c-0.1,0-0.2,0.1-0.2,0.2c-0.1,0.1-0.2,0.2-0.3,0.3
				c-0.1,0.1-0.1,0.1-0.1,0.1s0,0,0.1-0.1c0.1,0,0.2-0.2,0.5-0.3c0.5-0.2,0.8-0.1,1-0.1c0.3,0.1,0.4,0.2,0.6,0.4
				c0.1,0.1,0.2,0.4,0.2,0.4c0,0.1,0,0.1-0.1,0.2c-0.1,0.1-0.2,0.1-0.3,0.2c-0.1,0.1-0.2,0.1-0.4,0.2c-0.2,0.1-0.4,0.3-0.5,0.5
				c-0.1,0.1-0.2,0.4-0.2,0.7c0,0.3,0.2,0.5,0.3,0.6c0.1,0.1,0.2,0.2,0.3,0.2c0.2,0.1,0.3,0.1,0.5,0.1c0.1,0,0.5,0.2,0.5,0.2
				c0.1,0.1,0.2,0.1,0.3,0.2c0.2,0.1,0.3,0.1,0.4,0.1c0,0,0.1,0,0.1,0c0,0,0,0,0,0s0,0-0.1-0.1c-0.1-0.1-0.2-0.1-0.3-0.2
				c-0.1-0.1-0.2-0.2-0.3-0.4c0-0.1,0-0.3,0-0.6c0-0.2,0.1-0.3,0.1-0.5c0-0.1,0-0.2,0.1-0.2c0,0,0-0.1,0-0.1c0,0,0-0.1,0-0.1
				c0-0.2,0-0.5-0.1-0.6c0-0.1,0-0.2,0-0.4c0-0.2-0.1-0.4-0.3-0.6c0,0,0,0,0,0c-0.1-0.1-0.1-0.1-0.2-0.2c-0.1-0.1-0.3-0.2-0.5-0.3
				C18,210.9,17.8,210.9,17.6,210.9C17.6,210.9,17.6,210.9,17.6,210.9z M14.3,216.2c0,0.8,0,1.6,0.1,2.4c0.1,0.7,0.2,1.4,0.3,2.1
				c0.1,0.7,0.3,1.5,0.5,2.2c0.4,1.5,0.9,3,1.4,4.6c0.2,0.8,0.5,1.6,0.7,2.4c0.2,0.8,0.5,1.6,0.8,2.5c0.3,0.8,0.5,1.7,0.7,2.5
				c0.2,0.8,0.4,1.7,0.6,2.6c0.1,0.4,0.2,0.9,0.3,1.3c0,0.2,0.1,0.4,0.1,0.6c0,0.2,0.1,0.4,0.1,0.6c0.1,0.4,0.1,0.9,0.2,1.3
				c0,0.2,0,0.4,0.1,0.6c0,0.2,0,0.4,0,0.6c0,0.1,0,0.2,0,0.3l0,0.3c0,0.2,0,0.4,0,0.6c0,0.2,0,0.4,0,0.7c0,0.2,0,0.4,0,0.7
				c0,0.1,0,0.1,0,0.2c0,0,0,0,0,0c-0.1-0.2-0.1-0.5-0.1-0.9c0-0.3-0.1-0.7-0.1-1.2c-0.1-0.9-0.3-1.9-0.6-3
				c-0.3-1.1-0.8-2.3-1.3-3.5c-0.7-1.7-1.3-3.2-1.9-4.5c-0.3-0.7-0.5-1.3-0.7-1.8c-0.1-0.3-0.2-0.5-0.3-0.8
				c-0.1-0.2-0.1-0.5-0.2-0.6c0-0.2-0.1-0.4-0.1-0.7c-0.1-0.2-0.1-0.5-0.2-0.8c-0.1-0.6-0.2-1.2-0.4-1.9c-0.3-1.4-0.5-3-0.6-4.8
				c0-0.6,0-1.3,0-1.9c0-0.3,0-0.6,0.1-0.9c0-0.1,0-0.3,0.1-0.4c0-0.1,0-0.3,0.1-0.4C14.1,217,14.2,216.6,14.3,216.2z M15.1,213.3
				c0.1-0.1,0.1-0.2,0.2-0.2c0,0,0,0,0,0C15.2,213.2,15.2,213.3,15.1,213.3c0,0.1,0,0.1-0.1,0.2C15.1,213.5,15.1,213.4,15.1,213.3z
				 M19.1,212C19.1,212,19.1,212,19.1,212C19.1,212,19.2,212.1,19.1,212c0,0.2,0,0.2,0,0.3c0,0,0,0,0,0c0,0,0-0.1,0-0.1
				C19.2,212.1,19.2,212.1,19.1,212z"/>
		</g>
		<g>
			<path class="st2" d="M224.1,302.2c-0.2,0-0.4,0-0.6-0.1c-0.2-0.1-0.4-0.2-0.5-0.3c-0.1-0.1-0.1-0.1-0.2-0.2c0,0,0,0,0,0
				c-0.2-0.2-0.3-0.4-0.3-0.6c0-0.1,0-0.3,0-0.4c-0.1-0.1-0.1-0.4-0.1-0.6c0,0,0-0.1,0-0.1c0,0,0-0.1,0-0.1c0-0.1,0-0.2,0.1-0.2
				c0-0.1,0.1-0.3,0.1-0.5c0.1-0.2,0.1-0.4,0-0.6c0-0.1-0.1-0.3-0.3-0.4c-0.1-0.1-0.2-0.2-0.3-0.2c-0.1-0.1-0.1-0.1-0.1-0.1s0,0,0,0
				c0,0,0.1,0,0.1,0c0.1,0,0.2,0,0.4,0.1c0.1,0,0.2,0.1,0.3,0.2c0,0,0.4,0.2,0.5,0.2c0.1,0,0.3,0.1,0.5,0.1c0.1,0,0.2,0.1,0.3,0.2
				c0.1,0.1,0.3,0.3,0.3,0.6c0,0.4-0.1,0.7-0.2,0.7c-0.1,0.2-0.3,0.4-0.5,0.5c-0.1,0.1-0.3,0.2-0.4,0.2c-0.1,0.1-0.2,0.1-0.3,0.2
				c-0.1,0.1-0.1,0.1-0.1,0.2c0,0,0.1,0.3,0.2,0.4c0.2,0.2,0.3,0.3,0.6,0.4c0.2,0.1,0.6,0.1,1-0.1c0.3-0.1,0.4-0.2,0.5-0.3
				c0.1,0,0.1-0.1,0.1-0.1s0,0-0.1,0.1c-0.1,0.1-0.1,0.2-0.3,0.3c-0.1,0.1-0.1,0.1-0.2,0.2c0,0,0,0,0,0c0.2-0.1,0.4-0.1,0.6-0.2
				c0.2-0.1,0.4-0.3,0.5-0.4c0.3-0.3,0.5-0.8,0.7-1.3c0,0,0-0.1,0-0.1c0,0-0.1,0.1-0.1,0.1c0,0-0.1,0.1-0.1,0.1
				c-0.1,0.2-0.2,0.3-0.2,0.5c-0.2,0.4-0.3,0.7-0.3,0.7s0.1-0.3,0.2-0.7c0.1-0.2,0.2-0.5,0.3-0.8c0.1-0.3,0.3-0.7,0.4-1.1
				c0-0.1,0.1-0.2,0.1-0.3c0.2-1.1,0.2-2.4,0-3.7c-0.1-0.7-0.2-1.4-0.4-2.1c-0.2-0.7-0.3-1.4-0.6-2.2c-0.4-1.5-0.9-3-1.4-4.6
				c-0.3-0.8-0.5-1.6-0.8-2.4c-0.3-0.8-0.5-1.6-0.8-2.5c-0.3-0.8-0.5-1.7-0.8-2.5c-0.2-0.8-0.5-1.7-0.7-2.6
				c-0.1-0.4-0.2-0.9-0.3-1.3c-0.1-0.2-0.1-0.4-0.1-0.7c0-0.2-0.1-0.4-0.1-0.7c-0.1-0.4-0.1-0.9-0.2-1.3c0-0.2-0.1-0.4-0.1-0.7
				c0-0.2,0-0.4-0.1-0.7c0-0.1,0-0.2,0-0.3l0-0.3c0-0.2,0-0.4,0-0.7c0-0.2,0-0.4,0-0.7c0-0.2,0-0.4,0-0.7c0-0.2,0-0.4,0-0.7
				c0-0.2,0-0.4,0-0.7l0-0.3l0-0.3c0-0.2,0-0.4,0-0.7c0.1-0.9,0.2-1.7,0.4-2.6c0-0.1,0-0.2,0.1-0.3c0-0.1,0-0.2,0.1-0.3
				c0.1-0.2,0.1-0.4,0.2-0.6c0.1-0.2,0.1-0.4,0.2-0.6c0-0.1,0.1-0.2,0.1-0.3c0-0.1,0.1-0.2,0.1-0.3c0-0.1,0.1-0.2,0.1-0.3
				c0-0.1,0.1-0.2,0.1-0.3c0.1-0.2,0.2-0.4,0.3-0.6c0.1-0.2,0.2-0.4,0.3-0.5c0.1-0.2,0.2-0.3,0.3-0.5c0.1-0.1,0.1-0.2,0.2-0.3
				c0.1-0.1,0.1-0.2,0.2-0.2c0.1-0.1,0.1-0.2,0.2-0.2c0.1-0.1,0.1-0.2,0.2-0.2c0.1-0.2,0.2-0.3,0.4-0.5c0.1-0.1,0.1-0.2,0.2-0.2
				c0.1-0.1,0.1-0.2,0.2-0.2c0.1-0.1,0.1-0.1,0.2-0.2c0.1-0.1,0.1-0.1,0.2-0.2c0.1-0.1,0.3-0.3,0.4-0.4c0.3-0.3,0.6-0.5,0.9-0.7
				c0.3-0.2,0.6-0.4,1-0.6c0.3-0.2,0.7-0.3,1-0.4c1.4-0.5,2.8-0.5,4-0.2c0.6,0.1,1.2,0.4,1.6,0.6c0.5,0.3,0.9,0.6,1.3,0.9
				c0.4,0.3,0.7,0.7,0.9,1c0.1,0.1,0.1,0.2,0.2,0.3c0,0,0.1,0.1,0.1,0.1l0.1,0.2c0.1,0.1,0.1,0.2,0.2,0.3l0.1,0.2l0.1,0.2
				c0.2,0.4,0.3,0.9,0.4,1.3c0.1,0.4,0.2,0.9,0.2,1.3c0.1,0.9,0,1.7-0.1,2.6c-0.1,0.4-0.2,0.8-0.3,1.2c-0.1,0.2-0.1,0.4-0.2,0.6
				c0,0.1-0.1,0.2-0.1,0.3c0,0.1-0.1,0.2-0.1,0.3c0,0.1-0.1,0.2-0.1,0.3c0,0.1-0.1,0.2-0.1,0.3l-0.1,0.1l-0.1,0.1
				c0,0.1-0.1,0.2-0.1,0.3c-0.1,0.1-0.1,0.2-0.2,0.2l-0.1,0.1l-0.1,0.1c-0.1,0.1-0.1,0.2-0.2,0.2c-0.1,0.1-0.1,0.2-0.2,0.2
				c-0.1,0.1-0.1,0.1-0.2,0.2c-0.1,0.1-0.1,0.1-0.2,0.2c-0.1,0.1-0.3,0.3-0.4,0.4c-0.3,0.3-0.6,0.5-0.9,0.6c-0.1,0-0.2,0.1-0.2,0.1
				l-0.1,0.1l-0.1,0.1c-0.1,0-0.2,0.1-0.2,0.1c-0.1,0-0.2,0.1-0.3,0.1l-0.1,0c0,0-0.1,0-0.1,0c-0.1,0-0.2,0-0.3,0.1
				c-0.1,0-0.2,0-0.3,0l-0.1,0c0,0-0.1,0-0.1,0c-0.1,0-0.2,0-0.3,0c-0.1,0-0.2,0-0.3,0l-0.1,0l-0.1,0c-0.1,0-0.2,0-0.2,0
				c-0.1,0-0.2,0-0.2,0c0,0-0.1,0-0.1,0l-0.1,0c-0.1,0-0.2,0-0.2-0.1c-0.1,0-0.2,0-0.2-0.1c0,0-0.1,0-0.1,0l-0.1,0
				c-0.1,0-0.1-0.1-0.2-0.1c-0.1,0-0.1-0.1-0.2-0.1l-0.1-0.1c0,0-0.1,0-0.1-0.1c-0.1,0-0.1-0.1-0.2-0.1c-0.1,0-0.1-0.1-0.2-0.1
				c-0.1-0.1-0.2-0.2-0.3-0.3c-0.4-0.4-0.7-0.8-1-1.2c-0.2-0.4-0.4-0.9-0.4-1.3c-0.1-0.4,0-0.8,0-1.1c0,0,0-0.1,0-0.1
				c0,0,0-0.1,0-0.1c0-0.1,0-0.2,0.1-0.2c0-0.1,0.1-0.3,0.1-0.4c0.1-0.1,0.1-0.2,0.2-0.3c0,0,0-0.1,0.1-0.1c0.1-0.7,0.8-1.3,1.5-1.3
				c0.9,0,1.6,0.7,1.6,1.6s-0.7,1.6-1.6,1.6c-0.7,0-1.2-0.4-1.5-1c0,0,0,0.1,0,0.1c0,0.1,0,0.1,0,0.2c0,0,0,0.1,0,0.1
				c0,0,0,0.1,0,0.1c0,0.3,0,0.6,0.1,1c0.1,0.4,0.2,0.7,0.4,1.1c0.2,0.4,0.5,0.7,0.9,1c0.1,0.1,0.2,0.1,0.3,0.2
				c0.1,0,0.1,0.1,0.2,0.1c0.1,0,0.1,0.1,0.2,0.1c0,0,0.1,0,0.1,0l0.1,0c0.1,0,0.1,0.1,0.2,0.1c0.1,0,0.1,0,0.2,0.1l0.1,0
				c0,0,0.1,0,0.1,0c0.1,0,0.1,0,0.2,0.1c0.1,0,0.1,0,0.2,0l0.1,0c0,0,0.1,0,0.1,0c0.1,0,0.1,0,0.2,0c0.1,0,0.1,0,0.2,0l0.1,0l0.1,0
				c0.1,0,0.1,0,0.2,0c0.1,0,0.1,0,0.2,0c0,0,0.1,0,0.1,0l0.1,0c0.1,0,0.1,0,0.2,0c0.1,0,0.1,0,0.2-0.1c0,0,0.1,0,0.1,0l0.1,0
				c0.1,0,0.1-0.1,0.2-0.1c0.1,0,0.1-0.1,0.2-0.1l0.1,0l0.1-0.1c0.1,0,0.1-0.1,0.2-0.1c1-0.6,1.9-1.7,2.4-3.1c0-0.1,0.1-0.2,0.1-0.2
				c0-0.1,0.1-0.2,0.1-0.3c0.1-0.2,0.1-0.3,0.2-0.5c0.1-0.4,0.2-0.7,0.2-1.1c0.1-0.7,0.1-1.5,0.1-2.3c0-0.4-0.1-0.8-0.2-1.1
				c-0.1-0.4-0.2-0.7-0.4-1.1l-0.1-0.1l-0.1-0.1c0-0.1-0.1-0.2-0.1-0.2l-0.1-0.1c0,0,0-0.1-0.1-0.1c-0.1-0.1-0.1-0.2-0.2-0.2
				c-0.2-0.3-0.5-0.6-0.8-0.9c-0.3-0.3-0.6-0.5-1-0.7c-0.4-0.2-0.8-0.4-1.3-0.5c-0.5-0.1-1-0.2-1.6-0.1c-0.1,0-0.3,0-0.4,0
				c-0.1,0-0.3,0-0.4,0.1c-0.3,0.1-0.6,0.1-0.9,0.2c-0.3,0.1-0.6,0.2-0.9,0.3c-0.3,0.1-0.6,0.3-0.9,0.5c-0.3,0.2-0.5,0.4-0.8,0.6
				c-0.1,0.1-0.3,0.2-0.4,0.3c-0.1,0.1-0.1,0.1-0.2,0.2c-0.1,0.1-0.1,0.1-0.2,0.2c-0.1,0.1-0.1,0.1-0.2,0.2
				c-0.1,0.1-0.1,0.1-0.2,0.2c-0.1,0.1-0.2,0.3-0.3,0.4c-0.1,0.1-0.1,0.1-0.2,0.2c-0.1,0.1-0.1,0.2-0.2,0.2
				c-0.1,0.1-0.1,0.2-0.2,0.2c-0.1,0.1-0.1,0.2-0.2,0.2c-0.1,0.2-0.2,0.3-0.3,0.5c-0.1,0.2-0.2,0.3-0.3,0.5
				c-0.1,0.2-0.2,0.3-0.3,0.5c0,0.1-0.1,0.2-0.1,0.3c0,0.1-0.1,0.2-0.1,0.3c0,0.1-0.1,0.2-0.1,0.3c0,0.1-0.1,0.2-0.1,0.3
				c-0.1,0.2-0.1,0.4-0.2,0.6c-0.1,0.2-0.1,0.4-0.2,0.6c0,0.1-0.1,0.2-0.1,0.3c0,0.1,0,0.2-0.1,0.3c-0.2,0.8-0.3,1.6-0.4,2.5
				c0,0.2,0,0.4,0,0.6l0,0.3l0,0.3c0,0.2,0,0.4,0,0.6c0,0.1,0,0.2,0,0.3c0,0.1,0.1,0.1,0.1,0.2c0.1,0.2,0.1,0.5,0.2,0.9
				c0,0.3,0.1,0.7,0.2,1.1c0.2,0.8,0.4,1.8,0.8,2.9c0.4,1.1,0.8,2.2,1.3,3.4c0.7,1.7,1.3,3.2,1.7,4.6c0.2,0.7,0.4,1.3,0.6,1.9
				c0.1,0.3,0.1,0.5,0.2,0.8c0.1,0.2,0.1,0.5,0.1,0.7c0.1,0.2,0.1,0.4,0.2,0.6c0.1,0.2,0.1,0.5,0.2,0.8c0.2,0.6,0.3,1.2,0.5,1.9
				c0.3,1.4,0.7,3.1,0.8,4.9c0,0.7,0,1.3,0,2c0,0.3-0.1,0.6-0.1,0.9c0,0.2-0.1,0.3-0.1,0.4c0,0.1,0,0.3-0.1,0.4
				c-0.2,1-0.6,1.9-0.9,2.6c0,0.2-0.1,0.3-0.1,0.5c0.2-0.3,0.4-0.7,0.6-1.1c0-0.1,0.1-0.2,0.1-0.3c0-0.1,0.1-0.2,0.1-0.3
				c0.1-0.2,0.2-0.4,0.3-0.7c0.2-0.5,0.3-0.9,0.5-1.5c0.2-0.5,0.3-1.1,0.4-1.7c0-0.3,0.1-0.6,0.1-0.9c0-0.2,0-0.3,0-0.5
				c0-0.2,0-0.3,0-0.5c0-1.7-0.1-3.3-0.3-4.7c-0.2-1.4-0.4-2.5-0.6-3.3c-0.1-0.4-0.3-0.8-0.5-1.4c-0.2-0.5-0.4-1.1-0.7-1.8
				c-0.3-0.6-0.5-1.3-0.8-2.1c-0.3-0.7-0.6-1.5-1-2.3c-0.3-0.6-0.5-1.1-0.7-1.7c-0.2-0.5-0.5-1-0.8-1.5c-0.3-0.5-0.5-0.9-0.7-1.4
				c-0.2-0.4-0.4-0.9-0.6-1.2c-0.3-0.8-0.5-1.4-0.6-1.9c0-0.1,0-0.2,0-0.3c0-0.1,0-0.2,0-0.2c0-0.1,0-0.2,0-0.2s0,0.1,0,0.2
				c0,0.1,0,0.1,0,0.2c0,0.1,0.1,0.2,0.1,0.3c0.1,0.4,0.4,1.1,0.8,1.8c0.2,0.4,0.4,0.8,0.7,1.2c0.3,0.4,0.5,0.9,0.8,1.3
				c0.3,0.5,0.6,1,0.8,1.5c0.3,0.5,0.5,1.1,0.8,1.7c0.3,0.8,0.7,1.6,1,2.3c0.3,0.8,0.5,1.5,0.7,2.1c0.2,0.7,0.4,1.3,0.5,1.8
				c0.2,0.5,0.2,1,0.3,1.4c0.3,0.8,0.6,1.9,0.9,3.2c0.3,1.4,0.6,3,0.5,4.8c0,0.2,0,0.3,0,0.5c0,0.2,0,0.3,0,0.5
				c0,0.3-0.1,0.6-0.1,0.9c-0.1,0.6-0.3,1.2-0.5,1.7c-0.2,0.5-0.4,1-0.6,1.5c-0.1,0.2-0.2,0.4-0.3,0.6c-0.1,0.1-0.1,0.2-0.2,0.3
				c-0.1,0.1-0.1,0.2-0.2,0.3c-0.3,0.6-0.7,1.1-1,1.4c-0.1,0.3-0.2,0.5-0.2,0.7c-0.2,0.5-0.5,1-0.8,1.3c-0.2,0.2-0.4,0.3-0.6,0.4
				c-0.2,0.1-0.4,0.2-0.6,0.2c-0.1,0-0.1,0-0.2,0c-0.1,0-0.1,0-0.2,0C224.4,302.2,224.3,302.2,224.1,302.2
				C224.1,302.2,224.1,302.2,224.1,302.2z M227.6,295.8c0-0.1,0-0.3,0.1-0.4c0-0.1,0-0.3,0.1-0.4c0-0.3,0.1-0.6,0.1-0.9
				c0-0.6,0-1.2,0-1.9c-0.1-1.8-0.4-3.4-0.6-4.8c-0.1-0.7-0.3-1.3-0.4-1.9c-0.1-0.3-0.1-0.5-0.2-0.8c-0.1-0.2-0.1-0.5-0.1-0.7
				c-0.1-0.2-0.1-0.4-0.2-0.6c-0.1-0.2-0.2-0.5-0.3-0.8c-0.2-0.5-0.4-1.1-0.7-1.8c-0.5-1.3-1.2-2.9-1.9-4.5
				c-0.5-1.2-0.9-2.4-1.3-3.5c-0.3-1.1-0.5-2.1-0.6-3c0-0.4-0.1-0.8-0.1-1.2c0-0.3,0-0.6-0.1-0.9c0,0,0,0,0,0c0,0.1,0,0.1,0,0.2
				c0,0.2,0,0.4,0,0.7c0,0.2,0,0.4,0,0.7c0,0.2,0,0.4,0,0.6l0,0.3c0,0.1,0,0.2,0,0.3c0,0.2,0,0.4,0,0.6c0,0.2,0,0.4,0.1,0.6
				c0,0.4,0.1,0.9,0.2,1.3c0,0.2,0.1,0.4,0.1,0.6c0,0.2,0.1,0.4,0.1,0.6c0.1,0.4,0.2,0.9,0.3,1.3c0.2,0.9,0.4,1.7,0.6,2.6
				c0.2,0.8,0.5,1.7,0.7,2.5c0.2,0.8,0.5,1.7,0.8,2.5c0.2,0.8,0.5,1.6,0.7,2.4c0.5,1.6,1,3.1,1.4,4.6c0.2,0.8,0.4,1.5,0.5,2.2
				c0.1,0.7,0.2,1.4,0.3,2.1c0.1,0.8,0.1,1.6,0.1,2.4C227.5,296.6,227.6,296.2,227.6,295.8z M226.7,299.6c0,0.1-0.1,0.1-0.1,0.2
				c0,0.1-0.1,0.2-0.1,0.3c0,0,0,0,0,0c0-0.1,0.1-0.1,0.2-0.2C226.6,299.7,226.6,299.7,226.7,299.6z M222.5,300.9c0-0.1,0-0.1,0-0.1
				c0,0,0,0,0,0c0,0.1,0,0.2,0,0.3c0,0,0,0.1,0,0.1c0,0,0,0,0,0C222.6,301,222.5,301,222.5,300.9z"/>
			<path class="st2" d="M224.2,208.9c0.1,0,0.2,0,0.3,0c0.1,0,0.1,0,0.2,0c0.1,0,0.1,0,0.2,0c0.2,0,0.4,0.1,0.6,0.2
				c0.2,0.1,0.4,0.3,0.6,0.4c0.3,0.4,0.6,0.8,0.8,1.3c0.1,0.2,0.2,0.5,0.2,0.7c0.3,0.4,0.6,0.8,1,1.4c0.1,0.1,0.1,0.2,0.2,0.3
				c0.1,0.1,0.1,0.2,0.2,0.3c0.1,0.2,0.2,0.4,0.3,0.6c0.2,0.5,0.4,0.9,0.6,1.5c0.2,0.5,0.3,1.1,0.5,1.7c0.1,0.3,0.1,0.6,0.1,0.9
				c0,0.2,0,0.3,0,0.5c0,0.2,0,0.3,0,0.5c0,1.8-0.2,3.4-0.5,4.8c-0.3,1.4-0.6,2.5-0.9,3.2c-0.1,0.4-0.2,0.9-0.3,1.4
				c-0.1,0.5-0.3,1.2-0.5,1.8c-0.2,0.7-0.5,1.4-0.7,2.1c-0.3,0.7-0.6,1.5-1,2.3c-0.3,0.6-0.5,1.2-0.8,1.7c-0.3,0.6-0.6,1.1-0.8,1.5
				c-0.3,0.5-0.6,0.9-0.8,1.3c-0.3,0.4-0.5,0.8-0.7,1.2c-0.4,0.7-0.6,1.4-0.8,1.8c0,0.1-0.1,0.2-0.1,0.3c0,0.1,0,0.2,0,0.2
				c0,0.1,0,0.2,0,0.2s0-0.1,0-0.2c0-0.1,0-0.1,0-0.2c0-0.1,0-0.2,0-0.3c0.1-0.5,0.3-1.1,0.6-1.9c0.2-0.4,0.4-0.8,0.6-1.2
				c0.2-0.4,0.5-0.9,0.7-1.4c0.3-0.5,0.5-1,0.8-1.5c0.2-0.6,0.5-1.1,0.7-1.7c0.3-0.8,0.7-1.6,1-2.3c0.3-0.7,0.6-1.4,0.8-2.1
				c0.2-0.6,0.5-1.2,0.7-1.8c0.2-0.5,0.3-1,0.5-1.4c0.2-0.8,0.4-1.9,0.6-3.3c0.2-1.4,0.4-3,0.3-4.7c0-0.2,0-0.3,0-0.5
				c0-0.2,0-0.3,0-0.5c0-0.3-0.1-0.6-0.1-0.9c-0.1-0.6-0.2-1.1-0.4-1.7c-0.1-0.5-0.3-1-0.5-1.5c-0.1-0.2-0.2-0.4-0.3-0.7
				c0-0.1-0.1-0.2-0.1-0.3c0-0.1-0.1-0.2-0.1-0.3c-0.2-0.4-0.4-0.8-0.6-1.1c0,0.2,0.1,0.3,0.1,0.5c0.3,0.7,0.7,1.6,0.9,2.6
				c0,0.1,0.1,0.3,0.1,0.4c0,0.1,0.1,0.3,0.1,0.4c0,0.3,0.1,0.6,0.1,0.9c0.1,0.6,0.1,1.3,0,2c-0.1,1.8-0.4,3.5-0.8,4.9
				c-0.2,0.7-0.4,1.3-0.5,1.9c-0.1,0.3-0.2,0.5-0.2,0.8c-0.1,0.2-0.1,0.5-0.2,0.6c0,0.2-0.1,0.4-0.1,0.7c-0.1,0.2-0.1,0.5-0.2,0.8
				c-0.1,0.6-0.3,1.2-0.6,1.9c-0.4,1.4-1,2.9-1.7,4.6c-0.5,1.2-1,2.4-1.3,3.4c-0.3,1.1-0.6,2.1-0.8,2.9c-0.1,0.4-0.2,0.8-0.2,1.1
				c0,0.3-0.1,0.6-0.2,0.9c0,0.1-0.1,0.1-0.1,0.2c0,0.1,0,0.2,0,0.3c0,0.2,0,0.4,0,0.6l0,0.3l0,0.3c0,0.2,0,0.4,0,0.6
				c0.1,0.8,0.2,1.7,0.4,2.5c0,0.1,0,0.2,0.1,0.3c0,0.1,0,0.2,0.1,0.3c0.1,0.2,0.1,0.4,0.2,0.6c0.1,0.2,0.1,0.4,0.2,0.6
				c0,0.1,0.1,0.2,0.1,0.3c0,0.1,0.1,0.2,0.1,0.3c0,0.1,0.1,0.2,0.1,0.3c0,0.1,0.1,0.2,0.1,0.3c0.1,0.2,0.2,0.3,0.3,0.5
				c0.1,0.2,0.2,0.3,0.3,0.5c0.1,0.2,0.2,0.3,0.3,0.5c0,0.1,0.1,0.2,0.2,0.2c0.1,0.1,0.1,0.2,0.2,0.2c0.1,0.1,0.1,0.2,0.2,0.2
				c0.1,0.1,0.1,0.1,0.2,0.2c0.1,0.1,0.2,0.3,0.3,0.4c0.1,0.1,0.1,0.1,0.2,0.2c0.1,0.1,0.1,0.1,0.2,0.2c0.1,0.1,0.1,0.1,0.2,0.2
				c0.1,0.1,0.1,0.1,0.2,0.2c0.1,0.1,0.3,0.2,0.4,0.3c0.3,0.2,0.5,0.4,0.8,0.6c0.3,0.2,0.6,0.3,0.9,0.5c0.3,0.1,0.6,0.3,0.9,0.3
				c0.3,0.1,0.6,0.2,0.9,0.2c0.1,0,0.3,0,0.4,0.1c0.1,0,0.3,0,0.4,0c0.6,0,1.1,0,1.6-0.1c0.5-0.1,0.9-0.3,1.3-0.5
				c0.4-0.2,0.7-0.5,1-0.7c0.3-0.3,0.6-0.6,0.8-0.9c0.1-0.1,0.1-0.2,0.2-0.2c0,0,0.1-0.1,0.1-0.1l0.1-0.1c0.1-0.1,0.1-0.2,0.1-0.2
				l0.1-0.1l0.1-0.1c0.2-0.3,0.3-0.7,0.4-1.1c0.1-0.4,0.2-0.8,0.2-1.1c0.1-0.8,0-1.5-0.1-2.3c-0.1-0.4-0.1-0.7-0.2-1.1
				c0-0.2-0.1-0.3-0.2-0.5c0-0.1-0.1-0.2-0.1-0.3c0-0.1-0.1-0.2-0.1-0.2c-0.5-1.3-1.4-2.4-2.4-3.1c-0.1,0-0.1-0.1-0.2-0.1l-0.1-0.1
				l-0.1,0c-0.1,0-0.1-0.1-0.2-0.1c-0.1,0-0.1-0.1-0.2-0.1l-0.1,0c0,0-0.1,0-0.1,0c-0.1,0-0.1,0-0.2-0.1c-0.1,0-0.1,0-0.2,0l-0.1,0
				c0,0-0.1,0-0.1,0c-0.1,0-0.1,0-0.2,0c-0.1,0-0.1,0-0.2,0l-0.1,0l-0.1,0c-0.1,0-0.1,0-0.2,0c-0.1,0-0.1,0-0.2,0c0,0-0.1,0-0.1,0
				l-0.1,0c-0.1,0-0.1,0-0.2,0c-0.1,0-0.1,0-0.2,0.1c0,0-0.1,0-0.1,0l-0.1,0c-0.1,0-0.1,0-0.2,0.1c-0.1,0-0.1,0.1-0.2,0.1l-0.1,0
				c0,0-0.1,0-0.1,0c-0.1,0-0.1,0.1-0.2,0.1c-0.1,0-0.1,0.1-0.2,0.1c-0.1,0.1-0.2,0.1-0.3,0.2c-0.4,0.3-0.7,0.6-0.9,1
				c-0.2,0.4-0.4,0.7-0.4,1.1c-0.1,0.4-0.1,0.7-0.1,1c0,0,0,0.1,0,0.1c0,0,0,0.1,0,0.1c0,0.1,0,0.1,0,0.2c0,0,0,0.1,0,0.1
				c0.2-0.6,0.8-1,1.5-1c0.9,0,1.6,0.7,1.6,1.6c0,0.9-0.7,1.6-1.6,1.6c-0.8,0-1.4-0.6-1.5-1.3c0,0,0-0.1-0.1-0.1
				c0-0.1-0.1-0.2-0.2-0.3c0-0.1-0.1-0.3-0.1-0.4c0-0.1,0-0.1-0.1-0.2c0,0,0-0.1,0-0.1c0,0,0-0.1,0-0.1c-0.1-0.3-0.1-0.7,0-1.1
				c0.1-0.4,0.2-0.9,0.4-1.3c0.2-0.4,0.5-0.9,1-1.2c0.1-0.1,0.2-0.2,0.3-0.3c0.1,0,0.1-0.1,0.2-0.1c0.1,0,0.1-0.1,0.2-0.1
				c0,0,0.1,0,0.1-0.1l0.1-0.1c0.1,0,0.1-0.1,0.2-0.1c0.1,0,0.1-0.1,0.2-0.1l0.1,0c0,0,0.1,0,0.1,0c0.1,0,0.2,0,0.2-0.1
				c0.1,0,0.2,0,0.2-0.1l0.1,0c0,0,0.1,0,0.1,0c0.1,0,0.2,0,0.2,0c0.1,0,0.2,0,0.2,0l0.1,0l0.1,0c0.1,0,0.2,0,0.3,0
				c0.1,0,0.2,0,0.3,0c0,0,0.1,0,0.1,0l0.1,0c0.1,0,0.2,0,0.3,0c0.1,0,0.2,0,0.3,0.1c0,0,0.1,0,0.1,0l0.1,0c0.1,0,0.2,0.1,0.3,0.1
				c0.1,0,0.2,0.1,0.2,0.1l0.1,0.1l0.1,0.1c0.1,0,0.2,0.1,0.2,0.1c0.3,0.2,0.6,0.4,0.9,0.6c0.1,0.1,0.3,0.3,0.4,0.4
				c0.1,0.1,0.1,0.1,0.2,0.2c0.1,0.1,0.1,0.1,0.2,0.2c0.1,0.1,0.1,0.1,0.2,0.2c0.1,0.1,0.1,0.2,0.2,0.2l0.1,0.1l0.1,0.1
				c0.1,0.1,0.1,0.2,0.2,0.2c0,0.1,0.1,0.2,0.1,0.3l0.1,0.1l0.1,0.1c0,0.1,0.1,0.2,0.1,0.3c0,0.1,0.1,0.2,0.1,0.3
				c0,0.1,0.1,0.2,0.1,0.3c0,0.1,0.1,0.2,0.1,0.3c0.1,0.2,0.1,0.4,0.2,0.6c0.1,0.4,0.2,0.8,0.3,1.2c0.1,0.8,0.2,1.7,0.1,2.6
				c0,0.4-0.1,0.9-0.2,1.3c-0.1,0.4-0.3,0.9-0.4,1.3l-0.1,0.2l-0.1,0.2c-0.1,0.1-0.1,0.2-0.2,0.3l-0.1,0.2c0,0.1-0.1,0.1-0.1,0.1
				c-0.1,0.1-0.1,0.2-0.2,0.3c-0.3,0.4-0.6,0.7-0.9,1c-0.4,0.3-0.8,0.6-1.3,0.9c-0.5,0.3-1,0.5-1.6,0.6c-1.2,0.3-2.6,0.2-4-0.2
				c-0.3-0.1-0.7-0.3-1-0.4c-0.3-0.2-0.7-0.3-1-0.6c-0.3-0.2-0.6-0.4-0.9-0.7c-0.1-0.1-0.3-0.3-0.4-0.4c-0.1-0.1-0.1-0.1-0.2-0.2
				c-0.1-0.1-0.1-0.1-0.2-0.2c-0.1-0.1-0.1-0.1-0.2-0.2c-0.1-0.1-0.1-0.2-0.2-0.2c-0.1-0.2-0.2-0.3-0.4-0.5
				c-0.1-0.1-0.1-0.2-0.2-0.2c-0.1-0.1-0.1-0.2-0.2-0.2c-0.1-0.1-0.1-0.2-0.2-0.2c-0.1-0.1-0.1-0.2-0.2-0.3
				c-0.1-0.2-0.2-0.3-0.3-0.5c-0.1-0.2-0.2-0.4-0.3-0.5c-0.1-0.2-0.2-0.4-0.3-0.6c0-0.1-0.1-0.2-0.1-0.3c0-0.1-0.1-0.2-0.1-0.3
				c0-0.1-0.1-0.2-0.1-0.3c0-0.1-0.1-0.2-0.1-0.3c-0.1-0.2-0.1-0.4-0.2-0.6c-0.1-0.2-0.1-0.4-0.2-0.6c0-0.1-0.1-0.2-0.1-0.3
				c0-0.1,0-0.2-0.1-0.3c-0.2-0.8-0.3-1.7-0.4-2.6c0-0.2,0-0.4,0-0.7l0-0.3l0-0.3c0-0.2,0-0.4,0-0.7c0-0.2,0-0.4,0-0.7
				c0-0.2,0-0.4,0-0.7c0-0.2,0-0.4,0-0.7c0-0.2,0-0.4,0-0.7l0-0.3c0-0.1,0-0.2,0-0.3c0-0.2,0-0.4,0.1-0.7c0-0.2,0.1-0.4,0.1-0.7
				c0-0.4,0.1-0.9,0.2-1.3c0-0.2,0.1-0.4,0.1-0.7c0-0.2,0.1-0.4,0.1-0.7c0.1-0.4,0.2-0.9,0.3-1.3c0.2-0.9,0.4-1.7,0.7-2.6
				c0.3-0.8,0.5-1.7,0.8-2.5c0.3-0.8,0.5-1.6,0.8-2.5c0.3-0.8,0.5-1.6,0.8-2.4c0.5-1.6,1-3.1,1.4-4.6c0.2-0.7,0.4-1.5,0.6-2.2
				c0.2-0.7,0.3-1.4,0.4-2.1c0.2-1.3,0.2-2.6,0-3.7c0-0.1-0.1-0.2-0.1-0.3c-0.2-0.4-0.3-0.8-0.4-1.1c-0.1-0.3-0.2-0.6-0.3-0.8
				c-0.2-0.5-0.2-0.7-0.2-0.7s0.1,0.2,0.3,0.7c0.1,0.1,0.1,0.3,0.2,0.5c0,0,0,0,0.1,0.1c0,0,0.1,0.1,0.1,0.1c0,0,0-0.1,0-0.1
				c-0.2-0.5-0.4-0.9-0.7-1.3c-0.2-0.2-0.3-0.3-0.5-0.4c-0.2-0.1-0.4-0.2-0.6-0.2c0,0,0,0,0,0c0.1,0,0.2,0.1,0.2,0.2
				c0.1,0.1,0.2,0.2,0.3,0.3c0.1,0.1,0.1,0.1,0.1,0.1s0,0-0.1-0.1c-0.1,0-0.2-0.2-0.5-0.3c-0.5-0.2-0.8-0.1-1-0.1
				c-0.3,0.1-0.4,0.2-0.6,0.4c-0.1,0.1-0.2,0.4-0.2,0.4c0,0.1,0,0.1,0.1,0.2c0.1,0.1,0.2,0.1,0.3,0.2c0.1,0.1,0.2,0.1,0.4,0.2
				c0.2,0.1,0.4,0.3,0.5,0.5c0.1,0.1,0.2,0.4,0.2,0.7c0,0.3-0.2,0.5-0.3,0.6c-0.1,0.1-0.2,0.2-0.3,0.2c-0.2,0.1-0.3,0.1-0.5,0.1
				c-0.1,0-0.5,0.2-0.5,0.2c-0.1,0.1-0.2,0.1-0.3,0.2c-0.2,0.1-0.3,0.1-0.4,0.1c0,0-0.1,0-0.1,0c0,0,0,0,0,0s0,0,0.1-0.1
				c0.1-0.1,0.2-0.1,0.3-0.2c0.1-0.1,0.2-0.2,0.3-0.4c0-0.1,0-0.3,0-0.6c0-0.2-0.1-0.3-0.1-0.5c0-0.1,0-0.2-0.1-0.2c0,0,0-0.1,0-0.1
				c0,0,0-0.1,0-0.1c0-0.2,0-0.5,0.1-0.6c0-0.1,0-0.2,0-0.4c0-0.2,0.1-0.4,0.3-0.6c0,0,0,0,0,0c0.1-0.1,0.1-0.1,0.2-0.2
				c0.1-0.1,0.3-0.2,0.5-0.3C223.7,208.9,223.9,208.9,224.2,208.9C224.1,209,224.1,208.9,224.2,208.9z M227.4,214.2
				c0,0.8,0,1.6-0.1,2.4c-0.1,0.7-0.2,1.4-0.3,2.1c-0.1,0.7-0.3,1.5-0.5,2.2c-0.4,1.5-0.9,3-1.4,4.6c-0.2,0.8-0.5,1.6-0.7,2.4
				c-0.2,0.8-0.5,1.6-0.8,2.5c-0.3,0.8-0.5,1.7-0.7,2.5c-0.2,0.8-0.4,1.7-0.6,2.6c-0.1,0.4-0.2,0.9-0.3,1.3c0,0.2-0.1,0.4-0.1,0.6
				c0,0.2-0.1,0.4-0.1,0.6c-0.1,0.4-0.1,0.9-0.2,1.3c0,0.2,0,0.4-0.1,0.6c0,0.2,0,0.4,0,0.6c0,0.1,0,0.2,0,0.3l0,0.3
				c0,0.2,0,0.4,0,0.6c0,0.2,0,0.4,0,0.7c0,0.2,0,0.4,0,0.7c0,0.1,0,0.1,0,0.2c0,0,0,0,0,0c0.1-0.2,0.1-0.5,0.1-0.9
				c0-0.3,0.1-0.7,0.1-1.2c0.1-0.9,0.3-1.9,0.6-3c0.3-1.1,0.8-2.3,1.3-3.5c0.7-1.7,1.3-3.2,1.9-4.5c0.3-0.7,0.5-1.3,0.7-1.8
				c0.1-0.3,0.2-0.5,0.3-0.8c0.1-0.2,0.1-0.5,0.2-0.6c0-0.2,0.1-0.4,0.1-0.7c0.1-0.2,0.1-0.5,0.2-0.8c0.1-0.6,0.2-1.2,0.4-1.9
				c0.3-1.4,0.5-3,0.6-4.8c0-0.6,0-1.3,0-1.9c0-0.3,0-0.6-0.1-0.9c0-0.1,0-0.3-0.1-0.4c0-0.1,0-0.3-0.1-0.4
				C227.6,215,227.5,214.6,227.4,214.2z M226.6,211.4c-0.1-0.1-0.1-0.2-0.2-0.2c0,0,0,0,0,0C226.5,211.2,226.5,211.3,226.6,211.4
				c0,0.1,0,0.1,0.1,0.2C226.6,211.5,226.6,211.4,226.6,211.4z M222.6,210.1C222.6,210.1,222.6,210,222.6,210.1
				C222.6,210.1,222.6,210.1,222.6,210.1c0,0.2,0,0.2,0,0.3c0,0,0,0,0,0c0,0,0-0.1,0-0.1C222.5,210.2,222.6,210.1,222.6,210.1z"/>
		</g>
	</g>
</g>
</svg>
