<?xml version="1.0" encoding="utf-8"?>
<!-- Generator: Adobe Illustrator 23.0.2, SVG Export Plug-In . SVG Version: 6.00 Build 0)  -->
<svg version="1.1" id="圖層_1" xmlns="http://www.w3.org/2000/svg" xmlns:xlink="http://www.w3.org/1999/xlink" x="0px" y="0px"
	 viewBox="0 0 34.5 48.6" style="enable-background:new 0 0 34.5 48.6;" xml:space="preserve">
<style type="text/css">
	.st0{fill:#FFFFFF;stroke:#3B5366;stroke-miterlimit:10;}
	.st1{fill:#3B5366;}
	.st2{fill:#FFFFFF;}
	.st3{fill:#FFD061;}
	.st4{fill:#534741;}
	.st5{fill:none;}
</style>
<polygon class="st0" points="17.3,47.3 10.7,21.5 23.9,21.5 "/>
<polygon class="st1" points="17.3,48.6 17.3,22.9 23.9,22.9 "/>
<g>
	<path class="st2" d="M17.3,33.4c-8.9,0-16.2-7.3-16.2-16.2C1.1,8.3,8.4,1,17.3,1s16.2,7.3,16.2,16.2S26.3,33.4,17.3,33.4z"/>
	<path class="st1" d="M17.3,2c8.4,0,15.2,6.8,15.2,15.2s-6.8,15.2-15.2,15.2S2.1,25.6,2.1,17.2S8.9,2,17.3,2 M17.3,0
		C7.8,0,0.1,7.7,0.1,17.2s7.7,17.2,17.2,17.2s17.2-7.7,17.2-17.2S26.8,0,17.3,0L17.3,0z"/>
</g>
<g>
	<path class="st3" d="M7.2,15C7.4,16.4,8,20.8,8,20.8l-0.6,0.5l0.2,1.1l1.5,0.4l0.3-0.4l11.3,3.6v0.3l2.4,0.7l1.2-1.4v-0.4l1.6-2.5
		l0.3,0.1l0.9-0.8v-1.2l-0.5-0.1c0,0,0.4-4.8,0.4-6.3c0.1-0.3,0.4-3.4-1.2-3.7c-0.4-0.1-0.9-0.2-1.8-0.2c-0.3,0.1-0.3,0.3-0.6,0.3
		c-0.8-0.2-3.3-0.2-4.4-0.5c-0.2-0.6-1.6-1-3.3-0.3c-0.9-0.1-1.9-0.3-2.8-0.4c-0.2-0.4-1.2-0.7-1.4-0.6C11,9,10.1,9,9.6,9.1
		C7.1,11.1,6.9,12.8,7.2,15z"/>
	<g>
		<g>
			<path class="st4" d="M7,14.8c-0.1-0.7-0.2-1.4-0.1-2.1C7,12,7.2,11.3,7.7,10.6C8,10,8.6,9.5,9.1,9C9.1,9,9.1,9,9.2,8.9
				c0.1,0,0.1-0.1,0.3-0.1h0.3c0.2,0,0.4,0,0.5,0c0.4,0,0.7,0.1,1.1,0.1V9c-0.4,0.1-0.7,0.2-1.1,0.2c-0.2,0.1-0.4,0.1-0.5,0.1
				c-0.1,0-0.2,0-0.3,0.1c0.1,0,0.1,0,0.1,0L9.4,9.4c-0.5,0.5-1,0.9-1.4,1.5C7.2,12,7,13.4,7,14.8L7,14.8z"/>
		</g>
		<g>
			<path class="st4" d="M11.2,9c0.3-0.2,0.6-0.1,0.9-0.1C12.3,9,12.5,9,12.6,9.1c0.1,0.1,0.2,0.3,0.2,0.5h-0.1
				c-0.2-0.1-0.3-0.1-0.4-0.1c-0.1-0.1-0.2-0.2-0.3-0.2c-0.1-0.1-0.2-0.1-0.3-0.2C11.5,9.1,11.4,9.1,11.2,9L11.2,9z"/>
		</g>
		<g>
			<path class="st4" d="M8.1,14L8.1,14l-0.2,0.2L8,13.9c0.1-0.1,0.1-0.2,0.2-0.3c0.1,0,0.1-0.1,0.1,0c0.1,0,0.1,0.1,0.2,0.2v0.1
				c0,0.2,0,0.2,0,0.3c0,0-0.1,0-0.1,0C8.3,14.1,8.2,14.1,8.1,14l-0.1-0.1L8.1,14L8.1,14z"/>
		</g>
		<g>
			<path class="st4" d="M8.5,13.8c-0.1-0.9,0.4-1.9,0.7-2.8c0.2-0.4,0.5-0.9,0.9-1.2c0.4-0.3,0.9-0.4,1.4-0.5l0,0h0.1
				c0.6,0.1,1.3,0.1,1.9,0.2s1.3,0.3,1.8,0.4V10c-0.6,0.1-1.3,0.1-1.9,0c-0.6,0-1.3-0.1-1.9-0.2h0.1c-0.4,0.1-0.9,0.2-1.3,0.4
				c-0.4,0.2-0.7,0.5-0.9,1C9.1,12,8.6,12.9,8.5,13.8L8.5,13.8z"/>
		</g>
		<g>
			<path class="st4" d="M8.5,13.7c0.5,0,0.9,0,1.4,0.1c0.2,0,0.5,0,0.7,0.1c0.2,0.1,0.5,0.2,0.7,0.4v0.1c-0.3,0.1-0.5,0.1-0.7,0.1
				s-0.5-0.1-0.7-0.2C9.4,14.1,9,14,8.5,13.7L8.5,13.7z"/>
		</g>
		<g>
			<path class="st4" d="M8.1,14c0.9,0.1,1.8,0.2,2.7,0.3c0.5,0.1,0.9,0.1,1.4,0.2s0.9,0.2,1.3,0.4v0.1c-0.5,0.1-0.9,0.1-1.4,0
				c-0.5-0.1-0.9-0.2-1.4-0.3C9.8,14.4,8.9,14.2,8.1,14L8.1,14z"/>
		</g>
		<g>
			<path class="st4" d="M11.2,14.5c0-0.3,0.2-0.5,0.3-0.7c0.2-0.2,0.4-0.3,0.7-0.4c0.2-0.1,0.3-0.1,0.3-0.1s0,0,0-0.1s0-0.1,0.1-0.1
				c0.1-0.1,0.2-0.1,0.3-0.2c0.2,0,0.4,0.1,0.5,0.1c0.1,0.1,0.2,0.2,0.3,0.2v0.1c-0.1,0.1-0.3,0.1-0.4,0.1c-0.1,0-0.2,0-0.3,0.1l0,0
				l-0.1,0.1c0,0-0.1,0.1-0.1,0.1c-0.3,0.1-0.4,0.1-0.5,0.1c-0.2,0-0.4,0.1-0.6,0.2C11.5,14.1,11.4,14.3,11.2,14.5L11.2,14.5z"/>
		</g>
		<g>
			<path class="st4" d="M12.3,14.6c0.1-0.3,0.2-0.5,0.4-0.6c0.1-0.1,0.2-0.2,0.4-0.2c0.2,0,0.3,0.1,0.4,0.2v0.1
				c-0.1,0.1-0.2,0.2-0.3,0.3c-0.1,0.1-0.2,0-0.3,0.1C12.7,14.4,12.6,14.5,12.3,14.6L12.3,14.6z"/>
		</g>
		<g>
			<path class="st4" d="M13.5,14.9c-0.1-0.5-0.1-1.1,0.1-1.6c0.1-0.5,0.3-1.1,0.5-1.6c0.2-0.5,0.4-1.1,0.8-1.5
				c0.5-0.4,1.1-0.5,1.6-0.6v0.1c-0.5,0.3-0.9,0.5-1.3,0.9c-0.3,0.4-0.6,0.8-0.8,1.3c-0.3,0.5-0.5,0.9-0.6,1.5
				C13.7,13.8,13.6,14.3,13.5,14.9L13.5,14.9z"/>
		</g>
		<g>
			<path class="st4" d="M16.5,9.6c0.4-0.1,0.8-0.2,1.3-0.1c0.2,0.1,0.4,0.1,0.6,0.2c0.1,0.1,0.2,0.1,0.3,0.2
				c0.1,0.1,0.2,0.2,0.3,0.3l0.1,0.2h-0.2c-0.4-0.1-0.7-0.1-1.1-0.1c-0.3,0.1-0.6,0.2-0.8,0.4l0,0l-0.1,0.1c-0.4,0.4-0.7,0.7-1,1.2
				c-0.3,0.4-0.5,0.9-0.7,1.5h-0.1c-0.1-0.6,0.1-1.2,0.3-1.7c0.3-0.5,0.6-1,1.2-1.3l-0.1,0.1c0.3-0.3,0.7-0.5,1.2-0.5
				c0.4-0.1,0.8,0.1,1.2,0.2l-0.2,0.2c0-0.1-0.2-0.3-0.4-0.4c-0.2-0.2-0.4-0.3-0.6-0.3C17.3,9.7,16.9,9.7,16.5,9.6L16.5,9.6z"/>
		</g>
		<g>
			<path class="st4" d="M14.8,14.4c0.3-0.1,0.6-0.2,0.9-0.1c0.2,0.1,0.3,0.2,0.4,0.4c0.1,0.2,0,0.4-0.2,0.5h-0.1
				c-0.1-0.2-0.2-0.2-0.3-0.3c-0.1-0.1-0.1-0.2-0.2-0.2C15.3,14.6,15,14.5,14.8,14.4L14.8,14.4z"/>
		</g>
		<g>
			<path class="st4" d="M18.7,10.2c0.7,0.2,1.5,0.2,2.3,0.2c0.4,0,0.8-0.1,1.2,0c0.4,0.1,0.8,0.2,1.1,0.4v0.1
				c-0.4,0.1-0.8,0.1-1.2,0.1s-0.7-0.1-1.2-0.1C20.1,10.7,19.3,10.5,18.7,10.2L18.7,10.2z"/>
		</g>
		<g>
			<path class="st4" d="M15.1,14.4c0,0.2,0.1,0.3,0.1,0.4l-0.1-0.1h0.2c0.1,0,0.2,0,0.2,0c0.1,0,0.2,0.1,0.2,0.1
				c0.1,0.1,0.1,0.1,0.2,0.2v0.1c-0.1,0.1-0.2,0.1-0.3,0.2c-0.1,0-0.2,0.1-0.2,0c-0.1,0-0.1-0.1-0.2-0.1L15,15L14.9,15v-0.1
				C14.9,14.7,14.9,14.5,15.1,14.4L15.1,14.4z"/>
		</g>
		<g>
			<path class="st4" d="M14.8,15c0-0.1-0.1-0.2-0.1-0.2c0-0.1-0.1-0.1,0-0.1c0.1,0,0.1,0.1,0.2,0.1l0.1,0.1c0.1,0.1,0.1,0.2,0.1,0.2
				c0,0.1-0.1,0-0.1,0C15,15.1,14.9,15.1,14.8,15L14.8,15z"/>
		</g>
		<g>
			<path class="st5" d="M14.8,15.1"/>
		</g>
		<g>
			<path class="st4" d="M15.9,15.2C15.9,15.2,15.8,15.2,15.9,15.2l-0.1,0.1h-0.2l-0.3-0.1l-0.6-0.1h-0.1v-0.1
				c-0.1-0.5-0.2-0.9-0.1-1.4l0,0l0,0c0.1-0.5,0.3-0.9,0.5-1.4c0.2-0.4,0.4-0.9,0.6-1.3c0.3-0.4,0.6-0.8,1.1-1.1
				c0.4-0.3,1-0.4,1.5-0.2v0.1c-0.5,0.1-0.9,0.3-1.2,0.5c-0.3,0.3-0.6,0.6-0.8,0.9c-0.5,0.7-1,1.6-1.3,2.4l0,0
				c-0.1,0.4-0.1,0.9-0.1,1.3l-0.1-0.1l0.5,0.1l0.3,0.1l0.2,0.1C15.8,15.2,15.8,15.2,15.9,15.2L15.9,15.2z"/>
		</g>
		<g>
			<path class="st4" d="M21.1,16.2c-1.3-0.2-2.6-0.3-3.9-0.4h-0.2v-0.2c0-0.3-0.1-0.5-0.3-0.7c-0.2-0.2-0.3-0.4-0.6-0.5
				c-0.1-0.1-0.3-0.2-0.4-0.4c-0.1-0.1-0.1-0.1-0.1-0.1s-0.1-0.1-0.1-0.1c-0.3-0.1-0.6-0.2-0.8-0.3v-0.1c0.3,0,0.6-0.1,0.9,0
				c0.1,0,0.2,0,0.3,0.1c0.1,0,0.1,0.1,0.2,0.2s0.2,0.1,0.3,0.2c0.3,0.1,0.6,0.4,0.7,0.6c0.2,0.3,0.3,0.6,0.3,0.9l-0.2-0.2
				C18.6,15.5,19.9,15.7,21.1,16.2L21.1,16.2z"/>
		</g>
		<g>
			<path class="st4" d="M16.3,14.1c0.5,0.1,0.9,0.4,1.2,0.7c0.1,0.1,0.2,0.2,0.2,0.3c0.1,0.1,0.1,0.1,0.2,0.1l0.7,0.1l0.7,0.1
				c0.2,0.1,0.4,0.1,0.6,0.1c0.2,0.1,0.4,0.1,0.6,0.1c0.2,0.1,0.5,0.2,0.6,0.3V16c-0.4-0.1-0.8,0.1-1.3,0.1c-0.2,0-0.5-0.1-0.7-0.1
				l-0.7-0.3l-0.6-0.2c-0.1,0-0.2-0.1-0.2-0.1c-0.1-0.1-0.2-0.1-0.2-0.2c-0.1-0.1-0.1-0.2-0.2-0.3C17,14.6,16.7,14.3,16.3,14.1
				L16.3,14.1z"/>
		</g>
		<g>
			<path class="st4" d="M25.8,10.7c-0.3,0-0.6,0.2-0.9,0.4s-0.4,0.5-0.6,0.8c-0.3,0.6-0.6,1.2-0.8,1.8c-0.2,0.6-0.2,1.3-0.3,2
				l-0.1,1c-0.1,0.3-0.1,0.7,0,0.9l0.1,0.4L22.9,18c-0.5-0.2-1.1-0.2-1.7-0.3h-0.2v-0.2c0-0.7,0-1.3,0.1-1.9l0.1-0.5
				c0.1-0.2,0.1-0.3,0.1-0.5c0.1-0.3,0.2-0.6,0.3-0.9c0.2-0.6,0.5-1.2,0.8-1.8c0.4-0.6,0.8-1.1,1.5-1.4h0.1l0,0
				C24.6,10.4,25.2,10.7,25.8,10.7L25.8,10.7c-0.7,0.1-1.4-0.2-1.9-0.1h0.1C23.3,11,23,11.5,22.7,12c-0.3,0.6-0.5,1.2-0.7,1.7
				c-0.1,0.3-0.2,0.6-0.3,0.9c-0.1,0.2-0.1,0.3-0.1,0.4l-0.1,0.5c-0.1,0.6-0.1,1.3-0.1,1.9l-0.2-0.2c0.6,0.1,1.3,0.1,1.8,0.4
				l-0.3,0.2c-0.1-0.4,0-0.7,0.1-1.1l0.2-1c0.1-0.7,0.2-1.4,0.4-2c0.3-0.7,0.6-1.2,0.9-1.8c0.2-0.3,0.4-0.6,0.6-0.8
				C25.1,10.9,25.4,10.7,25.8,10.7L25.8,10.7z"/>
		</g>
		<g>
			<path class="st4" d="M25.7,10.7c0.4,0,0.7,0.2,0.9,0.5c0.2,0.3,0.3,0.7,0.4,1c0.1,0.3,0.2,0.7,0.2,1.1c0,0.4-0.1,0.7-0.3,1.1
				h-0.1c-0.1-0.4-0.1-0.7-0.2-1c-0.1-0.3,0-0.7-0.1-1c-0.1-0.3-0.1-0.7-0.2-0.9C26.3,11.1,26,10.9,25.7,10.7L25.7,10.7z"/>
		</g>
		<g>
			<path class="st4" d="M22.8,17.9c0.6-0.7,1.2-1.3,1.8-1.9c0.3-0.3,0.6-0.7,0.9-0.9c0.4-0.3,0.7-0.5,1.2-0.6l0.1,0.1
				c-0.3,0.4-0.6,0.7-0.9,1c-0.3,0.3-0.7,0.5-1,0.8C24.3,16.8,23.6,17.4,22.8,17.9L22.8,17.9z"/>
		</g>
		<g>
			<path class="st4" d="M24.7,15l-0.3,0.1h-0.1L24.2,15c-0.1-0.3-0.1-0.7,0.1-1c0.1-0.2,0.1-0.4,0.3-0.5c0.3-0.1,0.4,0,0.6,0.1v0.1
				c-0.2,0.1-0.3,0.2-0.3,0.3s-0.1,0.2-0.2,0.3c-0.2,0.2-0.3,0.5-0.3,0.7l-0.1-0.1L24.7,15L24.7,15z"/>
		</g>
		<g>
			<path class="st4" d="M25.3,12.6c0.1,0,0.2,0.1,0.3,0.1c0.1,0.1,0.2,0.2,0.2,0.3c0.1,0.2,0.2,0.4,0.2,0.6L26,13.6l0.3,0.1l0.2,0.1
				l-0.2,0.1c-0.3,0.2-0.5,0.4-0.6,0.6l-0.2,0.2v-0.3c0-0.2-0.1-0.4-0.2-0.4c-0.1-0.1-0.1,0-0.1,0c-0.1,0.1-0.1,0.1-0.1,0.2
				c-0.2,0.3-0.2,0.7-0.1,1l0.1,0.2l-0.2,0.1c-0.3,0.1-0.5,0.5-0.9,0.8l-0.2,0.2L23.7,16c-0.1-0.3-0.1-0.6-0.1-0.8
				c0.1-0.3,0.1-0.5,0.2-0.7c0.1-0.4,0.3-0.8,0.6-1.2c0.2-0.2,0.3-0.4,0.5-0.5c0.2-0.2,0.5-0.4,0.8-0.3c0.2,0.1,0.3,0.2,0.4,0.3
				c0.1,0.1,0.2,0.2,0.2,0.3c0.1,0.3,0.1,0.5,0.1,0.7h-0.1c-0.1-0.2-0.2-0.4-0.3-0.6c-0.1-0.2-0.3-0.4-0.4-0.4
				c-0.3,0-0.6,0.4-0.8,0.8c-0.3,0.4-0.4,0.7-0.6,1.2c-0.2,0.4-0.3,0.9-0.2,1.2l-0.3-0.1c0.2-0.1,0.3-0.3,0.4-0.4
				c0.2-0.2,0.3-0.3,0.6-0.4l-0.1,0.3c-0.1-0.4,0-0.9,0.2-1.2c0.1-0.1,0.1-0.2,0.2-0.3c0.2-0.1,0.4-0.1,0.5,0
				c0.2,0.2,0.2,0.4,0.2,0.6l-0.2-0.1c0.2-0.2,0.5-0.4,0.7-0.6v0.2l-0.3-0.1h-0.1v-0.1c0-0.2-0.1-0.4-0.2-0.6
				c-0.1-0.1-0.1-0.2-0.2-0.3C25.6,12.7,25.4,12.7,25.3,12.6L25.3,12.6z"/>
		</g>
		<g>
			<path class="st4" d="M26,13.6c-0.1,0.1-0.1,0.3-0.1,0.3c0,0.1,0,0.1-0.1,0.1s-0.2,0-0.3-0.1L25.5,14c-0.1-0.2-0.1-0.2-0.1-0.3
				c0-0.1,0.1-0.1,0.2-0.1C25.7,13.6,25.8,13.6,26,13.6L26,13.6z"/>
		</g>
		<g>
			<path class="st4" d="M24.3,15.1c-0.1,0.2-0.1,0.3-0.2,0.4c-0.1,0.1-0.1,0.2-0.1,0.2c-0.1,0-0.2,0.1-0.3-0.1l-0.1-0.1
				c-0.1-0.2-0.1-0.3,0-0.3c0-0.1,0.1-0.1,0.2-0.1C24,15.1,24.1,15.1,24.3,15.1L24.3,15.1z"/>
		</g>
		<g>
			<path class="st4" d="M14.3,15.1c-0.1-0.2-0.1-0.4-0.1-0.7c0-0.1,0-0.1,0-0.1s-0.1-0.1-0.1-0.1c-0.1-0.1-0.2-0.1-0.3-0.2l0.2-0.1
				c-0.1,0.1-0.2,0.3-0.2,0.4v-0.1l0.1,0.6l-0.2,0.3c0.1,0,0.1-0.1,0.1-0.1v0.1c0,0,0-0.1-0.1-0.1c0,0,0,0-0.1,0l-0.1-0.1
				c-0.1,0-0.1,0-0.1,0h0.1c0.1,0,0.2,0,0.2,0l-0.2,0.4c-0.1-0.1-0.2-0.3-0.1-0.4c0.1-0.2,0.2-0.2,0.3-0.2L13.9,15
				c0.1-0.2,0.1-0.4,0.2-0.5h0.1C14.3,14.7,14.3,14.9,14.3,15.1l-0.2,0.2h0.1c0-0.1,0-0.1,0-0.1l-0.2,0.5c-0.1,0-0.2,0-0.2,0h-0.1
				c0,0-0.1,0-0.2-0.1l-0.1-0.1c0,0,0-0.1-0.1-0.1c0-0.1-0.1-0.1-0.1-0.1c-0.1-0.1-0.1-0.2-0.1-0.3c0-0.2,0.1-0.3,0.3-0.4l-0.2,0.3
				v-0.6v-0.1v-0.1c0.1-0.2,0.2-0.3,0.3-0.5l0.1-0.1l0.2,0.2c0.1,0.1,0.2,0.2,0.3,0.3c0.1,0.1,0.1,0.1,0.1,0.2c0.1,0.1,0,0.2,0,0.2
				C14.3,14.6,14.3,14.9,14.3,15.1L14.3,15.1z"/>
		</g>
		<g>
			<path class="st4" d="M13.6,15.1c-0.2,0.1-0.4,0.2-0.4,0.4c-0.1,0.2,0,0.4,0.1,0.6c0.1,0.2,0.2,0.4,0.3,0.5
				c0.2,0.1,0.4,0.2,0.6,0.2c0.4,0,0.6-0.3,0.6-0.6c0-0.2-0.1-0.4-0.2-0.5c-0.1-0.2-0.2-0.4-0.4-0.4v-0.1c0.3-0.1,0.5,0.1,0.7,0.3
				c0.2,0.2,0.3,0.4,0.4,0.7c0.1,0.3-0.1,0.6-0.3,0.8c-0.3,0.2-0.6,0.3-0.8,0.2c-0.3-0.1-0.5-0.1-0.7-0.3c-0.2-0.2-0.3-0.4-0.4-0.7
				c-0.1-0.3-0.1-0.5,0.1-0.7C13.1,15.2,13.4,15,13.6,15.1L13.6,15.1z"/>
		</g>
		<g>
			<path class="st4" d="M13.6,15.3c-0.2,0.1-0.2,0.2-0.2,0.4c0,0.2,0.1,0.3,0.1,0.4s0.2,0.3,0.2,0.3c0.1,0.1,0.3,0.1,0.4,0.1
				c0.1,0,0.2-0.1,0.2-0.1c0.1-0.1,0.1-0.2,0.1-0.3c0.1-0.2-0.1-0.5-0.3-0.7v-0.1c0.4-0.1,0.8,0.3,0.8,0.8c0,0.2-0.1,0.4-0.2,0.6
				c-0.1,0.1-0.2,0.2-0.3,0.2c-0.2,0.1-0.3,0-0.4,0c-0.2-0.1-0.4-0.1-0.5-0.3c-0.2-0.2-0.2-0.4-0.3-0.5c-0.1-0.2-0.1-0.4,0-0.5
				C13.3,15.5,13.4,15.3,13.6,15.3L13.6,15.3z"/>
		</g>
		<g>
			<path class="st4" d="M13.8,15.4c0,0.1,0.1,0.1,0.1,0.2c0,0.1-0.1,0.1-0.1,0.1v0.1c0.1,0.1,0.1,0.2,0.2,0.1h0.1H14v-0.1l0,0
				c0,0,0,0,0.1,0v-0.1v-0.1c0-0.1,0-0.1,0-0.1c0-0.1,0.1-0.1,0.1-0.2l0.1,0.1c0,0.1,0.1,0.1,0.1,0.1h0.1l0.1,0.1
				c0.1,0.1,0.1,0.1,0.1,0.1c0.1,0.1,0.1,0.2,0,0.2c-0.1,0.2-0.1,0.2-0.2,0.3c-0.1,0.1-0.2,0.1-0.3,0.1s-0.1-0.1-0.2-0.1
				c-0.2-0.1-0.3-0.3-0.3-0.5c0-0.1,0-0.1,0.1-0.2c0.1-0.1,0.1-0.1,0.1-0.1C13.8,15.6,13.7,15.5,13.8,15.4L13.8,15.4z"/>
		</g>
		<g>
			<path class="st4" d="M21,17.5l-6.4-1.2c-2.1-0.4-4.3-0.8-6.4-1.2H8.1l-0.1-0.1c-0.4-0.5-0.3-1.1-0.2-1.6C8,13,8.1,12.5,8.2,12
				c0.2-0.5,0.4-0.9,0.6-1.4c0.3-0.4,0.6-0.8,1.1-1.1l0,0l0,0c0.3-0.2,0.7-0.3,1-0.4S11.6,9,12,9.1v0.1c-0.3-0.1-0.7,0.1-1,0.2
				c-0.3,0.1-0.6,0.3-0.9,0.5l0,0c-0.7,0.6-1.1,1.4-1.3,2.4c-0.2,0.4-0.3,0.9-0.4,1.4c-0.1,0.5-0.1,0.9,0.1,1.2l-0.2-0.1
				c2.1,0.5,4.2,0.9,6.4,1.4L21,17.5L21,17.5z"/>
		</g>
		<g>
			<path class="st4" d="M7,14l-0.1,0.2c0,0.1,0,0,0,0.1v0.1l0.1,0.3l-0.1-0.1c0.2,0,0.3,0.1,0.5,0.1l0.3,0.1c0.1,0,0.1,0,0.1,0
				c0,0-0.1,0-0.1,0.1c0,0,0,0,0-0.1c0.1-0.1,0.2-0.1,0.2-0.1c0.1,0,0,0,0,0H7.7c-0.1,0,0,0.1-0.1,0c0-0.1-0.1-0.1-0.1-0.1
				c-0.1-0.1,0-0.1,0-0.1l0.3-0.1c0.1-0.1,0-0.1,0,0c0,0.1-0.1,0.1-0.1,0.2c-0.1,0.1-0.1,0.1-0.2,0.1s-0.1,0-0.1,0H7.4l-0.1-0.1
				c-0.1-0.1-0.2-0.1-0.4-0.2v-0.1C7,14,7.1,14,7.2,14h0.1h0.1c0,0,0.1,0,0,0S7.4,14,7.3,14c0,0.1,0,0.1,0,0.1c0,0,0-0.1,0.1-0.2
				l0.1-0.1h0.2c0.2-0.1,0.4,0.1,0.4,0.2c0.1,0.1,0.1,0.2,0.2,0.3c0.1,0.1,0.1,0.3-0.1,0.5C8,14.7,8,14.7,8,14.7
				c-0.1,0.1-0.1,0.1-0.1,0.1l0.1-0.1c0,0,0,0-0.1,0.1c-0.1,0.1-0.2,0.2-0.3,0.1c-0.1,0-0.1-0.1-0.2-0.1H7.2
				c-0.2-0.1-0.3-0.1-0.5-0.2l-0.1-0.1v-0.1v-0.3v-0.1c0-0.1,0.1-0.1,0.1-0.1L7,14L7,14z"/>
		</g>
		<g>
			<path class="st4" d="M21.4,16.9l0.3-0.3l0.2-0.1c0.1-0.1,0.2-0.1,0.3,0c0.2,0.1,0.2,0.2,0.3,0.2c0.1,0.1,0.2,0.1,0.3,0.1
				c0.1,0,0.2,0,0.2-0.1c0.1-0.1,0.1-0.2,0.3-0.4c0.1-0.1,0.3,0,0.3,0c0.1,0,0.1,0.1,0.1,0.1c0,0,0.1,0.1,0.2,0.2
				c0,0.1,0,0.1-0.1,0.2l0,0v0.1c0,0.1,0,0.1,0,0.1l0.2,0.4l-0.4-0.1c0,0-0.1,0.2-0.3,0.3c-0.1,0.1-0.3,0.2-0.5,0.2
				c-0.2-0.1-0.2-0.1-0.3-0.1c-0.2-0.1-0.4-0.1-0.6-0.2c-0.3-0.1-0.4-0.3-0.5-0.5l0.1-0.1c0.2,0.1,0.4,0.2,0.5,0.2
				c0.2,0,0.4-0.1,0.6,0c0.1,0,0.3,0.1,0.3,0.1c0.1,0,0,0,0.1-0.1c0.1-0.1,0.1-0.1,0.2-0.2c0.1-0.1,0.3-0.2,0.5-0.2l-0.2,0.3
				c0-0.1,0-0.2,0-0.3c0-0.1,0.1-0.1,0.1-0.1l0.1-0.1v0.1c0,0.1,0.1,0.1,0.1,0.1l-0.1-0.1c-0.1,0-0.1,0-0.1,0s-0.1,0.1-0.2,0.2
				c-0.1,0.1-0.2,0.1-0.3,0.2c-0.1,0-0.2,0-0.3,0c-0.1-0.1-0.3-0.1-0.4-0.1c-0.2-0.1-0.3-0.2-0.3-0.3c-0.1,0-0.1-0.1-0.1,0l-0.2,0
				L21.4,16.9L21.4,16.9z"/>
		</g>
		<g>
			<path class="st4" d="M26.6,14.3L26.6,14.3l-0.1,0.1v-0.1c0-0.1,0-0.3,0.1-0.4c0-0.1,0.1-0.3,0.1-0.4l0.2-0.1c-0.1,0-0.1,0-0.1,0
				l0.1-0.1c0-0.1,0.1-0.1,0.1-0.1s0.2-0.1,0.3-0.1l0,0l0.1,0.1v0.3c0,0.1,0,0.2,0,0.3V14c0,0.1,0,0.1,0,0.2c0,0.1-0.1,0.2-0.2,0.2
				c-0.1,0.1-0.1,0.1-0.2,0.1s0.1,0,0-0.2l-0.2,0.2c0-0.1,0-0.1-0.1-0.1C26.7,14.3,26.6,14.3,26.6,14.3z M26.6,14.2
				c0.1-0.1,0.1-0.1,0.2-0.1s0.2,0,0.2,0.1l-0.2,0.2c-0.1-0.2,0.2-0.3,0.2-0.3c0,0,0-0.1-0.1,0c-0.1,0-0.1,0.1-0.1,0.1
				c0,0.1,0-0.1-0.1-0.1c0-0.1,0-0.1,0-0.1c0-0.2,0-0.4,0.2-0.6l0.1,0.3l0,0H27c0,0,0,0-0.1,0c0,0-0.1,0.1-0.2,0.1
				c-0.1,0.1-0.2,0.1-0.3,0l0.2-0.1c-0.1,0.1-0.1,0.2-0.2,0.3c-0.1,0.1-0.2,0.2-0.2,0.3h-0.1L26.6,14.2z"/>
		</g>
		<g>
			<path class="st4" d="M9,21.1C9,20.6,9,20.1,8.9,19.6c-0.1-0.5-0.2-1-0.3-1.5l-0.3-1.5l-0.3-1.5l0.2,0.1L7.1,15l0.3-0.3l0.3,1.5
				c0.1,0.5,0.2,1,0.2,1.5c0.1,0.5,0.2,1,0.2,1.5l0.1,1.5l-0.1-0.1c0.4,0.1,0.7,0.3,1.1,0.4l-0.1,0.1L9,21.1z M9.1,21.1v0.1v0.1
				L9,21.2C8.7,21.1,8.4,21,8,20.9H7.9v-0.1l-0.3-1.5c-0.1-0.5-0.2-1-0.3-1.5c-0.1-0.5-0.2-1-0.2-1.5l-0.2-1.5l-0.1-0.3l0.3,0.1
				l1.2,0.2h0.1l0.1,0.1c0.1,0.2,0.1,0.2,0.1,0.3v0.2l0.1,0.4l0.1,0.8L8.8,18C9,19,9,20.1,9.1,21.1z"/>
		</g>
		<g>
			<path class="st4" d="M8.5,16.1c1.1,0.1,2.1,0.3,3.2,0.4l3.2,0.6c0.5,0.1,1.1,0.2,1.6,0.3c0.5,0.1,1,0.1,1.6,0.2
				c1.1,0.2,2.1,0.5,3.1,0.9v0.1c-1.1-0.2-2.1-0.4-3.2-0.5c-0.5-0.1-1.1-0.1-1.6-0.2c-0.5-0.1-1.1-0.3-1.6-0.4l-3.1-0.8
				C10.6,16.5,9.5,16.3,8.5,16.1L8.5,16.1z"/>
		</g>
		<g>
			<path class="st4" d="M21.1,17.5l0.2,3.6c0.1,1.2,0.1,2.4-0.1,3.6l-0.1-0.2c0.6,0.2,1.2,0.4,1.7,0.5l-0.3,0.2l-0.1-1.9
				c0-0.6,0.1-1.3,0.1-1.9s0.1-1.2,0.1-1.8c0-0.6,0-1.3,0.1-1.9l0.1,0.2C22.3,17.8,21.7,17.6,21.1,17.5L21.1,17.5
				c0.6,0,1.2,0.1,1.8,0.1H23v0.2c0.1,0.6,0.1,1.3,0.1,1.9c0.1,0.6,0.1,1.3,0,1.9S23,22.8,23,23.4v1.9v0.3l-0.3-0.1
				c-0.6-0.2-1.2-0.4-1.8-0.6l-0.1-0.1v-0.1c0.2-1.2,0.2-2.4,0.2-3.6L21.1,17.5L21.1,17.5z"/>
		</g>
		<g>
			<path class="st4" d="M9,19.7c0.2,0.3,0.4,0.5,0.6,0.7s0.5,0.4,0.7,0.5c0.3,0.2,0.6,0.2,0.8,0.4c0.3,0.2,0.5,0.4,0.7,0.6V22
				c-0.4,0-0.6-0.1-0.9-0.2c-0.3-0.1-0.5-0.3-0.8-0.5C9.6,20.9,9.2,20.3,9,19.7L9,19.7z"/>
		</g>
		<g>
			<path class="st4" d="M9.1,21.2l0.7,0.1c0.3,0.1,0.5,0.1,0.7,0.2s0.5,0.1,0.7,0.2c0.2,0.1,0.4,0.3,0.6,0.5v0.1
				c-0.3,0.1-0.5,0.1-0.8,0c-0.3-0.1-0.5-0.2-0.7-0.3L9.1,21.2L9.1,21.2z"/>
		</g>
		<g>
			<path class="st4" d="M8.7,16.2c0.2,0.5,0.4,1.1,0.4,1.7l0.1,0.8l0.1,0.4c0.1,0.2,0.1,0.3,0.1,0.4c0.1,0.1,0.3,0.4,0.5,0.6
				s0.4,0.4,0.6,0.6c0.3,0.4,0.8,0.6,1.3,1v0.1c-0.6-0.1-1.2-0.2-1.7-0.6C10,21,9.9,20.9,9.8,20.7l-0.3-0.3l-0.3-0.3
				C9.2,20,9,19.9,9,19.7c-0.1-0.2,0-0.3-0.1-0.5v-0.4L8.9,18C8.8,17.3,8.8,16.7,8.7,16.2L8.7,16.2z"/>
		</g>
		<g>
			<path class="st4" d="M12.4,16.8c0.1,0.5,0.3,0.9,0.3,1.4c0.1,0.5,0.1,0.9,0.1,1.4c0.1,0.5,0.2,0.9,0.2,1.4s0,0.9-0.1,1.4h-0.1
				c-0.2-0.5-0.3-0.9-0.4-1.4c-0.1-0.5-0.1-0.9-0.1-1.4s0.1-0.9,0.1-1.4C12.5,17.7,12.4,17.3,12.4,16.8L12.4,16.8z"/>
		</g>
		<g>
			<path class="st4" d="M12.7,17c0.2,0.9,0.3,1.7,0.4,2.6c0.1,0.4,0.2,0.8,0.2,1.3c0,0.4,0,0.9-0.1,1.3h-0.1
				c-0.2-0.4-0.3-0.8-0.4-1.3c-0.1-0.4-0.1-0.9-0.1-1.3C12.7,18.7,12.7,17.9,12.7,17L12.7,17z"/>
		</g>
		<g>
			<path class="st4" d="M12.9,22.4c-0.3-0.1-0.7-0.2-1-0.3h-0.1v-0.1c-0.2-0.5-0.2-0.9-0.2-1.4c-0.1-0.5-0.1-0.9-0.2-1.4
				c-0.1-0.4-0.1-0.9-0.2-1.4c0-0.5,0-0.9,0.1-1.4h0.1c0.2,0.4,0.3,0.9,0.4,1.3c0.1,0.5,0.2,0.9,0.2,1.4v1.4c0,0.5-0.1,0.9,0.1,1.3
				h-0.1C12.2,22.1,12.6,22.2,12.9,22.4L12.9,22.4z"/>
		</g>
		<g>
			<path class="st4" d="M12.9,22.3c0.2,0,0.4-0.1,0.6,0c0.1,0,0.2-0.1,0.3,0.1c0.1,0.1,0.2,0.2,0.2,0.3v0.1
				c-0.2,0.1-0.3,0.2-0.3,0.2c-0.1,0-0.2-0.1-0.3-0.1C13.2,22.6,13,22.5,12.9,22.3L12.9,22.3z"/>
		</g>
		<g>
			<path class="st4" d="M16.5,23.5l-0.5-0.2c-0.2-0.1-0.4-0.1-0.5-0.1l0,0l0,0L14,22.8l-0.1-0.2c0,0,0,0,0,0.1c0,0,0,0,0-0.1v-0.1
				v-0.2L13.8,22l-0.1-0.7l-0.2-1.4c-0.1-0.5-0.1-0.9-0.1-1.4c0-0.5,0-0.9,0.1-1.4h0.1c0.2,0.5,0.2,0.9,0.3,1.4
				c0.1,0.5,0.2,0.9,0.2,1.4l0.1,1.4L14,22v0.4v0.2v0.1v0.1c0,0.1,0,0.1-0.1,0.1l0.1-0.2l1.3,0.5l0,0c0.2,0,0.4,0.1,0.5,0.2
				L16.5,23.5L16.5,23.5z"/>
		</g>
		<g>
			<path class="st4" d="M16.2,17.7c0.1,0.9,0.3,1.9,0.3,2.9c0.1,0.5,0.2,0.9,0.1,1.5c0,0.5-0.1,1-0.2,1.5h-0.1
				c-0.2-0.5-0.3-0.9-0.3-1.4c-0.1-0.5,0-0.9,0-1.5C16.1,19.6,16.1,18.6,16.2,17.7L16.2,17.7z"/>
		</g>
		<g>
			<path class="st4" d="M17.5,17.9l0.2,1.8c0.1,0.6,0.2,1.2,0.2,1.8c0.1,0.6,0.1,1.2,0.1,1.8v0.4v0.1v0.1v0.1c0,0.1-0.1,0.1-0.1,0.2
				s-0.1,0-0.1,0h-0.1h-0.1c-0.1-0.1-0.2-0.1-0.2-0.1l-0.8-0.4v-0.1c0.3,0,0.6,0.1,0.9,0.1l0.2,0.1l0,0l0,0c0,0-0.1,0-0.1,0
				c-0.1,0.1-0.1,0.1-0.1,0.2s0,0.1,0,0.1l0,0v-0.1v-0.1l-0.1-0.4c-0.1-0.6,0-1.2,0.1-1.8c0.1-0.6-0.1-1.2-0.1-1.8L17.5,17.9
				L17.5,17.9z"/>
		</g>
		<g>
			<path class="st4" d="M26.9,14.4c-0.1,2-0.2,4-0.3,6l-0.1-0.1c0.2,0.1,0.4,0.1,0.5,0.1h0.3l-0.2,0.2c-0.2,0.2-0.3,0.4-0.5,0.6
				c-0.1,0.1-0.2,0.2-0.2,0.3l-0.1,0.1v0.1c0,0,0,0-0.1,0.1c-0.1,0.1-0.2,0.1-0.2,0h-0.1L26,21.6l0.2-0.1l-2.1,2.7V24
				c0.1,0,0.1,0,0.1,0l0.5-0.1l-0.3,0.4L23.8,25c-0.2,0.2-0.4,0.4-0.5,0.7l-0.1,0.2l-0.2,0l-1.2-0.3l-0.6-0.2
				c-0.2-0.1-0.4-0.1-0.6-0.1h-0.4l0.2-0.4l0.1-0.2l0.1,0.3l-3.3-0.8c-1.1-0.3-2.3-0.7-3.4-1c-1.1-0.4-2.2-0.7-3.4-1.1
				c-0.3-0.1-0.6-0.2-0.8-0.3l-0.4-0.1c-0.1,0-0.2-0.1-0.2-0.1s0,0-0.1,0c0,0-0.1,0.1-0.2,0.1c-0.2,0-0.2-0.1-0.3-0.1l-0.2-0.1
				l-0.4-0.2l-0.8-0.3v-0.1l0.8,0.2l0.4,0.1l0.3,0.1c0.1,0,0.2,0.1,0.2,0.1s0,0,0.1-0.1c0-0.1,0.1-0.1,0.2-0.1c0.1,0,0.2,0,0.3,0.1
				l0.4,0.1c0.3,0.1,0.6,0.2,0.8,0.2c1.2,0.3,2.3,0.6,3.4,0.9c1.1,0.3,2.3,0.6,3.4,1l3.4,1.1l0.3,0.1L20.9,25l-0.1,0.2l-0.2-0.3
				c0.3,0,0.5,0.1,0.7,0.1l0.6,0.2l1.2,0.3L23,25.5c0.2-0.3,0.4-0.5,0.6-0.7l0.5-0.7l0.2,0.3c-0.1,0-0.2,0-0.3-0.1l-0.2-0.1l0.1-0.2
				l2.2-2.6l0.1-0.1l0.1,0.1l0.1,0.1h0.1c0,0-0.1,0-0.1,0c-0.1,0.1,0,0,0,0v-0.1l0.1-0.1c0.1-0.1,0.2-0.2,0.2-0.3
				c0.2-0.2,0.3-0.4,0.5-0.6l0.1,0.2c-0.2,0-0.4-0.1-0.6-0.2l-0.1-0.1v-0.1C26.5,18.4,26.7,16.4,26.9,14.4L26.9,14.4z"/>
		</g>
		<g>
			<path class="st4" d="M15.2,17.5c0.1,0.9,0.2,1.8,0.3,2.7l0.2,1.3c0.1,0.4,0.1,0.9,0.1,1.4l-0.2-0.2c0.3,0.1,0.5,0.3,0.8,0.4v0.1
				c-0.3,0-0.6-0.1-0.9-0.1h-0.1L15.4,23c-0.1-0.4-0.2-0.9-0.2-1.3l-0.1-1.5C15.1,19.3,15.1,18.4,15.2,17.5L15.2,17.5z"/>
		</g>
		<g>
			<path class="st4" d="M15.7,22.8l-0.3,0.3l-0.1,0.1v-0.1l-0.2-1.4c-0.1-0.5-0.1-0.9-0.2-1.4c-0.1-0.5-0.1-0.9-0.1-1.4
				s0.1-0.9,0.2-1.4h0.1c0.2,0.5,0.2,0.9,0.3,1.4c0.1,0.5,0.1,0.9,0,1.4c0,0.5,0,0.9,0,1.4l0.1,1.4L15.3,23L15.7,22.8L15.7,22.8z"/>
		</g>
		<g>
			<path class="st4" d="M12.9,22.4c0.1-0.1,0.1-0.3,0.2-0.3l0,0h0.1c0.2,0,0.3,0,0.4,0c0.1,0,0.2,0.1,0.2,0.1
				c0.1,0.1,0.1,0.2,0.2,0.3v0.1c-0.1,0.1-0.2,0.1-0.3,0.2c-0.1,0-0.2,0-0.2,0c-0.1-0.1-0.3-0.2-0.4-0.2h0.1
				C13.1,22.3,13,22.4,12.9,22.4L12.9,22.4z"/>
		</g>
		<g>
			<path class="st4" d="M17.6,17.9v-0.2c0,0,0-0.1,0-0.1V17.9L17.6,17.9v0.3c0,0.1,0-0.1,0-0.1V17.9L17.6,17.9z"/>
		</g>
		<g>
			<path class="st4" d="M17.6,17.9c0.2,0,0.1,0.1,0.1,0.2v0.2l0.1,0.4l0.1,0.7l0.1,1.5c0,0.5,0.1,0.9,0.1,1.4s0,0.9-0.1,1.5h-0.1
				c-0.2-0.5-0.3-0.9-0.4-1.4c-0.1-0.5,0-1,0-1.5l0.1-1.5l0.1-0.7v-0.4V18C17.6,18,17.6,17.9,17.6,17.9L17.6,17.9z"/>
		</g>
		<g>
			<path class="st4" d="M17.9,23.6c0.5-0.2,1.1-0.3,1.6-0.4c0.3-0.1,0.5-0.2,0.8-0.2S20.7,23,21,23l0.1,0.1
				c-0.1,0.3-0.4,0.5-0.7,0.6c-0.3,0.1-0.6,0.1-0.8,0.1C19,23.6,18.4,23.7,17.9,23.6L17.9,23.6z"/>
		</g>
		<g>
			<path class="st4" d="M17.7,23.8l0.9-0.1c0.3,0,0.6-0.1,0.9-0.2c0.3-0.1,0.5-0.2,0.8-0.3c0.3-0.1,0.6-0.2,0.9-0.2l0.1,0.1
				c-0.2,0.3-0.5,0.5-0.7,0.6c-0.3,0.2-0.6,0.2-0.9,0.2c-0.3,0.1-0.6,0.1-0.9,0L17.7,23.8L17.7,23.8z"/>
		</g>
		<g>
			<path class="st4" d="M8,20.6c-0.2,0.2-0.4,0.4-0.7,0.5l0.1-0.1c0.1,0.2,0.2,0.5,0.2,0.7c0,0.1,0,0.2,0,0.2l0,0c0,0,0.1,0,0.1,0
				l0.4,0.1l0.7,0.2L9,22.4c0.1,0,0.2,0.1,0.1,0.1l0,0l0.1-0.1l0.2-0.2l0.1-0.1h0.1c0.9,0.3,1.9,0.6,2.8,0.8
				c0.9,0.3,1.9,0.4,2.8,0.7l2.7,1.1l1.4,0.5c0.5,0.2,0.9,0.3,1.4,0.5v0.1c-0.9-0.2-1.9-0.3-2.9-0.6c-0.9-0.3-1.9-0.6-2.8-1
				c-0.9-0.3-1.8-0.5-2.8-0.8c-0.8-0.3-1.8-0.6-2.7-0.9l0.1-0.1l-0.1,0.2l-0.1,0.1c-0.1,0.1-0.1,0.1-0.2,0.1c-0.2,0-0.2-0.1-0.2-0.1
				l-0.2-0.1L8,22.3l-0.4-0.1c-0.1,0-0.1,0-0.1-0.1l-0.1-0.1c0,0-0.1-0.1-0.1-0.1v-0.2c0-0.3-0.1-0.5-0.2-0.7V21h0.1
				C7.6,21,7.8,20.8,8,20.6L8,20.6z"/>
		</g>
		<g>
			<path class="st4" d="M20.7,25l0.1,1.3l-0.1-0.1l1.4,0.3l0.7,0.2l0.3,0.1h0.1l0,0c0,0,0.1,0,0,0s-0.1,0-0.2,0.1c-0.1,0.1,0,0,0,0
				l0.1-0.2c0.3-0.4,0.5-0.7,0.8-1.1l0.1-0.1c0,0,0,0,0.1-0.1v-0.1c0-0.1,0-0.2,0-0.3c0-0.2,0.1-0.5,0.1-0.7h0.1
				c0.1,0.2,0.2,0.5,0.2,0.7l0.1,0.2c0,0.1,0.1,0.1,0.1,0.2v0.2c0,0.1-0.1,0.1-0.1,0.1c-0.1,0.1-0.1,0.2-0.1,0.2
				c-0.3,0.4-0.5,0.8-0.8,1.1l-0.1,0.2c-0.1,0.1,0,0-0.1,0.1c-0.1,0.1-0.1,0.1-0.2,0.1s0,0-0.1,0l0,0H23l-0.3-0.1l-0.6-0.2l-1.3-0.5
				l-0.1-0.1v-0.1L20.7,25L20.7,25z"/>
		</g>
		<g>
			<path class="st4" d="M24.2,24.8c0.5-0.8,0.9-1.5,1.5-2.3l0.1-0.1h0.1h0.2h0.1c0.1,0,0.1,0,0,0c-0.1,0-0.1,0-0.1,0l0,0l0.1-0.1
				c0.1-0.1,0.1-0.1,0.1-0.2c0.2-0.2,0.4-0.4,0.6-0.6l-0.1,0.2c0.1-0.4,0.1-0.8,0.3-1.2h0.1c0.1,0.4,0.2,0.8,0.2,1.2V22l-0.1,0
				l-0.5,0.5l-0.1,0.2l-0.1,0.1l-0.1,0.1c-0.1,0-0.1,0.1-0.1,0.1c-0.1,0.1-0.2,0-0.2,0H26l-0.2-0.1l0.2-0.1
				C25.4,23.5,24.9,24.2,24.2,24.8L24.2,24.8z"/>
		</g>
		<g>
			<path class="st4" d="M26.3,21.6c0.1,0.2,0.2,0.4,0.2,0.5c0,0.1,0.1,0.2,0.1,0.3c-0.1,0.1-0.1,0.2-0.3,0.3h-0.1
				C26,22.6,26,22.5,26,22.4c-0.1-0.1,0.1-0.2,0.1-0.3C26.1,22,26.1,21.8,26.3,21.6L26.3,21.6z"/>
		</g>
		<g>
			<path class="st4" d="M26.1,21.6c0.1,0.2,0.1,0.4,0.1,0.6c0,0.1,0.1,0.2,0,0.3c-0.1,0.1-0.1,0.2-0.3,0.3h-0.1
				c-0.2-0.1-0.2-0.2-0.2-0.3c-0.1-0.1,0.1-0.2,0.1-0.3C25.9,22,26,21.8,26.1,21.6L26.1,21.6z"/>
		</g>
		<g>
			<path class="st4" d="M24.7,17.5l-0.9,1.1l0.1-0.1c0.1,1.2,0.2,2.3,0.1,3.5l-0.4-0.2c0.4-0.6,0.6-1.4,0.7-2.1
				C24.4,19,24.5,18.3,24.7,17.5L24.7,17.5c0.2,0.7,0.2,1.6,0.1,2.4c-0.1,0.4-0.2,0.8-0.3,1.2c-0.2,0.4-0.4,0.7-0.6,1.1l-0.5,0.8
				l0.2-0.9c0.2-1.1,0.2-2.3,0.1-3.5v-0.1h0.1L24.7,17.5L24.7,17.5z"/>
		</g>
		<g>
			<path class="st4" d="M24.3,17.9c0.1,0.5,0.2,1,0.2,1.5c0,0.3,0,0.5-0.1,0.8s-0.3,0.5-0.5,0.6l-0.1-0.1c0-0.3,0.1-0.5,0.1-0.7
				c0.1-0.2,0.2-0.4,0.2-0.7C24.1,18.9,24.2,18.4,24.3,17.9L24.3,17.9z"/>
		</g>
		<g>
			<path class="st4" d="M25.9,18.6c0.1-0.4,0.1-0.9,0-1.3c0-0.4,0-0.9,0-1.3l0.3,0.1c-0.3,0.3-0.5,0.6-0.7,0.9l0.1-0.2
				c0.1,0.5,0.1,0.9,0.2,1.4v0.7c0,0.2,0.1,0.3,0.2,0.4l-0.1,0.2C25.8,19.1,25.9,18.9,25.9,18.6z M26,18.6c0,0.3,0,0.6,0.1,0.8
				l0.1,0.1L26,19.5c-0.2,0.1-0.3,0-0.5-0.2c-0.1-0.1-0.2-0.3-0.3-0.4c-0.1-0.3-0.1-0.5-0.1-0.7c0-0.5,0-0.9,0-1.4v-0.1l0,0
				c0.3-0.3,0.6-0.6,0.9-0.9l0.3-0.3L26.3,16c-0.1,0.4-0.1,0.9-0.2,1.3C26.1,17.7,26,18.2,26,18.6z"/>
		</g>
		<g>
			<path class="st4" d="M25.8,16.3c0.1,0.5,0.1,0.9,0.2,1.4c0,0.3,0.1,0.5,0.1,0.7c-0.1,0.3-0.1,0.5-0.3,0.7h-0.1
				c-0.2-0.3-0.2-0.5-0.2-0.7c-0.1-0.3,0.1-0.5,0.1-0.7C25.6,17.2,25.7,16.7,25.8,16.3L25.8,16.3z"/>
		</g>
		<g>
			<path class="st4" d="M24.9,20.2c0.1,0.2,0.2,0.3,0.2,0.5c0,0.1,0.1,0.2,0,0.3c-0.1,0.1-0.2,0.2-0.3,0.2h-0.1
				c-0.1-0.2-0.1-0.3-0.1-0.3s0.1-0.1,0.1-0.2C24.7,20.5,24.8,20.4,24.9,20.2L24.9,20.2z"/>
		</g>
		<g>
			<path class="st4" d="M24.9,20.3c0.1,0.2,0.3,0.3,0.4,0.3h0.5l-0.4,0.4c-0.1,0.1-0.1,0.2-0.2,0.3c-0.1,0.1-0.2,0.1-0.4,0.1
				l-0.1-0.1c-0.1-0.2-0.1-0.3,0.1-0.5c0.1-0.1,0.3-0.2,0.4-0.2l0.1,0.4C25,20.7,24.9,20.5,24.9,20.3L24.9,20.3z"/>
		</g>
		<g>
			<path class="st4" d="M7.9,20.2c0,0.1,0,0.1,0,0.1h0.2h0.2c0,0,0.1,0,0,0c-0.1,0-0.1,0.1-0.1,0.1l0,0c0,0,0,0,0-0.1
				c0-0.1,0.1-0.1,0.1-0.1h0.1h0.1c0.2,0.1,0.4,0.2,0.5,0.3L9,20.7c0,0,0.1,0,0.1,0.1c0.1,0.1,0.1,0.2,0,0.2
				c-0.1,0.1-0.1,0.1-0.2,0.1l-0.2,0.2L8.3,21c0,0.1,0.1,0.2,0.1,0.2c0,0,0.1,0,0,0c0,0,0,0-0.1,0H8.2c-0.1,0-0.2-0.1-0.3-0.1
				L7.9,21c0,0-0.1-0.1-0.1-0.2c0-0.1-0.1-0.1,0-0.2v-0.1c0.1-0.1,0.1-0.2,0.1-0.3h0.1C8,20.4,8,20.5,8.1,20.6v0.1l0,0
				c0-0.1-0.1-0.1-0.1-0.1h0.1c0.1,0,0.2,0,0.2,0h0.1c0.1,0,0.1,0,0.1,0c0.1,0,0.1,0,0.2,0.1c0.1,0.1,0.2,0.2,0.2,0.3l-0.4-0.2
				l0.3-0.1c0,0,0.1-0.1,0,0.1c-0.1,0.1,0,0.2,0,0.2l0,0l-0.1-0.1c-0.1-0.2-0.2-0.3-0.4-0.4h0.1c0.1,0,0.1-0.1,0.1-0.1l0,0v0.1
				c0,0.1-0.1,0.2-0.1,0.2c-0.1,0-0.1,0-0.1,0l-0.2,0c-0.1,0-0.1,0-0.2-0.1C7.8,20.3,7.8,20.2,7.9,20.2L7.9,20.2z"/>
		</g>
		<g>
			<path class="st4" d="M23.3,24.5c-0.1,0.1-0.2,0.2-0.3,0.3C23,24.8,23,24.8,23,24.9S22.9,25,22.8,25h-0.1c-0.1,0-0.3-0.1-0.4-0.1
				c-0.1-0.1-0.3-0.1-0.3,0L22,25l-0.1-0.1c-0.1-0.1-0.3-0.2-0.4-0.3c0,0-0.1,0-0.1-0.1s-0.1-0.2-0.1-0.3c0.1-0.1,0.1-0.1,0.2-0.2
				l0.2-0.2l0.1-0.1l0.1,0.1l0.5,0.2c0.2,0.1,0.4,0.1,0.5,0.1l-0.2,0.1c0.2-0.2,0.3-0.4,0.5-0.6l0.3-0.3l0.1,0.3c0,0.2,0,0.3,0,0.5
				c0,0.1,0,0.2-0.1,0.2C23.5,24.4,23.4,24.4,23.3,24.5z M23.3,24.4c0.1-0.1,0.1-0.1,0.1-0.2c0-0.1,0-0.1-0.1-0.2
				c-0.1-0.1-0.1-0.3-0.2-0.4h0.3c-0.1,0.3-0.3,0.5-0.4,0.8L23,24.6h-0.2c-0.2,0-0.3-0.1-0.4-0.1s-0.2-0.1-0.3-0.1l-0.5-0.2l0.2-0.1
				l-0.3,0.2c-0.1,0-0.1,0.1-0.1,0.1s0-0.2,0-0.2l0,0c0.2,0.1,0.4,0.3,0.5,0.4h-0.2c0.2-0.1,0.4,0,0.5,0c0.1,0.1,0.3,0.1,0.4,0.2
				c0.1,0,0.2,0.1,0.1,0.1c0.1-0.1,0.1-0.1,0.1-0.2C23.1,24.6,23.2,24.5,23.3,24.4z"/>
		</g>
		<g>
			<path class="st4" d="M26.6,20c-0.1,0.1-0.1,0.2-0.1,0.2c-0.1,0.1-0.2,0.2-0.2,0.2l0,0c0,0,0,0,0,0.1s0,0.1,0,0.2
				c0,0.1-0.1,0.2-0.1,0.3L26,20.5c0.1,0,0.3-0.1,0.5,0l-0.3,0.1c0.1-0.1,0.1-0.1,0.1-0.2l0.1-0.1l0.1-0.1c0,0,0.1-0.1,0,0
				c0,0,0,0.1,0,0.1v-0.1c0-0.1,0.1-0.2,0.1-0.2h0.1c0.1,0.1,0.1,0.1,0.2,0.2l0.1,0.1c0,0.1,0.1,0.2,0,0.3l-0.1,0.1
				c0,0.1-0.1,0.1-0.1,0.1c-0.1,0.1-0.1,0.1-0.2,0.2l-0.4,0.4l0.1-0.3c0-0.1-0.1-0.1-0.2-0.1l-0.5-0.1l0.3-0.3
				c0.1-0.1,0.1-0.1,0.1-0.2s0.1-0.1,0.1-0.1c0,0,0-0.1,0.1-0.1c0-0.1,0.1-0.1,0.1-0.1c0.1-0.1,0.2-0.1,0.2-0.1
				C26.4,20.1,26.4,20,26.6,20L26.6,20z"/>
		</g>
		<g>
			<path class="st4" d="M25.8,16c-0.4,0.3-0.6,0.6-0.9,0.9c-0.3,0.3-0.6,0.7-1.1,0.9l-0.5,0.3l0.3-0.5c0.1-0.2,0.2-0.4,0.3-0.6V17
				l0.1-0.1c0.4-0.4,0.7-0.7,1.1-1c0.2-0.2,0.4-0.3,0.5-0.4l0.2-0.2c0.1-0.1,0.2-0.1,0.3-0.1c0.2,0,0.3,0.2,0.4,0.2l0.1,0.1
				l-0.1,0.1C26.2,15.7,26,15.9,25.8,16z M25.8,16c0.2-0.2,0.3-0.3,0.5-0.5v0.2c-0.1-0.1-0.2-0.1-0.3-0.1c0,0,0,0,0,0.1
				s-0.1,0.1-0.1,0.2c-0.2,0.2-0.3,0.4-0.5,0.6c-0.4,0.3-0.8,0.5-1.2,0.8l0.1-0.1c-0.1,0.3-0.2,0.5-0.4,0.7l-0.2-0.3
				c0.2-0.1,0.4-0.2,0.5-0.3c0.2-0.2,0.3-0.3,0.5-0.4C25.1,16.5,25.4,16.3,25.8,16z"/>
		</g>
		<g>
			<path class="st4" d="M24.9,16.9c0,0.3,0.1,0.5,0.2,0.6s0.3,0.1,0.4-0.1c0.2-0.2,0.2-0.4,0.2-0.5c0.1-0.2,0.1-0.4-0.1-0.6v-0.1
				c0.3,0,0.6,0.3,0.6,0.7c0,0.4-0.3,0.6-0.5,0.8c-0.1,0.1-0.3,0.2-0.5,0.2c-0.2,0-0.3-0.1-0.4-0.2C24.8,17.4,24.8,17.1,24.9,16.9
				L24.9,16.9z"/>
		</g>
		<g>
			<path class="st4" d="M25,16.5c0.1-0.1,0.2-0.1,0.2-0.1c0.1,0,0.2,0.2,0.2,0.2s0-0.1-0.1-0.1l0,0c0,0,0.1-0.1,0.1-0.1
				c0.1-0.1,0-0.2,0.1-0.2c0,0,0.2,0,0.1-0.2V16c0.1-0.1,0.2-0.1,0.3,0c0.1,0.1,0.2,0.2,0.2,0.3c0,0.2-0.2,0.3-0.3,0.4
				c-0.1,0.1-0.2,0.1-0.2,0.1c-0.1,0-0.1,0.1-0.2,0c-0.1,0-0.2-0.1-0.2-0.2c0-0.1,0-0.1,0-0.1C25.1,16.5,25.1,16.5,25,16.5L25,16.5z
				"/>
		</g>
		<g>
			<path class="st4" d="M25.2,16.7c-0.1,0.2-0.1,0.4,0,0.5c0.1,0.1,0.2,0.1,0.2,0.1c0.1-0.1,0.1-0.2,0.1-0.3
				c0.1-0.1,0.1-0.2,0.1-0.2c0,0,0.1,0,0.1-0.1s0-0.1-0.1-0.1v-0.1c0.1-0.1,0.1-0.1,0.2-0.1c0.1,0,0.2,0.1,0.2,0.2
				c0.1,0.2,0.1,0.2,0.1,0.4c0,0.2-0.2,0.5-0.4,0.6c-0.2,0.1-0.3,0.1-0.4-0.1c-0.2-0.1-0.2-0.2-0.2-0.4C25,17,25.1,16.8,25.2,16.7
				L25.2,16.7z"/>
		</g>
		<g>
			<path class="st4" d="M24.9,17.5C25,17.6,25,17.8,25,18c0,0.1,0,0.2,0,0.3s0,0.1,0.1,0.2c0.2,0.3,0.3,0.7,0.3,1.1l-0.4-0.1
				c0.1-0.3-0.1-0.6,0.1-0.9c0-0.1,0.1-0.2,0.1-0.3c0.1-0.1,0-0.1,0.1-0.1c0,0.1,0,0.1,0,0C25,18,25,17.8,25,17.6H25
				c0.2,0.1,0.3,0.2,0.4,0.4c0,0,0.1,0.1,0.1,0.2c0,0.1-0.1,0.2-0.1,0.2c0,0.1,0,0.1,0,0.2c0,0.3,0,0.6-0.2,1l-0.7,1.5l0.2-1.7
				c0.1-0.3,0-0.6-0.1-0.9c-0.1-0.1,0-0.2,0-0.3c0-0.1,0.1-0.2,0.1-0.3C24.8,17.8,24.9,17.6,24.9,17.5L24.9,17.5z"/>
		</g>
		<g>
			<path class="st4" d="M22.8,25.3c0.3-0.4,0.5-0.8,0.7-1.3c0.1-0.2,0.2-0.4,0.3-0.6l0.4-0.6c0.3-0.4,0.5-0.8,0.8-1.2
				c0.4-0.3,0.7-0.6,1.2-0.9l0.1,0.1c-0.2,0.5-0.5,0.8-0.8,1.2c-0.3,0.4-0.6,0.7-0.9,1.1l-0.5,0.5c-0.2,0.2-0.3,0.4-0.4,0.6
				C23.5,24.5,23.1,24.9,22.8,25.3L22.8,25.3z"/>
		</g>
		<g>
			<path class="st4" d="M25,20.7c0.1,0,0.2,0,0.2,0l0.1-0.1c-0.1,0-0.1,0.1-0.2,0.2L25,20.9C24.9,21,24.8,21,24.8,21
				c-0.1,0,0-0.1,0-0.1S24.8,20.7,25,20.7L25,20.7z"/>
		</g>
		<g>
			<path class="st4" d="M9,21.6C9,21.7,9.1,21.8,9.1,22c0.1,0.1,0.1,0.1,0.1,0.2c0,0.1-0.1,0.2-0.2,0.3H8.9
				c-0.2-0.1-0.2-0.1-0.3-0.2c-0.1-0.1,0-0.2,0-0.3C8.8,21.9,8.9,21.7,9,21.6L9,21.6z"/>
		</g>
		<g>
			<path class="st4" d="M9.3,21.5c0.1,0.2,0.2,0.3,0.2,0.4c0.1,0.1,0.1,0.1,0.1,0.2c-0.1,0.1-0.1,0.2-0.2,0.3H9.3
				c-0.2-0.1-0.2-0.1-0.3-0.2C9,22.1,9,22,9.1,22C9.1,21.8,9.2,21.6,9.3,21.5L9.3,21.5z"/>
		</g>
		<g>
			<path class="st4" d="M23.1,25.6c0.1,0.2,0.2,0.4,0.2,0.6c0,0.1,0.1,0.2,0.1,0.3c-0.1,0.1-0.1,0.2-0.2,0.3h-0.1
				c-0.2-0.1-0.2-0.2-0.3-0.3c-0.1-0.1,0.1-0.2,0.1-0.3C22.9,26.1,23,25.8,23.1,25.6C23.1,25.6,23.1,25.6,23.1,25.6z"/>
		</g>
		<g>
			<path class="st4" d="M12.3,14.6c0.1-0.1,0.3-0.3,0.4-0.4l0,0h0.1c0.1,0,0.3-0.1,0.4-0.1c0.2,0.1,0.3,0.1,0.3,0.3v0.1
				c-0.2,0.2-0.3,0.2-0.4,0.2c-0.1,0-0.2-0.1-0.3-0.1h0.1C12.7,14.6,12.5,14.6,12.3,14.6L12.3,14.6z"/>
		</g>
		<g>
			<path class="st4" d="M12.7,14.4c0.1-0.2,0.2-0.3,0.3-0.4c0.1-0.1,0.1-0.2,0.2-0.1c0.1,0,0.2,0.1,0.3,0.2v0.1
				c-0.1,0.2-0.1,0.2-0.2,0.3c-0.1,0.1-0.1,0-0.2,0C13,14.4,12.9,14.4,12.7,14.4L12.7,14.4z"/>
		</g>
	</g>
</g>
</svg>
