<?xml version="1.0" encoding="utf-8"?>
<!-- Generator: Adobe Illustrator 22.0.1, SVG Export Plug-In . SVG Version: 6.00 Build 0)  -->
<svg version="1.1" id="圖層_1" xmlns="http://www.w3.org/2000/svg" xmlns:xlink="http://www.w3.org/1999/xlink" x="0px" y="0px"
	 viewBox="0 0 285.5 287" style="enable-background:new 0 0 285.5 287;" xml:space="preserve">
<style type="text/css">
	.st0{fill:#FFD061;}
	.st1{fill:#8C6239;}
	.st2{fill:#754C24;}
	.st3{fill:none;stroke:#754C24;stroke-width:3;stroke-miterlimit:10;}
	.st4{fill:none;}
</style>
<g>
	<path class="st0" d="M34.4,15.3c6.2,15.2,23.6,64.4,23.6,64.4L6.5,122.3l10.7,78.1l-8.6,6.2l3,14l20.6,4.9l3-4.4L186.6,269v4.5
		l32.2,9.2l16.3-18.5v-5.8l21-33l4.3,1.7l12-10.3v-16.4l-7.3-0.8c0,0,3-59.6,3-79.2c20.4-22.3,16.2-64.5-2-71.1
		c-9.8-6.8-21.2-8.1-21.2-8.1L233.7,44L80.7,11.9V9.2c0,0-15.2-6.3-20.6-5.9C53,3.8,39,4.1,34.4,15.3z"/>
	<path class="st1" d="M45,22l194,37l21,60l-45,39c0,0-198-36-197-36s48-40,48-40L45,22z"/>
	<g>
		<g>
			<g>
				<path class="st2" d="M31.2,206.8c-0.3-3.4-0.5-6.8-0.8-10.2c-0.3-3.4-0.6-6.8-1.2-10.2c-0.5-3.4-1-6.8-1.6-10.1l-1.7-10.1
					c-1.2-6.7-2.3-13.5-3.4-20.3l-1.7-10.1l-0.8-5.1l-0.4-2.5l-0.2-1.3c-0.1-0.4-0.1-0.8-0.2-0.9l0.8,0.5l-15.5-2.1l1.4-1.4l3.5,20
					l1.7,10c0.6,3.3,1.1,6.7,1.7,10c1.1,6.7,2.2,13.4,2.9,20.2l2.3,20.2l-0.4-0.4c2.5,0.5,4.9,1.2,7.2,2.1c2.3,0.9,4.6,1.9,6.7,3.2
					l-0.3,0.2L31.2,206.8z M31.5,206.7l0.2,1.7l0,0.3l-0.3-0.2c-2.2-1.2-4.4-2.2-6.8-2.9c-2.3-0.8-4.7-1.3-7.2-1.6l-0.4,0l-0.1-0.4
					l-3.8-20c-1.2-6.7-2.4-13.3-3.5-20c-0.6-3.3-1.1-6.7-1.6-10l-1.6-10.1l-3.1-20.1l-0.2-1.6l1.6,0.3l15.4,2.4l0.5,0.1l0.2,0.4
					c0.4,0.7,0.3,1.2,0.4,1.6l0.2,1.3l0.4,2.5l0.7,5.1l1.5,10.2c1,6.8,2,13.5,2.9,20.3l1.4,10.2l1.2,10.2c0.5,3.4,0.6,6.8,0.9,10.2
					C30.9,199.9,31.2,203.3,31.5,206.7z"/>
			</g>
			<g>
				<path class="st2" d="M10.8,131.4c0.5,0.8,1.1,1.6,1.7,2.2c0.3,0.3,0.7,0.4,0.6,0.3c0,0,0-0.1,0-0.1c0-0.1,0.1-0.2,0.1-0.3
					c0-0.1,0.1-0.3,0.1-0.4c0-0.2,0-0.3,0-0.5c0-0.3,0-0.6,0-0.9c0.1-0.6,0.3-1.2-0.1-2.3l0.1-0.3c0.6-0.2,1.4,0,1.9,0.5
					c0.6,0.4,0.9,1.1,1.1,1.7c0.2,0.6,0.2,1.3-0.1,1.9c-0.1,0.3-0.3,0.6-0.4,0.9c-0.2,0.3-0.4,0.6-0.6,0.9c-0.2,0.3-0.5,0.5-0.9,0.7
					c-0.4,0.2-0.9,0.3-1.4,0.2c-0.5-0.1-0.9-0.4-1.1-0.6c-0.2-0.3-0.4-0.5-0.5-0.8c-0.5-1-0.8-2-0.8-3L10.8,131.4z"/>
			</g>
			<g>
				<path class="st2" d="M23.1,140.8c14.2,0.8,28.2,3.7,42,6.6l41.6,8.8l20.8,4.3c1.7,0.4,3.4,0.7,5.2,1c1.7,0.3,3.5,0.4,5.2,0.6
					c3.5,0.4,7,0.7,10.6,1.2c7.1,1,14.1,2.5,20.9,4.4c3.4,0.9,6.8,1.9,10.2,3c3.4,1.1,6.8,2.1,10.1,3.3l-0.1,0.3
					c-3.5-0.7-6.9-1.5-10.4-2.3c-3.5-0.8-6.9-1.5-10.4-2.2c-6.9-1.4-13.9-2.7-20.8-3.5c-6.9-0.9-14.2-1-21.2-2.8l-20.7-4.9
					l-41.4-9.6c-13.8-3.3-27.6-6.6-41.7-7.7L23.1,140.8z"/>
			</g>
			<g>
				<path class="st2" d="M191.6,159.3l1,23.8c0.3,7.9,0.7,15.8,0.9,23.8c0.5,15.9,0.3,31.8-1.4,47.6l-0.6-1c7.7,3,15.5,5.4,23.6,7.2
					l-1.5,1.2c-0.3-8.3-0.6-16.5-0.8-24.8c-0.1-8.4,0.7-16.6,1.2-24.8c0.3-4.1,0.5-8.2,0.4-12.3c0-4.1,0-8.2-0.1-12.3
					c-0.1-8.3-0.2-16.5-0.2-24.8l0.7,0.9c-3.9-0.8-7.8-1.5-11.7-2.3c-3.9-0.8-7.8-1.6-11.7-2.4l0.1-0.3c3.9,0.5,7.9,1,11.8,1.6
					c3.9,0.5,7.9,1.1,11.8,1.7l0.7,0.1l0,0.8c0.4,8.3,0.8,16.5,1.1,24.8c0.2,4.1,0.2,8.3,0.4,12.4c0.1,4.2-0.1,8.3-0.3,12.5
					c-0.5,8.3-1.4,16.5-1.5,24.7c0,8.2,0.2,16.5,0.3,24.7l0,1.6l-1.5-0.4c-8.1-2-16-4.6-23.7-7.7L190,255l0.1-0.8
					c0.9-7.8,1.5-15.7,1.8-23.6c0.3-7.9,0.3-15.8,0.3-23.8c-0.1-7.9-0.2-15.9-0.4-23.8l-0.5-23.8L191.6,159.3z"/>
			</g>
			<g>
				<path class="st2" d="M29.8,188.4c2.5,3.3,5.2,6.5,8.1,9.4c2.9,2.9,6,5.6,9.4,7.8c1.7,1.1,3.5,2,5.4,2.9c1.9,0.9,3.7,1.9,5.5,2.9
					c3.6,2.1,7.1,4.4,10.4,7l-0.1,0.3c-4.1-1.2-7.9-2.9-11.6-4.7c-3.7-1.8-7.4-3.9-10.8-6.5c-3.4-2.6-6.4-5.6-9.2-8.8
					c-2.7-3.2-5.2-6.6-7.2-10.2L29.8,188.4z"/>
			</g>
			<g>
				<path class="st2" d="M31.1,207.4c3.3,0.4,6.5,1.2,9.7,2l9.5,2.5c3.2,0.9,6.4,1.5,9.5,2.7c3.1,1.2,6.1,2.5,9,4.2l-0.1,0.3
					c-3.4-0.2-6.6-0.9-9.8-1.7c-3.2-0.8-6.2-2.1-9.3-3.2l-9.2-3.4c-3.1-1.2-6.1-2.2-9.3-3.1L31.1,207.4z"/>
			</g>
			<g>
				<path class="st2" d="M25.9,141.5c2.6,7.2,4,14.7,5.1,22.2c0.5,3.8,0.9,7.6,1.3,11.3l0.6,5.7l0.3,2.8c0.1,0.9,0.2,1.8,0.4,2.5
					c0.2,0.7,0.6,1.3,1.2,2l1.9,2.1l3.9,4.1l3.9,4.2c1.3,1.4,2.5,2.8,3.8,4.1c2.5,2.6,5.6,4.7,8.8,6.5c3.2,1.8,6.7,3.4,10.1,5.2
					l-0.1,0.3c-3.7-0.9-7.4-2-10.9-3.5c-3.6-1.5-7-3.5-9.9-6.2c-2.9-2.7-5.3-5.6-7.8-8.5l-3.7-4.3l-1.9-2.2
					c-0.3-0.4-0.7-0.8-0.9-1.3c-0.3-0.5-0.5-1.1-0.7-1.6c-0.3-1.1-0.4-2.1-0.4-3.1l-0.2-2.8l-0.4-5.7c-0.2-3.8-0.5-7.6-0.8-11.3
					c-0.6-7.5-1.7-15.1-3.9-22.3L25.9,141.5z"/>
			</g>
			<g>
				<path class="st2" d="M75.1,150.3c1.4,6,2.7,12,3.6,18.2c0.9,6.2,0.7,12.4,1.1,18.5c0.2,3,0.6,6.1,1,9.1c0.4,3,0.8,6.1,1,9.2
					c0.5,6.1,0.8,12.3,0.7,18.5l-0.3,0c-1.5-6-2.5-12.1-3.3-18.2c-0.8-6.1-1.3-12.2-1.5-18.5c0-6.2,0.5-12.3-0.1-18.4
					c-0.4-6.1-1.4-12.2-2.4-18.3L75.1,150.3z"/>
			</g>
			<g>
				<path class="st2" d="M79.4,152.2c0.5,5.8,1.1,11.5,1.8,17.3c0.6,5.7,1.3,11.5,2,17.2c0.7,5.7,1.7,11.5,2,17.2
					c0.4,5.8,0.6,11.6,0.4,17.4l-0.3,0c-1.4-5.7-2.3-11.4-3.1-17.1c-0.8-5.7-1-11.5-1.4-17.3c-0.4-5.8-0.8-11.6-1.1-17.3
					c-0.3-5.8-0.5-11.6-0.6-17.4L79.4,152.2z"/>
			</g>
			<g>
				<path class="st2" d="M82.2,223.9c-4.3-1.8-8.8-3.1-13.4-3.9l-0.3-0.1l-0.1-0.3c-1-2.9-1.4-6-1.6-9l-0.5-9
					c-0.4-6-0.9-11.9-1.5-17.8l-1-8.9c-0.3-3-0.6-5.9-0.8-8.9c-0.5-5.9-1-11.9-1.3-17.9l0.3,0c1.6,5.8,2.8,11.7,3.7,17.6
					c0.5,3,0.9,5.9,1.2,8.9c0.3,3,0.5,6,0.6,9c0.3,6,0.6,12,0.7,18l0.2,9c0.1,3,0.3,5.9,1.1,8.7l-0.4-0.4c4.6,1.1,9.1,2.6,13.3,4.7
					L82.2,223.9z"/>
			</g>
			<g>
				<path class="st2" d="M81.8,223.1c1.2,0,2.4,0.1,3.7,0.2c1.2,0.1,2.4,0.3,3.6,0.5c1.2,0.2,2.5,0.2,3.6,0.8c0.6,0.3,1.1,0.6,1.6,1
					c0.5,0.4,1,0.9,1.4,1.5l-0.1,0.3c-0.7,0.2-1.4,0.3-2,0.3c-0.6,0-1.2,0-1.8-0.1c-1.2-0.2-2.2-0.9-3.3-1.3l-3.3-1.4l-3.4-1.4
					L81.8,223.1z"/>
			</g>
			<g>
				<path class="st2" d="M129.2,237.7l-7.1-2.2l-3.5-1.1c-1.2-0.3-2.3-0.6-3.5-0.6l-0.1,0l-0.1,0c-6.1-1.7-12.2-3.4-18.2-5.1
					l-0.5-1.3c-0.1,0.1,0,0.1,0-0.1l-0.1-0.6l-0.1-1.2l-0.2-2.3l-0.5-4.6l-1-9.2l-2-18.4c-0.7-6.1-1-12.3-1.4-18.5
					c-0.3-6.2-0.6-12.3-0.6-18.5l0.3,0c1.1,6.1,2,12.2,2.8,18.3c0.8,6.1,1.5,12.3,1.9,18.4l1.3,18.5l0.7,9.2l0.3,4.6l0.2,2.3
					l0.1,1.2l0,0.6c0,0.3,0,0.6-0.2,1.1l-0.5-1.3c6,1.9,12,3.9,18,5.8l-0.1,0c1.3,0.1,2.5,0.4,3.7,0.8l3.5,1.3l7,2.5L129.2,237.7z"
					/>
			</g>
			<g>
				<path class="st2" d="M126.4,161.5l1.6,19.1l1.5,19.1c0.5,6.4,1.2,12.7,1.3,19.1c0.1,6.4,0.2,12.8-0.3,19.2l-0.3,0
					c-1.2-6.3-1.8-12.7-2.4-19.1c-0.6-6.4-0.5-12.8-0.7-19.2l-0.6-19.2l-0.4-19.2L126.4,161.5z"/>
			</g>
			<g>
				<path class="st2" d="M142.2,164.1c0.2,7.8,0.7,15.7,1.6,23.4l1.4,11.7l0.3,2.9c0.1,1,0.1,2,0.2,3l0.3,5.9
					c0.2,7.8,0.7,15.7,0.6,23.5l-0.1,5.9l0,1.5l0,0.4l0,0.2l0,0.1l0,0c0,0.9-0.9,1.3-0.9,1.2c-0.2,0.1-0.4,0.1-0.4,0.1l-0.2,0
					c-0.4-0.1-0.4-0.1-0.6-0.1l-0.4-0.1c-1-0.3-1.9-0.7-2.8-1.1l-5.5-2.2c-1.8-0.7-3.6-1.4-5.5-2l0.1-0.3c4,0.4,7.8,1.4,11.6,2.5
					l2.8,0.8l0.3,0.1c0.1,0,0.3,0,0.1,0c0,0-0.1,0-0.1,0c0,0-0.1,0-0.3,0.1c0.1-0.1-0.8,0.3-0.8,1.2l0,0l0-0.1l0-0.2l0-0.4l-0.1-1.5
					l-0.2-5.9c-0.3-7.8,0-15.7,0-23.5l-0.1-5.8c0-1,0-1.9,0-2.9l-0.2-2.9l-0.9-11.7c-0.5-7.9-0.6-15.7-0.4-23.6L142.2,164.1z"/>
			</g>
			<g>
				<path class="st2" d="M267.8,119.1c-1.1,13.2-1.7,26.4-2.2,39.6l-1.7,39.6l-0.4-0.6c2.5,0.8,5,1.6,7.5,1.6l1.6,0l-1.1,1.1
					c-2.2,2.3-4.3,4.8-6.2,7.4c-1,1.3-1.9,2.6-2.7,4l-0.6,1l-0.3,0.5c-0.1,0.2-0.1,0.3-0.5,0.7c-0.2,0.2-0.6,0.3-0.9,0.2
					c-0.3-0.1-0.4-0.2-0.5-0.2l-0.5-0.3l-1-0.6l1-0.2c-9.1,11.9-18.6,23.6-28.5,35l-0.2-1.5c0.6,0.4,1.4,0.6,2.1,0.5l2.7-0.4
					l-1.8,2.1l-7.6,8.8c-2.5,3-5.2,5.8-6.7,9.1l-0.4,0.9l-0.9-0.3c-5.3-1.5-10.7-2.9-16.1-4.2c-2.7-0.7-5.4-1.3-8.1-1.9
					c-2.7-0.6-5.3-1.2-7.9-1.1l-2.4,0.1l1.3-2l1.6-2.5l0.7,1.9l-44.9-12.7c-7.5-2.1-15-4.3-22.4-6.5c-7.5-2.2-14.9-4.4-22.4-6.6
					l-22.3-6.7c-7.4-2.2-14.9-4.5-22.3-6.9l-5.5-1.8l-5.6-1.6l-5.6-1.6c-0.9-0.3-1.9-0.6-2.6-0.5c-0.4,0-0.6,0.1-0.9,0.4
					c-0.3,0.3-0.9,0.7-1.6,0.8c-0.7,0.1-1.2-0.1-1.7-0.2l-1.4-0.5l-2.8-0.9l-5.5-1.8l-11.1-3.7l0.1-0.3l11.2,3.2l5.6,1.6l2.8,0.8
					c0.9,0.2,2,0.7,2.5,0.5c0.3,0,0.5-0.3,0.9-0.6c0.4-0.3,1-0.8,1.6-0.8c1.3-0.1,2.2,0.3,3.1,0.5l5.7,1.4l5.7,1.4l5.6,1.6
					l44.9,12.8c7.5,2.1,15,4.3,22.4,6.4c7.5,2.1,14.9,4.3,22.4,6.5l44.8,13.2l1.7,0.5l-0.9,1.4l-1.6,2.5l-1.1-1.9
					c3-0.1,5.8,0.7,8.5,1.3c2.7,0.6,5.4,1.3,8.1,2c5.4,1.4,10.8,2.8,16.1,4.4l-1.3,0.6c0.9-1.9,2-3.6,3.3-5.1c1.3-1.6,2.6-3,3.8-4.5
					l7.7-8.8l0.9,1.6c-1.2,0.2-2.5-0.1-3.5-0.8l-0.9-0.6l0.7-0.8c9.9-11.2,19.5-22.8,28.7-34.6l0.4-0.6l0.6,0.4l1,0.6l0.5,0.3
					c0.1,0.1,0.1,0.1,0,0c-0.1,0-0.3,0-0.3,0.1c-0.1,0.1,0.1-0.1,0.2-0.3l0.3-0.5l0.7-1c0.9-1.4,1.8-2.7,2.8-4
					c2-2.6,4.1-5.1,6.4-7.4l0.5,1.1c-2.8,0-5.4-0.9-7.9-1.7l-0.5-0.2l0-0.5l2.2-39.6c0.7-13.2,1.5-26.4,2.7-39.6L267.8,119.1z"/>
			</g>
			<g>
				<path class="st2" d="M113,158.9c0.1,5.9,0.4,11.8,1,17.7c0.5,5.9,1.1,11.7,1.8,17.6l2,17.6c0.7,5.9,1,11.8,1.2,17.7l-0.8-1
					c3.6,1.3,7.2,2.6,10.7,4.1l-0.1,0.3c-3.8-0.6-7.5-1.4-11.2-2.2l-0.7-0.2l-0.1-0.8c-0.8-5.9-1.6-11.7-2-17.6l-1.1-17.7
					c-0.4-5.9-0.8-11.8-1-17.7c-0.2-5.9-0.2-11.8,0.1-17.8L113,158.9z"/>
			</g>
			<g>
				<path class="st2" d="M118.7,229.6l-3.7,3.1l-0.4,0.4l-0.1-0.6c-0.9-6.1-1.8-12.2-2.4-18.3c-0.3-3.1-0.6-6.1-0.8-9.2l-0.6-9.2
					c-0.5-6.1-1-12.2-1-18.4c0-6.1,0-12.3,0.6-18.4l0.3,0c1,6.1,1.6,12.2,2,18.3c0.5,6.1,0.4,12.3,0.6,18.4l0.2,9.2
					c0.1,3.1,0.2,6.1,0.4,9.2c0.4,6.1,0.8,12.2,1.4,18.3l-0.5-0.2l4-2.9L118.7,229.6z"/>
			</g>
			<g>
				<path class="st2" d="M81.8,223.7c0.4-0.7,0.9-1.3,1.5-1.9c0.6-0.6,1.2-1.2,1.9-1.7l0.2-0.1l0.4,0.1c0.9,0.1,1.9,0.3,2.8,0.4
					c0.9,0.2,1.9,0.2,2.8,0.4c0.9,0.2,1.8,0.5,2.7,1c0.9,0.5,1.7,1,2.4,1.8l-0.1,0.3c-1.1,0.3-2.1,0.4-3,0.4c-1,0-1.9-0.2-2.8-0.5
					c-0.9-0.4-1.8-0.8-2.6-1.1c-0.9-0.3-1.8-0.7-2.7-1l0.6-0.1c-0.7,0.3-1.4,0.6-2,1c-0.7,0.4-1.3,0.8-1.9,1.3L81.8,223.7z"/>
			</g>
			<g>
				<path class="st2" d="M144.8,164l0.1-0.6l0.1-0.4c0-0.1,0-0.5,0.1-0.3l0,0.4l0,0.9v0.3l0,0.9l0,0.4c0,0.2,0-0.2-0.1-0.3l-0.1-0.5
					l-0.1-0.6V164z"/>
			</g>
			<g>
				<path class="st2" d="M144.6,163.9c0.2-0.1,0.6,0,0.7,0.2c0.2,0.2,0.2,0.4,0.3,0.6c0.1,0.4,0.1,0.8,0.1,1.2l0.1,2.4l0.3,4.8
					l0.5,9.6c0.3,6.4,0.4,12.8,0.5,19.1c0.1,3.2,0,6.4,0.2,9.5l0.5,9.5c0.2,6.3,0.6,12.7,0.5,19.1l-0.3,0
					c-1.5-6.2-2.5-12.6-3.2-18.9c-0.3-3.2-0.4-6.4-0.4-9.6c0-1.6,0.1-3.2,0.1-4.8l0.2-4.8c0.3-6.4,0.4-12.7,0.4-19.1l0.1-9.6l0-4.8
					l0-2.4c0-0.4,0-0.8,0-1.1c-0.1-0.3-0.3-0.7-0.5-0.6L144.6,163.9z"/>
			</g>
			<g>
				<path class="st2" d="M148.1,239.8c3.6-0.6,7.2-1.1,10.8-1.7c3.6-0.6,7.2-1.2,10.8-1.8c1.8-0.3,3.6-0.7,5.4-1
					c1.8-0.4,3.5-0.7,5.3-1c3.5-0.6,6.8-1.4,10.1-3l0.2,0.2c-1.2,1.5-2.7,2.7-4.4,3.6c-1.7,0.9-3.5,1.6-5.3,2.1
					c-3.7,1-7.3,1.1-11,1.5c-3.6,0.3-7.3,0.6-10.9,0.9c-3.6,0.2-7.3,0.4-10.9,0.5L148.1,239.8z"/>
			</g>
			<g>
				<path class="st2" d="M146.2,242.2c4.1-0.2,8.2-0.1,12.2-0.3c4-0.2,8-0.7,11.9-1.6c1.9-0.5,3.9-1,5.7-1.6l5.6-1.9
					c1.9-0.6,3.8-1.3,5.7-2c1.9-0.7,3.8-1.4,5.7-2.1l0.2,0.3c-3,2.8-6.7,5-10.5,6.7c-3.8,1.7-8,2.5-12,3.1
					c-4.1,0.6-8.2,0.8-12.3,0.7c-4.1-0.2-8.1-0.6-12.2-0.9L146.2,242.2z"/>
			</g>
			<g>
				<path class="st2" d="M27.9,148.3c3-0.3,6-0.1,8.9,0.2c3,0.4,5.9,1,8.8,1.6c2.9,0.6,5.8,1,8.6,1.9c2.8,0.9,5.5,1.7,8.4,2.8l0,0.3
					c-3,0.6-6.1,0.3-9-0.2c-3-0.5-5.7-1.6-8.5-2.5c-2.8-0.9-5.6-1.8-8.4-2.4c-2.8-0.7-5.7-1.2-8.7-1.4L27.9,148.3z"/>
			</g>
			<g>
				<path class="st2" d="M30.5,162.7l16.7,2.1c2.8,0.3,5.6,0.4,8.3,1.1c2.7,0.6,5.4,1.4,8.1,2.6l0,0.3c-2.9,0.4-5.7,0.3-8.5,0.1
					c-2.8-0.2-5.5-1.1-8.3-1.7c-2.7-0.6-5.5-1.3-8.2-1.9c-2.7-0.7-5.4-1.4-8.1-2.2L30.5,162.7z"/>
			</g>
			<g>
				<path class="st2" d="M31.9,177.4c2.8,0.3,5.6,1,8.3,1.8c2.7,0.8,5.4,1.5,8.1,2.1c2.7,0.6,5.5,0.8,8.2,1.6c2.7,0.8,5.4,1.6,8,2.9
					l-0.1,0.3c-2.9,0.3-5.8,0.1-8.6-0.3c-2.8-0.4-5.5-1.4-8.2-2.2c-1.4-0.4-2.7-0.9-4-1.4c-1.3-0.5-2.6-1.1-4-1.6
					c-2.6-1.1-5.2-2.1-7.9-2.9L31.9,177.4z"/>
			</g>
			<g>
				<path class="st2" d="M40.3,193.7c2.2,0.3,4.4,0.6,6.5,0.9c2.2,0.4,4.3,0.8,6.5,1.2c2.2,0.5,4.4,0.7,6.4,1.5
					c2.1,0.8,4.1,1.8,5.9,3.2l-0.1,0.3c-2.3,0.1-4.5-0.2-6.7-0.6c-2.2-0.4-4.1-1.4-6.2-2.1L40.2,194L40.3,193.7z"/>
			</g>
			<g>
				<path class="st2" d="M81,159.5c0.8-0.1,1.6-0.2,2.4-0.2c0.8,0,1.6,0,2.4,0c0.8,0.1,1.7-0.1,2.4,0.3c0.4,0.2,0.7,0.4,1,0.8
					c0.3,0.3,0.6,0.7,0.8,1.2l-0.1,0.3c-0.5,0.3-0.9,0.4-1.4,0.5c-0.4,0.1-0.8,0.1-1.2,0.1c-0.8,0-1.4-0.6-2.1-0.8l-2.1-0.9
					l-2.2-0.9L81,159.5z"/>
			</g>
			<g>
				<path class="st2" d="M81.4,173.5c1.1,0.2,2.1,0.5,3.1,0.7c1,0.2,2.1,0.5,3.1,0.7c1,0.3,2.1,0.2,3.1,0.8c0.5,0.3,0.9,0.6,1.3,0.9
					c0.4,0.4,0.8,0.8,1.2,1.4l-0.1,0.3c-0.6,0.2-1.2,0.3-1.8,0.4c-0.6,0-1.1,0-1.7-0.1c-1.1-0.1-2-0.9-2.9-1.4c-1-0.5-1.9-1-2.8-1.6
					c-0.9-0.6-1.8-1.1-2.7-1.8L81.4,173.5z"/>
			</g>
			<g>
				<path class="st2" d="M83,190.4c1-0.1,1.9,0,2.9,0c1,0,1.9,0,2.8,0.1c0.9,0.1,1.9-0.2,2.8,0.3c0.4,0.2,0.9,0.4,1.3,0.7
					c0.4,0.3,0.8,0.6,1.2,1.2l-0.1,0.3c-0.5,0.3-1.1,0.5-1.6,0.6c-0.5,0.1-1,0.2-1.5,0.2c-1,0-1.8-0.5-2.7-0.8
					c-0.9-0.3-1.8-0.6-2.7-1c-0.9-0.4-1.8-0.7-2.6-1.1L83,190.4z"/>
			</g>
			<g>
				<path class="st2" d="M84.3,206.2c0.9,0,1.8,0,2.7,0c0.9,0,1.8,0.1,2.7,0.1c0.9,0.1,1.8-0.1,2.6,0.3c0.4,0.2,0.8,0.4,1.2,0.7
					c0.4,0.3,0.7,0.7,1.1,1.2l-0.1,0.3c-0.5,0.3-1,0.5-1.5,0.6c-0.5,0.1-0.9,0.2-1.4,0.1c-0.9,0-1.7-0.6-2.5-0.9
					c-0.8-0.3-1.6-0.6-2.5-1c-0.8-0.4-1.6-0.7-2.4-1.2L84.3,206.2z"/>
			</g>
			<g>
				<path class="st2" d="M114.6,166.9c1-0.1,1.9-0.1,2.8-0.2c0.9,0,1.9,0,2.8,0c0.9,0,1.9-0.2,2.8,0.1c0.4,0.2,0.9,0.4,1.3,0.6
					c0.4,0.3,0.8,0.6,1.2,1.1l0,0.3c-0.5,0.4-1,0.5-1.5,0.7c-0.5,0.1-1,0.2-1.4,0.2c-1,0.1-1.8-0.4-2.7-0.7
					c-0.9-0.3-1.8-0.5-2.7-0.9c-0.9-0.3-1.8-0.6-2.7-1L114.6,166.9z"/>
			</g>
			<g>
				<path class="st2" d="M115.2,182.7c0.9,0.2,1.9,0.4,2.8,0.5c0.9,0.1,1.8,0.3,2.7,0.4c0.9,0.1,1.8-0.1,2.7,0.3
					c0.4,0.2,0.8,0.4,1.3,0.6c0.4,0.3,0.8,0.6,1.3,1l0,0.3c-0.5,0.4-1,0.6-1.5,0.8c-0.5,0.2-1,0.2-1.5,0.2c-1,0.1-1.9-0.5-2.8-0.9
					c-0.9-0.4-1.8-0.8-2.6-1.3c-0.8-0.5-1.6-1-2.4-1.6L115.2,182.7z"/>
			</g>
			<g>
				<path class="st2" d="M115.8,198.5c1,0,2,0.2,3,0.2c1,0.1,2,0.2,3,0.3c1,0.1,2-0.1,3,0.3c0.5,0.2,0.9,0.4,1.4,0.7
					c0.4,0.3,0.9,0.7,1.3,1.2l-0.1,0.3c-0.6,0.3-1.1,0.5-1.6,0.6c-0.5,0.1-1.1,0.1-1.6,0.1c-1,0-1.9-0.6-2.9-0.9
					c-1-0.4-1.9-0.7-2.8-1.2c-0.9-0.4-1.8-0.9-2.7-1.4L115.8,198.5z"/>
			</g>
			<g>
				<path class="st2" d="M118.1,214.5c1,0,1.9,0.1,2.9,0.2c1,0.1,1.9,0.2,2.8,0.3c0.9,0.1,1.9,0,2.8,0.5c0.4,0.2,0.8,0.5,1.2,0.8
					c0.4,0.3,0.8,0.7,1.1,1.3l-0.1,0.3c-0.6,0.3-1.1,0.4-1.6,0.5c-0.5,0.1-1,0.1-1.5,0c-1,0-1.8-0.7-2.6-1.1
					c-0.9-0.4-1.7-0.8-2.6-1.2c-0.8-0.5-1.7-0.9-2.5-1.3L118.1,214.5z"/>
			</g>
			<g>
				<path class="st2" d="M147.4,173.6c3.7,0.7,7.5,1.4,11.2,2.1l11.2,2.3c3.7,0.8,7.5,1.3,11.1,2.4c1.8,0.5,3.6,1.1,5.4,1.8
					c1.8,0.6,3.5,1.2,5.4,1.7l0,0.3c-1.9,0.4-3.9,0.3-5.9,0.1c-1.9-0.2-3.8-0.6-5.6-0.9c-3.7-0.7-7.3-2-11-3l-10.9-3.2
					c-3.6-1.1-7.3-2.2-10.9-3.3L147.4,173.6z"/>
			</g>
			<g>
				<path class="st2" d="M147.1,190.6c3.8,0.9,7.5,1.9,11.3,2.5c1.9,0.3,3.8,0.6,5.7,0.8c1.9,0.2,3.8,0.2,5.8,0.4c2,0.1,4,0.4,6,1
					c2,0.5,3.8,1.3,5.6,2.1c1.8,0.8,3.5,1.6,5.2,2.3c1.7,0.6,3.5,1.1,5.5,1.4l0,0.3c-1.9,0.6-4,0.7-6,0.4c-2-0.3-3.9-0.9-5.8-1.5
					c-3.7-1.3-6.9-2.9-10.7-3.4c-1.9-0.3-3.8-0.5-5.8-0.8c-2-0.3-3.9-0.7-5.8-1.2c-3.8-1-7.5-2.3-11.1-3.7L147.1,190.6z"/>
			</g>
			<g>
				<path class="st2" d="M146.9,207.2c3.7,0.9,7.4,1.6,11.2,2l11.3,1.2c3.8,0.5,7.7,1,11.3,2.2c3.7,1.2,7.2,2.7,10.5,4.8l-0.1,0.3
					c-3.8-0.6-7.5-1.4-11.2-2.2c-3.7-0.8-7.2-1.9-10.9-2.7l-11.2-2.1c-3.7-0.8-7.4-1.9-11-3.2L146.9,207.2z"/>
			</g>
			<g>
				<path class="st2" d="M148.1,223.5c3.3,0.1,6.6,0.4,9.8,0.7c3.3,0.4,6.5,0.9,9.8,1.5c3.2,0.6,6.5,1.1,9.7,2.3
					c3.1,1.1,6.1,2.5,8.9,4.4l-0.1,0.3c-3.4-0.4-6.5-1.1-9.7-1.8c-3.2-0.7-6.2-1.9-9.3-2.8c-3.1-0.9-6.3-1.7-9.5-2.4
					c-3.2-0.7-6.4-1.3-9.6-1.9L148.1,223.5z"/>
			</g>
			<g>
				<path class="st2" d="M64.6,139.3c0.5-0.6,1.3-0.9,2.1-0.8c0.8,0,1.6,0.3,2.2,0.9c0.6,0.6,1,1.4,1.2,2.2c0.2,0.8,0.2,1.6,0.1,2.4
					c-0.1,0.4-0.1,0.8-0.3,1.2c-0.2,0.4-0.4,1-0.9,1.4c-0.5,0.4-1.3,0.7-1.9,0.6c-0.7,0-1.2-0.3-1.7-0.6c-0.4-0.4-0.8-0.8-1-1.3
					c-0.2-0.5-0.3-1-0.2-1.4c0-0.9,0.4-1.6,0.8-2.2l0.3,0c0.4,0.7,0.6,1.3,0.9,1.8c0.2,0.2,0.3,0.4,0.4,0.5c0.1,0.1,0.3,0.1,0.4,0.1
					c0.1,0,0.2,0,0.2,0c0,0-0.1,0.1-0.1,0.1c0.1,0.1,0.5-0.3,0.6-0.8c0.4-1,0.5-2.2-0.1-3c-0.5-0.8-1.8-1.5-2.9-0.9L64.6,139.3z"/>
			</g>
			<g>
				<path class="st2" d="M130.2,152.3c1.3-0.9,3-1,4.6-0.4c0.8,0.3,1.5,0.8,2.1,1.5c0.6,0.7,1,1.7,0.9,2.8c0,1-0.5,2.2-1.5,2.9
					c-0.9,0.7-1.8,0.9-2.8,0.9c-1,0-2.1-0.4-2.8-1.4c-0.3-0.4-0.5-1-0.5-1.5c0-0.5,0.2-1,0.5-1.3l0.3,0.1c0.2,0.8,0.7,1,1.1,1.2
					c0.4,0.1,0.8,0,1.2-0.1c0.4-0.1,1-0.3,1.3-0.4c0.3-0.1,0.6-0.3,0.7-0.7c0.3-0.8-0.3-2-1.3-2.7c-1-0.7-2.5-1-3.8-0.6L130.2,152.3
					z"/>
			</g>
			<g>
				<path class="st2" d="M16.9,200.5c-2.5,2.9-5.7,5.1-9.4,6.3l0.2-0.4c1.5,3,2.5,6.3,2.9,9.7c0,0.4,0.1,0.8,0.1,1.3
					c0,0.4,0,0.9,0.1,1.2c0,0.2,0.1,0.2,0.1,0.3c0.1,0.1,0.2,0.1,0.4,0.2l1.2,0.4l4.8,1.5l9.6,2.9l2.4,0.7l1.2,0.4
					c0.4,0.1,0.7,0.2,0.9,0.2c0.3,0,1-0.8,1.6-1.4l1.8-1.7l0.3-0.3l0.4,0.1c12.4,4,24.8,7.7,37.4,11.1c6.3,1.7,12.6,3.3,18.9,4.8
					c3.2,0.8,6.3,1.4,9.5,2.2c1.6,0.4,3.2,0.8,4.8,1.3c1.6,0.5,3.1,1.1,4.7,1.6l4.6,1.7l4.5,1.7l9.1,3.4c6.1,2.2,12.2,4.4,18.4,6.5
					c3.1,1,6.2,2,9.3,3c3.1,1,6.2,2,9.3,2.9c6.2,1.8,12.5,3.7,18.7,5.6l-0.1,0.3c-12.7-2.7-25.5-5.5-38-9.3
					c-6.3-1.9-12.5-3.9-18.6-6.1c-3.1-1.1-6.1-2.2-9.2-3.4l-4.5-1.8l-4.5-1.8c-1.5-0.6-3-1.2-4.5-1.7c-1.5-0.5-3.1-0.9-4.6-1.4
					c-3.1-0.8-6.3-1.6-9.4-2.4c-6.3-1.6-12.6-3.3-18.9-5.1c-12.5-3.6-25-7.5-37.3-11.7l0.7-0.2l-1.9,1.7l-0.9,0.8
					c-0.3,0.3-0.7,0.7-1.4,0.8c-0.7,0.1-1.1-0.1-1.5-0.2l-1.2-0.4l-2.4-0.8l-9.5-3.1l-4.8-1.6l-1.2-0.4c-0.2-0.1-0.5-0.2-0.7-0.4
					c-0.3-0.2-0.4-0.6-0.4-0.8c-0.1-0.5,0-0.9-0.1-1.3c0-0.4,0-0.8-0.1-1.2c-0.3-3.3-1.2-6.5-2.6-9.5L7,206.3l0.3-0.1
					c3.6-1.1,6.8-3.2,9.3-6L16.9,200.5z"/>
			</g>
			<g>
				<path class="st2" d="M186.1,257.6l0,16.3l-0.4-0.6c5.9,1.6,11.8,3.2,17.7,4.9l8.9,2.5l4.4,1.2l0.6,0.2l0.3,0.1l0.1,0l0.1,0l0,0
					c-0.1,0-0.4-0.1-0.6,0c-0.1,0-0.2,0.1-0.3,0.1c-0.1,0.1-0.2,0.1-0.2,0.1l0,0l0,0l0.1-0.1l0.2-0.2l0.3-0.4l1.4-1.8l5.5-7.3
					c1.9-2.4,3.8-4.8,5.7-7.2c0.5-0.6,1-1.2,1.4-1.7c0.4-0.5,0.5-0.8,0.5-1.4c0-0.6-0.1-1.5-0.1-2.2l-0.1-2.3
					c-0.1-3.1-0.2-6.1-0.2-9.2l0.3,0c0.7,3,1.2,6,1.8,9.1l0.4,2.3c0.1,0.8,0.3,1.5,0.3,2.4c0,0.5,0,1-0.1,1.5
					c-0.1,0.5-0.4,1-0.6,1.4c-0.5,0.8-0.9,1.3-1.3,2c-3.5,5-7.3,9.9-11.3,14.6l-1.5,1.8l-0.4,0.5l-0.2,0.2l-0.1,0.1l-0.1,0.1l-0.1,0
					c0,0-0.1,0.1-0.2,0.1c-0.1,0.1-0.2,0.1-0.4,0.1c-0.2,0.1-0.6,0-0.7,0l0,0l-0.1,0l-0.1,0l-0.3-0.1l-0.5-0.2l-4.4-1.4l-8.8-2.8
					c-5.8-1.9-11.7-3.7-17.5-5.7l-0.4-0.1l0-0.4l0.8-16.3L186.1,257.6z"/>
			</g>
			<g>
				<path class="st2" d="M233.1,255.9c3.1-5,6.5-10,9.8-14.9c3.4-4.9,7-9.6,10.6-14.3l0.4-0.5l0.6,0l2.6,0.1l1.3,0.1
					c0.5,0,0.8,0,0.8,0c0,0-0.1,0,0,0l0.3-0.4l0.8-1.1c0.5-0.7,1-1.5,1.6-2.2c1.1-1.4,2.3-2.7,3.6-4c1.3-1.3,2.6-2.4,4-3.6l-0.5,1
					c0.2-2.6,0.5-5.2,0.8-7.8c0.3-2.6,0.7-5.2,1.1-7.7l0.3,0c0.3,2.6,0.4,5.2,0.5,7.8c0.1,2.6,0.1,5.2,0.1,7.8l0,0.6l-0.5,0.5
					c-2.5,2.3-4.8,4.8-7.1,7.4c-0.6,0.6-1.1,1.3-1.7,2l-0.8,1c-0.1,0.2-0.3,0.4-0.5,0.6c-0.2,0.3-0.7,0.6-1.1,0.7
					c-0.9,0.2-1.4,0.1-1.8,0l-1.3-0.1l-2.6-0.3l1-0.4c-3.9,4.5-7.6,9.1-11.3,13.7c-3.7,4.6-7.3,9.4-10.8,14.1L233.1,255.9z"/>
			</g>
			<g>
				<path class="st2" d="M260.3,213.5c0.2,1.2,0.4,2.3,0.6,3.5c0.2,1.2,0.3,2.3,0.4,3.5c0.1,1.2,0.5,2.3,0.3,3.5
					c-0.1,0.6-0.2,1.2-0.5,1.7c-0.2,0.6-0.5,1.2-0.9,1.7l-0.3,0c-0.4-0.6-0.7-1.2-0.9-1.8c-0.2-0.6-0.3-1.2-0.4-1.8
					c-0.2-1.2,0.2-2.3,0.3-3.5c0.1-1.2,0.3-2.3,0.5-3.5c0.2-1.2,0.4-2.3,0.6-3.5L260.3,213.5z"/>
			</g>
			<g>
				<path class="st2" d="M257.8,213.3l0,7.7c0,1.3,0.3,2.5,0,3.8c-0.1,0.6-0.3,1.2-0.5,1.9c-0.2,0.6-0.5,1.2-1,1.9l-0.3,0
					c-0.4-0.6-0.7-1.3-0.8-2c-0.2-0.7-0.3-1.3-0.3-2c-0.1-1.3,0.4-2.6,0.6-3.8c0.3-1.3,0.6-2.5,0.9-3.8c0.4-1.2,0.7-2.5,1.2-3.7
					L257.8,213.3z"/>
			</g>
			<g>
				<path class="st2" d="M238.6,159l-12.8,13.3l0.2-0.4c0.6,7.6,1.2,15.3,1.4,22.9c0.2,7.7,0.1,15.4-0.6,23.1l-2.3-0.8
					c1.3-2.1,2.5-4.4,3.5-6.6c1-2.3,2-4.6,2.8-7c1.7-4.7,3-9.6,4-14.5c1.1-4.9,1.8-9.9,2.4-14.9c0.5-5,0.9-10.1,1.1-15.2l0.3,0
					c0.6,5.1,0.9,10.2,0.7,15.4c-0.1,5.1-0.7,10.3-1.5,15.4c-0.5,2.5-1,5.1-1.7,7.6c-0.7,2.5-1.5,5-2.4,7.4
					c-1.9,4.8-4.3,9.5-7.1,13.8l-2.9,4.5l0.7-5.3c1-7.5,1.3-15.1,1.3-22.8c0-7.6-0.3-15.3-0.6-22.9l0-0.2l0.2-0.2l13.3-12.8
					L238.6,159z"/>
			</g>
			<g>
				<path class="st2" d="M233.5,164.3c0.3,3.3,0.6,6.5,0.7,9.8c0.1,3.3,0.1,6.6-0.2,9.9c-0.3,3.3-0.5,6.7-1.8,9.9
					c-1.2,3.1-2.9,6.2-5.3,8.5l-0.3-0.2c1-3.2,2-6.2,2.7-9.3c0.7-3.1,1.7-6.1,2.2-9.3c0.5-3.2,0.8-6.4,1-9.6
					c0.2-3.2,0.3-6.5,0.5-9.8L233.5,164.3z"/>
			</g>
			<g>
				<path class="st2" d="M255.9,173.7c0.2-2.9,0.5-5.8,0.5-8.7c0.1-2.9,0.2-5.8,0.3-8.7c0.1-2.9,0.2-5.8,0.4-8.7l0.4-8.7l1.6,0.8
					c-3.8,3.7-7.3,7.7-10.4,11.9l0.2-0.8c0.2,3.1,0.4,6.2,0.7,9.3l0.8,9.3l0.4,4.6c0.1,1.6,0.2,3,0.4,4.5c0.3,1.4,0.6,2.7,1.5,3.7
					c0.8,1,2,1.7,3.4,1.8l-0.6,0.8c-0.3-1.9-0.2-3.7,0-5.5L255.9,173.7z M256.2,173.7c-0.1,1.8-0.2,3.6-0.2,5.4
					c0,1.8,0.2,3.6,0.7,5.2l0.2,0.7l-0.9,0.1c-1.8,0.2-3.6-0.5-4.9-1.7c-1.4-1.3-2.1-3-2.5-4.6c-0.5-1.6-0.6-3.2-0.8-4.8
					c-0.2-1.6-0.3-3.1-0.5-4.7c-0.3-3.1-0.4-6.2-0.6-9.3c-0.1-3.1-0.2-6.2-0.3-9.4l0-0.5l0.3-0.3c3.3-4.3,7-8.3,11.1-11.9l1.8-1.6
					l-0.2,2.3l-0.8,8.7c-0.3,2.9-0.6,5.8-0.9,8.7c-0.3,2.9-0.6,5.8-0.9,8.7C256.5,167.9,256.3,170.8,256.2,173.7z"/>
			</g>
			<g>
				<path class="st2" d="M254,142.9c0.2,3.2,0.4,6.3,0.5,9.5c0.1,3.2,0.2,6.3,0.2,9.5c0,3.2,0.3,6.3-0.1,9.5
					c-0.4,3.1-0.9,6.3-1.9,9.4l-0.3,0c-0.6-3.2-0.8-6.4-0.8-9.5c-0.1-3.2,0.5-6.3,0.7-9.4c0.3-3.1,0.5-6.3,0.7-9.4l0.7-9.4
					L254,142.9z"/>
			</g>
			<g>
				<path class="st2" d="M241.6,194.9c0.4,1,0.6,2.1,0.9,3.2c0.2,1.1,0.4,2.2,0.5,3.3c0.1,1.1,0.4,2.3-0.1,3.5
					c-0.4,1.1-1.2,2.2-2.4,2.8l-0.3-0.1c-0.3-1.3-0.3-2.3-0.3-3.3c0-1,0.5-1.9,0.6-2.9c0.2-1,0.3-2,0.4-3.1c0.1-1.1,0.2-2.1,0.3-3.2
					L241.6,194.9z"/>
			</g>
			<g>
				<path class="st2" d="M242.1,195.5c0.5,1.3,1.3,2.4,2.3,3.3c1,0.8,2.1,1.4,3.3,1.7l2.4,0.5l-2.2,1.6c-0.6,0.4-1.2,1-1.7,1.5
					c-0.5,0.6-1,1.1-1.6,1.6c-0.6,0.5-1.2,0.9-1.8,1.4c-0.6,0.5-1.3,0.9-2.1,1.4l-0.3-0.2c0-0.9,0.3-1.8,0.6-2.6
					c0.3-0.8,0.8-1.5,1.4-2.2c0.6-0.7,1.2-1.2,2-1.6c0.8-0.4,1.5-0.8,2.3-1.2l0.2,2.1c-1.5-0.6-2.8-1.6-3.7-2.9
					c-0.9-1.2-1.5-2.7-1.5-4.1L242.1,195.5z"/>
			</g>
			<g>
				<path class="st2" d="M15.5,194.6c-0.2,0.7-0.3,1.6,0.2,1.8c0.2,0.1,0.6,0.1,1,0.1l1.2,0.1l2.3,0.1c0.2,0,0.4,0,0.4,0
					c0,0-0.1,0-0.2,0.1c-0.1,0.1,0,0.2-0.1,0.1l-0.2-0.4c0-0.1-0.1-0.3-0.1-0.5c0-0.1,0-0.3,0.1-0.5c0.1-0.2,0.3-0.3,0.4-0.4
					l0.3-0.2l0.4,0.2c2.2,1.2,4.3,2.7,6.1,4.4c0.5,0.4,0.9,0.9,1.3,1.3c0.1,0.1,0.3,0.3,0.5,0.6c0.1,0.2,0.2,0.4,0.2,0.7
					c0,0.3-0.1,0.6-0.3,0.9c-0.3,0.5-0.6,0.6-0.8,0.7l-0.4,0.2l-3.2,1.8l-2.1-1.2c0,0.2,0.2,0.4,0.2,0.4c0,0-0.2,0-0.3-0.1
					c-0.2,0-0.4,0-0.7-0.1c-0.4,0-0.7-0.1-1-0.1c-1.4-0.2-2.6-0.7-3.7-1.2l-0.9-0.4c-0.3-0.2-0.9-0.4-1.3-1.1
					c-0.3-0.6-0.2-1.1-0.2-1.4l0.1-0.9c0.2-1.2,0.3-2.5,0.6-3.7l0.3,0c0.4,1.2,0.6,2.4,0.9,3.6l0.2,0.9c0,0.3,0.2,0.5,0.2,0.4
					c0-0.1,0-0.1,0.2-0.1l0.8,0.2c1.2,0.3,2.3,0.5,3.3,0.6c0.3,0,0.5,0.1,0.8,0.1c0.3,0,0.7,0.1,1.1,0.1c0.4,0.1,0.8,0.2,1.4,0.5
					c0.3,0.2,0.5,0.4,0.8,0.7c0.2,0.3,0.4,0.8,0.4,1.1l-2.1-1.2l3.4-1.4l0.4-0.2c0.1,0,0.1-0.1-0.1,0.2c-0.2,0.2-0.1,0.7-0.1,0.7
					c0,0.1,0,0-0.1-0.1c-0.4-0.5-0.7-0.9-1.1-1.3c-1.6-1.8-3.4-3.3-5.3-4.6l0.7,0c0.1,0,0.3-0.3,0.3-0.4c0-0.1,0,0,0,0
					c0,0.1,0.1,0.3,0.2,0.7c0,0.2,0,0.4-0.1,0.7c-0.1,0.3-0.4,0.4-0.6,0.4c-0.4,0.1-0.6,0-0.8,0l-2.3-0.4l-1.1-0.2
					c-0.4-0.1-0.8-0.1-1.2-0.3c-0.5-0.3-0.6-0.8-0.6-1.3c0-0.4,0.2-0.8,0.4-1.2L15.5,194.6z"/>
			</g>
			<g>
				<path class="st2" d="M21.2,199.2c0.5-0.3,1-0.4,1.7-0.4c0.6,0,1.4,0.2,2,0.8c0.3,0.3,0.6,0.8,0.7,1.3c0.1,0.5,0,1-0.2,1.4
					c-0.3,0.4-0.7,0.7-1.2,0.9c-0.5,0.1-1.1,0-1.3-0.5l0-0.3c0.3-0.4,0.1-0.7,0-0.9c-0.1-0.2-0.3-0.3-0.3-0.3c-0.1-0.1-0.1,0,0-0.1
					c0.1,0,0.2,0,0.3-0.1c0-0.2-0.1-0.5-0.4-0.8c-0.3-0.3-0.7-0.5-1.2-0.7L21.2,199.2z"/>
			</g>
			<g>
				<path class="st2" d="M221,250.8c-0.7,0.5-1.4,1-2,1.6c-0.6,0.6-1.2,1.2-1.6,2c-0.2,0.4-0.4,0.7-0.6,1.1
					c-0.2,0.4-0.3,0.8-0.6,1.2c-0.2,0.2-0.5,0.4-0.8,0.4c-0.3,0-0.5-0.1-0.7-0.1l-1.3-0.3l-5-1.2c-1.6-0.4-3.4-0.8-4.4,0l-0.6,0.4
					l-0.5-0.5c-1.7-1.8-3.7-3.3-5.9-4.3c-0.2-0.1-0.6-0.2-1.1-0.6c-0.2-0.2-0.5-0.5-0.6-1c-0.1-0.4,0.1-0.9,0.2-1.2
					c0.4-0.5,0.7-0.8,1-0.9l0.8-0.6l3-2.4l0.5-0.4l0.6,0.2l7,2.2l3.5,1.1c1.1,0.4,2.2,0.6,3.1,0.7l-1.3,0.6c1.1-1.4,2.2-2.9,3.3-4.3
					c1.1-1.5,2.1-2.9,3.2-4.5l1.3-2l0.5,2.1c0.5,1.9,0.7,3.8,0.7,5.7c0,0.9,0.1,1.9-0.1,2.9C222.5,249.5,221.8,250.2,221,250.8z
					 M220.8,250.5c0.7-0.6,1.3-1.3,1.4-2.2c0.1-0.9-0.1-1.8-0.3-2.7c-0.4-1.8-1-3.5-1.8-5.1l1.8,0.1c-0.7,1.7-1.6,3.5-2.6,5.1
					c-1,1.6-2.1,3.2-3.3,4.7l-0.5,0.6l-0.8,0c-1.5,0-2.8-0.5-4-0.9l-3.4-1.3l-6.9-2.6l1.1-0.2l-3.1,2.2l-0.8,0.6
					c-0.3,0.2-0.5,0.3-0.5,0.3s0.1-0.1,0-0.3c0-0.1-0.1-0.2-0.1-0.2c0,0,0.3,0.2,0.6,0.3c2.4,1.3,4.5,3,6.2,5l-1.1-0.1
					c1-0.6,2.1-0.7,3-0.5c0.9,0.1,1.8,0.4,2.6,0.7l4.9,1.7l1.2,0.4c0.4,0.1,0.7,0.2,0.9,0c0.2-0.2,0.4-0.7,0.6-1
					c0.2-0.4,0.5-0.7,0.7-1.1C218.1,252.7,219.5,251.5,220.8,250.5z"/>
			</g>
			<g>
				<path class="st2" d="M200.8,248.5c0.3-0.3,0.7-0.4,1.1-0.4c0.4,0,0.7-0.1,1.1-0.1c0.8,0,1.6,0.2,2.4,0.7c0.4,0.3,0.8,0.5,1.2,1
					c0.3,0.5,0.5,1,0.4,1.6c-0.1,0.5-0.3,1.1-0.8,1.5c-0.4,0.4-1,0.6-1.6,0.4l-0.1-0.3c0.1-0.5-0.1-0.8-0.2-1
					c-0.1-0.2-0.3-0.3-0.4-0.5c-0.1-0.1-0.1-0.2-0.1-0.3c0.1-0.1,0-0.4-0.1-0.5c-0.2-0.4-0.6-0.7-1.2-1.1c-0.3-0.2-0.6-0.3-0.8-0.5
					c-0.3-0.1-0.5-0.2-0.9-0.2L200.8,248.5z"/>
			</g>
			<g>
				<path class="st2" d="M220.4,245.9c-0.1,0.5-0.2,1-0.2,1.5c0,0.4,0.1,0.8,0.2,1c0.1,0,0.2,0,0.3,0c0.1,0,0.1,0,0.1,0.1
					c0,0.1-0.1,0.2-0.1,0.4c0,0.2,0.1,0.5,0.6,0.7l0.2,0.2c0.1,0.5-0.3,1-0.8,1.2c-0.5,0.2-1,0.2-1.4,0c-0.9-0.3-1.3-1.4-1.2-2.3
					c0-0.8,0.4-1.4,0.8-1.9c0.4-0.4,0.8-0.8,1.3-1.1L220.4,245.9z"/>
			</g>
			<g>
				<path class="st2" d="M200.5,168.6c-0.4,1.1,0.1,2.4,0.9,2.9c0.4,0.3,0.8,0.4,1.3,0.4c0.5,0,1,0,1.5-0.2c0.5-0.1,1-0.3,1.2-0.6
					c0.1-0.1,0.2-0.2,0.2-0.3c0.1-0.1,0.1-0.1,0.1-0.2c0,0,0.1,0,0.2-0.1c0-0.1,0-0.3-0.1-0.5c-0.2-0.5-0.8-1.2-0.8-2l0.3-0.1
					c0.6,0.3,1.2,0.3,1.9,0.6c0.4,0.2,0.8,0.4,1.1,0.9c0.3,0.5,0.5,1.2,0.4,1.8c-0.1,0.6-0.3,1.1-0.7,1.5c-0.3,0.4-0.8,0.7-1.2,0.9
					c-0.9,0.4-1.7,0.4-2.4,0.4c-0.7,0-1.4,0-2.2-0.3c-0.8-0.2-1.5-0.7-2-1.4c-0.9-1.3-0.9-3,0-4.1L200.5,168.6z"/>
			</g>
			<g>
				<path class="st2" d="M263.9,191.8c-0.5,1-1.1,1.9-1.9,2.7c-0.8,0.8-1.7,1.6-2.6,2.2c-0.1,0.1-0.1,0.1-0.1,0.1c0,0,0,0,0,0.1
					l-0.1,0.7c-0.1,0.6-0.2,1.2-0.3,1.7c-0.3,1.1-0.8,2.2-1.5,3.2l-1-1.8c0.7-0.1,1.5-0.2,2.4-0.1c0.8,0,1.8,0.2,2.7,0.6l-1.9,0.3
					c0.5-0.7,1.1-1.5,1.6-2.1c0.3-0.3,0.6-0.7,0.9-1l0.5-0.5c0.1-0.1,0.4-0.4,0.4-0.4c0,0,0.1,0,0.1,0c0,0,0,0.1,0,0.1
					c0,0,0-0.2,0-0.4l0-1.4c0-0.9,0.1-1.8,0.2-2.8l0.3-0.1c0.5,0.8,0.9,1.7,1.2,2.5l0.5,1.3c0.1,0.2,0.2,0.4,0.2,0.9
					c0,0.2,0,0.5-0.1,0.8c-0.1,0.3-0.2,0.4-0.3,0.6l-0.8,1.2c-0.2,0.4-0.5,0.7-0.8,1.1c-0.6,0.7-1.2,1.4-1.8,2l-1,1l-0.8-0.7
					c-0.7-0.6-2.1-0.8-3.5-0.7l-2.5,0l1.5-1.8c0.6-0.8,1.1-1.6,1.5-2.5c0.2-0.5,0.4-0.9,0.5-1.4c0.1-0.2,0.1-0.5,0.2-0.9
					c0.1-0.2,0.2-0.4,0.4-0.6c0.2-0.2,0.3-0.3,0.5-0.4c1-0.5,1.9-0.9,2.7-1.6c0.8-0.6,1.6-1.4,2.3-2.3L263.9,191.8z"/>
			</g>
			<g>
				<path class="st2" d="M260.3,197.5c0-0.3,0.3-0.6,0.6-0.6c0.3-0.1,0.6-0.1,1,0.1c0.7,0.4,0.9,1.1,1,1.6c0.1,0.4,0.5,1,0.1,1.6
					c-0.2,0.3-0.5,0.6-0.9,0.7c-0.4,0.2-1,0.1-1.2-0.3l0-0.3c0.1-0.5-0.1-0.7-0.3-0.8c-0.2-0.1-0.3-0.2-0.4-0.2
					c-0.2-0.1,0.2-0.3,0.4-0.6c0.1-0.3,0.2-0.4,0.4-0.5c0.1-0.1,0.1-0.2,0-0.3c-0.1-0.1-0.2-0.2-0.3-0.2L260.3,197.5z"/>
			</g>
			<g>
				<path class="st2" d="M254.2,139.5c-2.3,1.9-4.6,3.8-6.8,5.8c-2.2,2-4.3,4.1-6.4,6.2c-2.1,2.1-4.1,4.2-6.4,6.3
					c-2.2,2-4.7,4-7.6,5.1l-3,1.2l1.9-2.7c1.8-2.6,3.2-5.4,4.2-8.3l0.1-0.2l0.2-0.2c4.5-5,10-8.6,15-12.5c2.5-2,4.9-3.9,7-6.2
					l0.8-0.9c0.3-0.3,0.5-0.6,0.9-1c0.3-0.3,0.8-0.7,1.3-0.9c0.5-0.2,1.1-0.4,1.6-0.4c1.1,0,2,0.4,2.8,0.8c0.8,0.5,1.4,1,2,1.5
					l0.6,0.5l-0.6,0.4c-1.3,0.9-2.5,1.7-3.8,2.6C256.6,137.7,255.4,138.6,254.2,139.5z M254,139.3c1.2-1,2.4-1.9,3.5-3
					c1.2-1,2.3-2,3.4-3.1l0,1c-1.3-0.8-2.8-1.6-3.9-1.3c-0.5,0.1-0.9,0.4-1.3,0.9c-0.4,0.5-0.9,1.3-1.4,1.9c-2,2.7-4.5,5-7.1,7
					c-2.6,2-5.3,3.8-7.9,5.7c-2.6,1.8-5.1,3.8-7.3,6l0.2-0.4c-1.2,3.1-2.8,6-4.8,8.6l-1.2-1.5c2.6-1,5-2.6,7.3-4.5
					c2.2-1.9,4.4-4,6.7-5.9c2.3-1.9,4.6-3.8,6.9-5.7C249.5,143.1,251.7,141.2,254,139.3z"/>
			</g>
			<g>
				<path class="st2" d="M232.1,155.3c0.2-0.5,0.5-0.9,0.9-1.3c0.3-0.2,0.3-0.4,0.9-0.5c0.2,0,0.4,0,0.6,0.1
					c0.2,0.1,0.5,0.3,0.6,0.5c0.3,0.4,0.3,0.7,0.3,0.8c0.1,0.6,0.4,1.3,0,1.8c-0.4,0.5-1,0.9-1.9,0.7l-0.2-0.2
					c-0.4-0.8-0.6-1.2-0.7-1.5c-0.1-0.3,0.3-0.4,0.4-0.7c0-0.1,0,0,0.2,0.2c0.2,0.3,0.6,0.3,0.6,0.3c0.2-0.1-0.2-0.1-0.3-0.1
					c-0.4-0.1-0.8,0-1.3,0.1L232.1,155.3z"/>
			</g>
			<g>
				<path class="st2" d="M242,151c-0.2,1.6-0.1,3.3,0.2,4.9c0.4,1.6,1.1,3,2.3,4c1.1,1,2.6,1.6,3.9,1.5c1.4-0.1,2.6-0.8,3.7-1.9
					c1.1-1.1,2-2.4,2.6-3.7c0.7-1.3,1.2-2.7,1.4-4.1c0.5-2.7-0.3-5.9-2.9-8l0.1-0.3c1.8,0.3,3.4,1.5,4.4,3.1c1,1.6,1.5,3.5,1.4,5.5
					c-0.1,1.9-0.8,3.8-1.8,5.3c-1,1.5-2.2,2.9-3.6,4c-1.4,1.1-3.3,2.1-5.3,2c-2-0.1-3.7-1.1-5-2.4c-1.3-1.4-1.9-3.1-2.1-4.8
					c-0.2-1.7,0-3.4,0.4-5.1L242,151z"/>
			</g>
			<g>
				<path class="st2" d="M243.4,145.8c0.7-0.5,1.7-0.5,2.5-0.1c0.4,0.2,0.8,0.5,1.1,0.9c0.3,0.5,0.4,0.9,0.5,1.1
					c0.1,0.2,0.2,0.1,0.2,0.1c0.1,0,0.3-0.1,0.5-0.3c0.5-0.3,1-0.8,1.4-1.3c0.8-1,1.1-2.3,1.4-3.3c0.1-0.5,0.2-0.9,0.1-1.4
					c-0.1-0.5-0.3-1.1-1-1.6l0-0.3c0.9-0.4,2,0,2.8,0.7c0.8,0.7,1.1,1.9,1.1,2.9c0,2.1-1.4,3.6-2.7,4.7c-0.7,0.6-1.4,1-2.3,1.4
					c-0.5,0.2-1,0.3-1.7,0.2c-0.3-0.1-0.7-0.3-0.9-0.5c-0.2-0.3-0.4-0.6-0.4-0.8c-0.1-0.5-0.1-0.8-0.2-1.1c-0.1-0.2-0.2-0.5-0.5-0.7
					c-0.5-0.4-1.2-0.6-1.9-0.4L243.4,145.8z"/>
			</g>
			<g>
				<path class="st2" d="M246.3,148.2c-0.6,1-0.7,2.2-0.9,3.4c-0.2,1.2-0.2,2.3,0,3.3c0.2,1,0.9,1.7,1.7,2c0.8,0.3,1.8,0.2,2.6-0.3
					c0.8-0.5,1.4-1.2,1.7-2.1c0.4-0.9,0.6-1.9,0.9-2.9c0.1-0.5,0.2-1.1,0.3-1.7c0.1-0.6,0.2-1.1,0.2-1.5c0-0.4,0-0.8-0.3-1.2
					c-0.3-0.4-0.7-0.7-1.3-0.8l0-0.3c0.6-0.3,1.4-0.3,2.1,0c0.7,0.3,1.3,1.1,1.6,1.8c0.3,0.7,0.3,1.5,0.4,2.1c0,0.6,0,1.3,0,1.9
					c-0.1,1.3-0.5,2.7-1.2,3.9c-0.8,1.2-1.9,2.3-3.3,2.9c-1.4,0.6-3,0.6-4.4-0.1c-1.4-0.7-2.3-2.2-2.4-3.6c-0.1-1.4,0.2-2.6,0.6-3.8
					c0.4-1.1,0.8-2.4,1.6-3.3L246.3,148.2z"/>
			</g>
			<g>
				<path class="st2" d="M241.8,158.7c0.4,2.2,0.5,4.4,0.5,6.6c0,1.1-0.1,2.2-0.2,3.3c-0.1,0.6-0.1,1.1-0.1,1.5
					c0,0.4,0.2,0.8,0.4,1.3c1.8,4.1,2.8,8.6,2.7,13.2l-2.4-0.5c0.3-0.9,0.4-1.9,0.5-2.9c0.1-1,0.1-2,0.1-3.1c0-2.1,0-4.3,0.4-6.6
					c0.2-1.1,0.6-2.3,1.1-3.4c0.1-0.3,0.3-0.6,0.4-0.7c0.1-0.2,0.2-0.3,0.2-0.3c0.1,0,0-0.4-0.2-0.9c-0.8-2-1.6-4-2.2-6.1l0.3-0.1
					c1.4,1.7,2.6,3.5,3.8,5.3c0.1,0.2,0.3,0.4,0.5,0.8c0.2,0.3,0.3,0.8,0.3,1.3c0,0.5-0.2,0.9-0.3,1.2c-0.1,0.3-0.2,0.5-0.3,0.7
					c-0.3,0.9-0.5,1.8-0.6,2.8c-0.2,1.9-0.2,4-0.4,6.2c-0.2,2.2-0.4,4.5-1.3,6.7l-3,7.9l0.7-8.4c0.3-4.2-0.3-8.5-1.7-12.6
					c-0.2-0.5-0.4-1.2-0.4-1.9c0-0.7,0.2-1.2,0.3-1.7c0.2-1.1,0.4-2.1,0.5-3.2c0.2-2.2,0.3-4.3,0.1-6.5L241.8,158.7z"/>
			</g>
			<g>
				<path class="st2" d="M244.2,167.3c0.4,0.2,0.7,0.5,1,0.9c0.3,0.4,0.5,0.8,0.6,1.3c0.1,0.4,0.4,1,0,1.4c-0.3,0.4-0.9,0.7-1.8,0.6
					l-0.2-0.2c-0.5-0.7-0.7-1.1-0.8-1.3c-0.2-0.3,0.3-0.4,0.4-0.6c0.1-0.2,0.3-0.5,0.4-0.8c0.1-0.3,0.2-0.7,0.2-1.1L244.2,167.3z"/>
			</g>
			<g>
				<path class="st2" d="M240.6,210.4c0.6,1.2,0.8,2.5,0.7,3.9c-0.1,0.7-0.2,1.4-0.5,2c-0.2,0.6-0.3,1.1-0.2,1.6
					c0.1,1.1,0.3,2.5,0.5,3.7l0.5,3.8l0.3,1.9l0.2,0.9c0.1,0.3,0.1,0.6,0.2,0.8c0.1,0.2,0.1,0.2,0.1,0.2c0,0,0.1,0,0.4,0.2
					c0.3,0.2,0.8,0.5,1.1,0.9c0.3,0.4,0.5,0.8,0.7,1.2c0.6,1.6,0.5,2.9,0.5,4.2c0,1.3-0.1,2.6-0.3,3.9l-0.3,0
					c-0.6-1.2-1.1-2.4-1.5-3.6c-0.4-1.2-0.7-2.5-1.2-3.2c-0.1-0.2-0.2-0.3-0.3-0.4c-0.1-0.1-0.1-0.1-0.4-0.3
					c-0.2-0.1-0.7-0.4-1.1-0.9c-0.4-0.5-0.6-1.1-0.6-1.6c-0.1-0.5,0-0.8,0-1.1l0-1l0-1.9l-0.1-3.8l0-1.9c0-0.6,0-1.3,0-2
					c0.1-0.7,0.3-1.5,0.6-2c0.3-0.6,0.5-1.1,0.7-1.7c0.3-1.2,0.3-2.4,0-3.6L240.6,210.4z"/>
			</g>
			<g>
				<path class="st2" d="M240.6,209.8c0.5,0,0.9,0.3,1.2,0.6c0.3,0.3,0.5,0.8,0.6,1.2c0.2,0.9,0.2,1.7,0.5,2.3
					c0.1,0.3,0.3,0.5,0.6,0.7c0.3,0.2,0.7,0.4,1.1,0.9c0.3,0.5,0.5,1,0.6,1.4c0.1,0.5,0.1,0.8,0.2,1.2c0.2,1.6,0.4,3.2,0.6,4.8
					l0.2,1.2c0.1,0.4,0.1,0.8,0.2,1c0.1,0.2,0.2,0.3,0.2,0.2c0,0,0,0-0.1-0.1c-0.1,0-0.2-0.1-0.4,0l2.2,1.4c0,0.9,0,1.8,0,2.6
					c-0.1,0.9-0.1,1.8-0.3,2.6c-0.2,1.8-0.6,3.5-1.2,5.3l-0.3,0c-0.6-1.8-0.9-3.5-1.1-5.3c-0.1-0.9-0.2-1.8-0.2-2.6
					c-0.1-0.9,0-1.8,0-2.6l2.2,1.4c-2.4,0.8-3.6-1.5-3.6-2.4c-0.1-0.6,0-1,0-1.4l0-1.2c0-1.6,0-3.2,0-4.8c0-0.8,0-1.6-0.2-2
					c-0.1-0.2-0.3-0.4-0.7-0.8c-0.3-0.3-0.7-0.8-0.8-1.3c-0.2-0.9-0.1-1.8-0.1-2.5c-0.1-0.7-0.4-1.5-1.1-1.6L240.6,209.8z"/>
			</g>
			<g>
				<path class="st2" d="M241.3,217.6c0.1,0.3,0.2,0.5,0.4,0.6c0.2,0.1,0.4,0,0.4-0.1c0-0.1,0.1-0.2,0.1-0.3c0-0.1,0-0.1-0.1-0.1
					c-0.1,0.2-0.2,0.6,0.3,1.3l0.1,0.3c0.1,0.9-0.6,1.3-1.1,1.4c-0.3,0-0.6-0.1-0.7-0.3c-0.2-0.2-0.3-0.5-0.4-0.8
					c-0.2-0.5-0.2-1,0-1.4c0.2-0.4,0.5-0.7,0.9-0.7L241.3,217.6z"/>
			</g>
			<g>
				<path class="st2" d="M242.4,226.7c0.3,0.1,0.5,0.1,0.7,0c0.2-0.1,0.3-0.2,0.4-0.4c0-0.1,0.1-0.2,0-0.3c0-0.1,0-0.1,0,0
					c0.1,0.2,0.2,0.6,1.1,0.7l0.3,0.1c0.6,0.6,0.4,1.4,0,1.8c-0.2,0.2-0.5,0.3-0.7,0.2c-0.3,0-0.5-0.1-0.7-0.2
					c-0.4-0.1-0.8-0.4-1.1-0.7c-0.3-0.4-0.4-0.8-0.3-1.2L242.4,226.7z"/>
			</g>
			<g>
				<path class="st2" d="M200.8,271.7c-0.1,0.2-0.2,0.3-0.3,0.5l-0.2,0.1c-0.5,0.3-1.3,0.1-1.8-0.4c-0.5-0.4-0.8-1.2-0.6-2.1
					c0.1-0.4,0.2-0.8,0.5-1.1c0.3-0.3,0.6-0.5,1-0.5c0.7-0.1,1.5,0.3,1.7,1.1l-0.1,0.3c-0.5,0.6-0.5,1-0.5,1.3c0,0.1,0.1,0.1,0,0.1
					c0,0-0.1-0.2-0.2-0.2c-0.1-0.2-0.3-0.1-0.3,0.1c0,0.2-0.1,0.4,0.2,0.6l-0.2,0.1c0.2,0,0.4,0,0.6-0.1L200.8,271.7z"/>
			</g>
			<g>
				<path class="st2" d="M20,216.7c-0.1,0.2-0.4,0.3-0.6,0.3c-0.3,0-0.5-0.2-0.7-0.4c-0.1-0.1-0.1-0.3-0.1-0.5c0-0.2,0-0.4,0.1-0.5
					c0.1-0.3,0.3-0.6,0.6-0.8c0.2-0.2,0.4-0.4,0.7-0.5c0.3-0.1,0.5-0.1,0.7,0c0.2,0.1,0.3,0.3,0.3,0.5c0.1,0.2,0.1,0.5,0.1,1L21,216
					c-0.2,0.4-0.4,0.6-0.6,0.8c-0.2,0.2-0.3,0.3-0.3,0.4c0,0.1,0,0.1,0,0c0.1-0.1,0-0.2,0.1-0.3c0-0.1,0-0.2,0.1-0.3
					c0-0.1,0-0.1,0-0.2c0-0.1-0.1-0.2-0.1-0.2c-0.1-0.1-0.2,0-0.3,0.1c-0.1,0.1-0.1,0.2,0,0.3L20,216.7z"/>
			</g>
			<g>
				<path class="st2" d="M107.8,244.2c0.7,0,1.4,0.1,2,0.4l-0.2,0.1c-0.4-3.5-0.8-7-1.2-10.5l-0.2-1.3c0-0.4-0.2-1,0.3-1.4
					c0.2-0.2,0.5-0.2,0.7-0.3c0.2-0.1,0.2-0.2,0.2-0.3c0-0.4,0-0.9,0-1.3c0-1.8-0.1-3.5-0.2-5.3c-0.1-1.7-0.3-3.5-0.7-5.2
					c-0.3-1.7-0.8-3.4-1.1-5.2c-0.7-3.5-0.6-7.2-0.6-10.7c0.2-7-1.3-13.8-2.4-20.9c-0.3-1.8-0.5-3.5-0.6-5.3c-0.1-0.9,0-2,0.3-3
					c0.2-0.5,0.6-1.1,0.6-1.3c0-0.1,0,0,0,0c0,0,0-0.1-0.1-0.2l-5.3-9.1l2.2-0.4c-0.3,1.9-0.8,3.7-1.6,5.5c-0.4,0.9-0.8,1.8-1.2,2.5
					c-0.2,0.4-0.3,0.7-0.4,1c-0.1,0.3-0.1,0.5,0,0.9l1.4,10.8c0.5,3.6,0.9,7.3,1.3,10.9l1.1,10.9c0.3,3.6,0.6,7.3,0.6,11
					c0,3.7-0.1,7.4-0.5,11c-0.4,3.7-1.2,7.2-1.2,10.8c0.1,1.7,0.4,3.6,1.7,4.8c0.6,0.6,1.5,0.9,2.3,1
					C105.9,244.4,106.9,244.2,107.8,244.2z M107.8,244.5c-0.9,0-1.8,0.2-2.7,0.2c-0.9,0-1.9-0.3-2.6-1c-1.4-1.3-1.9-3.3-2.1-5.1
					c-0.3-3.7,0.2-7.4,0.3-11c0.2-7.2-0.7-14.4-1.4-21.6L98,195.1c-0.4-3.6-0.8-7.2-1.2-10.9l-1.1-10.9c0-0.5,0-1.2,0.1-1.8
					c0.2-0.6,0.4-1.1,0.6-1.5c0.5-0.9,0.9-1.5,1.2-2.4c0.7-1.6,1.2-3.2,1.6-4.9l0.6-3.3l1.6,2.9l5.1,9.3c0.1,0.2,0.3,0.5,0.4,1
					c0.1,0.5-0.1,1-0.2,1.3c-0.3,0.6-0.5,0.7-0.6,1.1c-0.2,0.6-0.3,1.4-0.3,2.2c0.1,1.7,0.3,3.5,0.5,5.2c0.4,3.5,1,7,1.4,10.5
					c0.4,3.5,0.7,7.1,0.5,10.7c-0.1,3.5-0.3,7,0.3,10.4l0.8,5.2c0.3,1.8,0.4,3.5,0.4,5.3c0,1.8,0,3.5,0,5.3c0,0.5,0,0.8-0.1,1.4
					c0,0.3-0.3,0.6-0.5,0.7c-0.3,0.1-0.4,0.1-0.5,0.2c-0.2,0.2-0.2,0.7-0.2,1.1l0.1,1.3c0.4,3.5,0.7,7,1.2,10.5l0,0.3l-0.2-0.1
					C109.1,244.6,108.4,244.5,107.8,244.5z"/>
			</g>
			<g>
				<path class="st2" d="M99.3,171.3c0.4-0.2,0.8-0.4,1.3-0.6c0.5-0.1,1-0.2,1.6-0.1c0.6,0.1,1.2,0.5,1.6,1.1c0.4,0.6,0.4,1.4,0.3,2
					c-0.1,0.7-0.5,1.4-1,1.9c-0.5,0.5-1.2,0.8-2,0.8c-1.5,0-2.8-1.3-2.5-2.5l0.3-0.2c1.1,0.2,1.7-0.1,1.9-0.3
					c0.1-0.1,0.3-0.1,0.4-0.2c0.2,0,0.4-0.1,0.5-0.2c0.1-0.2,0.2-0.4,0.2-0.5c0-0.2-0.1-0.4-0.3-0.6c-0.5-0.4-1.4-0.4-2.3-0.4
					L99.3,171.3z"/>
			</g>
			<g>
				<path class="st2" d="M102.5,200.7c0,0,0.1,0.1,0.1,0.2c0,0.1-0.1,0.1-0.1,0.2c-0.1,0.1-0.1,0.1-0.2,0.1c-0.1,0-0.2,0-0.3-0.2
					c-0.1-0.1,0-0.2,0-0.3c0.1-0.3,0.3-0.4,0.5-0.5c0.3-0.2,0.6-0.3,1-0.3c0.7-0.1,1.5,0.1,2.1,0.5c0.7,0.4,1.2,1.1,1.4,2
					c0.2,0.8,0,1.7-0.4,2.5c-0.4,0.8-1.1,1.5-2.1,1.9c-0.3,0.1-0.6,0.1-1,0.1c-0.4-0.1-0.8-0.2-1-0.4c-0.5-0.4-0.8-0.8-1-1.1
					c-0.8-1.4-0.7-3.2,0.3-4.3l0.3,0.1c0.6,1.3,1.2,2,1.8,2.6c0.2,0.2,0.3,0.3,0.3,0.2c0,0-0.1-0.1-0.2-0.1c-0.1,0-0.1,0-0.1,0.1
					c0.1,0.1,0.5,0,0.7-0.2c0.2-0.2,0.4-0.6,0.4-1c0-0.4-0.1-0.7-0.4-1.1c-0.3-0.3-0.7-0.6-1.2-0.7c-0.2,0-0.5-0.1-0.8,0
					c-0.1,0-0.2,0.1-0.2,0c0,0,0,0,0-0.1c0-0.1-0.1-0.1-0.1,0c0,0,0,0,0,0c0,0,0,0.2,0,0.1L102.5,200.7z"/>
			</g>
			<g>
				<path class="st2" d="M103,219.1c0.7-0.5,1.9-0.4,2.7,0.4c0.8,0.8,1.1,2,0.8,3c-0.1,0.5-0.3,1.1-0.7,1.6c-0.4,0.5-1,0.9-1.8,0.9
					c-0.4,0-0.8-0.1-1.2-0.3c-0.3-0.2-0.6-0.4-0.8-0.7c-0.4-0.6-0.4-1.5,0.1-1.8l0.3,0.1c0.4,0.4,0.8,0.3,0.9,0.2
					c0.1-0.1,0.2-0.1,0.2-0.2c0-0.1,0-0.1,0-0.2c0-0.1,0-0.1,0.2-0.1c0.2,0,0.4-0.1,0.5-0.3c0.3-0.4,0.4-0.9,0.3-1.3
					c-0.1-0.5-0.7-1-1.4-1L103,219.1z"/>
			</g>
			<g>
				<path class="st2" d="M102.5,236.6c0.7-0.5,1.7-0.7,2.6-0.4c0.5,0.1,0.9,0.4,1.3,0.8c0.4,0.4,0.7,0.8,0.9,1.3
					c0.2,0.5,0.4,1.1,0.4,1.7c0,0.6-0.2,1.2-0.7,1.7c-0.5,0.5-1.3,0.9-2.1,0.7c-0.4-0.1-0.7-0.3-0.9-0.5c-0.2-0.3-0.4-0.6-0.3-0.9
					l0.3-0.1c0.5,0,0.7-0.3,0.8-0.5c0-0.2-0.1-0.3-0.2-0.4c0-0.1,0-0.2,0.2-0.4c0.1-0.1,0.2-0.4,0.2-0.6c0-0.5-0.1-1-0.6-1.4
					c-0.4-0.4-1.1-0.7-1.9-0.6L102.5,236.6z"/>
			</g>
			<g>
				<path class="st2" d="M74.4,234l3.4,0.4l-0.1,0.1c-0.2-2.2-0.4-4.4-0.5-6.6l-0.7-6.6l0-0.2l0.1-0.1l1.4-0.9l-0.1,0.3
					c-0.6-9.3-1.4-18.6-2.4-27.9c-0.5-4.6-1-9.3-1.7-13.9l-0.5-3.5c-0.1-0.6-0.2-1.2-0.3-1.6c-0.1-0.4-0.3-0.7-0.6-1.1
					c-0.3-0.4-0.7-0.8-1.1-1.2c-0.4-0.5-0.9-1.1-1.2-1.9c-0.1-0.2-0.1-0.4-0.1-0.7c0-0.2,0-0.5,0-0.6l0.1-0.9l0.1-1.7l2.4,0.4
					l-0.5,2.1l-0.3,1.1c-0.1,0.6-0.4,1.1-0.8,1.5c-0.7,0.8-1.3,1.2-1.9,1.6c-0.5,0.4-0.9,0.8-0.9,1.1c-0.1,0.3-0.1,0.9,0,1.7
					l0.1,2.2l0.3,4.3c0.4,5.8,1.1,11.5,1.8,17.2c0.4,2.9,0.7,5.7,1.1,8.6c0.4,2.8,0.9,5.8,0.7,8.9c-0.1,1.5-0.4,3.1-1.1,4.5
					c-0.3,0.7-0.8,1.4-1,1.9c-0.2,0.4-0.2,1.2-0.2,1.9c-0.1,2.9-0.2,5.8-0.3,8.7l-0.2-0.2C71.1,233.3,72.8,233.7,74.4,234z
					 M74.4,234.3c-1.7-0.2-3.4-0.6-5-1l-0.2,0l0-0.2c-0.1-2.9-0.2-5.8-0.4-8.7l-0.1-1.1c0-0.4,0-0.9,0.2-1.3c0.3-0.8,0.6-1.3,0.8-2
					c0.4-1.3,0.6-2.6,0.5-4c-0.1-2.7-0.8-5.5-1.4-8.4c-0.6-2.9-1.1-5.7-1.5-8.6c-0.9-5.8-1.4-11.6-1.7-17.4l-0.2-4.4l-0.1-2.2
					c0-0.7-0.1-1.6,0.3-2.7c0.2-0.5,0.5-1,0.9-1.3c0.3-0.3,0.7-0.6,1-0.9c0.6-0.5,1.2-0.8,1.5-1.2c0.1-0.2,0.2-0.3,0.3-0.4l0.3-1
					l0.6-2.1l2.4,0.4l-0.2,1.7l-0.1,0.9c0,0.2,0,0.2,0,0.3c0,0.1,0,0.1,0,0.2c0.1,0.3,0.3,0.6,0.6,1c0.3,0.4,0.8,0.8,1.2,1.4
					c0.4,0.5,0.8,1.3,1,2c0.1,0.7,0.2,1.2,0.3,1.8l0.4,3.5c0.5,4.6,1,9.3,1.3,14c0.4,4.7,0.7,9.3,0.9,14c0.2,4.7,0.3,9.3,0.4,14
					l0,0.2l-0.1,0.1l-1.4,0.8l0.1-0.3l0.4,6.6c0.2,2.2,0.3,4.4,0.5,6.6l0,0.2l-0.2,0L74.4,234.3z"/>
			</g>
			<g>
				<path class="st2" d="M69.1,175.2c0.9-0.6,2.2-0.4,3.1,0.5c0.4,0.5,0.7,1.1,0.8,1.7c0.1,0.7-0.1,1.3-0.4,1.9
					c-0.1,0.3-0.3,0.6-0.5,0.9c-0.1,0.1-0.2,0.3-0.3,0.4c-0.1,0.1-0.2,0.2-0.5,0.4c-0.3,0.2-1,0.3-1.6,0.1c-0.6-0.2-0.8-0.6-1-0.9
					c-0.2-0.3-0.2-0.5-0.3-0.7c0-0.2,0-0.3-0.1-0.4c0-1,0.2-2.1,1-3l0.3,0c0.4,0.5,0.7,0.9,1,1.2c0.3,0.4,0.5,0.7,0.6,1.1l0.1,0.3
					c0,0,0,0,0-0.1c0-0.1-0.1-0.2-0.5-0.4c-0.4-0.2-0.8,0-0.9,0c-0.1,0.1,0,0,0.1,0c0.1,0,0.1,0,0.2,0c0.1,0,0.2-0.1,0.3-0.2
					c0.4-0.4,0.6-1,0.4-1.5c-0.2-0.6-0.9-1.2-1.8-1.1L69.1,175.2z"/>
			</g>
			<g>
				<path class="st2" d="M73,212.3c0.9-0.3,2.2,0.1,2.8,1.2c0.6,1,0.6,2.6-0.7,3.7c-0.3,0.3-0.8,0.5-1.3,0.5c-0.5,0.1-1,0-1.4-0.2
					c-0.8-0.4-1.3-1-1.5-1.9c-0.1-0.8,0.1-1.5,0.4-2c0.3-0.5,0.8-0.8,1.4-1l0.3,0.1c0.2,0.6,0.3,1.1,0.4,1.4
					c0.1,0.3,0.3,0.6,0.4,0.6c0.1,0,0.1,0.1,0.1,0.1c0,0.1-0.2,0.2-0.1,0.3c0.2,0.1,0.7-0.5,0.6-1.1c0-0.6-0.6-1.3-1.4-1.4L73,212.3
					z"/>
			</g>
			<g>
				<path class="st2" d="M70.8,227.9c1-0.6,2.5-0.5,3.6,0.4c0.5,0.5,0.9,1.1,1.1,1.9c0.1,0.8-0.1,1.7-0.7,2.4
					c-0.3,0.3-0.7,0.6-1.2,0.8c-0.5,0.2-1.1,0.2-1.6,0.1c-1.1-0.3-1.8-1-2.1-1.9c-0.3-0.9-0.2-1.7,0.1-2.3c0.3-0.6,0.7-1.1,1.3-1.5
					l0.3,0.1c0.2,0.6,0.4,1.2,0.5,1.7c0.2,0.5,0.3,0.7,0.5,0.8c0.2,0.1,0.3,0.2,0.2,0.3c0,0,0,0.1,0,0.2c0,0,0.1,0,0.2,0
					c0.2-0.1,0.3-0.2,0.4-0.5c0.1-0.3,0-0.7-0.2-1c-0.4-0.7-1.3-1.2-2.3-1.1L70.8,227.9z"/>
			</g>
			<g>
				<path class="st2" d="M137.8,254.3l3.6,0.7l-0.2,0.2c-0.7-2.8-1.2-5.6-1.4-8.5c-0.1-1.4-0.2-2.9-0.2-4.3l0-1.1
					c0-0.4,0.1-0.8,0.2-1.1c0.1-0.4,0.3-0.7,0.5-1.1c0.3-0.3,0.8-0.6,1.3-0.5l-0.4,0.4c-0.5-7.6-1-15.3-1.3-22.9l-0.6-11.5l-0.3-5.7
					l-0.1-2.9l-0.1-1.4c0-0.5-0.1-1.2,0.4-2l-0.1,1c-1.2-3.1-3.1-5.8-5.5-8.1l2-0.5c-0.8,2.9-2.1,5.6-3.6,8.1l0-1.5
					c1,1.4,1.4,3,1.6,4.5c0.2,1.5,0.2,2.9,0.3,4.3l0.3,8.4c0.1,2.8,0.2,5.6,0.2,8.4c0.1,2.8,0.1,5.6,0.1,8.4c0,2.8,0,5.6-0.1,8.4
					c0,0.7,0,1.4,0,2.1c0,0.7-0.1,1.6-0.4,2.3c-0.3,0.8-0.7,1.4-0.9,1.9c-0.2,0.5-0.3,1.2-0.3,1.8c-0.1,2.8-0.3,5.6-0.3,8.4
					c0,0.7-0.1,1.5,0,2c0,0.6,0.7,0.7,1.4,0.8L137.8,254.3z M137.8,254.6l-4.1-0.7c-0.3-0.1-0.7-0.1-1.1-0.2
					c-0.4-0.1-0.8-0.5-0.8-0.9c-0.1-0.4-0.1-0.7-0.1-1.1l0-1c-0.1-2.8-0.3-5.6-0.4-8.4c0-0.7,0-1.5,0.2-2.3c0.2-0.8,0.6-1.4,0.7-2
					c0.3-1.1,0.1-2.4,0-3.9c-0.2-2.8-0.4-5.6-0.6-8.4c-0.2-2.8-0.3-5.6-0.4-8.4c-0.1-2.8-0.2-5.6-0.3-8.4l-0.2-8.4
					c-0.1-2.8,0.1-5.6-1.1-7.4l-0.5-0.7l0.5-0.7c1.5-2.3,2.7-4.8,3.6-7.4l0.6-1.9l1.4,1.4c2.6,2.5,4.6,5.7,5.8,9l1.2,3.3l-1.3-2.3
					c0,0-0.1,0.3-0.1,0.7l0,1.4l0.1,2.9l0.2,5.7l0.3,11.5c0.2,7.7,0.3,15.3,0.4,23l0,0.5l-0.4-0.1c-0.5-0.2-0.9,0.4-1.1,1
					c-0.1,0.3-0.2,0.6-0.2,1l0,1.1c0,1.4,0,2.9,0.1,4.3c0.2,2.8,0.6,5.7,1.3,8.5l0.1,0.2l-0.2,0L137.8,254.6z"/>
			</g>
			<g>
				<path class="st2" d="M132.4,191.5c0.3-0.6,1-1,1.8-1c0.7,0,1.4,0.3,2,0.8c0.5,0.5,1,1,1.3,1.7c0.3,0.7,0.4,1.6,0,2.6
					c-0.4,0.8-1.1,1.7-2.3,2c-0.6,0.1-1.2,0-1.7-0.3c-0.5-0.3-0.9-0.6-1.1-1.1c-0.3-0.4-0.4-0.9-0.5-1.3c0-0.5,0-0.9,0.1-1.2
					c0.2-0.7,0.6-1.3,1.1-1.8l0.3,0.1c0.3,0.7,0.5,1.3,0.7,1.7c0.1,0.2,0.2,0.4,0.3,0.5c0.1,0.1,0.2,0.2,0.3,0.2
					c0.2,0.1,0.2,0.1,0.2,0.2c0,0.1,0.3,0.1,0.4-0.1c0.4-0.3,0.3-1.4-0.3-2.2c-0.3-0.4-0.6-0.7-1-0.9c-0.4-0.1-1-0.1-1.4,0.2
					L132.4,191.5z"/>
			</g>
			<g>
				<path class="st2" d="M135.4,228.2c0.4-0.4,0.9-0.7,1.5-0.9c0.6-0.2,1.5-0.2,2.2,0.3c0.7,0.6,0.9,1.4,1,2c0.1,0.7,0.2,1.1,0,2.1
					c-0.1,0.4-0.4,1-0.7,1.4c-0.4,0.4-0.9,0.6-1.3,0.8c-0.9,0.3-1.9,0.1-2.7-0.5c-0.7-0.6-1.1-1.4-1.2-2.1c-0.1-0.7,0-1.4,0.3-2
					l0.3-0.1c0.5,0.5,0.9,0.9,1.3,1.2c0.4,0.3,0.7,0.5,0.9,0.5c0.2,0,0.4,0.1,0.5,0.1c0.1,0,0.1,0.1,0.2,0.1c0,0,0.1,0.1,0.1,0
					c0.1-0.2,0.2-0.8,0.3-1.2c0.1-0.5,0-0.8-0.1-1c-0.1-0.3-0.4-0.5-0.9-0.5c-0.5,0-1,0.1-1.6,0.3L135.4,228.2z"/>
			</g>
			<g>
				<path class="st2" d="M134.4,247.1c0.6-0.1,1.2-0.2,1.8-0.3c0.1,0,0.3-0.1,0.6,0c0.3,0.1,0.5,0.3,0.7,0.5
					c0.2,0.4,0.4,0.7,0.5,1.1c0.2,1.5-0.6,3.2-2.4,3.9c-0.4,0.1-0.9,0.2-1.5,0.1c-0.6-0.1-1.2-0.5-1.6-0.9c-0.4-0.4-0.5-0.9-0.6-1.2
					c-0.1-0.4-0.2-0.7-0.2-1c-0.1-1.3,0.2-2.7,1.2-3.8l0.3,0c0.7,1.2,1.1,2.2,1.4,3.2c0.1,0.2,0.2,0.5,0.2,0.7
					c0.1,0.2,0.1,0.3,0.1,0.4c0,0-0.2,0-0.2,0.1c0,0.1,0.1,0.1,0.3,0.1c0.5,0,1.3-0.6,1.4-1.4c0-0.2,0-0.4,0-0.6c0-0.1,0-0.1,0-0.1
					c0,0-0.1-0.1-0.2-0.1c-0.6-0.1-1.2-0.2-1.8-0.3L134.4,247.1z"/>
			</g>
			<g>
				<path class="st2" d="M214.3,261.3c3.8-5.2,7.4-10.4,10.4-16c1.5-2.8,2.9-5.7,4.6-8.4c1.7-2.8,3.7-5.3,5.6-7.9
					c3.9-5.1,7.5-10.3,11.8-15.1c2.1-2.4,4.5-4.7,6.9-6.8c2.4-2.1,4.9-4.1,7.6-6l0.2,0.2c-4.1,5-8.5,9.5-12.3,14.5
					c-3.9,5-8.1,9.8-12.2,14.7c-2,2.4-4.1,4.9-5.9,7.4c-1.8,2.6-3.3,5.4-5,8.1c-3.4,5.5-7.3,10.5-11.5,15.4L214.3,261.3z"/>
			</g>
			<g>
				<path class="st2" d="M242.6,201.7c0.2,0.2,0.4,0.3,0.7,0.4c0.2,0.1,0.4,0.1,0.6,0.2c0.2,0,0.5-0.1,0.4,0.1
					c-0.1,0.2-0.3,0.5-0.7,1.2l-0.2,0.2c-0.7,0.5-1.1,0.5-1.5,0.4c-0.4-0.1-0.2-0.6-0.2-0.9c0-0.3,0-0.6,0.1-0.9
					c0.1-0.3,0.3-0.5,0.5-0.8L242.6,201.7z"/>
			</g>
			<g>
				<path class="st2" d="M29.9,213.2c0.1,0.9,0.2,1.9,0.4,2.8c0.2,0.9,0.3,1.8,0.5,2.7c0.2,0.9,0.7,1.7,0.6,2.6
					c0,0.5-0.1,0.9-0.2,1.4c-0.1,0.5-0.3,1-0.6,1.5l-0.3,0.1c-0.5-0.3-0.9-0.7-1.2-1.2c-0.3-0.4-0.5-0.9-0.7-1.3
					c-0.4-0.9-0.1-2-0.1-2.9c0.1-1,0.2-1.9,0.4-2.9c0.2-1,0.4-1.9,0.8-2.8L29.9,213.2z"/>
			</g>
			<g>
				<path class="st2" d="M34,211.7l0.7,2.7l0.7,2.6c0.2,0.9,0.7,1.7,0.6,2.6c0,0.4-0.1,0.9-0.2,1.4c-0.1,0.5-0.3,1-0.7,1.5l-0.3,0.1
					c-0.5-0.4-0.8-0.8-1.1-1.2c-0.3-0.4-0.5-0.9-0.7-1.3c-0.4-0.9-0.1-1.9,0-2.8c0-0.9,0.1-1.9,0.2-2.8c0.2-0.9,0.3-1.8,0.5-2.8
					L34,211.7z"/>
			</g>
			<g>
				<path class="st2" d="M218,266.4c0.2,1.4,0.4,2.7,0.6,4.1c0.2,1.4,0.3,2.7,0.5,4.1c0.1,1.4,0.5,2.7,0.3,4.1
					c-0.1,0.7-0.2,1.4-0.4,2c-0.2,0.7-0.5,1.4-0.9,2h-0.3c-0.4-0.7-0.7-1.4-0.9-2c-0.2-0.7-0.4-1.4-0.4-2c-0.2-1.4,0.2-2.7,0.3-4.1
					c0.1-1.4,0.3-2.7,0.5-4.1c0.2-1.4,0.4-2.7,0.6-4.1H218z"/>
			</g>
			<line class="st3" x1="20" y1="126.7" x2="191.6" y2="159.2"/>
			<line class="st3" x1="215.3" y1="162.5" x2="267.8" y2="119.3"/>
			<line class="st3" x1="57.5" y1="80.2" x2="5" y2="123.4"/>
			<g>
				<path class="st2" d="M267.2,119.2c-1.6-5.6-3.5-11.2-5.6-16.7c-2.1-5.5-4.3-10.9-6.6-16.3c-2.3-5.4-4.8-10.7-6.8-16.2
					c-2-5.5-3.9-11.1-5.3-16.9l0.3-0.1c2.9,5.1,5.4,10.5,7.8,15.9c2.4,5.4,4.2,11,6.3,16.5c2,5.5,4,11.1,5.8,16.7
					c1.7,5.6,3.3,11.3,4.5,17.1L267.2,119.2z"/>
			</g>
			<g>
				<path class="st2" d="M34.1,15.1l7.1,16.1l7,16.2c2.3,5.4,4.8,10.8,6.5,16.4c1.8,5.6,3.2,11.4,3.8,17.3l-0.3,0.1
					c-2.2-5.5-4.2-11-6.3-16.4c-2.1-5.4-3.9-11-5.9-16.5l-6.1-16.5l-6-16.6L34.1,15.1z"/>
			</g>
			<g>
				<path class="st4" d="M263.8,49.5"/>
			</g>
			<g>
				<path class="st2" d="M34.3,13.5c3.1-2.4,6.3-4.9,10.1-6.5c1.9-0.8,3.9-1.4,6-1.6l0.8-0.1c0.1,0,0.3,0,0.5-0.1
					C52.1,5.1,52.5,5,53,4.8c0.9-0.3,1.8-0.7,2.9-1c0.5-0.1,1-0.3,1.8-0.3c0.2,0,0.3,0,0.5,0l0.4,0c0.3,0,0.5,0,0.8,0
					c1,0.1,2,0.2,3,0.4c2,0.3,3.9,0.8,5.8,1.3c3.8,1,7.5,2.3,11.4,3.3l0,0.3c-2,0.2-4,0.1-6,0c-2-0.2-4-0.5-5.9-0.8
					c-2-0.3-3.9-0.7-5.8-1c-0.9-0.2-1.9-0.3-2.8-0.5l-1.3-0.2c-0.2,0-0.7,0-1.1,0.1c-0.9,0.2-1.8,0.5-2.8,0.7
					c-0.5,0.1-1,0.3-1.6,0.3c-0.3,0-0.6,0.1-0.9,0.1l-0.7,0c-1.9,0-3.7,0.4-5.5,0.9c-1.8,0.6-3.6,1.4-5.3,2.3
					c-1.7,0.9-3.4,1.9-5.2,2.9L34.3,13.5z"/>
			</g>
			<g>
				<path class="st2" d="M267.6,49.9c5.4,3.6,9.4,9.2,11.9,15.2c2.5,6.1,3.5,12.8,3.1,19.4c-0.4,6.6-1.8,13.2-4.5,19.2
					c-2.7,6-6.1,11.6-10.3,16.6l-0.3-0.2c2.7-5.9,5.6-11.6,7.8-17.6c2.2-5.9,4.2-11.9,4.9-18.2c0.6-6.2,0-12.7-2.1-18.6
					c-2-6-5.7-11.5-10.7-15.5L267.6,49.9z"/>
			</g>
			<g>
				<path class="st2" d="M79.1,29c0.8,4,1.1,8.2,0.8,12.3c-0.3,4.1-1.2,8.2-2.3,12.2c-1.2,4-2.5,8-4.5,11.6c-2.1,3.6-4.4,7-7.3,10
					L65.4,75c1.5-3.9,3.2-7.5,4.9-11.2c1.6-3.7,3.6-7.2,4.9-11c1.4-3.8,2.5-7.6,3.1-11.6c0.7-4,0.8-8,0.4-12.1L79.1,29z"/>
			</g>
			<g>
				<path class="st2" d="M269.1,51.9c-2-1.2-4.2-2-6.4-2.3c-2.2-0.3-4.5,0-6.8,0.3c-2.3,0.3-4.4,1.1-6.6,1.5
					c-2.2,0.4-4.5,0.9-6.9,1.1l-0.1-0.3c1.8-1.8,4-2.9,6.3-3.8c2.3-0.9,4.8-0.9,7.2-1c2.4-0.1,4.9,0,7.3,0.6
					c2.4,0.7,4.6,1.9,6.3,3.5L269.1,51.9z"/>
			</g>
			<g>
				<path class="st2" d="M220.5,49.3c3.7-2.4,7.7-4.2,11.9-5.5c4.2-1.3,8.6-2.1,13-2.3l0.2,0l0.2,0.1c2,0.6,3.9,1.2,5.8,1.9
					c1.9,0.7,3.7,1.5,5.6,2.3c1.8,0.8,3.6,1.6,5.5,2.3c1.8,0.7,3.7,1.4,5.6,2l0,0.3c-2.1,0.2-4.1,0-6.2-0.3c-2-0.4-4-0.9-6-1.6
					c-1.9-0.6-3.8-1.4-5.6-2.2c-1.8-0.8-3.6-1.7-5.5-2.4l0.4,0.1c-4.2-0.1-8.5,0.3-12.6,1.3c-4.2,0.9-8.2,2.4-12.1,4.3L220.5,49.3z"
					/>
			</g>
			<g>
				<path class="st2" d="M255.6,61.6c1.8-0.9,4.1-0.7,5.9,0.1c1.9,0.7,3.6,1.9,5,3.3c2.9,2.7,5.3,6.1,6.7,10
					c1.5,3.8,2.2,8.1,1.3,12.1c-0.9,4-3,7.8-6.1,10.4l-0.2-0.2c0.9-1.8,1.6-3.5,2.2-5.3c0.5-1.8,1-3.6,1.2-5.4
					c0.2-1.8,0.3-3.6,0.3-5.4c0-1.8-0.3-3.7-0.8-5.4c-1-3.6-3-6.9-5.5-9.7c-1.3-1.4-2.7-2.6-4.4-3.5c-1.6-0.9-3.6-1.3-5.4-0.6
					L255.6,61.6z"/>
			</g>
			<g>
				<path class="st2" d="M255.9,61.4l3,6.6l1.5,3.3c0.1,0.3,0.2,0.5,0.3,0.5c0,0,0.2,0.1,0.4,0.1c0.6,0.1,1.3,0.2,1.9,0.4
					c2.6,0.9,4.7,3.1,5.4,5.9c0.3,1.4,0.3,2.9-0.1,4.2c-0.4,1.4-1.1,2.7-2.1,3.8l0.4-1.7c0.5,1.1,0.9,2.3,1.2,3.5
					c0.3,1.2,0.6,2.4,0.8,3.7c0.2,1.2,0.4,2.5,0.5,3.7c0.1,1.2,0.1,2.5,0,3.7l-0.3,0c-0.5-1.2-0.9-2.3-1.3-3.5l-1.3-3.4l-2.6-6.7
					l-0.4-1l0.8-0.7c0.7-0.6,1.3-1.4,1.6-2.4c0.4-0.9,0.5-2,0.4-3c-0.3-2-1.7-3.9-3.7-4.7c-0.5-0.2-0.9-0.4-1.6-0.5
					c-0.3-0.1-0.8-0.2-1.2-0.6c-0.4-0.4-0.5-0.8-0.6-1.1l-1.1-3.5l-2.3-6.9L255.9,61.4z"/>
			</g>
			<g>
				<path class="st2" d="M51.9,17.2c2-1.5,4.1-2.9,6.3-4.1c2.2-1.2,4.5-2.2,6.9-3.1c2.4-0.8,4.8-1.6,7.3-2.1
					c2.5-0.5,5.1-0.4,7.6-0.1L81.4,8l-0.2,0.9c-0.3,1.1-0.5,2.3-0.6,3.5l-0.3,0.1c-0.6-1.1-0.9-2.4-1-3.7l1,1.1
					c-2.4,0.4-4.8,0.9-7.2,1.2c-2.4,0.3-4.8,0.6-7.2,1.2c-2.4,0.6-4.7,1.3-7,2.2c-2.3,0.9-4.5,1.9-6.7,3.1L51.9,17.2z"/>
			</g>
			<g>
				<path class="st2" d="M130.9,24.1c-1.8-1.2-3.4-3-4.2-5.2c-0.8-2.2-0.7-4.8,0.7-6.9c0.7-1,1.7-1.8,2.7-2.4c1.1-0.6,2.2-1,3.3-1.2
					c2.3-0.5,4.5-0.7,6.9-0.6c2.3,0.1,4.8,0.7,6.9,2c2.1,1.3,3.8,3.2,4.8,5.5c0.5,1.2,0.8,2.5,0.6,3.9c-0.1,1.4-0.8,2.8-1.9,3.6
					c-1,0.8-2.1,1.2-3.1,1.7c-1,0.4-2.3,0.8-3.4,0.5l0-0.3c1.1-0.2,1.9-0.8,2.7-1.4c0.8-0.7,1.7-1.4,2.3-2c0.5-0.7,0.8-1.4,0.7-2.2
					c0-0.8-0.3-1.7-0.7-2.5c-1.8-3.3-5.1-5.9-9.2-6.3c-2-0.2-4.2-0.2-6.2,0.1c-2,0.3-4,1.1-5.2,2.6c-1.2,1.5-1.6,3.7-1.1,5.7
					c0.5,2,1.9,3.8,3.5,5.2L130.9,24.1z"/>
			</g>
			<g>
				<path class="st2" d="M133.9,23.4c-1.5-1-2.7-2.5-3.3-4.3c-0.3-0.9-0.5-1.8-0.4-2.8c0-1,0.3-2,1-2.9c0.7-0.8,1.6-1.3,2.5-1.7
					c0.9-0.4,1.8-0.6,2.6-0.9c1.7-0.5,3.6-1,5.6-0.7c2.1,0.2,4,1.2,5.5,2.7c1.5,1.5,2.5,3.7,2.2,5.9c-0.3,2.3-1.7,4.2-3.5,5.2
					c-1.7,1.1-4,1.3-5.7,0.3l0.1-0.3c3.5,0.2,6-2.9,6-5.4c0-1.3-0.5-2.6-1.4-3.7c-0.9-1.1-2.2-2-3.6-2.3c-1.4-0.3-3.1-0.1-4.8,0.3
					c-1.7,0.3-3.4,0.7-4.4,1.7c-1.1,0.9-1.2,2.8-0.8,4.4c0.4,1.6,1.3,3.2,2.6,4.3L133.9,23.4z"/>
			</g>
			<g>
				<path class="st2" d="M150.7,25l20.1,3.8l20.1,3.9c6.7,1.3,13.4,2.4,20.1,4.1c6.6,1.7,13.2,3.4,19.7,5.7l-0.1,0.3
					c-6.8-0.7-13.6-1.8-20.3-3.1c-6.7-1.2-13.3-3.1-19.9-4.7l-19.9-4.8l-19.9-5L150.7,25z"/>
			</g>
			<g>
				<path class="st2" d="M35,10.4c-0.2-0.9,0.4-1.8,1.2-2.3C37,7.6,38,7.6,38.9,7.7c1.7,0.2,3.3,0.6,4.9,0.8l9.7,1.9l0.8,0.2
					l0.1,0.9c0.1,0.8-0.3,1.6-0.7,2.1c-0.4,0.5-1.1,0.8-1.6,1c-1.2,0.3-2.1,0.2-2.9,0.1c-1.6-0.1-3.3-0.3-4.9-0.6
					c-1.6-0.3-3.2-0.7-4.8-1.2c-1.6-0.5-3.1-1-4.7-1.7l0.1-0.3c1.7-0.1,3.3-0.1,4.9,0c1.6,0,3.2,0.2,4.9,0.3
					c1.6,0.1,3.2,0.3,4.8,0.6c0.8,0.2,1.5,0.3,1.9,0.2c0.2,0,0.3-0.1,0.4-0.2c0.1-0.1,0.1-0.1,0.2-0.1l0.9,1.1L43.4,10
					c-1.6-0.5-3.2-1-4.7-1.4c-0.7-0.2-1.5-0.2-2.2,0.1c-0.7,0.3-1.2,0.9-1.2,1.7L35,10.4z"/>
			</g>
			<g>
				<path class="st2" d="M48.4,12.2c-0.2,0.1-0.4,0.2-0.5,0.2c-0.1,0.1-0.3,0.2-0.4,0.3c-0.2,0.2-0.3,0.4-0.3,0.7l0.2-1.9
					c0.1-0.1,0.1-0.2,0.1-0.2c0-0.1-0.1,0-0.1,0.1c0,0.1,0,0.2,0,0.4c0.1,0.2,0.2,0.4,0.5,0.7l0.1,0.3c0,0.4-0.1,0.7-0.4,1
					c-0.2,0.2-0.5,0.4-0.8,0.4c-0.3,0-0.6,0-0.9-0.2c-0.3-0.2-0.4-0.5-0.6-0.8l-0.7-1.5l0.9-0.3c0.6-0.2,1.1-0.3,1.6-0.2
					c0.3,0,0.5,0.2,0.7,0.3c0.2,0.1,0.4,0.3,0.5,0.5L48.4,12.2z"/>
			</g>
			<g>
				<path class="st2" d="M249.7,60.1c0.2,0.4,0.5,0.7,0.8,1c0.3,0.3,0.7,0.4,1.1,0.5c0.4,0,0.8,0,1.2-0.2c0.3-0.2,0.5-0.5,0.5-0.9
					l0.1,0.1c-1.6-1.5-2.8-3.5-3.3-5.7c-0.3-1.1-0.4-2.3-0.3-3.4c0-0.2,0-0.5,0-0.6c0-0.1-0.1-0.2-0.2-0.3c-0.1-0.1-0.3-0.2-0.5-0.3
					c-0.2-0.1-0.5-0.2-0.8-0.4c-2-1.1-3.7-2.3-5.6-3.2c-0.9-0.5-1.9-0.9-2.8-1.1c-0.9-0.3-1.9-0.3-2.6-0.2c-0.2,0-0.4,0.1-0.6,0.2
					c-0.2,0.1-0.4,0.1-0.5,0.2l-0.5,0.3c-0.1,0.1-0.1,0.2-0.1,0.1c0,0,0.1-0.1,0.1-0.2c0-0.1,0-0.1,0.1,0c0.2,0.2,0.5,0.4,0.9,0.6
					c1.9,0.9,3.8,1.8,5.7,2.6c0.5,0.2,0.9,0.4,1.5,0.6c0.5,0.2,1.2,0.5,1.7,1.1c0.6,0.6,0.9,1.3,1,1.9c0.1,0.6,0.2,1.1,0.3,1.6
					c0.1,0.5,0.2,0.9,0.5,1.2c0.3,0.4,0.7,0.8,1.1,1.2C248.8,58.1,249.1,59.2,249.7,60.1z M249.4,60.2c-0.6-0.9-1-1.9-1.8-2.6
					c-0.4-0.3-0.9-0.6-1.3-1c-0.5-0.4-0.9-0.9-1.2-1.5c-0.3-0.5-0.5-1.1-0.7-1.5c-0.2-0.4-0.5-0.7-0.7-0.8c-0.3-0.1-0.6-0.3-1.1-0.4
					c-0.5-0.1-1.1-0.3-1.6-0.4c-2.1-0.6-4.2-1.5-6.1-2.6c-0.5-0.3-1.1-0.7-1.7-1.3c-0.3-0.3-0.6-0.8-0.7-1.4c-0.1-0.6,0-1.3,0.3-1.8
					c0.3-0.5,0.6-0.8,1-1c0.3-0.2,0.6-0.3,0.9-0.5c0.3-0.2,0.6-0.3,1-0.3c0.3-0.1,0.7-0.2,1-0.2c1.3-0.2,2.6,0.1,3.7,0.5
					c1.1,0.4,2.2,0.9,3.1,1.5c1.9,1.1,3.7,2.5,5.4,3.6c0.2,0.1,0.4,0.2,0.7,0.4c0.3,0.1,0.6,0.3,0.9,0.6c0.3,0.3,0.5,0.7,0.6,1.1
					c0.1,0.4,0,0.7,0,1c-0.1,1-0.1,2,0,3c0.3,2,1.1,4,2.4,5.7l0.1,0.1l0,0.1c0,0.5-0.4,1-0.8,1.1c-0.4,0.2-0.9,0.2-1.3,0.2
					c-0.4-0.1-0.9-0.2-1.2-0.5C249.9,61,249.6,60.6,249.4,60.2z"/>
			</g>
			<g>
				<path class="st2" d="M250.5,57.7c0.3,0.1,0.5,0.1,0.6,0c0.2-0.1,0.3-0.2,0.3-0.3c0.1-0.1,0.1-0.5,0-0.3c0,0.2-0.1,0.6,0.4,1.2
					l0.1,0.3c0.2,0.8-0.2,1.3-0.6,1.5c-0.4,0.2-0.8-0.3-1-0.5c-0.3-0.2-0.4-0.6-0.5-0.9c0-0.3,0-0.7,0.2-0.9L250.5,57.7z"/>
			</g>
			<g>
				<path class="st2" d="M237.9,46.9c0.2,0.3,0.3,0.4,0.6,0.5c0.2,0.1,0.4,0.1,0.5,0.1c0.1,0,0.2-0.1,0.3-0.1c0.1-0.1,0.1-0.1,0,0
					c0,0.2-0.2,0.5,0.2,1.3l0.1,0.3c-0.1,0.9-0.8,1.2-1.3,1.2c-0.3,0-0.5-0.1-0.6-0.4c-0.1-0.2-0.2-0.5-0.3-0.7
					c-0.2-0.4-0.3-0.8-0.2-1.3c0.1-0.4,0.3-0.8,0.6-1L237.9,46.9z"/>
			</g>
			<g>
				<path class="st2" d="M63.3,11.4c6.6-0.9,13.3-0.3,19.8,0.7c6.5,1.1,13,2.6,19.4,3.9c6.5,1.4,13,2.5,19.3,4.2
					c6.4,1.7,12.7,3.5,19,5.8l-0.1,0.3c-6.6-0.7-13.1-1.9-19.6-3.2c-6.5-1.3-12.8-3.2-19.2-4.8c-6.4-1.6-12.8-3.4-19.2-4.8
					c-6.4-1.4-12.9-2.3-19.5-1.9L63.3,11.4z"/>
			</g>
			<g>
				<path class="st2" d="M262.2,79.5c-0.2,0-0.2,0.1-0.2,0.2c0,0.1,0,0.2,0,0.3c0,0.1,0.1,0.2,0.2,0.1c0,0,0.1-0.1,0.1-0.1
					c0-0.1,0-0.2,0.1-0.2c0,0,0.1-0.2,0.2-0.2c0.1-0.1,0.1-0.1,0.1,0c0,0.1,0.1,0.3,0.1,0.5c0.1,0.2,0.1,0.5,0.2,1l-0.1,0.3
					c-0.2,0.4-0.5,0.6-0.7,0.7c-0.3,0.2-0.5,0.2-0.8,0.2c-0.3,0-0.5-0.2-0.7-0.5c-0.2-0.3-0.3-0.6-0.4-1c0-0.1-0.1-0.4-0.1-0.6
					c0-0.2,0.1-0.4,0.2-0.6c0.2-0.3,0.4-0.5,0.7-0.7c0.3-0.1,0.6-0.2,0.9-0.1c0.3,0,0.6,0.3,0.6,0.6L262.2,79.5z"/>
			</g>
			<g>
				<path class="st2" d="M43.8,21.4c2,4.5,3.9,9,5.8,13.5l5.7,13.6c1.9,4.5,4,9,5.5,13.6c1.6,4.6,3,9.3,4,14.2l-0.3,0.1
					c-2.5-4.3-4.6-8.7-6.5-13.2c-1.9-4.5-3.3-9.2-5-13.8l-4.8-13.9c-1.6-4.6-3.2-9.3-4.7-13.9L43.8,21.4z"/>
			</g>
			<g>
				<path class="st2" d="M43.3,21C60,22.3,76,27.9,92.3,31c16.3,3.1,33.1,3.2,49.6,6c4.1,0.7,8.3,1.6,12.3,2.6c4,1,8,1.9,12.1,2.2
					c4.1,0.4,8.3,0.4,12.6,1c4.3,0.7,8.4,2,12.3,3.4c7.8,2.9,15.7,5.3,23.7,7.5c4,1.1,8,2.1,12.1,3c4,1,8.1,1.8,12.2,2.6l0,0.3
					c-4.2-0.3-8.3-0.9-12.4-1.5c-4.1-0.7-8.2-1.4-12.3-2.3c-8.2-1.7-16.3-4.1-24.2-6.7c-3.9-1.3-7.8-2.5-11.8-3.1
					c-4-0.6-8.1-0.7-12.4-1.1c-4.3-0.4-8.5-1.5-12.5-2.6c-4-1.1-8-2.1-12.1-2.9c-16.3-3.1-33.1-3.5-49.5-6.9
					C75.6,29,59.9,23,43.3,21.3L43.3,21z"/>
			</g>
			<g>
				<path class="st2" d="M239.5,59.3c2.6,4.3,5.1,8.8,7.4,13.3c2.3,4.5,4.4,9.2,6.4,13.9c1.9,4.7,4,9.4,5.4,14.3
					c1.5,4.9,2.2,9.8,4.4,14.3l-0.8,0.2c0.1-0.3-0.1-0.9-0.6-1.1l0-0.3c0.7,0,1.3,0.6,1.4,1.4l0,1.1l-0.8-0.9c-1.7-2-3-4.3-4-6.7
					c-1-2.4-1.8-4.8-2.6-7.2c-1.6-4.8-3-9.6-4.7-14.4c-3.4-9.5-7.4-18.8-11.8-27.9L239.5,59.3z"/>
			</g>
			<g>
				<path class="st4" d="M64.6,74.4"/>
			</g>
			<g>
				<path class="st2" d="M64.4,74.9c16.2,4.8,32.5,8.9,49,12.5c16.5,3.6,33,6.6,49.7,9c4.2,0.6,8.3,1.2,12.5,1.6
					c4.2,0.4,8.3,0.5,12.6,0.6c2.1,0.1,4.3,0.3,6.4,0.6c2.2,0.3,4.3,0.8,6.3,1.4c4.1,1.2,8.1,2.5,12.1,3.4
					c8.1,1.9,16.5,2.8,24.8,4.4c4.2,0.8,8.3,1.7,12.4,2.9c4.1,1.3,8,2.9,11.7,5.1l-0.1,0.3c-3.8-1.7-7.8-3.1-11.9-4
					c-4.1-1-8.2-1.6-12.4-2.2c-8.3-1.1-16.8-1.8-25.2-3.5c-4.2-0.9-8.3-2.2-12.3-3.3c-2-0.5-4-1.1-6-1.4c-2-0.3-4.1-0.5-6.1-0.7
					c-4.1-0.3-8.4-0.4-12.7-0.9c-4.2-0.5-8.4-1.2-12.6-1.9c-16.7-2.7-33.3-6-49.7-9.9c-16.4-4-32.7-8.5-48.8-13.7L64.4,74.9z"/>
			</g>
			<g>
				<path class="st2" d="M256.1,64.5c1.4-0.4,3.1-0.3,4.5,0.2c1.5,0.5,2.8,1.4,3.9,2.5c2.2,2.2,3.5,5.1,4.6,7.9
					c1,2.7,2.4,5.4,2.7,8.6c0.1,1.6,0,3.2-0.7,4.8c-0.6,1.5-1.8,3-3.3,3.5l-0.2-0.2c1.8-2.4,1.6-5,1.1-7.6c-0.6-2.6-1.2-5.4-2-8.2
					c-0.8-2.8-1.7-5.5-3.4-7.6c-1.7-2.1-4.4-3.7-7.2-3.4L256.1,64.5z"/>
			</g>
			<g>
				<path class="st2" d="M266.9,106.9l1.2-2.4c0.2-0.4,0.4-0.8,0.8-1.2c0.2-0.2,0.5-0.4,0.9-0.4c0.4,0,0.8,0.3,1,0.5
					c0.2,0.2,0.3,0.4,0.4,0.6l0.4,0.6l0.7,1.2c0.4,0.8,0.9,1.6,1.2,2.4c0.4,0.8,0.8,1.7,1.1,2.5c0.3,0.9,0.7,1.8,0.7,2.9
					c0,0.5,0,1.1-0.2,1.7c-0.2,0.6-0.5,1.2-0.9,1.6c-0.8,0.9-1.7,1.5-2.4,2l-1.4,0.9l-0.7-1.7c-0.4-0.9-0.8-1.9-1.1-2.8
					c-0.3-1-0.6-1.9-0.9-2.9c-0.6-2-1.1-4-1.4-6.1l0.3-0.1c1.4,1.6,2.5,3.4,3.5,5.2c0.5,0.9,1,1.8,1.4,2.8c0.4,0.9,0.8,1.9,1.1,2.9
					l-2.1-0.8c0.8-0.4,1.5-0.7,1.9-1.1c0.4-0.4,0.7-0.9,0.7-1.6c0.1-1.4-0.6-3.2-1.1-4.8c-0.3-0.8-0.6-1.7-0.9-2.5l-0.5-1.2
					l-0.3-0.6c-0.1-0.2-0.2-0.4-0.3-0.5c-0.1-0.1-0.1-0.1-0.1-0.2c0,0-0.2,0-0.3,0.1c-0.3,0.2-0.5,0.5-0.8,0.9l-1.6,2.2L266.9,106.9
					z"/>
			</g>
			<g>
				<path class="st2" d="M268.7,107.1c0.2,0.3,0.4,0.5,0.6,0.5c0.2,0,0.4,0,0.4-0.2c0-0.1,0-0.2,0-0.3c0-0.1-0.1-0.1-0.1,0
					c0,0.2,0.2,0.6,1,0.8l0.3,0.2c0.5,0.8,0.1,1.5-0.4,1.9c-0.3,0.2-0.6,0.2-0.9,0.1c-0.3-0.1-0.6-0.3-0.9-0.5
					c-0.5-0.4-0.8-0.9-0.8-1.4c0-0.5,0.1-1,0.5-1.2L268.7,107.1z"/>
			</g>
			<g>
				<path class="st2" d="M134.4,21.6c2.7,0.4,5.4,0.9,8.1,1.3l-0.5,1.2c0,0-0.2,0-0.4,0.2c-0.1,0.1-0.3,0.4-0.4,0.8
					c-0.1,0.4-0.2,0.8-0.2,1.1c0,0.3,0.1,0.5,0.2,0.5l0.7,0.4l-0.6,0.9c-0.6,0.9-1.2,1.8-1.7,2.7c-0.3,0.5-0.5,0.9-0.8,1.5
					c-0.1,0.2-0.2,0.4-0.5,0.7c-0.3,0.3-0.7,0.4-1,0.4c-0.6,0-0.9-0.1-1.2-0.1c-2.3-0.3-4.6-0.7-6.8-1.5l-2.1-0.8l1.5-1.7
					c0.7-0.8,1.4-1.5,2.2-2.1c0.7-0.7,1.6-1.3,2.4-1.9l0.6,2c-0.6-0.1-1-0.4-1.3-0.8c-0.3-0.3-0.4-0.8-0.5-1.1
					c-0.1-0.7,0.1-1.2,0.2-1.6c0.1-0.5,0.3-1,0.7-1.5c0.4-0.4,1-0.7,1.5-0.6l0,0.3c-0.4,0.1-0.6,0.5-0.7,0.8c-0.1,0.3-0.1,0.7,0,1.1
					c0,0.4,0.1,0.9,0.2,1.1c0.1,0.2,0.3,0.1,0.1,0l0.6,2c-0.6,0.7-1.3,1.4-1.9,2.2l-1.8,2.2l-0.7-2.5c2,0.7,4.1,1.5,6.2,2
					c0.3,0.1,0.6,0.1,0.5,0.1c0,0-0.2,0-0.3,0.1c-0.1,0.1-0.1,0.1,0,0c0.3-0.5,0.6-1,0.9-1.5c0.7-1,1.4-1.9,2.2-2.8L140,28
					c-0.6-0.6-0.7-1.4-0.6-1.9c0.1-0.6,0.2-1,0.4-1.5c0.2-0.4,0.4-1,0.9-1.4c0.3-0.2,0.6-0.4,0.9-0.4c0.3-0.1,0.8,0,1.1,0.2l3.4,2.4
					l-3.9-1.1c-2.6-0.8-5.3-1.5-7.9-2.3L134.4,21.6z"/>
			</g>
			<g>
				<path class="st2" d="M113.4,23.3c-0.6,0.4-0.5,1.2-0.1,1.4c0.3,0.3,0.9,0.4,1.4,0.3c0.3,0,0.5-0.2,0.7-0.3
					c0.2-0.1,0.2-0.2,0.4-0.2c0.1,0.1,0.3,0.1,0.5-0.1c0.2-0.1,0.5-0.3,0.7-0.8l0.2-0.2c0.6,0.1,1.1,0.7,1.2,1.4
					c0.1,0.7-0.1,1.4-0.6,1.9c-0.5,0.5-1.1,0.8-1.7,0.8c-0.6,0-1.1-0.1-1.6-0.2c-0.5-0.1-1-0.3-1.4-0.7c-0.4-0.3-0.8-0.8-1-1.3
					c-0.2-0.6-0.1-1.2,0.2-1.6c0.2-0.5,0.8-0.8,1.2-0.7L113.4,23.3z"/>
			</g>
			<g>
				<path class="st2" d="M159.4,30.6c-0.5,0.7-0.2,1.7,0.4,2.1c0.5,0.4,1.3,0.4,2,0.2c0.4-0.1,0.6-0.3,0.8-0.5
					c0.2-0.2,0.1-0.3,0.2-0.1c0.1,0.2,0.3,0.2,0.3-0.2c-0.1-0.4-0.3-0.8-0.6-1.4l0.1-0.3c0.6-0.2,1.2-0.2,1.9,0.1
					c0.3,0.2,0.7,0.4,0.9,0.9c0.3,0.4,0.4,1,0.3,1.5c-0.1,0.6-0.3,1-0.6,1.4c-0.3,0.3-0.7,0.6-1,0.7c-0.7,0.3-1.4,0.3-2,0.3
					c-0.6,0-1.3-0.1-1.8-0.4c-0.6-0.3-1.1-0.7-1.5-1.3c-0.3-0.6-0.4-1.2-0.3-1.8c0.1-0.6,0.5-1.2,1-1.4L159.4,30.6z"/>
			</g>
			<g>
				<path class="st2" d="M57.5,80.9l52.1,9l52.1,9.1c17.4,3,34.7,5.9,52,9.3c8.6,1.7,17.3,3.4,25.9,5.2l12.9,2.8
					c4.3,1,8.6,1.9,12.9,2.9l-0.1,0.3c-4.4-0.6-8.7-1.2-13.1-1.9l-13.1-2c-8.7-1.4-17.4-2.9-26.1-4.3c-17.4-3-34.6-6.5-51.9-9.9
					l-51.9-10L57.5,81.2L57.5,80.9z"/>
			</g>
			<g>
				<path class="st2" d="M35.3,15l52.1,9l52.1,9.1c17.4,3,34.7,5.9,52,9.3c8.6,1.7,17.3,3.4,25.9,5.2l12.9,2.8
					c4.3,1,8.6,1.9,12.9,2.9l-0.1,0.3c-4.4-0.6-8.7-1.2-13.1-1.9l-13.1-2c-8.7-1.4-17.4-2.9-26.1-4.3c-17.4-3-34.6-6.5-51.9-9.9
					l-51.9-10L35.3,15.3L35.3,15z"/>
			</g>
			<g>
				<path class="st2" d="M10.4,119.5c2.4-0.5,5-0.5,7.5-0.1c1.3,0.2,2.5,0.6,3.7,0.9c0.6,0.2,1.2,0.4,1.8,0.6c0.6,0.3,1.2,0.6,1.7,1
					l2.7,2l-3,0.7c-0.8,0.2-1.6,0.3-2.5,0.4c-0.9,0.1-1.7,0.1-2.6-0.1l-0.1-0.3c0.6-0.7,1.4-1.2,2.1-1.6c0.7-0.5,1.5-0.9,2.2-1.2
					l-0.3,2.7c-0.5-0.3-1-0.5-1.5-0.8c-0.5-0.3-1-0.6-1.5-0.9c-1-0.6-2.1-1-3.2-1.4c-2.2-0.8-4.6-1.4-7-1.6L10.4,119.5z"/>
			</g>
			<g>
				<path class="st2" d="M25.3,123.3c15.9,2.6,31.8,5.1,47.6,7.8c15.8,2.8,31.7,5.7,47.4,9l11.8,2.5c1.9,0.4,3.9,0.7,5.8,0.9
					c1.9,0.2,3.9,0.2,5.9,0.3c2,0.1,4.1,0.2,6.2,0.5c2.1,0.3,4.1,0.8,6.1,1.4c2,0.6,3.9,1.2,5.8,1.8c1.9,0.6,3.8,1.2,5.7,1.7
					c7.7,2.2,15.5,3.8,23.4,5.2c3.9,0.7,7.9,1.3,11.9,1.9l11.9,1.8l0,0.3c-4-0.2-8-0.5-12.1-0.8c-4-0.3-8-0.7-12-1.2
					c-8-0.9-16-2.3-23.9-4.3c-2-0.5-3.9-1.1-5.9-1.7c-1.9-0.6-3.8-1.2-5.7-1.8c-1.9-0.5-3.8-1.1-5.7-1.4c-1.9-0.3-3.8-0.5-5.8-0.6
					c-2-0.1-4-0.2-6.1-0.4c-2.1-0.2-4.1-0.6-6.1-1.1l-11.8-2.7c-15.7-3.6-31.4-6.8-47.2-9.9c-15.8-3.1-31.6-6.1-47.4-9L25.3,123.3z"
					/>
			</g>
			<g>
				<path class="st2" d="M214.8,158c2.4-3.9,5.5-7.3,8.8-10.3c3.4-3.1,7-5.8,10.7-8.5c3.7-2.7,7.2-5.5,10.9-7.9
					c3.7-2.5,7.2-5.1,10.8-7.9l0.2,0.2c-2.4,3.9-5.7,7.2-9.3,10.1c-3.5,2.9-7.5,5.1-11.3,7.5c-3.8,2.4-7.5,4.9-11,7.6
					c-3.5,2.7-6.8,5.8-9.5,9.4L214.8,158z"/>
			</g>
			<g>
				<path class="st2" d="M16.3,119.6l24-21.1l6-5.3c2-1.7,3.9-3.6,6.2-5.1c1.2-0.7,2.4-1.4,3.8-1.7c1.4-0.4,2.8-0.5,4.2-0.4
					c2.8,0.2,5.4,1,7.9,1.6c20.6,5.2,41.9,6,63,9c5.3,0.7,10.6,1.6,15.8,2.7c5.3,1.1,10.4,2.5,15.5,3.6c5.1,1.1,10.3,1.7,15.6,2.3
					c2.6,0.3,5.3,0.7,8,1.2c2.6,0.5,5.3,1,7.9,1.7c10.4,2.7,20.4,6.5,30.5,9.4c5.1,1.5,10.2,2.7,15.4,3.5c5.2,0.8,10.5,1,15.8,0.5
					l0,0.3c-5.3,1-10.7,1-16,0.6c-5.3-0.5-10.6-1.6-15.8-2.8c-5.2-1.3-10.3-2.9-15.4-4.4c-5.1-1.5-10.2-3-15.3-4.2
					c-2.6-0.6-5.1-1.1-7.7-1.6c-2.6-0.4-5.2-0.8-7.8-1.1c-5.3-0.6-10.6-1.3-15.9-2.5c-5.2-1.2-10.3-2.7-15.5-3.9
					c-5.1-1.2-10.3-2.2-15.6-3c-20.9-3.3-42.4-4.3-63.1-9.9c-2.6-0.7-5.1-1.5-7.6-1.7c-1.3-0.1-2.5-0.1-3.7,0.2
					c-1.2,0.3-2.4,0.8-3.5,1.5C51,90.5,49,92.3,46.9,94l-6.1,5.2l-24.3,20.6L16.3,119.6z"/>
			</g>
			<g>
				<path class="st2" d="M57.4,86.6c0.4,3.6,0.7,7.1,1,10.7l0.9,10.7c0.3,3.6,0.8,7.1,0.7,10.7c0,1.8-0.1,3.6-0.2,5.4
					c-0.1,0.9-0.2,1.8-0.3,2.7c-0.1,0.4-0.1,0.9-0.2,1.3c0,0.4-0.1,0.4,0.1,0.4l0.2-0.2c0.1,0,0.2,0.2,0.2,0.3
					c0,0.1-0.1,0.2-0.1,0.3c-0.1,0.1-0.3,0.3-0.6,0.2c-0.5-0.2-0.5-0.6-0.6-0.8l-0.3-1.4c-0.2-0.9-0.3-1.8-0.5-2.7
					c-0.3-1.8-0.5-3.6-0.7-5.3c-0.4-3.6-0.1-7.2-0.1-10.7l0-10.7c0.1-3.6,0.1-7.2,0.2-10.8L57.4,86.6z"/>
			</g>
			<g>
				<path class="st2" d="M255.3,121.5c0.6-0.3,1.3-0.4,2-0.6c0.7-0.1,1.3-0.2,2-0.3c0.7,0,1.4-0.3,2,0c0.3,0.2,0.6,0.4,0.9,0.7
					c0.3,0.3,0.5,0.6,0.7,1.1l-0.1,0.3c-0.4,0.3-0.8,0.5-1.1,0.6c-0.4,0.1-0.7,0.2-1,0.2c-0.6,0.1-1.2-0.4-1.8-0.6l-1.8-0.6
					c-0.6-0.2-1.2-0.4-1.9-0.6L255.3,121.5z"/>
			</g>
			<g>
				<path class="st2" d="M213.2,157.8c0.5,0.1,0.9,0.3,1.3,0.4c0.4,0.1,0.8,0.2,1.2,0.3c0.4,0.1,0.9-0.1,1.1,0.2
					c0.1,0.2,0.2,0.3,0.3,0.6c0.1,0.3,0.2,0.6,0.3,1l-0.1,0.3c-0.3,0.4-0.6,0.5-0.9,0.7c-0.3,0.1-0.6,0.2-0.8,0.2
					c-0.6,0-0.8-0.6-1.2-0.9c-0.3-0.4-0.6-0.8-0.9-1.2c-0.2-0.4-0.4-0.9-0.6-1.4L213.2,157.8z"/>
			</g>
			<g>
				<path class="st2" d="M190.8,158.8c0.1-0.5,0.3-0.9,0.4-1.3c0.2-0.4,0.4-0.8,0.6-1.2c0.2-0.4,0.3-1,0.8-1.1
					c0.2-0.1,0.5-0.1,0.8-0.1c0.3,0,0.6,0.1,1,0.3l0.2,0.2c0.1,0.5,0.1,0.8,0.1,1.1c0,0.3-0.1,0.5-0.2,0.7c-0.1,0.4-0.7,0.4-1.1,0.5
					c-0.4,0.2-0.8,0.3-1.2,0.5c-0.4,0.1-0.8,0.3-1.3,0.4L190.8,158.8z"/>
			</g>
		</g>
		<g>
			<g>
				<path class="st2" d="M25.7,141.4c0.8,0.8,1.5,1.6,2.2,2.5c0.7,0.8,1.4,1.7,2.1,2.5c0.7,0.9,1.6,1.6,2,2.6c0.2,0.5,0.4,1,0.5,1.6
					c0.1,0.6,0.2,1.2,0.1,1.9l-0.3,0.2c-0.6-0.2-1.2-0.6-1.6-0.9c-0.5-0.3-0.9-0.7-1.2-1.2c-0.8-0.8-1-1.9-1.4-2.9
					c-0.5-1-0.9-2-1.3-3c-0.4-1-0.8-2-1.2-3.1L25.7,141.4z"/>
			</g>
			<g>
				<path class="st2" d="M24,144.7c0.7,0.8,1.4,1.6,2.1,2.4c0.7,0.8,1.3,1.7,2,2.5c0.6,0.9,1.5,1.6,1.8,2.6c0.2,0.5,0.3,1,0.4,1.6
					c0.1,0.6,0.1,1.2,0,1.8l-0.3,0.1c-0.6-0.2-1.1-0.6-1.6-0.9c-0.5-0.3-0.8-0.7-1.2-1.1c-0.7-0.8-0.9-1.9-1.3-2.9
					c-0.4-1-0.8-2-1.2-3c-0.4-1-0.7-2-1.1-3L24,144.7z"/>
			</g>
			<g>
				<path class="st2" d="M25.7,154.8l1.9,2.2l1.9,2.2c0.6,0.7,1.5,1.3,1.8,2.2c0.2,0.4,0.4,0.9,0.4,1.4c0.1,0.5,0.2,1.1,0.1,1.7
					l-0.2,0.2c-0.6-0.1-1.1-0.4-1.6-0.6c-0.5-0.3-0.9-0.6-1.2-1c-0.7-0.7-0.9-1.7-1.4-2.6c-0.4-0.9-0.8-1.8-1.1-2.7
					c-0.3-0.9-0.6-1.9-0.9-2.8L25.7,154.8z"/>
			</g>
			<g>
				<path class="st2" d="M25.4,162.6c0.9,0.7,1.7,1.4,2.6,2.1c0.8,0.7,1.6,1.4,2.4,2.2c0.8,0.7,1.8,1.3,2.3,2.3
					c0.3,0.5,0.5,1,0.7,1.5c0.2,0.5,0.3,1.1,0.4,1.8l-0.2,0.2c-0.7-0.1-1.2-0.4-1.7-0.7c-0.5-0.3-1-0.6-1.4-1
					c-0.9-0.7-1.3-1.8-1.9-2.7c-0.6-0.9-1.2-1.8-1.7-2.8c-0.5-1-1.1-1.9-1.6-2.9L25.4,162.6z"/>
			</g>
			<g>
				<path class="st2" d="M27.2,170.5c0.8,0.7,1.6,1.4,2.3,2.1c0.8,0.7,1.5,1.4,2.2,2.2c0.7,0.7,1.7,1.3,2.1,2.3
					c0.2,0.5,0.4,1,0.6,1.5c0.1,0.5,0.2,1.1,0.2,1.8l-0.2,0.2c-0.7-0.1-1.2-0.4-1.7-0.7c-0.5-0.3-0.9-0.6-1.3-1
					c-0.8-0.7-1.1-1.7-1.6-2.6c-0.5-0.9-1-1.8-1.5-2.7c-0.5-0.9-1-1.9-1.4-2.8L27.2,170.5z"/>
			</g>
			<g>
				<path class="st2" d="M28.3,177.6l2.2,2.3l2.1,2.3c0.7,0.8,1.6,1.3,2.1,2.3c0.2,0.5,0.4,0.9,0.6,1.5c0.2,0.5,0.3,1.1,0.3,1.8
					l-0.2,0.2c-0.7-0.1-1.2-0.4-1.7-0.6c-0.5-0.3-0.9-0.6-1.3-1c-0.8-0.7-1.1-1.8-1.6-2.7c-0.5-0.9-1-1.9-1.4-2.9
					c-0.4-1-0.8-2-1.2-3L28.3,177.6z"/>
			</g>
			<g>
				<path class="st2" d="M29.5,186.5c0.8,0.6,1.6,1.2,2.3,1.7c0.8,0.6,1.5,1.2,2.2,1.8c0.7,0.6,1.7,1.1,2.1,1.9
					c0.2,0.4,0.5,0.9,0.6,1.4c0.2,0.5,0.3,1,0.3,1.7l-0.2,0.2c-0.6-0.1-1.2-0.3-1.6-0.5c-0.5-0.2-0.9-0.5-1.3-0.8
					c-0.8-0.6-1.1-1.5-1.7-2.3c-0.5-0.8-1.1-1.6-1.6-2.4c-0.5-0.8-1-1.7-1.4-2.5L29.5,186.5z"/>
			</g>
			<g>
				<path class="st2" d="M82.2,217.6c0.5,0.4,1,0.9,1.5,1.3c0.5,0.4,1,0.8,1.4,1.2c0.5,0.4,1.1,0.6,1.3,1.2c0.1,0.3,0.2,0.6,0.2,1
					c0,0.4,0,0.8-0.1,1.3l-0.2,0.2c-0.5,0.1-0.9,0-1.3-0.1c-0.4-0.1-0.7-0.3-1-0.5c-0.6-0.4-0.7-1.1-0.9-1.7
					c-0.3-0.6-0.5-1.2-0.7-1.8c-0.2-0.6-0.4-1.3-0.5-1.9L82.2,217.6z"/>
			</g>
			<g>
				<path class="st2" d="M80.1,209.3c0.6,0.4,1.2,0.9,1.7,1.3c0.6,0.5,1.1,0.9,1.6,1.4c0.5,0.5,1.3,0.8,1.5,1.5
					c0.1,0.3,0.2,0.7,0.3,1.1c0,0.4,0,0.8-0.1,1.4l-0.2,0.2c-0.6,0-1-0.1-1.4-0.3c-0.4-0.2-0.7-0.4-1-0.6c-0.6-0.4-0.7-1.2-1-1.9
					c-0.3-0.6-0.6-1.3-0.9-2c-0.3-0.7-0.6-1.3-0.8-2.1L80.1,209.3z"/>
			</g>
			<g>
				<path class="st2" d="M79.2,200.8c0.5,0.6,1,1.3,1.6,1.9c0.5,0.6,1,1.2,1.6,1.8c0.5,0.6,1.3,1,1.6,1.7c0.2,0.4,0.3,0.7,0.4,1.2
					c0.1,0.4,0.2,0.9,0.1,1.5l-0.2,0.2c-0.6,0-1.1-0.1-1.5-0.3c-0.4-0.2-0.8-0.4-1.1-0.7c-0.7-0.5-0.9-1.5-1.2-2.2
					c-0.4-0.8-0.6-1.6-0.9-2.4c-0.2-0.8-0.4-1.6-0.5-2.5L79.2,200.8z"/>
			</g>
			<g>
				<path class="st2" d="M77.8,192.6c0.7,0.5,1.2,1,1.9,1.5c0.6,0.5,1.2,1,1.8,1.6c0.6,0.5,1.3,0.9,1.6,1.7c0.2,0.4,0.3,0.8,0.3,1.2
					c0.1,0.4,0.1,0.9,0,1.5l-0.2,0.2c-0.6,0-1-0.2-1.4-0.4c-0.4-0.2-0.7-0.4-1.1-0.7c-0.6-0.5-0.8-1.3-1.2-2c-0.4-0.7-0.7-1.4-1-2.1
					c-0.3-0.7-0.6-1.4-0.9-2.2L77.8,192.6z"/>
			</g>
			<g>
				<path class="st2" d="M77.9,185.4c0.6,0.6,1.1,1.2,1.6,1.8l1.6,1.7c0.5,0.6,1.3,0.9,1.5,1.7c0.2,0.4,0.3,0.7,0.3,1.2
					c0.1,0.4,0.1,0.9,0,1.5l-0.2,0.2c-0.6,0-1-0.2-1.5-0.3c-0.4-0.2-0.8-0.4-1.1-0.7c-0.7-0.5-0.8-1.4-1.2-2.2
					c-0.3-0.7-0.6-1.5-0.9-2.3c-0.2-0.8-0.4-1.6-0.6-2.4L77.9,185.4z"/>
			</g>
			<g>
				<path class="st2" d="M77.8,178.3c0.6,0.4,1.2,0.9,1.8,1.3c0.6,0.4,1.1,0.9,1.7,1.4c0.5,0.5,1.3,0.8,1.5,1.5
					c0.1,0.3,0.3,0.7,0.3,1.1c0.1,0.4,0.1,0.8-0.1,1.4l-0.2,0.2c-0.6,0-1-0.1-1.4-0.3c-0.4-0.1-0.7-0.3-1-0.6
					c-0.6-0.4-0.7-1.2-1.1-1.8c-0.3-0.6-0.7-1.3-1-1.9c-0.3-0.7-0.6-1.3-0.8-2L77.8,178.3z"/>
			</g>
			<g>
				<path class="st2" d="M76.8,170.4c0.7,0.4,1.3,0.9,1.9,1.3c0.6,0.5,1.2,1,1.7,1.5c0.5,0.5,1.3,0.9,1.5,1.7
					c0.1,0.4,0.2,0.7,0.2,1.2c0,0.4,0,0.9-0.2,1.4l-0.3,0.2c-0.6-0.1-1-0.2-1.3-0.4c-0.4-0.2-0.7-0.4-1-0.6c-0.6-0.5-0.7-1.3-1-1.9
					c-0.3-0.6-0.6-1.3-1-2c-0.3-0.7-0.6-1.3-0.9-2L76.8,170.4z"/>
			</g>
			<g>
				<path class="st2" d="M75.7,164.3c0.7,0.3,1.4,0.7,2,1.1c0.7,0.4,1.3,0.9,1.9,1.4c0.6,0.5,1.4,0.8,1.7,1.6
					c0.2,0.4,0.3,0.7,0.4,1.2c0.1,0.4,0.1,0.9-0.1,1.4l-0.2,0.2c-0.6-0.1-1-0.2-1.4-0.4c-0.4-0.2-0.7-0.4-1-0.6
					c-0.6-0.4-0.8-1.2-1.2-1.9l-1.2-1.9l-1.2-2L75.7,164.3z"/>
			</g>
			<g>
				<path class="st2" d="M75.3,157.9c0.5,0.5,0.9,0.9,1.3,1.3l1.3,1.3c0.4,0.4,1.1,0.6,1.3,1.2c0.1,0.3,0.2,0.6,0.2,0.9
					c0,0.4,0,0.8-0.1,1.3l-0.2,0.2c-0.5,0.1-0.9,0-1.3-0.1c-0.4-0.1-0.7-0.3-1-0.5c-0.6-0.4-0.7-1.1-0.9-1.7
					c-0.3-0.6-0.5-1.2-0.6-1.9c-0.1-0.6-0.3-1.3-0.3-1.9L75.3,157.9z"/>
			</g>
			<g>
				<path class="st2" d="M75.7,152.5c0.9,0.5,1.6,1.1,2.4,1.6c0.8,0.6,1.6,1.2,2.3,1.8c0.7,0.6,1.7,1.1,2.1,2
					c0.2,0.4,0.4,0.9,0.6,1.4c0.1,0.5,0.2,1.1,0.2,1.7l-0.2,0.2c-0.6-0.1-1.1-0.3-1.6-0.6c-0.5-0.2-0.9-0.5-1.2-0.8
					c-0.8-0.6-1.1-1.5-1.6-2.3c-0.5-0.8-1.1-1.6-1.6-2.4c-0.5-0.8-1.1-1.6-1.6-2.4L75.7,152.5z"/>
			</g>
			<g>
				<path class="st2" d="M113,228.5c0.6,0.2,1.2,0.5,1.8,0.8c0.6,0.3,1.1,0.6,1.7,0.9c0.5,0.3,1.3,0.5,1.6,1c0.2,0.3,0.3,0.6,0.4,1
					c0.1,0.4,0.1,0.8,0.1,1.3l-0.2,0.2c-0.5,0.1-0.9,0.1-1.3,0c-0.4-0.1-0.7-0.2-1-0.3c-0.6-0.3-0.8-1-1.1-1.5c-0.4-0.5-0.7-1-1-1.6
					c-0.3-0.6-0.7-1.1-0.9-1.7L113,228.5z"/>
			</g>
			<g>
				<path class="st2" d="M113.9,221.2c0.7,0.4,1.3,0.9,1.9,1.4c0.6,0.5,1.2,1,1.8,1.5c0.6,0.5,1.4,0.8,1.7,1.5
					c0.2,0.3,0.3,0.7,0.4,1.2c0.1,0.4,0.1,0.9,0.1,1.5l-0.2,0.2c-0.6,0-1-0.1-1.4-0.3c-0.4-0.1-0.8-0.4-1.1-0.6
					c-0.7-0.4-0.9-1.3-1.3-2c-0.4-0.7-0.8-1.4-1.2-2c-0.3-0.7-0.7-1.4-1-2.1L113.9,221.2z"/>
			</g>
			<g>
				<path class="st2" d="M112.4,211.5c0.5,0.5,0.9,1.1,1.4,1.5c0.5,0.5,0.9,0.9,1.4,1.4c0.5,0.4,1.2,0.7,1.4,1.3
					c0.1,0.3,0.3,0.6,0.3,1c0.1,0.4,0.1,0.8,0.1,1.3l-0.2,0.2c-0.5,0.1-1,0.1-1.4,0c-0.4-0.1-0.8-0.3-1.1-0.5
					c-0.7-0.4-0.8-1.2-1.2-1.9c-0.3-0.7-0.6-1.4-0.8-2.1c-0.2-0.7-0.3-1.4-0.3-2.1L112.4,211.5z"/>
			</g>
			<g>
				<path class="st2" d="M111,201.9c0.5,0.6,0.9,1.2,1.4,1.8c0.5,0.6,1,1.1,1.4,1.7c0.5,0.6,1.2,0.9,1.4,1.6
					c0.1,0.3,0.2,0.7,0.3,1.1c0.1,0.4,0.1,0.9,0,1.4l-0.2,0.2c-0.6,0-1-0.1-1.4-0.3c-0.4-0.2-0.8-0.4-1.1-0.7
					c-0.6-0.5-0.8-1.4-1-2.1c-0.3-0.7-0.5-1.5-0.7-2.3c-0.2-0.8-0.3-1.5-0.4-2.3L111,201.9z"/>
			</g>
			<g>
				<path class="st2" d="M110.7,194.7l1.8,2.2c0.6,0.7,1.2,1.4,1.7,2.2c0.6,0.7,1.4,1.3,1.7,2.2c0.2,0.4,0.3,0.9,0.4,1.4
					c0.1,0.5,0.1,1,0,1.6l-0.2,0.2c-0.6-0.1-1.1-0.4-1.5-0.6c-0.4-0.3-0.8-0.6-1.1-0.9c-0.7-0.7-0.9-1.7-1.2-2.6
					c-0.4-0.9-0.7-1.8-1-2.7c-0.3-0.9-0.6-1.8-0.7-2.8L110.7,194.7z"/>
			</g>
			<g>
				<path class="st2" d="M111.3,187.3c0.6,0.5,1.1,1.1,1.6,1.7c0.5,0.6,1,1.1,1.4,1.7c0.5,0.6,1.2,1,1.3,1.8
					c0.1,0.4,0.2,0.7,0.1,1.2c0,0.4-0.1,0.9-0.3,1.4l-0.3,0.2c-0.5-0.1-1-0.3-1.3-0.5c-0.4-0.2-0.7-0.5-0.9-0.8
					c-0.6-0.5-0.6-1.4-0.8-2.1c-0.2-0.7-0.5-1.4-0.7-2.2c-0.2-0.7-0.4-1.5-0.5-2.2L111.3,187.3z"/>
			</g>
			<g>
				<path class="st2" d="M110.3,178.3l1.3,1.3c0.4,0.4,0.8,0.8,1.2,1.3c0.4,0.4,1,0.7,1.1,1.2c0.1,0.3,0.1,0.6,0.1,0.9
					c0,0.3-0.1,0.7-0.2,1.2l-0.2,0.2c-0.5,0-0.9-0.1-1.3-0.2c-0.4-0.1-0.6-0.3-0.9-0.5c-0.5-0.4-0.5-1.1-0.7-1.7
					c-0.2-0.6-0.3-1.2-0.5-1.8c-0.1-0.6-0.2-1.2-0.2-1.8L110.3,178.3z"/>
			</g>
			<g>
				<path class="st2" d="M110,171.8c0.5,0.2,1,0.4,1.6,0.7c0.5,0.3,1,0.6,1.4,1c0.4,0.4,1.1,0.6,1.2,1.2c0.1,0.3,0.1,0.6,0,0.9
					c-0.1,0.3-0.2,0.7-0.4,1.1l-0.3,0.1c-0.5,0-0.8-0.1-1.1-0.3c-0.3-0.1-0.5-0.2-0.7-0.4c-0.4-0.3-0.4-0.9-0.5-1.3l-0.6-1.4
					c-0.2-0.5-0.4-1-0.6-1.5L110,171.8z"/>
			</g>
			<g>
				<path class="st2" d="M109.5,164.1l3.5,4.3c0.6,0.7,1.4,1.3,1.7,2.1c0.2,0.4,0.3,0.9,0.4,1.4c0.1,0.5,0.1,1,0.1,1.6l-0.2,0.2
					c-0.6-0.1-1.1-0.3-1.6-0.6c-0.4-0.3-0.8-0.6-1.2-0.9c-0.7-0.7-0.9-1.7-1.3-2.6c-0.4-0.9-0.7-1.8-1-2.7c-0.3-0.9-0.5-1.8-0.7-2.8
					L109.5,164.1z"/>
			</g>
			<g>
				<path class="st2" d="M110.1,160.7c0.6,0.4,1.1,0.9,1.7,1.4c0.5,0.5,1,1,1.5,1.5c0.5,0.5,1.2,0.9,1.4,1.7
					c0.1,0.4,0.2,0.7,0.2,1.1c0,0.4-0.1,0.8-0.3,1.4l-0.3,0.1c-0.5-0.1-0.9-0.3-1.3-0.5c-0.4-0.2-0.7-0.4-0.9-0.7
					c-0.5-0.5-0.6-1.3-0.8-1.9c-0.3-0.6-0.5-1.3-0.7-2c-0.2-0.7-0.5-1.3-0.7-2.1L110.1,160.7z"/>
			</g>
			<g>
				<path class="st2" d="M28.9,219.8c0.7,0.2,1.4,0.6,2,0.9c0.7,0.3,1.3,0.7,1.9,1.1c0.6,0.4,1.4,0.7,1.7,1.4
					c0.2,0.3,0.3,0.7,0.4,1.1c0.1,0.4,0.1,0.9,0,1.4l-0.2,0.2c-0.6,0-1-0.1-1.4-0.2c-0.4-0.1-0.7-0.3-1-0.5
					c-0.6-0.3-0.8-1.1-1.2-1.7l-2.4-3.5L28.9,219.8z"/>
			</g>
			<g>
				<path class="st2" d="M30.2,215c0.7,0.4,1.3,0.8,1.9,1.3c0.6,0.4,1.2,0.9,1.8,1.4c0.6,0.5,1.4,0.8,1.7,1.5
					c0.2,0.3,0.3,0.7,0.4,1.1c0.1,0.4,0.1,0.9,0.1,1.4l-0.2,0.2c-0.6,0-1-0.1-1.4-0.2c-0.4-0.1-0.8-0.3-1.1-0.5
					c-0.7-0.4-0.9-1.2-1.3-1.9c-0.4-0.6-0.8-1.3-1.1-2c-0.3-0.7-0.7-1.3-1-2.1L30.2,215z"/>
			</g>
			<g>
				<path class="st2" d="M31.3,211.4c0.7,0.4,1.3,0.9,2,1.3c0.6,0.4,1.3,0.9,1.9,1.4c0.6,0.5,1.4,0.8,1.8,1.5
					c0.2,0.3,0.3,0.7,0.4,1.1c0.1,0.4,0.2,0.9,0.1,1.5l-0.2,0.2c-0.6,0-1-0.1-1.4-0.2c-0.4-0.1-0.8-0.3-1.1-0.5
					c-0.7-0.4-0.9-1.2-1.3-1.9c-0.4-0.6-0.8-1.3-1.2-2c-0.4-0.7-0.8-1.4-1.1-2.1L31.3,211.4z"/>
			</g>
			<g>
				<path class="st2" d="M36,211.8c0.8,0.3,1.5,0.6,2.2,1c0.7,0.4,1.4,0.8,2,1.3c0.6,0.5,1.5,0.8,1.9,1.5c0.2,0.4,0.4,0.7,0.4,1.2
					c0.1,0.4,0.1,0.9,0,1.5l-0.2,0.2c-0.6,0-1-0.1-1.4-0.3c-0.4-0.1-0.8-0.3-1.1-0.5c-0.7-0.4-0.9-1.2-1.3-1.8l-2.7-3.7L36,211.8z"
					/>
			</g>
			<g>
				<path class="st2" d="M144.8,238.8c0.5,0.1,1,0.3,1.4,0.5c0.5,0.2,0.9,0.4,1.4,0.6c0.4,0.2,1,0.2,1.3,0.7
					c0.1,0.2,0.2,0.5,0.2,0.8c0,0.3,0,0.7-0.1,1.1l-0.2,0.2c-0.5,0.2-0.8,0.2-1.1,0.2c-0.3,0-0.6,0-0.8-0.1
					c-0.5-0.1-0.6-0.7-0.9-1.2c-0.3-0.4-0.5-0.8-0.8-1.3c-0.2-0.5-0.5-0.9-0.7-1.4L144.8,238.8z"/>
			</g>
			<g>
				<path class="st2" d="M144.9,230.5c0.7,0.8,1.3,1.6,2,2.3c0.7,0.8,1.4,1.5,2,2.2c0.7,0.7,1.6,1.2,2.1,2.1
					c0.2,0.4,0.5,0.9,0.6,1.4c0.2,0.5,0.3,1,0.4,1.7l-0.2,0.2c-0.7-0.1-1.2-0.3-1.7-0.5c-0.5-0.2-1-0.5-1.4-0.9
					c-0.9-0.7-1.2-1.7-1.7-2.7c-0.5-0.9-1-1.9-1.4-2.8c-0.4-1-0.8-1.9-1-3L144.9,230.5z"/>
			</g>
			<g>
				<path class="st2" d="M144.1,224.3c0.5,0.4,0.9,0.8,1.4,1.1l1.3,1.1c0.4,0.3,1.1,0.5,1.3,1c0.1,0.3,0.2,0.5,0.3,0.9
					c0.1,0.3,0.1,0.7,0,1.2l-0.2,0.2c-0.5,0.1-0.9,0.1-1.3,0.1c-0.4,0-0.7-0.2-1-0.3c-0.6-0.3-0.7-1-1-1.6c-0.3-0.6-0.5-1.1-0.7-1.7
					c-0.2-0.6-0.3-1.2-0.4-1.8L144.1,224.3z"/>
			</g>
			<g>
				<path class="st2" d="M144,218.6c0.7,0.5,1.4,1.1,2.1,1.6c0.7,0.5,1.3,1.1,2,1.7c0.6,0.6,1.5,1,1.9,1.8c0.2,0.4,0.4,0.8,0.5,1.3
					c0.1,0.5,0.2,1,0.1,1.6l-0.2,0.2c-0.6-0.1-1.1-0.2-1.5-0.4c-0.4-0.2-0.8-0.4-1.2-0.7c-0.7-0.5-1-1.4-1.4-2.2
					c-0.4-0.7-0.9-1.5-1.3-2.2c-0.4-0.8-0.8-1.5-1.2-2.3L144,218.6z"/>
			</g>
			<g>
				<path class="st2" d="M144.3,211.1c0.4,0.5,0.8,1,1.2,1.5c0.4,0.5,0.8,0.9,1.2,1.4c0.4,0.4,1,0.7,1.2,1.3c0.1,0.3,0.2,0.6,0.2,1
					c0,0.4,0,0.8-0.1,1.3l-0.2,0.2c-0.5,0-0.9,0-1.3-0.2c-0.4-0.1-0.7-0.3-1-0.5c-0.6-0.4-0.6-1.2-0.8-1.8c-0.2-0.6-0.4-1.3-0.5-1.9
					c-0.1-0.7-0.2-1.3-0.2-2L144.3,211.1z"/>
			</g>
			<g>
				<path class="st2" d="M143.8,204.4c0.6,0.8,1.2,1.6,1.9,2.4c0.6,0.7,1.3,1.5,2,2.1c0.7,0.7,1.6,1.1,2.1,2
					c0.3,0.4,0.5,0.8,0.7,1.3c0.2,0.5,0.4,1,0.5,1.6l-0.2,0.2c-0.7,0-1.2-0.1-1.8-0.3c-0.5-0.2-1-0.5-1.4-0.8
					c-0.9-0.6-1.3-1.7-1.8-2.6c-0.5-0.9-1-1.9-1.4-2.8c-0.3-1-0.7-2-0.8-3L143.8,204.4z"/>
			</g>
			<g>
				<path class="st2" d="M142.7,197.3l1.9,2.1l1.8,2c0.6,0.7,1.4,1.2,1.8,2c0.2,0.4,0.4,0.8,0.5,1.3c0.1,0.5,0.2,1,0.1,1.6l-0.2,0.2
					c-0.6-0.1-1.1-0.3-1.6-0.5c-0.5-0.2-0.8-0.5-1.2-0.9c-0.7-0.6-1-1.6-1.4-2.5c-0.4-0.8-0.8-1.7-1.1-2.6c-0.3-0.9-0.6-1.8-0.9-2.7
					L142.7,197.3z"/>
			</g>
			<g>
				<path class="st2" d="M142.9,191.4c0.9,0.8,1.7,1.6,2.5,2.4c0.8,0.8,1.6,1.6,2.4,2.5c0.8,0.8,1.8,1.5,2.2,2.6
					c0.3,0.5,0.5,1.1,0.6,1.6c0.2,0.6,0.3,1.2,0.3,1.9l-0.2,0.2c-0.7-0.2-1.2-0.5-1.7-0.8c-0.5-0.3-1-0.7-1.4-1.1
					c-0.8-0.8-1.2-1.9-1.8-2.9c-0.6-1-1.1-2-1.6-3c-0.5-1-1-2.1-1.5-3.1L142.9,191.4z"/>
			</g>
			<g>
				<path class="st2" d="M142.2,182.6c0.8,0.8,1.5,1.7,2.3,2.5c0.8,0.8,1.5,1.7,2.2,2.5c0.7,0.8,1.7,1.5,2.2,2.5
					c0.3,0.5,0.5,1,0.6,1.6c0.2,0.6,0.3,1.2,0.3,1.9l-0.2,0.2c-0.7-0.2-1.2-0.5-1.7-0.8c-0.5-0.3-1-0.7-1.4-1.1
					c-0.9-0.8-1.2-1.9-1.7-2.9c-0.5-1-1-2-1.5-3.1c-0.5-1.1-0.9-2.1-1.3-3.2L142.2,182.6z"/>
			</g>
			<g>
				<path class="st2" d="M141.8,177.6c0.6,0.5,1.1,1.1,1.7,1.6c0.5,0.6,1.1,1.1,1.5,1.7c0.5,0.6,1.2,1.1,1.4,1.8
					c0.1,0.4,0.2,0.8,0.2,1.2c0,0.4-0.1,0.9-0.3,1.4l-0.3,0.1c-0.6-0.1-1-0.3-1.3-0.6c-0.4-0.2-0.7-0.5-0.9-0.8
					c-0.6-0.5-0.6-1.4-0.8-2.1c-0.3-0.7-0.5-1.4-0.8-2.1c-0.2-0.7-0.5-1.5-0.7-2.2L141.8,177.6z"/>
			</g>
			<g>
				<path class="st2" d="M141.4,171.8c0.8,0.6,1.5,1.3,2.3,1.9c0.7,0.7,1.5,1.3,2.2,2c0.7,0.7,1.6,1.2,2.1,2.1
					c0.2,0.4,0.4,0.9,0.6,1.4c0.1,0.5,0.2,1.1,0.2,1.7l-0.2,0.2c-0.6-0.1-1.2-0.3-1.6-0.6c-0.5-0.2-0.9-0.5-1.3-0.9
					c-0.8-0.6-1.1-1.6-1.6-2.5c-0.5-0.8-1-1.7-1.5-2.6c-0.5-0.9-0.9-1.8-1.4-2.7L141.4,171.8z"/>
			</g>
			<g>
				<path class="st2" d="M142.1,166.5c0.6,0.6,1.2,1.3,1.8,1.9c0.6,0.6,1.2,1.2,1.8,1.8c0.6,0.6,1.4,0.9,1.8,1.7
					c0.2,0.4,0.4,0.8,0.5,1.2c0.1,0.4,0.3,0.9,0.3,1.5l-0.2,0.2c-0.6,0-1.1-0.1-1.6-0.3c-0.5-0.2-0.9-0.4-1.2-0.7
					c-0.8-0.5-1.1-1.5-1.5-2.2c-0.4-0.8-0.8-1.6-1.2-2.4c-0.3-0.8-0.6-1.7-0.8-2.6L142.1,166.5z"/>
			</g>
			<g>
				<path class="st2" d="M144,165.4c0.8,0.4,1.5,0.9,2.3,1.4c0.7,0.5,1.5,1.1,2.1,1.6c0.7,0.6,1.6,1,1.9,1.9
					c0.2,0.4,0.4,0.8,0.5,1.3c0.1,0.5,0.2,1,0.1,1.6l-0.2,0.2c-0.6-0.1-1.1-0.3-1.5-0.5c-0.4-0.2-0.8-0.5-1.1-0.7
					c-0.7-0.5-0.9-1.4-1.4-2.1l-2.8-4.4L144,165.4z"/>
			</g>
			<g>
				<path class="st2" d="M238.6,201c0.5,0.1,0.9,0.3,1.3,0.4c0.4,0.2,0.8,0.3,1.2,0.5c0.4,0.2,1,0.2,1.1,0.6
					c0.1,0.2,0.2,0.4,0.2,0.8c0,0.3,0,0.6-0.1,1.1l-0.2,0.2c-0.4,0.2-0.8,0.2-1.1,0.2c-0.3,0-0.5,0-0.8-0.1
					c-0.5-0.1-0.5-0.7-0.7-1.1c-0.2-0.4-0.4-0.8-0.6-1.2c-0.2-0.4-0.4-0.8-0.5-1.3L238.6,201z"/>
			</g>
			<g>
				<path class="st2" d="M239.6,197.1c0.4,0.2,0.8,0.5,1.3,0.7c0.4,0.2,0.8,0.5,1.2,0.7c0.4,0.2,0.9,0.3,1.1,0.7
					c0.1,0.2,0.1,0.5,0.1,0.8c0,0.3,0,0.6-0.2,1.1l-0.2,0.2c-0.5,0.2-0.8,0.2-1.1,0.2c-0.3,0-0.6-0.1-0.8-0.2
					c-0.5-0.2-0.5-0.8-0.7-1.2c-0.2-0.4-0.4-0.9-0.5-1.4c-0.1-0.5-0.3-0.9-0.3-1.4L239.6,197.1z"/>
			</g>
			<g>
				<path class="st2" d="M240.7,194.5c0.6,0.1,1.2,0.2,1.8,0.4c0.6,0.2,1.2,0.4,1.7,0.7c0.6,0.3,1.3,0.4,1.6,1
					c0.2,0.3,0.3,0.6,0.3,1c0.1,0.4,0,0.8-0.1,1.3l-0.2,0.2c-0.5,0.1-0.9,0-1.2,0c-0.3-0.1-0.6-0.1-0.9-0.3c-0.5-0.2-0.6-0.8-1-1.3
					c-0.3-0.4-0.7-0.9-1.1-1.3c-0.4-0.5-0.8-0.9-1.2-1.4L240.7,194.5z"/>
			</g>
			<g>
				<path class="st2" d="M252.7,223c0.6,0.2,1.2,0.5,1.8,0.8c0.6,0.3,1.2,0.6,1.7,0.9c0.6,0.3,1.3,0.4,1.6,1c0.2,0.3,0.3,0.6,0.4,1
					c0.1,0.4,0.2,0.8,0.1,1.3l-0.2,0.2c-0.5,0.1-0.9,0.1-1.3,0.1c-0.4,0-0.7-0.1-1-0.3c-0.6-0.2-0.8-1-1.2-1.5
					c-0.4-0.5-0.8-1-1.1-1.6c-0.3-0.6-0.7-1.1-1-1.7L252.7,223z"/>
			</g>
			<g>
				<path class="st2" d="M254.2,216.7c0.6,0.3,1.1,0.6,1.6,0.8c0.5,0.3,1,0.6,1.5,0.9c0.5,0.3,1.2,0.5,1.4,1
					c0.1,0.3,0.2,0.6,0.3,0.9c0,0.4,0,0.7-0.1,1.2l-0.2,0.2c-0.5,0.1-0.9,0.1-1.2,0c-0.4-0.1-0.6-0.2-0.9-0.3
					c-0.6-0.3-0.7-1-0.9-1.5c-0.3-0.5-0.6-1-0.8-1.6c-0.2-0.6-0.5-1.1-0.7-1.7L254.2,216.7z"/>
			</g>
			<g>
				<path class="st2" d="M255.8,212.9c0.5,0.2,1,0.4,1.6,0.7c0.5,0.2,1,0.5,1.4,0.8c0.5,0.3,1.1,0.4,1.3,0.9
					c0.1,0.2,0.2,0.5,0.3,0.9c0,0.3,0,0.7-0.1,1.2l-0.2,0.2c-0.5,0.1-0.9,0.1-1.2,0.1c-0.3,0-0.6-0.1-0.9-0.2
					c-0.5-0.2-0.6-0.9-0.9-1.3c-0.3-0.5-0.6-0.9-0.8-1.4c-0.2-0.5-0.5-1-0.7-1.5L255.8,212.9z"/>
			</g>
			<g>
				<path class="st2" d="M234.1,163.7c0.5,0.3,0.9,0.7,1.3,1.1c0.4,0.3,0.8,0.7,1.2,1c0.4,0.3,1,0.5,1.2,1c0.1,0.3,0.1,0.5,0.1,0.9
					c0,0.3,0,0.7-0.2,1.2l-0.2,0.2c-0.5,0.1-0.9,0.1-1.2,0c-0.3-0.1-0.6-0.2-0.9-0.4c-0.5-0.3-0.6-1-0.8-1.5
					c-0.2-0.5-0.4-1.1-0.5-1.6c-0.1-0.6-0.3-1.1-0.3-1.7L234.1,163.7z"/>
			</g>
			<g>
				<path class="st2" d="M231,165.3c0.7,0.5,1.4,1,2,1.6c0.6,0.6,1.3,1.2,1.8,1.9c0.6,0.7,1.4,1.2,1.6,2.1c0.1,0.4,0.2,0.9,0.2,1.4
					c0,0.5-0.1,1-0.3,1.5l-0.3,0.1c-0.6-0.2-1-0.5-1.3-0.7c-0.4-0.3-0.7-0.6-0.9-0.9c-0.6-0.6-0.6-1.5-0.9-2.2l-1-2.3
					c-0.3-0.8-0.7-1.5-1.1-2.3L231,165.3z"/>
			</g>
			<g>
				<path class="st2" d="M231,169c0.6,0.6,1.2,1.2,1.8,1.8c0.6,0.6,1.1,1.2,1.6,1.9c0.5,0.6,1.3,1.1,1.5,1.9
					c0.1,0.4,0.2,0.8,0.2,1.3c0,0.5,0,0.9-0.1,1.5l-0.3,0.2c-0.6-0.1-1-0.3-1.4-0.6c-0.4-0.2-0.7-0.5-1-0.8c-0.6-0.6-0.7-1.5-1-2.3
					c-0.3-0.8-0.6-1.5-0.9-2.3c-0.2-0.8-0.5-1.6-0.7-2.4L231,169z"/>
			</g>
			<g>
				<path class="st2" d="M230.6,175.7c0.7,0.8,1.3,1.7,1.9,2.5c0.6,0.9,1.2,1.8,1.7,2.7c0.5,0.9,1.3,1.7,1.5,2.8
					c0.1,0.5,0.2,1.1,0.2,1.6c0,0.6-0.1,1.1-0.3,1.8l-0.3,0.1c-0.6-0.3-1-0.7-1.4-1.1c-0.4-0.4-0.7-0.8-1-1.3
					c-0.6-0.9-0.6-2-0.9-2.9c-0.3-1-0.6-2-0.9-3c-0.3-1-0.6-2-0.8-3L230.6,175.7z"/>
			</g>
			<g>
				<path class="st2" d="M227.5,170.1c0.7,0.1,1.3,0.4,2,0.7c0.6,0.3,1.2,0.7,1.8,1.2c0.5,0.5,1.3,0.9,1.5,1.6
					c0.2,0.7,0.2,1.5-0.4,2.4l-0.3,0.1c-1-0.3-1.5-0.7-1.9-1.1c-0.5-0.4-0.4-1-0.7-1.5c-0.3-0.5-0.6-1-0.9-1.5
					c-0.3-0.5-0.7-1-1.1-1.5L227.5,170.1z"/>
			</g>
			<g>
				<path class="st2" d="M244.8,152.4c0.4,0.3,0.8,0.7,1.2,1l1.2,0.9c0.4,0.3,1,0.4,1.1,0.9c0.1,0.2,0.1,0.5,0.2,0.8
					c0,0.3,0,0.7-0.1,1.1l-0.2,0.2c-0.5,0.1-0.8,0.2-1.2,0.1c-0.3,0-0.6-0.1-0.9-0.3c-0.5-0.3-0.6-0.9-0.8-1.4
					c-0.2-0.5-0.4-1-0.5-1.5c-0.1-0.5-0.2-1.1-0.2-1.6L244.8,152.4z"/>
			</g>
			<g>
				<path class="st2" d="M246.4,147.9c0.6,0.4,1.1,0.8,1.7,1.2c0.5,0.4,1.1,0.8,1.6,1.3c0.5,0.4,1.2,0.7,1.5,1.4
					c0.1,0.3,0.2,0.7,0.3,1.1c0,0.4,0,0.8-0.1,1.3l-0.2,0.2c-0.5,0-1-0.1-1.3-0.2c-0.4-0.1-0.7-0.3-1-0.5c-0.6-0.4-0.7-1.2-1-1.8
					c-0.3-0.6-0.6-1.2-0.9-1.8c-0.2-0.6-0.5-1.3-0.7-1.9L246.4,147.9z"/>
			</g>
			<g>
				<path class="st2" d="M249.5,147.4c0.5,0.2,1,0.5,1.5,0.8c0.5,0.3,0.9,0.6,1.4,0.9c0.4,0.3,1.1,0.5,1.2,1
					c0.1,0.3,0.2,0.5,0.2,0.9c0,0.3,0,0.7-0.2,1.2l-0.2,0.2c-0.5,0.1-0.9,0-1.2,0c-0.3-0.1-0.6-0.2-0.8-0.3
					c-0.5-0.3-0.5-0.9-0.8-1.4c-0.2-0.5-0.5-1-0.7-1.5c-0.2-0.5-0.4-1-0.6-1.6L249.5,147.4z"/>
			</g>
			<g>
				<path class="st2" d="M215.6,245.3c0.4,0.1,0.7,0.3,1,0.4c0.3,0.2,0.6,0.3,0.9,0.5c0.3,0.2,0.8,0.2,0.8,0.6c0,0.2,0,0.4-0.1,0.6
					c-0.1,0.2-0.2,0.5-0.5,0.9l-0.2,0.2c-0.4,0.1-0.8,0.1-1,0.1c-0.3,0-0.5-0.1-0.6-0.1c-0.4-0.1-0.2-0.6-0.3-1
					c-0.1-0.3-0.1-0.7-0.2-1c0-0.4-0.1-0.7-0.1-1.1L215.6,245.3z"/>
			</g>
			<g>
				<path class="st2" d="M214.7,231.6c1.1,0.9,2.1,1.8,3.1,2.8c1,1,2,2,2.9,3c0.9,1,2.1,1.9,2.7,3.2c0.3,0.6,0.6,1.3,0.8,2
					c0.2,0.7,0.4,1.4,0.4,2.2l-0.2,0.2c-0.7-0.3-1.3-0.7-1.9-1.2c-0.6-0.4-1.1-0.9-1.5-1.4c-1-1-1.5-2.3-2.2-3.5l-4.3-7L214.7,231.6
					z"/>
			</g>
			<g>
				<path class="st2" d="M215.4,222.9c1.3,1.1,2.6,2.2,3.9,3.3c1.3,1.1,2.6,2.3,3.8,3.4c1.3,1.2,2.7,2.1,3.7,3.5
					c0.5,0.7,1,1.4,1.4,2.2c0.4,0.8,0.8,1.6,1.1,2.5l-0.2,0.2c-0.9-0.3-1.7-0.8-2.4-1.2c-0.7-0.5-1.4-1-2.1-1.6
					c-1.3-1.1-2.2-2.6-3.3-3.9c-1.1-1.3-2.1-2.7-3.2-4c-1-1.4-2.1-2.7-3.1-4.1L215.4,222.9z"/>
			</g>
			<g>
				<path class="st2" d="M214.9,209.3c1.5,1.5,3,3,4.6,4.4c1.5,1.4,3.1,2.9,4.7,4.3c1.6,1.4,3.4,2.5,4.8,4.1c1.4,1.5,2.8,3.1,4,5.1
					l-0.2,0.2c-2.2-0.7-4-1.8-5.8-3.1c-1.8-1.3-3.1-3-4.5-4.6c-1.4-1.6-2.8-3.3-4.1-5c-1.3-1.7-2.5-3.5-3.7-5.3L214.9,209.3z"/>
			</g>
			<g>
				<path class="st2" d="M213.1,188.1c1.1,1.2,2.2,2.4,3.3,3.6c1.1,1.2,2.2,2.4,3.2,3.7c1.1,1.2,2.3,2.3,3.1,3.7
					c0.4,0.7,0.8,1.4,1.1,2.2c0.3,0.8,0.6,1.6,0.7,2.5l-0.2,0.2c-0.8-0.4-1.5-0.9-2.2-1.4c-0.7-0.5-1.2-1.1-1.8-1.7
					c-1.1-1.2-1.8-2.7-2.6-4.1c-0.9-1.4-1.7-2.8-2.5-4.2c-0.8-1.4-1.6-2.8-2.4-4.3L213.1,188.1z"/>
			</g>
			<g>
				<path class="st2" d="M214.2,172.5c1.5,1,2.8,2.1,4.2,3.2c1.3,1.2,2.6,2.4,3.8,3.7c1.2,1.3,2.6,2.5,3.4,4.1
					c0.4,0.8,0.8,1.6,1.1,2.5c0.3,0.9,0.5,1.8,0.6,2.7l-0.3,0.2c-0.8-0.5-1.5-1.1-2.1-1.7c-0.6-0.6-1.2-1.2-1.8-1.9
					c-1.1-1.3-1.9-2.9-2.8-4.3c-1-1.4-2-2.8-3.1-4.2c-1-1.4-2.2-2.7-3.3-4.1L214.2,172.5z"/>
			</g>
			<g>
				<path class="st2" d="M230.7,212.2c0.9,0.7,1.7,1.5,2.6,2.3c0.8,0.8,1.7,1.6,2.5,2.4c0.8,0.8,1.8,1.4,2.4,2.5
					c0.3,0.5,0.5,1,0.7,1.6c0.2,0.6,0.3,1.2,0.4,1.9l-0.2,0.2c-0.7-0.2-1.3-0.4-1.8-0.8c-0.5-0.3-1-0.7-1.4-1
					c-0.9-0.7-1.3-1.9-1.9-2.8c-0.6-1-1.2-1.9-1.8-2.9c-0.6-1-1.1-2-1.7-3L230.7,212.2z"/>
			</g>
			<g>
				<path class="st2" d="M233,202.9c1,0.7,1.9,1.5,2.9,2.2c1,0.8,1.9,1.5,2.8,2.3c0.9,0.8,2,1.4,2.7,2.4c0.3,0.5,0.7,1,0.9,1.6
					c0.3,0.6,0.5,1.2,0.6,1.9l-0.2,0.2c-0.7-0.1-1.3-0.4-1.9-0.7c-0.6-0.3-1.1-0.6-1.6-1c-1-0.7-1.5-1.9-2.3-2.8
					c-0.7-1-1.4-1.9-2.1-2.9c-0.7-1-1.4-2-2-3L233,202.9z"/>
			</g>
			<g>
				<path class="st2" d="M216.3,269.2l1.9,1.7l1.8,1.7c0.6,0.6,1.4,0.9,1.7,1.7c0.2,0.4,0.3,0.8,0.5,1.2c0.1,0.4,0.2,0.9,0.1,1.5
					l-0.2,0.2c-0.6,0-1.1-0.1-1.5-0.3c-0.4-0.2-0.8-0.4-1.2-0.7c-0.7-0.5-0.9-1.4-1.4-2.2c-0.4-0.7-0.8-1.5-1.1-2.3
					c-0.3-0.8-0.6-1.6-0.9-2.4L216.3,269.2z"/>
			</g>
			<g>
				<path class="st2" d="M218.7,256.3c1.1,0.8,2.1,1.6,3.2,2.5c1,0.9,2.1,1.7,3.1,2.7c1,0.9,2.2,1.7,2.9,2.8c0.4,0.6,0.7,1.2,1,1.8
					c0.3,0.6,0.5,1.3,0.6,2.1l-0.2,0.2c-0.8-0.2-1.4-0.6-2-1c-0.6-0.4-1.1-0.8-1.6-1.2c-1-0.9-1.6-2.1-2.4-3.2
					c-0.8-1.1-1.6-2.1-2.4-3.2c-0.8-1.1-1.6-2.2-2.3-3.3L218.7,256.3z"/>
			</g>
			<g>
				<path class="st2" d="M224.1,247.8c1,0.5,1.9,1.1,2.8,1.8c0.9,0.6,1.8,1.4,2.6,2.1c0.8,0.7,1.8,1.4,2.3,2.4
					c0.3,0.5,0.5,1,0.6,1.6c0.1,0.6,0.2,1.2,0.2,1.9l-0.3,0.2c-0.7-0.2-1.2-0.5-1.6-0.8c-0.5-0.3-0.9-0.7-1.3-1
					c-0.8-0.7-1.1-1.8-1.7-2.6c-0.6-0.9-1.2-1.7-1.8-2.6c-0.6-0.9-1.3-1.7-2-2.6L224.1,247.8z"/>
			</g>
			<g>
				<path class="st2" d="M230.3,244.8c0.5,0.2,1,0.5,1.4,0.7c0.5,0.2,0.9,0.5,1.3,0.8c0.4,0.3,1.1,0.4,1.2,0.9
					c0.1,0.2,0.2,0.5,0.2,0.9c0,0.3,0,0.7-0.2,1.2l-0.2,0.2c-0.5,0.1-0.8,0.1-1.2,0.1c-0.3,0-0.6-0.1-0.8-0.3
					c-0.5-0.2-0.5-0.9-0.8-1.3c-0.2-0.5-0.5-0.9-0.7-1.4c-0.2-0.5-0.4-1-0.6-1.5L230.3,244.8z"/>
			</g>
			<g>
				<path class="st2" d="M253.1,194c0.9,0.5,1.8,1,2.6,1.5c0.9,0.5,1.7,1.1,2.5,1.7c0.8,0.6,1.8,0.9,2.4,1.8
					c0.3,0.4,0.6,0.8,0.8,1.3c0.2,0.5,0.4,1,0.5,1.7l-0.2,0.2c-0.7,0-1.2-0.1-1.7-0.3c-0.5-0.2-1-0.4-1.4-0.7
					c-0.9-0.5-1.4-1.5-2-2.2c-0.7-0.8-1.3-1.5-1.9-2.3c-0.6-0.8-1.2-1.6-1.8-2.4L253.1,194z"/>
			</g>
			<g>
				<path class="st2" d="M253,185.8c1.3,0.8,2.5,1.7,3.7,2.6c1.2,0.9,2.3,2,3.4,3c1.1,1.1,2.3,2,3,3.4c0.4,0.7,0.7,1.4,0.9,2.1
					c0.2,0.7,0.4,1.5,0.4,2.4l-0.3,0.2c-0.7-0.4-1.4-0.9-1.9-1.4c-0.6-0.5-1.1-1-1.6-1.5c-1-1-1.6-2.4-2.4-3.6
					c-0.8-1.2-1.7-2.4-2.6-3.5c-0.9-1.2-1.8-2.3-2.8-3.4L253,185.8z"/>
			</g>
			<g>
				<path class="st2" d="M255.7,178.3c0.8,0.6,1.6,1.4,2.4,2c0.8,0.7,1.5,1.4,2.3,2.1c0.7,0.7,1.7,1.3,2.2,2.2
					c0.3,0.5,0.5,0.9,0.6,1.5c0.2,0.5,0.3,1.1,0.3,1.8l-0.2,0.2c-0.7-0.1-1.2-0.4-1.7-0.6c-0.5-0.3-0.9-0.6-1.3-0.9
					c-0.8-0.7-1.2-1.7-1.7-2.6c-0.5-0.9-1.1-1.8-1.6-2.7c-0.5-0.9-1-1.8-1.5-2.8L255.7,178.3z"/>
			</g>
			<g>
				<path class="st2" d="M255.1,161.6c1,0.7,2,1.4,2.9,2.2c0.9,0.8,1.8,1.6,2.7,2.5c0.8,0.9,1.9,1.7,2.4,2.8
					c0.3,0.6,0.5,1.2,0.6,1.8c0.1,0.6,0.2,1.3,0.1,2l-0.3,0.1c-0.7-0.3-1.2-0.7-1.7-1.1c-0.5-0.4-0.9-0.8-1.3-1.2
					c-0.8-0.8-1.2-2-1.8-3c-0.6-1-1.2-2-1.9-3c-0.6-1-1.3-2-2-3L255.1,161.6z"/>
			</g>
			<g>
				<path class="st2" d="M257,149.2l2,2.2c0.7,0.7,1.3,1.4,1.9,2.2c0.6,0.7,1.5,1.3,1.9,2.2c0.2,0.4,0.4,0.9,0.5,1.4
					c0.1,0.5,0.2,1,0.2,1.7l-0.2,0.2c-0.6-0.1-1.1-0.3-1.6-0.6c-0.5-0.3-0.9-0.6-1.2-0.9c-0.8-0.7-1-1.7-1.4-2.6
					c-0.4-0.9-0.8-1.8-1.2-2.7c-0.3-0.9-0.7-1.8-1-2.8L257,149.2z"/>
			</g>
			<g>
				<path class="st2" d="M255.6,134.2c0.9,0.8,1.7,1.6,2.5,2.4c0.8,0.8,1.6,1.6,2.4,2.5c0.8,0.8,1.8,1.5,2.3,2.6
					c0.3,0.5,0.5,1,0.7,1.6c0.2,0.6,0.3,1.2,0.3,1.9l-0.2,0.2c-0.7-0.2-1.2-0.5-1.7-0.8c-0.5-0.3-1-0.7-1.4-1.1
					c-0.9-0.8-1.2-1.9-1.8-2.9c-0.6-1-1.1-2-1.7-3c-0.5-1-1.1-2-1.6-3.1L255.6,134.2z"/>
			</g>
			<g>
				<path class="st2" d="M26,114.6c0.9,0.7,1.7,1.4,2.6,2.1c0.8,0.7,1.7,1.5,2.5,2.2c0.8,0.8,1.8,1.4,2.4,2.3c0.3,0.5,0.5,1,0.7,1.6
					c0.2,0.6,0.4,1.2,0.4,1.9l-0.2,0.2c-0.7-0.1-1.2-0.4-1.8-0.7c-0.5-0.3-1-0.6-1.4-1c-0.9-0.7-1.3-1.8-1.9-2.7
					c-0.6-0.9-1.2-1.9-1.8-2.8c-0.6-1-1.2-1.9-1.7-2.9L26,114.6z"/>
			</g>
			<g>
				<path class="st2" d="M30.9,110.8c1,0.9,2,1.8,3,2.7c1,0.9,1.9,1.9,2.9,2.8c0.9,1,2.1,1.7,2.8,2.9c0.4,0.6,0.7,1.2,0.9,1.8
					c0.3,0.7,0.5,1.3,0.6,2.1l-0.2,0.2c-0.8-0.2-1.4-0.6-2-1c-0.6-0.4-1.1-0.8-1.6-1.3c-1-0.9-1.6-2.2-2.3-3.3
					c-0.7-1.1-1.5-2.3-2.2-3.4c-0.7-1.2-1.4-2.3-2.1-3.5L30.9,110.8z"/>
			</g>
			<g>
				<path class="st2" d="M35.7,108.1l5,4.9l5,4.9c1.7,1.6,3.6,3.1,5,4.9c1.5,1.8,2.9,3.7,4,5.9l-0.2,0.2c-2.3-1-4.2-2.5-5.9-4
					c-1.8-1.5-3.2-3.5-4.7-5.3c-1.5-1.8-3-3.7-4.4-5.5c-1.4-1.9-2.8-3.8-4.1-5.7L35.7,108.1z"/>
			</g>
			<g>
				<path class="st2" d="M43.2,107.2c2,1.7,4,3.4,6,5.1c2,1.7,4,3.5,5.9,5.2c2,1.8,4.1,3.3,5.8,5.3c1.7,2,3.4,4.1,4.6,6.5l-0.2,0.2
					c-2.4-1.3-4.5-2.9-6.5-4.6c-2-1.7-3.6-3.8-5.4-5.7c-1.8-1.9-3.5-3.9-5.3-5.9c-1.7-2-3.5-3.9-5.2-6L43.2,107.2z"/>
			</g>
			<g>
				<path class="st2" d="M46.7,99.9c1.9,1.7,3.6,3.4,5.5,5.1c1.8,1.7,3.6,3.5,5.4,5.2c1.8,1.7,3.7,3.3,5.2,5.3c1.5,2,3,4,4,6.4
					l-0.2,0.2c-2.3-1.3-4.2-2.9-6-4.6c-1.8-1.7-3.2-3.8-4.8-5.7c-1.6-1.9-3.1-3.9-4.7-5.8c-1.5-2-3.1-3.9-4.6-5.9L46.7,99.9z"/>
			</g>
			<g>
				<path class="st2" d="M52.6,98c2,1.3,3.9,2.7,5.7,4.1c1.9,1.5,3.6,3,5.4,4.6c1.7,1.6,3.6,3.1,4.9,5.1c1.3,2,2.5,4,3.2,6.4
					l-0.2,0.2c-2-1.4-3.7-3-5.3-4.7c-1.6-1.6-2.9-3.6-4.3-5.4c-1.5-1.8-3-3.5-4.6-5.2c-1.6-1.7-3.2-3.3-4.9-5L52.6,98z"/>
			</g>
			<g>
				<path class="st2" d="M55.1,89.6c2.4,1.9,4.8,4,7.1,6c2.3,2.1,4.6,4.2,6.8,6.4c2.2,2.2,4.6,4.3,6.4,6.8c1.9,2.5,3.6,5.1,4.9,8
					l-0.2,0.2c-2.6-1.9-4.8-4.1-6.9-6.3c-2.2-2.2-3.9-4.7-5.9-7.1c-2-2.4-4-4.7-6.1-7c-2-2.3-4.1-4.6-6.2-6.8L55.1,89.6z"/>
			</g>
			<g>
				<path class="st2" d="M61.2,88.7c2.4,1.5,4.8,3.2,7.1,4.9c2.3,1.7,4.6,3.5,6.7,5.4c2.2,1.9,4.5,3.7,6.3,6
					c1.8,2.3,3.5,4.7,4.6,7.4l-0.2,0.2c-2.4-1.7-4.5-3.6-6.6-5.5c-2.1-1.9-3.8-4.2-5.7-6.3c-2-2-4-4.1-6-6c-2-2-4.2-3.9-6.3-5.8
					L61.2,88.7z"/>
			</g>
			<g>
				<path class="st2" d="M79,95.1c1.4,0.9,2.8,1.9,4.2,2.9c1.4,1,2.7,2.1,3.9,3.3c1.3,1.1,2.7,2.2,3.7,3.6c0.5,0.7,0.9,1.5,1.3,2.3
					c0.4,0.8,0.7,1.6,0.9,2.6l-0.2,0.2c-0.9-0.4-1.6-0.9-2.3-1.4c-0.7-0.5-1.3-1.1-1.9-1.6c-1.2-1.1-2.1-2.6-3.1-3.9
					c-1.1-1.3-2.1-2.6-3.2-3.8c-1.1-1.3-2.2-2.5-3.4-3.8L79,95.1z"/>
			</g>
			<g>
				<path class="st2" d="M59.6,53.7c1.5,1,2.8,2.1,4.2,3.3c1.4,1.2,2.7,2.4,3.9,3.6c1.3,1.3,2.7,2.4,3.6,4c0.5,0.8,0.9,1.6,1.2,2.4
					c0.3,0.8,0.6,1.7,0.8,2.7L73,69.9c-0.8-0.5-1.6-1.1-2.2-1.6c-0.7-0.6-1.3-1.2-1.9-1.8c-1.2-1.2-2-2.8-3-4.2
					c-1-1.4-2.1-2.8-3.2-4.2c-1.1-1.4-2.2-2.7-3.3-4.1L59.6,53.7z"/>
			</g>
			<g>
				<path class="st2" d="M52.7,42.5c2.2,1.1,4.2,2.3,6.3,3.6c2.1,1.3,4.1,2.6,6.1,4c2,1.4,4.1,2.7,5.8,4.5c1.7,1.8,3.3,3.7,4.4,5.9
					l-0.2,0.2c-2.3-1.1-4.3-2.5-6.2-3.9c-1.9-1.4-3.5-3.2-5.3-4.8c-1.8-1.6-3.6-3.1-5.5-4.7c-1.8-1.6-3.7-3-5.6-4.5L52.7,42.5z"/>
			</g>
			<g>
				<path class="st2" d="M49.6,32.6c1.8,1.1,3.5,2.3,5.3,3.4c1.7,1.2,3.5,2.3,5.2,3.6c1.7,1.2,3.6,2.2,5.1,3.7
					c0.8,0.7,1.5,1.5,2.2,2.3c0.7,0.8,1.3,1.7,1.9,2.7l-0.2,0.2c-1.1-0.3-2.1-0.8-3-1.2c-0.9-0.5-1.8-1-2.7-1.6
					c-1.8-1.1-3.2-2.7-4.7-4.1c-1.6-1.4-3.1-2.8-4.6-4.3c-1.5-1.5-3-2.9-4.5-4.4L49.6,32.6z"/>
			</g>
			<g>
				<path class="st2" d="M49.6,26.8c2.2,1.7,4.6,3.2,6.9,4.6c2.4,1.5,4.8,2.8,7.2,4.3c2.4,1.4,5,2.7,7.1,4.6
					c2.2,1.8,4.2,3.9,5.6,6.5L76.3,47c-2.6-1.3-4.9-2.8-7.2-4.3c-2.3-1.5-4.4-3.3-6.7-5c-2.3-1.6-4.5-3.3-6.7-5.1
					c-2.2-1.8-4.3-3.6-6.3-5.6L49.6,26.8z"/>
			</g>
			<g>
				<path class="st2" d="M60.8,27.3c1.8,1.1,3.5,2.3,5.2,3.4c1.7,1.2,3.4,2.3,5.1,3.5c1.7,1.2,3.5,2.2,5,3.6
					c0.7,0.7,1.5,1.5,2.1,2.3c0.7,0.8,1.3,1.7,1.8,2.6L79.9,43c-1.1-0.3-2-0.8-3-1.2c-0.9-0.5-1.8-1-2.7-1.6
					c-1.7-1.1-3.1-2.7-4.6-4.1c-1.5-1.4-3-2.8-4.5-4.2c-1.5-1.4-3-2.9-4.4-4.3L60.8,27.3z"/>
			</g>
			<g>
				<path class="st2" d="M70.6,28.1c1.4,1.1,2.7,2.2,4.1,3.3c1.4,1.1,2.7,2.2,4.1,3.2c1.4,1.1,3,1.9,4.2,3.1c0.6,0.6,1.2,1.3,1.8,2
					c0.6,0.7,1.1,1.4,1.5,2.3l-0.2,0.2c-1-0.2-1.8-0.5-2.7-0.9c-0.8-0.4-1.6-0.8-2.4-1.3c-1.5-0.9-2.6-2.4-3.9-3.7
					c-1.2-1.3-2.4-2.6-3.6-3.9c-1.1-1.4-2.2-2.7-3.3-4.2L70.6,28.1z"/>
			</g>
			<g>
				<path class="st2" d="M78.3,30.6c1.2,0.7,2.4,1.4,3.5,2.1c1.2,0.7,2.3,1.4,3.4,2.2c1.1,0.7,2.4,1.3,3.4,2.3
					c0.5,0.5,0.9,1,1.3,1.6c0.4,0.6,0.8,1.2,1,2l-0.2,0.2c-0.8-0.1-1.5-0.3-2.1-0.6c-0.7-0.3-1.3-0.6-1.9-0.9c-1.2-0.7-2-1.8-3-2.8
					c-1-0.9-1.9-1.9-2.9-2.9c-0.9-1-1.9-2-2.8-3L78.3,30.6z"/>
			</g>
			<g>
				<path class="st2" d="M88.1,33.8c1.1,0.5,2.2,1.1,3.3,1.6c1.1,0.5,2.1,1.1,3.2,1.7c1,0.6,2.2,1,3.1,1.8c0.4,0.4,0.8,0.9,1.2,1.4
					c0.4,0.5,0.7,1.1,0.9,1.8l-0.2,0.2c-0.7,0-1.4-0.1-2-0.3c-0.6-0.2-1.2-0.4-1.7-0.7c-1.1-0.5-1.8-1.5-2.7-2.3
					c-0.9-0.8-1.8-1.6-2.6-2.4c-0.9-0.9-1.7-1.7-2.6-2.6L88.1,33.8z"/>
			</g>
			<g>
				<path class="st2" d="M225.9,136c0.5,0.3,1,0.7,1.5,1.1c0.5,0.4,0.9,0.8,1.4,1.2c0.4,0.4,1.1,0.7,1.3,1.3c0.1,0.3,0.2,0.6,0.1,1
					c0,0.4-0.1,0.8-0.2,1.2l-0.2,0.2c-0.5,0-0.9-0.1-1.2-0.2c-0.3-0.1-0.6-0.3-0.9-0.5c-0.5-0.3-0.5-1.1-0.8-1.6
					c-0.2-0.5-0.4-1.1-0.6-1.7c-0.2-0.6-0.4-1.2-0.5-1.8L225.9,136z"/>
			</g>
			<g>
				<path class="st2" d="M226.6,127.8c0.9,0.8,1.8,1.7,2.7,2.5c0.9,0.8,1.7,1.7,2.5,2.6c0.8,0.9,1.9,1.6,2.4,2.7
					c0.3,0.5,0.6,1.1,0.7,1.7c0.2,0.6,0.4,1.2,0.4,2l-0.2,0.2c-0.7-0.2-1.3-0.5-1.8-0.9c-0.5-0.3-1-0.7-1.4-1.2
					c-0.9-0.8-1.3-2-2-3.1c-0.6-1-1.2-2.1-1.8-3.1c-0.6-1.1-1.2-2.1-1.7-3.2L226.6,127.8z"/>
			</g>
			<g>
				<path class="st2" d="M229.2,122.7c1.1,0.8,2.1,1.7,3.1,2.6c1,0.9,2,1.8,3,2.7c1,0.9,2.2,1.6,2.9,2.8c0.4,0.6,0.7,1.1,1,1.8
					c0.3,0.6,0.5,1.3,0.7,2.1l-0.2,0.2c-0.8-0.2-1.4-0.5-2-0.9c-0.6-0.3-1.1-0.7-1.7-1.2c-1-0.8-1.6-2.1-2.4-3.2
					c-0.8-1.1-1.6-2.2-2.3-3.3c-0.7-1.1-1.5-2.2-2.2-3.4L229.2,122.7z"/>
			</g>
			<g>
				<path class="st2" d="M235.9,121.7c0.9,0.6,1.8,1.2,2.7,1.9c0.9,0.6,1.7,1.3,2.6,2c0.8,0.7,1.9,1.1,2.5,2.1
					c0.3,0.4,0.6,0.9,0.8,1.5c0.2,0.5,0.4,1.1,0.5,1.8l-0.2,0.2c-0.7-0.1-1.2-0.3-1.8-0.5c-0.5-0.2-1-0.5-1.4-0.8
					c-0.9-0.6-1.4-1.6-2-2.5c-0.7-0.8-1.3-1.7-1.9-2.6c-0.6-0.9-1.2-1.8-1.8-2.7L235.9,121.7z"/>
			</g>
			<g>
				<path class="st2" d="M244.5,124.4c0.5,0.2,0.9,0.4,1.4,0.6c0.5,0.2,0.9,0.4,1.3,0.7c0.4,0.2,1,0.3,1.2,0.8
					c0.1,0.2,0.2,0.5,0.2,0.8c0,0.3,0,0.7-0.1,1.1l-0.2,0.2c-0.5,0.1-0.8,0.2-1.1,0.1c-0.3,0-0.6-0.1-0.8-0.2
					c-0.5-0.2-0.5-0.8-0.8-1.2c-0.2-0.4-0.5-0.9-0.7-1.3c-0.2-0.5-0.4-0.9-0.6-1.4L244.5,124.4z"/>
			</g>
			<g>
				<path class="st2" d="M250,124c0.4,0,0.7,0,1.1,0.1c0.3,0,0.7,0.1,1,0.2c0.3,0.1,0.8-0.1,0.9,0.3c0.1,0.2,0.1,0.4,0.1,0.6
					c0,0.3,0,0.6-0.2,1l-0.2,0.2c-0.4,0.3-0.7,0.4-0.9,0.5c-0.3,0.1-0.5,0.1-0.6,0.1c-0.4,0-0.4-0.5-0.5-0.8
					c-0.2-0.3-0.3-0.6-0.5-0.9c-0.1-0.3-0.3-0.7-0.4-1L250,124z"/>
			</g>
			<g>
				<path class="st2" d="M224.4,140.7c0.3,0.4,0.6,0.9,0.9,1.3c0.3,0.4,0.6,0.9,0.8,1.3c0.3,0.4,0.8,0.7,0.8,1.2
					c0,0.3,0,0.5-0.1,0.8c-0.1,0.3-0.2,0.6-0.5,1l-0.3,0.1c-0.5,0-0.8-0.2-1.1-0.3c-0.3-0.2-0.5-0.3-0.7-0.6
					c-0.4-0.4-0.2-1.1-0.3-1.6c0-0.5-0.1-1.1,0-1.6c0.1-0.6,0.1-1.1,0.2-1.6L224.4,140.7z"/>
			</g>
			<g>
				<path class="st2" d="M100.4,35.3c1.9,0.9,3.7,2,5.5,3.1c1.8,1.1,3.5,2.3,5.2,3.6c1.7,1.3,3.5,2.4,4.9,4c0.7,0.8,1.3,1.6,1.9,2.6
					c0.6,0.9,1.1,1.9,1.5,2.9l-0.2,0.2c-1-0.5-1.9-1.1-2.8-1.6c-0.9-0.6-1.7-1.2-2.5-1.9c-1.6-1.3-2.9-2.9-4.4-4.4
					c-1.5-1.4-3-2.8-4.6-4.2c-1.5-1.4-3.1-2.7-4.8-4L100.4,35.3z"/>
			</g>
			<g>
				<path class="st2" d="M115.3,37.5l9.3,7.3c1.5,1.2,3.3,2.2,4.6,3.6c0.7,0.7,1.3,1.4,2,2.2c0.6,0.8,1.2,1.6,1.7,2.6l-0.2,0.2
					c-1-0.3-2-0.7-2.9-1.2c-0.9-0.5-1.7-1-2.6-1.6c-1.6-1.1-2.9-2.7-4.3-4.1c-1.4-1.4-2.7-2.9-4.1-4.3c-1.3-1.5-2.6-3-3.8-4.5
					L115.3,37.5z"/>
			</g>
			<g>
				<path class="st2" d="M128.3,39.3c1.8,1.1,3.5,2.3,5.3,3.4c1.7,1.2,3.5,2.3,5.2,3.5c1.7,1.2,3.6,2.2,5.1,3.6
					c0.8,0.7,1.5,1.5,2.2,2.3c0.7,0.8,1.3,1.7,1.9,2.6l-0.2,0.2c-1.1-0.3-2.1-0.7-3-1.2c-0.9-0.5-1.8-1-2.7-1.6
					c-1.8-1.1-3.1-2.7-4.7-4.1c-1.5-1.4-3.1-2.8-4.6-4.2c-1.5-1.5-3-2.9-4.5-4.3L128.3,39.3z"/>
			</g>
			<g>
				<path class="st2" d="M138.1,41.5c2.2,1,4.4,2.2,6.5,3.4c2.1,1.2,4.2,2.5,6.3,3.9c2,1.4,4.2,2.6,5.9,4.4c1.7,1.8,3.3,3.7,4.5,6
					l-0.2,0.2c-2.3-1.1-4.3-2.5-6.2-3.9c-2-1.4-3.6-3.2-5.4-4.8c-1.8-1.6-3.7-3.1-5.6-4.6c-1.9-1.5-3.9-2.9-5.9-4.4L138.1,41.5z"/>
			</g>
			<g>
				<path class="st2" d="M147.5,42c2.1,1.1,4,2.3,6,3.5c2,1.3,3.9,2.6,5.8,4c1.9,1.4,3.9,2.7,5.4,4.4c1.6,1.7,3,3.6,4,5.9l-0.2,0.2
					c-2.2-1.1-4-2.5-5.8-3.9c-1.8-1.4-3.3-3.2-4.9-4.8c-1.7-1.6-3.4-3.1-5.1-4.6c-1.7-1.5-3.5-3-5.3-4.5L147.5,42z"/>
			</g>
			<g>
				<path class="st2" d="M164,48.3c1.2,0.7,2.4,1.5,3.6,2.3c1.2,0.8,2.3,1.6,3.5,2.4c1.1,0.8,2.5,1.5,3.4,2.5
					c0.5,0.5,0.9,1.1,1.3,1.7c0.4,0.6,0.8,1.3,1,2.1l-0.2,0.2c-0.8-0.1-1.5-0.4-2.2-0.7c-0.7-0.3-1.3-0.7-1.9-1c-1.2-0.8-2-2-3-3
					c-1-1-2-2.1-2.9-3.1c-0.9-1.1-1.9-2.1-2.8-3.2L164,48.3z"/>
			</g>
			<g>
				<path class="st2" d="M169.6,48c1.8,0.9,3.6,1.9,5.3,2.9c1.7,1,3.4,2.2,5.1,3.4c1.6,1.2,3.4,2.3,4.7,3.8c0.7,0.8,1.3,1.6,1.8,2.5
					c0.6,0.9,1,1.8,1.4,2.8l-0.2,0.2c-1-0.4-1.9-1-2.7-1.6c-0.8-0.6-1.6-1.2-2.4-1.8c-1.6-1.2-2.8-2.8-4.2-4.2
					c-1.4-1.4-2.9-2.7-4.4-4c-1.5-1.3-3-2.6-4.6-3.8L169.6,48z"/>
			</g>
			<g>
				<path class="st2" d="M179.9,48.7c-0.1,0.1-0.2,0.1-0.3,0.1c-0.1,0-0.1-0.1-0.2-0.1c-0.1-0.1-0.1-0.3,0-0.4
					c0.2-0.3,0.5-0.3,0.7-0.2c0.4,0.1,0.7,0.2,1,0.3c0.7,0.2,1.3,0.6,1.9,0.9c1.2,0.7,2.3,1.4,3.5,2.2c2.3,1.5,4.5,3.1,6.6,4.7
					c2.2,1.6,4.5,3.1,6.4,5c1.9,1.9,3.7,4,5.1,6.5l-0.2,0.2c-2.5-1.3-4.7-2.8-6.8-4.4c-2.2-1.6-3.9-3.6-5.9-5.4c-2-1.8-4-3.6-6-5.3
					c-1-0.9-2-1.8-3.1-2.6c-0.5-0.4-1.1-0.8-1.6-1.1c-0.3-0.2-0.6-0.3-0.9-0.4c-0.1-0.1-0.2,0-0.2,0c0,0,0,0,0,0.1c0,0,0,0,0,0
					L179.9,48.7z"/>
			</g>
			<g>
				<path class="st2" d="M196.3,51.7c1.8,0.9,3.6,1.9,5.4,2.9c1.8,1,3.5,2.2,5.1,3.3c1.7,1.2,3.5,2.2,4.8,3.8
					c0.7,0.8,1.3,1.6,1.9,2.4c0.6,0.9,1.1,1.8,1.5,2.8l-0.2,0.2c-1-0.4-1.9-0.9-2.8-1.5c-0.9-0.5-1.7-1.1-2.5-1.7
					c-1.6-1.2-2.9-2.8-4.3-4.1c-1.5-1.4-3-2.7-4.5-4c-1.5-1.3-3.1-2.6-4.7-3.9L196.3,51.7z"/>
			</g>
			<g>
				<path class="st2" d="M210,54.2c1.4,1,2.7,2.1,4.1,3.2c1.4,1.1,2.7,2.2,4,3.3c1.3,1.1,2.8,2,3.9,3.4c0.6,0.7,1.1,1.4,1.5,2.1
					c0.5,0.8,0.9,1.5,1.2,2.5l-0.2,0.2c-0.9-0.3-1.7-0.7-2.5-1.2c-0.8-0.4-1.5-1-2.2-1.5c-1.4-1-2.3-2.5-3.5-3.8
					c-1.1-1.3-2.3-2.6-3.4-3.9c-1.1-1.4-2.2-2.7-3.3-4.1L210,54.2z"/>
			</g>
			<g>
				<path class="st2" d="M225.1,60.9c1.8,1.4,3.5,2.9,5.3,4.3c1.7,1.5,3.5,2.9,5.2,4.4c1.7,1.5,3.6,2.8,5.1,4.5
					c1.5,1.7,2.9,3.5,3.9,5.7l-0.2,0.2c-2.2-1-4-2.3-5.8-3.8c-1.8-1.4-3.1-3.3-4.6-4.9c-1.5-1.7-3-3.3-4.5-5c-1.5-1.7-3-3.4-4.4-5.2
					L225.1,60.9z"/>
			</g>
			<g>
				<path class="st2" d="M234.1,62c1.2,0.9,2.3,1.9,3.4,2.8c1.1,1,2.2,1.9,3.3,2.9c1.1,1,2.4,1.8,3.2,3.1c0.4,0.6,0.8,1.2,1.2,1.9
					c0.3,0.7,0.6,1.4,0.8,2.2l-0.2,0.2c-0.8-0.3-1.5-0.6-2.2-1c-0.7-0.4-1.3-0.8-1.8-1.3c-1.2-0.9-1.9-2.3-2.8-3.5
					c-0.9-1.2-1.8-2.4-2.7-3.6c-0.8-1.2-1.7-2.4-2.5-3.7L234.1,62z"/>
			</g>
		</g>
	</g>
</g>
</svg>
