<?xml version="1.0" encoding="utf-8"?>
<!-- Generator: Adobe Illustrator 21.1.0, SVG Export Plug-In . SVG Version: 6.00 Build 0)  -->
<svg version="1.1" id="圖層_1" xmlns="http://www.w3.org/2000/svg" xmlns:xlink="http://www.w3.org/1999/xlink" x="0px" y="0px"
	 viewBox="0 0 39.2 34.8" style="enable-background:new 0 0 39.2 34.8;" xml:space="preserve">
<style type="text/css">
	.st0{fill:#FFD061;}
	.st1{fill:#534741;}
	.st2{fill:none;}
</style>
<g>
	<path class="st0" d="M0.9,11.6c0.4,2.8,1.5,11.1,1.5,11.1l-1.2,0.9l0.4,2l2.9,0.7L5,25.6l21.5,6.8v0.6l4.6,1.3l2.3-2.6v-0.8l3-4.7
		l0.6,0.2l1.7-1.5v-2.3l-1-0.1c0,0,0.8-9.1,0.8-11.9c0.1-0.6,0.8-6.5-2.2-7.1c-0.8-0.1-1.7-0.3-3.5-0.4c-0.5,0.1-0.6,0.5-1.1,0.6
		c-1.6-0.3-6.2-0.4-8.3-0.9c-0.4-1.1-3.1-1.9-6.2-0.6c-1.7-0.2-3.6-0.6-5.4-0.8c-0.3-0.7-2.2-1.3-2.7-1.1c-0.9,0-2.6,0-3.6,0.2
		C0.8,4.2,0.4,7.5,0.9,11.6z"/>
	<g>
		<g>
			<path class="st1" d="M0.6,11.3c-0.2-1.3-0.3-2.7-0.2-4C0.6,6,1,4.6,1.8,3.4c0.7-1.2,1.7-2.2,2.7-3.1c0.1-0.1,0.1-0.1,0.2-0.2
				C4.8,0.1,4.9,0,5.2,0l0.5,0c0.3,0,0.7,0,1,0c0.7,0,1.3,0.1,2,0.2l0,0.1c-0.7,0.2-1.3,0.3-2,0.4c-0.3,0.1-0.7,0.1-1,0.1
				c-0.2,0-0.3,0-0.5,0.1c0.1,0,0.1,0,0.1,0L5.1,1.1C4.2,2,3.2,2.9,2.4,3.9C0.9,5.9,0.5,8.7,0.6,11.3L0.6,11.3z"/>
		</g>
		<g>
			<path class="st1" d="M8.6,0.3C9.1,0,9.8,0.1,10.3,0.2c0.3,0.1,0.6,0.1,0.9,0.3c0.2,0.2,0.4,0.6,0.3,1l-0.1,0
				c-0.4-0.1-0.6-0.1-0.8-0.2c-0.2-0.1-0.4-0.3-0.6-0.4C9.8,0.8,9.6,0.7,9.4,0.6C9.1,0.5,8.9,0.4,8.6,0.3L8.6,0.3z"/>
		</g>
		<g>
			<path class="st1" d="M2.7,9.8L2.6,9.9l-0.3,0.3l0.2-0.6c0.1-0.2,0.2-0.3,0.3-0.5C2.9,9.1,2.9,9,3,9.1c0.1,0,0.2,0.1,0.4,0.3
				l0,0.1c0,0.3,0,0.4,0,0.5C3.4,10,3.3,10,3.2,10C3,9.9,2.9,9.9,2.7,9.8L2.6,9.6L2.7,9.8L2.7,9.8z"/>
		</g>
		<g>
			<path class="st1" d="M3.4,9.4C3.3,7.6,4.1,5.8,4.8,4.1c0.3-0.8,0.9-1.7,1.8-2.3c0.8-0.5,1.8-0.8,2.7-1l0,0l0.1,0
				c1.2,0.1,2.4,0.2,3.6,0.4c1.2,0.2,2.4,0.5,3.5,0.8l0,0.1c-1.2,0.1-2.4,0.1-3.6,0C11.7,2.1,10.5,2,9.3,1.8l0.1,0
				C8.6,1.9,7.7,2.1,7,2.5c-0.8,0.4-1.3,1-1.7,1.9C4.5,6,3.6,7.6,3.5,9.4L3.4,9.4z"/>
		</g>
		<g>
			<path class="st1" d="M3.4,9.3c0.9,0,1.8,0,2.7,0.1c0.4,0,0.9,0,1.3,0.1c0.4,0.1,0.9,0.3,1.3,0.7l0,0.1c-0.5,0.2-0.9,0.2-1.4,0.2
				c-0.5,0-0.9-0.2-1.3-0.3C5.1,10,4.3,9.7,3.4,9.3L3.4,9.3z"/>
		</g>
		<g>
			<path class="st1" d="M2.6,9.7c1.8,0.1,3.5,0.3,5.2,0.5c0.9,0.1,1.7,0.1,2.6,0.3c0.9,0.2,1.7,0.4,2.5,0.8l0,0.1
				c-0.9,0.1-1.8,0.1-2.7,0c-0.9-0.1-1.7-0.3-2.6-0.5C5.9,10.6,4.2,10.2,2.6,9.7L2.6,9.7z"/>
		</g>
		<g>
			<path class="st1" d="M8.5,10.7c0-0.5,0.3-1,0.6-1.4C9.5,9,9.9,8.7,10.5,8.5c0.3-0.1,0.5-0.2,0.5-0.2c0,0,0,0,0-0.1
				c0-0.1,0-0.1,0.1-0.2c0.2-0.2,0.4-0.2,0.6-0.3c0.4,0,0.7,0.1,0.9,0.2c0.2,0.1,0.4,0.3,0.6,0.4l0,0.1c-0.2,0.2-0.6,0.2-0.8,0.2
				c-0.2,0-0.4,0-0.5,0.1c0,0,0,0,0,0c0,0-0.1,0.1-0.1,0.1c0,0-0.1,0.1-0.2,0.2c-0.5,0.2-0.7,0.1-0.9,0.2c-0.4,0-0.8,0.2-1.2,0.4
				C9.1,10,8.8,10.3,8.5,10.7L8.5,10.7z"/>
		</g>
		<g>
			<path class="st1" d="M10.6,10.9c0.1-0.5,0.4-0.9,0.8-1.2c0.2-0.2,0.4-0.4,0.7-0.3c0.3,0,0.6,0.1,0.7,0.4l0,0.1
				c-0.2,0.2-0.4,0.4-0.6,0.5c-0.1,0.1-0.3,0-0.5,0.1C11.4,10.5,11.1,10.7,10.6,10.9L10.6,10.9z"/>
		</g>
		<g>
			<path class="st1" d="M12.9,11.5c-0.2-1-0.1-2.1,0.1-3.1c0.2-1,0.6-2,0.9-3c0.4-0.9,0.7-2,1.6-2.8c0.9-0.8,2-1,3.1-1.1l0,0.1
				c-0.9,0.6-1.8,1-2.4,1.7c-0.6,0.7-1.1,1.5-1.5,2.4c-0.5,0.9-0.9,1.8-1.2,2.8C13.2,9.4,13,10.4,12.9,11.5L12.9,11.5z"/>
		</g>
		<g>
			<path class="st1" d="M18.6,1.5c0.8-0.2,1.6-0.3,2.4-0.1c0.4,0.1,0.8,0.2,1.2,0.3c0.2,0.1,0.4,0.2,0.6,0.3
				c0.2,0.1,0.4,0.3,0.5,0.6l0.1,0.4L23,3c-0.7-0.1-1.4-0.2-2-0.1c-0.6,0.1-1.2,0.4-1.6,0.8l0,0l-0.1,0.1c-0.7,0.7-1.4,1.4-1.9,2.3
				c-0.5,0.8-1,1.8-1.3,2.8l-0.1,0c-0.1-1.1,0.1-2.2,0.6-3.2c0.5-1,1.2-1.9,2.2-2.5l-0.1,0.1c0.6-0.6,1.4-0.9,2.2-1
				c0.8-0.1,1.5,0.1,2.2,0.3l-0.3,0.4c0-0.2-0.4-0.5-0.7-0.7C21.7,2,21.4,1.8,21,1.7C20.2,1.6,19.4,1.6,18.6,1.5L18.6,1.5z"/>
		</g>
		<g>
			<path class="st1" d="M15.3,10.6c0.5-0.2,1.1-0.3,1.7-0.1c0.3,0.1,0.6,0.3,0.7,0.7c0.1,0.3,0,0.8-0.3,1l-0.1,0
				c-0.2-0.3-0.4-0.4-0.5-0.5c-0.1-0.1-0.1-0.3-0.3-0.4C16.3,10.9,15.8,10.7,15.3,10.6L15.3,10.6z"/>
		</g>
		<g>
			<path class="st1" d="M22.7,2.6c1.4,0.3,2.9,0.3,4.3,0.3c0.7,0,1.5-0.1,2.2,0c0.7,0.1,1.5,0.3,2.1,0.7l0,0.1
				c-0.8,0.2-1.5,0.2-2.2,0.2c-0.7,0-1.4-0.2-2.2-0.2C25.5,3.5,24,3.2,22.7,2.6L22.7,2.6z"/>
		</g>
		<g>
			<path class="st1" d="M15.9,10.6c0,0.3,0.1,0.6,0.2,0.7l-0.2-0.2l0.4,0c0.1,0,0.3,0,0.4,0c0.1,0,0.3,0.1,0.4,0.2
				c0.1,0.1,0.2,0.2,0.3,0.4l0,0.1c-0.2,0.2-0.3,0.2-0.5,0.3c-0.1,0-0.3,0.1-0.4,0c-0.1,0-0.2-0.1-0.4-0.2l-0.4-0.2l-0.2-0.1l0-0.1
				C15.5,11.1,15.6,10.7,15.9,10.6L15.9,10.6z"/>
		</g>
		<g>
			<path class="st1" d="M15.3,11.7c0-0.2-0.1-0.3-0.1-0.4c0-0.1-0.1-0.2,0-0.2c0.1,0,0.2,0.1,0.4,0.2l0.1,0.1
				c0.2,0.2,0.2,0.3,0.2,0.4c0,0.1-0.1,0-0.2,0C15.7,11.9,15.6,11.8,15.3,11.7L15.3,11.7z"/>
		</g>
		<g>
			<path class="st2" d="M15.3,11.8"/>
		</g>
		<g>
			<path class="st1" d="M17.4,12c0,0.1-0.1,0.1-0.1,0.1l-0.1,0l-0.3,0L16.3,12l-1.1-0.1l-0.1,0l0-0.1c-0.2-0.9-0.3-1.8-0.2-2.7l0,0
				l0,0c0.2-0.9,0.5-1.8,0.9-2.6c0.4-0.8,0.7-1.7,1.2-2.5c0.5-0.8,1.2-1.5,2-2c0.8-0.5,1.9-0.7,2.8-0.4l0,0.1
				c-0.9,0.1-1.7,0.5-2.3,1c-0.6,0.5-1.2,1.2-1.6,1.8c-1,1.4-1.9,3-2.4,4.6l0,0c-0.2,0.8-0.2,1.7-0.1,2.5l-0.1-0.1l1,0.2l0.5,0.1
				l0.3,0.1C17.2,12,17.3,12,17.4,12L17.4,12z"/>
		</g>
		<g>
			<path class="st1" d="M27.4,13.9c-2.5-0.4-4.9-0.6-7.4-0.8l-0.3,0l0-0.4c0-0.5-0.2-0.9-0.5-1.3c-0.3-0.4-0.6-0.7-1.1-0.9
				c-0.2-0.2-0.6-0.4-0.7-0.7c-0.1-0.2-0.1-0.2-0.1-0.2c0,0-0.1-0.1-0.2-0.1c-0.5-0.1-1.1-0.3-1.6-0.5l0-0.1c0.6,0,1.1-0.1,1.7,0
				c0.1,0,0.3,0,0.6,0.1C17.9,9,18,9.2,18.1,9.3c0.1,0.1,0.3,0.2,0.5,0.3c0.5,0.2,1.1,0.7,1.4,1.2c0.3,0.5,0.5,1.2,0.5,1.8l-0.4-0.4
				C22.5,12.7,25,13.1,27.4,13.9L27.4,13.9z"/>
		</g>
		<g>
			<path class="st1" d="M18.2,10c0.9,0.2,1.7,0.7,2.2,1.4c0.1,0.2,0.3,0.4,0.4,0.6c0.1,0.1,0.1,0.1,0.3,0.1l1.3,0.2l1.3,0.2
				c0.4,0.1,0.8,0.1,1.2,0.2c0.4,0.1,0.8,0.1,1.2,0.2c0.4,0.1,0.9,0.3,1.2,0.6l0,0.1c-0.8-0.2-1.6,0.2-2.5,0.1
				c-0.4,0-0.9-0.1-1.3-0.2L22.2,13L21,12.6c-0.1,0-0.3-0.1-0.4-0.1c-0.2-0.1-0.3-0.2-0.3-0.3c-0.1-0.2-0.2-0.4-0.3-0.5
				C19.6,10.9,18.9,10.3,18.2,10L18.2,10z"/>
		</g>
		<g>
			<path class="st1" d="M36.2,3.6c-0.6,0-1.2,0.4-1.7,0.8c-0.5,0.4-0.8,1-1.1,1.6c-0.6,1.1-1.2,2.3-1.6,3.5
				c-0.3,1.2-0.4,2.5-0.5,3.8l-0.2,1.9c-0.1,0.6-0.2,1.3,0,1.8l0.2,0.7l-0.6-0.3c-1-0.4-2.1-0.4-3.3-0.5l-0.4,0l0-0.4
				c0-1.3,0-2.5,0.1-3.7l0.1-1c0.1-0.3,0.1-0.6,0.2-0.9c0.1-0.6,0.3-1.2,0.6-1.8c0.4-1.2,0.9-2.3,1.6-3.4c0.7-1.1,1.6-2.1,2.8-2.7
				l0.1,0l0,0c1.4-0.1,2.6,0.6,3.8,0.6L36.2,3.6c-1.3,0.2-2.6-0.3-3.7-0.1l0.1,0c-1,0.6-1.7,1.5-2.3,2.5c-0.5,1.1-1,2.2-1.4,3.3
				c-0.2,0.6-0.4,1.2-0.6,1.7c-0.1,0.3-0.2,0.6-0.2,0.8L28,12.7c-0.1,1.2-0.2,2.5-0.2,3.6L27.4,16c1.1,0.1,2.4,0.1,3.5,0.7l-0.5,0.4
				c-0.1-0.8,0-1.4,0.1-2l0.3-1.9c0.2-1.3,0.3-2.6,0.7-3.8c0.5-1.3,1.1-2.3,1.8-3.5c0.3-0.6,0.7-1.1,1.2-1.6
				C34.9,3.8,35.5,3.5,36.2,3.6L36.2,3.6z"/>
		</g>
		<g>
			<path class="st1" d="M36.1,3.6c0.7,0,1.4,0.4,1.7,1c0.4,0.6,0.5,1.3,0.7,1.9c0.2,0.6,0.4,1.3,0.3,2c0,0.7-0.2,1.4-0.6,2l-0.1,0
				c-0.2-0.7-0.2-1.3-0.3-1.9c-0.1-0.6,0-1.3-0.1-1.9c-0.1-0.6-0.1-1.3-0.4-1.8C37.2,4.3,36.7,3.8,36.1,3.6L36.1,3.6z"/>
		</g>
		<g>
			<path class="st1" d="M30.6,17.2c1.1-1.3,2.3-2.5,3.5-3.7c0.6-0.6,1.1-1.3,1.8-1.8c0.7-0.5,1.4-1,2.3-1.2l0.1,0.1
				c-0.5,0.7-1.1,1.3-1.7,1.9C36,13,35.3,13.5,34.7,14C33.4,15.1,32,16.2,30.6,17.2L30.6,17.2z"/>
		</g>
		<g>
			<path class="st1" d="M34.1,11.7l-0.6,0.1l-0.1,0l-0.1-0.2c-0.2-0.6-0.1-1.3,0.1-1.9c0.1-0.3,0.2-0.7,0.6-0.9
				c0.5-0.2,0.8,0,1.1,0.2l0,0.1c-0.3,0.2-0.6,0.4-0.6,0.5c0,0.1-0.1,0.3-0.3,0.5c-0.3,0.4-0.5,0.9-0.6,1.4l-0.2-0.1L34.1,11.7
				L34.1,11.7z"/>
		</g>
		<g>
			<path class="st1" d="M35.4,7.2c0.2,0,0.4,0.1,0.6,0.2c0.2,0.2,0.3,0.3,0.3,0.5c0.2,0.4,0.3,0.8,0.4,1.2L36.6,9l0.6,0.1l0.4,0.1
				l-0.3,0.2c-0.5,0.3-0.9,0.7-1.2,1.1l-0.4,0.4l0-0.6c0-0.4-0.1-0.7-0.3-0.8c-0.1-0.1-0.2,0-0.2,0c-0.1,0.1-0.2,0.2-0.2,0.3
				c-0.3,0.6-0.4,1.3-0.2,1.9l0.1,0.3l-0.3,0.1c-0.6,0.2-0.9,1-1.7,1.6l-0.4,0.3l-0.2-0.5c-0.2-0.5-0.2-1.1-0.1-1.5
				c0.1-0.5,0.2-0.9,0.3-1.4C32.6,9.9,33,9,33.6,8.3c0.3-0.4,0.6-0.7,0.9-1c0.3-0.3,0.9-0.7,1.5-0.5c0.3,0.1,0.5,0.3,0.7,0.5
				C36.9,7.5,37,7.7,37,7.9c0.1,0.5,0.1,0.9,0.2,1.3l-0.1,0c-0.2-0.4-0.3-0.8-0.5-1.2c-0.2-0.4-0.5-0.7-0.7-0.7
				c-0.5,0-1.1,0.8-1.6,1.5c-0.5,0.7-0.8,1.4-1.1,2.2c-0.3,0.8-0.6,1.7-0.4,2.3l-0.6-0.2c0.3-0.2,0.5-0.5,0.8-0.8
				c0.3-0.3,0.6-0.6,1.1-0.8L33.9,12c-0.2-0.8,0-1.7,0.4-2.3c0.1-0.2,0.2-0.3,0.4-0.5C35,9,35.4,9,35.6,9.2C36,9.5,36,10,36,10.3
				l-0.4-0.1c0.4-0.4,0.9-0.8,1.4-1.1l0,0.3l-0.6-0.1l-0.1,0l0-0.1c0-0.4-0.1-0.8-0.3-1.1c-0.1-0.2-0.1-0.4-0.3-0.5
				C35.8,7.4,35.6,7.3,35.4,7.2L35.4,7.2z"/>
		</g>
		<g>
			<path class="st1" d="M36.6,9.1c-0.1,0.2-0.1,0.5-0.2,0.6c0,0.1,0,0.2-0.1,0.2c-0.1,0-0.3,0-0.5-0.1l-0.1-0.1
				c-0.1-0.3-0.1-0.4-0.1-0.5c0-0.1,0.2-0.1,0.3-0.1C36.1,9.1,36.3,9,36.6,9.1L36.6,9.1z"/>
		</g>
		<g>
			<path class="st1" d="M33.5,11.8c-0.1,0.3-0.2,0.5-0.3,0.8c-0.1,0.1-0.1,0.3-0.2,0.3c-0.1,0-0.3,0.1-0.6-0.1l-0.1-0.1
				c-0.1-0.3-0.1-0.5,0-0.6c0-0.1,0.2-0.1,0.4-0.2C32.8,11.9,33.1,11.8,33.5,11.8L33.5,11.8z"/>
		</g>
		<g>
			<path class="st1" d="M14.5,11.8c-0.1-0.4-0.2-0.8-0.2-1.3c0-0.1,0-0.2,0-0.2c0,0-0.1-0.1-0.1-0.2C14,10,13.9,9.9,13.7,9.8
				l0.4-0.1c-0.2,0.2-0.3,0.5-0.4,0.8l0-0.2l0.2,1.1L13.6,12c0.1,0,0.1-0.1,0.1-0.1c0,0,0,0.1,0,0.1c0,0,0-0.1-0.1-0.1
				c0,0,0,0-0.1,0c0,0-0.1-0.1-0.1-0.1c-0.1,0-0.2,0-0.1,0l0.2,0c0.1,0,0.3,0,0.4,0l-0.3,0.8c-0.2-0.2-0.3-0.5-0.2-0.8
				c0.1-0.3,0.4-0.4,0.6-0.4l-0.3,0.3c0.1-0.3,0.2-0.7,0.4-1l0.1,0C14.4,11.1,14.5,11.5,14.5,11.8l-0.3,0.3c0,0,0.1,0,0.1,0
				c0-0.1,0-0.1,0-0.2L14,12.8c-0.1,0-0.3,0-0.4,0l-0.2,0c0,0-0.1,0-0.3-0.1c0,0-0.1-0.1-0.1-0.1c0,0,0-0.1-0.1-0.1
				c0-0.1-0.1-0.1-0.1-0.2c-0.1-0.2-0.1-0.3-0.1-0.6c0-0.3,0.2-0.5,0.5-0.7l-0.3,0.5l0-1.2l0-0.1l0-0.1c0.2-0.3,0.4-0.6,0.6-0.9
				l0.2-0.2L14,9.4c0.2,0.1,0.4,0.3,0.5,0.5c0.1,0.1,0.1,0.2,0.2,0.4c0.1,0.2,0,0.3,0,0.4C14.5,11,14.5,11.4,14.5,11.8L14.5,11.8z"
				/>
		</g>
		<g>
			<path class="st1" d="M13.1,11.8c-0.4,0.1-0.7,0.4-0.8,0.8c-0.1,0.4,0,0.8,0.1,1.2c0.1,0.4,0.3,0.7,0.6,0.9
				c0.3,0.2,0.7,0.3,1.1,0.3c0.8,0,1.1-0.5,1.1-1.1c0-0.3-0.1-0.7-0.3-1c-0.2-0.3-0.4-0.7-0.8-0.8l0-0.1c0.5-0.2,1,0.2,1.4,0.5
				c0.3,0.3,0.6,0.8,0.7,1.4c0.1,0.6-0.1,1.2-0.6,1.6c-0.5,0.4-1.1,0.5-1.6,0.4c-0.5-0.1-0.9-0.2-1.4-0.6c-0.4-0.4-0.6-0.8-0.7-1.3
				c-0.1-0.5-0.1-1,0.1-1.4C12.2,12,12.6,11.7,13.1,11.8L13.1,11.8z"/>
		</g>
		<g>
			<path class="st1" d="M13.1,12.3c-0.3,0.1-0.4,0.4-0.4,0.7c0,0.3,0.1,0.5,0.2,0.8c0.1,0.3,0.3,0.5,0.4,0.6
				c0.2,0.1,0.5,0.2,0.7,0.2c0.2,0,0.3-0.1,0.4-0.2c0.1-0.2,0.1-0.4,0.2-0.6c0.1-0.4-0.1-0.9-0.6-1.4l0-0.1c0.7-0.1,1.5,0.6,1.5,1.5
				c0,0.4-0.1,0.8-0.4,1.2c-0.1,0.2-0.3,0.3-0.6,0.4c-0.3,0.1-0.5,0-0.7,0c-0.4-0.1-0.7-0.2-1-0.5c-0.3-0.3-0.4-0.7-0.5-1
				c-0.1-0.3-0.1-0.7,0-1C12.5,12.6,12.7,12.3,13.1,12.3L13.1,12.3z"/>
		</g>
		<g>
			<path class="st1" d="M13.5,12.5c0,0.1,0.1,0.2,0.1,0.4c0,0.1-0.1,0.2-0.1,0.2l0,0.1c0.1,0.2,0.2,0.3,0.4,0.2c0,0,0.1,0,0.1,0
				c0,0-0.2,0-0.2,0c0,0,0-0.1,0-0.1c0,0,0,0,0,0c0,0,0,0,0.1,0c0,0,0-0.1,0-0.1l0-0.1c0-0.1,0-0.1,0-0.2c0-0.1,0.1-0.2,0.2-0.3
				l0.1,0.1c0,0.1,0.1,0.1,0.2,0.1l0.1,0c0,0,0.1,0.1,0.1,0.1c0.1,0.1,0.1,0.1,0.2,0.2c0.1,0.1,0.1,0.3,0,0.4
				c-0.1,0.3-0.1,0.4-0.3,0.5c-0.1,0.1-0.4,0.2-0.5,0.2c-0.1,0-0.2-0.1-0.3-0.1c-0.4-0.2-0.6-0.6-0.6-0.9c0-0.1,0-0.2,0.1-0.3
				c0.1-0.1,0.1-0.1,0.1-0.1C13.4,12.8,13.3,12.6,13.5,12.5L13.5,12.5z"/>
		</g>
		<g>
			<path class="st1" d="M27.2,16.4L15,14.2C11,13.5,6.9,12.7,2.9,12l-0.2,0l-0.1-0.2c-0.7-1-0.5-2.1-0.4-3.1C2.4,7.8,2.6,6.9,2.9,6
				c0.3-0.9,0.7-1.8,1.2-2.6c0.5-0.8,1.2-1.6,2-2.1l0,0l0,0C6.7,0.9,7.4,0.7,8,0.5c0.6-0.2,1.3-0.3,2-0.1l0,0.1
				C9.4,0.4,8.7,0.6,8.1,0.9C7.5,1.1,7,1.4,6.4,1.8l0,0C5.1,2.9,4.3,4.5,3.9,6.3C3.6,7.1,3.4,8,3.2,8.9C3.1,9.8,3,10.6,3.4,11.2
				L3.1,11c4,0.9,8,1.8,12.1,2.7L27.2,16.4L27.2,16.4z"/>
		</g>
		<g>
			<path class="st1" d="M0.5,9.7L0.3,10c0,0.1,0,0,0,0.1l0,0.2l0.1,0.6l-0.2-0.2c0.3,0,0.6,0.1,0.9,0.1l0.5,0.1c0.1,0,0.1,0,0.2,0
				c0,0-0.1,0-0.2,0.1c0,0,0,0,0-0.1c0.1-0.1,0.3-0.2,0.3-0.2c0.1,0,0,0,0,0c0,0-0.1,0-0.1,0c-0.1,0,0,0.1-0.1,0
				c0-0.1-0.2-0.2-0.2-0.2c-0.1-0.1,0-0.1,0-0.1L2,10.2c0.1-0.2,0-0.1,0,0c0,0.1-0.1,0.2-0.2,0.3c-0.2,0.1-0.2,0.1-0.3,0.1
				c-0.1,0-0.1,0-0.2,0l-0.1,0L1,10.4c-0.2-0.1-0.4-0.2-0.7-0.4l0-0.1c0.2-0.1,0.5-0.1,0.7-0.2l0.2,0l0.1,0c0,0,0.1,0,0,0
				c-0.1,0-0.1,0-0.2,0.1C1.1,9.9,1.1,10,1.1,9.9c0,0,0-0.1,0.1-0.4l0.1-0.2l0.3,0c0.4-0.1,0.7,0.1,0.8,0.3c0.2,0.2,0.2,0.3,0.3,0.5
				c0.1,0.2,0.2,0.6-0.1,0.9c-0.1,0.1-0.1,0.2-0.2,0.2c-0.1,0.1-0.2,0.1-0.2,0.1c0,0,0.1-0.1,0.1-0.1c0,0,0,0-0.1,0.1
				c-0.2,0.2-0.4,0.3-0.6,0.2c-0.1,0-0.2-0.1-0.3-0.1L1,11.4c-0.3-0.1-0.6-0.2-0.9-0.3L0,11l0-0.1l0-0.6l0-0.2
				c0-0.1,0.1-0.2,0.1-0.2L0.5,9.7L0.5,9.7z"/>
		</g>
		<g>
			<path class="st1" d="M27.9,15.2l0.6-0.5l0.3-0.2c0.1-0.1,0.4-0.1,0.5,0c0.3,0.2,0.3,0.3,0.6,0.4C30,15,30.2,15,30.5,15
				c0.2,0,0.3,0,0.4-0.1c0.1-0.1,0.1-0.4,0.6-0.7c0.2-0.1,0.5,0,0.6,0c0.1,0,0.1,0.1,0.2,0.1c0,0,0.2,0.1,0.3,0.4
				c0,0.1,0,0.2-0.1,0.3l0,0c0,0,0,0.1,0,0.1c0,0.1,0,0.1,0,0.2l0.3,0.8L32,16c0,0-0.2,0.3-0.6,0.6c-0.2,0.2-0.6,0.4-0.9,0.3
				c-0.3-0.1-0.4-0.1-0.6-0.1c-0.3-0.1-0.8-0.1-1.2-0.3c-0.5-0.2-0.7-0.6-0.9-1l0.1-0.1c0.4,0.2,0.7,0.4,1,0.4c0.3,0,0.7-0.1,1.1,0
				c0.2,0,0.5,0.1,0.6,0.1c0.1,0,0,0,0.2-0.1c0.1-0.1,0.2-0.2,0.4-0.4c0.2-0.1,0.5-0.4,0.9-0.3l-0.4,0.5c0-0.2,0-0.4,0-0.5
				c0-0.1,0.1-0.2,0.1-0.2l0.1-0.1c0,0,0,0.1,0,0.1c0,0.2,0.1,0.2,0.1,0.2l-0.1-0.1c-0.1,0-0.1,0-0.1,0c0,0-0.2,0.2-0.4,0.4
				c-0.1,0.1-0.3,0.2-0.5,0.3c-0.2,0-0.3,0-0.5,0c-0.2-0.1-0.5-0.1-0.7-0.2c-0.3-0.1-0.5-0.4-0.6-0.5c-0.1,0-0.1-0.1-0.2,0L28.6,15
				L27.9,15.2L27.9,15.2z"/>
		</g>
		<g>
			<path class="st1" d="M37.7,10.3l-0.1,0.1l-0.1,0l0-0.1c0-0.2,0-0.5,0.1-0.7c0-0.2,0.1-0.5,0.1-0.7l0.4-0.2c-0.1,0-0.1,0-0.1,0
				l0.1-0.1c0-0.1,0.1-0.1,0.2-0.2c0.1-0.1,0.4-0.1,0.5-0.1l0,0L39,8.4L39,9c0,0.2,0,0.4,0,0.6l0,0.2c0,0.1,0,0.1,0,0.3
				c0,0.1-0.1,0.3-0.3,0.4c-0.1,0.1-0.2,0.1-0.3,0.1c-0.1,0,0.1,0,0-0.3l-0.4,0.3c0-0.1,0-0.1-0.1-0.2
				C37.9,10.3,37.8,10.3,37.7,10.3z M37.7,10.2c0.1-0.1,0.2-0.1,0.3-0.1c0.1,0,0.3,0,0.4,0.1L38,10.5c-0.1-0.4,0.3-0.5,0.3-0.6
				c0,0,0-0.1-0.1,0c-0.1,0-0.2,0.2-0.2,0.2c0,0.1,0-0.1-0.1-0.1c0-0.1,0-0.2,0-0.2c0-0.3,0-0.8,0.4-1.1l0.2,0.6l0,0
				c0,0,0.1,0,0.1,0c0,0,0,0-0.1,0c0,0-0.2,0.1-0.3,0.2c-0.1,0.1-0.3,0.1-0.5,0l0.4-0.2c-0.1,0.2-0.2,0.4-0.3,0.6
				c-0.1,0.2-0.3,0.4-0.3,0.6l-0.1,0L37.7,10.2z"/>
		</g>
		<g>
			<path class="st1" d="M4.4,23.3c-0.1-1-0.1-2-0.3-2.9c-0.2-1-0.4-1.9-0.5-2.9l-0.5-2.9l-0.5-2.8l0.3,0.2l-2.2-0.3l0.5-0.5l0.5,2.9
				C1.8,15,2,16,2.1,16.9c0.1,1,0.3,1.9,0.4,2.9l0.2,2.9l-0.1-0.1c0.7,0.2,1.4,0.5,2,0.8l-0.1,0.1L4.4,23.3z M4.5,23.3l0,0.2l0,0.1
				l-0.1-0.1c-0.6-0.3-1.3-0.5-2-0.6l-0.1,0l0-0.1L1.7,20c-0.2-1-0.4-1.9-0.6-2.9c-0.2-1-0.3-1.9-0.4-2.9l-0.4-2.9l-0.1-0.5l0.5,0.1
				l2.2,0.4l0.2,0l0.1,0.1c0.1,0.3,0.1,0.4,0.1,0.5l0,0.4L3.5,13l0.2,1.5L4,17.4C4.3,19.3,4.4,21.3,4.5,23.3z"/>
		</g>
		<g>
			<path class="st1" d="M3.3,13.7c2,0.1,4,0.5,6,0.8l6,1.2c1,0.2,2,0.4,3,0.6c1,0.2,1.9,0.2,3,0.4c2,0.3,4,1,5.9,1.8l0,0.1
				c-2-0.3-4-0.7-6-0.9c-1-0.1-2-0.1-3-0.4c-1-0.2-2-0.5-3-0.7l-5.9-1.5C7.3,14.6,5.3,14.1,3.3,13.7L3.3,13.7z"/>
		</g>
		<g>
			<path class="st1" d="M27.4,16.4l0.4,6.9c0.1,2.3,0.1,4.6-0.1,6.9l-0.2-0.3c1.1,0.4,2.2,0.8,3.3,1l-0.5,0.4l-0.2-3.6
				c0-1.2,0.1-2.4,0.2-3.6c0.1-1.2,0.1-2.3,0.1-3.5c0-1.2,0-2.4,0.1-3.6l0.2,0.3C29.6,17,28.5,16.7,27.4,16.4l0-0.1
				c1.1,0.1,2.3,0.2,3.4,0.3l0.2,0l0,0.3c0.1,1.2,0.2,2.4,0.2,3.6c0.1,1.2,0.1,2.4,0,3.6c-0.1,1.2-0.2,2.4-0.2,3.5l0,3.6l0,0.5
				l-0.5-0.1c-1.2-0.3-2.3-0.7-3.4-1.2l-0.2-0.1l0-0.2c0.3-2.2,0.4-4.5,0.4-6.8L27.4,16.4L27.4,16.4z"/>
		</g>
		<g>
			<path class="st1" d="M4.3,20.6c0.4,0.5,0.8,0.9,1.2,1.3c0.4,0.4,0.9,0.8,1.4,1c0.5,0.3,1.1,0.4,1.6,0.8c0.5,0.3,1,0.7,1.4,1.2
				l0,0.1c-0.7,0-1.2-0.2-1.8-0.4c-0.6-0.2-1-0.6-1.5-1C5.5,22.8,4.8,21.8,4.3,20.6L4.3,20.6z"/>
		</g>
		<g>
			<path class="st1" d="M4.5,23.4l1.4,0.2c0.5,0.1,0.9,0.2,1.4,0.3c0.5,0.1,0.9,0.1,1.4,0.3c0.4,0.2,0.8,0.5,1.2,0.9l0,0.1
				c-0.5,0.1-1,0.1-1.5,0C7.9,25,7.5,24.8,7,24.6L4.5,23.4L4.5,23.4z"/>
		</g>
		<g>
			<path class="st1" d="M3.8,13.9c0.4,1,0.7,2.1,0.8,3.2l0.2,1.6l0.1,0.8C5,19.8,5,20.1,5,20.2c0.1,0.2,0.6,0.7,1,1.1
				c0.4,0.4,0.8,0.8,1.1,1.2c0.6,0.8,1.6,1.2,2.5,1.9l0,0.1c-1.1-0.1-2.3-0.4-3.2-1.2C6.2,23,6,22.8,5.8,22.6l-0.5-0.6l-0.5-0.6
				c-0.1-0.2-0.4-0.4-0.5-0.8c-0.1-0.4,0-0.6-0.1-0.9l0-0.8l-0.1-1.6C4,16,3.9,15,3.8,13.9L3.8,13.9z"/>
		</g>
		<g>
			<path class="st1" d="M10.8,15.1c0.2,0.9,0.5,1.7,0.6,2.6c0.2,0.9,0.2,1.8,0.2,2.7c0.1,0.9,0.3,1.7,0.3,2.6c0,0.9,0,1.8-0.2,2.7
				l-0.1,0c-0.4-0.9-0.6-1.7-0.7-2.6c-0.2-0.9-0.1-1.8-0.1-2.7c0-0.9,0.1-1.8,0.1-2.7C10.9,16.9,10.8,16,10.8,15.1L10.8,15.1z"/>
		</g>
		<g>
			<path class="st1" d="M11.4,15.4c0.3,1.7,0.5,3.3,0.8,5c0.1,0.8,0.3,1.6,0.3,2.5c0,0.8,0,1.7-0.2,2.5l-0.1,0
				c-0.4-0.8-0.5-1.6-0.7-2.5c-0.2-0.8-0.1-1.7-0.1-2.5C11.3,18.8,11.3,17.1,11.4,15.4L11.4,15.4z"/>
		</g>
		<g>
			<path class="st1" d="M11.7,25.8c-0.6-0.2-1.3-0.4-1.9-0.5l-0.1,0l0-0.1c-0.3-0.9-0.3-1.8-0.4-2.6C9.2,21.7,9.1,20.9,9,20
				c-0.1-0.8-0.2-1.7-0.3-2.6c0-0.9,0-1.7,0.1-2.6l0.1,0c0.4,0.8,0.6,1.7,0.8,2.5c0.2,0.9,0.3,1.7,0.3,2.6l0,2.6
				c0,0.9-0.1,1.7,0.1,2.5L9.9,25C10.5,25.1,11.2,25.4,11.7,25.8L11.7,25.8z"/>
		</g>
		<g>
			<path class="st1" d="M11.7,25.6c0.4,0,0.7-0.1,1.1,0c0.2,0,0.4-0.1,0.5,0.1c0.1,0.1,0.3,0.3,0.4,0.6l0,0.1
				c-0.3,0.2-0.5,0.3-0.6,0.3c-0.2,0-0.3-0.1-0.5-0.2C12.3,26.2,12,26,11.7,25.6L11.7,25.6z"/>
		</g>
		<g>
			<path class="st1" d="M18.5,27.8l-1-0.3c-0.3-0.1-0.7-0.2-1-0.2l0,0l0,0l-2.6-0.7l-0.2-0.4c0,0,0,0,0,0.1c0,0,0,0,0-0.1l0-0.2
				l0-0.3L13.4,25l-0.2-1.3l-0.4-2.7c-0.1-0.9-0.1-1.8-0.2-2.7c0-0.9,0-1.8,0.1-2.7l0.1,0c0.3,0.9,0.4,1.7,0.6,2.6
				c0.2,0.9,0.3,1.8,0.3,2.7l0.1,2.7l0.1,1.3l0,0.7l0,0.3l0,0.2l0,0.1c0,0.1,0,0.2-0.1,0.2L14,26.1l2.5,0.9l0,0c0.4,0,0.7,0.2,1,0.3
				L18.5,27.8L18.5,27.8z"/>
		</g>
		<g>
			<path class="st1" d="M18.1,16.8c0.2,1.8,0.5,3.7,0.6,5.5c0.1,0.9,0.3,1.8,0.2,2.8c0,0.9-0.1,1.9-0.3,2.8l-0.1,0
				c-0.3-0.9-0.5-1.8-0.6-2.7c-0.1-0.9,0-1.8,0-2.8C17.9,20.5,17.9,18.6,18.1,16.8L18.1,16.8z"/>
		</g>
		<g>
			<path class="st1" d="M20.4,17.1l0.4,3.4c0.1,1.1,0.3,2.2,0.4,3.4c0.1,1.1,0.2,2.3,0.1,3.4l0,0.8l0,0.2l0,0.1l0,0.1
				c0,0.1-0.1,0.2-0.2,0.3c-0.1,0.1-0.2,0-0.2,0l-0.1,0l-0.1,0c-0.2-0.1-0.3-0.1-0.4-0.2l-1.5-0.8l0-0.1c0.6,0,1.2,0.1,1.7,0.2
				l0.4,0.1c0,0,0,0,0,0l0,0c0,0-0.1,0-0.2,0c-0.1,0.1-0.2,0.2-0.2,0.3c0,0.1,0,0.1,0,0.1l0,0l0-0.1l0-0.2l-0.1-0.8
				c-0.1-1.1,0-2.3,0.1-3.4c0.1-1.1-0.1-2.2-0.1-3.4L20.4,17.1L20.4,17.1z"/>
		</g>
		<g>
			<path class="st1" d="M38.3,10.6c-0.2,3.8-0.4,7.6-0.5,11.4l-0.1-0.2c0.4,0.1,0.7,0.2,1,0.2l0.5,0l-0.4,0.4
				c-0.3,0.3-0.6,0.7-0.9,1.1c-0.1,0.2-0.3,0.4-0.4,0.6l-0.1,0.1l0,0.1c0,0,0,0-0.1,0.1c-0.2,0.1-0.3,0.1-0.4,0l-0.1,0l-0.1-0.1
				l0.3-0.1l-4,5.1L33,28.8c0.1,0,0.1,0,0.2,0l0.9-0.2l-0.6,0.7l-1.1,1.3c-0.4,0.4-0.7,0.8-0.9,1.3l-0.1,0.3L31,32.2l-2.3-0.6
				l-1.1-0.3c-0.4-0.1-0.7-0.2-1.1-0.2l-0.8,0l0.4-0.7l0.2-0.4l0.2,0.6L20.2,29c-2.1-0.6-4.3-1.3-6.4-1.9c-2.1-0.7-4.2-1.3-6.4-2
				c-0.5-0.2-1.1-0.3-1.6-0.5l-0.8-0.2c-0.1,0-0.3-0.1-0.3-0.1c0,0,0,0-0.1,0c0,0-0.1,0.1-0.3,0.1c-0.3,0-0.4-0.1-0.5-0.1l-0.4-0.1
				l-0.8-0.3l-1.6-0.6l0-0.1l1.6,0.4l0.8,0.2L4,23.9c0.1,0,0.3,0.1,0.3,0.1c0,0,0,0,0.1-0.1c0-0.1,0.2-0.1,0.3-0.1
				c0.2,0,0.4,0,0.5,0.1L6,24c0.5,0.1,1.1,0.3,1.6,0.4c2.2,0.5,4.3,1.2,6.4,1.7c2.1,0.6,4.3,1.2,6.4,1.9l6.4,2l0.5,0.2l-0.3,0.5
				L26.9,31l-0.4-0.6c0.5,0,0.9,0.1,1.3,0.2l1.2,0.3l2.3,0.6l-0.4,0.2c0.3-0.6,0.7-1,1.1-1.4L33,29l0.3,0.5c-0.2,0-0.4,0-0.6-0.1
				l-0.3-0.2l0.2-0.3l4.1-5l0.2-0.2l0.2,0.1l0.1,0.1l0.1,0c0,0-0.1,0-0.2,0c-0.1,0.1,0,0,0,0l0-0.1l0.1-0.1c0.1-0.2,0.3-0.4,0.4-0.6
				c0.3-0.4,0.6-0.7,0.9-1.1l0.2,0.4c-0.4,0-0.8-0.1-1.2-0.3l-0.2-0.1l0-0.2C37.6,18.2,37.9,14.4,38.3,10.6L38.3,10.6z"/>
		</g>
		<g>
			<path class="st1" d="M16.2,16.4c0.1,1.7,0.3,3.4,0.6,5.1l0.4,2.5c0.1,0.8,0.1,1.7,0.1,2.6l-0.3-0.3c0.5,0.2,1,0.5,1.5,0.8l0,0.1
				c-0.6,0-1.1-0.1-1.7-0.1l-0.2,0l-0.1-0.3c-0.2-0.8-0.3-1.7-0.4-2.5L16,21.5C16,19.8,15.9,18.1,16.2,16.4L16.2,16.4z"/>
		</g>
		<g>
			<path class="st1" d="M17,26.6l-0.5,0.5l-0.1,0.1l0-0.2l-0.4-2.6c-0.1-0.9-0.2-1.8-0.3-2.7c-0.1-0.9-0.2-1.8-0.2-2.7
				c0-0.9,0.1-1.8,0.3-2.7l0.1,0c0.3,0.9,0.4,1.8,0.5,2.6c0.1,0.9,0.1,1.8,0,2.7c0,0.9,0,1.8,0,2.6l0.1,2.7l-0.2-0.1L17,26.6
				L17,26.6z"/>
		</g>
		<g>
			<path class="st1" d="M11.7,25.7c0.1-0.2,0.2-0.5,0.4-0.6l0,0l0.2,0c0.3,0,0.6,0,0.8,0c0.1,0,0.3,0.1,0.4,0.2
				c0.1,0.1,0.2,0.3,0.3,0.5l0,0.1c-0.2,0.1-0.3,0.2-0.5,0.3c-0.1,0-0.3,0-0.4,0c-0.2-0.2-0.5-0.3-0.7-0.4l0.2,0
				C12.2,25.6,12,25.7,11.7,25.7L11.7,25.7z"/>
		</g>
		<g>
			<path class="st1" d="M20.7,17.1l0-0.4c0,0,0-0.2,0-0.1L20.7,17.1l0,0.1l0,0.4c0,0.1,0-0.1,0-0.1l0-0.3V17.1z"/>
		</g>
		<g>
			<path class="st1" d="M20.7,17.1c0.3,0,0.2,0.2,0.2,0.3l0,0.3l0.1,0.7l0.1,1.4l0.2,2.8c0,0.9,0.2,1.8,0.2,2.7c0,0.9,0,1.8-0.2,2.8
				l-0.1,0c-0.4-0.9-0.6-1.8-0.7-2.7c-0.1-0.9,0-1.9,0-2.8l0.1-2.8l0.1-1.4l0-0.7l0-0.3C20.7,17.3,20.7,17.2,20.7,17.1L20.7,17.1z"
				/>
		</g>
		<g>
			<path class="st1" d="M21.2,28c1-0.3,2-0.5,3-0.7c0.5-0.1,1-0.3,1.5-0.3c0.5,0,0.9-0.1,1.5-0.2l0.1,0.1c-0.2,0.6-0.8,0.9-1.3,1.1
				c-0.5,0.2-1.1,0.1-1.6,0.1C23.3,28.1,22.2,28.2,21.2,28L21.2,28z"/>
		</g>
		<g>
			<path class="st1" d="M20.9,28.4l1.7-0.2c0.6,0,1.1-0.2,1.7-0.3c0.5-0.1,1-0.4,1.6-0.6c0.5-0.1,1.1-0.3,1.7-0.4l0.1,0.1
				c-0.4,0.5-0.9,0.9-1.4,1.2c-0.5,0.3-1.2,0.3-1.8,0.4c-0.6,0.1-1.2,0.1-1.8,0l-1.7-0.2L20.9,28.4z"/>
		</g>
		<g>
			<path class="st1" d="M2.5,22.4c-0.3,0.4-0.8,0.8-1.3,0.9l0.1-0.1c0.2,0.4,0.4,0.9,0.4,1.4c0,0.1,0,0.3,0,0.4c0,0,0,0,0,0
				c0,0,0.1,0,0.2,0l0.7,0.2l1.4,0.4l0.3,0.1c0.1,0,0.3,0.1,0.2,0.1c0,0,0,0,0,0l0.1-0.1l0.3-0.3L5,25.3l0.1,0
				c1.8,0.6,3.6,1.1,5.3,1.5c1.8,0.5,3.6,0.8,5.4,1.4l5.2,2l2.6,0.9c0.9,0.3,1.8,0.6,2.6,0.9l0,0.1c-1.8-0.3-3.7-0.6-5.5-1.1
				c-1.8-0.5-3.6-1.1-5.3-1.9c-1.7-0.6-3.5-1-5.3-1.6C8.5,27,6.7,26.4,5,25.8l0.2-0.1L5,26l-0.1,0.1c-0.1,0.1-0.2,0.1-0.3,0.2
				c-0.3,0-0.3-0.1-0.4-0.1L3.8,26l-1.4-0.5l-0.7-0.2c-0.1,0-0.1,0-0.2-0.1c0,0-0.1-0.1-0.1-0.1c0,0-0.1-0.1-0.1-0.2l0-0.4
				c0-0.5-0.2-0.9-0.3-1.3l0-0.1l0.1,0C1.6,23,2,22.7,2.5,22.4L2.5,22.4z"/>
		</g>
		<g>
			<path class="st1" d="M26.6,30.6l0.1,2.4l-0.1-0.2l2.6,0.6l1.3,0.3l0.6,0.2l0.1,0l0,0c0,0,0.1,0,0,0c-0.1,0-0.2,0-0.3,0.1
				c-0.1,0.1,0,0,0,0l0.2-0.3c0.5-0.7,1-1.4,1.6-2.1l0.2-0.2c0,0,0,0,0.1-0.1c0,0,0-0.1,0-0.1c0-0.1,0-0.4,0-0.6
				c0-0.4,0.1-0.9,0.1-1.3l0.1,0c0.2,0.4,0.3,0.9,0.4,1.3l0.1,0.3c0,0.1,0.1,0.2,0.1,0.4l0,0.3c0,0.1-0.1,0.2-0.1,0.2
				c-0.1,0.2-0.1,0.3-0.2,0.4c-0.5,0.8-1,1.5-1.6,2.1l-0.2,0.3c-0.1,0.1,0,0-0.2,0.2c-0.1,0.1-0.2,0.1-0.3,0.1c-0.1,0,0,0-0.1,0l0,0
				l-0.1,0l-0.6-0.2l-1.2-0.4l-2.5-0.9l-0.2-0.1l0-0.1L26.6,30.6L26.6,30.6z"/>
		</g>
		<g>
			<path class="st1" d="M33.3,30.4c0.9-1.5,1.8-2.9,2.8-4.3l0.1-0.1l0.2,0l0.4,0l0.2,0c0.1,0,0.1,0,0,0c-0.1,0-0.1,0-0.1,0
				c0,0,0,0,0,0l0.1-0.2c0.1-0.1,0.1-0.2,0.2-0.3c0.3-0.4,0.7-0.8,1.1-1.1l-0.2,0.3c0.1-0.7,0.2-1.5,0.5-2.2l0.1,0
				c0.2,0.8,0.3,1.5,0.3,2.3l0,0.2L38.9,25l-1,1l-0.2,0.3l-0.1,0.1c0,0-0.1,0.1-0.1,0.1c-0.1,0-0.1,0.1-0.2,0.1
				c-0.2,0.1-0.3,0-0.4,0l-0.2,0l-0.4-0.1l0.3-0.1C35.6,27.8,34.5,29.1,33.3,30.4L33.3,30.4z"/>
		</g>
		<g>
			<path class="st1" d="M37.2,24.3c0.1,0.3,0.3,0.7,0.3,1c0,0.2,0.2,0.3,0.1,0.5c-0.1,0.2-0.2,0.3-0.5,0.5l-0.1,0
				c-0.3-0.2-0.4-0.3-0.4-0.5c-0.1-0.2,0.1-0.3,0.1-0.5C36.8,24.9,36.9,24.6,37.2,24.3L37.2,24.3z"/>
		</g>
		<g>
			<path class="st1" d="M36.8,24.2c0.1,0.4,0.2,0.8,0.2,1.1c0,0.2,0.1,0.4,0,0.5c-0.1,0.2-0.2,0.3-0.5,0.5l-0.1,0
				c-0.3-0.2-0.3-0.4-0.4-0.6c-0.1-0.2,0.1-0.4,0.2-0.6C36.4,24.9,36.6,24.6,36.8,24.2L36.8,24.2z"/>
		</g>
		<g>
			<path class="st1" d="M34.1,16.4l-1.8,2l0.1-0.1c0.2,2.2,0.4,4.4,0.2,6.7l-0.8-0.3c0.7-1.2,1.1-2.6,1.4-4
				C33.6,19.3,33.8,17.9,34.1,16.4L34.1,16.4c0.3,1.4,0.4,3,0.1,4.5c-0.1,0.7-0.3,1.5-0.6,2.2c-0.3,0.7-0.7,1.4-1.1,2l-1,1.5
				l0.3-1.8c0.3-2.1,0.3-4.4,0.2-6.6l0-0.1l0.1,0L34.1,16.4L34.1,16.4z"/>
		</g>
		<g>
			<path class="st1" d="M33.4,17.2c0.2,0.9,0.3,1.9,0.3,2.9c0,0.5,0,1-0.2,1.5c-0.2,0.5-0.5,0.9-1,1.2l-0.1-0.1c0-0.5,0.1-1,0.1-1.4
				c0.1-0.4,0.3-0.8,0.4-1.3C33.1,19.1,33.2,18.1,33.4,17.2L33.4,17.2z"/>
		</g>
		<g>
			<path class="st1" d="M36.5,18.5c0.1-0.8,0.1-1.7,0-2.5c0-0.8,0-1.7,0-2.5l0.5,0.2c-0.5,0.5-1,1.1-1.4,1.7l0.1-0.3
				c0.1,0.9,0.2,1.8,0.3,2.7l0,1.3c0,0.4,0.1,0.6,0.4,0.7l-0.2,0.3C36.3,19.5,36.5,19,36.5,18.5z M36.6,18.5c0,0.5,0,1.1,0.2,1.5
				l0.1,0.2l-0.3,0.1c-0.3,0.1-0.6,0-0.9-0.3c-0.2-0.2-0.4-0.5-0.5-0.7c-0.2-0.5-0.2-0.9-0.2-1.4C35,17,35,16.1,35,15.2l0-0.2L35,15
				c0.5-0.6,1.1-1.2,1.7-1.7l0.6-0.5l-0.1,0.8c-0.1,0.8-0.2,1.7-0.3,2.5C36.8,16.8,36.6,17.7,36.6,18.5z"/>
		</g>
		<g>
			<path class="st1" d="M36.3,14.1c0.1,0.9,0.2,1.8,0.3,2.7c0,0.5,0.1,0.9,0.1,1.4c-0.1,0.5-0.2,0.9-0.5,1.3l-0.1,0
				c-0.3-0.5-0.4-0.9-0.4-1.4c-0.1-0.5,0.1-0.9,0.1-1.4c0.1-0.9,0.3-1.8,0.4-2.7L36.3,14.1z"/>
		</g>
		<g>
			<path class="st1" d="M34.5,21.6c0.2,0.3,0.3,0.6,0.4,0.9c0,0.2,0.1,0.4,0,0.6c-0.1,0.2-0.3,0.3-0.6,0.4l-0.1,0
				C34.1,23.1,34,23,34,22.9c0-0.1,0.1-0.2,0.1-0.4C34.2,22.2,34.3,21.9,34.5,21.6L34.5,21.6z"/>
		</g>
		<g>
			<path class="st1" d="M34.6,21.7c0.2,0.3,0.6,0.5,0.8,0.5l0.9,0l-0.8,0.7c-0.2,0.1-0.2,0.4-0.4,0.5c-0.2,0.1-0.4,0.2-0.7,0.2
				l-0.1-0.1c-0.1-0.4-0.1-0.6,0.1-0.9c0.2-0.2,0.5-0.3,0.7-0.4l0.1,0.7C34.7,22.6,34.5,22.1,34.6,21.7L34.6,21.7z"/>
		</g>
		<g>
			<path class="st1" d="M2.3,21.6c0,0.1,0,0.2,0,0.2l0.3,0l0.3,0c0,0,0.1,0,0,0c-0.1,0-0.2,0.2-0.1,0.2c0,0,0,0,0,0c0,0,0,0,0-0.1
				c0-0.1,0.1-0.2,0.2-0.2l0.1,0l0.1,0c0.3,0.2,0.7,0.4,0.9,0.6l0.2,0.2c0,0,0.1,0,0.1,0.1c0.1,0.1,0.1,0.3,0,0.4
				c-0.2,0.2-0.2,0.2-0.3,0.2l-0.4,0.3L3,23c0,0.1,0.1,0.3,0.2,0.3c0,0,0.1,0,0,0c0,0,0,0-0.1,0l-0.2,0c-0.2,0-0.4-0.1-0.6-0.2
				L2.2,23C2.2,23,2,22.9,2,22.7c0-0.1-0.1-0.2,0-0.3l0-0.1c0.1-0.2,0.1-0.4,0.2-0.5l0.1,0c0.1,0.2,0.2,0.3,0.3,0.5l0,0.1
				c0,0,0,0,0,0c0-0.1-0.1-0.1-0.1-0.1c0,0,0.1,0,0.1,0c0.2,0,0.3,0,0.4,0l0.1,0c0.1,0,0.1,0,0.2,0c0.1,0,0.2,0,0.3,0.1
				C3.8,22.5,4,22.7,4,22.9l-0.7-0.4l0.5-0.2c0,0,0.1-0.1,0,0.1c-0.1,0.1,0,0.3,0,0.3c0,0,0,0,0,0l-0.1-0.2
				c-0.2-0.3-0.4-0.5-0.7-0.7l0.2,0c0.1,0,0.1-0.1,0.1-0.2c0,0,0,0,0,0l0,0.1c0,0.1-0.1,0.3-0.2,0.3c-0.1,0-0.1,0-0.2,0L2.6,22
				c-0.1,0-0.2,0-0.4-0.1C2,21.8,2.1,21.6,2.3,21.6L2.3,21.6z"/>
		</g>
		<g>
			<path class="st1" d="M31.6,29.7c-0.2,0.1-0.4,0.3-0.5,0.5c-0.1,0.1-0.1,0.2-0.2,0.3c-0.1,0.1-0.2,0.1-0.3,0.1l-0.2,0
				c-0.2,0-0.5-0.1-0.7-0.1c-0.2-0.1-0.5-0.1-0.5,0l-0.1,0.2l-0.2-0.2c-0.2-0.2-0.5-0.4-0.8-0.6c0,0-0.1,0-0.2-0.1
				c-0.1-0.1-0.2-0.4-0.1-0.6c0.2-0.2,0.2-0.2,0.3-0.3l0.4-0.4l0.1-0.1l0.2,0.1l1,0.3c0.3,0.1,0.7,0.2,0.9,0.2l-0.4,0.2
				c0.3-0.4,0.6-0.8,1-1.2l0.5-0.5l0.1,0.5c0,0.3,0,0.6,0,0.9c0,0.1,0,0.3-0.1,0.4C31.8,29.5,31.7,29.6,31.6,29.7z M31.5,29.6
				c0.1-0.1,0.2-0.2,0.2-0.3c0-0.1,0-0.2-0.1-0.4c-0.1-0.2-0.2-0.5-0.3-0.7l0.6,0c-0.2,0.5-0.5,1-0.8,1.5L31,30l-0.3,0
				c-0.3,0-0.5-0.1-0.7-0.2c-0.2-0.1-0.3-0.1-0.5-0.2l-1-0.4l0.4-0.1l-0.5,0.3c-0.1,0-0.2,0.2-0.1,0.1c0.1-0.1,0-0.3,0-0.3
				c0,0,0,0,0,0c0.4,0.2,0.7,0.5,0.9,0.8l-0.4,0c0.4-0.2,0.7,0,0.9,0c0.2,0.1,0.5,0.2,0.7,0.3c0.1,0,0.3,0.1,0.2,0.1
				c0.1-0.1,0.1-0.2,0.2-0.3C31.1,29.9,31.3,29.7,31.5,29.6z"/>
		</g>
		<g>
			<path class="st1" d="M37.7,21.1c-0.1,0.2-0.1,0.3-0.2,0.4c-0.1,0.1-0.3,0.3-0.3,0.4c0,0,0,0,0,0c0,0,0,0,0,0.1c0,0.1,0,0.2,0,0.3
				c0,0.2-0.1,0.4-0.2,0.5l-0.3-0.6c0.2,0,0.5-0.1,0.9,0l-0.6,0.1c0.1-0.1,0.1-0.2,0.2-0.3c0,0,0.1-0.1,0.1-0.1l0.1-0.1
				c0,0,0.1-0.1,0,0c0,0,0,0.2,0,0.1l0-0.2c0-0.1,0.1-0.3,0.2-0.4l0.1,0c0.1,0.1,0.2,0.2,0.3,0.3l0.1,0.2c0,0.1,0.1,0.3,0,0.5
				L38,22.5c0,0.1-0.1,0.1-0.1,0.2c-0.1,0.1-0.2,0.2-0.3,0.3l-0.7,0.7l0.1-0.6c0-0.1-0.1-0.1-0.4-0.1l-0.9-0.1l0.6-0.5
				c0.1-0.1,0.2-0.2,0.2-0.3c0-0.1,0.1-0.1,0.1-0.2c0,0,0-0.1,0.1-0.2c0-0.1,0.1-0.1,0.2-0.2c0.2-0.1,0.3-0.1,0.4-0.2
				C37.4,21.3,37.5,21.2,37.7,21.1L37.7,21.1z"/>
		</g>
		<g>
			<path class="st1" d="M36.3,13.6c-0.7,0.5-1.2,1.2-1.8,1.8c-0.6,0.6-1.1,1.3-2,1.7l-1,0.5l0.6-0.9c0.2-0.4,0.4-0.8,0.5-1.2l0-0.1
				l0.1-0.1c0.7-0.8,1.4-1.3,2.1-1.9c0.3-0.3,0.7-0.5,1-0.8l0.3-0.3c0.1-0.1,0.3-0.2,0.6-0.2c0.4,0,0.6,0.3,0.8,0.4l0.2,0.2
				l-0.2,0.1C37,13.1,36.7,13.4,36.3,13.6z M36.3,13.5c0.3-0.3,0.6-0.6,0.9-0.9l0,0.3c-0.2-0.1-0.4-0.2-0.5-0.1c0,0,0,0,0,0.1
				c0,0.1-0.1,0.2-0.2,0.3c-0.3,0.4-0.6,0.8-1,1.1c-0.8,0.6-1.6,1-2.2,1.6l0.1-0.1c-0.2,0.5-0.4,0.9-0.7,1.3l-0.4-0.5
				c0.3-0.1,0.7-0.3,1-0.6c0.3-0.3,0.6-0.5,1-0.8C34.9,14.6,35.6,14.1,36.3,13.5z"/>
		</g>
		<g>
			<path class="st1" d="M34.6,15.3c0,0.5,0.1,1,0.4,1.2c0.3,0.2,0.6,0.2,0.8-0.1c0.3-0.3,0.3-0.7,0.4-1c0.1-0.3,0.1-0.7-0.1-1.1
				l0-0.1c0.6,0,1.1,0.6,1.1,1.3c0,0.7-0.5,1.1-0.9,1.5c-0.2,0.2-0.6,0.3-0.9,0.3c-0.3,0-0.6-0.2-0.8-0.4
				C34.3,16.3,34.3,15.7,34.6,15.3L34.6,15.3z"/>
		</g>
		<g>
			<path class="st1" d="M34.7,14.5c0.1-0.1,0.3-0.1,0.4-0.1c0.2,0,0.3,0.3,0.3,0.3c0,0,0-0.1-0.1-0.1c0,0,0,0,0,0
				c0,0,0.1-0.1,0.1-0.2c0.1-0.1,0-0.3,0.1-0.3c0,0,0.3,0,0.2-0.4l0-0.1c0.1-0.1,0.4-0.1,0.6,0c0.2,0.1,0.3,0.4,0.3,0.6
				c0,0.4-0.3,0.6-0.5,0.8c-0.1,0.1-0.3,0.1-0.4,0.2c-0.1,0-0.2,0.1-0.3,0c-0.2,0-0.3-0.2-0.3-0.3c0-0.2,0-0.1,0-0.2
				C35,14.6,34.9,14.6,34.7,14.5L34.7,14.5z"/>
		</g>
		<g>
			<path class="st1" d="M35.2,14.9c-0.1,0.3-0.1,0.7,0,0.9c0.1,0.2,0.3,0.2,0.4,0.1c0.1-0.1,0.1-0.3,0.2-0.6
				c0.1-0.1,0.1-0.3,0.2-0.4c0,0,0.1,0,0.1-0.1c0-0.1,0-0.1-0.1-0.2l0-0.1c0.1-0.1,0.2-0.1,0.4-0.1c0.1,0,0.3,0.2,0.3,0.3
				c0.1,0.3,0.1,0.4,0.1,0.7c0,0.4-0.3,0.9-0.8,1.1c-0.3,0.1-0.6,0.1-0.8-0.1c-0.3-0.1-0.4-0.4-0.4-0.7
				C34.7,15.4,34.9,15.1,35.2,14.9L35.2,14.9z"/>
		</g>
		<g>
			<path class="st1" d="M34.6,16.4c0.1,0.3,0.1,0.6,0.1,1c0,0.2,0,0.3,0,0.5c0,0.2,0,0.2,0.1,0.3c0.3,0.6,0.5,1.3,0.5,2L34.5,20
				c0.1-0.5-0.1-1.1,0.1-1.8c0-0.2,0.1-0.4,0.2-0.5c0.1-0.1,0-0.1,0.1-0.1c0,0.1,0,0.1,0,0c-0.1-0.3-0.1-0.6-0.2-1l0.1,0
				c0.3,0.2,0.5,0.4,0.7,0.7c0,0,0.2,0.2,0.2,0.4c0,0.1-0.1,0.4-0.1,0.4c0,0.1,0,0.2,0,0.4c0,0.5,0,1.2-0.3,1.9L34,23.3l0.4-3.2
				c0.1-0.6,0-1.2-0.1-1.8c-0.1-0.2,0-0.4,0-0.6c0-0.1,0.1-0.3,0.1-0.5C34.4,17,34.5,16.7,34.6,16.4L34.6,16.4z"/>
		</g>
		<g>
			<path class="st1" d="M30.6,31.2c0.5-0.8,0.9-1.6,1.4-2.4c0.2-0.4,0.4-0.8,0.6-1.2l0.8-1.2c0.5-0.7,1-1.5,1.6-2.2
				c0.7-0.6,1.4-1.2,2.3-1.7l0.1,0.1c-0.4,0.9-1,1.6-1.6,2.3c-0.5,0.7-1.2,1.4-1.8,2.1l-0.9,1c-0.3,0.4-0.5,0.8-0.7,1.1
				C31.8,29.8,31.2,30.5,30.6,31.2L30.6,31.2z"/>
		</g>
		<g>
			<path class="st1" d="M34.7,22.6c0.1,0,0.3,0,0.3,0c0,0,0.1-0.1,0.1-0.1c-0.1,0-0.1,0.1-0.3,0.3l-0.1,0.1
				c-0.2,0.2-0.3,0.2-0.4,0.2c-0.1,0,0-0.1,0-0.2C34.3,22.8,34.4,22.6,34.7,22.6L34.7,22.6z"/>
		</g>
		<g>
			<path class="st1" d="M4.3,24.2c0.1,0.3,0.2,0.5,0.3,0.8c0.1,0.1,0.2,0.2,0.1,0.3c0,0.1-0.1,0.3-0.4,0.5l-0.1,0
				c-0.3-0.1-0.4-0.2-0.5-0.3c-0.1-0.1,0-0.3,0-0.5C3.9,24.8,4.1,24.5,4.3,24.2L4.3,24.2z"/>
		</g>
		<g>
			<path class="st1" d="M4.9,24c0.2,0.3,0.3,0.5,0.4,0.7c0.1,0.1,0.2,0.2,0.1,0.4c-0.1,0.1-0.1,0.3-0.4,0.5l-0.1,0
				c-0.3-0.1-0.4-0.2-0.5-0.3c-0.1-0.1,0-0.3,0.1-0.4c0.1-0.3,0.2-0.6,0.3-0.8L4.9,24z"/>
		</g>
		<g>
			<path class="st1" d="M31.2,31.9c0.1,0.4,0.3,0.8,0.3,1.2c0,0.2,0.2,0.4,0.1,0.6c-0.1,0.2-0.2,0.4-0.4,0.6h-0.1
				c-0.3-0.2-0.4-0.4-0.5-0.6c-0.1-0.2,0.1-0.4,0.1-0.6c0.1-0.4,0.2-0.8,0.4-1.2H31.2z"/>
		</g>
		<g>
			<path class="st1" d="M10.6,11c0.2-0.2,0.5-0.5,0.7-0.7l0,0l0.1,0c0.2,0,0.5-0.2,0.8-0.1c0.3,0.1,0.5,0.2,0.6,0.6l0,0.1
				c-0.3,0.3-0.5,0.3-0.7,0.3c-0.2,0-0.4-0.2-0.6-0.2l0.1,0C11.3,11,11,11,10.6,11L10.6,11z"/>
		</g>
		<g>
			<path class="st1" d="M11.4,10.5c0.2-0.3,0.4-0.5,0.6-0.7c0.1-0.1,0.2-0.3,0.4-0.2c0.2,0,0.3,0.1,0.5,0.4l0,0.1
				c-0.1,0.3-0.2,0.4-0.3,0.5c-0.1,0.1-0.2,0-0.4,0C12,10.6,11.7,10.6,11.4,10.5L11.4,10.5z"/>
		</g>
	</g>
</g>
</svg>
