<?xml version="1.0" encoding="utf-8"?>
<!-- Generator: Adobe Illustrator 22.0.1, SVG Export Plug-In . SVG Version: 6.00 Build 0)  -->
<svg version="1.1" id="圖層_1" xmlns="http://www.w3.org/2000/svg" xmlns:xlink="http://www.w3.org/1999/xlink" x="0px" y="0px"
	 viewBox="0 0 250 176.1" style="enable-background:new 0 0 250 176.1;" xml:space="preserve">
<style type="text/css">
	.st0{fill:#998675;}
	.st1{fill:#FFFCF2;stroke:#C7B299;stroke-width:3;stroke-miterlimit:10;}
	.st2{fill:#FFFCF2;}
	.st3{fill:none;stroke:#A34F49;stroke-width:15;stroke-miterlimit:10;}
	.st4{fill:none;stroke:#FFFCF2;stroke-width:15;stroke-miterlimit:10;}
	.st5{fill:none;stroke:#FFFCF2;stroke-width:15;stroke-miterlimit:10;stroke-dasharray:50,50;}
	.st6{fill:url(#SVGID_1_);}
</style>
<g>
	<path class="st0" d="M250.7,6v3c0,3.3-2.7,6-6,6H6.8c-3.3,0-6-2.7-6-6V6c0-3.3,2.7-6,6-6h237.9C248,0,250.7,2.7,250.7,6z"/>
	<polygon class="st1" points="225.7,13 225.7,148 125.7,174 25.7,148 25.7,13 	"/>
	<rect x="25.7" y="0" class="st2" width="200" height="15"/>
	<g>
		<line class="st3" x1="24.2" y1="7.5" x2="224.2" y2="7.5"/>
		<g>
			<g>
				<line class="st4" x1="27.2" y1="7.5" x2="52.2" y2="7.5"/>
				<line class="st5" x1="102.2" y1="7.5" x2="177.2" y2="7.5"/>
				<line class="st4" x1="202.2" y1="7.5" x2="227.2" y2="7.5"/>
			</g>
		</g>
	</g>
	<linearGradient id="SVGID_1_" gradientUnits="userSpaceOnUse" x1="125.7239" y1="-14.1136" x2="125.7239" y2="23.0766">
		<stop  offset="0" style="stop-color:#736357"/>
		<stop  offset="0.4926" style="stop-color:#938D8C;stop-opacity:0"/>
		<stop  offset="1" style="stop-color:#736357"/>
	</linearGradient>
	<path class="st6" d="M250.7,6v3c0,3.3-2.7,6-6,6H6.8c-3.3,0-6-2.7-6-6V6c0-3.3,2.7-6,6-6h237.9C248,0,250.7,2.7,250.7,6z"/>
</g>
</svg>
