<?xml version="1.0" encoding="utf-8"?>
<!-- Generator: Adobe Illustrator 22.0.1, SVG Export Plug-In . SVG Version: 6.00 Build 0)  -->
<svg version="1.1" id="圖層_1" xmlns="http://www.w3.org/2000/svg" xmlns:xlink="http://www.w3.org/1999/xlink" x="0px" y="0px"
	 viewBox="0 0 189 115.8" style="enable-background:new 0 0 189 115.8;" xml:space="preserve">
<style type="text/css">
	.st0{fill:#3B5366;}
	.st1{fill:#A34F49;}
	.st2{fill:#DCDDDD;}
</style>
<g>
	<g>
		<g>
			<path class="st0" d="M81.7,0.7H82C82.1,0.9,82.2,1,82.4,1h7.5c0.2,0,0.3-0.1,0.3-0.3h0.4v2.5h-0.6c0-1.2-0.9-1.9-2.6-1.9h-0.5
				v6.7c0,0.7,0.4,1,1.3,1v0.3H84V9c0.5,0,0.9-0.1,1-0.2c0.2-0.1,0.3-0.4,0.3-0.8V1.3h-0.6c-1.6,0-2.4,0.6-2.4,1.9h-0.6V0.7z"/>
			<path class="st0" d="M91.1,1h4.2v0.3c-0.5,0-0.9,0.1-1,0.2C94.1,1.6,94,1.9,94,2.3v2.2h5.2V2.3c0-0.4-0.1-0.7-0.3-0.8
				s-0.5-0.2-1-0.2V1h4.2v0.3c-0.5,0-0.9,0.1-1,0.2c-0.2,0.1-0.3,0.4-0.3,0.8v5.6c0,0.4,0.1,0.7,0.3,0.8c0.2,0.1,0.5,0.2,1,0.2v0.3
				h-4.2V9c0.5,0,0.8-0.1,1-0.2c0.2-0.1,0.3-0.4,0.3-0.8v-3H94v3c0,0.7,0.4,1,1.3,1v0.3h-4.2V9c0.5,0,0.8-0.1,1-0.2
				c0.2-0.1,0.3-0.4,0.3-0.8V2.3c0-0.4-0.1-0.7-0.3-0.8s-0.5-0.2-1-0.2V1z"/>
			<path class="st0" d="M109.8,0.6h0.4v2.5h-0.6c0-0.6-0.3-1.1-0.7-1.4c-0.5-0.3-1.2-0.4-2.2-0.4H106c-0.1,0.5-0.1,0.9-0.1,1.3
				c0,0.7,0.2,1.3,0.6,1.6c0.4,0.4,1,0.5,1.8,0.5h0.8v0.5L106,5.2V9h0.9c1.9,0,3-0.7,3.3-2.1h0.6l-0.7,2.7h-0.4
				c0-0.2-0.1-0.3-0.3-0.3h-6.2V9c0.5,0,0.9-0.1,1-0.2c0.2-0.1,0.3-0.4,0.3-0.8V2.3c0-0.4-0.1-0.7-0.3-0.8c-0.2-0.1-0.5-0.2-1-0.2V1
				h6.1C109.6,1,109.8,0.9,109.8,0.6z"/>
		</g>
		<g>
			<path class="st0" d="M109.3,46.7h0.5v2.4H109c0-0.7-0.3-1.1-0.9-1.4s-1.5-0.4-2.7-0.4h-0.8c-0.1,0.5-0.1,0.9-0.1,1.2
				c0,0.8,0.2,1.4,0.7,1.7c0.5,0.3,1.3,0.5,2.4,0.5h0.9v0.4l-3.8,0.1v2.5c0,0.6,0.5,1,1.6,1V55h-5.1v-0.3c0.6,0,1-0.1,1.3-0.2
				s0.3-0.4,0.3-0.8v-5.5c0-0.4-0.1-0.7-0.4-0.8c-0.2-0.1-0.6-0.2-1.2-0.2V47h7.9c0,0,0.1,0,0.2-0.1
				C109.2,46.8,109.3,46.8,109.3,46.7z"/>
		</g>
		<path class="st0" d="M92.2,47.4c1.2,0,2.2,0.1,3.1,0.4c0.9,0.3,1.7,0.7,2.4,1.3c0.7,0.6,1,1.3,1,2.1c0,0.9-0.4,1.7-1.3,2.5
			c-0.8,0.7-1.8,1.3-2.9,1.6c-1.1,0.3-2.3,0.5-3.5,0.5c-1.7,0-3.2-0.4-4.5-1.1c-1.2-0.7-1.8-1.6-1.8-2.7c0-1.2,0.8-2.3,2.3-3.2
			S90.3,47.4,92.2,47.4z M90.9,48c-1.3,0-2.3,0.3-3.2,0.8c-0.8,0.5-1.3,1.3-1.3,2.2c0,1.3,0.6,2.4,1.9,3.1c1.3,0.8,2.7,1.2,4.2,1.2
			c1.2,0,2.2-0.3,3.1-0.8c0.9-0.5,1.3-1.2,1.3-2.1c0-0.8-0.3-1.6-0.9-2.3c-0.6-0.7-1.4-1.2-2.4-1.6S91.8,48,90.9,48z"/>
		<g>
			<g>
				<path class="st1" d="M53.6,25.3c0.3-0.2,0.4-0.3,0.7-0.5c0.1,4.1,0.1,5.3,0.1,7.5c-0.5,0.2-0.7,0.4-1.2,0.6
					c-0.1-1.4-0.5-2.5-1.4-2.8c-0.9-0.3-2.2,0-3.9,1.2c-0.5,0.3-0.7,0.5-1.1,0.8c-0.1,1.6-0.1,2.6-0.1,3.5c0,1.6,0.4,2.2,1,2.4
					c0.7,0.2,1.8-0.2,3.3-0.9c0.6-0.3,0.9-0.5,1.5-0.7c0,0.3,0,0.5,0,0.8c-2.3,1.1-3.5,1.7-5.7,2.9c0,2.1,0.1,2.8,0.1,7.7
					c0.6-0.2,1-0.3,1.6-0.5c3.5-1.1,5.5-4.4,6-7.6c0.5-0.2,0.7-0.2,1.2-0.4c-0.5,2.6-0.7,4-1.2,8.6c-0.3,0.1-0.5,0.1-0.8,0.2
					c0-0.8-0.2-1.1-0.6-1c-4.7,1.3-6.9,2-11.2,3.5c0-0.4,0-0.6,0-1c0.9-0.4,1.5-0.8,1.8-1.3c0.3-0.5,0.5-1.3,0.4-2.2
					c0-5.1-0.1-4-0.1-9c0-0.9-0.2-1.6-0.5-1.7c-0.3-0.1-0.9,0.2-1.6,0.8c0-0.4,0-0.6,0-1c3.9-3.6,6-5.2,10.5-8
					C53.3,26.8,53.6,26.2,53.6,25.3z"/>
				<path class="st1" d="M58.4,23.9c2.2-1.1,3.3-1.6,5.5-2.6c3.1,9.8,4.7,8.1,7.9,16.3c1.6-5.2,2.5-6.4,4.2-10.5
					c1.6-3.8,2.7-7.7,3.2-10.5c2.6-0.5,3.9-0.8,6.6-1.1c0,0.5,0,0.8,0,1.3c-1.1,0.2-1.8,0.5-2.2,1.1c-0.4,0.5-0.6,1.4-0.6,2.4
					c0,0.1,0,0.3,0,0.5c0.6,6.7,0.9,7.3,1.6,13.9c0.2,2,0.5,3.6,0.9,4.3c0.4,0.7,1.2,1.1,2.4,1.1c0,0.5,0,0.8,0,1.4
					c-3.6,0.2-5.3,0.4-8.9,0.8c0-0.6,0-0.8,0-1.4c0.9-0.1,1.5-0.5,1.9-1c0.4-0.5,0.5-1.5,0.5-2.7c0-0.2,0-0.5,0-0.8
					c-0.6-6.9-1-7.5-1.6-13.6c-2,4.3-3.4,6.7-4.2,8.6c-1.7,4-2.6,5.8-4.2,13.3c-0.3,0-0.5,0.1-0.8,0.1c-3.5-13.7-5.2-10.7-8.6-18.7
					c-0.2,3-0.2,4-0.4,6c-0.2,2.3-0.3,3.9-0.2,5.4c0.1,3.3,1,6,2.8,5.8c0,0.5,0,0.7,0,1.3c-3.1,0.6-4.6,0.9-7.6,1.7
					c0-0.5,0-0.7,0-1.2c0.8-0.5,1.4-1.3,1.8-2.5c0.4-1.1,0.9-3,1.3-5c0.4-2,0.7-3.7,0.9-5.7c0.1-1.5,0.2-2.3,0.3-4.3
					c0-0.2,0-0.5,0-0.8c0-0.9-0.2-1.6-0.5-1.8c-0.3-0.2-0.9-0.2-1.7,0.2C58.5,24.7,58.4,24.4,58.4,23.9z"/>
				<path class="st1" d="M88.9,15.3c4.7-0.4,7.1-0.5,11.8-0.2c2,0.1,3.5,0.8,4.5,2c0.9,1.2,1.4,2.5,1.4,3.9c0,2.2-1,3.8-2.8,5.3
					c-1.9,1.5-3.8,2.2-5.7,2.2c-0.4,0-0.9,0-1.3-0.1c-0.5-0.1-0.9-0.2-1.5-0.4c0,2.8,0,4,0,8c0,2.3,0.9,3.9,2.8,4c0,0.5,0,0.8,0,1.4
					c-3.5,0-5.3,0.1-8.9,0.3c0-0.6,0-0.9,0-1.4c1.1-0.1,1.8-0.4,2.2-1c0.4-0.6,0.6-1.7,0.6-3.1c0-7.9,0-8.4-0.1-15.8
					c0-1.4-0.2-2.4-0.6-2.9c-0.4-0.5-1.2-0.7-2.2-0.6C88.9,16.1,88.9,15.8,88.9,15.3z M95.2,17.8c0,3.8,0,5.1,0,7.8
					c0.8,0.5,1.5,0.9,2.2,1.1c0.7,0.3,1.4,0.4,2,0.4c1.2,0,2-0.3,2.6-1c0.6-0.7,0.9-1.7,0.9-3.2c0-1.6-0.3-3.1-1.1-4.5
					c-0.7-1.4-1.8-2.3-3.2-2.3C97.4,16.2,96.3,16.8,95.2,17.8z"/>
				<path class="st1" d="M116.2,18.5c-1.1-0.2-1.8-0.1-2.2,0.3c-0.4,0.4-0.6,1.4-0.6,2.6c-0.1,7-0.2,7.3-0.3,15
					c0,2.3,0.8,3.9,2.6,4.2c0,0.5,0,0.8,0,1.4c-3.4-0.4-5.2-0.5-8.7-0.6c0-0.6,0-0.9,0-1.4c1.1,0,1.8-0.2,2.2-0.8
					c0.4-0.6,0.6-1.6,0.6-3c0.1-7.8,0.2-8.2,0.3-15.3c0-1.3-0.2-2.4-0.6-2.9c-0.4-0.5-1.1-0.9-2.2-1.1c0-0.5,0-0.7,0-1.3
					c3.6,0.5,5.4,0.8,8.9,1.6C116.2,17.8,116.2,18,116.2,18.5z"/>
				<path class="st1" d="M118.3,17.8c4.5,1.2,6.7,2,11,3.9c1.6,0.7,2.7,1.7,3.5,2.9s1.1,2.4,1.1,3.6c0,1.3-0.5,2.2-1.4,2.7
					c-0.9,0.6-2.2,0.9-4.1,1.2c1.4,2.3,2.1,3.4,3.5,6.2c1.6,3.2,3,5.6,4.4,6.1c0,0.5,0,0.7,0,1.2c-1.5-0.4-2.3-0.6-3.9-1
					c-0.8-0.2-1.5-1.1-2.1-2.7c-2.5-6.5-3.8-8-6.4-12.1c-0.1,2.8-0.1,3.9-0.2,8.1c0,2.1,0.8,3.8,2.6,4.2c0,0.5,0,0.8,0,1.3
					c-3.3-0.6-5-0.8-8.5-1.2c0-0.6,0-0.8,0-1.3c1.1,0.1,1.8-0.1,2.1-0.6c0.4-0.5,0.6-1.5,0.6-2.8c0.2-7.4,0.2-7.6,0.4-14.3
					c0-1.2-0.2-2.3-0.5-2.8c-0.4-0.6-1.1-1-2.1-1.3C118.3,18.5,118.3,18.3,118.3,17.8z M124.1,21.9c-0.1,3.6-0.1,4.7-0.2,7.1
					c1.3,1.2,2.4,1.9,3.4,2.2c1,0.3,1.7,0.3,2.2-0.1s0.8-1,0.8-2.2c0-1.4-0.3-2.9-1-4.3c-0.7-1.4-1.6-2.5-2.6-2.9
					C125.9,21.4,125,21.5,124.1,21.9z"/>
				<path class="st1" d="M148.5,33.5c0.3,0.2,0.4,0.4,0.6,0.6c0,3,0,3.8,0,5.2c-0.4-0.3-0.6-0.5-1-0.8c0-1-0.4-2.3-1.2-3.6
					c-0.8-1.3-2-2.8-3.6-4c-0.4-0.3-0.7-0.5-1.1-0.8c-0.1,1.3-0.2,2.2-0.2,3c0,1.5,0.3,2.6,0.9,3.5c0.6,0.9,1.7,1.8,3.1,2.7
					c0.6,0.4,0.8,0.5,1.4,0.9c0,0.2,0,0.3,0,0.6c-2.1-1.3-3.2-1.9-5.4-3c-0.1,2.3-0.1,3.3-0.2,8.4c0.6,0.2,1,0.3,1.6,0.6
					c3.4,1.2,5.2-0.4,5.7-2.5c0.4,0.2,0.6,0.3,1,0.6c-0.5,1.5-0.7,2.4-1.2,6.2c-0.3-0.1-0.4-0.2-0.7-0.3c0-0.7-0.2-1.1-0.5-1.2
					c-4.2-1.7-6.5-2.5-11.1-3.8c0-0.5,0-0.7,0-1.2c1,0.3,1.6,0.2,1.9-0.2c0.3-0.4,0.5-1.2,0.5-2.3c0.1-6.2,0.2-5.8,0.3-11.1
					c0-1-0.1-1.9-0.5-2.5c-0.3-0.6-0.9-1.2-1.8-1.7c0-0.4,0-0.6,0-1c4.5,2.7,6.6,4.3,10.5,7.8C148.2,34.2,148.5,34.2,148.5,33.5z"/>
			</g>
		</g>
		<g>
			<g>
				<path class="st1" d="M42.1,55.1c6.2,1.1,9.1,1.6,14.5,2.5c2.4,0.4,4,0.8,5,1.4c1,0.6,1.5,1.4,1.4,2.3c-0.1,1.5-1.2,3-3.3,4.1
					c-2.1,1.1-4.3,1.3-6.6,0.4c-0.5-0.2-1-0.4-1.6-0.8c-0.5-0.3-1.1-0.7-1.7-1.1c-0.1,3-0.1,4.8-0.2,8.6c0,2.3,1,4.1,3.2,5.2
					c0,0.5,0,0.7,0,1.2c-4.1-2-6.2-3-10.7-5.4c0-0.4,0-0.6,0-1.1c1.4,0.7,2.3,0.9,2.7,0.6s0.7-1.1,0.7-2.4c0.1-7.5,0.1-11,0.2-13.8
					c0-0.5-0.2-0.8-0.8-1c-0.5-0.2-1.5-0.4-2.9-0.7C42.1,55.1,42.1,55.1,42.1,55.1z M50,57.2c-0.1,1.2-0.1,2.2-0.2,4.6
					c0.9,0.8,1.8,1.5,2.6,2.1c0.8,0.6,1.6,1,2.3,1.2c1.3,0.5,2.3,0.4,3-0.1c0.7-0.5,1.1-1.5,1.1-2.8c0.1-1.3-0.3-2.3-1.1-3.1
					c-0.8-0.8-2-1.2-3.7-1.5C52.7,57.2,51.4,57.1,50,57.2z"/>
				<path class="st1" d="M73.3,60.6c-1.1-0.1-1.9-0.1-2.3,0.2c-0.4,0.2-0.6,0.8-0.7,1.8c-0.3,5.5-0.5,9.4-0.8,18.1
					c-0.1,2.5,0.8,4.3,2.7,4.9c0,0.5,0,0.8,0,1.3c-3.6-1.1-5.4-1.8-9.3-3.4c0-0.5,0-0.7,0-1.2c1.2,0.5,2,0.5,2.4,0
					c0.4-0.4,0.6-1.4,0.7-2.9c0.3-8.5,0.5-12.4,0.8-17.6c0.1-1-0.1-1.5-0.5-1.9c-0.4-0.3-1.2-0.6-2.3-0.8c0-0.2,0-0.3,0-0.5
					c3.9,0.6,5.7,0.8,9.3,1.2C73.4,60.2,73.4,60.3,73.3,60.6z"/>
				<path class="st1" d="M75.4,60.2c4.6,0.5,6.7,0.7,10.9,1c1.6,0.1,2.7,0.5,3.4,1.3c0.7,0.8,1.1,1.9,1.1,3.4c0,1.7-0.5,3.3-1.4,4.7
					c-0.9,1.4-2.3,2.7-4.1,3.8c1.4,3.4,2.1,5.2,3.6,8.8c1.6,4.1,3.1,6.4,4.6,6.6c0,0.5,0,0.8,0,1.3c-1.6-0.1-2.4-0.2-4.1-0.4
					c-0.8-0.1-1.5-1-2.1-2.6c-2.6-6.9-3.8-10.2-6.4-16.2c-0.1,4.3-0.2,6.7-0.4,11.8c-0.1,2.6,0.8,4.2,2.6,4.7c0,0.5,0,0.8,0,1.3
					c-3.4-0.7-5.1-1.1-8.7-2.2c0-0.5,0-0.8,0-1.3c1.1,0.3,1.8,0.2,2.2-0.3c0.4-0.5,0.6-1.5,0.7-3c0.3-8.8,0.4-12.8,0.7-19
					c0.1-1.2-0.1-1.9-0.5-2.2s-1.1-0.6-2.1-0.8C75.4,60.6,75.4,60.4,75.4,60.2z M81.2,62.4c-0.1,2.9-0.2,4.6-0.3,8.1
					c1.3,1.5,2.4,2.3,3.4,2.5c1,0.2,1.7-0.1,2.3-0.9c0.5-0.8,0.8-2.1,0.8-3.7c0.1-2-0.3-3.6-0.9-4.7c-0.7-1.2-1.5-1.7-2.6-1.8
					C83,61.7,82.1,61.9,81.2,62.4z"/>
				<path class="st1" d="M103,60.2c0.4,0,0.6,0,0.9,0c2.3,9.3,3.5,13.7,6,22.6c0.5,1.7,1,3,1.5,4.1c0.5,1,1.2,1.5,2,1.4
					c0,0.4,0,0.7,0,1.1c-2.5,0.5-3.7,0.7-6.1,1c0-0.5,0-0.7,0-1.2c0.2,0,0.2,0,0.4,0c0.2,0,0.3-0.3,0.3-0.8c0-0.2,0-0.3-0.1-0.5
					c-0.8-3.2-1.3-4.8-2.1-7.9c-2.9,0.1-4.3,0.1-7.2,0c-0.8,3-1.1,5.4-1.2,7c0,0.8,0.2,1.5,0.5,2.1c0.4,0.5,0.8,0.8,1.4,0.8
					c0.4,0,0.5,0,0.9,0c0,0.5,0,0.7,0,1.2c-3,0.1-4.5,0.1-7.5-0.1c0-0.5,0-0.8,0-1.3c1.3,0,2.4-2.1,3.5-5.8
					C99.1,73.7,100.4,69.9,103,60.2z M102.4,66.7c-1.3,4.7-2,7-3.4,11.9c2.6,0.1,3.8,0.1,6.4,0C104.2,73.8,103.6,71.4,102.4,66.7z"
					/>
				<path class="st1" d="M111.9,59.9c0.3,0,0.4,0,0.7-0.1c0.2,0.7,0.4,1.1,0.7,1.1c5.8-0.4,8.7-0.7,15.2-1.5
					c0.4-0.1,0.6-0.4,0.6-1.2c0.4,0,0.5-0.1,0.9-0.1c0.1,4,0.1,5.6,0.2,8.8c-0.5,0.1-0.8,0.1-1.3,0.2c-0.2-3.9-2.1-6.2-5.7-5.8
					c-0.4,0-0.6,0.1-1,0.1c0.2,10,0.4,13.1,0.7,21.3c0.1,2.1,1,2.9,2.8,2.4c0,0.4,0,0.6,0,1c-3.5,1.2-5.2,1.7-8.6,2.6
					c0-0.4,0-0.7,0-1.1c1-0.3,1.7-0.7,2.1-1.3c0.3-0.6,0.5-1.5,0.5-2.8c-0.3-8.6-0.4-11.8-0.6-21.8c-0.5,0-0.7,0.1-1.2,0.1
					c-3.1,0.3-4.6,2.7-4.7,6.9c-0.5,0-0.7,0-1.2,0.1C112,65.4,112,63.7,111.9,59.9z"/>
				<path class="st1" d="M147.4,55.5c0.4-0.1,0.6-0.1,1.1-0.2c0,4,0,5.5,0,8.1c-0.6,0.1-1,0.2-1.6,0.3c0-1.8-0.7-3.2-1.9-4
					c-1.2-0.8-3.1-1.1-5.4-0.7c-0.6,0.1-0.9,0.1-1.6,0.2c-0.1,1.8-0.2,3.2-0.1,4.4c0.1,2.4,0.5,3.7,1.5,4.5c0.9,0.7,2.4,0.8,4.4,0.3
					c0.8-0.2,1.2-0.3,2.1-0.5c0,0.4,0,0.6,0,1c-3.1,0.9-4.6,1.3-7.6,2.1c0.1,3.7,0.2,5.2,0.3,9c0.8-0.4,1.2-0.5,2.1-0.9
					c4.5-2,7.2-4.8,7.8-7.6c0.6-0.2,0.9-0.3,1.5-0.6c-0.7,2.2-1,3.2-1.7,5.9c-0.4,0.2-0.6,0.3-1,0.5c0-0.4-0.3-0.5-0.8-0.2
					c-6,2.9-8.9,4.2-14.3,6.4c0-0.4,0-0.5,0-0.9c1.1-0.4,1.9-1,2.3-1.5c0.4-0.5,0.6-1.3,0.5-2.3c-0.2-5.8-0.3-7.9-0.5-15.4
					c0-1.4-0.3-2.4-0.7-2.8c-0.5-0.4-1.2-0.6-2.3-0.5c0-0.5,0-0.7,0-1.2c5.4-0.7,8.3-1.1,14.6-2.1C146.9,56.9,147.4,56.4,147.4,55.5
					z"/>
			</g>
		</g>
		<g>
			<path class="st0" d="M37,48.3v2.3H17.7L37,48.3 M38,47.2L0.6,51.6H38V47.2L38,47.2z"/>
		</g>
		<g>
			<path class="st0" d="M171.5,55.5l-19.4,2.3v-2.3H171.5 M188.7,54.5h-37.5v4.4L188.7,54.5L188.7,54.5z"/>
		</g>
		<polygon class="st0" points="188.7,54.5 151.2,49.9 151.2,54.5 		"/>
		<polygon class="st0" points="45.5,2.4 62.1,16.5 60.9,17.8 		"/>
		<polygon class="st0" points="45.5,2.4 59.6,19.1 60.9,17.8 		"/>
		<polygon class="st0" points="158.3,4 144.2,20.6 143,19.4 		"/>
		<polygon class="st0" points="158.3,4 141.7,18.1 143,19.4 		"/>
		<polygon class="st0" points="0.6,51.6 38,56.2 38,51.6 		"/>
		<polygon class="st0" points="88.7,48.9 91.7,50.9 91.2,51.3 		"/>
		<polygon class="st0" points="88.7,48.9 90.7,51.8 91.2,51.3 		"/>
		<polygon class="st0" points="94.5,54.6 91.6,52.6 92,52.2 		"/>
		<polygon class="st0" points="94.5,54.6 92.5,51.6 92,52.2 		"/>
		<circle class="st0" cx="91.6" cy="51.7" r="0.3"/>
	</g>
	<path class="st2" d="M138.6,27.4c-0.1,0-0.2,0-0.3,0v0H138.6z"/>
	<path class="st2" d="M138.6,27.4L138.6,27.4c-0.1,0-0.2,0-0.3,0H138.6z"/>
	<g>
		<path class="st1" d="M45,89.3c0.1-0.4,0.3-0.6,0.7-0.5c1,0.3,1.7,0.5,2.1,0.9c0.1,0.3,0,0.4-0.4,0.5c-0.2,0-0.3,0.2-0.4,0.6
			c-0.3,1.2-0.6,2.5-1,4c-0.1,0.3,0,0.5,0.4,0.6l4,0.9c0.4,0.3,0.9,0.1,1.3-0.5c0.2-0.2,0.5-0.5,0.8-0.7c0.3-0.4,0.7-0.2,1.1,0.5
			c0.3,0.3,0.6,0.7,0.9,1.2c0.2,0.5,0.3,0.7,0.3,0.8c-0.1,0.1-0.3,0.1-0.8,0L46.2,96c-0.3-0.1-0.5,0.1-0.5,0.5
			c-0.1,2.3,0.5,4.7,1.6,7c1.2,2.2,2.7,3.7,4.4,4.5c0.5,0.3,0.7,0.5,0.7,0.5l-0.9,0.3c-0.4,0.2-0.8,0.4-1,0.8
			c-0.2,0.4-0.6,0.4-1,0.1c-1.8-1.5-3.1-3.1-3.7-4.9c-0.7-2.3-0.9-4.6-0.7-6.7c0-0.3-0.1-0.3-0.2,0.1c-0.9,2.6-2.3,4.5-4.2,5.9
			c-1.7,1.3-3.6,2-5.6,2.1c-0.6,0-1.1,0.1-1.7,0c-0.4-0.1-0.6-0.1-0.6-0.2c0.1-0.1,0.3-0.1,0.8-0.2c2.8-0.6,5.1-2,6.9-4.2
			c1.3-1.6,2.2-3.5,2.8-5.7c0.1-0.3-0.1-0.5-0.4-0.6L37.4,94l-0.7,0c-0.4,0-0.7-0.2-0.7-0.5c0-0.4,0.2-0.5,0.7-0.3l0.7,0.2l5.7,1.2
			c0.3,0.1,0.6-0.1,0.7-0.5C44.2,92.7,44.6,91.1,45,89.3z"/>
		<path class="st1" d="M66.3,97.6c0.3-0.4,0.5-0.7,0.5-0.7c0.2,0.1,0.2,0.4-0.1,0.9c-0.9,2.1-1.9,4.1-2.8,6.2
			c-0.7,1.2-1,2.4-0.8,3.5l0.3,1.7c0.1,0.8,0,1.5-0.4,2c-0.5,0.6-1,0.8-1.6,0.5c-0.7-0.5-0.9-1.2-0.7-2.2c0.3-1.1,0.5-2,0.5-2.9
			c0-0.4-0.3-0.8-0.8-1.2c-0.5-0.3-0.7-0.5-0.6-0.6c0.1,0,0.3-0.1,0.7,0c0.2,0.1,0.5,0.1,0.8,0c0.2,0,0.3-0.1,0.4-0.2
			C63.3,102.3,64.8,99.9,66.3,97.6z M60.8,96.5c0.1-0.1,0.3-0.1,0.9,0.1c1.3,0.4,2.2,1.3,2.5,2.7c0,0.4-0.1,0.8-0.4,1.3
			c-0.5,0.5-1.1,0.5-1.7,0.1c-0.3-0.4-0.5-0.8-0.4-1.3c0.1-0.7-0.1-1.4-0.4-2.1C60.9,96.8,60.8,96.6,60.8,96.5z M63.1,92.2
			c0-0.1,0.3-0.1,0.7,0c0.4,0.1,0.9,0.3,1.4,0.6c1.5,0.9,1.8,1.9,1,3.2c-0.4,0.3-0.8,0.4-1.3,0.2c-0.6-0.3-0.8-1-0.8-1.9
			C63.9,93.6,63.6,92.9,63.1,92.2z M69.6,92.8c0.1-0.1,0.4,0,0.8,0.2c0.8,0.3,1.3,0.6,1.7,0.9c0.1,0.3,0,0.5-0.4,0.5
			c-0.2,0.1-0.4,0.3-0.6,0.7l-0.2,0.4C70.6,95.8,70.7,96,71,96l4.8,0.5c0.5,0.2,0.9,0,1.2-0.6l0.4-0.4c0.4-0.6,0.8-0.6,1.2-0.1
			c0.8,0.7,1.3,1.3,1.5,1.9c-0.1,0.2-0.4,0.2-0.9,0.1l-8.4-0.9c-0.3,0-0.7,0.1-1,0.5l-0.4,0.5c-0.3,0.3-0.2,0.6,0.2,0.8
			c0.6,0.4,1,0.6,1.3,0.6l4.4,0.5c0.4,0.1,0.7,0.1,0.9-0.2c0.4-0.6,0.8-0.8,1.2-0.5c0.4,0.3,0.9,0.6,1.3,1c0.4,0.4,0.4,0.7-0.2,0.9
			c-0.3,0.1-0.5,0.3-0.5,0.6l-0.4,2.1c0,0.3,0.1,0.4,0.4,0.1c0.3-0.3,0.5-0.5,0.6-0.4c0.5,0.4,0.8,0.8,0.9,1.1
			c0.2,0.3,0.3,0.6,0.2,0.8c-0.1,0.1-0.3,0.1-0.7,0l-1.2-0.1c-0.3,0-0.5,0.2-0.6,0.6c-0.2,1-0.4,1.9-0.6,2.9c-0.1,0.4,0,0.5,0.3,0.1
			c0.5-0.9,1.1-0.7,1.7,0.6c0.2,0.4,0.3,0.7,0.3,0.8c-0.1,0.2-0.4,0.2-0.9,0.1l-1.3-0.1c-0.3,0-0.6,0.2-0.7,0.6
			c-0.1,0.5-0.4,0.9-0.7,1.4c-0.8,1-1.7,1.5-2.9,1.4c-0.1-0.1-0.1-0.3-0.1-0.7c-0.1-0.5-0.3-0.9-0.7-1.3c-0.3-0.3-0.5-0.5-0.5-0.6
			c0.1-0.1,0.3-0.1,0.7,0c0.9,0.4,1.5,0.2,2-0.6c0.1-0.3,0-0.4-0.3-0.5l-5.1-0.5c-0.3,0-0.6,0.1-0.7,0.6c-0.1,0.6-0.5,0.8-1.1,0.7
			c-1,0-1.3-0.5-1-1.3c0.6-1.5,1.1-3,1.5-4.5c0.1-0.3-0.1-0.5-0.5-0.5l-0.4,0c-0.5,0-0.8-0.1-0.9-0.4c-0.1-0.3,0.1-0.4,0.6-0.4
			c0.3,0,0.7,0.1,1,0.2c0.3,0,0.6-0.2,0.7-0.6c0.3-1.1,0.6-2.2,0.8-3.4c0.1-0.4-0.1-0.4-0.4-0.1c-0.6,0.5-1,0.7-1.2,0.8
			c-0.1,0-0.1,0-0.2-0.1C67.8,97.7,68.9,95.4,69.6,92.8z M75,105.3c0.1-0.5,0-0.7-0.4-0.7l-5-0.5c-0.3,0-0.6,0.2-0.7,0.6
			c-0.3,1.1-0.6,2.1-0.9,3.2c-0.1,0.3,0.1,0.5,0.4,0.5l5.1,0.5c0.3,0,0.6-0.2,0.7-0.6C74.6,107.3,74.8,106.3,75,105.3z M70.9,99.5
			c-0.4,0-0.7,0.2-0.8,0.6c-0.2,0.9-0.4,1.9-0.7,2.8c-0.1,0.4,0,0.6,0.3,0.6l5,0.5c0.3,0,0.5-0.2,0.6-0.6l0.6-3.1c0-0.2,0-0.3,0-0.3
			c-0.1,0-0.3-0.1-0.7-0.1L70.9,99.5z M70.5,104.6c0-0.1,0.2-0.1,0.6,0.1c1.4,0.7,2,1.5,2,2.6c-0.1,0.8-0.5,1.2-1.2,1.2
			c-0.6,0-0.9-0.4-0.9-1.1C71.2,106.4,71.1,105.5,70.5,104.6z M71.4,100.2c0-0.1,0.2-0.1,0.7-0.1c0.7,0.1,1.3,0.4,1.9,1.2
			c0.1,0.2,0.2,0.5,0.2,0.8c-0.1,1.1-0.6,1.5-1.5,1.2c-0.4-0.2-0.6-0.6-0.6-1.1C72.1,101.5,71.9,100.8,71.4,100.2z"/>
		<path class="st1" d="M87.3,109.7c0.1-0.5,0.5-0.6,1-0.5c0.5,0.1,0.9,0.3,1.4,0.5c0.2,0.1,0.4,0.3,0.3,0.5
			c-0.1,0.2-0.3,0.3-0.5,0.2c-0.1,0-0.2,0.1-0.4,0.3c-1.2,1.6-2.5,2.7-3.9,3.3c-0.1,0-0.1-0.1-0.1-0.1
			C86.3,112.5,87,111.1,87.3,109.7z M91,94.9c0.2-0.3,0.5-0.4,0.7-0.2c0.4,0.1,1,0.4,1.7,0.8c0.7,0.4,0.7,0.8,0.1,1.1
			c-0.2,0.1-0.3,0.3-0.3,0.7l-0.1,9.8c0.1,0.8-0.2,1.3-1.1,1.4c-0.7,0.2-1.1-0.1-1.2-0.7c0-0.2-0.2-0.3-0.5-0.3l-0.9,0
			c-0.3,0-0.5,0.1-0.5,0.3c-0.1,0.6-0.5,0.9-1.1,0.9c-0.9,0.2-1.3-0.2-1.2-1.2l0.1-12.2c0-0.5,0.2-0.6,0.6-0.5
			c0.5,0.1,0.9,0.3,1.4,0.6c0.4,0.3,0.9,0.4,1.6,0.3C90.6,95.3,90.8,95.1,91,94.9z M90.8,104.2c0-0.4-0.1-0.6-0.5-0.6l-1,0
			c-0.3,0-0.5,0.2-0.5,0.5l0,2.3c0,0.3,0.2,0.5,0.5,0.5l0.9,0c0.3,0,0.5-0.2,0.5-0.5L90.8,104.2z M90.9,100.4c0-0.4-0.1-0.6-0.5-0.6
			l-1,0c-0.3,0-0.5,0.2-0.5,0.5l0,2.2c0,0.3,0.2,0.5,0.5,0.5l0.9,0c0.3,0,0.5-0.2,0.5-0.5L90.9,100.4z M90.9,96.7
			c0-0.4-0.2-0.6-0.5-0.6l-0.9,0c-0.4,0-0.5,0.2-0.5,0.5l0,2.2c0,0.3,0.2,0.5,0.5,0.5l0.9,0c0.3,0,0.5-0.2,0.5-0.5L90.9,96.7z
			 M90.2,109.3c0-0.2,0.3-0.3,0.7-0.1c1.1,0.2,2,1,2.6,2.2c0.2,0.6,0.1,1.1-0.3,1.7c-0.2,0.3-0.4,0.4-0.9,0.4
			c-0.8-0.1-1.3-0.5-1.3-1.3C91.3,111.1,91,110.1,90.2,109.3z M94.7,101.1c0-0.4,0.2-0.6,0.7-0.6c0.5,0.1,1,0.1,1.5,0.2
			c0.3,0,0.5,0.2,0.7,0.4c-0.5,0.5-0.6,0.9-0.6,1.2l0,1.2c0,0.4,0.1,0.4,0.4,0c0.3-0.3,0.5-0.4,0.5-0.4c0.7,0.5,1.2,1.1,1.4,1.8
			c-0.1,0.2-0.4,0.3-0.8,0.2l-1,0c-0.3,0-0.5,0.2-0.5,0.5l0,3.9c0.1,0.8-0.2,1.3-1.1,1.3c-0.9,0-1.3-0.5-1.1-1.3l0-3.8
			c0-0.3-0.1-0.5-0.4-0.5c-0.4,0-0.6,0-0.7-0.2l-0.1-0.5c0-0.1,0.2-0.1,0.6-0.1c0.4,0,0.6-0.1,0.6-0.4L94.7,101.1z M98.8,94.9
			c0-0.4,0.2-0.6,0.6-0.6c1,0.1,1.7,0.4,2.1,0.6c0.1,0.2,0.1,0.4-0.1,0.5c-0.2,0.1-0.4,0.4-0.4,0.8c0,0.7-0.1,1.5-0.1,2.3
			c0,0.3,0.1,0.5,0.4,0.5c0.4,0.1,0.9-0.2,1.4-1.1c0.3-0.4,0.6-0.6,0.6-0.6c0.5,0.2,1.1,0.7,1.8,1.4c0.3,0.4,0.4,0.6,0.4,0.7
			c-0.1,0.1-0.3,0.1-0.8,0.1l-3.3,0c-0.3,0-0.5,0.2-0.5,0.6c0.1,1.6,0.3,3.2,0.6,4.7c0.1,0.4,0.2,0.3,0.4-0.1
			c0.4-0.9,0.8-1.9,1.1-3.2c0.1-0.1,0.3,0,0.7,0.1c0.4,0.1,0.8,0.3,1.2,0.5c0.5,0.3,0.8,0.5,0.7,0.6c-0.1,0.2-0.2,0.3-0.5,0.3
			c-0.1,0-0.3,0.2-0.5,0.7c-0.4,0.9-1.1,2.2-2.1,3.8c-0.2,0.3-0.2,0.7-0.1,1.1c0.3,0.9,0.7,1.6,1.2,2c0.2,0,0.4-0.2,0.5-0.6l0.4-0.8
			c0.3-0.5,0.5-0.8,0.6-0.7c0.2,0.1,0.2,0.3,0.1,0.7c-0.1,0.6-0.2,1.1-0.3,1.7c-0.1,0.7,0,1.4,0.2,1.9c0.2,0.5,0.2,0.9-0.2,1.2
			c-0.5,0.3-1,0.2-1.7-0.3c-0.5-0.3-0.9-0.9-1.4-1.6c-0.3-0.5-0.6-1-0.9-1.7c-0.2-0.4-0.5-0.4-0.8,0c-2,1.9-4.2,3-6.4,3.3
			c-0.1,0,0.1-0.2,0.7-0.6c1.9-1.1,3.7-2.7,5.3-4.8c0.3-0.4,0.3-0.7,0.2-1.1c-0.6-2.3-1-4.8-1.1-7.4c0-0.3-0.2-0.5-0.5-0.5l-3.2,0
			l-0.7,0.1c-0.4,0.1-0.7-0.1-0.8-0.5l-0.1-0.3c0-0.1,0.2-0.1,0.7,0c0.3,0,0.5,0.1,0.9,0.1l3.2,0c0.3,0,0.5-0.2,0.5-0.5
			c0-1,0-1.9,0-2.9C98.9,95.4,98.8,95.2,98.8,94.9z M102.6,94.3c0-0.1,0.3-0.1,0.7-0.1c0.6,0.1,1.1,0.2,1.6,0.5c0.8,0.4,1.1,1,1,1.7
			c0,0.3-0.2,0.6-0.4,0.8c-0.7,0.4-1.2,0.2-1.6-0.6c-0.1-0.6-0.3-1.1-0.6-1.5C102.8,94.6,102.6,94.3,102.6,94.3z"/>
		<path class="st1" d="M119.6,93.9c0-0.5,0.1-0.7,0.5-0.7c0.9,0,1.6,0.1,2.2,0.3c0.3,0.2,0.2,0.4-0.1,0.7c-0.2,0.1-0.2,0.3-0.2,0.6
			l0.1,1.5c0,0.3,0.2,0.5,0.5,0.5l3.5-0.3c0.4,0.1,0.6,0,0.8-0.4c0.2-0.3,0.3-0.6,0.6-0.9c0.3-0.7,0.7-0.8,1.2-0.3
			c0.9,0.6,1.5,1.1,1.8,1.6c-0.1,0.2-0.4,0.3-0.8,0.3l-4.2,0.3c-0.3,0-0.3,0.1,0.1,0.2c0.6,0.1,1,0.2,1.2,0.3
			c0.1,0.2,0.1,0.4-0.2,0.5c-0.3,0.1-0.5,0.3-0.8,0.9c-0.3,0.4-0.6,0.9-1,1.3c-0.4,0.4-0.5,0.6-0.1,0.6l2.8-0.2
			c0.3,0,0.6-0.1,0.9-0.3c0.4-0.5,0.7-0.7,1-0.6c0.7,0.3,1.4,0.6,2,1c0.4,0.2,0.5,0.4,0.5,0.6c-0.1,0.1-0.2,0.2-0.4,0.2
			c-0.2,0-0.5,0.2-0.9,0.5l-1.6,1.1c-0.4,0.2-0.7,0.2-0.7,0.2c0-0.1,0-0.4,0.1-0.9l0.1-0.8c0.1-0.4-0.1-0.5-0.4-0.5l-12.9,1
			c-0.4,0.1-0.6,0.3-0.6,0.7c0,0.7-0.2,1.4-0.6,1.9c-0.5,0.4-1,0.5-1.4,0.3c-0.6-0.3-0.9-0.8-0.7-1.5c0.1-0.3,0.3-0.6,0.6-0.8
			c0.7-0.6,1.1-1.3,1.3-2.1c0.1-0.5,0.2-0.7,0.2-0.7c0.1,0.2,0.3,0.5,0.4,1c0.1,0.3,0.3,0.5,0.7,0.5l2-0.2c0.3,0,0.4-0.2,0.2-0.6
			c-0.1-0.4-0.1-0.7-0.1-1.1c-0.1-0.5-0.3-0.9-0.6-1.4c-0.3-0.3-0.6-0.5-0.9-0.4l-2.1,0.2l-0.7,0.2c-0.5,0.1-0.7,0-0.8-0.2
			c-0.1-0.3,0.1-0.5,0.6-0.5c0.3,0,0.5,0,0.8,0l6-0.5c0.3,0,0.5-0.2,0.5-0.5L119.6,93.9z M120.2,103c0-0.4,0.1-0.7,0.6-0.7
			c1.2,0,2,0.1,2.4,0.4c0.2,0.4,0,0.6-0.6,0.9c0,0.1,0,0.3,0,0.6c0,0.4,0.2,0.5,0.5,0.5c0.9-0.1,1.7-0.1,2.6-0.2
			c0.2-0.2,0.5-0.6,1-1.2c0.1,0,0.3,0,0.8,0.2c0.7,0.3,1.2,0.6,1.7,0.9c0.4,0.4,0.3,0.8-0.4,1c-0.3,0.3-0.4,0.6-0.3,0.9l0.3,3.3
			c-0.1,1.2-0.7,1.9-1.9,2.1c-0.4,0.1-0.7-0.1-0.9-0.5c-0.3-0.6-0.8-0.9-1.3-1c-0.3,0-0.5-0.1-0.6-0.1c-0.1-0.1-0.1-0.2,0.1-0.4
			c0.9-0.1,1.6-0.2,1.9-0.4c0.2-0.2,0.2-0.5,0.2-0.9l-0.2-2.6c0-0.3-0.1-0.5-0.1-0.6c-0.1-0.1-0.3-0.1-0.6,0l-2.3,0.2
			c-0.3,0-0.5,0.2-0.5,0.5l0.5,6.3c0.2,1.1-0.3,1.6-1.3,1.5c-0.7-0.1-1-0.5-0.9-1.2l-0.5-6.4c0-0.3-0.2-0.5-0.5-0.5l-2.1,0.2
			c-0.4,0.1-0.6,0.3-0.6,0.6l0.4,5c0.2,0.9-0.1,1.4-1,1.6c-0.9,0.2-1.3-0.2-1.2-1l-0.5-7c0-0.5,0.2-0.6,0.6-0.5
			c0.5,0.1,1,0.3,1.5,0.5c0.4,0.2,0.7,0.3,1,0.2l2-0.2c0.3,0,0.5-0.2,0.5-0.5L120.2,103z M123.9,97.7c0-0.4-0.2-0.5-0.5-0.5
			l-5.7,0.4c-0.4,0-0.5,0.2-0.1,0.4c1.4,0.8,2,1.7,1.7,2.7c-0.1,0.4-0.1,0.5,0.2,0.5l3.3-0.3c0.3,0,0.6-0.3,0.7-0.7
			C123.7,99.5,123.8,98.7,123.9,97.7z"/>
		<path class="st1" d="M151.7,89.9c0.2-0.5,0.5-0.8,0.8-0.7c0.5,0.1,1.1,0.2,1.8,0.5c0.7,0.3,0.7,0.7,0,1.1c0,0.1,0,0.3,0.1,0.6
			l2.8,15.2c0.1,0.4,0.1,0.7,0,0.9c-0.4,0.6-1,0.8-1.7,0.6c-0.2-0.2-0.3-0.4-0.3-0.6c-0.1-0.3-0.2-0.4-0.6-0.3l-12.2,2.3
			c-0.3,0.1-0.5,0.3-0.4,0.7c0.1,0.4-0.1,0.7-0.5,1c-0.6,0.2-1,0.3-1.2,0.1c-0.2-0.1-0.4-0.5-0.4-1l-3.2-17.2
			c-0.1-0.4-0.1-0.6,0-0.7c0.5,0,1,0.1,1.7,0.3l0.5,0l12-2.2C151.2,90.4,151.4,90.2,151.7,89.9z M139.4,93.1
			c-0.4,0.1-0.6,0.4-0.5,0.7l2.7,14.6c0.1,0.3,0.3,0.5,0.6,0.4l12.2-2.3c0.3-0.1,0.5-0.3,0.4-0.6l-2.7-14.7
			c-0.1-0.4-0.3-0.5-0.6-0.5L139.4,93.1z M148.7,92.6c-0.4-0.5-0.4-0.8,0-0.9c1-0.2,1.6,0.2,1.8,1.2c-0.1,0.4,0,0.5,0.2,0.4
			c0.6,0.3,1,0.6,1.2,0.9c0.3,0.4,0.4,0.6,0.4,0.7c-0.1,0.1-0.3,0.2-0.7,0.2l-2.4,0.4c-0.3,0.1-0.4,0.3-0.3,0.7
			c0.3,1,0.6,1.9,0.9,2.9c0.1,0.4,0.2,0.3,0.3-0.2l0.2-1.9c0.1-0.4,0.3-0.7,0.7-0.6c0.8,0.1,1.4,0.2,1.8,0.5c0,0.3-0.1,0.4-0.3,0.4
			c-0.1,0-0.3,0.3-0.3,0.7c-0.2,1.2-0.5,2.3-0.9,3.3c-0.2,0.4-0.2,0.8,0,1.1c0.2,0.4,0.4,0.7,0.7,1c0.3-0.1,0.4-0.4,0.4-0.6l0.2-0.9
			c0.1-0.6,0.2-0.8,0.3-0.9c0.3,0,0.4,0.3,0.2,0.7c0,0.6,0,1.1,0.1,1.7c0,0.7,0.2,1.2,0.5,1.7c0.2,0.6,0.1,1.1-0.5,1.3
			c-0.5,0.1-1.1-0.2-1.9-0.9c-0.4-0.3-0.7-0.7-1.1-1.2c-0.2-0.3-0.5-0.2-0.9,0.3c-1.1,1.2-2.1,2-3.2,2.4c-0.4,0.1-0.6,0.2-0.7,0.1
			c0-0.1,0.2-0.3,0.6-0.5c1.1-0.8,2-2,2.7-3.5c0.2-0.5,0.2-0.9,0-1.3c-0.9-1.9-1.5-3.7-2-5.4c-0.1-0.3-0.3-0.4-0.6-0.4l-4.6,0.8
			l-1.3,0.4c-0.1,0-0.2-0.2-0.3-0.4c-0.1-0.3,0-0.5,0.5-0.5c0.3,0,0.5-0.1,0.9-0.1l4.6-0.8c0.3-0.1,0.4-0.3,0.4-0.7l-0.5-1.7
			c-0.2-0.5,0-0.7,0.4-0.8c0.4,0,0.8-0.1,1.2-0.1c0.6,0.1,0.9,0.1,1,0.2c0,0.1,0,0.3-0.1,0.4c-0.1,0.1-0.2,0.4-0.2,0.6l0.2,0.9
			c0.1,0.4,0.4,0.6,0.7,0.5c0.5,0.1,0.8-0.2,0.9-0.8c0.2-0.4,0.2-0.6,0-0.5c-0.6,0.2-1,0-1.2-0.7C148.8,92.9,148.8,92.8,148.7,92.6z
			 M140.9,98.9c-0.1-0.4,0.1-0.7,0.5-0.6c0.4,0,0.8,0.1,1.1,0.2c0.2,0.1,0.5,0.1,0.8,0s0.6-0.2,0.8-0.5c0.1-0.5,0.6-0.6,1.3-0.2
			c0.3,0.1,0.6,0.2,0.9,0.3c0.5,0.2,0.6,0.4,0.2,0.7c-0.2,0.1-0.3,0.4-0.1,0.8c0.1,0.7,0.3,1.4,0.4,2.2c-0.2,0.5-0.6,0.8-1.3,0.8
			c-0.2,0-0.4-0.1-0.6-0.4c0-0.2-0.3-0.2-0.7-0.2c-0.4,0.1-0.7,0.2-0.7,0.4c0,0.4-0.3,0.7-0.7,0.9c-0.9,0.4-1.3,0.1-1.3-0.7
			L140.9,98.9z M142.4,104.5c1.6-0.4,3.4-1,5.5-1.8c0.2,0.2,0.1,0.4-0.3,0.6c-1.1,1-2.5,2-4.1,2.9c-0.1,0.1-0.2,0.3-0.2,0.4
			c-0.3,0.5-0.6,0.4-0.9-0.3c-0.4-0.7-0.7-1.3-0.7-1.6C141.8,104.7,142,104.6,142.4,104.5z M143.6,98.9c-0.4,0.1-0.6,0.4-0.6,0.7
			l0.3,1.6c0.1,0.3,0.3,0.5,0.7,0.4c0.5-0.1,0.6-0.3,0.6-0.6l-0.3-1.6C144.3,99,144.1,98.8,143.6,98.9z"/>
	</g>
</g>
</svg>
