<?xml version="1.0" encoding="utf-8"?>
<!-- Generator: Adobe Illustrator 22.0.1, SVG Export Plug-In . SVG Version: 6.00 Build 0)  -->
<svg version="1.1" id="圖層_1" xmlns="http://www.w3.org/2000/svg" xmlns:xlink="http://www.w3.org/1999/xlink" x="0px" y="0px"
	 viewBox="0 0 250 15" style="enable-background:new 0 0 250 15;" xml:space="preserve">
<style type="text/css">
	.st0{fill:#998675;}
	.st1{fill:#FFFCF2;}
	.st2{fill:none;stroke:#A34F49;stroke-width:15;stroke-miterlimit:10;}
	.st3{fill:none;stroke:#FFFCF2;stroke-width:15;stroke-miterlimit:10;}
	.st4{fill:none;stroke:#FFFCF2;stroke-width:15;stroke-miterlimit:10;stroke-dasharray:50,50;}
	.st5{fill:url(#SVGID_1_);}
</style>
<g>
	<path class="st0" d="M249.9,6v3c0,3.3-2.7,6-6,6H6c-3.3,0-6-2.7-6-6V6c0-3.3,2.7-6,6-6h237.9C247.2,0,249.9,2.7,249.9,6z"/>
	<rect x="24.8" y="0" class="st1" width="200" height="15"/>
	<g>
		<line class="st2" x1="24.8" y1="7.5" x2="224.8" y2="7.5"/>
		<g>
			<g>
				<line class="st3" x1="27.8" y1="7.5" x2="52.8" y2="7.5"/>
				<line class="st4" x1="102.8" y1="7.5" x2="177.8" y2="7.5"/>
				<line class="st3" x1="202.8" y1="7.5" x2="227.8" y2="7.5"/>
			</g>
		</g>
	</g>
	<linearGradient id="SVGID_1_" gradientUnits="userSpaceOnUse" x1="124.9793" y1="-14.0998" x2="124.9793" y2="23.0904">
		<stop  offset="0" style="stop-color:#736357"/>
		<stop  offset="0.4926" style="stop-color:#938D8C;stop-opacity:0"/>
		<stop  offset="1" style="stop-color:#736357"/>
	</linearGradient>
	<path class="st5" d="M249.9,6v3c0,3.3-2.7,6-6,6H6c-3.3,0-6-2.7-6-6V6c0-3.3,2.7-6,6-6h237.9C247.2,0,249.9,2.7,249.9,6z"/>
</g>
</svg>
